<svg xmlns="http://www.w3.org/2000/svg" xmlns:xlink="http://www.w3.org/1999/xlink" contentStyleType="text/css" data-diagram-type="CLASS" height="474px" preserveAspectRatio="none" style="width:224px;height:474px;background:#FFFFFF;" version="1.1" viewBox="0 0 224 474" width="224px" zoomAndPan="magnify"><defs/><g><!--class Player--><g class="entity" data-entity="Player" data-source-line="6" data-uid="ent0002" id="entity_Player"><rect fill="#F1F1F1" height="80.5938" rx="2.5" ry="2.5" style="stroke:#181818;stroke-width:0.5;" width="202.9072" x="15.07" y="7"/><ellipse cx="87.2575" cy="23" fill="#ADD1B2" rx="11" ry="11" style="stroke:#181818;stroke-width:1;"/><path d="M90.2263,28.6406 Q89.6481,28.9375 89.0075,29.0781 Q88.3669,29.2344 87.6638,29.2344 Q85.1638,29.2344 83.8356,27.5938 Q82.5231,25.9375 82.5231,22.8125 Q82.5231,19.6875 83.8356,18.0313 Q85.1638,16.375 87.6638,16.375 Q88.3669,16.375 89.0075,16.5313 Q89.6638,16.6875 90.2263,16.9844 L90.2263,19.7031 Q89.6013,19.125 89.0075,18.8594 Q88.4138,18.5781 87.7888,18.5781 Q86.445,18.5781 85.7575,19.6563 Q85.07,20.7188 85.07,22.8125 Q85.07,24.9063 85.7575,25.9844 Q86.445,27.0469 87.7888,27.0469 Q88.4138,27.0469 89.0075,26.7813 Q89.6013,26.5 90.2263,25.9219 L90.2263,28.6406 Z " fill="#000000"/><text fill="#000000" font-family="sans-serif" font-size="14" font-weight="bold" lengthAdjust="spacing" textLength="50.0322" x="107.7575" y="27.8467">Player</text><line style="stroke:#181818;stroke-width:0.5;" x1="16.07" x2="216.9772" y1="39" y2="39"/><line style="stroke:#181818;stroke-width:0.5;" x1="16.07" x2="216.9772" y1="47" y2="47"/><text fill="#000000" font-family="sans-serif" font-size="14" lengthAdjust="spacing" textLength="88.5527" x="21.07" y="63.9951">listStations()</text><text fill="#000000" font-family="sans-serif" font-size="14" lengthAdjust="spacing" textLength="190.9072" x="21.07" y="80.292">selectStation(stationId: int)</text></g><!--class Station--><g class="entity" data-entity="Station" data-source-line="11" data-uid="ent0003" id="entity_Station"><rect fill="#F1F1F1" height="113.1875" rx="2.5" ry="2.5" style="stroke:#181818;stroke-width:0.5;" width="94.4482" x="69.3" y="164.59"/><ellipse cx="86.6172" cy="180.59" fill="#ADD1B2" rx="11" ry="11" style="stroke:#181818;stroke-width:1;"/><path d="M89.586,186.2306 Q89.0079,186.5275 88.3672,186.6681 Q87.7266,186.8244 87.0235,186.8244 Q84.5235,186.8244 83.1954,185.1838 Q81.8829,183.5275 81.8829,180.4025 Q81.8829,177.2775 83.1954,175.6213 Q84.5235,173.965 87.0235,173.965 Q87.7266,173.965 88.3672,174.1213 Q89.0235,174.2775 89.586,174.5744 L89.586,177.2931 Q88.961,176.715 88.3672,176.4494 Q87.7735,176.1681 87.1485,176.1681 Q85.8047,176.1681 85.1172,177.2463 Q84.4297,178.3088 84.4297,180.4025 Q84.4297,182.4963 85.1172,183.5744 Q85.8047,184.6369 87.1485,184.6369 Q87.7735,184.6369 88.3672,184.3713 Q88.961,184.09 89.586,183.5119 L89.586,186.2306 Z " fill="#000000"/><text fill="#000000" font-family="sans-serif" font-size="14" font-weight="bold" lengthAdjust="spacing" textLength="57.2988" x="101.1322" y="185.4367">Station</text><line style="stroke:#181818;stroke-width:0.5;" x1="70.3" x2="162.7482" y1="196.59" y2="196.59"/><text fill="#000000" font-family="sans-serif" font-size="14" lengthAdjust="spacing" textLength="12.7764" x="75.3" y="213.5851">id</text><text fill="#000000" font-family="sans-serif" font-size="14" lengthAdjust="spacing" textLength="39.7031" x="75.3" y="229.882">name</text><text fill="#000000" font-family="sans-serif" font-size="14" lengthAdjust="spacing" textLength="55.5488" x="75.3" y="246.1789">location</text><line style="stroke:#181818;stroke-width:0.5;" x1="70.3" x2="162.7482" y1="253.4806" y2="253.4806"/><text fill="#000000" font-family="sans-serif" font-size="14" lengthAdjust="spacing" textLength="82.4482" x="75.3" y="270.4757">getDetails()</text></g><!--class Building--><g class="entity" data-entity="Building" data-source-line="18" data-uid="ent0004" id="entity_Building"><rect fill="#F1F1F1" height="96.8906" rx="2.5" ry="2.5" style="stroke:#181818;stroke-width:0.5;" width="97.0439" x="7" y="362.93"/><ellipse cx="22" cy="378.93" fill="#ADD1B2" rx="11" ry="11" style="stroke:#181818;stroke-width:1;"/><path d="M24.9688,384.5706 Q24.3906,384.8675 23.75,385.0081 Q23.1094,385.1644 22.4063,385.1644 Q19.9063,385.1644 18.5781,383.5238 Q17.2656,381.8675 17.2656,378.7425 Q17.2656,375.6175 18.5781,373.9613 Q19.9063,372.305 22.4063,372.305 Q23.1094,372.305 23.75,372.4613 Q24.4063,372.6175 24.9688,372.9144 L24.9688,375.6331 Q24.3438,375.055 23.75,374.7894 Q23.1563,374.5081 22.5313,374.5081 Q21.1875,374.5081 20.5,375.5863 Q19.8125,376.6488 19.8125,378.7425 Q19.8125,380.8363 20.5,381.9144 Q21.1875,382.9769 22.5313,382.9769 Q23.1563,382.9769 23.75,382.7113 Q24.3438,382.43 24.9688,381.8519 L24.9688,384.5706 Z " fill="#000000"/><text fill="#000000" font-family="sans-serif" font-size="14" font-weight="bold" lengthAdjust="spacing" textLength="65.0439" x="36" y="383.7767">Building</text><line style="stroke:#181818;stroke-width:0.5;" x1="8" x2="103.0439" y1="394.93" y2="394.93"/><text fill="#000000" font-family="sans-serif" font-size="14" lengthAdjust="spacing" textLength="12.7764" x="13" y="411.9251">id</text><text fill="#000000" font-family="sans-serif" font-size="14" lengthAdjust="spacing" textLength="31.2744" x="13" y="428.222">type</text><text fill="#000000" font-family="sans-serif" font-size="14" lengthAdjust="spacing" textLength="33.291" x="13" y="444.5189">level</text><line style="stroke:#181818;stroke-width:0.5;" x1="8" x2="103.0439" y1="451.8206" y2="451.8206"/></g><!--class Cargo--><g class="entity" data-entity="Cargo" data-source-line="24" data-uid="ent0005" id="entity_Cargo"><rect fill="#F1F1F1" height="113.1875" rx="2.5" ry="2.5" style="stroke:#181818;stroke-width:0.5;" width="78.2656" x="139.39" y="354.78"/><ellipse cx="154.39" cy="370.78" fill="#ADD1B2" rx="11" ry="11" style="stroke:#181818;stroke-width:1;"/><path d="M157.3588,376.4206 Q156.7806,376.7175 156.14,376.8581 Q155.4994,377.0144 154.7963,377.0144 Q152.2963,377.0144 150.9681,375.3738 Q149.6556,373.7175 149.6556,370.5925 Q149.6556,367.4675 150.9681,365.8113 Q152.2963,364.155 154.7963,364.155 Q155.4994,364.155 156.14,364.3113 Q156.7963,364.4675 157.3588,364.7644 L157.3588,367.4831 Q156.7338,366.905 156.14,366.6394 Q155.5463,366.3581 154.9213,366.3581 Q153.5775,366.3581 152.89,367.4363 Q152.2025,368.4988 152.2025,370.5925 Q152.2025,372.6863 152.89,373.7644 Q153.5775,374.8269 154.9213,374.8269 Q155.5463,374.8269 156.14,374.5613 Q156.7338,374.28 157.3588,373.7019 L157.3588,376.4206 Z " fill="#000000"/><text fill="#000000" font-family="sans-serif" font-size="14" font-weight="bold" lengthAdjust="spacing" textLength="46.2656" x="168.39" y="375.6267">Cargo</text><line style="stroke:#181818;stroke-width:0.5;" x1="140.39" x2="216.6556" y1="386.78" y2="386.78"/><text fill="#000000" font-family="sans-serif" font-size="14" lengthAdjust="spacing" textLength="12.7764" x="145.39" y="403.7751">id</text><text fill="#000000" font-family="sans-serif" font-size="14" lengthAdjust="spacing" textLength="31.2744" x="145.39" y="420.072">type</text><text fill="#000000" font-family="sans-serif" font-size="14" lengthAdjust="spacing" textLength="58.3652" x="145.39" y="436.3689">quantity</text><text fill="#000000" font-family="sans-serif" font-size="14" lengthAdjust="spacing" textLength="57.4766" x="145.39" y="452.6657">demand</text><line style="stroke:#181818;stroke-width:0.5;" x1="140.39" x2="216.6556" y1="459.9675" y2="459.9675"/></g><!--link Player to Station--><g class="link" data-entity-1="Player" data-entity-2="Station" data-source-line="31" data-uid="lnk6" id="link_Player_Station"><path codeLine="31" d="M116.52,87.73 C116.52,110.43 116.52,133.32 116.52,158.33" fill="none" id="Player-to-Station" style="stroke:#181818;stroke-width:1;"/><polygon fill="#181818" points="116.52,164.33,120.52,155.33,116.52,159.33,112.52,155.33,116.52,164.33" style="stroke:#181818;stroke-width:1;"/><polygon fill="#000000" points="121.52,131.1564,124.4589,122.1113,118.5811,122.1113,121.52,131.1564" style="stroke:#000000;stroke-width:1;"/><text fill="#000000" font-family="sans-serif" font-size="13" font-style="italic" lengthAdjust="spacing" textLength="75.645" x="130.52" y="130.6569">lists/selects</text><text fill="#000000" font-family="sans-serif" font-size="13" font-style="italic" lengthAdjust="spacing" textLength="8.271" x="108.0485" y="153.5619">1</text></g><!--link Station to Building--><g class="link" data-entity-1="Station" data-entity-2="Building" data-source-line="32" data-uid="lnk7" id="link_Station_Building"><path codeLine="32" d="M78.56,278.07 C73.43,287.65 68.81,297.76 65.52,307.78 C59.83,325.13 57.5029,338.9549 56.2629,356.5049" fill="none" id="Station-to-Building" style="stroke:#181818;stroke-width:1;"/><polygon fill="#181818" points="55.84,362.49,60.4644,353.7943,56.1924,357.5024,52.4843,353.2305,55.84,362.49" style="stroke:#181818;stroke-width:1;"/><polygon fill="#000000" points="69.1528,321.1558,74.453,313.2591,68.7992,311.6519,69.1528,321.1558" style="stroke:#000000;stroke-width:1;"/><text fill="#000000" font-family="sans-serif" font-size="13" font-style="italic" lengthAdjust="spacing" textLength="55.0278" x="79.52" y="320.8469">contains</text><text fill="#000000" font-family="sans-serif" font-size="13" font-style="italic" lengthAdjust="spacing" textLength="6.5" x="49.5132" y="351.989">*</text></g><!--link Station to Cargo--><g class="link" data-entity-1="Station" data-entity-2="Cargo" data-source-line="33" data-uid="lnk8" id="link_Station_Cargo"><path codeLine="33" d="M134.96,278.14 C142.88,302.19 150.2418,324.5515 158.1718,348.6115" fill="none" id="Station-to-Cargo" style="stroke:#181818;stroke-width:1;"/><polygon fill="#181818" points="160.05,354.31,161.0317,344.5102,158.4849,349.5613,153.4338,347.0144,160.05,354.31" style="stroke:#181818;stroke-width:1;"/><polygon fill="#000000" points="155.0842,321.0954,155.0459,311.5849,149.4631,313.4238,155.0842,321.0954" style="stroke:#000000;stroke-width:1;"/><text fill="#000000" font-family="sans-serif" font-size="13" font-style="italic" lengthAdjust="spacing" textLength="22.9785" x="162.52" y="320.8469">has</text><text fill="#000000" font-family="sans-serif" font-size="13" font-style="italic" lengthAdjust="spacing" textLength="6.5" x="151.4635" y="343.5163">*</text></g><!--SRC=[TP7DJiCm3CVlVGghfu4qCQuzJ1eWfDqcxGcyn2eMQJ9Y5rGGxqwMj2lZ8pbOjd_-ntRacVqH8tPW78fiL2CVUgMj2NxFxmIh2kIIUGnUzpeuWaDmzbTw4sDucnbMT6mgEDsSXvt3WI9yL70wZYMHg1oyBAvAJCYHcQ8BANPh6s2l2VcSjKPc4cDRhCUEHlbWCb6yblI15DdbfxxftFNiBFlsfv0Enqc8NibTrDnZRCF_1IyzUcKTYcUfGs_7-d43o-KQwjlwF4IJbo4tPNo1TNLEPVIwdlji87rGciJ_YPNM6dZ2bFu2]--></g></svg>