<svg xmlns="http://www.w3.org/2000/svg" xmlns:xlink="http://www.w3.org/1999/xlink" contentStyleType="text/css" height="530px" preserveAspectRatio="none" style="width:287px;height:530px;background:#FFFFFF;" version="1.1" viewBox="0 0 287 530" width="287px" zoomAndPan="magnify"><defs/><g><line style="stroke:#181818;stroke-width:0.5;stroke-dasharray:5.0,5.0;" x1="27" x2="27" y1="83.6211" y2="447.8223"/><line style="stroke:#181818;stroke-width:0.5;stroke-dasharray:5.0,5.0;" x1="250.6367" x2="250.6367" y1="83.6211" y2="447.8223"/><text fill="#000000" font-family="sans-serif" font-size="14" lengthAdjust="spacing" text-decoration="underline" textLength="39.6826" x="5" y="80.1074">Player</text><ellipse cx="27.8413" cy="13.5" fill="#E2E2F0" rx="8" ry="8" style="stroke:#181818;stroke-width:0.5;"/><path d="M27.8413,21.5 L27.8413,48.5 M14.8413,29.5 L40.8413,29.5 M27.8413,48.5 L14.8413,63.5 M27.8413,48.5 L40.8413,63.5 " fill="none" style="stroke:#181818;stroke-width:0.5;"/><text fill="#000000" font-family="sans-serif" font-size="14" lengthAdjust="spacing" text-decoration="underline" textLength="39.6826" x="5" y="461.9297">Player</text><ellipse cx="27.8413" cy="473.9434" fill="#E2E2F0" rx="8" ry="8" style="stroke:#181818;stroke-width:0.5;"/><path d="M27.8413,481.9434 L27.8413,508.9434 M14.8413,489.9434 L40.8413,489.9434 M27.8413,508.9434 L14.8413,523.9434 M27.8413,508.9434 L40.8413,523.9434 " fill="none" style="stroke:#181818;stroke-width:0.5;"/><rect fill="#E2E2F0" height="32.6211" rx="2.5" ry="2.5" style="stroke:#181818;stroke-width:0.5;" width="60.6758" x="220.6367" y="50"/><text fill="#000000" font-family="sans-serif" font-size="14" lengthAdjust="spacing" text-decoration="underline" textLength="46.6758" x="227.6367" y="72.1074">System</text><rect fill="#E2E2F0" height="32.6211" rx="2.5" ry="2.5" style="stroke:#181818;stroke-width:0.5;" width="60.6758" x="220.6367" y="446.8223"/><text fill="#000000" font-family="sans-serif" font-size="14" lengthAdjust="spacing" text-decoration="underline" textLength="46.6758" x="227.6367" y="468.9297">System</text><polygon fill="#181818" points="238.9746,112.9121,248.9746,116.9121,238.9746,120.9121,242.9746,116.9121" style="stroke:#181818;stroke-width:1.0;"/><line style="stroke:#181818;stroke-width:2.0;" x1="27.8413" x2="244.9746" y1="116.9121" y2="116.9121"/><text fill="#000000" font-family="sans-serif" font-size="13" font-weight="bold" lengthAdjust="spacing" textLength="7.23" x="65.8699" y="111.6494">1</text><text fill="#000000" font-family="sans-serif" font-size="13" lengthAdjust="spacing" textLength="135.8462" x="77.0999" y="111.6494">request to view stations</text><polygon fill="#181818" points="38.8413,144.2031,28.8413,148.2031,38.8413,152.2031,34.8413,148.2031" style="stroke:#181818;stroke-width:1.0;"/><line style="stroke:#181818;stroke-width:2.0;stroke-dasharray:2.0,2.0;" x1="32.8413" x2="249.9746" y1="148.2031" y2="148.2031"/><text fill="#000000" font-family="sans-serif" font-size="13" font-weight="bold" lengthAdjust="spacing" textLength="7.23" x="93.333" y="142.9404">2</text><text fill="#000000" font-family="sans-serif" font-size="13" lengthAdjust="spacing" textLength="80.9199" x="104.563" y="142.9404">list all stations</text><polygon fill="#181818" points="238.9746,175.4941,248.9746,179.4941,238.9746,183.4941,242.9746,179.4941" style="stroke:#181818;stroke-width:1.0;"/><line style="stroke:#181818;stroke-width:2.0;" x1="27.8413" x2="244.9746" y1="179.4941" y2="179.4941"/><text fill="#000000" font-family="sans-serif" font-size="13" font-weight="bold" lengthAdjust="spacing" textLength="7.23" x="90.4353" y="174.2314">3</text><text fill="#000000" font-family="sans-serif" font-size="13" lengthAdjust="spacing" textLength="86.7153" x="101.6653" y="174.2314">select a station</text><polygon fill="#181818" points="38.8413,206.7852,28.8413,210.7852,38.8413,214.7852,34.8413,210.7852" style="stroke:#181818;stroke-width:1.0;"/><line style="stroke:#181818;stroke-width:2.0;stroke-dasharray:2.0,2.0;" x1="32.8413" x2="249.9746" y1="210.7852" y2="210.7852"/><text fill="#000000" font-family="sans-serif" font-size="13" font-weight="bold" lengthAdjust="spacing" textLength="7.23" x="51.0481" y="205.5225">4</text><text fill="#000000" font-family="sans-serif" font-size="13" lengthAdjust="spacing" textLength="165.4897" x="62.2781" y="205.5225">presents the selected station</text><polygon fill="#181818" points="238.9746,238.0762,248.9746,242.0762,238.9746,246.0762,242.9746,242.0762" style="stroke:#181818;stroke-width:1.0;"/><line style="stroke:#181818;stroke-width:2.0;" x1="27.8413" x2="244.9746" y1="242.0762" y2="242.0762"/><text fill="#000000" font-family="sans-serif" font-size="13" font-weight="bold" lengthAdjust="spacing" textLength="7.23" x="45.9954" y="236.8135">5</text><text fill="#000000" font-family="sans-serif" font-size="13" lengthAdjust="spacing" textLength="175.5952" x="57.2253" y="236.8135">view details of selected station</text><polygon fill="#181818" points="38.8413,269.3672,28.8413,273.3672,38.8413,277.3672,34.8413,273.3672" style="stroke:#181818;stroke-width:1.0;"/><line style="stroke:#181818;stroke-width:2.0;stroke-dasharray:2.0,2.0;" x1="32.8413" x2="249.9746" y1="273.3672" y2="273.3672"/><text fill="#000000" font-family="sans-serif" font-size="13" font-weight="bold" lengthAdjust="spacing" textLength="7.23" x="39.8413" y="268.1045">6</text><text fill="#000000" font-family="sans-serif" font-size="13" lengthAdjust="spacing" textLength="187.9033" x="51.0713" y="268.1045">present details about that station</text><polygon fill="#181818" points="238.9746,300.6582,248.9746,304.6582,238.9746,308.6582,242.9746,304.6582" style="stroke:#181818;stroke-width:1.0;"/><line style="stroke:#181818;stroke-width:2.0;" x1="27.8413" x2="244.9746" y1="304.6582" y2="304.6582"/><text fill="#000000" font-family="sans-serif" font-size="13" font-weight="bold" lengthAdjust="spacing" textLength="7.23" x="57.9131" y="299.3955">7</text><text fill="#000000" font-family="sans-serif" font-size="13" lengthAdjust="spacing" textLength="151.7598" x="69.1431" y="299.3955">select the existing building</text><polygon fill="#181818" points="38.8413,331.9492,28.8413,335.9492,38.8413,339.9492,34.8413,335.9492" style="stroke:#181818;stroke-width:1.0;"/><line style="stroke:#181818;stroke-width:2.0;stroke-dasharray:2.0,2.0;" x1="32.8413" x2="249.9746" y1="335.9492" y2="335.9492"/><text fill="#000000" font-family="sans-serif" font-size="13" font-weight="bold" lengthAdjust="spacing" textLength="7.23" x="73.8108" y="330.6865">8</text><text fill="#000000" font-family="sans-serif" font-size="13" lengthAdjust="spacing" textLength="119.9644" x="85.0408" y="330.6865">show building details</text><polygon fill="#181818" points="238.9746,363.2402,248.9746,367.2402,238.9746,371.2402,242.9746,367.2402" style="stroke:#181818;stroke-width:1.0;"/><line style="stroke:#181818;stroke-width:2.0;" x1="27.8413" x2="244.9746" y1="367.2402" y2="367.2402"/><text fill="#000000" font-family="sans-serif" font-size="13" font-weight="bold" lengthAdjust="spacing" textLength="7.23" x="104.1621" y="361.9775">9</text><text fill="#000000" font-family="sans-serif" font-size="13" lengthAdjust="spacing" textLength="59.2617" x="115.3921" y="361.9775">see  loads</text><polygon fill="#181818" points="38.8413,394.5313,28.8413,398.5313,38.8413,402.5313,34.8413,398.5313" style="stroke:#181818;stroke-width:1.0;"/><line style="stroke:#181818;stroke-width:2.0;stroke-dasharray:2.0,2.0;" x1="32.8413" x2="249.9746" y1="398.5313" y2="398.5313"/><text fill="#000000" font-family="sans-serif" font-size="13" font-weight="bold" lengthAdjust="spacing" textLength="14.46" x="91.1526" y="393.2686">10</text><text fill="#000000" font-family="sans-serif" font-size="13" lengthAdjust="spacing" textLength="78.0508" x="109.6125" y="393.2686">present loads</text><polygon fill="#181818" points="38.8413,425.8223,28.8413,429.8223,38.8413,433.8223,34.8413,429.8223" style="stroke:#181818;stroke-width:1.0;"/><line style="stroke:#181818;stroke-width:2.0;stroke-dasharray:2.0,2.0;" x1="32.8413" x2="249.9746" y1="429.8223" y2="429.8223"/><text fill="#000000" font-family="sans-serif" font-size="13" font-weight="bold" lengthAdjust="spacing" textLength="14.46" x="44.199" y="424.5596">11</text><text fill="#000000" font-family="sans-serif" font-size="13" lengthAdjust="spacing" textLength="171.958" x="62.6589" y="424.5596">listing confirmation successful</text><!--SRC=[RP8nRm8n38Nt_0gBdQLI5mOaTYgTH9UElfpXB7BErNPA-VSD2EYTO8lqFh_tRCMEB2Cg3c3qNKWYVP0P7cYJ-20GIPmqs1ErKSsdpvxZKIeFRnD4Sv4kPXLIU7ynsg0wHnvH72f9cbWeOF4iPMXhMWWOFIiiceHdqWMWGRCDusHkiJkRqt2LTb-x49ejBDUNvmhqacCEdk67wGJcw9p5GbLXMQbckuB4bS2K_jM9Wr6YMEMxE9iSbQnUnS1xkf7KFSY9opMy8qTE1dd_pBvmVV3Ovb9NwD5VMTyANXhGRzs4vG1juTJLnypM-dnwA7VpkHC1f8pTx3ptDaz2keN5B7lMuLeChCHOFy6-f13-0000]--></g></svg>