<svg xmlns="http://www.w3.org/2000/svg" xmlns:xlink="http://www.w3.org/1999/xlink" contentStyleType="text/css" height="865px" preserveAspectRatio="none" style="width:849px;height:865px;background:#FFFFFF;" version="1.1" viewBox="0 0 849 865" width="849px" zoomAndPan="magnify"><title>Sequence Diagram (SD) - US08 Build Railway Line - Split</title><defs/><g><text fill="#000000" font-family="sans-serif" font-size="14" font-weight="bold" lengthAdjust="spacing" textLength="376.5234" x="234.2275" y="30.1074">Sequence Diagram (SD) - US08 Build Railway Line - Split</text><rect fill="#FFFFFF" height="630.791" style="stroke:#181818;stroke-width:1.0;" width="10" x="22.8413" y="133.2422"/><rect fill="#FFFFFF" height="142.125" style="stroke:#181818;stroke-width:1.0;" width="10" x="443.0845" y="156.5332"/><rect fill="#FFFFFF" height="123.834" style="stroke:#181818;stroke-width:1.0;" width="10" x="443.0845" y="329.9492"/><rect fill="#FFFFFF" height="123.834" style="stroke:#181818;stroke-width:1.0;" width="10" x="443.0845" y="485.0742"/><rect fill="#FFFFFF" height="123.834" style="stroke:#181818;stroke-width:1.0;" width="10" x="443.0845" y="640.1992"/><rect fill="#FFFFFF" height="31.291" style="stroke:#181818;stroke-width:1.0;" width="10" x="743.3823" y="187.8242"/><line style="stroke:#181818;stroke-width:0.5;stroke-dasharray:5.0,5.0;" x1="27" x2="27" y1="123.2422" y2="782.0332"/><line style="stroke:#181818;stroke-width:0.5;stroke-dasharray:5.0,5.0;" x1="447.833" x2="447.833" y1="123.2422" y2="782.0332"/><line style="stroke:#181818;stroke-width:0.5;stroke-dasharray:5.0,5.0;" x1="747.7861" x2="747.7861" y1="123.2422" y2="782.0332"/><text fill="#000000" font-family="sans-serif" font-size="14" lengthAdjust="spacing" textLength="39.6826" x="5" y="119.7285">Player</text><ellipse cx="27.8413" cy="53.1211" fill="#E3E3E3" rx="8" ry="8" style="stroke:#181818;stroke-width:0.5;"/><path d="M27.8413,61.1211 L27.8413,88.1211 M14.8413,69.1211 L40.8413,69.1211 M27.8413,88.1211 L14.8413,103.1211 M27.8413,88.1211 L40.8413,103.1211 " fill="none" style="stroke:#181818;stroke-width:0.5;"/><text fill="#000000" font-family="sans-serif" font-size="14" lengthAdjust="spacing" textLength="39.6826" x="5" y="796.1406">Player</text><ellipse cx="27.8413" cy="808.1543" fill="#E3E3E3" rx="8" ry="8" style="stroke:#181818;stroke-width:0.5;"/><path d="M27.8413,816.1543 L27.8413,843.1543 M14.8413,824.1543 L40.8413,824.1543 M27.8413,843.1543 L14.8413,858.1543 M27.8413,843.1543 L40.8413,858.1543 " fill="none" style="stroke:#181818;stroke-width:0.5;"/><rect fill="#E3E3E3" height="32.6211" rx="2.5" ry="2.5" style="stroke:#181818;stroke-width:0.5;" width="138.5029" x="378.833" y="89.6211"/><text fill="#000000" font-family="sans-serif" font-size="14" lengthAdjust="spacing" textLength="124.5029" x="385.833" y="111.7285">:BuildRailwayLineUI</text><rect fill="#E3E3E3" height="32.6211" rx="2.5" ry="2.5" style="stroke:#181818;stroke-width:0.5;" width="138.5029" x="378.833" y="781.0332"/><text fill="#000000" font-family="sans-serif" font-size="14" lengthAdjust="spacing" textLength="124.5029" x="385.833" y="803.1406">:BuildRailwayLineUI</text><rect fill="#E3E3E3" height="32.6211" rx="2.5" ry="2.5" style="stroke:#181818;stroke-width:0.5;" width="185.1924" x="655.7861" y="89.6211"/><text fill="#000000" font-family="sans-serif" font-size="14" lengthAdjust="spacing" textLength="171.1924" x="662.7861" y="111.7285">:BuildRailwayLineController</text><rect fill="#E3E3E3" height="32.6211" rx="2.5" ry="2.5" style="stroke:#181818;stroke-width:0.5;" width="185.1924" x="655.7861" y="781.0332"/><text fill="#000000" font-family="sans-serif" font-size="14" lengthAdjust="spacing" textLength="171.1924" x="662.7861" y="803.1406">:BuildRailwayLineController</text><rect fill="#FFFFFF" height="630.791" style="stroke:#181818;stroke-width:1.0;" width="10" x="22.8413" y="133.2422"/><rect fill="#FFFFFF" height="142.125" style="stroke:#181818;stroke-width:1.0;" width="10" x="443.0845" y="156.5332"/><rect fill="#FFFFFF" height="123.834" style="stroke:#181818;stroke-width:1.0;" width="10" x="443.0845" y="329.9492"/><rect fill="#FFFFFF" height="123.834" style="stroke:#181818;stroke-width:1.0;" width="10" x="443.0845" y="485.0742"/><rect fill="#FFFFFF" height="123.834" style="stroke:#181818;stroke-width:1.0;" width="10" x="443.0845" y="640.1992"/><rect fill="#FFFFFF" height="31.291" style="stroke:#181818;stroke-width:1.0;" width="10" x="743.3823" y="187.8242"/><polygon fill="#181818" points="431.0845,152.5332,441.0845,156.5332,431.0845,160.5332,435.0845,156.5332" style="stroke:#181818;stroke-width:1.0;"/><line style="stroke:#181818;stroke-width:1.0;" x1="32.8413" x2="437.0845" y1="156.5332" y2="156.5332"/><text fill="#000000" font-family="sans-serif" font-size="13" font-weight="bold" lengthAdjust="spacing" textLength="7.23" x="39.8413" y="151.2705">1</text><text fill="#000000" font-family="sans-serif" font-size="13" lengthAdjust="spacing" textLength="174.1479" x="51.0713" y="151.2705">requests to build a railway line</text><polygon fill="#181818" points="731.3823,183.8242,741.3823,187.8242,731.3823,191.8242,735.3823,187.8242" style="stroke:#181818;stroke-width:1.0;"/><line style="stroke:#181818;stroke-width:1.0;" x1="453.0845" x2="737.3823" y1="187.8242" y2="187.8242"/><text fill="#000000" font-family="sans-serif" font-size="13" font-weight="bold" lengthAdjust="spacing" textLength="7.23" x="460.0845" y="182.5615">2</text><text fill="#000000" font-family="sans-serif" font-size="13" lengthAdjust="spacing" textLength="106.9263" x="471.3145" y="182.5615">getCurrentPlayer()</text><polygon fill="#181818" points="464.0845,215.1152,454.0845,219.1152,464.0845,223.1152,460.0845,219.1152" style="stroke:#181818;stroke-width:1.0;"/><line style="stroke:#181818;stroke-width:1.0;stroke-dasharray:2.0,2.0;" x1="458.0845" x2="747.3823" y1="219.1152" y2="219.1152"/><text fill="#000000" font-family="sans-serif" font-size="13" font-weight="bold" lengthAdjust="spacing" textLength="7.23" x="470.0845" y="213.8525">3</text><text fill="#000000" font-family="sans-serif" font-size="13" lengthAdjust="spacing" textLength="62.8481" x="481.3145" y="213.8525">playerDTO</text><rect fill="none" height="43.252" style="stroke:#000000;stroke-width:1.5;" width="468.1455" x="375.833" y="227.1152"/><path d="M375.833,227.1152 L436.833,227.1152 L436.833,236.1152 L426.833,246.1152 L375.833,246.1152 L375.833,227.1152 " fill="#EEEEEE" style="stroke:#000000;stroke-width:2.0;"/><text fill="#000000" font-family="sans-serif" font-size="13" font-weight="bold" lengthAdjust="spacing" textLength="16.6182" x="388.833" y="243.1436">ref</text><text fill="#000000" font-family="sans-serif" font-size="12" lengthAdjust="spacing" textLength="118.0664" x="550.8726" y="263.0645">Get Available Stations</text><polygon fill="#181818" points="43.8413,294.6582,33.8413,298.6582,43.8413,302.6582,39.8413,298.6582" style="stroke:#181818;stroke-width:1.0;"/><line style="stroke:#181818;stroke-width:1.0;stroke-dasharray:2.0,2.0;" x1="37.8413" x2="447.0845" y1="298.6582" y2="298.6582"/><text fill="#000000" font-family="sans-serif" font-size="13" font-weight="bold" lengthAdjust="spacing" textLength="7.23" x="49.8413" y="293.3955">4</text><text fill="#000000" font-family="sans-serif" font-size="13" lengthAdjust="spacing" textLength="336.0132" x="61.0713" y="293.3955">shows available stations and asks to select starting station</text><polygon fill="#181818" points="431.0845,325.9492,441.0845,329.9492,431.0845,333.9492,435.0845,329.9492" style="stroke:#181818;stroke-width:1.0;"/><line style="stroke:#181818;stroke-width:1.0;" x1="32.8413" x2="437.0845" y1="329.9492" y2="329.9492"/><text fill="#000000" font-family="sans-serif" font-size="13" font-weight="bold" lengthAdjust="spacing" textLength="7.23" x="39.8413" y="324.6865">5</text><text fill="#000000" font-family="sans-serif" font-size="13" lengthAdjust="spacing" textLength="128.6162" x="51.0713" y="324.6865">selects starting station</text><line style="stroke:#181818;stroke-width:1.0;" x1="453.0845" x2="495.0845" y1="361.2402" y2="361.2402"/><line style="stroke:#181818;stroke-width:1.0;" x1="495.0845" x2="495.0845" y1="361.2402" y2="374.2402"/><line style="stroke:#181818;stroke-width:1.0;" x1="454.0845" x2="495.0845" y1="374.2402" y2="374.2402"/><polygon fill="#181818" points="464.0845,370.2402,454.0845,374.2402,464.0845,378.2402,460.0845,374.2402" style="stroke:#181818;stroke-width:1.0;"/><text fill="#000000" font-family="sans-serif" font-size="13" font-weight="bold" lengthAdjust="spacing" textLength="7.23" x="460.0845" y="355.9775">6</text><text fill="#000000" font-family="sans-serif" font-size="13" lengthAdjust="spacing" textLength="255.0679" x="471.3145" y="355.9775">saveSelectedStartStation(startStationName)</text><rect fill="none" height="43.252" style="stroke:#000000;stroke-width:1.5;" width="468.1455" x="375.833" y="382.2402"/><path d="M375.833,382.2402 L436.833,382.2402 L436.833,391.2402 L426.833,401.2402 L375.833,401.2402 L375.833,382.2402 " fill="#EEEEEE" style="stroke:#000000;stroke-width:2.0;"/><text fill="#000000" font-family="sans-serif" font-size="13" font-weight="bold" lengthAdjust="spacing" textLength="16.6182" x="388.833" y="398.2686">ref</text><text fill="#000000" font-family="sans-serif" font-size="12" lengthAdjust="spacing" textLength="90.7207" x="564.5454" y="418.1895">Get End Stations</text><polygon fill="#181818" points="43.8413,449.7832,33.8413,453.7832,43.8413,457.7832,39.8413,453.7832" style="stroke:#181818;stroke-width:1.0;"/><line style="stroke:#181818;stroke-width:1.0;stroke-dasharray:2.0,2.0;" x1="37.8413" x2="447.0845" y1="453.7832" y2="453.7832"/><text fill="#000000" font-family="sans-serif" font-size="13" font-weight="bold" lengthAdjust="spacing" textLength="7.23" x="49.8413" y="448.5205">7</text><text fill="#000000" font-family="sans-serif" font-size="13" lengthAdjust="spacing" textLength="206.6797" x="61.0713" y="448.5205">shows available destination stations</text><polygon fill="#181818" points="431.0845,481.0742,441.0845,485.0742,431.0845,489.0742,435.0845,485.0742" style="stroke:#181818;stroke-width:1.0;"/><line style="stroke:#181818;stroke-width:1.0;" x1="32.8413" x2="437.0845" y1="485.0742" y2="485.0742"/><text fill="#000000" font-family="sans-serif" font-size="13" font-weight="bold" lengthAdjust="spacing" textLength="7.23" x="39.8413" y="479.8115">8</text><text fill="#000000" font-family="sans-serif" font-size="13" lengthAdjust="spacing" textLength="148.8652" x="51.0713" y="479.8115">selects destination station</text><line style="stroke:#181818;stroke-width:1.0;" x1="453.0845" x2="495.0845" y1="516.3652" y2="516.3652"/><line style="stroke:#181818;stroke-width:1.0;" x1="495.0845" x2="495.0845" y1="516.3652" y2="529.3652"/><line style="stroke:#181818;stroke-width:1.0;" x1="454.0845" x2="495.0845" y1="529.3652" y2="529.3652"/><polygon fill="#181818" points="464.0845,525.3652,454.0845,529.3652,464.0845,533.3652,460.0845,529.3652" style="stroke:#181818;stroke-width:1.0;"/><text fill="#000000" font-family="sans-serif" font-size="13" font-weight="bold" lengthAdjust="spacing" textLength="7.23" x="460.0845" y="511.1025">9</text><text fill="#000000" font-family="sans-serif" font-size="13" lengthAdjust="spacing" textLength="247.1523" x="471.3145" y="511.1025">saveSelectedEndStation(endStationName)</text><rect fill="none" height="43.252" style="stroke:#000000;stroke-width:1.5;" width="468.1455" x="375.833" y="537.3652"/><path d="M375.833,537.3652 L436.833,537.3652 L436.833,546.3652 L426.833,556.3652 L375.833,556.3652 L375.833,537.3652 " fill="#EEEEEE" style="stroke:#000000;stroke-width:2.0;"/><text fill="#000000" font-family="sans-serif" font-size="13" font-weight="bold" lengthAdjust="spacing" textLength="16.6182" x="388.833" y="553.3936">ref</text><text fill="#000000" font-family="sans-serif" font-size="12" lengthAdjust="spacing" textLength="129.4102" x="545.2007" y="573.3145">Calculate Path and Cost</text><polygon fill="#181818" points="43.8413,604.9082,33.8413,608.9082,43.8413,612.9082,39.8413,608.9082" style="stroke:#181818;stroke-width:1.0;"/><line style="stroke:#181818;stroke-width:1.0;stroke-dasharray:2.0,2.0;" x1="37.8413" x2="447.0845" y1="608.9082" y2="608.9082"/><text fill="#000000" font-family="sans-serif" font-size="13" font-weight="bold" lengthAdjust="spacing" textLength="14.46" x="49.8413" y="603.6455">10</text><text fill="#000000" font-family="sans-serif" font-size="13" lengthAdjust="spacing" textLength="367.7832" x="68.3013" y="603.6455">shows path preview and construction cost, asks for confirmation</text><polygon fill="#181818" points="431.0845,636.1992,441.0845,640.1992,431.0845,644.1992,435.0845,640.1992" style="stroke:#181818;stroke-width:1.0;"/><line style="stroke:#181818;stroke-width:1.0;" x1="32.8413" x2="437.0845" y1="640.1992" y2="640.1992"/><text fill="#000000" font-family="sans-serif" font-size="13" font-weight="bold" lengthAdjust="spacing" textLength="14.46" x="39.8413" y="634.9365">11</text><text fill="#000000" font-family="sans-serif" font-size="13" lengthAdjust="spacing" textLength="122.8208" x="58.3013" y="634.9365">confirms construction</text><line style="stroke:#181818;stroke-width:1.0;" x1="453.0845" x2="495.0845" y1="671.4902" y2="671.4902"/><line style="stroke:#181818;stroke-width:1.0;" x1="495.0845" x2="495.0845" y1="671.4902" y2="684.4902"/><line style="stroke:#181818;stroke-width:1.0;" x1="454.0845" x2="495.0845" y1="684.4902" y2="684.4902"/><polygon fill="#181818" points="464.0845,680.4902,454.0845,684.4902,464.0845,688.4902,460.0845,684.4902" style="stroke:#181818;stroke-width:1.0;"/><text fill="#000000" font-family="sans-serif" font-size="13" font-weight="bold" lengthAdjust="spacing" textLength="14.46" x="460.0845" y="666.2275">12</text><text fill="#000000" font-family="sans-serif" font-size="13" lengthAdjust="spacing" textLength="143.0571" x="478.5444" y="666.2275">collectRailwayLineData()</text><rect fill="none" height="43.252" style="stroke:#000000;stroke-width:1.5;" width="468.1455" x="375.833" y="692.4902"/><path d="M375.833,692.4902 L436.833,692.4902 L436.833,701.4902 L426.833,711.4902 L375.833,711.4902 L375.833,692.4902 " fill="#EEEEEE" style="stroke:#000000;stroke-width:2.0;"/><text fill="#000000" font-family="sans-serif" font-size="13" font-weight="bold" lengthAdjust="spacing" textLength="16.6182" x="388.833" y="708.5186">ref</text><text fill="#000000" font-family="sans-serif" font-size="12" lengthAdjust="spacing" textLength="98.0508" x="560.8804" y="728.4395">Build Railway Line</text><polygon fill="#181818" points="38.8413,760.0332,28.8413,764.0332,38.8413,768.0332,34.8413,764.0332" style="stroke:#181818;stroke-width:1.0;"/><line style="stroke:#181818;stroke-width:1.0;stroke-dasharray:2.0,2.0;" x1="32.8413" x2="447.0845" y1="764.0332" y2="764.0332"/><text fill="#000000" font-family="sans-serif" font-size="13" font-weight="bold" lengthAdjust="spacing" textLength="14.46" x="44.8413" y="758.7705">13</text><text fill="#000000" font-family="sans-serif" font-size="13" lengthAdjust="spacing" textLength="155.3589" x="63.3013" y="758.7705">displays operation success</text><!--SRC=[fLJ1Zjem4BtdAqQSG5ga7YiEbRQmgbP2xOeiXnu7PmWMZftQ4n1_tubZeb3O5bIVRCsyvtdFumbxRMlqM47bh5Cxxoe2zWrbeO_KgFPOKiudG-19CThI31F23WjtrBQ4BPf0MSQQ9JMdNmrPHR3GMBPvutmnWIciyq-VuMkZJG4hrEQ89rXgInB9QwCvox1XPvjgGrxsYfs7qPl14_aHO82tvVFFbrKcLxDMkaRBC9f5kiJMagrVO-xwzHzvSsVPEsCIz_nzjOntwWCodQ_AG5QtX-aN8OMP-23Y0WTW1vke1S4dDKQ88wOdaZeWBK4BHtkHi9J4yyPxijm974_wl1uRQuB1YjZfkP0w0XVlF_gSWYwnVS3J5jo1l02Vhcc_4SFpGIJWfdqyHjREXZw5RD4IP1T2f8Zaoqowm1q3OCyG4WEW837ierM1Z3HG6vDNaOP9ITaVTOjVjqplqE4s_6EpEomUA8zuAl8MdnIEm-3m7IkQF6BOYsZxVwiAwIHj8qjlsuEMtA1ur1NHSlQ4-kr3ZipHgCR4duEyYmy_Tu6lZFcxBtMBhJqTD1qZXn8xP2QfA4u9uLFNJrkP31BRQbyzqaK94Yvuxp5BjOD2yM1yB91ny6VljEbwzjtVEeKExOyFu6howRaRfIZSR9Z1CSsotm00]--></g></svg>