<svg xmlns="http://www.w3.org/2000/svg" xmlns:xlink="http://www.w3.org/1999/xlink" contentStyleType="text/css" height="901px" preserveAspectRatio="none" style="width:1728px;height:901px;background:#FFFFFF;" version="1.1" viewBox="0 0 1728 901" width="1728px" zoomAndPan="magnify"><title>US08 - Build Railway Line - Partial Sequence Diagram</title><defs/><g><text fill="#000000" font-family="sans-serif" font-size="14" font-weight="bold" lengthAdjust="spacing" textLength="356.3301" x="687.6521" y="30.1074">US08 - Build Railway Line - Partial Sequence Diagram</text><rect fill="#FFFFFF" height="734.0234" style="stroke:#181818;stroke-width:1.0;" width="10" x="242.8276" y="111.5332"/><rect fill="#FFFFFF" height="31.291" style="stroke:#181818;stroke-width:1.0;" width="10" x="398.334" y="169.1152"/><rect fill="#FFFFFF" height="31.291" style="stroke:#181818;stroke-width:1.0;" width="10" x="536.2837" y="231.6973"/><rect fill="#FFFFFF" height="31.291" style="stroke:#181818;stroke-width:1.0;" width="10" x="536.2837" y="294.2793"/><rect fill="#FFFFFF" height="31.291" style="stroke:#181818;stroke-width:1.0;" width="10" x="677.0073" y="356.8613"/><rect fill="#FFFFFF" height="31.291" style="stroke:#181818;stroke-width:1.0;" width="10" x="801.3862" y="419.4434"/><rect fill="#FFFFFF" height="137.4941" style="stroke:#181818;stroke-width:1.0;" width="10" x="801.3862" y="482.0254"/><rect fill="#FFFFFF" height="31.291" style="stroke:#181818;stroke-width:1.0;" width="10" x="801.3862" y="775.9746"/><rect fill="#FFFFFF" height="31.291" style="stroke:#181818;stroke-width:1.0;" width="10" x="1305.5874" y="556.9375"/><rect fill="#FFFFFF" height="31.291" style="stroke:#181818;stroke-width:1.0;" width="10" x="1467.3179" y="650.8105"/><rect fill="#FFFFFF" height="31.291" style="stroke:#181818;stroke-width:1.0;" width="10" x="1627.4897" y="713.3926"/><rect fill="none" height="688.7324" style="stroke:#000000;stroke-width:1.5;" width="1577.4028" x="145.2314" y="126.5332"/><line style="stroke:#181818;stroke-width:0.5;stroke-dasharray:5.0,5.0;" x1="74" x2="74" y1="78.2422" y2="863.5566"/><line style="stroke:#181818;stroke-width:0.5;stroke-dasharray:5.0,5.0;" x1="247.2314" x2="247.2314" y1="78.2422" y2="863.5566"/><line style="stroke:#181818;stroke-width:0.5;stroke-dasharray:5.0,5.0;" x1="402.4238" x2="402.4238" y1="78.2422" y2="863.5566"/><line style="stroke:#181818;stroke-width:0.5;stroke-dasharray:5.0,5.0;" x1="541.0874" x2="541.0874" y1="78.2422" y2="863.5566"/><line style="stroke:#181818;stroke-width:0.5;stroke-dasharray:5.0,5.0;" x1="681.48" x2="681.48" y1="78.2422" y2="863.5566"/><line style="stroke:#181818;stroke-width:0.5;stroke-dasharray:5.0,5.0;" x1="805.5347" x2="805.5347" y1="78.2422" y2="863.5566"/><line style="stroke:#181818;stroke-width:0.5;stroke-dasharray:5.0,5.0;" x1="930.2378" x2="930.2378" y1="78.2422" y2="863.5566"/><line style="stroke:#181818;stroke-width:0.5;stroke-dasharray:5.0,5.0;" x1="1070.5269" x2="1070.5269" y1="78.2422" y2="863.5566"/><line style="stroke:#181818;stroke-width:0.5;stroke-dasharray:5.0,5.0;" x1="1180.9468" x2="1180.9468" y1="78.2422" y2="863.5566"/><line style="stroke:#181818;stroke-width:0.5;stroke-dasharray:5.0,5.0;" x1="1309.8843" x2="1309.8843" y1="521.8359" y2="863.5566"/><line style="stroke:#181818;stroke-width:0.5;stroke-dasharray:5.0,5.0;" x1="1472.2905" x2="1472.2905" y1="78.2422" y2="863.5566"/><line style="stroke:#181818;stroke-width:0.5;stroke-dasharray:5.0,5.0;" x1="1632.3452" x2="1632.3452" y1="78.2422" y2="863.5566"/><rect fill="#E3E3E3" height="32.6211" rx="2.5" ry="2.5" style="stroke:#181818;stroke-width:0.5;" width="138.5029" x="5" y="44.6211"/><text fill="#000000" font-family="sans-serif" font-size="14" lengthAdjust="spacing" textLength="124.5029" x="12" y="66.7285">:BuildRailwayLineUI</text><rect fill="#E3E3E3" height="32.6211" rx="2.5" ry="2.5" style="stroke:#181818;stroke-width:0.5;" width="138.5029" x="5" y="862.5566"/><text fill="#000000" font-family="sans-serif" font-size="14" lengthAdjust="spacing" textLength="124.5029" x="12" y="884.6641">:BuildRailwayLineUI</text><rect fill="#E3E3E3" height="32.6211" rx="2.5" ry="2.5" style="stroke:#181818;stroke-width:0.5;" width="185.1924" x="155.2314" y="44.6211"/><text fill="#000000" font-family="sans-serif" font-size="14" lengthAdjust="spacing" textLength="171.1924" x="162.2314" y="66.7285">:BuildRailwayLineController</text><rect fill="#E3E3E3" height="32.6211" rx="2.5" ry="2.5" style="stroke:#181818;stroke-width:0.5;" width="185.1924" x="155.2314" y="862.5566"/><text fill="#000000" font-family="sans-serif" font-size="14" lengthAdjust="spacing" textLength="171.1924" x="162.2314" y="884.6641">:BuildRailwayLineController</text><rect fill="#E3E3E3" height="32.6211" rx="2.5" ry="2.5" style="stroke:#181818;stroke-width:0.5;" width="105.8203" x="350.4238" y="44.6211"/><text fill="#000000" font-family="sans-serif" font-size="14" lengthAdjust="spacing" textLength="91.8203" x="357.4238" y="66.7285">:GameSession</text><rect fill="#E3E3E3" height="32.6211" rx="2.5" ry="2.5" style="stroke:#181818;stroke-width:0.5;" width="105.8203" x="350.4238" y="862.5566"/><text fill="#000000" font-family="sans-serif" font-size="14" lengthAdjust="spacing" textLength="91.8203" x="357.4238" y="884.6641">:GameSession</text><rect fill="#E3E3E3" height="32.6211" rx="2.5" ry="2.5" style="stroke:#181818;stroke-width:0.5;" width="128.3926" x="477.0874" y="44.6211"/><text fill="#000000" font-family="sans-serif" font-size="14" lengthAdjust="spacing" textLength="114.3926" x="484.0874" y="66.7285">:StationRepository</text><rect fill="#E3E3E3" height="32.6211" rx="2.5" ry="2.5" style="stroke:#181818;stroke-width:0.5;" width="128.3926" x="477.0874" y="862.5566"/><text fill="#000000" font-family="sans-serif" font-size="14" lengthAdjust="spacing" textLength="114.3926" x="484.0874" y="884.6641">:StationRepository</text><rect fill="#E3E3E3" height="32.6211" rx="2.5" ry="2.5" style="stroke:#181818;stroke-width:0.5;" width="133.0547" x="615.48" y="44.6211"/><text fill="#000000" font-family="sans-serif" font-size="14" lengthAdjust="spacing" textLength="119.0547" x="622.48" y="66.7285">:PathFinderService</text><rect fill="#E3E3E3" height="32.6211" rx="2.5" ry="2.5" style="stroke:#181818;stroke-width:0.5;" width="133.0547" x="615.48" y="862.5566"/><text fill="#000000" font-family="sans-serif" font-size="14" lengthAdjust="spacing" textLength="119.0547" x="622.48" y="884.6641">:PathFinderService</text><rect fill="#E3E3E3" height="32.6211" rx="2.5" ry="2.5" style="stroke:#181818;stroke-width:0.5;" width="95.7031" x="758.5347" y="44.6211"/><text fill="#000000" font-family="sans-serif" font-size="14" lengthAdjust="spacing" textLength="81.7031" x="765.5347" y="66.7285">player:Player</text><rect fill="#E3E3E3" height="32.6211" rx="2.5" ry="2.5" style="stroke:#181818;stroke-width:0.5;" width="95.7031" x="758.5347" y="862.5566"/><text fill="#000000" font-family="sans-serif" font-size="14" lengthAdjust="spacing" textLength="81.7031" x="765.5347" y="884.6641">player:Player</text><rect fill="#E3E3E3" height="32.6211" rx="2.5" ry="2.5" style="stroke:#181818;stroke-width:0.5;" width="132.2891" x="864.2378" y="44.6211"/><text fill="#000000" font-family="sans-serif" font-size="14" lengthAdjust="spacing" textLength="118.2891" x="871.2378" y="66.7285">startStation:Station</text><rect fill="#E3E3E3" height="32.6211" rx="2.5" ry="2.5" style="stroke:#181818;stroke-width:0.5;" width="132.2891" x="864.2378" y="862.5566"/><text fill="#000000" font-family="sans-serif" font-size="14" lengthAdjust="spacing" textLength="118.2891" x="871.2378" y="884.6641">startStation:Station</text><rect fill="#E3E3E3" height="32.6211" rx="2.5" ry="2.5" style="stroke:#181818;stroke-width:0.5;" width="128.4199" x="1006.5269" y="44.6211"/><text fill="#000000" font-family="sans-serif" font-size="14" lengthAdjust="spacing" textLength="114.4199" x="1013.5269" y="66.7285">endStation:Station</text><rect fill="#E3E3E3" height="32.6211" rx="2.5" ry="2.5" style="stroke:#181818;stroke-width:0.5;" width="128.4199" x="1006.5269" y="862.5566"/><text fill="#000000" font-family="sans-serif" font-size="14" lengthAdjust="spacing" textLength="114.4199" x="1013.5269" y="884.6641">endStation:Station</text><rect fill="#E3E3E3" height="32.6211" rx="2.5" ry="2.5" style="stroke:#181818;stroke-width:0.5;" width="73.9375" x="1144.9468" y="44.6211"/><text fill="#000000" font-family="sans-serif" font-size="14" lengthAdjust="spacing" textLength="59.9375" x="1151.9468" y="66.7285">path:Path</text><rect fill="#E3E3E3" height="32.6211" rx="2.5" ry="2.5" style="stroke:#181818;stroke-width:0.5;" width="73.9375" x="1144.9468" y="862.5566"/><text fill="#000000" font-family="sans-serif" font-size="14" lengthAdjust="spacing" textLength="59.9375" x="1151.9468" y="884.6641">path:Path</text><rect fill="#E3E3E3" height="32.6211" rx="2.5" ry="2.5" style="stroke:#181818;stroke-width:0.5;" width="163.4063" x="1228.8843" y="862.5566"/><text fill="#000000" font-family="sans-serif" font-size="14" lengthAdjust="spacing" textLength="149.4063" x="1235.8843" y="884.6641">railwayLine:RailwayLine</text><rect fill="#E3E3E3" height="32.6211" rx="2.5" ry="2.5" style="stroke:#181818;stroke-width:0.5;" width="140.0547" x="1402.2905" y="44.6211"/><text fill="#000000" font-family="sans-serif" font-size="14" lengthAdjust="spacing" textLength="126.0547" x="1409.2905" y="66.7285">:RailwayLineService</text><rect fill="#E3E3E3" height="32.6211" rx="2.5" ry="2.5" style="stroke:#181818;stroke-width:0.5;" width="140.0547" x="1402.2905" y="862.5566"/><text fill="#000000" font-family="sans-serif" font-size="14" lengthAdjust="spacing" textLength="126.0547" x="1409.2905" y="884.6641">:RailwayLineService</text><rect fill="#E3E3E3" height="32.6211" rx="2.5" ry="2.5" style="stroke:#181818;stroke-width:0.5;" width="160.2891" x="1552.3452" y="44.6211"/><text fill="#000000" font-family="sans-serif" font-size="14" lengthAdjust="spacing" textLength="146.2891" x="1559.3452" y="66.7285">:RailwayLineRepository</text><rect fill="#E3E3E3" height="32.6211" rx="2.5" ry="2.5" style="stroke:#181818;stroke-width:0.5;" width="160.2891" x="1552.3452" y="862.5566"/><text fill="#000000" font-family="sans-serif" font-size="14" lengthAdjust="spacing" textLength="146.2891" x="1559.3452" y="884.6641">:RailwayLineRepository</text><rect fill="#FFFFFF" height="734.0234" style="stroke:#181818;stroke-width:1.0;" width="10" x="242.8276" y="111.5332"/><rect fill="#FFFFFF" height="31.291" style="stroke:#181818;stroke-width:1.0;" width="10" x="398.334" y="169.1152"/><rect fill="#FFFFFF" height="31.291" style="stroke:#181818;stroke-width:1.0;" width="10" x="536.2837" y="231.6973"/><rect fill="#FFFFFF" height="31.291" style="stroke:#181818;stroke-width:1.0;" width="10" x="536.2837" y="294.2793"/><rect fill="#FFFFFF" height="31.291" style="stroke:#181818;stroke-width:1.0;" width="10" x="677.0073" y="356.8613"/><rect fill="#FFFFFF" height="31.291" style="stroke:#181818;stroke-width:1.0;" width="10" x="801.3862" y="419.4434"/><rect fill="#FFFFFF" height="137.4941" style="stroke:#181818;stroke-width:1.0;" width="10" x="801.3862" y="482.0254"/><rect fill="#FFFFFF" height="31.291" style="stroke:#181818;stroke-width:1.0;" width="10" x="801.3862" y="775.9746"/><rect fill="#FFFFFF" height="31.291" style="stroke:#181818;stroke-width:1.0;" width="10" x="1305.5874" y="556.9375"/><rect fill="#FFFFFF" height="31.291" style="stroke:#181818;stroke-width:1.0;" width="10" x="1467.3179" y="650.8105"/><rect fill="#FFFFFF" height="31.291" style="stroke:#181818;stroke-width:1.0;" width="10" x="1627.4897" y="713.3926"/><polygon fill="#181818" points="230.8276,107.5332,240.8276,111.5332,230.8276,115.5332,234.8276,111.5332" style="stroke:#181818;stroke-width:1.0;"/><line style="stroke:#181818;stroke-width:1.0;" x1="74.2515" x2="236.8276" y1="111.5332" y2="111.5332"/><text fill="#000000" font-family="sans-serif" font-size="13" lengthAdjust="spacing" textLength="149.5762" x="81.2515" y="106.2705">buildRailwayLine(request)</text><path d="M145.2314,126.5332 L305.0859,126.5332 L305.0859,135.8242 L295.0859,145.8242 L145.2314,145.8242 L145.2314,126.5332 " fill="#EEEEEE" style="stroke:#000000;stroke-width:1.5;"/><rect fill="none" height="688.7324" style="stroke:#000000;stroke-width:1.5;" width="1577.4028" x="145.2314" y="126.5332"/><text fill="#000000" font-family="sans-serif" font-size="13" font-weight="bold" lengthAdjust="spacing" textLength="114.8545" x="160.2314" y="141.5615">Build Railway Line</text><polygon fill="#181818" points="386.334,165.1152,396.334,169.1152,386.334,173.1152,390.334,169.1152" style="stroke:#181818;stroke-width:1.0;"/><line style="stroke:#181818;stroke-width:1.0;" x1="252.8276" x2="392.334" y1="169.1152" y2="169.1152"/><text fill="#000000" font-family="sans-serif" font-size="13" lengthAdjust="spacing" textLength="117.7998" x="259.8276" y="163.8525">getLoggedInPlayer()</text><polygon fill="#181818" points="263.8276,196.4063,253.8276,200.4063,263.8276,204.4063,259.8276,200.4063" style="stroke:#181818;stroke-width:1.0;"/><line style="stroke:#181818;stroke-width:1.0;stroke-dasharray:2.0,2.0;" x1="257.8276" x2="402.334" y1="200.4063" y2="200.4063"/><text fill="#000000" font-family="sans-serif" font-size="13" lengthAdjust="spacing" textLength="35.4072" x="269.8276" y="195.1436">player</text><polygon fill="#181818" points="524.2837,227.6973,534.2837,231.6973,524.2837,235.6973,528.2837,231.6973" style="stroke:#181818;stroke-width:1.0;"/><line style="stroke:#181818;stroke-width:1.0;" x1="252.8276" x2="530.2837" y1="231.6973" y2="231.6973"/><text fill="#000000" font-family="sans-serif" font-size="13" lengthAdjust="spacing" textLength="264.4561" x="259.8276" y="226.4346">getStationByName(request.startStationName)</text><polygon fill="#181818" points="263.8276,258.9883,253.8276,262.9883,263.8276,266.9883,259.8276,262.9883" style="stroke:#181818;stroke-width:1.0;"/><line style="stroke:#181818;stroke-width:1.0;stroke-dasharray:2.0,2.0;" x1="257.8276" x2="540.2837" y1="262.9883" y2="262.9883"/><text fill="#000000" font-family="sans-serif" font-size="13" lengthAdjust="spacing" textLength="65.7554" x="269.8276" y="257.7256">startStation</text><polygon fill="#181818" points="524.2837,290.2793,534.2837,294.2793,524.2837,298.2793,528.2837,294.2793" style="stroke:#181818;stroke-width:1.0;"/><line style="stroke:#181818;stroke-width:1.0;" x1="252.8276" x2="530.2837" y1="294.2793" y2="294.2793"/><text fill="#000000" font-family="sans-serif" font-size="13" lengthAdjust="spacing" textLength="260.8633" x="259.8276" y="289.0166">getStationByName(request.endStationName)</text><polygon fill="#181818" points="263.8276,321.5703,253.8276,325.5703,263.8276,329.5703,259.8276,325.5703" style="stroke:#181818;stroke-width:1.0;"/><line style="stroke:#181818;stroke-width:1.0;stroke-dasharray:2.0,2.0;" x1="257.8276" x2="540.2837" y1="325.5703" y2="325.5703"/><text fill="#000000" font-family="sans-serif" font-size="13" lengthAdjust="spacing" textLength="62.1626" x="269.8276" y="320.3076">endStation</text><polygon fill="#181818" points="665.0073,352.8613,675.0073,356.8613,665.0073,360.8613,669.0073,356.8613" style="stroke:#181818;stroke-width:1.0;"/><line style="stroke:#181818;stroke-width:1.0;" x1="252.8276" x2="671.0073" y1="356.8613" y2="356.8613"/><text fill="#000000" font-family="sans-serif" font-size="13" lengthAdjust="spacing" textLength="191.5024" x="259.8276" y="351.5986">findPath(startStation, endStation)</text><polygon fill="#181818" points="263.8276,384.1523,253.8276,388.1523,263.8276,392.1523,259.8276,388.1523" style="stroke:#181818;stroke-width:1.0;"/><line style="stroke:#181818;stroke-width:1.0;stroke-dasharray:2.0,2.0;" x1="257.8276" x2="681.0073" y1="388.1523" y2="388.1523"/><text fill="#000000" font-family="sans-serif" font-size="13" lengthAdjust="spacing" textLength="25.3018" x="269.8276" y="382.8896">path</text><polygon fill="#181818" points="789.3862,415.4434,799.3862,419.4434,789.3862,423.4434,793.3862,419.4434" style="stroke:#181818;stroke-width:1.0;"/><line style="stroke:#181818;stroke-width:1.0;" x1="252.8276" x2="795.3862" y1="419.4434" y2="419.4434"/><text fill="#000000" font-family="sans-serif" font-size="13" lengthAdjust="spacing" textLength="143.0635" x="259.8276" y="414.1807">hasSufficientFunds(cost)</text><polygon fill="#181818" points="263.8276,446.7344,253.8276,450.7344,263.8276,454.7344,259.8276,450.7344" style="stroke:#181818;stroke-width:1.0;"/><line style="stroke:#181818;stroke-width:1.0;stroke-dasharray:2.0,2.0;" x1="257.8276" x2="805.3862" y1="450.7344" y2="450.7344"/><text fill="#000000" font-family="sans-serif" font-size="13" lengthAdjust="spacing" textLength="22.4009" x="269.8276" y="445.4717">true</text><polygon fill="#181818" points="789.3862,478.0254,799.3862,482.0254,789.3862,486.0254,793.3862,482.0254" style="stroke:#181818;stroke-width:1.0;"/><line style="stroke:#181818;stroke-width:1.0;" x1="252.8276" x2="795.3862" y1="482.0254" y2="482.0254"/><text fill="#000000" font-family="sans-serif" font-size="13" lengthAdjust="spacing" textLength="313.6123" x="259.8276" y="476.7627">createRailwayLine(startStation, endStation, path, cost)</text><polygon fill="#181818" points="1216.8843,509.3164,1226.8843,513.3164,1216.8843,517.3164,1220.8843,513.3164" style="stroke:#181818;stroke-width:1.0;"/><line style="stroke:#181818;stroke-width:1.0;stroke-dasharray:2.0,2.0;" x1="811.3862" x2="1222.8843" y1="513.3164" y2="513.3164"/><text fill="#000000" font-family="sans-serif" font-size="13" lengthAdjust="spacing" textLength="243.5215" x="818.3862" y="508.0537">create(startStation, endStation, path, cost)</text><rect fill="#E3E3E3" height="32.6211" rx="2.5" ry="2.5" style="stroke:#181818;stroke-width:0.5;" width="163.4063" x="1228.8843" y="490.0254"/><text fill="#000000" font-family="sans-serif" font-size="14" lengthAdjust="spacing" textLength="149.4063" x="1235.8843" y="512.1328">railwayLine:RailwayLine</text><polygon fill="#181818" points="1293.5874,552.9375,1303.5874,556.9375,1293.5874,560.9375,1297.5874,556.9375" style="stroke:#181818;stroke-width:1.0;"/><line style="stroke:#181818;stroke-width:1.0;" x1="811.3862" x2="1299.5874" y1="556.9375" y2="556.9375"/><text fill="#000000" font-family="sans-serif" font-size="13" lengthAdjust="spacing" textLength="80.9263" x="818.3862" y="551.6748">validateData()</text><polygon fill="#181818" points="822.3862,584.2285,812.3862,588.2285,822.3862,592.2285,818.3862,588.2285" style="stroke:#181818;stroke-width:1.0;"/><line style="stroke:#181818;stroke-width:1.0;stroke-dasharray:2.0,2.0;" x1="816.3862" x2="1309.5874" y1="588.2285" y2="588.2285"/><text fill="#000000" font-family="sans-serif" font-size="13" lengthAdjust="spacing" textLength="91.7744" x="828.3862" y="582.9658">validationResult</text><polygon fill="#181818" points="263.8276,615.5195,253.8276,619.5195,263.8276,623.5195,259.8276,619.5195" style="stroke:#181818;stroke-width:1.0;"/><line style="stroke:#181818;stroke-width:1.0;stroke-dasharray:2.0,2.0;" x1="257.8276" x2="805.3862" y1="619.5195" y2="619.5195"/><text fill="#000000" font-family="sans-serif" font-size="13" lengthAdjust="spacing" textLength="65.0317" x="269.8276" y="614.2568">railwayLine</text><polygon fill="#181818" points="1455.3179,646.8105,1465.3179,650.8105,1455.3179,654.8105,1459.3179,650.8105" style="stroke:#181818;stroke-width:1.0;"/><line style="stroke:#181818;stroke-width:1.0;" x1="252.8276" x2="1461.3179" y1="650.8105" y2="650.8105"/><text fill="#000000" font-family="sans-serif" font-size="13" lengthAdjust="spacing" textLength="188.5889" x="259.8276" y="645.5479">validateRailwayLine(railwayLine)</text><polygon fill="#181818" points="263.8276,678.1016,253.8276,682.1016,263.8276,686.1016,259.8276,682.1016" style="stroke:#181818;stroke-width:1.0;"/><line style="stroke:#181818;stroke-width:1.0;stroke-dasharray:2.0,2.0;" x1="257.8276" x2="1471.3179" y1="682.1016" y2="682.1016"/><text fill="#000000" font-family="sans-serif" font-size="13" lengthAdjust="spacing" textLength="91.7744" x="269.8276" y="676.8389">validationResult</text><polygon fill="#181818" points="1615.4897,709.3926,1625.4897,713.3926,1615.4897,717.3926,1619.4897,713.3926" style="stroke:#181818;stroke-width:1.0;"/><line style="stroke:#181818;stroke-width:1.0;" x1="252.8276" x2="1621.4897" y1="713.3926" y2="713.3926"/><text fill="#000000" font-family="sans-serif" font-size="13" lengthAdjust="spacing" textLength="171.2407" x="259.8276" y="708.1299">saveRailwayLine(railwayLine)</text><polygon fill="#181818" points="263.8276,740.6836,253.8276,744.6836,263.8276,748.6836,259.8276,744.6836" style="stroke:#181818;stroke-width:1.0;"/><line style="stroke:#181818;stroke-width:1.0;stroke-dasharray:2.0,2.0;" x1="257.8276" x2="1631.4897" y1="744.6836" y2="744.6836"/><text fill="#000000" font-family="sans-serif" font-size="13" lengthAdjust="spacing" textLength="46.96" x="269.8276" y="739.4209">success</text><polygon fill="#181818" points="789.3862,771.9746,799.3862,775.9746,789.3862,779.9746,793.3862,775.9746" style="stroke:#181818;stroke-width:1.0;"/><line style="stroke:#181818;stroke-width:1.0;" x1="252.8276" x2="795.3862" y1="775.9746" y2="775.9746"/><text fill="#000000" font-family="sans-serif" font-size="13" lengthAdjust="spacing" textLength="107.6626" x="259.8276" y="770.7119">deductFunds(cost)</text><polygon fill="#181818" points="263.8276,803.2656,253.8276,807.2656,263.8276,811.2656,259.8276,807.2656" style="stroke:#181818;stroke-width:1.0;"/><line style="stroke:#181818;stroke-width:1.0;stroke-dasharray:2.0,2.0;" x1="257.8276" x2="805.3862" y1="807.2656" y2="807.2656"/><text fill="#000000" font-family="sans-serif" font-size="13" lengthAdjust="spacing" textLength="83.1226" x="269.8276" y="802.0029">updatedFunds</text><polygon fill="#181818" points="85.2515,841.5566,75.2515,845.5566,85.2515,849.5566,81.2515,845.5566" style="stroke:#181818;stroke-width:1.0;"/><line style="stroke:#181818;stroke-width:1.0;stroke-dasharray:2.0,2.0;" x1="79.2515" x2="246.8276" y1="845.5566" y2="845.5566"/><text fill="#000000" font-family="sans-serif" font-size="13" lengthAdjust="spacing" textLength="46.96" x="91.2515" y="840.2939">success</text><!--SRC=[hLNBZjem5DtdAwnPCIEekgnOL68Wj94Y1iLGQLOZDxa4QuAJsWuZ_hwEyxen32tJPiF3vvoS-xHwvQ9WaXt88HTvl9Vv0OYM9NYgEobO_CfIeFgK0P4GQoRI30FKdYNv6nSfsR5CWUTfhWrqIpz_8HFoMF8i8H7ZsHixaP0BC7-kcTISPOJ2hn9436J1MMgqFA-eJc9UCA79tTII6sv5tGPtX2co3Vw0c-T2oppBG5hyV1E53kCREm05fNWkB8Jwb0PFAmT5DTC64K6HAwvpUQgnczd6O2D__UJWrqplbrma82d88u_1ujUppVTbi5huqH1UPEm4Shgs7pKod3txqSiyd54wn2fjVZLsMbkjcMZpqbWQSa0abnZ-Qd4PNnZtDeJEzV1SzWcUecHRT1YiV2SP28ApKI6f7_q8vbS8JiOhZastjmt8vAijA9cIdqxPHxBg9wNlFHPhVcGQwj8JywGoBuiBtMWFhPxHRRh0IAUWmpnD8Gb4NP_HlKLsmct3aEPfgPFUNbrVYqZW8d7uyhwjQWDDqHvFAzEiRMoVS2TK1wulr9oTDwIC_66bCvUEp4USzlttRpvxdPjSzcDdD7PcAglM7k6WnqZQiOTcjdM7z72HZQXhoo4FNQ4HD_GzKxJSxSmGWD3BKYHg5ETL1m_TuBtG-S5Ao97TtwuZB73DJop1uF5ClPUmiGrzJ3vijnhgXuVkdJUyw5okLZDQHvRnnAWjc6QZ7jrPitkAeCVo9kU9Q8JizbTbfZiIokf0xBroeAtvzrL1In85DLXr_NSd-tZ1uYXRFUJjOf1EWAtKcRzc_1Kxtc1iCE-T2bvAPHoRU_cIa_e6kDAy2IHb_9-cg2ogZ2TMx6hTgZFJhFK5WzmPANDPzG4XVWNu3G00]--></g></svg>