<svg xmlns="http://www.w3.org/2000/svg" xmlns:xlink="http://www.w3.org/1999/xlink" contentStyleType="text/css" height="419px" preserveAspectRatio="none" style="width:911px;height:419px;background:#FFFFFF;" version="1.1" viewBox="0 0 911 419" width="911px" zoomAndPan="magnify"><title>US08 - Get Available Stations - Partial Sequence Diagram</title><defs/><g><text fill="#000000" font-family="sans-serif" font-size="14" font-weight="bold" lengthAdjust="spacing" textLength="380.4609" x="264.5195" y="30.1074">US08 - Get Available Stations - Partial Sequence Diagram</text><rect fill="#FFFFFF" height="252.3281" style="stroke:#181818;stroke-width:1.0;" width="10" x="241.0991" y="111.5332"/><rect fill="#FFFFFF" height="31.291" style="stroke:#181818;stroke-width:1.0;" width="10" x="398.1675" y="294.2793"/><rect fill="#FFFFFF" height="31.291" style="stroke:#181818;stroke-width:1.0;" width="10" x="524.105" y="169.1152"/><rect fill="#FFFFFF" height="31.291" style="stroke:#181818;stroke-width:1.0;" width="10" x="659.7666" y="231.6973"/><rect fill="none" height="207.0371" style="stroke:#000000;stroke-width:1.5;" width="595.46" x="143.5029" y="126.5332"/><line style="stroke:#181818;stroke-width:0.5;stroke-dasharray:5.0,5.0;" x1="74" x2="74" y1="78.2422" y2="381.8613"/><line style="stroke:#181818;stroke-width:0.5;stroke-dasharray:5.0,5.0;" x1="245.5029" x2="245.5029" y1="78.2422" y2="381.8613"/><line style="stroke:#181818;stroke-width:0.5;stroke-dasharray:5.0,5.0;" x1="402.6953" x2="402.6953" y1="78.2422" y2="381.8613"/><line style="stroke:#181818;stroke-width:0.5;stroke-dasharray:5.0,5.0;" x1="528.6396" x2="528.6396" y1="78.2422" y2="381.8613"/><line style="stroke:#181818;stroke-width:0.5;stroke-dasharray:5.0,5.0;" x1="664.5703" x2="664.5703" y1="78.2422" y2="381.8613"/><line style="stroke:#181818;stroke-width:0.5;stroke-dasharray:5.0,5.0;" x1="821.9629" x2="821.9629" y1="78.2422" y2="381.8613"/><rect fill="#E3E3E3" height="32.6211" rx="2.5" ry="2.5" style="stroke:#181818;stroke-width:0.5;" width="138.5029" x="5" y="44.6211"/><text fill="#000000" font-family="sans-serif" font-size="14" lengthAdjust="spacing" textLength="124.5029" x="12" y="66.7285">:BuildRailwayLineUI</text><rect fill="#E3E3E3" height="32.6211" rx="2.5" ry="2.5" style="stroke:#181818;stroke-width:0.5;" width="138.5029" x="5" y="380.8613"/><text fill="#000000" font-family="sans-serif" font-size="14" lengthAdjust="spacing" textLength="124.5029" x="12" y="402.9688">:BuildRailwayLineUI</text><rect fill="#E3E3E3" height="32.6211" rx="2.5" ry="2.5" style="stroke:#181818;stroke-width:0.5;" width="185.1924" x="153.5029" y="44.6211"/><text fill="#000000" font-family="sans-serif" font-size="14" lengthAdjust="spacing" textLength="171.1924" x="160.5029" y="66.7285">:BuildRailwayLineController</text><rect fill="#E3E3E3" height="32.6211" rx="2.5" ry="2.5" style="stroke:#181818;stroke-width:0.5;" width="185.1924" x="153.5029" y="380.8613"/><text fill="#000000" font-family="sans-serif" font-size="14" lengthAdjust="spacing" textLength="171.1924" x="160.5029" y="402.9688">:BuildRailwayLineController</text><rect fill="#E3E3E3" height="32.6211" rx="2.5" ry="2.5" style="stroke:#181818;stroke-width:0.5;" width="108.9443" x="348.6953" y="44.6211"/><text fill="#000000" font-family="sans-serif" font-size="14" lengthAdjust="spacing" textLength="94.9443" x="355.6953" y="66.7285">:StationMapper</text><rect fill="#E3E3E3" height="32.6211" rx="2.5" ry="2.5" style="stroke:#181818;stroke-width:0.5;" width="108.9443" x="348.6953" y="380.8613"/><text fill="#000000" font-family="sans-serif" font-size="14" lengthAdjust="spacing" textLength="94.9443" x="355.6953" y="402.9688">:StationMapper</text><rect fill="#E3E3E3" height="32.6211" rx="2.5" ry="2.5" style="stroke:#181818;stroke-width:0.5;" width="122.9307" x="467.6396" y="44.6211"/><text fill="#000000" font-family="sans-serif" font-size="14" lengthAdjust="spacing" textLength="108.9307" x="474.6396" y="66.7285">:GameRepository</text><rect fill="#E3E3E3" height="32.6211" rx="2.5" ry="2.5" style="stroke:#181818;stroke-width:0.5;" width="122.9307" x="467.6396" y="380.8613"/><text fill="#000000" font-family="sans-serif" font-size="14" lengthAdjust="spacing" textLength="108.9307" x="474.6396" y="402.9688">:GameRepository</text><rect fill="#E3E3E3" height="32.6211" rx="2.5" ry="2.5" style="stroke:#181818;stroke-width:0.5;" width="128.3926" x="600.5703" y="44.6211"/><text fill="#000000" font-family="sans-serif" font-size="14" lengthAdjust="spacing" textLength="114.3926" x="607.5703" y="66.7285">:StationRepository</text><rect fill="#E3E3E3" height="32.6211" rx="2.5" ry="2.5" style="stroke:#181818;stroke-width:0.5;" width="128.3926" x="600.5703" y="380.8613"/><text fill="#000000" font-family="sans-serif" font-size="14" lengthAdjust="spacing" textLength="114.3926" x="607.5703" y="402.9688">:StationRepository</text><rect fill="#E3E3E3" height="32.6211" rx="2.5" ry="2.5" style="stroke:#181818;stroke-width:0.5;" width="166.5371" x="738.9629" y="44.6211"/><text fill="#000000" font-family="sans-serif" font-size="14" lengthAdjust="spacing" textLength="152.5371" x="745.9629" y="66.7285">stationList :List&lt;Station&gt;</text><rect fill="#E3E3E3" height="32.6211" rx="2.5" ry="2.5" style="stroke:#181818;stroke-width:0.5;" width="166.5371" x="738.9629" y="380.8613"/><text fill="#000000" font-family="sans-serif" font-size="14" lengthAdjust="spacing" textLength="152.5371" x="745.9629" y="402.9688">stationList :List&lt;Station&gt;</text><rect fill="#FFFFFF" height="252.3281" style="stroke:#181818;stroke-width:1.0;" width="10" x="241.0991" y="111.5332"/><rect fill="#FFFFFF" height="31.291" style="stroke:#181818;stroke-width:1.0;" width="10" x="398.1675" y="294.2793"/><rect fill="#FFFFFF" height="31.291" style="stroke:#181818;stroke-width:1.0;" width="10" x="524.105" y="169.1152"/><rect fill="#FFFFFF" height="31.291" style="stroke:#181818;stroke-width:1.0;" width="10" x="659.7666" y="231.6973"/><polygon fill="#181818" points="229.0991,107.5332,239.0991,111.5332,229.0991,115.5332,233.0991,111.5332" style="stroke:#181818;stroke-width:1.0;"/><line style="stroke:#181818;stroke-width:1.0;" x1="74.2515" x2="235.0991" y1="111.5332" y2="111.5332"/><text fill="#000000" font-family="sans-serif" font-size="13" lengthAdjust="spacing" textLength="126.458" x="81.2515" y="106.2705">getAvailableStations()</text><path d="M143.5029,126.5332 L325.7646,126.5332 L325.7646,135.8242 L315.7646,145.8242 L143.5029,145.8242 L143.5029,126.5332 " fill="#EEEEEE" style="stroke:#000000;stroke-width:1.5;"/><rect fill="none" height="207.0371" style="stroke:#000000;stroke-width:1.5;" width="595.46" x="143.5029" y="126.5332"/><text fill="#000000" font-family="sans-serif" font-size="13" font-weight="bold" lengthAdjust="spacing" textLength="137.2617" x="158.5029" y="141.5615">Get Available Stations</text><polygon fill="#181818" points="512.105,165.1152,522.105,169.1152,512.105,173.1152,516.105,169.1152" style="stroke:#181818;stroke-width:1.0;"/><line style="stroke:#181818;stroke-width:1.0;" x1="251.0991" x2="518.105" y1="169.1152" y2="169.1152"/><text fill="#000000" font-family="sans-serif" font-size="13" lengthAdjust="spacing" textLength="129.3398" x="258.0991" y="163.8525">getStationRepository()</text><polygon fill="#181818" points="262.0991,196.4063,252.0991,200.4063,262.0991,204.4063,258.0991,200.4063" style="stroke:#181818;stroke-width:1.0;"/><line style="stroke:#181818;stroke-width:1.0;stroke-dasharray:2.0,2.0;" x1="256.0991" x2="528.105" y1="200.4063" y2="200.4063"/><text fill="#000000" font-family="sans-serif" font-size="13" lengthAdjust="spacing" textLength="100.439" x="268.0991" y="195.1436">stationRepository</text><polygon fill="#181818" points="647.7666,227.6973,657.7666,231.6973,647.7666,235.6973,651.7666,231.6973" style="stroke:#181818;stroke-width:1.0;"/><line style="stroke:#181818;stroke-width:1.0;" x1="251.0991" x2="653.7666" y1="231.6973" y2="231.6973"/><text fill="#000000" font-family="sans-serif" font-size="13" lengthAdjust="spacing" textLength="88.1499" x="258.0991" y="226.4346">getAllStations()</text><polygon fill="#181818" points="262.0991,258.9883,252.0991,262.9883,262.0991,266.9883,258.0991,262.9883" style="stroke:#181818;stroke-width:1.0;"/><line style="stroke:#181818;stroke-width:1.0;stroke-dasharray:2.0,2.0;" x1="256.0991" x2="663.7666" y1="262.9883" y2="262.9883"/><text fill="#000000" font-family="sans-serif" font-size="13" lengthAdjust="spacing" textLength="58.5317" x="268.0991" y="257.7256">stationList</text><polygon fill="#181818" points="386.1675,290.2793,396.1675,294.2793,386.1675,298.2793,390.1675,294.2793" style="stroke:#181818;stroke-width:1.0;"/><line style="stroke:#181818;stroke-width:1.0;" x1="251.0991" x2="392.1675" y1="294.2793" y2="294.2793"/><text fill="#000000" font-family="sans-serif" font-size="13" lengthAdjust="spacing" textLength="125.7026" x="258.0991" y="289.0166">toDTOList(stationList)</text><polygon fill="#181818" points="262.0991,321.5703,252.0991,325.5703,262.0991,329.5703,258.0991,325.5703" style="stroke:#181818;stroke-width:1.0;"/><line style="stroke:#181818;stroke-width:1.0;stroke-dasharray:2.0,2.0;" x1="256.0991" x2="402.1675" y1="325.5703" y2="325.5703"/><text fill="#000000" font-family="sans-serif" font-size="13" lengthAdjust="spacing" textLength="85.9727" x="268.0991" y="320.3076">stationDTOList</text><polygon fill="#181818" points="85.2515,359.8613,75.2515,363.8613,85.2515,367.8613,81.2515,363.8613" style="stroke:#181818;stroke-width:1.0;"/><line style="stroke:#181818;stroke-width:1.0;stroke-dasharray:2.0,2.0;" x1="79.2515" x2="245.0991" y1="363.8613" y2="363.8613"/><text fill="#000000" font-family="sans-serif" font-size="13" lengthAdjust="spacing" textLength="85.9727" x="91.2515" y="358.5986">stationDTOList</text><!--SRC=[XPB1Ri8m38RlVGfh9tP0sd524n83X2h1G6rv0Azu9I8aNM90lFtIDdHP2reEFJIVl_nsOWz2bMZm24UjTBut-aZ0vaIHRNTAp0zOKCfNIM0ePrI5306xnvs-25N05qfBKSI27RfDNrvX20jYc9nHIFnqFrD65bfPjx51mm8bfFHz8fKJp0GMpXT5PRMJYn8LmzFe_IJaBd622rwNGj4sVWAqi8t_uQPQiT5IagdvQPOiEnK-p0hBqaDfDidYzSTgijdCamwzm2CbL6ehM9jhZIycgtaotwplUpkmT_Tvs-1BOHb6rVVD2yPXtJ9EioZQnZ0Srxt020hYThAtmGwU8ynPd96fQHdSAem-bGzkeWPgeHFV6chalJwSlABR0zh-mQ-sVlYRqdOjDRsZ-vPRac1QlbCfWnx_n0WdUqiIrlV3L5FknkXQxiLf7eRpi9vbwyeo28ptO_d7r0dcJVretliWNI0ZjMikDWZgREw5z5o1f-9-0000]--></g></svg>