<svg xmlns="http://www.w3.org/2000/svg" xmlns:xlink="http://www.w3.org/1999/xlink" contentStyleType="text/css" height="1454px" preserveAspectRatio="none" style="width:2878px;height:1454px;background:#FFFFFF;" version="1.1" viewBox="0 0 2878 1454" width="2878px" zoomAndPan="magnify"><title>US08 - Class Diagram - Build a Railway Line</title><defs/><g><text fill="#000000" font-family="sans-serif" font-size="14" font-weight="bold" lengthAdjust="spacing" textLength="292.5371" x="1286" y="25.1074">US08 - Class Diagram - Build a Railway Line</text><!--class BuildRailwayLineUI--><g id="elem_BuildRailwayLineUI"><rect codeLine="9" fill="#F1F1F1" height="48" id="BuildRailwayLineUI" rx="2.5" ry="2.5" style="stroke:#181818;stroke-width:0.5;" width="152.6133" x="7" y="698.4811"/><ellipse cx="22" cy="714.4811" fill="#C2C2C2" rx="11" ry="11" style="stroke:#181818;stroke-width:1.0;"/><path d="M24.7656,710.3561 Q24.9219,710.1373 25.1094,710.028 Q25.2969,709.9186 25.5156,709.9186 Q25.8906,709.9186 26.125,710.1842 Q26.3594,710.4342 26.3594,711.0436 L26.3594,712.4967 Q26.3594,713.1061 26.125,713.3717 Q25.8906,713.6373 25.5156,713.6373 Q25.1719,713.6373 24.9688,713.4342 Q24.7656,713.2467 24.6563,712.7311 Q24.6094,712.3717 24.4219,712.1842 Q24.0938,711.8092 23.4844,711.5905 Q22.875,711.3717 22.25,711.3717 Q21.4844,711.3717 20.8438,711.6998 Q20.2188,712.028 19.7188,712.778 Q19.2344,713.528 19.2344,714.5592 L19.2344,715.653 Q19.2344,716.8873 20.125,717.7155 Q21.0156,718.528 22.6094,718.528 Q23.5469,718.528 24.2031,718.278 Q24.5938,718.1217 25.0156,717.6842 Q25.2813,717.4186 25.4219,717.3405 Q25.5781,717.2623 25.7813,717.2623 Q26.1094,717.2623 26.3594,717.528 Q26.625,717.778 26.625,718.1217 Q26.625,718.4655 26.2813,718.8717 Q25.7813,719.4498 24.9844,719.778 Q23.9063,720.2311 22.6094,720.2311 Q21.0938,720.2311 19.8906,719.6061 Q18.9063,719.1061 18.2188,718.0436 Q17.5313,716.9655 17.5313,715.6842 L17.5313,714.528 Q17.5313,713.1998 18.1406,712.0592 Q18.7656,710.903 19.8594,710.2936 Q20.9531,709.6686 22.1875,709.6686 Q22.9219,709.6686 23.5625,709.8405 Q24.2188,709.9967 24.7656,710.3561 Z " fill="#000000"/><text fill="#000000" font-family="sans-serif" font-size="14" lengthAdjust="spacing" textLength="120.6133" x="36" y="720.278">BuildRailwayLineUI</text><line style="stroke:#181818;stroke-width:0.5;" x1="8" x2="158.6133" y1="730.4811" y2="730.4811"/><line style="stroke:#181818;stroke-width:0.5;" x1="8" x2="158.6133" y1="738.4811" y2="738.4811"/></g><!--class StationDTO--><g id="elem_StationDTO"><rect codeLine="13" fill="#F1F1F1" height="122.4844" id="StationDTO" rx="2.5" ry="2.5" style="stroke:#181818;stroke-width:0.5;" width="176.9854" x="1826.5" y="648.4811"/><ellipse cx="1874.1738" cy="664.4811" fill="#C2C2C2" rx="11" ry="11" style="stroke:#181818;stroke-width:1.0;"/><path d="M1876.9395,660.3561 Q1877.0957,660.1373 1877.2832,660.028 Q1877.4707,659.9186 1877.6895,659.9186 Q1878.0645,659.9186 1878.2988,660.1842 Q1878.5332,660.4342 1878.5332,661.0436 L1878.5332,662.4967 Q1878.5332,663.1061 1878.2988,663.3717 Q1878.0645,663.6373 1877.6895,663.6373 Q1877.3457,663.6373 1877.1426,663.4342 Q1876.9395,663.2467 1876.8301,662.7311 Q1876.7832,662.3717 1876.5957,662.1842 Q1876.2676,661.8092 1875.6582,661.5905 Q1875.0488,661.3717 1874.4238,661.3717 Q1873.6582,661.3717 1873.0176,661.6998 Q1872.3926,662.028 1871.8926,662.778 Q1871.4082,663.528 1871.4082,664.5592 L1871.4082,665.653 Q1871.4082,666.8873 1872.2988,667.7155 Q1873.1895,668.528 1874.7832,668.528 Q1875.7207,668.528 1876.377,668.278 Q1876.7676,668.1217 1877.1895,667.6842 Q1877.4551,667.4186 1877.5957,667.3405 Q1877.752,667.2623 1877.9551,667.2623 Q1878.2832,667.2623 1878.5332,667.528 Q1878.7988,667.778 1878.7988,668.1217 Q1878.7988,668.4655 1878.4551,668.8717 Q1877.9551,669.4498 1877.1582,669.778 Q1876.0801,670.2311 1874.7832,670.2311 Q1873.2676,670.2311 1872.0645,669.6061 Q1871.0801,669.1061 1870.3926,668.0436 Q1869.7051,666.9655 1869.7051,665.6842 L1869.7051,664.528 Q1869.7051,663.1998 1870.3145,662.0592 Q1870.9395,660.903 1872.0332,660.2936 Q1873.127,659.6686 1874.3613,659.6686 Q1875.0957,659.6686 1875.7363,659.8405 Q1876.3926,659.9967 1876.9395,660.3561 Z " fill="#000000"/><text fill="#000000" font-family="sans-serif" font-size="14" lengthAdjust="spacing" textLength="73.1377" x="1894.6738" y="670.278">StationDTO</text><line style="stroke:#181818;stroke-width:0.5;" x1="1827.5" x2="2002.4854" y1="680.4811" y2="680.4811"/><ellipse cx="1837.5" cy="695.2916" fill="none" rx="3" ry="3" style="stroke:#545454;stroke-width:1.0;"/><text fill="#000000" font-family="sans-serif" font-size="14" lengthAdjust="spacing" textLength="79.3721" x="1846.5" y="699.5885">name: String</text><ellipse cx="1837.5" cy="713.9127" fill="none" rx="3" ry="3" style="stroke:#545454;stroke-width:1.0;"/><text fill="#000000" font-family="sans-serif" font-size="14" lengthAdjust="spacing" textLength="138.5166" x="1846.5" y="718.2096">location: LocationDTO</text><ellipse cx="1837.5" cy="732.5338" fill="none" rx="3" ry="3" style="stroke:#545454;stroke-width:1.0;"/><text fill="#000000" font-family="sans-serif" font-size="14" lengthAdjust="spacing" textLength="150.9854" x="1846.5" y="736.8307">storageCapacity: double</text><ellipse cx="1837.5" cy="751.1549" fill="none" rx="3" ry="3" style="stroke:#545454;stroke-width:1.0;"/><text fill="#000000" font-family="sans-serif" font-size="14" lengthAdjust="spacing" textLength="141.627" x="1846.5" y="755.4518">currentCargoCount: int</text><line style="stroke:#181818;stroke-width:0.5;" x1="1827.5" x2="2002.4854" y1="762.9655" y2="762.9655"/></g><!--class LocationDTO--><g id="elem_LocationDTO"><rect codeLine="20" fill="#F1F1F1" height="85.2422" id="LocationDTO" rx="2.5" ry="2.5" style="stroke:#181818;stroke-width:0.5;" width="114.4824" x="26.5" y="577.9811"/><ellipse cx="41.5" cy="593.9811" fill="#C2C2C2" rx="11" ry="11" style="stroke:#181818;stroke-width:1.0;"/><path d="M44.2656,589.8561 Q44.4219,589.6373 44.6094,589.528 Q44.7969,589.4186 45.0156,589.4186 Q45.3906,589.4186 45.625,589.6842 Q45.8594,589.9342 45.8594,590.5436 L45.8594,591.9967 Q45.8594,592.6061 45.625,592.8717 Q45.3906,593.1373 45.0156,593.1373 Q44.6719,593.1373 44.4688,592.9342 Q44.2656,592.7467 44.1563,592.2311 Q44.1094,591.8717 43.9219,591.6842 Q43.5938,591.3092 42.9844,591.0905 Q42.375,590.8717 41.75,590.8717 Q40.9844,590.8717 40.3438,591.1998 Q39.7188,591.528 39.2188,592.278 Q38.7344,593.028 38.7344,594.0592 L38.7344,595.153 Q38.7344,596.3873 39.625,597.2155 Q40.5156,598.028 42.1094,598.028 Q43.0469,598.028 43.7031,597.778 Q44.0938,597.6217 44.5156,597.1842 Q44.7813,596.9186 44.9219,596.8405 Q45.0781,596.7623 45.2813,596.7623 Q45.6094,596.7623 45.8594,597.028 Q46.125,597.278 46.125,597.6217 Q46.125,597.9655 45.7813,598.3717 Q45.2813,598.9498 44.4844,599.278 Q43.4063,599.7311 42.1094,599.7311 Q40.5938,599.7311 39.3906,599.1061 Q38.4063,598.6061 37.7188,597.5436 Q37.0313,596.4655 37.0313,595.1842 L37.0313,594.028 Q37.0313,592.6998 37.6406,591.5592 Q38.2656,590.403 39.3594,589.7936 Q40.4531,589.1686 41.6875,589.1686 Q42.4219,589.1686 43.0625,589.3405 Q43.7188,589.4967 44.2656,589.8561 Z " fill="#000000"/><text fill="#000000" font-family="sans-serif" font-size="14" lengthAdjust="spacing" textLength="82.4824" x="55.5" y="599.778">LocationDTO</text><line style="stroke:#181818;stroke-width:0.5;" x1="27.5" x2="139.9824" y1="609.9811" y2="609.9811"/><ellipse cx="37.5" cy="624.7916" fill="none" rx="3" ry="3" style="stroke:#545454;stroke-width:1.0;"/><text fill="#000000" font-family="sans-serif" font-size="14" lengthAdjust="spacing" textLength="56.8203" x="46.5" y="629.0885">x: double</text><ellipse cx="37.5" cy="643.4127" fill="none" rx="3" ry="3" style="stroke:#545454;stroke-width:1.0;"/><text fill="#000000" font-family="sans-serif" font-size="14" lengthAdjust="spacing" textLength="56.8203" x="46.5" y="647.7096">y: double</text><line style="stroke:#181818;stroke-width:0.5;" x1="27.5" x2="139.9824" y1="655.2233" y2="655.2233"/></g><!--class PathCostDTO--><g id="elem_PathCostDTO"><rect codeLine="25" fill="#F1F1F1" height="103.8633" id="PathCostDTO" rx="2.5" ry="2.5" style="stroke:#181818;stroke-width:0.5;" width="181.6475" x="1824" y="1150.4811"/><ellipse cx="1867.1294" cy="1166.4811" fill="#C2C2C2" rx="11" ry="11" style="stroke:#181818;stroke-width:1.0;"/><path d="M1869.895,1162.3561 Q1870.0513,1162.1373 1870.2388,1162.028 Q1870.4263,1161.9186 1870.645,1161.9186 Q1871.02,1161.9186 1871.2544,1162.1842 Q1871.4888,1162.4342 1871.4888,1163.0436 L1871.4888,1164.4967 Q1871.4888,1165.1061 1871.2544,1165.3717 Q1871.02,1165.6373 1870.645,1165.6373 Q1870.3013,1165.6373 1870.0981,1165.4342 Q1869.895,1165.2467 1869.7856,1164.7311 Q1869.7388,1164.3717 1869.5513,1164.1842 Q1869.2231,1163.8092 1868.6138,1163.5905 Q1868.0044,1163.3717 1867.3794,1163.3717 Q1866.6138,1163.3717 1865.9731,1163.6998 Q1865.3481,1164.028 1864.8481,1164.778 Q1864.3638,1165.528 1864.3638,1166.5592 L1864.3638,1167.653 Q1864.3638,1168.8873 1865.2544,1169.7155 Q1866.145,1170.528 1867.7388,1170.528 Q1868.6763,1170.528 1869.3325,1170.278 Q1869.7231,1170.1217 1870.145,1169.6842 Q1870.4106,1169.4186 1870.5513,1169.3405 Q1870.7075,1169.2623 1870.9106,1169.2623 Q1871.2388,1169.2623 1871.4888,1169.528 Q1871.7544,1169.778 1871.7544,1170.1217 Q1871.7544,1170.4655 1871.4106,1170.8717 Q1870.9106,1171.4498 1870.1138,1171.778 Q1869.0356,1172.2311 1867.7388,1172.2311 Q1866.2231,1172.2311 1865.02,1171.6061 Q1864.0356,1171.1061 1863.3481,1170.0436 Q1862.6606,1168.9655 1862.6606,1167.6842 L1862.6606,1166.528 Q1862.6606,1165.1998 1863.27,1164.0592 Q1863.895,1162.903 1864.9888,1162.2936 Q1866.0825,1161.6686 1867.3169,1161.6686 Q1868.0513,1161.6686 1868.6919,1161.8405 Q1869.3481,1161.9967 1869.895,1162.3561 Z " fill="#000000"/><text fill="#000000" font-family="sans-serif" font-size="14" lengthAdjust="spacing" textLength="87.1377" x="1887.3804" y="1172.278">PathCostDTO</text><line style="stroke:#181818;stroke-width:0.5;" x1="1825" x2="2004.6475" y1="1182.4811" y2="1182.4811"/><ellipse cx="1835" cy="1197.2916" fill="none" rx="3" ry="3" style="stroke:#545454;stroke-width:1.0;"/><text fill="#000000" font-family="sans-serif" font-size="14" lengthAdjust="spacing" textLength="155.6475" x="1844" y="1201.5885">path: List&lt;LocationDTO&gt;</text><ellipse cx="1835" cy="1215.9127" fill="none" rx="3" ry="3" style="stroke:#545454;stroke-width:1.0;"/><text fill="#000000" font-family="sans-serif" font-size="14" lengthAdjust="spacing" textLength="105.0684" x="1844" y="1220.2096">totalCost: double</text><ellipse cx="1835" cy="1234.5338" fill="none" rx="3" ry="3" style="stroke:#545454;stroke-width:1.0;"/><text fill="#000000" font-family="sans-serif" font-size="14" lengthAdjust="spacing" textLength="101.9648" x="1844" y="1238.8307">distance: double</text><line style="stroke:#181818;stroke-width:0.5;" x1="1825" x2="2004.6475" y1="1246.3444" y2="1246.3444"/></g><!--class PlayerDTO--><g id="elem_PlayerDTO"><rect codeLine="31" fill="#F1F1F1" height="103.8633" id="PlayerDTO" rx="2.5" ry="2.5" style="stroke:#181818;stroke-width:0.5;" width="155.958" x="1837" y="138.4811"/><ellipse cx="1876.6256" cy="154.4811" fill="#C2C2C2" rx="11" ry="11" style="stroke:#181818;stroke-width:1.0;"/><path d="M1879.3913,150.3561 Q1879.5475,150.1373 1879.735,150.028 Q1879.9225,149.9186 1880.1413,149.9186 Q1880.5163,149.9186 1880.7506,150.1842 Q1880.985,150.4342 1880.985,151.0436 L1880.985,152.4967 Q1880.985,153.1061 1880.7506,153.3717 Q1880.5163,153.6373 1880.1413,153.6373 Q1879.7975,153.6373 1879.5944,153.4342 Q1879.3913,153.2467 1879.2819,152.7311 Q1879.235,152.3717 1879.0475,152.1842 Q1878.7194,151.8092 1878.11,151.5905 Q1877.5006,151.3717 1876.8756,151.3717 Q1876.11,151.3717 1875.4694,151.6998 Q1874.8444,152.028 1874.3444,152.778 Q1873.86,153.528 1873.86,154.5592 L1873.86,155.653 Q1873.86,156.8873 1874.7506,157.7155 Q1875.6413,158.528 1877.235,158.528 Q1878.1725,158.528 1878.8288,158.278 Q1879.2194,158.1217 1879.6413,157.6842 Q1879.9069,157.4186 1880.0475,157.3405 Q1880.2038,157.2623 1880.4069,157.2623 Q1880.735,157.2623 1880.985,157.528 Q1881.2506,157.778 1881.2506,158.1217 Q1881.2506,158.4655 1880.9069,158.8717 Q1880.4069,159.4498 1879.61,159.778 Q1878.5319,160.2311 1877.235,160.2311 Q1875.7194,160.2311 1874.5163,159.6061 Q1873.5319,159.1061 1872.8444,158.0436 Q1872.1569,156.9655 1872.1569,155.6842 L1872.1569,154.528 Q1872.1569,153.1998 1872.7663,152.0592 Q1873.3913,150.903 1874.485,150.2936 Q1875.5788,149.6686 1876.8131,149.6686 Q1877.5475,149.6686 1878.1881,149.8405 Q1878.8444,149.9967 1879.3913,150.3561 Z " fill="#000000"/><text fill="#000000" font-family="sans-serif" font-size="14" lengthAdjust="spacing" textLength="69.2344" x="1896.098" y="160.278">PlayerDTO</text><line style="stroke:#181818;stroke-width:0.5;" x1="1838" x2="1991.958" y1="170.4811" y2="170.4811"/><ellipse cx="1848" cy="185.2916" fill="none" rx="3" ry="3" style="stroke:#545454;stroke-width:1.0;"/><text fill="#000000" font-family="sans-serif" font-size="14" lengthAdjust="spacing" textLength="79.3721" x="1857" y="189.5885">name: String</text><ellipse cx="1848" cy="203.9127" fill="none" rx="3" ry="3" style="stroke:#545454;stroke-width:1.0;"/><text fill="#000000" font-family="sans-serif" font-size="14" lengthAdjust="spacing" textLength="84.0684" x="1857" y="208.2096">funds: double</text><ellipse cx="1848" cy="222.5338" fill="none" rx="3" ry="3" style="stroke:#545454;stroke-width:1.0;"/><text fill="#000000" font-family="sans-serif" font-size="14" lengthAdjust="spacing" textLength="129.958" x="1857" y="226.8307">railwayLineCount: int</text><line style="stroke:#181818;stroke-width:0.5;" x1="1838" x2="1991.958" y1="234.3444" y2="234.3444"/></g><!--class BuildRailwayLineRequestDTO--><g id="elem_BuildRailwayLineRequestDTO"><rect codeLine="38" fill="#F1F1F1" height="103.8633" id="BuildRailwayLineRequestDTO" rx="2.5" ry="2.5" style="stroke:#181818;stroke-width:0.5;" width="220.3096" x="476.5" y="1343.4811"/><ellipse cx="491.5" cy="1359.4811" fill="#C2C2C2" rx="11" ry="11" style="stroke:#181818;stroke-width:1.0;"/><path d="M494.2656,1355.3561 Q494.4219,1355.1373 494.6094,1355.028 Q494.7969,1354.9186 495.0156,1354.9186 Q495.3906,1354.9186 495.625,1355.1842 Q495.8594,1355.4342 495.8594,1356.0436 L495.8594,1357.4967 Q495.8594,1358.1061 495.625,1358.3717 Q495.3906,1358.6373 495.0156,1358.6373 Q494.6719,1358.6373 494.4688,1358.4342 Q494.2656,1358.2467 494.1563,1357.7311 Q494.1094,1357.3717 493.9219,1357.1842 Q493.5938,1356.8092 492.9844,1356.5905 Q492.375,1356.3717 491.75,1356.3717 Q490.9844,1356.3717 490.3438,1356.6998 Q489.7188,1357.028 489.2188,1357.778 Q488.7344,1358.528 488.7344,1359.5592 L488.7344,1360.653 Q488.7344,1361.8873 489.625,1362.7155 Q490.5156,1363.528 492.1094,1363.528 Q493.0469,1363.528 493.7031,1363.278 Q494.0938,1363.1217 494.5156,1362.6842 Q494.7813,1362.4186 494.9219,1362.3405 Q495.0781,1362.2623 495.2813,1362.2623 Q495.6094,1362.2623 495.8594,1362.528 Q496.125,1362.778 496.125,1363.1217 Q496.125,1363.4655 495.7813,1363.8717 Q495.2813,1364.4498 494.4844,1364.778 Q493.4063,1365.2311 492.1094,1365.2311 Q490.5938,1365.2311 489.3906,1364.6061 Q488.4063,1364.1061 487.7188,1363.0436 Q487.0313,1361.9655 487.0313,1360.6842 L487.0313,1359.528 Q487.0313,1358.1998 487.6406,1357.0592 Q488.2656,1355.903 489.3594,1355.2936 Q490.4531,1354.6686 491.6875,1354.6686 Q492.4219,1354.6686 493.0625,1354.8405 Q493.7188,1354.9967 494.2656,1355.3561 Z " fill="#000000"/><text fill="#000000" font-family="sans-serif" font-size="14" lengthAdjust="spacing" textLength="188.3096" x="505.5" y="1365.278">BuildRailwayLineRequestDTO</text><line style="stroke:#181818;stroke-width:0.5;" x1="477.5" x2="695.8096" y1="1375.4811" y2="1375.4811"/><ellipse cx="487.5" cy="1390.2916" fill="none" rx="3" ry="3" style="stroke:#545454;stroke-width:1.0;"/><text fill="#000000" font-family="sans-serif" font-size="14" lengthAdjust="spacing" textLength="152.5098" x="496.5" y="1394.5885">startStationName: String</text><ellipse cx="487.5" cy="1408.9127" fill="none" rx="3" ry="3" style="stroke:#545454;stroke-width:1.0;"/><text fill="#000000" font-family="sans-serif" font-size="14" lengthAdjust="spacing" textLength="148.6406" x="496.5" y="1413.2096">endStationName: String</text><ellipse cx="487.5" cy="1427.5338" fill="none" rx="3" ry="3" style="stroke:#545454;stroke-width:1.0;"/><text fill="#000000" font-family="sans-serif" font-size="14" lengthAdjust="spacing" textLength="140.0752" x="496.5" y="1431.8307">confirmedCost: double</text><line style="stroke:#181818;stroke-width:0.5;" x1="477.5" x2="695.8096" y1="1439.3444" y2="1439.3444"/></g><!--class Mapper--><g id="elem_Mapper"><rect codeLine="44" fill="#F1F1F1" height="85.2422" id="Mapper" rx="2.5" ry="2.5" style="stroke:#181818;stroke-width:0.5;" width="233.7373" x="1798" y="878.9811"/><ellipse cx="1881.2192" cy="894.9811" fill="#B1B1B1" rx="11" ry="11" style="stroke:#181818;stroke-width:1.0;"/><path d="M1882.1724,891.6217 L1882.1724,898.278 L1883.8911,898.278 Q1884.5005,898.278 1884.7661,898.5123 Q1885.0317,898.7467 1885.0317,899.1373 Q1885.0317,899.5123 1884.7661,899.7467 Q1884.5005,899.9811 1883.8911,899.9811 L1878.7505,899.9811 Q1878.1411,899.9811 1877.8755,899.7467 Q1877.6099,899.5123 1877.6099,899.1217 Q1877.6099,898.7467 1877.8755,898.5123 Q1878.1411,898.278 1878.7505,898.278 L1880.4692,898.278 L1880.4692,891.6217 L1878.7505,891.6217 Q1878.1411,891.6217 1877.8755,891.3873 Q1877.6099,891.153 1877.6099,890.7623 Q1877.6099,890.3873 1877.8755,890.153 Q1878.1411,889.9186 1878.7505,889.9186 L1883.8911,889.9186 Q1884.5005,889.9186 1884.7661,890.153 Q1885.0317,890.3873 1885.0317,890.7623 Q1885.0317,891.153 1884.7661,891.3873 Q1884.5005,891.6217 1883.8911,891.6217 L1882.1724,891.6217 Z " fill="#000000"/><text fill="#000000" font-family="sans-serif" font-size="14" font-style="italic" lengthAdjust="spacing" textLength="47.4688" x="1901.7192" y="900.778">Mapper</text><rect fill="#FFFFFF" height="17.9609" style="stroke:#181818;stroke-width:1.0;stroke-dasharray:2.0,2.0;" width="9.3301" x="2025.4072" y="875.9811"/><text fill="#000000" font-family="sans-serif" font-size="12" font-style="italic" lengthAdjust="spacing" textLength="7.3301" x="2026.4072" y="889.9303">T</text><line style="stroke:#181818;stroke-width:0.5;" x1="1799" x2="2030.7373" y1="910.9811" y2="910.9811"/><line style="stroke:#181818;stroke-width:0.5;" x1="1799" x2="2030.7373" y1="918.9811" y2="918.9811"/><ellipse cx="1809" cy="933.7916" fill="#A6A6A6" rx="3" ry="3" style="stroke:#545454;stroke-width:1.0;"/><text fill="#000000" font-family="sans-serif" font-size="14" lengthAdjust="spacing" textLength="109.6758" x="1818" y="938.0885">toDTO(type: T): T</text><ellipse cx="1809" cy="952.4127" fill="#A6A6A6" rx="3" ry="3" style="stroke:#545454;stroke-width:1.0;"/><text fill="#000000" font-family="sans-serif" font-size="14" lengthAdjust="spacing" textLength="207.7373" x="1818" y="956.7096">toDTOList(type: List&lt;T&gt;): List&lt;T&gt;</text></g><!--class StationMapper--><g id="elem_StationMapper"><rect codeLine="50" fill="#F1F1F1" height="85.2422" id="StationMapper" rx="2.5" ry="2.5" style="stroke:#181818;stroke-width:0.5;" width="355.1436" x="1059.5" y="790.9811"/><ellipse cx="1187.2944" cy="806.9811" fill="#C2C2C2" rx="11" ry="11" style="stroke:#181818;stroke-width:1.0;"/><path d="M1190.0601,802.8561 Q1190.2163,802.6373 1190.4038,802.528 Q1190.5913,802.4186 1190.8101,802.4186 Q1191.1851,802.4186 1191.4194,802.6842 Q1191.6538,802.9342 1191.6538,803.5436 L1191.6538,804.9967 Q1191.6538,805.6061 1191.4194,805.8717 Q1191.1851,806.1373 1190.8101,806.1373 Q1190.4663,806.1373 1190.2632,805.9342 Q1190.0601,805.7467 1189.9507,805.2311 Q1189.9038,804.8717 1189.7163,804.6842 Q1189.3882,804.3092 1188.7788,804.0905 Q1188.1694,803.8717 1187.5444,803.8717 Q1186.7788,803.8717 1186.1382,804.1998 Q1185.5132,804.528 1185.0132,805.278 Q1184.5288,806.028 1184.5288,807.0592 L1184.5288,808.153 Q1184.5288,809.3873 1185.4194,810.2155 Q1186.3101,811.028 1187.9038,811.028 Q1188.8413,811.028 1189.4976,810.778 Q1189.8882,810.6217 1190.3101,810.1842 Q1190.5757,809.9186 1190.7163,809.8405 Q1190.8726,809.7623 1191.0757,809.7623 Q1191.4038,809.7623 1191.6538,810.028 Q1191.9194,810.278 1191.9194,810.6217 Q1191.9194,810.9655 1191.5757,811.3717 Q1191.0757,811.9498 1190.2788,812.278 Q1189.2007,812.7311 1187.9038,812.7311 Q1186.3882,812.7311 1185.1851,812.1061 Q1184.2007,811.6061 1183.5132,810.5436 Q1182.8257,809.4655 1182.8257,808.1842 L1182.8257,807.028 Q1182.8257,805.6998 1183.4351,804.5592 Q1184.0601,803.403 1185.1538,802.7936 Q1186.2476,802.1686 1187.4819,802.1686 Q1188.2163,802.1686 1188.8569,802.3405 Q1189.5132,802.4967 1190.0601,802.8561 Z " fill="#000000"/><text fill="#000000" font-family="sans-serif" font-size="14" lengthAdjust="spacing" textLength="91.0547" x="1207.7944" y="812.778">StationMapper</text><line style="stroke:#181818;stroke-width:0.5;" x1="1060.5" x2="1413.6436" y1="822.9811" y2="822.9811"/><line style="stroke:#181818;stroke-width:0.5;" x1="1060.5" x2="1413.6436" y1="830.9811" y2="830.9811"/><ellipse cx="1070.5" cy="845.7916" fill="#A6A6A6" rx="3" ry="3" style="stroke:#545454;stroke-width:1.0;"/><text fill="#000000" font-family="sans-serif" font-size="14" lengthAdjust="spacing" textLength="224.082" x="1079.5" y="850.0885">toDTO(station: Station): StationDTO</text><ellipse cx="1070.5" cy="864.4127" fill="#A6A6A6" rx="3" ry="3" style="stroke:#545454;stroke-width:1.0;"/><text fill="#000000" font-family="sans-serif" font-size="14" lengthAdjust="spacing" textLength="329.1436" x="1079.5" y="868.7096">toDTOList(stations: List&lt;Station&gt;): List&lt;StationDTO&gt;</text></g><!--class PlayerMapper--><g id="elem_PlayerMapper"><rect codeLine="55" fill="#F1F1F1" height="66.6211" id="PlayerMapper" rx="2.5" ry="2.5" style="stroke:#181818;stroke-width:0.5;" width="239.1582" x="1117.5" y="586.9811"/><ellipse cx="1189.2534" cy="602.9811" fill="#C2C2C2" rx="11" ry="11" style="stroke:#181818;stroke-width:1.0;"/><path d="M1192.019,598.8561 Q1192.1753,598.6373 1192.3628,598.528 Q1192.5503,598.4186 1192.769,598.4186 Q1193.144,598.4186 1193.3784,598.6842 Q1193.6128,598.9342 1193.6128,599.5436 L1193.6128,600.9967 Q1193.6128,601.6061 1193.3784,601.8717 Q1193.144,602.1373 1192.769,602.1373 Q1192.4253,602.1373 1192.2222,601.9342 Q1192.019,601.7467 1191.9097,601.2311 Q1191.8628,600.8717 1191.6753,600.6842 Q1191.3472,600.3092 1190.7378,600.0905 Q1190.1284,599.8717 1189.5034,599.8717 Q1188.7378,599.8717 1188.0972,600.1998 Q1187.4722,600.528 1186.9722,601.278 Q1186.4878,602.028 1186.4878,603.0592 L1186.4878,604.153 Q1186.4878,605.3873 1187.3784,606.2155 Q1188.269,607.028 1189.8628,607.028 Q1190.8003,607.028 1191.4565,606.778 Q1191.8472,606.6217 1192.269,606.1842 Q1192.5347,605.9186 1192.6753,605.8405 Q1192.8315,605.7623 1193.0347,605.7623 Q1193.3628,605.7623 1193.6128,606.028 Q1193.8784,606.278 1193.8784,606.6217 Q1193.8784,606.9655 1193.5347,607.3717 Q1193.0347,607.9498 1192.2378,608.278 Q1191.1597,608.7311 1189.8628,608.7311 Q1188.3472,608.7311 1187.144,608.1061 Q1186.1597,607.6061 1185.4722,606.5436 Q1184.7847,605.4655 1184.7847,604.1842 L1184.7847,603.028 Q1184.7847,601.6998 1185.394,600.5592 Q1186.019,599.403 1187.1128,598.7936 Q1188.2065,598.1686 1189.4409,598.1686 Q1190.1753,598.1686 1190.8159,598.3405 Q1191.4722,598.4967 1192.019,598.8561 Z " fill="#000000"/><text fill="#000000" font-family="sans-serif" font-size="14" lengthAdjust="spacing" textLength="87.1514" x="1209.7534" y="608.778">PlayerMapper</text><line style="stroke:#181818;stroke-width:0.5;" x1="1118.5" x2="1355.6582" y1="618.9811" y2="618.9811"/><line style="stroke:#181818;stroke-width:0.5;" x1="1118.5" x2="1355.6582" y1="626.9811" y2="626.9811"/><ellipse cx="1128.5" cy="641.7916" fill="#A6A6A6" rx="3" ry="3" style="stroke:#545454;stroke-width:1.0;"/><text fill="#000000" font-family="sans-serif" font-size="14" lengthAdjust="spacing" textLength="213.1582" x="1137.5" y="646.0885">toDTO(player: Player): PlayerDTO</text></g><!--class PathMapper--><g id="elem_PathMapper"><rect codeLine="59" fill="#F1F1F1" height="66.6211" id="PathMapper" rx="2.5" ry="2.5" style="stroke:#181818;stroke-width:0.5;" width="376.1572" x="1049" y="910.9811"/><ellipse cx="1194.6943" cy="926.9811" fill="#C2C2C2" rx="11" ry="11" style="stroke:#181818;stroke-width:1.0;"/><path d="M1197.46,922.8561 Q1197.6162,922.6373 1197.8037,922.528 Q1197.9912,922.4186 1198.21,922.4186 Q1198.585,922.4186 1198.8193,922.6842 Q1199.0537,922.9342 1199.0537,923.5436 L1199.0537,924.9967 Q1199.0537,925.6061 1198.8193,925.8717 Q1198.585,926.1373 1198.21,926.1373 Q1197.8662,926.1373 1197.6631,925.9342 Q1197.46,925.7467 1197.3506,925.2311 Q1197.3037,924.8717 1197.1162,924.6842 Q1196.7881,924.3092 1196.1787,924.0905 Q1195.5693,923.8717 1194.9443,923.8717 Q1194.1787,923.8717 1193.5381,924.1998 Q1192.9131,924.528 1192.4131,925.278 Q1191.9287,926.028 1191.9287,927.0592 L1191.9287,928.153 Q1191.9287,929.3873 1192.8193,930.2155 Q1193.71,931.028 1195.3037,931.028 Q1196.2412,931.028 1196.8975,930.778 Q1197.2881,930.6217 1197.71,930.1842 Q1197.9756,929.9186 1198.1162,929.8405 Q1198.2725,929.7623 1198.4756,929.7623 Q1198.8037,929.7623 1199.0537,930.028 Q1199.3193,930.278 1199.3193,930.6217 Q1199.3193,930.9655 1198.9756,931.3717 Q1198.4756,931.9498 1197.6787,932.278 Q1196.6006,932.7311 1195.3037,932.7311 Q1193.7881,932.7311 1192.585,932.1061 Q1191.6006,931.6061 1190.9131,930.5436 Q1190.2256,929.4655 1190.2256,928.1842 L1190.2256,927.028 Q1190.2256,925.6998 1190.835,924.5592 Q1191.46,923.403 1192.5537,922.7936 Q1193.6475,922.1686 1194.8818,922.1686 Q1195.6162,922.1686 1196.2568,922.3405 Q1196.9131,922.4967 1197.46,922.8561 Z " fill="#000000"/><text fill="#000000" font-family="sans-serif" font-size="14" lengthAdjust="spacing" textLength="76.2686" x="1215.1943" y="932.778">PathMapper</text><line style="stroke:#181818;stroke-width:0.5;" x1="1050" x2="1424.1572" y1="942.9811" y2="942.9811"/><line style="stroke:#181818;stroke-width:0.5;" x1="1050" x2="1424.1572" y1="950.9811" y2="950.9811"/><ellipse cx="1060" cy="965.7916" fill="#A6A6A6" rx="3" ry="3" style="stroke:#545454;stroke-width:1.0;"/><text fill="#000000" font-family="sans-serif" font-size="14" lengthAdjust="spacing" textLength="350.1572" x="1069" y="970.0885">toPathCostDTO(path: Path, cost: double): PathCostDTO</text></g><!--class BuildRailwayLineController--><g id="elem_BuildRailwayLineController"><rect codeLine="63" fill="#F1F1F1" height="308.6953" id="BuildRailwayLineController" rx="2.5" ry="2.5" style="stroke:#181818;stroke-width:0.5;" width="645.418" x="264" y="567.9811"/><ellipse cx="498.8076" cy="583.9811" fill="#C2C2C2" rx="11" ry="11" style="stroke:#181818;stroke-width:1.0;"/><path d="M501.5732,579.8561 Q501.7295,579.6373 501.917,579.528 Q502.1045,579.4186 502.3232,579.4186 Q502.6982,579.4186 502.9326,579.6842 Q503.167,579.9342 503.167,580.5436 L503.167,581.9967 Q503.167,582.6061 502.9326,582.8717 Q502.6982,583.1373 502.3232,583.1373 Q501.9795,583.1373 501.7764,582.9342 Q501.5732,582.7467 501.4639,582.2311 Q501.417,581.8717 501.2295,581.6842 Q500.9014,581.3092 500.292,581.0905 Q499.6826,580.8717 499.0576,580.8717 Q498.292,580.8717 497.6514,581.1998 Q497.0264,581.528 496.5264,582.278 Q496.042,583.028 496.042,584.0592 L496.042,585.153 Q496.042,586.3873 496.9326,587.2155 Q497.8232,588.028 499.417,588.028 Q500.3545,588.028 501.0107,587.778 Q501.4014,587.6217 501.8232,587.1842 Q502.0889,586.9186 502.2295,586.8405 Q502.3857,586.7623 502.5889,586.7623 Q502.917,586.7623 503.167,587.028 Q503.4326,587.278 503.4326,587.6217 Q503.4326,587.9655 503.0889,588.3717 Q502.5889,588.9498 501.792,589.278 Q500.7139,589.7311 499.417,589.7311 Q497.9014,589.7311 496.6982,589.1061 Q495.7139,588.6061 495.0264,587.5436 Q494.3389,586.4655 494.3389,585.1842 L494.3389,584.028 Q494.3389,582.6998 494.9482,581.5592 Q495.5732,580.403 496.667,579.7936 Q497.7607,579.1686 498.9951,579.1686 Q499.7295,579.1686 500.3701,579.3405 Q501.0264,579.4967 501.5732,579.8561 Z " fill="#000000"/><text fill="#000000" font-family="sans-serif" font-size="14" lengthAdjust="spacing" textLength="167.3027" x="519.3076" y="589.778">BuildRailwayLineController</text><line style="stroke:#181818;stroke-width:0.5;" x1="265" x2="908.418" y1="599.9811" y2="599.9811"/><rect fill="none" height="6" style="stroke:#595959;stroke-width:1.0;" width="6" x="272" y="611.7916"/><text fill="#000000" font-family="sans-serif" font-size="14" lengthAdjust="spacing" textLength="180.5371" x="284" y="619.0885">gameSession: GameSession</text><rect fill="none" height="6" style="stroke:#595959;stroke-width:1.0;" width="6" x="272" y="630.4127"/><text fill="#000000" font-family="sans-serif" font-size="14" lengthAdjust="spacing" textLength="214.7578" x="284" y="637.7096">gameRepository: GameRepository</text><rect fill="none" height="6" style="stroke:#595959;stroke-width:1.0;" width="6" x="272" y="649.0338"/><text fill="#000000" font-family="sans-serif" font-size="14" lengthAdjust="spacing" textLength="226.4473" x="284" y="656.3307">stationRepository: StationRepository</text><rect fill="none" height="6" style="stroke:#595959;stroke-width:1.0;" width="6" x="272" y="667.6549"/><text fill="#000000" font-family="sans-serif" font-size="14" lengthAdjust="spacing" textLength="236.5576" x="284" y="674.9518">pathFinderService: PathFinderService</text><rect fill="none" height="6" style="stroke:#595959;stroke-width:1.0;" width="6" x="272" y="686.276"/><text fill="#000000" font-family="sans-serif" font-size="14" lengthAdjust="spacing" textLength="246.6611" x="284" y="693.5729">railwayLineService: RailwayLineService</text><rect fill="none" height="6" style="stroke:#595959;stroke-width:1.0;" width="6" x="272" y="704.8971"/><text fill="#000000" font-family="sans-serif" font-size="14" lengthAdjust="spacing" textLength="287.1299" x="284" y="712.194">railwayLineRepository: RailwayLineRepository</text><rect fill="none" height="6" style="stroke:#595959;stroke-width:1.0;" width="6" x="272" y="723.5182"/><text fill="#000000" font-family="sans-serif" font-size="14" lengthAdjust="spacing" textLength="187.5508" x="284" y="730.8151">stationMapper: StationMapper</text><rect fill="none" height="6" style="stroke:#595959;stroke-width:1.0;" width="6" x="272" y="742.1393"/><text fill="#000000" font-family="sans-serif" font-size="14" lengthAdjust="spacing" textLength="180.5303" x="284" y="749.4362">playerMapper: PlayerMapper</text><rect fill="none" height="6" style="stroke:#595959;stroke-width:1.0;" width="6" x="272" y="760.7604"/><text fill="#000000" font-family="sans-serif" font-size="14" lengthAdjust="spacing" textLength="158.7646" x="284" y="768.0573">pathMapper: PathMapper</text><line style="stroke:#181818;stroke-width:0.5;" x1="265" x2="908.418" y1="775.5709" y2="775.5709"/><ellipse cx="275" cy="790.3815" fill="#A6A6A6" rx="3" ry="3" style="stroke:#545454;stroke-width:1.0;"/><text fill="#000000" font-family="sans-serif" font-size="14" lengthAdjust="spacing" textLength="192.165" x="284" y="794.6784">getCurrentPlayer(): PlayerDTO</text><ellipse cx="275" cy="809.0026" fill="#A6A6A6" rx="3" ry="3" style="stroke:#545454;stroke-width:1.0;"/><text fill="#000000" font-family="sans-serif" font-size="14" lengthAdjust="spacing" textLength="255.2402" x="284" y="813.2995">getAvailableStations(): List&lt;StationDTO&gt;</text><ellipse cx="275" cy="827.6237" fill="#A6A6A6" rx="3" ry="3" style="stroke:#545454;stroke-width:1.0;"/><text fill="#000000" font-family="sans-serif" font-size="14" lengthAdjust="spacing" textLength="432.6602" x="284" y="831.9205">getAvailableEndStations(startStationName: String): List&lt;StationDTO&gt;</text><ellipse cx="275" cy="846.2448" fill="#A6A6A6" rx="3" ry="3" style="stroke:#545454;stroke-width:1.0;"/><text fill="#000000" font-family="sans-serif" font-size="14" lengthAdjust="spacing" textLength="619.418" x="284" y="850.5416">calculatePathAndCost(startStationName: String, endStationName: String): Optional&lt;PathCostDTO&gt;</text><ellipse cx="275" cy="864.8659" fill="#A6A6A6" rx="3" ry="3" style="stroke:#545454;stroke-width:1.0;"/><text fill="#000000" font-family="sans-serif" font-size="14" lengthAdjust="spacing" textLength="414.7773" x="284" y="869.1627">buildRailwayLine(request: BuildRailwayLineRequestDTO): boolean</text></g><!--class GameSession--><g id="elem_GameSession"><rect codeLine="80" fill="#F1F1F1" height="66.6211" id="GameSession" rx="2.5" ry="2.5" style="stroke:#181818;stroke-width:0.5;" width="200.3232" x="1137" y="484.9811"/><ellipse cx="1188.9463" cy="500.9811" fill="#C2C2C2" rx="11" ry="11" style="stroke:#181818;stroke-width:1.0;"/><path d="M1191.7119,496.8561 Q1191.8682,496.6373 1192.0557,496.528 Q1192.2432,496.4186 1192.4619,496.4186 Q1192.8369,496.4186 1193.0713,496.6842 Q1193.3057,496.9342 1193.3057,497.5436 L1193.3057,498.9967 Q1193.3057,499.6061 1193.0713,499.8717 Q1192.8369,500.1373 1192.4619,500.1373 Q1192.1182,500.1373 1191.915,499.9342 Q1191.7119,499.7467 1191.6025,499.2311 Q1191.5557,498.8717 1191.3682,498.6842 Q1191.04,498.3092 1190.4307,498.0905 Q1189.8213,497.8717 1189.1963,497.8717 Q1188.4307,497.8717 1187.79,498.1998 Q1187.165,498.528 1186.665,499.278 Q1186.1807,500.028 1186.1807,501.0592 L1186.1807,502.153 Q1186.1807,503.3873 1187.0713,504.2155 Q1187.9619,505.028 1189.5557,505.028 Q1190.4932,505.028 1191.1494,504.778 Q1191.54,504.6217 1191.9619,504.1842 Q1192.2275,503.9186 1192.3682,503.8405 Q1192.5244,503.7623 1192.7275,503.7623 Q1193.0557,503.7623 1193.3057,504.028 Q1193.5713,504.278 1193.5713,504.6217 Q1193.5713,504.9655 1193.2275,505.3717 Q1192.7275,505.9498 1191.9307,506.278 Q1190.8525,506.7311 1189.5557,506.7311 Q1188.04,506.7311 1186.8369,506.1061 Q1185.8525,505.6061 1185.165,504.5436 Q1184.4775,503.4655 1184.4775,502.1842 L1184.4775,501.028 Q1184.4775,499.6998 1185.0869,498.5592 Q1185.7119,497.403 1186.8057,496.7936 Q1187.8994,496.1686 1189.1338,496.1686 Q1189.8682,496.1686 1190.5088,496.3405 Q1191.165,496.4967 1191.7119,496.8561 Z " fill="#000000"/><text fill="#000000" font-family="sans-serif" font-size="14" lengthAdjust="spacing" textLength="87.9307" x="1209.4463" y="506.778">GameSession</text><line style="stroke:#181818;stroke-width:0.5;" x1="1138" x2="1336.3232" y1="516.9811" y2="516.9811"/><line style="stroke:#181818;stroke-width:0.5;" x1="1138" x2="1336.3232" y1="524.9811" y2="524.9811"/><ellipse cx="1148" cy="539.7916" fill="#A6A6A6" rx="3" ry="3" style="stroke:#545454;stroke-width:1.0;"/><text fill="#000000" font-family="sans-serif" font-size="14" lengthAdjust="spacing" textLength="174.3232" x="1157" y="544.0885">getLoggedInPlayer(): Player</text></g><!--class Player--><g id="elem_Player"><rect codeLine="84" fill="#F1F1F1" height="178.3477" id="Player" rx="2.5" ry="2.5" style="stroke:#181818;stroke-width:0.5;" width="636.1279" x="1597" y="435.4811"/><ellipse cx="1890.9727" cy="451.4811" fill="#C2C2C2" rx="11" ry="11" style="stroke:#181818;stroke-width:1.0;"/><path d="M1893.7383,447.3561 Q1893.8945,447.1373 1894.082,447.028 Q1894.2695,446.9186 1894.4883,446.9186 Q1894.8633,446.9186 1895.0977,447.1842 Q1895.332,447.4342 1895.332,448.0436 L1895.332,449.4967 Q1895.332,450.1061 1895.0977,450.3717 Q1894.8633,450.6373 1894.4883,450.6373 Q1894.1445,450.6373 1893.9414,450.4342 Q1893.7383,450.2467 1893.6289,449.7311 Q1893.582,449.3717 1893.3945,449.1842 Q1893.0664,448.8092 1892.457,448.5905 Q1891.8477,448.3717 1891.2227,448.3717 Q1890.457,448.3717 1889.8164,448.6998 Q1889.1914,449.028 1888.6914,449.778 Q1888.207,450.528 1888.207,451.5592 L1888.207,452.653 Q1888.207,453.8873 1889.0977,454.7155 Q1889.9883,455.528 1891.582,455.528 Q1892.5195,455.528 1893.1758,455.278 Q1893.5664,455.1217 1893.9883,454.6842 Q1894.2539,454.4186 1894.3945,454.3405 Q1894.5508,454.2623 1894.7539,454.2623 Q1895.082,454.2623 1895.332,454.528 Q1895.5977,454.778 1895.5977,455.1217 Q1895.5977,455.4655 1895.2539,455.8717 Q1894.7539,456.4498 1893.957,456.778 Q1892.8789,457.2311 1891.582,457.2311 Q1890.0664,457.2311 1888.8633,456.6061 Q1887.8789,456.1061 1887.1914,455.0436 Q1886.5039,453.9655 1886.5039,452.6842 L1886.5039,451.528 Q1886.5039,450.1998 1887.1133,449.0592 Q1887.7383,447.903 1888.832,447.2936 Q1889.9258,446.6686 1891.1602,446.6686 Q1891.8945,446.6686 1892.5352,446.8405 Q1893.1914,446.9967 1893.7383,447.3561 Z " fill="#000000"/><text fill="#000000" font-family="sans-serif" font-size="14" lengthAdjust="spacing" textLength="39.6826" x="1911.4727" y="457.278">Player</text><line style="stroke:#181818;stroke-width:0.5;" x1="1598" x2="2232.1279" y1="467.4811" y2="467.4811"/><rect fill="none" height="6" style="stroke:#595959;stroke-width:1.0;" width="6" x="1605" y="479.2916"/><text fill="#000000" font-family="sans-serif" font-size="14" lengthAdjust="spacing" textLength="79.3721" x="1617" y="486.5885">name: String</text><rect fill="none" height="6" style="stroke:#595959;stroke-width:1.0;" width="6" x="1605" y="497.9127"/><text fill="#000000" font-family="sans-serif" font-size="14" lengthAdjust="spacing" textLength="84.0684" x="1617" y="505.2096">funds: double</text><rect fill="none" height="6" style="stroke:#595959;stroke-width:1.0;" width="6" x="1605" y="516.5338"/><text fill="#000000" font-family="sans-serif" font-size="14" lengthAdjust="spacing" textLength="198.4336" x="1617" y="523.8307">railwayLines: List&lt;RailwayLine&gt;</text><rect fill="none" height="6" style="stroke:#595959;stroke-width:1.0;" width="6" x="1605" y="535.1549"/><text fill="#000000" font-family="sans-serif" font-size="14" lengthAdjust="spacing" textLength="137.751" x="1617" y="542.4518">stations: List&lt;Station&gt;</text><line style="stroke:#181818;stroke-width:0.5;" x1="1598" x2="2232.1279" y1="549.9655" y2="549.9655"/><ellipse cx="1608" cy="564.776" fill="#A6A6A6" rx="3" ry="3" style="stroke:#545454;stroke-width:1.0;"/><text fill="#000000" font-family="sans-serif" font-size="14" lengthAdjust="spacing" textLength="261.4951" x="1617" y="569.0729">hasSufficientFunds(cost: double): boolean</text><ellipse cx="1608" cy="583.3971" fill="#A6A6A6" rx="3" ry="3" style="stroke:#545454;stroke-width:1.0;"/><text fill="#000000" font-family="sans-serif" font-size="14" lengthAdjust="spacing" textLength="610.1279" x="1617" y="587.694">createRailwayLine(startStation: Station, endStation: Station, path: Path, cost: double): RailwayLine</text><ellipse cx="1608" cy="602.0182" fill="#A6A6A6" rx="3" ry="3" style="stroke:#545454;stroke-width:1.0;"/><text fill="#000000" font-family="sans-serif" font-size="14" lengthAdjust="spacing" textLength="199.2266" x="1617" y="606.3151">deductFunds(cost: double): void</text></g><!--class GameRepository--><g id="elem_GameRepository"><rect codeLine="94" fill="#F1F1F1" height="66.6211" id="GameRepository" rx="2.5" ry="2.5" style="stroke:#181818;stroke-width:0.5;" width="283.5713" x="1095" y="239.9811"/><ellipse cx="1180.0151" cy="255.9811" fill="#C2C2C2" rx="11" ry="11" style="stroke:#181818;stroke-width:1.0;"/><path d="M1182.7808,251.8561 Q1182.937,251.6373 1183.1245,251.528 Q1183.312,251.4186 1183.5308,251.4186 Q1183.9058,251.4186 1184.1401,251.6842 Q1184.3745,251.9342 1184.3745,252.5436 L1184.3745,253.9967 Q1184.3745,254.6061 1184.1401,254.8717 Q1183.9058,255.1373 1183.5308,255.1373 Q1183.187,255.1373 1182.9839,254.9342 Q1182.7808,254.7467 1182.6714,254.2311 Q1182.6245,253.8717 1182.437,253.6842 Q1182.1089,253.3092 1181.4995,253.0905 Q1180.8901,252.8717 1180.2651,252.8717 Q1179.4995,252.8717 1178.8589,253.1998 Q1178.2339,253.528 1177.7339,254.278 Q1177.2495,255.028 1177.2495,256.0592 L1177.2495,257.153 Q1177.2495,258.3873 1178.1401,259.2155 Q1179.0308,260.028 1180.6245,260.028 Q1181.562,260.028 1182.2183,259.778 Q1182.6089,259.6217 1183.0308,259.1842 Q1183.2964,258.9186 1183.437,258.8405 Q1183.5933,258.7623 1183.7964,258.7623 Q1184.1245,258.7623 1184.3745,259.028 Q1184.6401,259.278 1184.6401,259.6217 Q1184.6401,259.9655 1184.2964,260.3717 Q1183.7964,260.9498 1182.9995,261.278 Q1181.9214,261.7311 1180.6245,261.7311 Q1179.1089,261.7311 1177.9058,261.1061 Q1176.9214,260.6061 1176.2339,259.5436 Q1175.5464,258.4655 1175.5464,257.1842 L1175.5464,256.028 Q1175.5464,254.6998 1176.1558,253.5592 Q1176.7808,252.403 1177.8745,251.7936 Q1178.9683,251.1686 1180.2026,251.1686 Q1180.937,251.1686 1181.5776,251.3405 Q1182.2339,251.4967 1182.7808,251.8561 Z " fill="#000000"/><text fill="#000000" font-family="sans-serif" font-size="14" lengthAdjust="spacing" textLength="105.041" x="1200.5151" y="261.778">GameRepository</text><line style="stroke:#181818;stroke-width:0.5;" x1="1096" x2="1377.5713" y1="271.9811" y2="271.9811"/><line style="stroke:#181818;stroke-width:0.5;" x1="1096" x2="1377.5713" y1="279.9811" y2="279.9811"/><ellipse cx="1106" cy="294.7916" fill="#A6A6A6" rx="3" ry="3" style="stroke:#545454;stroke-width:1.0;"/><text fill="#000000" font-family="sans-serif" font-size="14" lengthAdjust="spacing" textLength="257.5713" x="1115" y="299.0885">getStationRepository(): StationRepository</text></g><!--class StationRepository--><g id="elem_StationRepository"><rect codeLine="98" fill="#F1F1F1" height="103.8633" id="StationRepository" rx="2.5" ry="2.5" style="stroke:#181818;stroke-width:0.5;" width="394.8809" x="1717.5" y="292.4811"/><ellipse cx="1855.439" cy="308.4811" fill="#C2C2C2" rx="11" ry="11" style="stroke:#181818;stroke-width:1.0;"/><path d="M1858.2046,304.3561 Q1858.3608,304.1373 1858.5483,304.028 Q1858.7358,303.9186 1858.9546,303.9186 Q1859.3296,303.9186 1859.564,304.1842 Q1859.7983,304.4342 1859.7983,305.0436 L1859.7983,306.4967 Q1859.7983,307.1061 1859.564,307.3717 Q1859.3296,307.6373 1858.9546,307.6373 Q1858.6108,307.6373 1858.4077,307.4342 Q1858.2046,307.2467 1858.0952,306.7311 Q1858.0483,306.3717 1857.8608,306.1842 Q1857.5327,305.8092 1856.9233,305.5905 Q1856.314,305.3717 1855.689,305.3717 Q1854.9233,305.3717 1854.2827,305.6998 Q1853.6577,306.028 1853.1577,306.778 Q1852.6733,307.528 1852.6733,308.5592 L1852.6733,309.653 Q1852.6733,310.8873 1853.564,311.7155 Q1854.4546,312.528 1856.0483,312.528 Q1856.9858,312.528 1857.6421,312.278 Q1858.0327,312.1217 1858.4546,311.6842 Q1858.7202,311.4186 1858.8608,311.3405 Q1859.0171,311.2623 1859.2202,311.2623 Q1859.5483,311.2623 1859.7983,311.528 Q1860.064,311.778 1860.064,312.1217 Q1860.064,312.4655 1859.7202,312.8717 Q1859.2202,313.4498 1858.4233,313.778 Q1857.3452,314.2311 1856.0483,314.2311 Q1854.5327,314.2311 1853.3296,313.6061 Q1852.3452,313.1061 1851.6577,312.0436 Q1850.9702,310.9655 1850.9702,309.6842 L1850.9702,308.528 Q1850.9702,307.1998 1851.5796,306.0592 Q1852.2046,304.903 1853.2983,304.2936 Q1854.3921,303.6686 1855.6265,303.6686 Q1856.3608,303.6686 1857.0015,303.8405 Q1857.6577,303.9967 1858.2046,304.3561 Z " fill="#000000"/><text fill="#000000" font-family="sans-serif" font-size="14" lengthAdjust="spacing" textLength="110.5029" x="1875.939" y="314.278">StationRepository</text><line style="stroke:#181818;stroke-width:0.5;" x1="1718.5" x2="2111.3809" y1="324.4811" y2="324.4811"/><line style="stroke:#181818;stroke-width:0.5;" x1="1718.5" x2="2111.3809" y1="332.4811" y2="332.4811"/><ellipse cx="1728.5" cy="347.2916" fill="#A6A6A6" rx="3" ry="3" style="stroke:#545454;stroke-width:1.0;"/><text fill="#000000" font-family="sans-serif" font-size="14" lengthAdjust="spacing" textLength="184.4336" x="1737.5" y="351.5885">getAllStations(): List&lt;Station&gt;</text><ellipse cx="1728.5" cy="365.9127" fill="#A6A6A6" rx="3" ry="3" style="stroke:#545454;stroke-width:1.0;"/><text fill="#000000" font-family="sans-serif" font-size="14" lengthAdjust="spacing" textLength="368.8809" x="1737.5" y="370.2096">getPossibleEndStations(startStation: Station): List&lt;Station&gt;</text><ellipse cx="1728.5" cy="384.5338" fill="#A6A6A6" rx="3" ry="3" style="stroke:#545454;stroke-width:1.0;"/><text fill="#000000" font-family="sans-serif" font-size="14" lengthAdjust="spacing" textLength="325.2881" x="1737.5" y="388.8307">getStationByName(name: String): Optional&lt;Station&gt;</text></g><!--class Station--><g id="elem_Station"><rect codeLine="104" fill="#F1F1F1" height="122.4844" id="Station" rx="2.5" ry="2.5" style="stroke:#181818;stroke-width:0.5;" width="206.5371" x="2665" y="647.4811"/><ellipse cx="2742.2256" cy="663.4811" fill="#C2C2C2" rx="11" ry="11" style="stroke:#181818;stroke-width:1.0;"/><path d="M2744.9912,659.3561 Q2745.1475,659.1373 2745.335,659.028 Q2745.5225,658.9186 2745.7412,658.9186 Q2746.1162,658.9186 2746.3506,659.1842 Q2746.585,659.4342 2746.585,660.0436 L2746.585,661.4967 Q2746.585,662.1061 2746.3506,662.3717 Q2746.1162,662.6373 2745.7412,662.6373 Q2745.3975,662.6373 2745.1943,662.4342 Q2744.9912,662.2467 2744.8818,661.7311 Q2744.835,661.3717 2744.6475,661.1842 Q2744.3193,660.8092 2743.71,660.5905 Q2743.1006,660.3717 2742.4756,660.3717 Q2741.71,660.3717 2741.0693,660.6998 Q2740.4443,661.028 2739.9443,661.778 Q2739.46,662.528 2739.46,663.5592 L2739.46,664.653 Q2739.46,665.8873 2740.3506,666.7155 Q2741.2412,667.528 2742.835,667.528 Q2743.7725,667.528 2744.4287,667.278 Q2744.8193,667.1217 2745.2412,666.6842 Q2745.5068,666.4186 2745.6475,666.3405 Q2745.8037,666.2623 2746.0068,666.2623 Q2746.335,666.2623 2746.585,666.528 Q2746.8506,666.778 2746.8506,667.1217 Q2746.8506,667.4655 2746.5068,667.8717 Q2746.0068,668.4498 2745.21,668.778 Q2744.1318,669.2311 2742.835,669.2311 Q2741.3193,669.2311 2740.1162,668.6061 Q2739.1318,668.1061 2738.4443,667.0436 Q2737.7568,665.9655 2737.7568,664.6842 L2737.7568,663.528 Q2737.7568,662.1998 2738.3662,661.0592 Q2738.9912,659.903 2740.085,659.2936 Q2741.1787,658.6686 2742.4131,658.6686 Q2743.1475,658.6686 2743.7881,658.8405 Q2744.4443,658.9967 2744.9912,659.3561 Z " fill="#000000"/><text fill="#000000" font-family="sans-serif" font-size="14" lengthAdjust="spacing" textLength="43.5859" x="2762.7256" y="669.278">Station</text><line style="stroke:#181818;stroke-width:0.5;" x1="2666" x2="2870.5371" y1="679.4811" y2="679.4811"/><rect fill="none" height="6" style="stroke:#595959;stroke-width:1.0;" width="6" x="2673" y="691.2916"/><text fill="#000000" font-family="sans-serif" font-size="14" lengthAdjust="spacing" textLength="79.3721" x="2685" y="698.5885">name: String</text><rect fill="none" height="6" style="stroke:#595959;stroke-width:1.0;" width="6" x="2673" y="709.9127"/><text fill="#000000" font-family="sans-serif" font-size="14" lengthAdjust="spacing" textLength="96.4961" x="2685" y="717.2096">location: Object</text><rect fill="none" height="6" style="stroke:#595959;stroke-width:1.0;" width="6" x="2673" y="728.5338"/><text fill="#000000" font-family="sans-serif" font-size="14" lengthAdjust="spacing" textLength="150.9854" x="2685" y="735.8307">storageCapacity: double</text><rect fill="none" height="6" style="stroke:#595959;stroke-width:1.0;" width="6" x="2673" y="747.1549"/><text fill="#000000" font-family="sans-serif" font-size="14" lengthAdjust="spacing" textLength="180.5371" x="2685" y="754.4518">currentCargoes: List&lt;Cargo&gt;</text><line style="stroke:#181818;stroke-width:0.5;" x1="2666" x2="2870.5371" y1="761.9655" y2="761.9655"/></g><!--class PathFinderService--><g id="elem_PathFinderService"><rect codeLine="111" fill="#F1F1F1" height="66.6211" id="PathFinderService" rx="2.5" ry="2.5" style="stroke:#181818;stroke-width:0.5;" width="440.0391" x="1017" y="688.9811"/><ellipse cx="1175.187" cy="704.9811" fill="#C2C2C2" rx="11" ry="11" style="stroke:#181818;stroke-width:1.0;"/><path d="M1177.9526,700.8561 Q1178.1089,700.6373 1178.2964,700.528 Q1178.4839,700.4186 1178.7026,700.4186 Q1179.0776,700.4186 1179.312,700.6842 Q1179.5464,700.9342 1179.5464,701.5436 L1179.5464,702.9967 Q1179.5464,703.6061 1179.312,703.8717 Q1179.0776,704.1373 1178.7026,704.1373 Q1178.3589,704.1373 1178.1558,703.9342 Q1177.9526,703.7467 1177.8433,703.2311 Q1177.7964,702.8717 1177.6089,702.6842 Q1177.2808,702.3092 1176.6714,702.0905 Q1176.062,701.8717 1175.437,701.8717 Q1174.6714,701.8717 1174.0308,702.1998 Q1173.4058,702.528 1172.9058,703.278 Q1172.4214,704.028 1172.4214,705.0592 L1172.4214,706.153 Q1172.4214,707.3873 1173.312,708.2155 Q1174.2026,709.028 1175.7964,709.028 Q1176.7339,709.028 1177.3901,708.778 Q1177.7808,708.6217 1178.2026,708.1842 Q1178.4683,707.9186 1178.6089,707.8405 Q1178.7651,707.7623 1178.9683,707.7623 Q1179.2964,707.7623 1179.5464,708.028 Q1179.812,708.278 1179.812,708.6217 Q1179.812,708.9655 1179.4683,709.3717 Q1178.9683,709.9498 1178.1714,710.278 Q1177.0933,710.7311 1175.7964,710.7311 Q1174.2808,710.7311 1173.0776,710.1061 Q1172.0933,709.6061 1171.4058,708.5436 Q1170.7183,707.4655 1170.7183,706.1842 L1170.7183,705.028 Q1170.7183,703.6998 1171.3276,702.5592 Q1171.9526,701.403 1173.0464,700.7936 Q1174.1401,700.1686 1175.3745,700.1686 Q1176.1089,700.1686 1176.7495,700.3405 Q1177.4058,700.4967 1177.9526,700.8561 Z " fill="#000000"/><text fill="#000000" font-family="sans-serif" font-size="14" lengthAdjust="spacing" textLength="115.165" x="1195.687" y="710.778">PathFinderService</text><line style="stroke:#181818;stroke-width:0.5;" x1="1018" x2="1456.0391" y1="720.9811" y2="720.9811"/><line style="stroke:#181818;stroke-width:0.5;" x1="1018" x2="1456.0391" y1="728.9811" y2="728.9811"/><ellipse cx="1028" cy="743.7916" fill="#A6A6A6" rx="3" ry="3" style="stroke:#545454;stroke-width:1.0;"/><text fill="#000000" font-family="sans-serif" font-size="14" lengthAdjust="spacing" textLength="414.0391" x="1037" y="748.0885">findPath(startStation: Station, endStation: Station): Optional&lt;Path&gt;</text></g><!--class Path--><g id="elem_Path"><rect codeLine="115" fill="#F1F1F1" height="85.2422" id="Path" rx="2.5" ry="2.5" style="stroke:#181818;stroke-width:0.5;" width="149.7373" x="2693.5" y="889.9811"/><ellipse cx="2749.7188" cy="905.9811" fill="#C2C2C2" rx="11" ry="11" style="stroke:#181818;stroke-width:1.0;"/><path d="M2752.4844,901.8561 Q2752.6406,901.6373 2752.8281,901.528 Q2753.0156,901.4186 2753.2344,901.4186 Q2753.6094,901.4186 2753.8438,901.6842 Q2754.0781,901.9342 2754.0781,902.5436 L2754.0781,903.9967 Q2754.0781,904.6061 2753.8438,904.8717 Q2753.6094,905.1373 2753.2344,905.1373 Q2752.8906,905.1373 2752.6875,904.9342 Q2752.4844,904.7467 2752.375,904.2311 Q2752.3281,903.8717 2752.1406,903.6842 Q2751.8125,903.3092 2751.2031,903.0905 Q2750.5938,902.8717 2749.9688,902.8717 Q2749.2031,902.8717 2748.5625,903.1998 Q2747.9375,903.528 2747.4375,904.278 Q2746.9531,905.028 2746.9531,906.0592 L2746.9531,907.153 Q2746.9531,908.3873 2747.8438,909.2155 Q2748.7344,910.028 2750.3281,910.028 Q2751.2656,910.028 2751.9219,909.778 Q2752.3125,909.6217 2752.7344,909.1842 Q2753,908.9186 2753.1406,908.8405 Q2753.2969,908.7623 2753.5,908.7623 Q2753.8281,908.7623 2754.0781,909.028 Q2754.3438,909.278 2754.3438,909.6217 Q2754.3438,909.9655 2754,910.3717 Q2753.5,910.9498 2752.7031,911.278 Q2751.625,911.7311 2750.3281,911.7311 Q2748.8125,911.7311 2747.6094,911.1061 Q2746.625,910.6061 2745.9375,909.5436 Q2745.25,908.4655 2745.25,907.1842 L2745.25,906.028 Q2745.25,904.6998 2745.8594,903.5592 Q2746.4844,902.403 2747.5781,901.7936 Q2748.6719,901.1686 2749.9063,901.1686 Q2750.6406,901.1686 2751.2813,901.3405 Q2751.9375,901.4967 2752.4844,901.8561 Z " fill="#000000"/><text fill="#000000" font-family="sans-serif" font-size="14" lengthAdjust="spacing" textLength="28.7998" x="2770.2188" y="911.778">Path</text><line style="stroke:#181818;stroke-width:0.5;" x1="2694.5" x2="2842.2373" y1="921.9811" y2="921.9811"/><rect fill="none" height="6" style="stroke:#595959;stroke-width:1.0;" width="6" x="2701.5" y="933.7916"/><text fill="#000000" font-family="sans-serif" font-size="14" lengthAdjust="spacing" textLength="123.7373" x="2713.5" y="941.0885">points: List&lt;Object&gt;</text><rect fill="none" height="6" style="stroke:#595959;stroke-width:1.0;" width="6" x="2701.5" y="952.4127"/><text fill="#000000" font-family="sans-serif" font-size="14" lengthAdjust="spacing" textLength="87.9648" x="2713.5" y="959.7096">length: double</text><line style="stroke:#181818;stroke-width:0.5;" x1="2694.5" x2="2842.2373" y1="967.2233" y2="967.2233"/></g><!--class RailwayLineService--><g id="elem_RailwayLineService"><rect codeLine="120" fill="#F1F1F1" height="85.2422" id="RailwayLineService" rx="2.5" ry="2.5" style="stroke:#181818;stroke-width:0.5;" width="369.9639" x="1052" y="1012.9811"/><ellipse cx="1171.6494" cy="1028.9811" fill="#C2C2C2" rx="11" ry="11" style="stroke:#181818;stroke-width:1.0;"/><path d="M1174.415,1024.8561 Q1174.5713,1024.6373 1174.7588,1024.528 Q1174.9463,1024.4186 1175.165,1024.4186 Q1175.54,1024.4186 1175.7744,1024.6842 Q1176.0088,1024.9342 1176.0088,1025.5436 L1176.0088,1026.9967 Q1176.0088,1027.6061 1175.7744,1027.8717 Q1175.54,1028.1373 1175.165,1028.1373 Q1174.8213,1028.1373 1174.6182,1027.9342 Q1174.415,1027.7467 1174.3057,1027.2311 Q1174.2588,1026.8717 1174.0713,1026.6842 Q1173.7432,1026.3092 1173.1338,1026.0905 Q1172.5244,1025.8717 1171.8994,1025.8717 Q1171.1338,1025.8717 1170.4932,1026.1998 Q1169.8682,1026.528 1169.3682,1027.278 Q1168.8838,1028.028 1168.8838,1029.0592 L1168.8838,1030.153 Q1168.8838,1031.3873 1169.7744,1032.2155 Q1170.665,1033.028 1172.2588,1033.028 Q1173.1963,1033.028 1173.8525,1032.778 Q1174.2432,1032.6217 1174.665,1032.1842 Q1174.9307,1031.9186 1175.0713,1031.8405 Q1175.2275,1031.7623 1175.4307,1031.7623 Q1175.7588,1031.7623 1176.0088,1032.028 Q1176.2744,1032.278 1176.2744,1032.6217 Q1176.2744,1032.9655 1175.9307,1033.3717 Q1175.4307,1033.9498 1174.6338,1034.278 Q1173.5557,1034.7311 1172.2588,1034.7311 Q1170.7432,1034.7311 1169.54,1034.1061 Q1168.5557,1033.6061 1167.8682,1032.5436 Q1167.1807,1031.4655 1167.1807,1030.1842 L1167.1807,1029.028 Q1167.1807,1027.6998 1167.79,1026.5592 Q1168.415,1025.403 1169.5088,1024.7936 Q1170.6025,1024.1686 1171.8369,1024.1686 Q1172.5713,1024.1686 1173.2119,1024.3405 Q1173.8682,1024.4967 1174.415,1024.8561 Z " fill="#000000"/><text fill="#000000" font-family="sans-serif" font-size="14" lengthAdjust="spacing" textLength="122.165" x="1192.1494" y="1034.778">RailwayLineService</text><line style="stroke:#181818;stroke-width:0.5;" x1="1053" x2="1420.9639" y1="1044.9811" y2="1044.9811"/><line style="stroke:#181818;stroke-width:0.5;" x1="1053" x2="1420.9639" y1="1052.9811" y2="1052.9811"/><ellipse cx="1063" cy="1067.7916" fill="#A6A6A6" rx="3" ry="3" style="stroke:#545454;stroke-width:1.0;"/><text fill="#000000" font-family="sans-serif" font-size="14" lengthAdjust="spacing" textLength="285.6055" x="1072" y="1072.0885">calculateConstructionCost(path: Path): double</text><ellipse cx="1063" cy="1086.4127" fill="#A6A6A6" rx="3" ry="3" style="stroke:#545454;stroke-width:1.0;"/><text fill="#000000" font-family="sans-serif" font-size="14" lengthAdjust="spacing" textLength="343.9639" x="1072" y="1090.7096">validateRailwayLine(railwayLine: RailwayLine): boolean</text></g><!--class RailwayLine--><g id="elem_RailwayLine"><rect codeLine="125" fill="#F1F1F1" height="141.1055" id="RailwayLine" rx="2.5" ry="2.5" style="stroke:#181818;stroke-width:0.5;" width="170.7578" x="2373" y="604.9811"/><ellipse cx="2416.4739" cy="620.9811" fill="#C2C2C2" rx="11" ry="11" style="stroke:#181818;stroke-width:1.0;"/><path d="M2419.2396,616.8561 Q2419.3958,616.6373 2419.5833,616.528 Q2419.7708,616.4186 2419.9896,616.4186 Q2420.3646,616.4186 2420.5989,616.6842 Q2420.8333,616.9342 2420.8333,617.5436 L2420.8333,618.9967 Q2420.8333,619.6061 2420.5989,619.8717 Q2420.3646,620.1373 2419.9896,620.1373 Q2419.6458,620.1373 2419.4427,619.9342 Q2419.2396,619.7467 2419.1302,619.2311 Q2419.0833,618.8717 2418.8958,618.6842 Q2418.5677,618.3092 2417.9583,618.0905 Q2417.3489,617.8717 2416.7239,617.8717 Q2415.9583,617.8717 2415.3177,618.1998 Q2414.6927,618.528 2414.1927,619.278 Q2413.7083,620.028 2413.7083,621.0592 L2413.7083,622.153 Q2413.7083,623.3873 2414.5989,624.2155 Q2415.4896,625.028 2417.0833,625.028 Q2418.0208,625.028 2418.6771,624.778 Q2419.0677,624.6217 2419.4896,624.1842 Q2419.7552,623.9186 2419.8958,623.8405 Q2420.0521,623.7623 2420.2552,623.7623 Q2420.5833,623.7623 2420.8333,624.028 Q2421.0989,624.278 2421.0989,624.6217 Q2421.0989,624.9655 2420.7552,625.3717 Q2420.2552,625.9498 2419.4583,626.278 Q2418.3802,626.7311 2417.0833,626.7311 Q2415.5677,626.7311 2414.3646,626.1061 Q2413.3802,625.6061 2412.6927,624.5436 Q2412.0052,623.4655 2412.0052,622.1842 L2412.0052,621.028 Q2412.0052,619.6998 2412.6146,618.5592 Q2413.2396,617.403 2414.3333,616.7936 Q2415.4271,616.1686 2416.6614,616.1686 Q2417.3958,616.1686 2418.0364,616.3405 Q2418.6927,616.4967 2419.2396,616.8561 Z " fill="#000000"/><text fill="#000000" font-family="sans-serif" font-size="14" lengthAdjust="spacing" textLength="75.4824" x="2436.8015" y="626.778">RailwayLine</text><line style="stroke:#181818;stroke-width:0.5;" x1="2374" x2="2542.7578" y1="636.9811" y2="636.9811"/><rect fill="none" height="6" style="stroke:#595959;stroke-width:1.0;" width="6" x="2381" y="648.7916"/><text fill="#000000" font-family="sans-serif" font-size="14" lengthAdjust="spacing" textLength="122.1787" x="2393" y="656.0885">startStation: Station</text><rect fill="none" height="6" style="stroke:#595959;stroke-width:1.0;" width="6" x="2381" y="667.4127"/><text fill="#000000" font-family="sans-serif" font-size="14" lengthAdjust="spacing" textLength="118.3096" x="2393" y="674.7096">endStation: Station</text><rect fill="none" height="6" style="stroke:#595959;stroke-width:1.0;" width="6" x="2381" y="686.0338"/><text fill="#000000" font-family="sans-serif" font-size="14" lengthAdjust="spacing" textLength="63.8271" x="2393" y="693.3307">path: Path</text><rect fill="none" height="6" style="stroke:#595959;stroke-width:1.0;" width="6" x="2381" y="704.6549"/><text fill="#000000" font-family="sans-serif" font-size="14" lengthAdjust="spacing" textLength="75.4961" x="2393" y="711.9518">cost: double</text><line style="stroke:#181818;stroke-width:0.5;" x1="2374" x2="2542.7578" y1="719.4655" y2="719.4655"/><ellipse cx="2384" cy="734.276" fill="#A6A6A6" rx="3" ry="3" style="stroke:#545454;stroke-width:1.0;"/><text fill="#000000" font-family="sans-serif" font-size="14" lengthAdjust="spacing" textLength="144.7578" x="2393" y="738.5729">validateData(): boolean</text></g><!--class RailwayLineRepository--><g id="elem_RailwayLineRepository"><rect codeLine="133" fill="#F1F1F1" height="103.8633" id="RailwayLineRepository" rx="2.5" ry="2.5" style="stroke:#181818;stroke-width:0.5;" width="400.2813" x="1037" y="1133.4811"/><ellipse cx="1161.6909" cy="1149.4811" fill="#C2C2C2" rx="11" ry="11" style="stroke:#181818;stroke-width:1.0;"/><path d="M1164.4565,1145.3561 Q1164.6128,1145.1373 1164.8003,1145.028 Q1164.9878,1144.9186 1165.2065,1144.9186 Q1165.5815,1144.9186 1165.8159,1145.1842 Q1166.0503,1145.4342 1166.0503,1146.0436 L1166.0503,1147.4967 Q1166.0503,1148.1061 1165.8159,1148.3717 Q1165.5815,1148.6373 1165.2065,1148.6373 Q1164.8628,1148.6373 1164.6597,1148.4342 Q1164.4565,1148.2467 1164.3472,1147.7311 Q1164.3003,1147.3717 1164.1128,1147.1842 Q1163.7847,1146.8092 1163.1753,1146.5905 Q1162.5659,1146.3717 1161.9409,1146.3717 Q1161.1753,1146.3717 1160.5347,1146.6998 Q1159.9097,1147.028 1159.4097,1147.778 Q1158.9253,1148.528 1158.9253,1149.5592 L1158.9253,1150.653 Q1158.9253,1151.8873 1159.8159,1152.7155 Q1160.7065,1153.528 1162.3003,1153.528 Q1163.2378,1153.528 1163.894,1153.278 Q1164.2847,1153.1217 1164.7065,1152.6842 Q1164.9722,1152.4186 1165.1128,1152.3405 Q1165.269,1152.2623 1165.4722,1152.2623 Q1165.8003,1152.2623 1166.0503,1152.528 Q1166.3159,1152.778 1166.3159,1153.1217 Q1166.3159,1153.4655 1165.9722,1153.8717 Q1165.4722,1154.4498 1164.6753,1154.778 Q1163.5972,1155.2311 1162.3003,1155.2311 Q1160.7847,1155.2311 1159.5815,1154.6061 Q1158.5972,1154.1061 1157.9097,1153.0436 Q1157.2222,1151.9655 1157.2222,1150.6842 L1157.2222,1149.528 Q1157.2222,1148.1998 1157.8315,1147.0592 Q1158.4565,1145.903 1159.5503,1145.2936 Q1160.644,1144.6686 1161.8784,1144.6686 Q1162.6128,1144.6686 1163.2534,1144.8405 Q1163.9097,1144.9967 1164.4565,1145.3561 Z " fill="#000000"/><text fill="#000000" font-family="sans-serif" font-size="14" lengthAdjust="spacing" textLength="142.3994" x="1182.1909" y="1155.278">RailwayLineRepository</text><line style="stroke:#181818;stroke-width:0.5;" x1="1038" x2="1436.2813" y1="1165.4811" y2="1165.4811"/><line style="stroke:#181818;stroke-width:0.5;" x1="1038" x2="1436.2813" y1="1173.4811" y2="1173.4811"/><ellipse cx="1048" cy="1188.2916" fill="#A6A6A6" rx="3" ry="3" style="stroke:#545454;stroke-width:1.0;"/><text fill="#000000" font-family="sans-serif" font-size="14" lengthAdjust="spacing" textLength="301.1367" x="1057" y="1192.5885">saveRailwayLine(railwayLine: RailwayLine): void</text><ellipse cx="1048" cy="1206.9127" fill="#A6A6A6" rx="3" ry="3" style="stroke:#545454;stroke-width:1.0;"/><text fill="#000000" font-family="sans-serif" font-size="14" lengthAdjust="spacing" textLength="374.2813" x="1057" y="1211.2096">getRailwayLinesByPlayer(player: Player): List&lt;RailwayLine&gt;</text><ellipse cx="1048" cy="1225.5338" fill="#A6A6A6" rx="3" ry="3" style="stroke:#545454;stroke-width:1.0;"/><text fill="#000000" font-family="sans-serif" font-size="14" lengthAdjust="spacing" textLength="339.2881" x="1057" y="1229.8307">getRailwayLineById(id: String): Optional&lt;RailwayLine&gt;</text></g><!--link BuildRailwayLineUI to BuildRailwayLineController--><g id="link_BuildRailwayLineUI_BuildRailwayLineController"><path codeLine="140" d="M160.05,722.4811 C189.57,722.4811 219.57,722.4811 258,722.4811 " fill="none" id="BuildRailwayLineUI-to-BuildRailwayLineController" style="stroke:#181818;stroke-width:1.0;"/><polygon fill="#181818" points="264,722.4811,255,718.4811,259,722.4811,255,726.4811,264,722.4811" style="stroke:#181818;stroke-width:1.0;"/></g><!--link BuildRailwayLineUI to StationDTO--><g id="link_BuildRailwayLineUI_StationDTO"><path codeLine="141" d="M134.25,698.4511 C143.23,693.1211 152.21,687.0711 160,680.4811 C216.5,632.7111 199.17,586.1411 264,550.4811 C518.4,410.5311 1345.19,266.1111 1567,453.4811 C1627.95,504.9711 1542.78,571.9511 1597,630.4811 C1655.01,693.1011 1748.3745,709.1581 1820.4245,711.9581 " fill="none" id="BuildRailwayLineUI-to-StationDTO" style="stroke:#181818;stroke-width:1.0;stroke-dasharray:7.0,7.0;"/><polygon fill="#181818" points="1826.42,712.1911,1817.5821,707.8446,1821.4238,711.9969,1817.2715,715.8386,1826.42,712.1911" style="stroke:#181818;stroke-width:1.0;"/><text fill="#000000" font-family="sans-serif" font-size="13" lengthAdjust="spacing" textLength="46.9663" x="940" y="370.5094">displays</text></g><!--link BuildRailwayLineUI to PathCostDTO--><g id="link_BuildRailwayLineUI_PathCostDTO"><path codeLine="142" d="M105.15,746.6811 C136.62,782.4611 199.75,850.0511 264,894.4811 C569.1,1105.4711 655.24,1172.4511 1017,1254.4811 C1306.23,1320.0611 1654.7469,1260.8255 1817.9769,1225.3455 " fill="none" id="BuildRailwayLineUI-to-PathCostDTO" style="stroke:#181818;stroke-width:1.0;stroke-dasharray:7.0,7.0;"/><polygon fill="#181818" points="1823.84,1224.0711,1814.1958,1222.074,1818.9541,1225.1331,1815.895,1229.8914,1823.84,1224.0711" style="stroke:#181818;stroke-width:1.0;"/><text fill="#000000" font-family="sans-serif" font-size="13" lengthAdjust="spacing" textLength="46.9663" x="940" y="1234.5094">displays</text></g><!--link BuildRailwayLineUI to PlayerDTO--><g id="link_BuildRailwayLineUI_PlayerDTO"><path codeLine="143" d="M139.91,698.3511 C147.41,693.2911 154.42,687.3511 160,680.4811 C188.43,645.4411 172.9,625.2411 190,583.4811 C217.12,517.2611 208.7,485.8911 264,440.4811 C744.84,45.6211 1574.1308,136.392 1830.8108,176.182 " fill="none" id="BuildRailwayLineUI-to-PlayerDTO" style="stroke:#181818;stroke-width:1.0;stroke-dasharray:7.0,7.0;"/><polygon fill="#181818" points="1836.74,177.1011,1828.459,171.7696,1831.799,176.3352,1827.2335,179.6752,1836.74,177.1011" style="stroke:#181818;stroke-width:1.0;"/><text fill="#000000" font-family="sans-serif" font-size="13" lengthAdjust="spacing" textLength="46.9663" x="940" y="158.5094">displays</text></g><!--link BuildRailwayLineUI to BuildRailwayLineRequestDTO--><g id="link_BuildRailwayLineUI_BuildRailwayLineRequestDTO"><path codeLine="144" d="M85.03,746.5611 C87.82,849.5011 104.11,1251.2811 190,1335.4811 C264.39,1408.4111 381.4028,1416.8622 470.5028,1411.0422 " fill="none" id="BuildRailwayLineUI-to-BuildRailwayLineRequestDTO" style="stroke:#181818;stroke-width:1.0;stroke-dasharray:7.0,7.0;"/><polygon fill="#181818" points="476.49,1410.6511,467.2484,1407.2462,471.5006,1410.977,467.7699,1415.2292,476.49,1410.6511" style="stroke:#181818;stroke-width:1.0;"/><text fill="#000000" font-family="sans-serif" font-size="13" lengthAdjust="spacing" textLength="42.6309" x="191" y="1331.5094">creates</text></g><!--link BuildRailwayLineController to StationMapper--><g id="link_BuildRailwayLineController_StationMapper"><path codeLine="147" d="M909.38,777.5711 C961.08,786.4211 1006.9561,794.2784 1053.5561,802.2584 " fill="none" id="BuildRailwayLineController-to-StationMapper" style="stroke:#181818;stroke-width:1.0;"/><polygon fill="#181818" points="1059.47,803.2711,1051.2743,797.8094,1054.5417,802.4272,1049.924,805.6946,1059.47,803.2711" style="stroke:#181818;stroke-width:1.0;"/></g><!--link BuildRailwayLineController to PlayerMapper--><g id="link_BuildRailwayLineController_PlayerMapper"><path codeLine="148" d="M909.38,671.8511 C983.67,660.1711 1052.213,649.394 1111.233,640.104 " fill="none" id="BuildRailwayLineController-to-PlayerMapper" style="stroke:#181818;stroke-width:1.0;"/><polygon fill="#181818" points="1117.16,639.1711,1107.6475,636.6192,1112.2208,639.9485,1108.8914,644.5219,1117.16,639.1711" style="stroke:#181818;stroke-width:1.0;"/></g><!--link BuildRailwayLineController to PathMapper--><g id="link_BuildRailwayLineController_PathMapper"><path codeLine="149" d="M909.27,856.6011 C945.34,869.8411 981.77,882.4311 1017,893.4811 C1036.93,899.7311 1052.2769,904.1053 1073.2869,909.4753 " fill="none" id="BuildRailwayLineController-to-PathMapper" style="stroke:#181818;stroke-width:1.0;"/><polygon fill="#181818" points="1079.1,910.9611,1071.3708,904.857,1074.2557,909.7229,1069.3898,912.6078,1079.1,910.9611" style="stroke:#181818;stroke-width:1.0;"/></g><!--link BuildRailwayLineController to GameSession--><g id="link_BuildRailwayLineController_GameSession"><path codeLine="150" d="M909.26,603.4211 C945.42,591.3711 981.87,579.7911 1017,569.4811 C1055.86,558.0711 1093.3463,548.8578 1131.1363,540.3578 " fill="none" id="BuildRailwayLineController-to-GameSession" style="stroke:#181818;stroke-width:1.0;"/><polygon fill="#181818" points="1136.99,539.0411,1127.3316,537.1136,1132.1119,540.1383,1129.0872,544.9186,1136.99,539.0411" style="stroke:#181818;stroke-width:1.0;"/></g><!--link BuildRailwayLineController to GameRepository--><g id="link_BuildRailwayLineController_GameRepository"><path codeLine="151" d="M690.42,567.8511 C752.83,486.1311 839.54,391.2511 939,334.4811 C985.97,307.6711 1037.1698,293.5263 1088.7098,285.0363 " fill="none" id="BuildRailwayLineController-to-GameRepository" style="stroke:#181818;stroke-width:1.0;"/><polygon fill="#181818" points="1094.63,284.0611,1085.0995,281.5771,1089.6965,284.8738,1086.3998,289.4707,1094.63,284.0611" style="stroke:#181818;stroke-width:1.0;"/></g><!--link GameRepository to StationRepository--><g id="link_GameRepository_StationRepository"><path codeLine="152" d="M1379.3,288.3211 C1477.32,298.6211 1603.2228,311.8444 1711.4828,323.2144 " fill="none" id="GameRepository-to-StationRepository" style="stroke:#181818;stroke-width:1.0;"/><polygon fill="#181818" points="1717.45,323.8411,1708.917,318.9229,1712.4773,323.3188,1708.0814,326.8792,1717.45,323.8411" style="stroke:#181818;stroke-width:1.0;"/></g><!--link BuildRailwayLineController to StationRepository--><g id="link_BuildRailwayLineController_StationRepository"><path codeLine="153" d="M715.4,567.7711 C776.15,505.5811 854.05,440.2411 939,404.4811 C1074.55,347.4211 1467.9501,340.1108 1711.4701,341.3408 " fill="none" id="BuildRailwayLineController-to-StationRepository" style="stroke:#181818;stroke-width:1.0;"/><polygon fill="#181818" points="1717.47,341.3711,1708.4903,337.3257,1712.4701,341.3458,1708.4499,345.3256,1717.47,341.3711" style="stroke:#181818;stroke-width:1.0;"/></g><!--link BuildRailwayLineController to PathFinderService--><g id="link_BuildRailwayLineController_PathFinderService"><path codeLine="154" d="M909.38,722.4811 C945.81,722.4811 976.28,722.4811 1010.95,722.4811 " fill="none" id="BuildRailwayLineController-to-PathFinderService" style="stroke:#181818;stroke-width:1.0;"/><polygon fill="#181818" points="1016.95,722.4811,1007.95,718.4811,1011.95,722.4811,1007.95,726.4811,1016.95,722.4811" style="stroke:#181818;stroke-width:1.0;"/></g><!--link BuildRailwayLineController to RailwayLineService--><g id="link_BuildRailwayLineController_RailwayLineService"><path codeLine="155" d="M802.8,877.0211 C869.2,919.7511 944.09,963.2011 1017,995.4811 C1031.33,1001.8211 1040.8185,1005.683 1056.1985,1010.993 " fill="none" id="BuildRailwayLineController-to-RailwayLineService" style="stroke:#181818;stroke-width:1.0;"/><polygon fill="#181818" points="1061.87,1012.9511,1054.6682,1006.2329,1057.1438,1011.3193,1052.0574,1013.7949,1061.87,1012.9511" style="stroke:#181818;stroke-width:1.0;"/></g><!--link BuildRailwayLineController to RailwayLineRepository--><g id="link_BuildRailwayLineController_RailwayLineRepository"><path codeLine="156" d="M724.87,877.1011 C803.57,957.7111 908.13,1052.3911 1017,1115.4811 C1028.22,1121.9811 1034.6545,1125.5177 1046.8845,1130.9977 " fill="none" id="BuildRailwayLineController-to-RailwayLineRepository" style="stroke:#181818;stroke-width:1.0;"/><polygon fill="#181818" points="1052.36,1133.4511,1045.7824,1126.1206,1047.7971,1131.4066,1042.5112,1133.4212,1052.36,1133.4511" style="stroke:#181818;stroke-width:1.0;"/></g><!--link StationMapper to Mapper--><g id="link_StationMapper_Mapper"><path codeLine="158" d="M1414.75,860.3811 C1439.01,863.8911 1463.61,867.3511 1487,870.4811 C1592.08,884.5611 1694.0761,896.6697 1780.0161,906.4797 " fill="none" id="StationMapper-to-Mapper" style="stroke:#181818;stroke-width:1.0;stroke-dasharray:7.0,7.0;"/><polygon fill="none" points="1797.9,908.5211,1780.6966,900.5184,1779.3357,912.4409,1797.9,908.5211" style="stroke:#181818;stroke-width:1.0;"/><text fill="#000000" font-family="sans-serif" font-size="13" lengthAdjust="spacing" textLength="66.4663" x="1494" y="866.5094">implements</text></g><!--link PlayerMapper to Mapper--><g id="link_PlayerMapper_Mapper"><path codeLine="159" d="M1356.67,625.3111 C1392.77,632.3111 1430,645.9111 1457,671.4811 C1491.62,704.2611 1454.11,739.9611 1487,774.4811 C1568.4,859.9011 1683.8854,892.9147 1779.9054,907.9047 " fill="none" id="PlayerMapper-to-Mapper" style="stroke:#181818;stroke-width:1.0;stroke-dasharray:7.0,7.0;"/><polygon fill="none" points="1797.69,910.6811,1780.8309,901.9765,1778.9799,913.8329,1797.69,910.6811" style="stroke:#181818;stroke-width:1.0;"/><text fill="#000000" font-family="sans-serif" font-size="13" lengthAdjust="spacing" textLength="66.4663" x="1494" y="770.5094">implements</text></g><!--link PathMapper to Mapper--><g id="link_PathMapper_Mapper"><path codeLine="160" d="M1425.04,939.0211 C1471.43,937.6111 1521.03,936.0411 1567,934.4811 C1643.97,931.8711 1712.5434,929.3247 1779.9634,926.7247 " fill="none" id="PathMapper-to-Mapper" style="stroke:#181818;stroke-width:1.0;stroke-dasharray:7.0,7.0;"/><polygon fill="none" points="1797.95,926.0311,1779.7322,920.7292,1780.1946,932.7203,1797.95,926.0311" style="stroke:#181818;stroke-width:1.0;"/><text fill="#000000" font-family="sans-serif" font-size="13" lengthAdjust="spacing" textLength="66.4663" x="1494" y="930.5094">implements</text></g><!--link StationMapper to Station--><g id="link_StationMapper_Station"><path codeLine="163" d="M1414.67,835.5111 C1764.7,838.6911 2522.34,841.0311 2635,803.4811 C2657.42,796.0111 2674.4184,786.7756 2693.7484,773.0456 " fill="none" id="StationMapper-to-Station" style="stroke:#181818;stroke-width:1.0;stroke-dasharray:7.0,7.0;"/><polygon fill="#181818" points="2698.64,769.5711,2688.9862,771.5218,2694.5637,772.4665,2693.6189,778.0439,2698.64,769.5711" style="stroke:#181818;stroke-width:1.0;"/><text fill="#000000" font-family="sans-serif" font-size="13" lengthAdjust="spacing" textLength="78.7427" x="2264" y="826.5094">converts from</text></g><!--link StationMapper to StationDTO--><g id="link_StationMapper_StationDTO"><path codeLine="164" d="M1414.64,792.6311 C1429.3,786.9911 1443.61,780.6311 1457,773.4811 C1472.56,765.1611 1470.76,754.3711 1487,747.4811 C1597.13,700.7311 1731.3167,697.4272 1820.3967,701.6472 " fill="none" id="StationMapper-to-StationDTO" style="stroke:#181818;stroke-width:1.0;stroke-dasharray:7.0,7.0;"/><polygon fill="#181818" points="1826.39,701.9311,1817.5894,697.5097,1821.3956,701.6945,1817.2108,705.5007,1826.39,701.9311" style="stroke:#181818;stroke-width:1.0;"/><text fill="#000000" font-family="sans-serif" font-size="13" lengthAdjust="spacing" textLength="63.5845" x="1495.5" y="718.5094">converts to</text></g><!--link PlayerMapper to Player--><g id="link_PlayerMapper_Player"><path codeLine="165" d="M1356.52,606.6711 C1419.17,599.1311 1497.33,589.3411 1567,579.4811 C1576.81,578.0911 1580.843,577.5286 1590.903,576.0586 " fill="none" id="PlayerMapper-to-Player" style="stroke:#181818;stroke-width:1.0;stroke-dasharray:7.0,7.0;"/><polygon fill="#181818" points="1596.84,575.1911,1587.3562,572.5344,1591.8925,575.914,1588.5129,580.4504,1596.84,575.1911" style="stroke:#181818;stroke-width:1.0;"/><text fill="#000000" font-family="sans-serif" font-size="13" lengthAdjust="spacing" textLength="78.7427" x="1488" y="575.5094">converts from</text></g><!--link PlayerMapper to PlayerDTO--><g id="link_PlayerMapper_PlayerDTO"><path codeLine="166" d="M1356.63,612.5411 C1391.9,605.2911 1428.65,592.3211 1457,569.4811 C1570.01,478.4211 1485.38,367.2311 1597,274.4811 C1664.98,217.9911 1761.1127,199.6431 1830.9627,193.5431 " fill="none" id="PlayerMapper-to-PlayerDTO" style="stroke:#181818;stroke-width:1.0;stroke-dasharray:7.0,7.0;"/><polygon fill="#181818" points="1836.94,193.0211,1827.6261,189.8192,1831.959,193.4561,1828.3221,197.7889,1836.94,193.0211" style="stroke:#181818;stroke-width:1.0;"/><text fill="#000000" font-family="sans-serif" font-size="13" lengthAdjust="spacing" textLength="63.5845" x="1495.5" y="305.5094">converts to</text></g><!--link PathMapper to Path--><g id="link_PathMapper_Path"><path codeLine="167" d="M1425.44,967.4711 C1480.61,973.2411 1541.15,978.6111 1597,981.4811 C1879.29,995.9911 1950.63,994.4011 2233,981.4811 C2397.76,973.9411 2584.2399,954.092 2687.3299,942.142 " fill="none" id="PathMapper-to-Path" style="stroke:#181818;stroke-width:1.0;stroke-dasharray:7.0,7.0;"/><polygon fill="#181818" points="2693.29,941.4511,2683.8893,938.514,2688.3233,942.0268,2684.8105,946.4608,2693.29,941.4511" style="stroke:#181818;stroke-width:1.0;"/><text fill="#000000" font-family="sans-serif" font-size="13" lengthAdjust="spacing" textLength="78.7427" x="2264" y="971.5094">converts from</text></g><!--link PathMapper to PathCostDTO--><g id="link_PathMapper_PathCostDTO"><path codeLine="168" d="M1425.18,974.9111 C1436.54,980.6711 1447.28,987.4711 1457,995.4811 C1482.18,1016.2311 1462.76,1040.6411 1487,1062.4811 C1581.62,1147.7311 1723.2664,1180.3605 1817.7864,1193.4105 " fill="none" id="PathMapper-to-PathCostDTO" style="stroke:#181818;stroke-width:1.0;stroke-dasharray:7.0,7.0;"/><polygon fill="#181818" points="1823.73,1194.2311,1815.3616,1189.0378,1818.777,1193.5473,1814.2675,1196.9626,1823.73,1194.2311" style="stroke:#181818;stroke-width:1.0;"/><text fill="#000000" font-family="sans-serif" font-size="13" lengthAdjust="spacing" textLength="63.5845" x="1495.5" y="1058.5094">converts to</text></g><!--reverse link Player to RailwayLine--><g id="link_Player_RailwayLine"><path codeLine="170" d="M2244.8991,616.194 C2296.2591,630.514 2333.76,640.9711 2372.81,651.8611 " fill="none" id="Player-backto-RailwayLine" style="stroke:#181818;stroke-width:1.0;"/><polygon fill="#181818" points="2233.34,612.9711,2238.0453,618.4356,2244.8991,616.194,2240.1938,610.7295,2233.34,612.9711" style="stroke:#181818;stroke-width:1.0;"/><polygon fill="#000000" points="2290.3163,614.4696,2282.3929,609.2092,2280.8142,614.871,2290.3163,614.4696" style="stroke:#000000;stroke-width:1.0;"/><text fill="#000000" font-family="sans-serif" font-size="13" lengthAdjust="spacing" textLength="30.3481" x="2294.5" y="618.5094">owns</text><text fill="#000000" font-family="sans-serif" font-size="13" lengthAdjust="spacing" textLength="7.23" x="2241.5925" y="631.696">1</text><text fill="#000000" font-family="sans-serif" font-size="13" lengthAdjust="spacing" textLength="19.5127" x="2345.3658" y="664.5511">0..*</text></g><!--link RailwayLine to Station--><g id="link_RailwayLine_Station"><path codeLine="171" d="M2544.42,680.4711 C2573.22,682.5011 2605.55,685.1711 2635,688.4811 C2644.71,689.5711 2654.8,690.8411 2664.88,692.2111 " fill="none" id="RailwayLine-Station" style="stroke:#181818;stroke-width:1.0;"/><polygon fill="#000000" points="2583.9764,674.6116,2575.2591,670.8092,2574.6889,676.6593,2583.9764,674.6116" style="stroke:#000000;stroke-width:1.0;"/><text fill="#000000" font-family="sans-serif" font-size="13" lengthAdjust="spacing" textLength="46.2363" x="2588" y="679.5094">starts at</text><text fill="#000000" font-family="sans-serif" font-size="13" lengthAdjust="spacing" textLength="7.23" x="2551.8446" y="695.6242">1</text><text fill="#000000" font-family="sans-serif" font-size="13" lengthAdjust="spacing" textLength="7.23" x="2649.7051" y="705.6371">1</text></g><!--link RailwayLine to Station--><g id="link_RailwayLine_Station"><path codeLine="172" d="M2544.01,708.5311 C2554,711.3811 2564.14,713.8111 2574,715.4811 C2603.25,720.4411 2635.33,721.1511 2664.81,719.9511 " fill="none" id="RailwayLine-Station-1" style="stroke:#181818;stroke-width:1.0;"/><polygon fill="#000000" points="2585.9778,706.5972,2577.2495,702.82,2576.6963,708.6718,2585.9778,706.5972" style="stroke:#000000;stroke-width:1.0;"/><text fill="#000000" font-family="sans-serif" font-size="13" lengthAdjust="spacing" textLength="42.6436" x="2590" y="711.5094">ends at</text><text fill="#000000" font-family="sans-serif" font-size="13" lengthAdjust="spacing" textLength="7.23" x="2551.6796" y="726.1381">1</text><text fill="#000000" font-family="sans-serif" font-size="13" lengthAdjust="spacing" textLength="7.23" x="2649.6298" y="735.501">1</text></g><!--link RailwayLine to Path--><g id="link_RailwayLine_Path"><path codeLine="173" d="M2544.07,746.0511 C2599.28,792.1111 2669.54,850.7411 2716.39,889.8311 " fill="none" id="RailwayLine-Path" style="stroke:#181818;stroke-width:1.0;"/><polygon fill="#000000" points="2586.3391,767.3299,2581.2769,759.2785,2577.5112,763.7917,2586.3391,767.3299" style="stroke:#000000;stroke-width:1.0;"/><text fill="#000000" font-family="sans-serif" font-size="13" lengthAdjust="spacing" textLength="39.7363" x="2591.5" y="769.5094">follows</text><text fill="#000000" font-family="sans-serif" font-size="13" lengthAdjust="spacing" textLength="7.23" x="2545.5578" y="768.2431">1</text><text fill="#000000" font-family="sans-serif" font-size="13" lengthAdjust="spacing" textLength="7.23" x="2700.5664" y="878.7113">1</text></g><!--SRC=[bLVRRkCs47tNLn1vgRoDZUrR8GG64gTR14YRmCv-02FH2dTbKYKfkqRRV-_mOega9Dlx4CGYpmo7CsT6H_8xPIqMU8TsdF7oG_0TGKfq99D-fyNbTroJZJes10bIAipg9WJ83rpn0sKrsk96aYnho5OXnP6WzOT25TL6bBCiKrI1Zw-Rpx-YELerM4hqI76jdSpHGqUR2c6qnhGvu2DwfWnybGPbzjo6Nl_wXFx9_ikodz3Zsuj4MouGBDtDqIFVOSfGtWg-fvMEgS8ApvoRZS8w4B01SuH-HWplI07B0f1ceU6bWHJesVq2iDcHYWj8mmf3FgWw5gZYtJlaGU-LdH24gHKMDL_nZga2KQPqWFRSm9Sx-E_8llVcJLwn-bXngNgJ5bOWB2hLNU1lQVOKLxZHyCXj1LZCIZBYlS578ixaOTknIaREH9_z-8gc1gSIp9U-19AmGG7IEgx9Nnq9Bma12-NAz6SQ53YSsYevsrAn8rMK18WEWYHYYqk2_i1jIyJTsz8TfJWScwjZ2vxUPl3Nh-eaknsJxxVbpF-oLxREPCmhknYvbyhHoK5cHK32v427bUueX_D7ztRBj90Z1xTcet20MT6NFEPOOXhGBhU4qoktaDy-hRCYP6VlBYtkYZCbUDCuztDKGzKsH4gJaD_x1x-v9YsN51hjQFVxPmDn2GfHctJ907NaNoYhYDWGiQUw0rxJ9GCCIEsHwy5Q2Wq3M8yjXz7Q11SnHsoKGUsAg9B-4dxJ_pPrgebQsP5ZhVAelWvnluVGCDJBdIppCIQbuDzyZybygXcd_9IuARi6AwB3lMUc5oUTt4wqCpX_QVKYRku2cjaJtXEAvS8EaEBCP067xvmt1BEUgW7v7FKX1y-yhadrnDASfjtcs9pCpFbWPaQSENLr4E8of4dQzIQe3omttNPBImgb_gBTvqaZdcvcqYy8v3xCJfXxpy0myS7YcMuFNDht2gcwSZoUFQTLdEQ-A_fC3xesdusrilSpsEfTtJVD5ByzkLyvLFeCjyFfFEh0FJySDL5pDi5MRvN6FKMONcoyl7y3ZUJuCAKpvf7Ey8moJyjugaUJpYLh2sjwxmTOaVPYSegxLylX9NkAnjx4KhiXhDQaIjN7SCAw4Fq0WLU711bgPAEP8ZqxPv4gsUE6LWdhWwwBk3is289jTvlHx9YTaGJvGMrZiqLAPTWfnaSGGlc580OKbtX_xULCxpd61ZlouUWcsa0JZ4sarFpX-5Jbj1eZV6HfP14em4uIQLJvBM8SrBzLWzpGGcOZGduEcd5QEenPB1RBKCeNMkZgkyafS2Ychq1xSNmPUqRG5cuWIvsOG0kP1EsiVjHVII1TzqJuJC6ApbvsHatfZCLouW8uqXQNiBtKk80C5TmLq62m9- -5u3u1wBe4N6ymL80N34Q4uFKMGLnP_7cmMFoxTDyFm16wQnkoWw4kiqZBJwDwqJw9wJzGFBlUYJeGmauimwooD4jZyudL_BMsy7qj-6uQwSX-0YkUtkH4m87B2To8m_3IjfH3PqDCt_EXCtSikldb1dsQpz7DvyNYqqtqAYWGFp29bbcugF4Q3l_w79dNXKHONGE6DyXvgBlO5YZ53_hy_m40]--></g></svg>