<svg xmlns="http://www.w3.org/2000/svg" xmlns:xlink="http://www.w3.org/1999/xlink" contentStyleType="text/css" height="544px" preserveAspectRatio="none" style="width:1484px;height:544px;background:#FFFFFF;" version="1.1" viewBox="0 0 1484 544" width="1484px" zoomAndPan="magnify"><title>US08 - Calculate Path and Cost - Partial Sequence Diagram</title><defs/><g><text fill="#000000" font-family="sans-serif" font-size="14" font-weight="bold" lengthAdjust="spacing" textLength="392.8955" x="547.2151" y="30.1074">US08 - Calculate Path and Cost - Partial Sequence Diagram</text><rect fill="#FFFFFF" height="377.4922" style="stroke:#181818;stroke-width:1.0;" width="10" x="434.3174" y="111.5332"/><rect fill="#FFFFFF" height="31.291" style="stroke:#181818;stroke-width:1.0;" width="10" x="620.0981" y="419.4434"/><rect fill="#FFFFFF" height="31.291" style="stroke:#181818;stroke-width:1.0;" width="10" x="741.3735" y="169.1152"/><rect fill="#FFFFFF" height="31.291" style="stroke:#181818;stroke-width:1.0;" width="10" x="741.3735" y="231.6973"/><rect fill="#FFFFFF" height="31.291" style="stroke:#181818;stroke-width:1.0;" width="10" x="1162.8062" y="294.2793"/><rect fill="#FFFFFF" height="31.291" style="stroke:#181818;stroke-width:1.0;" width="10" x="1393.2983" y="356.8613"/><rect fill="none" height="332.2012" style="stroke:#000000;stroke-width:1.5;" width="1141.6045" x="336.7212" y="126.5332"/><line style="stroke:#181818;stroke-width:0.5;stroke-dasharray:5.0,5.0;" x1="74" x2="74" y1="78.2422" y2="507.0254"/><line style="stroke:#181818;stroke-width:0.5;stroke-dasharray:5.0,5.0;" x1="438.7212" x2="438.7212" y1="78.2422" y2="507.0254"/><line style="stroke:#181818;stroke-width:0.5;stroke-dasharray:5.0,5.0;" x1="625.019" x2="625.019" y1="78.2422" y2="507.0254"/><line style="stroke:#181818;stroke-width:0.5;stroke-dasharray:5.0,5.0;" x1="746.1772" x2="746.1772" y1="78.2422" y2="507.0254"/><line style="stroke:#181818;stroke-width:0.5;stroke-dasharray:5.0,5.0;" x1="886.5698" x2="886.5698" y1="78.2422" y2="507.0254"/><line style="stroke:#181818;stroke-width:0.5;stroke-dasharray:5.0,5.0;" x1="1026.8589" x2="1026.8589" y1="78.2422" y2="507.0254"/><line style="stroke:#181818;stroke-width:0.5;stroke-dasharray:5.0,5.0;" x1="1167.2788" x2="1167.2788" y1="78.2422" y2="507.0254"/><line style="stroke:#181818;stroke-width:0.5;stroke-dasharray:5.0,5.0;" x1="1280.3335" x2="1280.3335" y1="78.2422" y2="507.0254"/><line style="stroke:#181818;stroke-width:0.5;stroke-dasharray:5.0,5.0;" x1="1398.271" x2="1398.271" y1="78.2422" y2="507.0254"/><rect fill="#E3E3E3" height="32.6211" rx="2.5" ry="2.5" style="stroke:#181818;stroke-width:0.5;" width="138.5029" x="5" y="44.6211"/><text fill="#000000" font-family="sans-serif" font-size="14" lengthAdjust="spacing" textLength="124.5029" x="12" y="66.7285">:BuildRailwayLineUI</text><rect fill="#E3E3E3" height="32.6211" rx="2.5" ry="2.5" style="stroke:#181818;stroke-width:0.5;" width="138.5029" x="5" y="506.0254"/><text fill="#000000" font-family="sans-serif" font-size="14" lengthAdjust="spacing" textLength="124.5029" x="12" y="528.1328">:BuildRailwayLineUI</text><rect fill="#E3E3E3" height="32.6211" rx="2.5" ry="2.5" style="stroke:#181818;stroke-width:0.5;" width="185.1924" x="346.7212" y="44.6211"/><text fill="#000000" font-family="sans-serif" font-size="14" lengthAdjust="spacing" textLength="171.1924" x="353.7212" y="66.7285">:BuildRailwayLineController</text><rect fill="#E3E3E3" height="32.6211" rx="2.5" ry="2.5" style="stroke:#181818;stroke-width:0.5;" width="185.1924" x="346.7212" y="506.0254"/><text fill="#000000" font-family="sans-serif" font-size="14" lengthAdjust="spacing" textLength="171.1924" x="353.7212" y="528.1328">:BuildRailwayLineController</text><rect fill="#E3E3E3" height="32.6211" rx="2.5" ry="2.5" style="stroke:#181818;stroke-width:0.5;" width="94.1582" x="578.019" y="44.6211"/><text fill="#000000" font-family="sans-serif" font-size="14" lengthAdjust="spacing" textLength="80.1582" x="585.019" y="66.7285">:PathMapper</text><rect fill="#E3E3E3" height="32.6211" rx="2.5" ry="2.5" style="stroke:#181818;stroke-width:0.5;" width="94.1582" x="578.019" y="506.0254"/><text fill="#000000" font-family="sans-serif" font-size="14" lengthAdjust="spacing" textLength="80.1582" x="585.019" y="528.1328">:PathMapper</text><rect fill="#E3E3E3" height="32.6211" rx="2.5" ry="2.5" style="stroke:#181818;stroke-width:0.5;" width="128.3926" x="682.1772" y="44.6211"/><text fill="#000000" font-family="sans-serif" font-size="14" lengthAdjust="spacing" textLength="114.3926" x="689.1772" y="66.7285">:StationRepository</text><rect fill="#E3E3E3" height="32.6211" rx="2.5" ry="2.5" style="stroke:#181818;stroke-width:0.5;" width="128.3926" x="682.1772" y="506.0254"/><text fill="#000000" font-family="sans-serif" font-size="14" lengthAdjust="spacing" textLength="114.3926" x="689.1772" y="528.1328">:StationRepository</text><rect fill="#E3E3E3" height="32.6211" rx="2.5" ry="2.5" style="stroke:#181818;stroke-width:0.5;" width="132.2891" x="820.5698" y="44.6211"/><text fill="#000000" font-family="sans-serif" font-size="14" lengthAdjust="spacing" textLength="118.2891" x="827.5698" y="66.7285">startStation:Station</text><rect fill="#E3E3E3" height="32.6211" rx="2.5" ry="2.5" style="stroke:#181818;stroke-width:0.5;" width="132.2891" x="820.5698" y="506.0254"/><text fill="#000000" font-family="sans-serif" font-size="14" lengthAdjust="spacing" textLength="118.2891" x="827.5698" y="528.1328">startStation:Station</text><rect fill="#E3E3E3" height="32.6211" rx="2.5" ry="2.5" style="stroke:#181818;stroke-width:0.5;" width="128.4199" x="962.8589" y="44.6211"/><text fill="#000000" font-family="sans-serif" font-size="14" lengthAdjust="spacing" textLength="114.4199" x="969.8589" y="66.7285">endStation:Station</text><rect fill="#E3E3E3" height="32.6211" rx="2.5" ry="2.5" style="stroke:#181818;stroke-width:0.5;" width="128.4199" x="962.8589" y="506.0254"/><text fill="#000000" font-family="sans-serif" font-size="14" lengthAdjust="spacing" textLength="114.4199" x="969.8589" y="528.1328">endStation:Station</text><rect fill="#E3E3E3" height="32.6211" rx="2.5" ry="2.5" style="stroke:#181818;stroke-width:0.5;" width="133.0547" x="1101.2788" y="44.6211"/><text fill="#000000" font-family="sans-serif" font-size="14" lengthAdjust="spacing" textLength="119.0547" x="1108.2788" y="66.7285">:PathFinderService</text><rect fill="#E3E3E3" height="32.6211" rx="2.5" ry="2.5" style="stroke:#181818;stroke-width:0.5;" width="133.0547" x="1101.2788" y="506.0254"/><text fill="#000000" font-family="sans-serif" font-size="14" lengthAdjust="spacing" textLength="119.0547" x="1108.2788" y="528.1328">:PathFinderService</text><rect fill="#E3E3E3" height="32.6211" rx="2.5" ry="2.5" style="stroke:#181818;stroke-width:0.5;" width="73.9375" x="1244.3335" y="44.6211"/><text fill="#000000" font-family="sans-serif" font-size="14" lengthAdjust="spacing" textLength="59.9375" x="1251.3335" y="66.7285">path:Path</text><rect fill="#E3E3E3" height="32.6211" rx="2.5" ry="2.5" style="stroke:#181818;stroke-width:0.5;" width="73.9375" x="1244.3335" y="506.0254"/><text fill="#000000" font-family="sans-serif" font-size="14" lengthAdjust="spacing" textLength="59.9375" x="1251.3335" y="528.1328">path:Path</text><rect fill="#E3E3E3" height="32.6211" rx="2.5" ry="2.5" style="stroke:#181818;stroke-width:0.5;" width="140.0547" x="1328.271" y="44.6211"/><text fill="#000000" font-family="sans-serif" font-size="14" lengthAdjust="spacing" textLength="126.0547" x="1335.271" y="66.7285">:RailwayLineService</text><rect fill="#E3E3E3" height="32.6211" rx="2.5" ry="2.5" style="stroke:#181818;stroke-width:0.5;" width="140.0547" x="1328.271" y="506.0254"/><text fill="#000000" font-family="sans-serif" font-size="14" lengthAdjust="spacing" textLength="126.0547" x="1335.271" y="528.1328">:RailwayLineService</text><rect fill="#FFFFFF" height="377.4922" style="stroke:#181818;stroke-width:1.0;" width="10" x="434.3174" y="111.5332"/><rect fill="#FFFFFF" height="31.291" style="stroke:#181818;stroke-width:1.0;" width="10" x="620.0981" y="419.4434"/><rect fill="#FFFFFF" height="31.291" style="stroke:#181818;stroke-width:1.0;" width="10" x="741.3735" y="169.1152"/><rect fill="#FFFFFF" height="31.291" style="stroke:#181818;stroke-width:1.0;" width="10" x="741.3735" y="231.6973"/><rect fill="#FFFFFF" height="31.291" style="stroke:#181818;stroke-width:1.0;" width="10" x="1162.8062" y="294.2793"/><rect fill="#FFFFFF" height="31.291" style="stroke:#181818;stroke-width:1.0;" width="10" x="1393.2983" y="356.8613"/><polygon fill="#181818" points="422.3174,107.5332,432.3174,111.5332,422.3174,115.5332,426.3174,111.5332" style="stroke:#181818;stroke-width:1.0;"/><line style="stroke:#181818;stroke-width:1.0;" x1="74.2515" x2="428.3174" y1="111.5332" y2="111.5332"/><text fill="#000000" font-family="sans-serif" font-size="13" lengthAdjust="spacing" textLength="341.0659" x="81.2515" y="106.2705">calculatePathAndCost(startStationName, endStationName)</text><path d="M336.7212,126.5332 L530.5293,126.5332 L530.5293,135.8242 L520.5293,145.8242 L336.7212,145.8242 L336.7212,126.5332 " fill="#EEEEEE" style="stroke:#000000;stroke-width:1.5;"/><rect fill="none" height="332.2012" style="stroke:#000000;stroke-width:1.5;" width="1141.6045" x="336.7212" y="126.5332"/><text fill="#000000" font-family="sans-serif" font-size="13" font-weight="bold" lengthAdjust="spacing" textLength="148.8081" x="351.7212" y="141.5615">Calculate Path and Cost</text><polygon fill="#181818" points="729.3735,165.1152,739.3735,169.1152,729.3735,173.1152,733.3735,169.1152" style="stroke:#181818;stroke-width:1.0;"/><line style="stroke:#181818;stroke-width:1.0;" x1="444.3174" x2="735.3735" y1="169.1152" y2="169.1152"/><text fill="#000000" font-family="sans-serif" font-size="13" lengthAdjust="spacing" textLength="217.4834" x="451.3174" y="163.8525">getStationByName(startStationName)</text><polygon fill="#181818" points="455.3174,196.4063,445.3174,200.4063,455.3174,204.4063,451.3174,200.4063" style="stroke:#181818;stroke-width:1.0;"/><line style="stroke:#181818;stroke-width:1.0;stroke-dasharray:2.0,2.0;" x1="449.3174" x2="745.3735" y1="200.4063" y2="200.4063"/><text fill="#000000" font-family="sans-serif" font-size="13" lengthAdjust="spacing" textLength="65.7554" x="461.3174" y="195.1436">startStation</text><polygon fill="#181818" points="729.3735,227.6973,739.3735,231.6973,729.3735,235.6973,733.3735,231.6973" style="stroke:#181818;stroke-width:1.0;"/><line style="stroke:#181818;stroke-width:1.0;" x1="444.3174" x2="735.3735" y1="231.6973" y2="231.6973"/><text fill="#000000" font-family="sans-serif" font-size="13" lengthAdjust="spacing" textLength="213.8906" x="451.3174" y="226.4346">getStationByName(endStationName)</text><polygon fill="#181818" points="455.3174,258.9883,445.3174,262.9883,455.3174,266.9883,451.3174,262.9883" style="stroke:#181818;stroke-width:1.0;"/><line style="stroke:#181818;stroke-width:1.0;stroke-dasharray:2.0,2.0;" x1="449.3174" x2="745.3735" y1="262.9883" y2="262.9883"/><text fill="#000000" font-family="sans-serif" font-size="13" lengthAdjust="spacing" textLength="62.1626" x="461.3174" y="257.7256">endStation</text><polygon fill="#181818" points="1150.8062,290.2793,1160.8062,294.2793,1150.8062,298.2793,1154.8062,294.2793" style="stroke:#181818;stroke-width:1.0;"/><line style="stroke:#181818;stroke-width:1.0;" x1="444.3174" x2="1156.8062" y1="294.2793" y2="294.2793"/><text fill="#000000" font-family="sans-serif" font-size="13" lengthAdjust="spacing" textLength="191.5024" x="451.3174" y="289.0166">findPath(startStation, endStation)</text><polygon fill="#181818" points="455.3174,321.5703,445.3174,325.5703,455.3174,329.5703,451.3174,325.5703" style="stroke:#181818;stroke-width:1.0;"/><line style="stroke:#181818;stroke-width:1.0;stroke-dasharray:2.0,2.0;" x1="449.3174" x2="1166.8062" y1="325.5703" y2="325.5703"/><text fill="#000000" font-family="sans-serif" font-size="13" lengthAdjust="spacing" textLength="25.3018" x="461.3174" y="320.3076">path</text><polygon fill="#181818" points="1381.2983,352.8613,1391.2983,356.8613,1381.2983,360.8613,1385.2983,356.8613" style="stroke:#181818;stroke-width:1.0;"/><line style="stroke:#181818;stroke-width:1.0;" x1="444.3174" x2="1387.2983" y1="356.8613" y2="356.8613"/><text fill="#000000" font-family="sans-serif" font-size="13" lengthAdjust="spacing" textLength="184.9771" x="451.3174" y="351.5986">calculateConstructionCost(path)</text><polygon fill="#181818" points="455.3174,384.1523,445.3174,388.1523,455.3174,392.1523,451.3174,388.1523" style="stroke:#181818;stroke-width:1.0;"/><line style="stroke:#181818;stroke-width:1.0;stroke-dasharray:2.0,2.0;" x1="449.3174" x2="1397.2983" y1="388.1523" y2="388.1523"/><text fill="#000000" font-family="sans-serif" font-size="13" lengthAdjust="spacing" textLength="23.8418" x="461.3174" y="382.8896">cost</text><polygon fill="#181818" points="608.0981,415.4434,618.0981,419.4434,608.0981,423.4434,612.0981,419.4434" style="stroke:#181818;stroke-width:1.0;"/><line style="stroke:#181818;stroke-width:1.0;" x1="444.3174" x2="614.0981" y1="419.4434" y2="419.4434"/><text fill="#000000" font-family="sans-serif" font-size="13" lengthAdjust="spacing" textLength="156.7808" x="451.3174" y="414.1807">toPathCostDTO(path, cost)</text><polygon fill="#181818" points="455.3174,446.7344,445.3174,450.7344,455.3174,454.7344,451.3174,450.7344" style="stroke:#181818;stroke-width:1.0;"/><line style="stroke:#181818;stroke-width:1.0;stroke-dasharray:2.0,2.0;" x1="449.3174" x2="624.0981" y1="450.7344" y2="450.7344"/><text fill="#000000" font-family="sans-serif" font-size="13" lengthAdjust="spacing" textLength="79.4727" x="461.3174" y="445.4717">pathCostDTO</text><polygon fill="#181818" points="85.2515,485.0254,75.2515,489.0254,85.2515,493.0254,81.2515,489.0254" style="stroke:#181818;stroke-width:1.0;"/><line style="stroke:#181818;stroke-width:1.0;stroke-dasharray:2.0,2.0;" x1="79.2515" x2="438.3174" y1="489.0254" y2="489.0254"/><text fill="#000000" font-family="sans-serif" font-size="13" lengthAdjust="spacing" textLength="79.4727" x="91.2515" y="483.7627">pathCostDTO</text><!--SRC=[dLJ1QkCm5BpxAnuzjT307fSU5bB7PGsfOsndhyj3LXrHHN9bkIL_lv9g9ozgIkdwPZGp6iqRQNWMgaU3UzXhfTdEw3q7QqQU3CUL7japThos1yd1S6PHTP82XXss-ase3fvG3Zn9hB0Ekgr__8G5f2ZPAD5oAD7k05KBgHwiModHM84IQluoSiKuh0HsJZ19Uh_2H8_AmjNT_IXaMw6GRtXO2yMt-HNW0Dly2rogbJLQIcu2FcsgTSJmZXwnxoT4kMn-FoxBCgiYN6tH2gqgtkj1M6qE0LutooRV55LMRixnWtL_4sVcpeog-JlnpZbSjPSOMR6wZ0_U7uHgkQcvUHMC7u_ma1Uh-0YzGmVA4HN9aToetZeliZgh_kHfbYJR71Q_Gevm1soUgrTTgjOFzPgUlC0zluNJkVp_JOBCYbVVXZ0ES5zdzDX_LfE023kwdKdWpa37vvtk3rxxm-OtWNpSa8uBfeygBavdeqe1s_9FPRxZC0xZV_sTTBxbxbGEf_7akkEZFekDpYkoHverkoDwn9olMcoBaCySaNhHIhcRExXNY7aReLTUC_93cpaRedB44PkBH1p5z0z1lJy4ZcsrZydRM3MRuEGsA5x8PteyQ3wJJ9JFf7Of9gBXPl5-EuWvf-EkuRaAKV2WVm00]--></g></svg>