<svg xmlns="http://www.w3.org/2000/svg" xmlns:xlink="http://www.w3.org/1999/xlink" contentStyleType="text/css" height="419px" preserveAspectRatio="none" style="width:1023px;height:419px;background:#FFFFFF;" version="1.1" viewBox="0 0 1023 419" width="1023px" zoomAndPan="magnify"><title>US08 - Get End Stations - Partial Sequence Diagram</title><defs/><g><text fill="#000000" font-family="sans-serif" font-size="14" font-weight="bold" lengthAdjust="spacing" textLength="345.4268" x="337.8027" y="30.1074">US08 - Get End Stations - Partial Sequence Diagram</text><rect fill="#FFFFFF" height="252.3281" style="stroke:#181818;stroke-width:1.0;" width="10" x="343.2729" y="111.5332"/><rect fill="#FFFFFF" height="31.291" style="stroke:#181818;stroke-width:1.0;" width="10" x="500.3413" y="294.2793"/><rect fill="#FFFFFF" height="31.291" style="stroke:#181818;stroke-width:1.0;" width="10" x="629.0098" y="169.1152"/><rect fill="#FFFFFF" height="31.291" style="stroke:#181818;stroke-width:1.0;" width="10" x="629.0098" y="231.6973"/><rect fill="none" height="207.0371" style="stroke:#000000;stroke-width:1.5;" width="462.5293" x="245.6768" y="126.5332"/><line style="stroke:#181818;stroke-width:0.5;stroke-dasharray:5.0,5.0;" x1="74" x2="74" y1="78.2422" y2="381.8613"/><line style="stroke:#181818;stroke-width:0.5;stroke-dasharray:5.0,5.0;" x1="347.6768" x2="347.6768" y1="78.2422" y2="381.8613"/><line style="stroke:#181818;stroke-width:0.5;stroke-dasharray:5.0,5.0;" x1="504.8691" x2="504.8691" y1="78.2422" y2="381.8613"/><line style="stroke:#181818;stroke-width:0.5;stroke-dasharray:5.0,5.0;" x1="633.8135" x2="633.8135" y1="78.2422" y2="381.8613"/><line style="stroke:#181818;stroke-width:0.5;stroke-dasharray:5.0,5.0;" x1="774.2061" x2="774.2061" y1="78.2422" y2="381.8613"/><line style="stroke:#181818;stroke-width:0.5;stroke-dasharray:5.0,5.0;" x1="933.4951" x2="933.4951" y1="78.2422" y2="381.8613"/><rect fill="#E3E3E3" height="32.6211" rx="2.5" ry="2.5" style="stroke:#181818;stroke-width:0.5;" width="138.5029" x="5" y="44.6211"/><text fill="#000000" font-family="sans-serif" font-size="14" lengthAdjust="spacing" textLength="124.5029" x="12" y="66.7285">:BuildRailwayLineUI</text><rect fill="#E3E3E3" height="32.6211" rx="2.5" ry="2.5" style="stroke:#181818;stroke-width:0.5;" width="138.5029" x="5" y="380.8613"/><text fill="#000000" font-family="sans-serif" font-size="14" lengthAdjust="spacing" textLength="124.5029" x="12" y="402.9688">:BuildRailwayLineUI</text><rect fill="#E3E3E3" height="32.6211" rx="2.5" ry="2.5" style="stroke:#181818;stroke-width:0.5;" width="185.1924" x="255.6768" y="44.6211"/><text fill="#000000" font-family="sans-serif" font-size="14" lengthAdjust="spacing" textLength="171.1924" x="262.6768" y="66.7285">:BuildRailwayLineController</text><rect fill="#E3E3E3" height="32.6211" rx="2.5" ry="2.5" style="stroke:#181818;stroke-width:0.5;" width="185.1924" x="255.6768" y="380.8613"/><text fill="#000000" font-family="sans-serif" font-size="14" lengthAdjust="spacing" textLength="171.1924" x="262.6768" y="402.9688">:BuildRailwayLineController</text><rect fill="#E3E3E3" height="32.6211" rx="2.5" ry="2.5" style="stroke:#181818;stroke-width:0.5;" width="108.9443" x="450.8691" y="44.6211"/><text fill="#000000" font-family="sans-serif" font-size="14" lengthAdjust="spacing" textLength="94.9443" x="457.8691" y="66.7285">:StationMapper</text><rect fill="#E3E3E3" height="32.6211" rx="2.5" ry="2.5" style="stroke:#181818;stroke-width:0.5;" width="108.9443" x="450.8691" y="380.8613"/><text fill="#000000" font-family="sans-serif" font-size="14" lengthAdjust="spacing" textLength="94.9443" x="457.8691" y="402.9688">:StationMapper</text><rect fill="#E3E3E3" height="32.6211" rx="2.5" ry="2.5" style="stroke:#181818;stroke-width:0.5;" width="128.3926" x="569.8135" y="44.6211"/><text fill="#000000" font-family="sans-serif" font-size="14" lengthAdjust="spacing" textLength="114.3926" x="576.8135" y="66.7285">:StationRepository</text><rect fill="#E3E3E3" height="32.6211" rx="2.5" ry="2.5" style="stroke:#181818;stroke-width:0.5;" width="128.3926" x="569.8135" y="380.8613"/><text fill="#000000" font-family="sans-serif" font-size="14" lengthAdjust="spacing" textLength="114.3926" x="576.8135" y="402.9688">:StationRepository</text><rect fill="#E3E3E3" height="32.6211" rx="2.5" ry="2.5" style="stroke:#181818;stroke-width:0.5;" width="132.2891" x="708.2061" y="44.6211"/><text fill="#000000" font-family="sans-serif" font-size="14" lengthAdjust="spacing" textLength="118.2891" x="715.2061" y="66.7285">startStation:Station</text><rect fill="#E3E3E3" height="32.6211" rx="2.5" ry="2.5" style="stroke:#181818;stroke-width:0.5;" width="132.2891" x="708.2061" y="380.8613"/><text fill="#000000" font-family="sans-serif" font-size="14" lengthAdjust="spacing" textLength="118.2891" x="715.2061" y="402.9688">startStation:Station</text><rect fill="#E3E3E3" height="32.6211" rx="2.5" ry="2.5" style="stroke:#181818;stroke-width:0.5;" width="166.5371" x="850.4951" y="44.6211"/><text fill="#000000" font-family="sans-serif" font-size="14" lengthAdjust="spacing" textLength="152.5371" x="857.4951" y="66.7285">stationList :List&lt;Station&gt;</text><rect fill="#E3E3E3" height="32.6211" rx="2.5" ry="2.5" style="stroke:#181818;stroke-width:0.5;" width="166.5371" x="850.4951" y="380.8613"/><text fill="#000000" font-family="sans-serif" font-size="14" lengthAdjust="spacing" textLength="152.5371" x="857.4951" y="402.9688">stationList :List&lt;Station&gt;</text><rect fill="#FFFFFF" height="252.3281" style="stroke:#181818;stroke-width:1.0;" width="10" x="343.2729" y="111.5332"/><rect fill="#FFFFFF" height="31.291" style="stroke:#181818;stroke-width:1.0;" width="10" x="500.3413" y="294.2793"/><rect fill="#FFFFFF" height="31.291" style="stroke:#181818;stroke-width:1.0;" width="10" x="629.0098" y="169.1152"/><rect fill="#FFFFFF" height="31.291" style="stroke:#181818;stroke-width:1.0;" width="10" x="629.0098" y="231.6973"/><polygon fill="#181818" points="331.2729,107.5332,341.2729,111.5332,331.2729,115.5332,335.2729,111.5332" style="stroke:#181818;stroke-width:1.0;"/><line style="stroke:#181818;stroke-width:1.0;" x1="74.2515" x2="337.2729" y1="111.5332" y2="111.5332"/><text fill="#000000" font-family="sans-serif" font-size="13" lengthAdjust="spacing" textLength="250.0215" x="81.2515" y="106.2705">getAvailableEndStations(startStationName)</text><path d="M245.6768,126.5332 L395.4067,126.5332 L395.4067,135.8242 L385.4067,145.8242 L245.6768,145.8242 L245.6768,126.5332 " fill="#EEEEEE" style="stroke:#000000;stroke-width:1.5;"/><rect fill="none" height="207.0371" style="stroke:#000000;stroke-width:1.5;" width="462.5293" x="245.6768" y="126.5332"/><text fill="#000000" font-family="sans-serif" font-size="13" font-weight="bold" lengthAdjust="spacing" textLength="104.73" x="260.6768" y="141.5615">Get End Stations</text><polygon fill="#181818" points="617.0098,165.1152,627.0098,169.1152,617.0098,173.1152,621.0098,169.1152" style="stroke:#181818;stroke-width:1.0;"/><line style="stroke:#181818;stroke-width:1.0;" x1="353.2729" x2="623.0098" y1="169.1152" y2="169.1152"/><text fill="#000000" font-family="sans-serif" font-size="13" lengthAdjust="spacing" textLength="217.4834" x="360.2729" y="163.8525">getStationByName(startStationName)</text><polygon fill="#181818" points="364.2729,196.4063,354.2729,200.4063,364.2729,204.4063,360.2729,200.4063" style="stroke:#181818;stroke-width:1.0;"/><line style="stroke:#181818;stroke-width:1.0;stroke-dasharray:2.0,2.0;" x1="358.2729" x2="633.0098" y1="200.4063" y2="200.4063"/><text fill="#000000" font-family="sans-serif" font-size="13" lengthAdjust="spacing" textLength="65.7554" x="370.2729" y="195.1436">startStation</text><polygon fill="#181818" points="617.0098,227.6973,627.0098,231.6973,617.0098,235.6973,621.0098,231.6973" style="stroke:#181818;stroke-width:1.0;"/><line style="stroke:#181818;stroke-width:1.0;" x1="353.2729" x2="623.0098" y1="231.6973" y2="231.6973"/><text fill="#000000" font-family="sans-serif" font-size="13" lengthAdjust="spacing" textLength="211.7261" x="360.2729" y="226.4346">getPossibleEndStations(startStation)</text><polygon fill="#181818" points="364.2729,258.9883,354.2729,262.9883,364.2729,266.9883,360.2729,262.9883" style="stroke:#181818;stroke-width:1.0;"/><line style="stroke:#181818;stroke-width:1.0;stroke-dasharray:2.0,2.0;" x1="358.2729" x2="633.0098" y1="262.9883" y2="262.9883"/><text fill="#000000" font-family="sans-serif" font-size="13" lengthAdjust="spacing" textLength="58.5317" x="370.2729" y="257.7256">stationList</text><polygon fill="#181818" points="488.3413,290.2793,498.3413,294.2793,488.3413,298.2793,492.3413,294.2793" style="stroke:#181818;stroke-width:1.0;"/><line style="stroke:#181818;stroke-width:1.0;" x1="353.2729" x2="494.3413" y1="294.2793" y2="294.2793"/><text fill="#000000" font-family="sans-serif" font-size="13" lengthAdjust="spacing" textLength="125.7026" x="360.2729" y="289.0166">toDTOList(stationList)</text><polygon fill="#181818" points="364.2729,321.5703,354.2729,325.5703,364.2729,329.5703,360.2729,325.5703" style="stroke:#181818;stroke-width:1.0;"/><line style="stroke:#181818;stroke-width:1.0;stroke-dasharray:2.0,2.0;" x1="358.2729" x2="504.3413" y1="325.5703" y2="325.5703"/><text fill="#000000" font-family="sans-serif" font-size="13" lengthAdjust="spacing" textLength="85.9727" x="370.2729" y="320.3076">stationDTOList</text><polygon fill="#181818" points="85.2515,359.8613,75.2515,363.8613,85.2515,367.8613,81.2515,363.8613" style="stroke:#181818;stroke-width:1.0;"/><line style="stroke:#181818;stroke-width:1.0;stroke-dasharray:2.0,2.0;" x1="79.2515" x2="347.2729" y1="363.8613" y2="363.8613"/><text fill="#000000" font-family="sans-serif" font-size="13" lengthAdjust="spacing" textLength="85.9727" x="91.2515" y="358.5986">stationDTOList</text><!--SRC=[fP9DQy9048Rl-HM39tiGUYnI1BLI0dw499xBD4xZuhgRxewA_xwRkDgjNuKsXq2ox_lCEpDhLq9LQ70DQwrqiJHwJS1cGv4zdLHOhB2aZFUIm531g4eP2kmI5tedL0aVA2r54Gjsqdds-0GTU2M6aLf0niX2A-j-9MXOe8ICFZUa2e8NWQKZHL5LdnIYGiNGwWusGYvI57A7-x5GD8zRW1RcyI-weLPij9Ha6lqmJyTd3XzcWbNbHLdUp-FPTD9Fab5wNPrIfQrWRVQX8nqbivzwo-xBUuxUeoFDtxplmbFBni8oTEltipVsmbhZECkZQ1v3fzTq1LqeYVjRrpg-It9ZFawv7OQOufeU8YnOR97fC0zmJsdqfhfOK7FKq5sLeCb3CQyQx6lebIgr-LGf717u9oHslli8IOrsGJSnznCcsbfnPnh_odXSqbyY7kwMux1-oMSrfHqGhyVoz_4ic2TTHlFS6-a26Bc5D-iFWZgQkreNh81Jwxu0]--></g></svg>