<svg xmlns="http://www.w3.org/2000/svg" xmlns:xlink="http://www.w3.org/1999/xlink" contentStyleType="text/css" height="813px" preserveAspectRatio="none" style="width:615px;height:813px;background:#FFFFFF;" version="1.1" viewBox="0 0 615 813" width="615px" zoomAndPan="magnify"><defs/><g><!--cluster Railway Network Simulator--><g id="cluster_Railway Network Simulator"><rect fill="none" height="798" rx="2.5" ry="2.5" style="stroke:#181818;stroke-width:1.0;" width="516" x="93" y="7"/><text fill="#000000" font-family="sans-serif" font-size="14" font-weight="bold" lengthAdjust="spacing" textLength="179.7168" x="261.1416" y="24.1074">Railway Network Simulator</text></g><g id="elem_UC1"><ellipse cx="199.0755" cy="60.9665" fill="#F1F1F1" rx="64.5755" ry="16.4665" style="stroke:#181818;stroke-width:0.5;"/><text fill="#000000" font-family="sans-serif" font-size="14" lengthAdjust="spacing" textLength="73.1445" x="159.5032" y="65.7703">Create Map</text></g><g id="elem_UC2"><ellipse cx="198.989" cy="132.1978" fill="#F1F1F1" rx="86.489" ry="19.6978" style="stroke:#181818;stroke-width:0.5;"/><text fill="#000000" font-family="sans-serif" font-size="14" lengthAdjust="spacing" textLength="125.2891" x="133.3445" y="137.0015">Add Industry to Map</text></g><g id="elem_UC3"><ellipse cx="198.8175" cy="204.7635" fill="#F1F1F1" rx="76.8175" ry="17.7635" style="stroke:#181818;stroke-width:0.5;"/><text fill="#000000" font-family="sans-serif" font-size="14" lengthAdjust="spacing" textLength="99.5996" x="146.0177" y="209.5672">Add City to Map</text></g><g id="elem_UC4"><ellipse cx="198.8794" cy="275.8759" fill="#F1F1F1" rx="77.3794" ry="17.8759" style="stroke:#181818;stroke-width:0.5;"/><text fill="#000000" font-family="sans-serif" font-size="14" lengthAdjust="spacing" textLength="101.165" x="145.2969" y="280.6796">Create Scenario</text></g><g id="elem_UC5"><ellipse cx="199.1493" cy="559.992" fill="#F1F1F1" rx="68.6493" ry="16.492" style="stroke:#181818;stroke-width:0.5;"/><text fill="#000000" font-family="sans-serif" font-size="14" lengthAdjust="spacing" textLength="78.6064" x="156.8461" y="564.7957">Build Station</text></g><g id="elem_UC6"><ellipse cx="499.3843" cy="669.8769" fill="#F1F1F1" rx="77.3843" ry="17.8769" style="stroke:#181818;stroke-width:0.5;"/><text fill="#000000" font-family="sans-serif" font-size="14" lengthAdjust="spacing" textLength="101.1787" x="445.795" y="674.6806">Upgrade Station</text></g><g id="elem_UC7"><ellipse cx="198.9004" cy="627.9814" fill="#F1F1F1" rx="66.9004" ry="16.4814" style="stroke:#181818;stroke-width:0.5;"/><text fill="#000000" font-family="sans-serif" font-size="14" lengthAdjust="spacing" textLength="76.2617" x="157.7696" y="632.7852">List Stations</text></g><g id="elem_UC8"><ellipse cx="198.7767" cy="698.8553" fill="#F1F1F1" rx="82.2767" ry="18.8553" style="stroke:#181818;stroke-width:0.5;"/><text fill="#000000" font-family="sans-serif" font-size="14" lengthAdjust="spacing" textLength="114.3926" x="138.5805" y="703.6591">Build Railway Line</text></g><g id="elem_UC9"><ellipse cx="198.82" cy="770.764" fill="#F1F1F1" rx="76.82" ry="17.764" style="stroke:#181818;stroke-width:0.5;"/><text fill="#000000" font-family="sans-serif" font-size="14" lengthAdjust="spacing" textLength="99.6064" x="146.0168" y="775.5677">Buy Locomotive</text></g><g id="elem_UC10"><ellipse cx="199.205" cy="349.941" fill="#F1F1F1" rx="90.205" ry="20.441" style="stroke:#181818;stroke-width:0.5;"/><text fill="#000000" font-family="sans-serif" font-size="14" lengthAdjust="spacing" textLength="134.6201" x="128.895" y="354.7447">Assign Train to Route</text></g><g id="elem_UC11"><ellipse cx="199.1825" cy="421.9195" fill="#F1F1F1" rx="58.1825" ry="16.4195" style="stroke:#181818;stroke-width:0.5;"/><text fill="#000000" font-family="sans-serif" font-size="14" lengthAdjust="spacing" textLength="64.5723" x="163.8964" y="426.7232">List Trains</text></g><g id="elem_UC12"><ellipse cx="199.0241" cy="491.0048" fill="#F1F1F1" rx="73.0241" ry="17.0048" style="stroke:#181818;stroke-width:0.5;"/><text fill="#000000" font-family="sans-serif" font-size="14" lengthAdjust="spacing" textLength="88.7031" x="151.6726" y="495.8085">Run Simulator</text></g><g id="elem_UC13"><ellipse cx="499.6017" cy="452.8203" fill="#F1F1F1" rx="77.1017" ry="17.8203" style="stroke:#181818;stroke-width:0.5;"/><text fill="#000000" font-family="sans-serif" font-size="14" lengthAdjust="spacing" textLength="100.3926" x="446.4054" y="457.624">Generate Cargo</text></g><g id="elem_UC14"><ellipse cx="499.3732" cy="527.0746" fill="#F1F1F1" rx="93.3732" ry="21.0746" style="stroke:#181818;stroke-width:0.5;"/><text fill="#000000" font-family="sans-serif" font-size="14" lengthAdjust="spacing" textLength="142.4063" x="425.1701" y="531.8783">Start/Pause Simulation</text></g><!--entity ED--><g id="elem_ED"><ellipse cx="25.7861" cy="138" fill="#F1F1F1" rx="8" ry="8" style="stroke:#181818;stroke-width:0.5;"/><path d="M25.7861,146 L25.7861,173 M12.7861,154 L38.7861,154 M25.7861,173 L12.7861,188 M25.7861,173 L38.7861,188 " fill="none" style="stroke:#181818;stroke-width:0.5;"/><text fill="#000000" font-family="sans-serif" font-size="14" lengthAdjust="spacing" textLength="36.5723" x="7.5" y="204.6074">Editor</text></g><!--entity PL--><g id="elem_PL"><ellipse cx="25.8413" cy="576" fill="#F1F1F1" rx="8" ry="8" style="stroke:#181818;stroke-width:0.5;"/><path d="M25.8413,584 L25.8413,611 M12.8413,592 L38.8413,592 M25.8413,611 L12.8413,626 M25.8413,611 L38.8413,626 " fill="none" style="stroke:#181818;stroke-width:0.5;"/><text fill="#000000" font-family="sans-serif" font-size="14" lengthAdjust="spacing" textLength="39.6826" x="6" y="642.6074">Player</text></g><!--link ED to UC1--><g id="link_ED_UC1"><path d="M44.72,146.4 C61.77,124.63 85,95 85,95 C85,95 118.5643,84.8982 150.8143,75.1982 " fill="none" id="ED-to-UC1" style="stroke:#181818;stroke-width:1.0;"/><polygon fill="#181818" points="156.56,73.47,146.7893,72.2318,151.7719,74.9101,149.0935,79.8927,156.56,73.47" style="stroke:#181818;stroke-width:1.0;"/></g><!--link ED to UC2--><g id="link_ED_UC2"><path d="M44.66,165.18 C66.07,160.55 97.4858,153.7494 129.9158,146.7294 " fill="none" id="ED-to-UC2" style="stroke:#181818;stroke-width:1.0;"/><polygon fill="#181818" points="135.78,145.46,126.1375,143.4546,130.8932,146.5178,127.83,151.2736,135.78,145.46" style="stroke:#181818;stroke-width:1.0;"/></g><!--link ED to UC3--><g id="link_ED_UC3"><path d="M44.66,172.72 C67.27,177.48 101.6785,184.7249 135.2885,191.7949 " fill="none" id="ED-to-UC3" style="stroke:#181818;stroke-width:1.0;"/><polygon fill="#181818" points="141.16,193.03,133.1761,187.263,136.2671,192.0008,131.5293,195.0917,141.16,193.03" style="stroke:#181818;stroke-width:1.0;"/></g><!--link ED to UC4--><g id="link_ED_UC4"><path d="M44.72,190.69 C61.77,211.57 85,240 85,240 C85,240 115.5328,249.7297 146.9728,259.7397 " fill="none" id="ED-to-UC4" style="stroke:#181818;stroke-width:1.0;"/><polygon fill="#181818" points="152.69,261.56,145.3277,255.0181,147.9256,260.0431,142.9007,262.6411,152.69,261.56" style="stroke:#181818;stroke-width:1.0;"/></g><!--link PL to UC6--><g id="link_PL_UC6"><path d="M38.6,646.79 C55.52,704.87 85,806 85,806 C85,806 289,806 289,806 C289,806 411.1975,726.6772 467.3575,690.2172 " fill="none" id="PL-to-UC6" style="stroke:#181818;stroke-width:1.0;"/><polygon fill="#181818" points="472.39,686.95,462.6632,688.4958,468.1963,689.6726,467.0194,695.2057,472.39,686.95" style="stroke:#181818;stroke-width:1.0;"/></g><!--link PL to UC7--><g id="link_PL_UC7"><path d="M46.28,609.37 C68.56,612.1 100.3247,616.0087 132.5747,619.9687 " fill="none" id="PL-to-UC7" style="stroke:#181818;stroke-width:1.0;"/><polygon fill="#181818" points="138.53,620.7,130.0846,615.6329,133.5673,620.0906,129.1096,623.5733,138.53,620.7" style="stroke:#181818;stroke-width:1.0;"/></g><!--link PL to UC8--><g id="link_PL_UC8"><path d="M46.31,625.31 C63.19,641.31 85,662 85,662 C85,662 114.068,671.5125 145.028,681.6525 " fill="none" id="PL-to-UC8" style="stroke:#181818;stroke-width:1.0;"/><polygon fill="#181818" points="150.73,683.52,143.4221,676.9174,145.9784,681.9637,140.932,684.5201,150.73,683.52" style="stroke:#181818;stroke-width:1.0;"/></g><!--link PL to UC9--><g id="link_PL_UC9"><path d="M45.03,646.8 C62.06,684.37 85,735 85,735 C85,735 115.5328,744.7297 146.9728,754.7397 " fill="none" id="PL-to-UC9" style="stroke:#181818;stroke-width:1.0;"/><polygon fill="#181818" points="152.69,756.56,145.3277,750.0181,147.9256,755.0431,142.9007,757.6411,152.69,756.56" style="stroke:#181818;stroke-width:1.0;"/></g><!--link PL to UC10--><g id="link_PL_UC10"><path d="M37.5,567.34 C54.22,504.23 85,388 85,388 C85,388 111.913,378.9526 142.093,368.8026 " fill="none" id="PL-to-UC10" style="stroke:#181818;stroke-width:1.0;"/><polygon fill="#181818" points="147.78,366.89,137.9744,365.9676,143.0408,368.4839,140.5246,373.5503,147.78,366.89" style="stroke:#181818;stroke-width:1.0;"/></g><!--link PL to UC11--><g id="link_PL_UC11"><path d="M42.24,567.33 C59.42,522.59 85,456 85,456 C85,456 120.1446,445.4294 152.7346,435.6194 " fill="none" id="PL-to-UC11" style="stroke:#181818;stroke-width:1.0;"/><polygon fill="#181818" points="158.48,433.89,148.709,432.6539,153.6922,435.3312,151.0149,440.3144,158.48,433.89" style="stroke:#181818;stroke-width:1.0;"/></g><!--link PL to UC12--><g id="link_PL_UC12"><path d="M46.31,580.03 C63.19,556.47 85,526 85,526 C85,526 116.7786,516.1553 148.5786,506.3053 " fill="none" id="PL-to-UC12" style="stroke:#181818;stroke-width:1.0;"/><polygon fill="#181818" points="154.31,504.53,144.5295,503.372,149.5339,506.0094,146.8965,511.0138,154.31,504.53" style="stroke:#181818;stroke-width:1.0;"/></g><!--link PL to UC5--><g id="link_PL_UC5"><path d="M46.28,601.7 C72.05,594.62 112.7042,583.4388 147.4442,573.8988 " fill="none" id="PL-to-UC5" style="stroke:#181818;stroke-width:1.0;"/><polygon fill="#181818" points="153.23,572.31,143.4921,570.8361,148.4085,573.634,145.6105,578.5505,153.23,572.31" style="stroke:#181818;stroke-width:1.0;"/></g><!--link UC12 to UC13--><g id="link_UC12_UC13"><path d="M263.3,482.94 C312.68,476.66 375.1381,468.7083 425.4481,462.2983 " fill="none" id="UC12-to-UC13" style="stroke:#181818;stroke-width:1.0;stroke-dasharray:7.0,7.0;"/><polygon fill="#181818" points="431.4,461.54,421.9666,458.7096,426.4401,462.1719,422.9777,466.6454,431.4,461.54" style="stroke:#181818;stroke-width:1.0;"/><text fill="#000000" font-family="sans-serif" font-size="13" lengthAdjust="spacing" textLength="55.6563" x="320" y="465.0283">&#171;include&#187;</text></g><!--link UC12 to UC14--><g id="link_UC12_UC14"><path d="M248.4,503.61 C281.35,512.19 319,522 319,522 C319,522 356.4823,523.043 400.6523,524.273 " fill="none" id="UC12-to-UC14" style="stroke:#181818;stroke-width:1.0;stroke-dasharray:7.0,7.0;"/><polygon fill="#181818" points="406.65,524.44,397.7648,520.191,401.6519,524.3008,397.5421,528.1879,406.65,524.44" style="stroke:#181818;stroke-width:1.0;"/><text fill="#000000" font-family="sans-serif" font-size="13" lengthAdjust="spacing" textLength="55.6563" x="320" y="518.0283">&#171;include&#187;</text></g><!--reverse link UC5 to UC6--><g id="link_UC5_UC6"><path d="M242.8298,575.7848 C298.7798,596.4048 398.61,633.19 456.99,654.7 " fill="none" id="UC5-backto-UC6" style="stroke:#181818;stroke-width:1.0;stroke-dasharray:7.0,7.0;"/><polygon fill="#181818" points="237.2,573.71,244.2615,580.5755,241.8915,575.439,247.028,573.069,237.2,573.71" style="stroke:#181818;stroke-width:1.0;"/><text fill="#000000" font-family="sans-serif" font-size="13" lengthAdjust="spacing" textLength="53.4917" x="321" y="602.0283">&#171;extend&#187;</text></g><!--SRC=[VPBRRjim38RlzHH4BhghPdCEFGn1W2qDXWBP42Jh0n0swmfL94EYrnd3tdsIRLLsrktAlyYF1vDKzCZ01gmidnWAQIbdQRHmpr9NQF44IchYfYAeZ6h2GmZCsLYOR0lflnD01zkxQDmhRAWpxdSYf4DTAeB90QLwmGQ-4RyO-mn7UQeLjWb-2O1ty1Khk81ZJXgjDFwfiQGJQVRUsb6EpcVPM4AcmBOb7ZRPqFkfAE1U5xLZsuI_IjZi7Dj8FaFcRzI9tVJ8mYDjhqV6CAP_DFcvbgg8J1-w708FLMcne3FaQeZifEFeTprm7Sl7MLx0Tulo_sr4TkTNr-Uv6LFUPt9pCYn_HE9sD2xdPAdxKdva1rDp1BCFVpNTSh7bB7iTMRVlS5o3Y4EjXvVGnOoMzOKqsR2B3TeoBY8RBSkFoVBxFNh3e4n45-At47vcr9dTawmSFFfRxUvNRE_WydBTdjAhd2KvJtBnTfxkvCL-rsDNILudUPFaRP9-Vabd0prBUYb2tNkTgzhVZ1tM5u64wRGDcSD7MAranwtN8z_YpESJRdyoQHSoUN89g-aqzDvo55o5n_u0]--></g></svg>