<svg xmlns="http://www.w3.org/2000/svg" xmlns:xlink="http://www.w3.org/1999/xlink" contentStyleType="text/css" data-diagram-type="DESCRIPTION" height="857px" preserveAspectRatio="none" style="width:682px;height:857px;background:#FFFFFF;" version="1.1" viewBox="0 0 682 857" width="682px" zoomAndPan="magnify"><defs/><g><!--cluster Railway Network Simulator--><g class="cluster" data-entity="Railway Network Simulator" data-source-line="7" data-uid="ent0005" id="cluster_Railway Network Simulator"><rect fill="none" height="768" rx="2.5" ry="2.5" style="stroke:#181818;stroke-width:1;" width="519.15" x="156.87" y="7"/><text fill="#000000" font-family="sans-serif" font-size="14" font-weight="bold" lengthAdjust="spacing" textLength="214.6484" x="309.1208" y="21.9951">Railway Network Simulator</text></g><!--entity UC1--><g class="entity" data-entity="UC1" data-source-line="9" data-uid="ent0006" id="entity_UC1"><ellipse cx="261.2793" cy="123.0036" fill="#F1F1F1" rx="60.1493" ry="14.5236" style="stroke:#181818;stroke-width:0.5;"/><text fill="#000000" font-family="sans-serif" font-size="14" lengthAdjust="spacing" textLength="80.8213" x="220.8686" y="127.6521">Create Map</text></g><!--entity UC2--><g class="entity" data-entity="UC2" data-source-line="10" data-uid="ent0007" id="entity_UC2"><ellipse cx="261.2801" cy="192.002" fill="#F1F1F1" rx="84.8101" ry="19.362" style="stroke:#181818;stroke-width:0.5;"/><text fill="#000000" font-family="sans-serif" font-size="14" lengthAdjust="spacing" textLength="141.8867" x="190.3367" y="196.6504">Add Industry to Map</text></g><!--entity UC3--><g class="entity" data-entity="UC3" data-source-line="11" data-uid="ent0008" id="entity_UC3"><ellipse cx="261.2776" cy="262.9995" fill="#F1F1F1" rx="72.1476" ry="16.8295" style="stroke:#181818;stroke-width:0.5;"/><text fill="#000000" font-family="sans-serif" font-size="14" lengthAdjust="spacing" textLength="111.7402" x="205.4075" y="267.648">Add City to Map</text></g><!--entity UC4--><g class="entity" data-entity="UC4" data-source-line="12" data-uid="ent0009" id="entity_UC4"><ellipse cx="261.2779" cy="332.0016" fill="#F1F1F1" rx="72.3079" ry="16.8616" style="stroke:#181818;stroke-width:0.5;"/><text fill="#000000" font-family="sans-serif" font-size="14" lengthAdjust="spacing" textLength="112.1367" x="205.2096" y="336.65">Create Scenario</text></g><!--entity UC5--><g class="entity" data-entity="UC5" data-source-line="15" data-uid="ent0010" id="entity_UC5"><ellipse cx="261.279" cy="679.0038" fill="#F1F1F1" rx="63.469" ry="15.0938" style="stroke:#181818;stroke-width:0.5;"/><text fill="#000000" font-family="sans-serif" font-size="14" lengthAdjust="spacing" textLength="89.3662" x="216.5959" y="683.6522">Build Station</text></g><!--entity UC6--><g class="entity" data-entity="UC6" data-source-line="16" data-uid="ent0011" id="entity_UC6"><ellipse cx="567.3555" cy="725.9991" fill="#F1F1F1" rx="73.0955" ry="17.0191" style="stroke:#181818;stroke-width:0.5;"/><text fill="#000000" font-family="sans-serif" font-size="14" lengthAdjust="spacing" textLength="114.0781" x="510.3164" y="730.6475">Upgrade Station</text></g><!--entity UC7--><g class="entity" data-entity="UC7" data-source-line="17" data-uid="ent0012" id="entity_UC7"><ellipse cx="261.2823" cy="743.9965" fill="#F1F1F1" rx="62.2323" ry="14.8465" style="stroke:#181818;stroke-width:0.5;"/><text fill="#000000" font-family="sans-serif" font-size="14" lengthAdjust="spacing" textLength="85.9893" x="218.2877" y="748.6449">List Stations</text></g><!--entity UC8--><g class="entity" data-entity="UC8" data-source-line="20" data-uid="ent0013" id="entity_UC8"><ellipse cx="261.2777" cy="402.0015" fill="#F1F1F1" rx="78.7077" ry="18.1415" style="stroke:#181818;stroke-width:0.5;"/><text fill="#000000" font-family="sans-serif" font-size="14" lengthAdjust="spacing" textLength="127.6201" x="197.4676" y="406.65">Build Railway Line</text></g><!--entity UC9--><g class="entity" data-entity="UC9" data-source-line="21" data-uid="ent0014" id="entity_UC9"><ellipse cx="261.2826" cy="471.9965" fill="#F1F1F1" rx="72.3826" ry="16.8765" style="stroke:#181818;stroke-width:0.5;"/><text fill="#000000" font-family="sans-serif" font-size="14" lengthAdjust="spacing" textLength="112.3213" x="205.1219" y="476.645">Buy Locomotive</text></g><!--entity UC10--><g class="entity" data-entity="UC10" data-source-line="22" data-uid="ent0015" id="entity_UC10"><ellipse cx="261.2823" cy="544.0025" fill="#F1F1F1" rx="88.4123" ry="20.0825" style="stroke:#181818;stroke-width:0.5;"/><text fill="#000000" font-family="sans-serif" font-size="14" lengthAdjust="spacing" textLength="150.1377" x="186.2134" y="548.6509">Assign Train to Route</text></g><!--entity UC11--><g class="entity" data-entity="UC11" data-source-line="23" data-uid="ent0016" id="entity_UC11"><ellipse cx="261.2771" cy="614.0036" fill="#F1F1F1" rx="53.8171" ry="14.5236" style="stroke:#181818;stroke-width:0.5;"/><text fill="#000000" font-family="sans-serif" font-size="14" lengthAdjust="spacing" textLength="71.8662" x="225.344" y="618.6521">List Trains</text></g><!--entity UC12--><g class="entity" data-entity="UC12" data-source-line="26" data-uid="ent0017" id="entity_UC12"><ellipse cx="261.2801" cy="58" fill="#F1F1F1" rx="67.3001" ry="15.86" style="stroke:#181818;stroke-width:0.5;"/><text fill="#000000" font-family="sans-serif" font-size="14" lengthAdjust="spacing" textLength="99.4902" x="211.535" y="62.6485">Run Simulator</text></g><!--entity UC13--><g class="entity" data-entity="UC13" data-source-line="27" data-uid="ent0018" id="entity_UC13"><ellipse cx="567.3596" cy="59.0019" fill="#F1F1F1" rx="72.0096" ry="16.8019" style="stroke:#181818;stroke-width:0.5;"/><text fill="#000000" font-family="sans-serif" font-size="14" lengthAdjust="spacing" textLength="111.3984" x="511.6604" y="63.6504">Generate Cargo</text></g><!--entity UC14--><g class="entity" data-entity="UC14" data-source-line="28" data-uid="ent0019" id="entity_UC14"><ellipse cx="567.3622" cy="132.0024" fill="#F1F1F1" rx="92.6622" ry="20.9324" style="stroke:#181818;stroke-width:0.5;"/><text fill="#000000" font-family="sans-serif" font-size="14" lengthAdjust="spacing" textLength="159.7422" x="487.4911" y="136.6509">Start/Pause Simulation</text></g><!--entity ED--><g class="entity" data-entity="ED" data-source-line="3" data-uid="ent0002" id="entity_ED"><ellipse cx="57.9363" cy="198.35" fill="#F1F1F1" rx="8" ry="8" style="stroke:#181818;stroke-width:0.5;"/><path d="M57.9363,206.35 L57.9363,233.35 M44.9363,214.35 L70.9363,214.35 M57.9363,233.35 L44.9363,248.35 M57.9363,233.35 L70.9363,248.35" fill="none" style="stroke:#181818;stroke-width:0.5;"/><text fill="#000000" font-family="sans-serif" font-size="14" lengthAdjust="spacing" textLength="41.4326" x="37.22" y="262.8451">Editor</text></g><!--entity PL--><g class="entity" data-entity="PL" data-source-line="4" data-uid="ent0003" id="entity_PL"><ellipse cx="57.9327" cy="584.35" fill="#F1F1F1" rx="8" ry="8" style="stroke:#181818;stroke-width:0.5;"/><path d="M57.9327,592.35 L57.9327,619.35 M44.9327,600.35 L70.9327,600.35 M57.9327,619.35 L44.9327,634.35 M57.9327,619.35 L70.9327,634.35" fill="none" style="stroke:#181818;stroke-width:0.5;"/><text fill="#000000" font-family="sans-serif" font-size="14" lengthAdjust="spacing" textLength="43.5654" x="36.15" y="648.8451">Player</text></g><!--entity PO--><g class="entity" data-entity="PO" data-source-line="5" data-uid="ent0004" id="entity_PO"><ellipse cx="57.936" cy="28.35" fill="#F1F1F1" rx="8" ry="8" style="stroke:#181818;stroke-width:0.5;"/><path d="M57.936,36.35 L57.936,63.35 M44.936,44.35 L70.936,44.35 M57.936,63.35 L44.936,78.35 M57.936,63.35 L70.936,78.35" fill="none" style="stroke:#181818;stroke-width:0.5;"/><text fill="#000000" font-family="sans-serif" font-size="14" lengthAdjust="spacing" textLength="103.8721" x="6" y="92.8451">Product Owner</text></g><!--link ED to UC1--><g class="link" data-entity-1="ED" data-entity-2="UC1" data-source-line="32" data-uid="lnk20" id="link_ED_UC1"><path d="M79.01,207.66 C96.2,191.31 122.3,168.86 148.87,155 C168.86,144.58 186.8552,138.5891 207.3352,133.5291" fill="none" id="ED-to-UC1" style="stroke:#181818;stroke-width:1;"/><polygon fill="#181818" points="213.16,132.09,203.4633,130.3655,208.306,133.2893,205.3822,138.132,213.16,132.09" style="stroke:#181818;stroke-width:1;"/></g><!--link ED to UC2--><g class="link" data-entity-1="ED" data-entity-2="UC2" data-source-line="33" data-uid="lnk21" id="link_ED_UC2"><path d="M78.98,224.41 C105.44,219.68 147.4337,212.1764 187.3537,205.0364" fill="none" id="ED-to-UC2" style="stroke:#181818;stroke-width:1;"/><polygon fill="#181818" points="193.26,203.98,183.6963,201.6271,188.3381,204.8603,185.1048,209.5021,193.26,203.98" style="stroke:#181818;stroke-width:1;"/></g><!--link ED to UC3--><g class="link" data-entity-1="ED" data-entity-2="UC3" data-source-line="34" data-uid="lnk22" id="link_ED_UC3"><path d="M78.98,231.48 C107.53,236.44 155.1285,244.7235 196.6485,251.9335" fill="none" id="ED-to-UC3" style="stroke:#181818;stroke-width:1;"/><polygon fill="#181818" points="202.56,252.96,194.3771,247.4792,197.6337,252.1045,193.0083,255.3612,202.56,252.96" style="stroke:#181818;stroke-width:1;"/></g><!--link ED to UC4--><g class="link" data-entity-1="ED" data-entity-2="UC4" data-source-line="35" data-uid="lnk23" id="link_ED_UC4"><path d="M78.95,246.69 C96.3,262.03 122.68,283.38 148.87,297 C167.67,306.77 183.9238,312.7415 203.3938,318.3415" fill="none" id="ED-to-UC4" style="stroke:#181818;stroke-width:1;"/><polygon fill="#181818" points="209.16,320,201.6163,313.6681,204.3548,318.6179,199.405,321.3564,209.16,320" style="stroke:#181818;stroke-width:1;"/></g><!--link PL to UC5--><g class="link" data-entity-1="PL" data-entity-2="UC5" data-source-line="38" data-uid="lnk24" id="link_PL_UC5"><path d="M79.91,621.82 C98.06,628.51 125.08,638.25 148.87,646 C171.99,653.53 192.2562,659.6129 213.3462,665.7129" fill="none" id="PL-to-UC5" style="stroke:#181818;stroke-width:1;"/><polygon fill="#181818" points="219.11,667.38,211.5758,661.0369,214.3069,665.9908,209.353,668.7219,219.11,667.38" style="stroke:#181818;stroke-width:1;"/></g><!--link PL to UC6--><g class="link" data-entity-1="PL" data-entity-2="UC6" data-source-line="39" data-uid="lnk25" id="link_PL_UC6"><path d="M68.14,652.43 C79.73,691.35 103.82,749.48 148.87,776 C275.95,850.8 457.0009,778.9956 530.0109,744.2956" fill="none" id="PL-to-UC6" style="stroke:#181818;stroke-width:1;"/><polygon fill="#181818" points="535.43,741.72,525.5843,741.9706,530.9141,743.8663,529.0184,749.1961,535.43,741.72" style="stroke:#181818;stroke-width:1;"/></g><!--link PL to UC7--><g class="link" data-entity-1="PL" data-entity-2="UC7" data-source-line="40" data-uid="lnk26" id="link_PL_UC7"><path d="M79.97,644.73 C96.36,666.48 120.99,694.75 148.87,712 C167.1,723.27 183.6096,729.2935 203.4896,734.1235" fill="none" id="PL-to-UC7" style="stroke:#181818;stroke-width:1;"/><polygon fill="#181818" points="209.32,735.54,201.5188,729.5283,204.4613,734.3596,199.6301,737.3021,209.32,735.54" style="stroke:#181818;stroke-width:1;"/></g><!--link PL to UC8--><g class="link" data-entity-1="PL" data-entity-2="UC8" data-source-line="41" data-uid="lnk27" id="link_PL_UC8"><path d="M69.06,575.55 C81.47,535.7 106.29,474.26 148.87,438 C162.65,426.27 174.5804,420.1209 191.7604,414.7809" fill="none" id="PL-to-UC8" style="stroke:#181818;stroke-width:1;"/><polygon fill="#181818" points="197.49,413,187.7083,411.8516,192.7153,414.4841,190.0829,419.4911,197.49,413" style="stroke:#181818;stroke-width:1;"/></g><!--link PL to UC9--><g class="link" data-entity-1="PL" data-entity-2="UC9" data-source-line="42" data-uid="lnk28" id="link_PL_UC9"><path d="M80.07,579.21 C96.19,555.43 120.42,524.9 148.87,506 C165.21,495.15 179.3902,489.2507 197.8702,484.1007" fill="none" id="PL-to-UC9" style="stroke:#181818;stroke-width:1;"/><polygon fill="#181818" points="203.65,482.49,193.9066,481.0529,198.8335,483.8323,196.0542,488.7592,203.65,482.49" style="stroke:#181818;stroke-width:1;"/></g><!--link PL to UC10--><g class="link" data-entity-1="PL" data-entity-2="UC10" data-source-line="43" data-uid="lnk29" id="link_PL_UC10"><path d="M79.99,606.42 C98.2,599.89 125.24,590.23 148.87,582 C169.04,574.97 185.6295,569.2818 204.9195,562.7218" fill="none" id="PL-to-UC10" style="stroke:#181818;stroke-width:1;"/><polygon fill="#181818" points="210.6,560.79,200.7914,559.9007,205.8662,562.3998,203.3671,567.4747,210.6,560.79" style="stroke:#181818;stroke-width:1;"/></g><!--link PL to UC11--><g class="link" data-entity-1="PL" data-entity-2="UC11" data-source-line="44" data-uid="lnk30" id="link_PL_UC11"><path d="M80.1,614 C109.99,614 159.54,614 201.09,614" fill="none" id="PL-to-UC11" style="stroke:#181818;stroke-width:1;"/><polygon fill="#181818" points="207.09,614,198.09,610,202.09,614,198.09,618,207.09,614" style="stroke:#181818;stroke-width:1;"/></g><!--link PO to UC12--><g class="link" data-entity-1="PO" data-entity-2="UC12" data-source-line="47" data-uid="lnk31" id="link_PO_UC12"><path d="M110.27,58 C135.67,58 160.63,58 187.82,58" fill="none" id="PO-to-UC12" style="stroke:#181818;stroke-width:1;"/><polygon fill="#181818" points="193.82,58,184.82,54,188.82,58,184.82,62,193.82,58" style="stroke:#181818;stroke-width:1;"/></g><!--link UC12 to UC13--><g class="link" data-entity-1="UC12" data-entity-2="UC13" data-source-line="50" data-uid="lnk32" id="link_UC12_UC13"><path d="M329.01,58.22 C378.14,58.38 438.83,58.5809 489.01,58.7409" fill="none" id="UC12-to-UC13" style="stroke:#181818;stroke-width:1;stroke-dasharray:7.0,7.0;"/><polygon fill="#181818" points="495.01,58.76,486.0228,54.7313,490.01,58.7441,485.9973,62.7313,495.01,58.76" style="stroke:#181818;stroke-width:1;"/><text fill="#000000" font-family="sans-serif" font-size="13" lengthAdjust="spacing" textLength="63.0068" x="380.7" y="55.0669">&#171;include&#187;</text></g><!--link UC12 to UC14--><g class="link" data-entity-1="UC12" data-entity-2="UC14" data-source-line="51" data-uid="lnk33" id="link_UC12_UC14"><path d="M309.46,69.48 C361.43,82.13 439.42,101.1119 497.1,115.1419" fill="none" id="UC12-to-UC14" style="stroke:#181818;stroke-width:1;stroke-dasharray:7.0,7.0;"/><polygon fill="#181818" points="502.93,116.56,495.1304,110.5462,498.0717,115.3783,493.2396,118.3195,502.93,116.56" style="stroke:#181818;stroke-width:1;"/><text fill="#000000" font-family="sans-serif" font-size="13" lengthAdjust="spacing" textLength="63.0068" x="380.7" y="85.0669">&#171;include&#187;</text></g><!--reverse link UC5 to UC6--><g class="link" data-entity-1="UC5" data-entity-2="UC6" data-source-line="54" data-uid="lnk34" id="link_UC5_UC6"><path d="M321.1796,688.1063 C374.1796,696.2963 449.71,707.97 505.38,716.57" fill="none" id="UC5-backto-UC6" style="stroke:#181818;stroke-width:1;stroke-dasharray:7.0,7.0;"/><polygon fill="#181818" points="315.25,687.19,323.5336,692.5175,320.1914,687.9536,324.7553,684.6114,315.25,687.19" style="stroke:#181818;stroke-width:1;"/><text fill="#000000" font-family="sans-serif" font-size="13" lengthAdjust="spacing" textLength="61.1851" x="381.7" y="695.0669">&#171;extend&#187;</text></g><!--SRC=[VPFRRjim38RlzHH4BjghPdKEFI4miAP1KI1RZ6Hz0C9YNM6E54Xoqw3Okq-ohSZEsbsPvl-9f4Ygf1SBLe4MnQi5BZJbLYZ96EPMQHWik73V0Q21nKDmPYKUg75cowDJArxb5bPx6RGLOpuUog8a6AnHb7iym4-oUwL_mqPignBhw1yCu1n-u0xEO9EJH2sK-vLOq9QaTMfbA4VZeimreINFrZcUvqbN_SuvF4bU6QiF_beH6vrYSs5FaF4dUK8rBJ9nI5thngBlqnT5tbUYv85fZqwxmFEkqCZf1Bdg8ajXRD1D2ro7zA6NP_1Be_X_6O5T2abjd9i-vJILgwsouYqGjxrs6ICAsQPoBLkhoWOmkVodw9eB9IV9iMNDlFrsTKwiAzdTXEPCRrYFv1RApsAEkWY3I7h3SctIzbk6pj594z09-yEOwnarRlCgTWPUtCusoyqM3t1naTQhT3H7qHn7S_9vdEOzi6pPOjDeNaNpEfetqRoDfcjbj9ClKdLV6SjM0Hzv_4dcPUMsIdUFCQ_2S5XZOxY3sKmqN9hsjCc9vW8ktYr9uoCvSWgpuT1VgUR8IpnD_m80]--></g></svg>
