<svg xmlns="http://www.w3.org/2000/svg" xmlns:xlink="http://www.w3.org/1999/xlink" contentStyleType="text/css" height="414px" preserveAspectRatio="none" style="width:543px;height:414px;background:#FFFFFF;" version="1.1" viewBox="0 0 543 414" width="543px" zoomAndPan="magnify"><title>System Sequence Diagram (SSD) - US05 As a Player, I want to build a station.</title><defs/><g><text fill="#000000" font-family="sans-serif" font-size="14" font-weight="bold" lengthAdjust="spacing" textLength="515.8125" x="10" y="30.1074">System Sequence Diagram (SSD) - US05 As a Player, I want to build a station.</text><rect fill="#FFFFFF" height="179.7461" style="stroke:#181818;stroke-width:1.0;" width="10" x="120.0598" y="133.2422"/><rect fill="#FFFFFF" height="62.582" style="stroke:#181818;stroke-width:1.0;" width="10" x="397.3113" y="156.5332"/><rect fill="#FFFFFF" height="62.582" style="stroke:#181818;stroke-width:1.0;" width="10" x="397.3113" y="250.4063"/><line style="stroke:#181818;stroke-width:0.5;stroke-dasharray:5.0,5.0;" x1="124.2185" x2="124.2185" y1="123.2422" y2="330.9883"/><line style="stroke:#181818;stroke-width:0.5;stroke-dasharray:5.0,5.0;" x1="402.0286" x2="402.0286" y1="123.2422" y2="330.9883"/><text fill="#000000" font-family="sans-serif" font-size="14" lengthAdjust="spacing" textLength="39.6826" x="102.2185" y="119.7285">Player</text><ellipse cx="125.0598" cy="53.1211" fill="#E3E3E3" rx="8" ry="8" style="stroke:#181818;stroke-width:0.5;"/><path d="M125.0598,61.1211 L125.0598,88.1211 M112.0598,69.1211 L138.0598,69.1211 M125.0598,88.1211 L112.0598,103.1211 M125.0598,88.1211 L138.0598,103.1211 " fill="none" style="stroke:#181818;stroke-width:0.5;"/><text fill="#000000" font-family="sans-serif" font-size="14" lengthAdjust="spacing" textLength="39.6826" x="102.2185" y="345.0957">Player</text><ellipse cx="125.0598" cy="357.1094" fill="#E3E3E3" rx="8" ry="8" style="stroke:#181818;stroke-width:0.5;"/><path d="M125.0598,365.1094 L125.0598,392.1094 M112.0598,373.1094 L138.0598,373.1094 M125.0598,392.1094 L112.0598,407.1094 M125.0598,392.1094 L138.0598,407.1094 " fill="none" style="stroke:#181818;stroke-width:0.5;"/><rect fill="#E3E3E3" height="32.6211" rx="2.5" ry="2.5" style="stroke:#181818;stroke-width:0.5;" width="64.5654" x="370.0286" y="89.6211"/><text fill="#000000" font-family="sans-serif" font-size="14" lengthAdjust="spacing" textLength="50.5654" x="377.0286" y="111.7285">:System</text><rect fill="#E3E3E3" height="32.6211" rx="2.5" ry="2.5" style="stroke:#181818;stroke-width:0.5;" width="64.5654" x="370.0286" y="329.9883"/><text fill="#000000" font-family="sans-serif" font-size="14" lengthAdjust="spacing" textLength="50.5654" x="377.0286" y="352.0957">:System</text><rect fill="#FFFFFF" height="179.7461" style="stroke:#181818;stroke-width:1.0;" width="10" x="120.0598" y="133.2422"/><rect fill="#FFFFFF" height="62.582" style="stroke:#181818;stroke-width:1.0;" width="10" x="397.3113" y="156.5332"/><rect fill="#FFFFFF" height="62.582" style="stroke:#181818;stroke-width:1.0;" width="10" x="397.3113" y="250.4063"/><polygon fill="#181818" points="385.3113,152.5332,395.3113,156.5332,385.3113,160.5332,389.3113,156.5332" style="stroke:#181818;stroke-width:1.0;"/><line style="stroke:#181818;stroke-width:1.0;" x1="130.0598" x2="391.3113" y1="156.5332" y2="156.5332"/><text fill="#000000" font-family="sans-serif" font-size="13" font-weight="bold" lengthAdjust="spacing" textLength="7.23" x="137.0598" y="151.2705">1</text><text fill="#000000" font-family="sans-serif" font-size="13" lengthAdjust="spacing" textLength="237.0215" x="148.2898" y="151.2705">requests to build a station (location, type)</text><polygon fill="#181818" points="141.0598,183.8242,131.0598,187.8242,141.0598,191.8242,137.0598,187.8242" style="stroke:#181818;stroke-width:1.0;"/><line style="stroke:#181818;stroke-width:1.0;stroke-dasharray:2.0,2.0;" x1="135.0598" x2="396.3113" y1="187.8242" y2="187.8242"/><text fill="#000000" font-family="sans-serif" font-size="13" font-weight="bold" lengthAdjust="spacing" textLength="7.23" x="147.0598" y="182.5615">2</text><text fill="#000000" font-family="sans-serif" font-size="13" lengthAdjust="spacing" textLength="163.3125" x="158.2898" y="182.5615">validates location availability</text><polygon fill="#181818" points="141.0598,215.1152,131.0598,219.1152,141.0598,223.1152,137.0598,219.1152" style="stroke:#181818;stroke-width:1.0;"/><line style="stroke:#181818;stroke-width:1.0;stroke-dasharray:2.0,2.0;" x1="135.0598" x2="401.3113" y1="219.1152" y2="219.1152"/><text fill="#000000" font-family="sans-serif" font-size="13" font-weight="bold" lengthAdjust="spacing" textLength="7.23" x="147.0598" y="213.8525">3</text><text fill="#000000" font-family="sans-serif" font-size="13" lengthAdjust="spacing" textLength="189.3252" x="158.2898" y="213.8525">requests confirmation to proceed</text><polygon fill="#181818" points="385.3113,246.4063,395.3113,250.4063,385.3113,254.4063,389.3113,250.4063" style="stroke:#181818;stroke-width:1.0;"/><line style="stroke:#181818;stroke-width:1.0;" x1="130.0598" x2="391.3113" y1="250.4063" y2="250.4063"/><text fill="#000000" font-family="sans-serif" font-size="13" font-weight="bold" lengthAdjust="spacing" textLength="7.23" x="137.0598" y="245.1436">4</text><text fill="#000000" font-family="sans-serif" font-size="13" lengthAdjust="spacing" textLength="122.8208" x="148.2898" y="245.1436">confirms construction</text><polygon fill="#181818" points="141.0598,277.6973,131.0598,281.6973,141.0598,285.6973,137.0598,281.6973" style="stroke:#181818;stroke-width:1.0;"/><line style="stroke:#181818;stroke-width:1.0;stroke-dasharray:2.0,2.0;" x1="135.0598" x2="396.3113" y1="281.6973" y2="281.6973"/><text fill="#000000" font-family="sans-serif" font-size="13" font-weight="bold" lengthAdjust="spacing" textLength="7.23" x="147.0598" y="276.4346">5</text><text fill="#000000" font-family="sans-serif" font-size="13" lengthAdjust="spacing" textLength="117.0635" x="158.2898" y="276.4346">saves station details</text><polygon fill="#181818" points="136.0598,308.9883,126.0598,312.9883,136.0598,316.9883,132.0598,312.9883" style="stroke:#181818;stroke-width:1.0;"/><line style="stroke:#181818;stroke-width:1.0;stroke-dasharray:2.0,2.0;" x1="130.0598" x2="401.3113" y1="312.9883" y2="312.9883"/><text fill="#000000" font-family="sans-serif" font-size="13" font-weight="bold" lengthAdjust="spacing" textLength="7.23" x="142.0598" y="307.7256">6</text><text fill="#000000" font-family="sans-serif" font-size="13" lengthAdjust="spacing" textLength="155.3589" x="153.2898" y="307.7256">displays operation success</text><!--SRC=[bP4_Ry8m4CNtV8eJ4qXGTUd2K0a9XagjXEfsO3oS8vnmxDHt2SgthyaVn42HwkcKU-_dzs8viQymOWbbyC4UOoW9DDQKoNLJeJrXGKPRHn39Alh2tGhaY7auio_WW4ueovGrIKqhIYKO-gd9Mu8rOt6HJurPps01t-Rv1LO225k7BSKvlC4PlO86sDViyhGHHUNWdx8CQms-BlSKqsmrH9ZqjWcWmFPzjTjyPYcFikNgGfai-m3TtkpCr-QZStA3IgCXWtJw6HQlWmoMgMOABIftii3K1TjDSz2sebd7k8B7cs0u0tAHwCCzIsZGSPx40YCAi45sk6V7sZxqNfFPu0ySozwUObOnMAAyC-TqDy-TeWEbmqbwU7l1_R-HO9FQZ7ye9qrjvA4ZPwdI-mc4Yc9lazfQ4lchmSsddl8B]--></g></svg>