<svg xmlns="http://www.w3.org/2000/svg" xmlns:xlink="http://www.w3.org/1999/xlink" contentStyleType="text/css" data-diagram-type="CLASS" height="773px" preserveAspectRatio="none" style="width:400px;height:773px;background:#FFFFFF;" version="1.1" viewBox="0 0 400 773" width="400px" zoomAndPan="magnify"><defs/><g><!--class Player--><g class="entity" data-entity="Player" data-source-line="1" data-uid="ent0002" id="entity_Player"><rect fill="#F1F1F1" height="80.5938" rx="2.5" ry="2.5" style="stroke:#181818;stroke-width:0.5;" width="84.9189" x="57.64" y="7"/><ellipse cx="76.8491" cy="23" fill="#ADD1B2" rx="11" ry="11" style="stroke:#181818;stroke-width:1;"/><path d="M79.8178,28.6406 Q79.2397,28.9375 78.5991,29.0781 Q77.9585,29.2344 77.2553,29.2344 Q74.7553,29.2344 73.4272,27.5938 Q72.1147,25.9375 72.1147,22.8125 Q72.1147,19.6875 73.4272,18.0313 Q74.7553,16.375 77.2553,16.375 Q77.9585,16.375 78.5991,16.5313 Q79.2553,16.6875 79.8178,16.9844 L79.8178,19.7031 Q79.1928,19.125 78.5991,18.8594 Q78.0053,18.5781 77.3803,18.5781 Q76.0366,18.5781 75.3491,19.6563 Q74.6616,20.7188 74.6616,22.8125 Q74.6616,24.9063 75.3491,25.9844 Q76.0366,27.0469 77.3803,27.0469 Q78.0053,27.0469 78.5991,26.7813 Q79.1928,26.5 79.8178,25.9219 L79.8178,28.6406 Z " fill="#000000"/><text fill="#000000" font-family="sans-serif" font-size="14" lengthAdjust="spacing" textLength="43.5654" x="91.7844" y="27.8467">Player</text><line style="stroke:#181818;stroke-width:0.5;" x1="58.64" x2="141.5589" y1="39" y2="39"/><ellipse cx="68.64" cy="52.6484" fill="none" rx="3" ry="3" style="stroke:#038048;stroke-width:1;"/><text fill="#000000" font-family="sans-serif" font-size="14" lengthAdjust="spacing" textLength="58.9189" x="77.64" y="55.9951">playerID</text><ellipse cx="68.64" cy="68.9453" fill="none" rx="3" ry="3" style="stroke:#038048;stroke-width:1;"/><text fill="#000000" font-family="sans-serif" font-size="14" lengthAdjust="spacing" textLength="39.7031" x="77.64" y="72.292">name</text><line style="stroke:#181818;stroke-width:0.5;" x1="58.64" x2="141.5589" y1="79.5938" y2="79.5938"/></g><!--class Train--><g class="entity" data-entity="Train" data-source-line="6" data-uid="ent0003" id="entity_Train"><rect fill="#F1F1F1" height="96.8906" rx="2.5" ry="2.5" style="stroke:#181818;stroke-width:0.5;" width="85.1035" x="57.55" y="164.59"/><ellipse cx="80.4043" cy="180.59" fill="#ADD1B2" rx="11" ry="11" style="stroke:#181818;stroke-width:1;"/><path d="M83.3731,186.2306 Q82.795,186.5275 82.1543,186.6681 Q81.5137,186.8244 80.8106,186.8244 Q78.3106,186.8244 76.9825,185.1838 Q75.67,183.5275 75.67,180.4025 Q75.67,177.2775 76.9825,175.6213 Q78.3106,173.965 80.8106,173.965 Q81.5137,173.965 82.1543,174.1213 Q82.8106,174.2775 83.3731,174.5744 L83.3731,177.2931 Q82.7481,176.715 82.1543,176.4494 Q81.5606,176.1681 80.9356,176.1681 Q79.5918,176.1681 78.9043,177.2463 Q78.2168,178.3088 78.2168,180.4025 Q78.2168,182.4963 78.9043,183.5744 Q79.5918,184.6369 80.9356,184.6369 Q81.5606,184.6369 82.1543,184.3713 Q82.7481,184.09 83.3731,183.5119 L83.3731,186.2306 Z " fill="#000000"/><text fill="#000000" font-family="sans-serif" font-size="14" lengthAdjust="spacing" textLength="35.6494" x="96.1498" y="185.4367">Train</text><line style="stroke:#181818;stroke-width:0.5;" x1="58.55" x2="141.6535" y1="196.59" y2="196.59"/><ellipse cx="68.55" cy="210.2384" fill="none" rx="3" ry="3" style="stroke:#038048;stroke-width:1;"/><text fill="#000000" font-family="sans-serif" font-size="14" lengthAdjust="spacing" textLength="47.4961" x="77.55" y="213.5851">trainID</text><ellipse cx="68.55" cy="226.5353" fill="none" rx="3" ry="3" style="stroke:#038048;stroke-width:1;"/><text fill="#000000" font-family="sans-serif" font-size="14" lengthAdjust="spacing" textLength="39.7031" x="77.55" y="229.882">name</text><ellipse cx="68.55" cy="242.8322" fill="none" rx="3" ry="3" style="stroke:#038048;stroke-width:1;"/><text fill="#000000" font-family="sans-serif" font-size="14" lengthAdjust="spacing" textLength="59.1035" x="77.55" y="246.1789">capacity</text><line style="stroke:#181818;stroke-width:0.5;" x1="58.55" x2="141.6535" y1="253.4806" y2="253.4806"/></g><!--class Route--><g class="entity" data-entity="Route" data-source-line="12" data-uid="ent0004" id="entity_Route"><rect fill="#F1F1F1" height="80.5938" rx="2.5" ry="2.5" style="stroke:#181818;stroke-width:0.5;" width="78.2061" x="7" y="338.48"/><ellipse cx="24.2219" cy="354.48" fill="#ADD1B2" rx="11" ry="11" style="stroke:#181818;stroke-width:1;"/><path d="M27.1906,360.1206 Q26.6125,360.4175 25.9719,360.5581 Q25.3313,360.7144 24.6281,360.7144 Q22.1281,360.7144 20.8,359.0738 Q19.4875,357.4175 19.4875,354.2925 Q19.4875,351.1675 20.8,349.5113 Q22.1281,347.855 24.6281,347.855 Q25.3313,347.855 25.9719,348.0113 Q26.6281,348.1675 27.1906,348.4644 L27.1906,351.1831 Q26.5656,350.605 25.9719,350.3394 Q25.3781,350.0581 24.7531,350.0581 Q23.4094,350.0581 22.7219,351.1363 Q22.0344,352.1988 22.0344,354.2925 Q22.0344,356.3863 22.7219,357.4644 Q23.4094,358.5269 24.7531,358.5269 Q25.3781,358.5269 25.9719,358.2613 Q26.5656,357.98 27.1906,357.4019 L27.1906,360.1206 Z " fill="#000000"/><text fill="#000000" font-family="sans-serif" font-size="14" lengthAdjust="spacing" textLength="41.2686" x="38.7156" y="359.3267">Route</text><line style="stroke:#181818;stroke-width:0.5;" x1="8" x2="84.2061" y1="370.48" y2="370.48"/><ellipse cx="18" cy="384.1284" fill="none" rx="3" ry="3" style="stroke:#038048;stroke-width:1;"/><text fill="#000000" font-family="sans-serif" font-size="14" lengthAdjust="spacing" textLength="52.2061" x="27" y="387.4751">routeID</text><ellipse cx="18" cy="400.4253" fill="none" rx="3" ry="3" style="stroke:#038048;stroke-width:1;"/><text fill="#000000" font-family="sans-serif" font-size="14" lengthAdjust="spacing" textLength="39.7031" x="27" y="403.772">name</text><line style="stroke:#181818;stroke-width:0.5;" x1="8" x2="84.2061" y1="411.0738" y2="411.0738"/></g><!--class Station--><g class="entity" data-entity="Station" data-source-line="17" data-uid="ent0005" id="entity_Station"><rect fill="#F1F1F1" height="96.8906" rx="2.5" ry="2.5" style="stroke:#181818;stroke-width:0.5;" width="89.0889" x="9.56" y="496.08"/><ellipse cx="27.8524" cy="512.08" fill="#ADD1B2" rx="11" ry="11" style="stroke:#181818;stroke-width:1;"/><path d="M30.8211,517.7206 Q30.243,518.0175 29.6024,518.1581 Q28.9618,518.3144 28.2586,518.3144 Q25.7586,518.3144 24.4305,516.6738 Q23.118,515.0175 23.118,511.8925 Q23.118,508.7675 24.4305,507.1113 Q25.7586,505.455 28.2586,505.455 Q28.9618,505.455 29.6024,505.6113 Q30.2586,505.7675 30.8211,506.0644 L30.8211,508.7831 Q30.1961,508.205 29.6024,507.9394 Q29.0086,507.6581 28.3836,507.6581 Q27.0399,507.6581 26.3524,508.7363 Q25.6649,509.7988 25.6649,511.8925 Q25.6649,513.9863 26.3524,515.0644 Q27.0399,516.1269 28.3836,516.1269 Q29.0086,516.1269 29.6024,515.8613 Q30.1961,515.58 30.8211,515.0019 L30.8211,517.7206 Z " fill="#000000"/><text fill="#000000" font-family="sans-serif" font-size="14" lengthAdjust="spacing" textLength="49.7725" x="42.584" y="516.9267">Station</text><line style="stroke:#181818;stroke-width:0.5;" x1="10.56" x2="97.6489" y1="528.08" y2="528.08"/><ellipse cx="20.56" cy="541.7284" fill="none" rx="3" ry="3" style="stroke:#038048;stroke-width:1;"/><text fill="#000000" font-family="sans-serif" font-size="14" lengthAdjust="spacing" textLength="63.0889" x="29.56" y="545.0751">stationID</text><ellipse cx="20.56" cy="558.0253" fill="none" rx="3" ry="3" style="stroke:#038048;stroke-width:1;"/><text fill="#000000" font-family="sans-serif" font-size="14" lengthAdjust="spacing" textLength="39.7031" x="29.56" y="561.372">name</text><ellipse cx="20.56" cy="574.3222" fill="none" rx="3" ry="3" style="stroke:#038048;stroke-width:1;"/><text fill="#000000" font-family="sans-serif" font-size="14" lengthAdjust="spacing" textLength="55.5488" x="29.56" y="577.6689">location</text><line style="stroke:#181818;stroke-width:0.5;" x1="10.56" x2="97.6489" y1="584.9706" y2="584.9706"/></g><!--class Cargo--><g class="entity" data-entity="Cargo" data-source-line="23" data-uid="ent0006" id="entity_Cargo"><rect fill="#F1F1F1" height="96.8906" rx="2.5" ry="2.5" style="stroke:#181818;stroke-width:0.5;" width="80.3936" x="64.91" y="669.97"/><ellipse cx="82.984" cy="685.97" fill="#ADD1B2" rx="11" ry="11" style="stroke:#181818;stroke-width:1;"/><path d="M85.9527,691.6106 Q85.3746,691.9075 84.734,692.0481 Q84.0933,692.2044 83.3902,692.2044 Q80.8902,692.2044 79.5621,690.5638 Q78.2496,688.9075 78.2496,685.7825 Q78.2496,682.6575 79.5621,681.0013 Q80.8902,679.345 83.3902,679.345 Q84.0933,679.345 84.734,679.5013 Q85.3902,679.6575 85.9527,679.9544 L85.9527,682.6731 Q85.3277,682.095 84.734,681.8294 Q84.1402,681.5481 83.5152,681.5481 Q82.1715,681.5481 81.484,682.6263 Q80.7965,683.6888 80.7965,685.7825 Q80.7965,687.8763 81.484,688.9544 Q82.1715,690.0169 83.5152,690.0169 Q84.1402,690.0169 84.734,689.7513 Q85.3277,689.47 85.9527,688.8919 L85.9527,691.6106 Z " fill="#000000"/><text fill="#000000" font-family="sans-serif" font-size="14" lengthAdjust="spacing" textLength="41.5625" x="97.6671" y="690.8167">Cargo</text><line style="stroke:#181818;stroke-width:0.5;" x1="65.91" x2="144.3036" y1="701.97" y2="701.97"/><ellipse cx="75.91" cy="715.6184" fill="none" rx="3" ry="3" style="stroke:#038048;stroke-width:1;"/><text fill="#000000" font-family="sans-serif" font-size="14" lengthAdjust="spacing" textLength="54.3936" x="84.91" y="718.9651">cargoID</text><ellipse cx="75.91" cy="731.9153" fill="none" rx="3" ry="3" style="stroke:#038048;stroke-width:1;"/><text fill="#000000" font-family="sans-serif" font-size="14" lengthAdjust="spacing" textLength="31.2744" x="84.91" y="735.262">type</text><ellipse cx="75.91" cy="748.2122" fill="none" rx="3" ry="3" style="stroke:#038048;stroke-width:1;"/><text fill="#000000" font-family="sans-serif" font-size="14" lengthAdjust="spacing" textLength="47.2021" x="84.91" y="751.5589">weight</text><line style="stroke:#181818;stroke-width:0.5;" x1="65.91" x2="144.3036" y1="758.8606" y2="758.8606"/></g><!--class TrainCargoAssignment--><g class="entity" data-entity="TrainCargoAssignment" data-source-line="29" data-uid="ent0007" id="entity_TrainCargoAssignment"><rect fill="#F1F1F1" height="80.5938" rx="2.5" ry="2.5" style="stroke:#181818;stroke-width:0.5;" width="191.6396" x="177.28" y="7"/><ellipse cx="192.28" cy="23" fill="#ADD1B2" rx="11" ry="11" style="stroke:#181818;stroke-width:1;"/><path d="M195.2488,28.6406 Q194.6706,28.9375 194.03,29.0781 Q193.3894,29.2344 192.6863,29.2344 Q190.1863,29.2344 188.8581,27.5938 Q187.5456,25.9375 187.5456,22.8125 Q187.5456,19.6875 188.8581,18.0313 Q190.1863,16.375 192.6863,16.375 Q193.3894,16.375 194.03,16.5313 Q194.6863,16.6875 195.2488,16.9844 L195.2488,19.7031 Q194.6238,19.125 194.03,18.8594 Q193.4363,18.5781 192.8113,18.5781 Q191.4675,18.5781 190.78,19.6563 Q190.0925,20.7188 190.0925,22.8125 Q190.0925,24.9063 190.78,25.9844 Q191.4675,27.0469 192.8113,27.0469 Q193.4363,27.0469 194.03,26.7813 Q194.6238,26.5 195.2488,25.9219 L195.2488,28.6406 Z " fill="#000000"/><text fill="#000000" font-family="sans-serif" font-size="14" lengthAdjust="spacing" textLength="159.6396" x="206.28" y="27.8467">TrainCargoAssignment</text><line style="stroke:#181818;stroke-width:0.5;" x1="178.28" x2="367.9196" y1="39" y2="39"/><ellipse cx="188.28" cy="52.6484" fill="none" rx="3" ry="3" style="stroke:#038048;stroke-width:1;"/><text fill="#000000" font-family="sans-serif" font-size="14" lengthAdjust="spacing" textLength="96.3389" x="197.28" y="55.9951">assignmentID</text><ellipse cx="188.28" cy="68.9453" fill="none" rx="3" ry="3" style="stroke:#038048;stroke-width:1;"/><text fill="#000000" font-family="sans-serif" font-size="14" lengthAdjust="spacing" textLength="58.3652" x="197.28" y="72.292">quantity</text><line style="stroke:#181818;stroke-width:0.5;" x1="178.28" x2="367.9196" y1="79.5938" y2="79.5938"/></g><!--link Player to Train--><g class="link" data-entity-1="Player" data-entity-2="Train" data-source-line="34" data-uid="lnk8" id="link_Player_Train"><path codeLine="34" d="M100.1,87.93 C100.1,110.93 100.1,140.06 100.1,164.31" fill="none" id="Player-Train" style="stroke:#181818;stroke-width:1;"/><polygon fill="#000000" points="105.1,131.1564,108.0389,122.1113,102.1611,122.1113,105.1,131.1564" style="stroke:#000000;stroke-width:1;"/><text fill="#000000" font-family="sans-serif" font-size="13" lengthAdjust="spacing" textLength="33.5981" x="114.1" y="130.6569">owns</text><text fill="#000000" font-family="sans-serif" font-size="13" lengthAdjust="spacing" textLength="8.271" x="91.4842" y="107.6787">1</text><text fill="#000000" font-family="sans-serif" font-size="13" lengthAdjust="spacing" textLength="9.7246" x="90.5179" y="153.4795">N</text></g><!--link Train to Route--><g class="link" data-entity-1="Train" data-entity-2="Route" data-source-line="35" data-uid="lnk9" id="link_Train_Route"><path codeLine="35" d="M57.33,260.38 C50.66,270.03 44.78,280.59 41.1,291.48 C36.11,306.27 36,323.29 37.63,338.28" fill="none" id="Train-Route" style="stroke:#181818;stroke-width:1;"/><polygon fill="#000000" points="44.8741,304.8938,49.941,296.8453,44.2425,295.4042,44.8741,304.8938" style="stroke:#000000;stroke-width:1;"/><text fill="#000000" font-family="sans-serif" font-size="13" lengthAdjust="spacing" textLength="75.0483" x="55.1" y="304.5469">assigned to</text><text fill="#000000" font-family="sans-serif" font-size="13" lengthAdjust="spacing" textLength="8.271" x="41.3144" y="264.3066">1</text><text fill="#000000" font-family="sans-serif" font-size="13" lengthAdjust="spacing" textLength="8.271" x="27.5866" y="327.4084">1</text></g><!--link Route to Station--><g class="link" data-entity-1="Route" data-entity-2="Station" data-source-line="36" data-uid="lnk10" id="link_Route_Station"><path codeLine="36" d="M45.25,419.33 C45.16,434.02 45.32,450.82 46.1,466.08 C46.6,475.66 47.43,485.89 48.38,495.66" fill="none" id="Route-Station" style="stroke:#181818;stroke-width:1;"/><polygon fill="#000000" points="51.3049,462.6422,53.8707,453.4843,47.9978,453.7251,51.3049,462.6422" style="stroke:#000000;stroke-width:1;"/><text fill="#000000" font-family="sans-serif" font-size="13" lengthAdjust="spacing" textLength="53.8726" x="60.1" y="462.1469">includes</text><text fill="#000000" font-family="sans-serif" font-size="13" lengthAdjust="spacing" textLength="8.271" x="36.4981" y="439.0659">1</text><text fill="#000000" font-family="sans-serif" font-size="13" lengthAdjust="spacing" textLength="9.7246" x="38.0548" y="485.1617">N</text></g><!--link Station to Cargo--><g class="link" data-entity-1="Station" data-entity-2="Cargo" data-source-line="37" data-uid="lnk11" id="link_Station_Cargo"><path codeLine="37" d="M64.69,593.36 C68.3,608.37 72.57,624.94 77.1,639.97 C80.03,649.69 83.49,659.97 86.96,669.76" fill="none" id="Station-Cargo" style="stroke:#181818;stroke-width:1;"/><polygon fill="#000000" points="83.4992,636.3366,83.7895,626.8305,78.1465,628.4754,83.4992,636.3366" style="stroke:#000000;stroke-width:1;"/><text fill="#000000" font-family="sans-serif" font-size="13" lengthAdjust="spacing" textLength="39.9395" x="91.1" y="636.0369">stores</text><text fill="#000000" font-family="sans-serif" font-size="13" lengthAdjust="spacing" textLength="8.271" x="57.5931" y="613.0058">1</text><text fill="#000000" font-family="sans-serif" font-size="13" lengthAdjust="spacing" textLength="9.7246" x="74.8262" y="658.9394">N</text></g><!--link Train to Cargo--><g class="link" data-entity-1="Train" data-entity-2="Cargo" data-source-line="38" data-uid="lnk12" id="link_Train_Cargo"><path codeLine="38" d="M125.41,261.71 C129.43,271.32 132.96,281.53 135.1,291.48 C167.73,442.89 163.56,487.72 135.1,639.97 C133.28,649.75 130.25,659.88 126.81,669.47" fill="none" id="Train-Cargo" style="stroke:#181818;stroke-width:1;"/><text fill="#000000" font-family="sans-serif" font-size="13" lengthAdjust="spacing" textLength="234.2349" x="158.1" y="462.1469">transports &gt; TrainCargoAssignment</text><text fill="#000000" font-family="sans-serif" font-size="13" lengthAdjust="spacing" textLength="9.7246" x="119.3871" y="281.6858">N</text><text fill="#000000" font-family="sans-serif" font-size="13" lengthAdjust="spacing" textLength="9.7246" x="120.1704" y="658.961">N</text></g><!--SRC=[RL4n3i8m3Dpp2gihwi3Q0Gd1mb8Xu0DMY4gaafJ4LLKX_awQrBH0ioHdtvrrZgpHUpZMs2i7Jm7Xh9g83lk43DwLU0aX8_FYK1icqW2-UF4biK6fgPzK9zkIOfKRmBBxcP2q_VZx1Fydr5R6pgJSeQiiw-G0M4LzCwewfQiR_MI9mgttkZ9tPOWjy5DXdqUBXiPKuxwoTGPv3bcPZNifm7R6mqOaoFrmfGqKa7pL5SW6MghER7W11MWZw_Qg1ZCkpdWfRW6Uh5EpWUKV8_oHyOrr55YBYTy0]--></g></svg>