<svg xmlns="http://www.w3.org/2000/svg" xmlns:xlink="http://www.w3.org/1999/xlink" contentStyleType="text/css" height="1235px" preserveAspectRatio="none" style="width:1216px;height:1235px;background:#FFFFFF;" version="1.1" viewBox="0 0 1216 1235" width="1216px" zoomAndPan="magnify"><defs/><g><!--class ApplicationSession--><g id="elem_ApplicationSession"><rect codeLine="11" fill="#F1F1F1" height="103.8633" id="ApplicationSession" rx="2.5" ry="2.5" style="stroke:#181818;stroke-width:0.5;" width="150.2959" x="95.5" y="241"/><ellipse cx="110.5" cy="257" fill="#ADD1B2" rx="11" ry="11" style="stroke:#181818;stroke-width:1.0;"/><path d="M113.2656,252.875 Q113.4219,252.6563 113.6094,252.5469 Q113.7969,252.4375 114.0156,252.4375 Q114.3906,252.4375 114.625,252.7031 Q114.8594,252.9531 114.8594,253.5625 L114.8594,255.0156 Q114.8594,255.625 114.625,255.8906 Q114.3906,256.1563 114.0156,256.1563 Q113.6719,256.1563 113.4688,255.9531 Q113.2656,255.7656 113.1563,255.25 Q113.1094,254.8906 112.9219,254.7031 Q112.5938,254.3281 111.9844,254.1094 Q111.375,253.8906 110.75,253.8906 Q109.9844,253.8906 109.3438,254.2188 Q108.7188,254.5469 108.2188,255.2969 Q107.7344,256.0469 107.7344,257.0781 L107.7344,258.1719 Q107.7344,259.4063 108.625,260.2344 Q109.5156,261.0469 111.1094,261.0469 Q112.0469,261.0469 112.7031,260.7969 Q113.0938,260.6406 113.5156,260.2031 Q113.7813,259.9375 113.9219,259.8594 Q114.0781,259.7813 114.2813,259.7813 Q114.6094,259.7813 114.8594,260.0469 Q115.125,260.2969 115.125,260.6406 Q115.125,260.9844 114.7813,261.3906 Q114.2813,261.9688 113.4844,262.2969 Q112.4063,262.75 111.1094,262.75 Q109.5938,262.75 108.3906,262.125 Q107.4063,261.625 106.7188,260.5625 Q106.0313,259.4844 106.0313,258.2031 L106.0313,257.0469 Q106.0313,255.7188 106.6406,254.5781 Q107.2656,253.4219 108.3594,252.8125 Q109.4531,252.1875 110.6875,252.1875 Q111.4219,252.1875 112.0625,252.3594 Q112.7188,252.5156 113.2656,252.875 Z " fill="#000000"/><text fill="#000000" font-family="sans-serif" font-size="14" lengthAdjust="spacing" textLength="118.2959" x="124.5" y="262.7969">ApplicationSession</text><line style="stroke:#181818;stroke-width:0.5;" x1="96.5" x2="244.7959" y1="273" y2="273"/><line style="stroke:#181818;stroke-width:0.5;" x1="96.5" x2="244.7959" y1="281" y2="281"/><text fill="#000000" font-family="sans-serif" font-size="14" lengthAdjust="spacing" textLength="132.2822" x="101.5" y="300.1074">-ApplicationSession()</text><text fill="#000000" font-family="sans-serif" font-size="14" lengthAdjust="spacing" text-decoration="underline" textLength="89.8857" x="101.5" y="318.7285">+getInstance()</text><text fill="#000000" font-family="sans-serif" font-size="14" lengthAdjust="spacing" textLength="133.4512" x="101.5" y="337.3496">+getCurrentSession()</text></g><!--class UserSession--><g id="elem_UserSession"><rect codeLine="18" fill="#F1F1F1" height="85.2422" id="UserSession" rx="2.5" ry="2.5" style="stroke:#181818;stroke-width:0.5;" width="125.2168" x="26" y="470.5"/><ellipse cx="47.2332" cy="486.5" fill="#ADD1B2" rx="11" ry="11" style="stroke:#181818;stroke-width:1.0;"/><path d="M49.9988,482.375 Q50.1551,482.1563 50.3426,482.0469 Q50.5301,481.9375 50.7488,481.9375 Q51.1238,481.9375 51.3582,482.2031 Q51.5926,482.4531 51.5926,483.0625 L51.5926,484.5156 Q51.5926,485.125 51.3582,485.3906 Q51.1238,485.6563 50.7488,485.6563 Q50.4051,485.6563 50.202,485.4531 Q49.9988,485.2656 49.8895,484.75 Q49.8426,484.3906 49.6551,484.2031 Q49.327,483.8281 48.7176,483.6094 Q48.1082,483.3906 47.4832,483.3906 Q46.7176,483.3906 46.077,483.7188 Q45.452,484.0469 44.952,484.7969 Q44.4676,485.5469 44.4676,486.5781 L44.4676,487.6719 Q44.4676,488.9063 45.3582,489.7344 Q46.2488,490.5469 47.8426,490.5469 Q48.7801,490.5469 49.4363,490.2969 Q49.827,490.1406 50.2488,489.7031 Q50.5145,489.4375 50.6551,489.3594 Q50.8113,489.2813 51.0145,489.2813 Q51.3426,489.2813 51.5926,489.5469 Q51.8582,489.7969 51.8582,490.1406 Q51.8582,490.4844 51.5145,490.8906 Q51.0145,491.4688 50.2176,491.7969 Q49.1395,492.25 47.8426,492.25 Q46.327,492.25 45.1238,491.625 Q44.1395,491.125 43.452,490.0625 Q42.7645,488.9844 42.7645,487.7031 L42.7645,486.5469 Q42.7645,485.2188 43.3738,484.0781 Q43.9988,482.9219 45.0926,482.3125 Q46.1863,481.6875 47.4207,481.6875 Q48.1551,481.6875 48.7957,481.8594 Q49.452,482.0156 49.9988,482.375 Z " fill="#000000"/><text fill="#000000" font-family="sans-serif" font-size="14" lengthAdjust="spacing" textLength="79.3652" x="62.6184" y="492.2969">UserSession</text><line style="stroke:#181818;stroke-width:0.5;" x1="27" x2="150.2168" y1="502.5" y2="502.5"/><line style="stroke:#181818;stroke-width:0.5;" x1="27" x2="150.2168" y1="510.5" y2="510.5"/><text fill="#000000" font-family="sans-serif" font-size="14" lengthAdjust="spacing" textLength="76.6445" x="32" y="529.6074">+getPlayer()</text><text fill="#000000" font-family="sans-serif" font-size="14" lengthAdjust="spacing" textLength="113.2168" x="32" y="548.2285">+getCurrentDate()</text></g><!--class Player--><g id="elem_Player"><rect codeLine="24" fill="#F1F1F1" height="122.4844" id="Player" rx="2.5" ry="2.5" style="stroke:#181818;stroke-width:0.5;" width="163.3887" x="7" y="737"/><ellipse cx="64.603" cy="753" fill="#ADD1B2" rx="11" ry="11" style="stroke:#181818;stroke-width:1.0;"/><path d="M67.3687,748.875 Q67.5249,748.6563 67.7124,748.5469 Q67.8999,748.4375 68.1187,748.4375 Q68.4937,748.4375 68.728,748.7031 Q68.9624,748.9531 68.9624,749.5625 L68.9624,751.0156 Q68.9624,751.625 68.728,751.8906 Q68.4937,752.1563 68.1187,752.1563 Q67.7749,752.1563 67.5718,751.9531 Q67.3687,751.7656 67.2593,751.25 Q67.2124,750.8906 67.0249,750.7031 Q66.6968,750.3281 66.0874,750.1094 Q65.478,749.8906 64.853,749.8906 Q64.0874,749.8906 63.4468,750.2188 Q62.8218,750.5469 62.3218,751.2969 Q61.8374,752.0469 61.8374,753.0781 L61.8374,754.1719 Q61.8374,755.4063 62.728,756.2344 Q63.6187,757.0469 65.2124,757.0469 Q66.1499,757.0469 66.8062,756.7969 Q67.1968,756.6406 67.6187,756.2031 Q67.8843,755.9375 68.0249,755.8594 Q68.1812,755.7813 68.3843,755.7813 Q68.7124,755.7813 68.9624,756.0469 Q69.228,756.2969 69.228,756.6406 Q69.228,756.9844 68.8843,757.3906 Q68.3843,757.9688 67.5874,758.2969 Q66.5093,758.75 65.2124,758.75 Q63.6968,758.75 62.4937,758.125 Q61.5093,757.625 60.8218,756.5625 Q60.1343,755.4844 60.1343,754.2031 L60.1343,753.0469 Q60.1343,751.7188 60.7437,750.5781 Q61.3687,749.4219 62.4624,748.8125 Q63.5562,748.1875 64.7905,748.1875 Q65.5249,748.1875 66.1655,748.3594 Q66.8218,748.5156 67.3687,748.875 Z " fill="#000000"/><text fill="#000000" font-family="sans-serif" font-size="14" lengthAdjust="spacing" textLength="39.6826" x="85.103" y="758.7969">Player</text><line style="stroke:#181818;stroke-width:0.5;" x1="8" x2="169.3887" y1="769" y2="769"/><text fill="#000000" font-family="sans-serif" font-size="14" lengthAdjust="spacing" textLength="63.7998" x="13" y="788.1074">-id : String</text><text fill="#000000" font-family="sans-serif" font-size="14" lengthAdjust="spacing" textLength="87.9238" x="13" y="806.7285">-name : String</text><text fill="#000000" font-family="sans-serif" font-size="14" lengthAdjust="spacing" textLength="101.1924" x="13" y="825.3496">-budget : double</text><line style="stroke:#181818;stroke-width:0.5;" x1="8" x2="169.3887" y1="832.8633" y2="832.8633"/><text fill="#000000" font-family="sans-serif" font-size="14" lengthAdjust="spacing" textLength="151.3887" x="13" y="851.9707">+updateBudget(amount)</text></g><!--class Station--><g id="elem_Station"><rect codeLine="32" fill="#F1F1F1" height="178.3477" id="Station" rx="2.5" ry="2.5" style="stroke:#181818;stroke-width:0.5;" width="233.4229" x="813" y="424"/><ellipse cx="903.6685" cy="440" fill="#ADD1B2" rx="11" ry="11" style="stroke:#181818;stroke-width:1.0;"/><path d="M906.4341,435.875 Q906.5903,435.6563 906.7778,435.5469 Q906.9653,435.4375 907.1841,435.4375 Q907.5591,435.4375 907.7935,435.7031 Q908.0278,435.9531 908.0278,436.5625 L908.0278,438.0156 Q908.0278,438.625 907.7935,438.8906 Q907.5591,439.1563 907.1841,439.1563 Q906.8403,439.1563 906.6372,438.9531 Q906.4341,438.7656 906.3247,438.25 Q906.2778,437.8906 906.0903,437.7031 Q905.7622,437.3281 905.1528,437.1094 Q904.5435,436.8906 903.9185,436.8906 Q903.1528,436.8906 902.5122,437.2188 Q901.8872,437.5469 901.3872,438.2969 Q900.9028,439.0469 900.9028,440.0781 L900.9028,441.1719 Q900.9028,442.4063 901.7935,443.2344 Q902.6841,444.0469 904.2778,444.0469 Q905.2153,444.0469 905.8716,443.7969 Q906.2622,443.6406 906.6841,443.2031 Q906.9497,442.9375 907.0903,442.8594 Q907.2466,442.7813 907.4497,442.7813 Q907.7778,442.7813 908.0278,443.0469 Q908.2935,443.2969 908.2935,443.6406 Q908.2935,443.9844 907.9497,444.3906 Q907.4497,444.9688 906.6528,445.2969 Q905.5747,445.75 904.2778,445.75 Q902.7622,445.75 901.5591,445.125 Q900.5747,444.625 899.8872,443.5625 Q899.1997,442.4844 899.1997,441.2031 L899.1997,440.0469 Q899.1997,438.7188 899.8091,437.5781 Q900.4341,436.4219 901.5278,435.8125 Q902.6216,435.1875 903.856,435.1875 Q904.5903,435.1875 905.231,435.3594 Q905.8872,435.5156 906.4341,435.875 Z " fill="#000000"/><text fill="#000000" font-family="sans-serif" font-size="14" lengthAdjust="spacing" textLength="43.5859" x="924.1685" y="445.7969">Station</text><line style="stroke:#181818;stroke-width:0.5;" x1="814" x2="1045.4229" y1="456" y2="456"/><text fill="#000000" font-family="sans-serif" font-size="14" lengthAdjust="spacing" textLength="87.9238" x="819" y="475.1074">-name : String</text><text fill="#000000" font-family="sans-serif" font-size="14" lengthAdjust="spacing" textLength="117.5029" x="819" y="493.7285">-type : StationType</text><text fill="#000000" font-family="sans-serif" font-size="14" lengthAdjust="spacing" textLength="213.2471" x="819" y="512.3496">-buildings : List&lt;BuildingUpgrade&gt;</text><line style="stroke:#181818;stroke-width:0.5;" x1="814" x2="1045.4229" y1="519.8633" y2="519.8633"/><text fill="#000000" font-family="sans-serif" font-size="14" lengthAdjust="spacing" textLength="196.5264" x="819" y="538.9707">+addUpgrade(buildingUpgrade)</text><text fill="#000000" font-family="sans-serif" font-size="14" lengthAdjust="spacing" textLength="221.4229" x="819" y="557.5918">+validateUpgrade(buildingUpgrade)</text><text fill="#000000" font-family="sans-serif" font-size="14" lengthAdjust="spacing" textLength="93.7754" x="819" y="576.2129">+getBuildings()</text><text fill="#000000" font-family="sans-serif" font-size="14" lengthAdjust="spacing" textLength="111.6719" x="819" y="594.834">+getStationType()</text></g><!--class StationType--><g id="elem_StationType"><rect codeLine="43" fill="#F1F1F1" height="103.8633" id="StationType" rx="2.5" ry="2.5" style="stroke:#181818;stroke-width:0.5;" width="106.71" x="876" y="746"/><ellipse cx="891" cy="762" fill="#EB937F" rx="11" ry="11" style="stroke:#181818;stroke-width:1.0;"/><path d="M889.8594,762.7969 L889.8594,765.2969 L894.1875,765.2969 L894.1875,764.375 Q894.1875,763.7656 894.4219,763.5 Q894.6719,763.2344 895.0469,763.2344 Q895.4219,763.2344 895.6563,763.5 Q895.8906,763.7656 895.8906,764.375 L895.8906,767 L887.8906,767 Q887.2656,767 887,766.7656 Q886.75,766.5313 886.75,766.1406 Q886.75,765.7656 887.0156,765.5313 Q887.2813,765.2969 887.8906,765.2969 L888.1563,765.2969 L888.1563,758.6406 L887.8906,758.6406 Q887.2656,758.6406 887,758.4063 Q886.75,758.1719 886.75,757.7813 Q886.75,757.4063 887,757.1719 Q887.2656,756.9375 887.8906,756.9375 L895.5156,756.9375 L895.5156,759.5313 Q895.5156,760.1406 895.2813,760.4063 Q895.0625,760.6563 894.6719,760.6563 Q894.2969,760.6563 894.0625,760.4063 Q893.8281,760.1406 893.8281,759.5313 L893.8281,758.6406 L889.8594,758.6406 L889.8594,761.0938 L891.3438,761.0938 Q891.3438,760.4375 891.4688,760.25 Q891.7344,759.8438 892.2031,759.8438 Q892.5781,759.8438 892.8125,760.1094 Q893.0469,760.3594 893.0469,760.9688 L893.0469,762.9375 Q893.0469,763.4844 892.9219,763.6719 Q892.6563,764.0625 892.2031,764.0625 Q891.7344,764.0625 891.4688,763.6563 Q891.3438,763.4688 891.3438,762.7969 L889.8594,762.7969 Z " fill="#000000"/><text fill="#000000" font-family="sans-serif" font-size="14" lengthAdjust="spacing" textLength="74.71" x="905" y="767.7969">StationType</text><line style="stroke:#181818;stroke-width:0.5;" x1="877" x2="981.71" y1="778" y2="778"/><text fill="#000000" font-family="sans-serif" font-size="14" lengthAdjust="spacing" textLength="48.2275" x="882" y="797.1074">DEPOT</text><text fill="#000000" font-family="sans-serif" font-size="14" lengthAdjust="spacing" textLength="60.6689" x="882" y="815.7285">STATION</text><text fill="#000000" font-family="sans-serif" font-size="14" lengthAdjust="spacing" textLength="70.7861" x="882" y="834.3496">TERMINAL</text><line style="stroke:#181818;stroke-width:0.5;" x1="877" x2="981.71" y1="841.8633" y2="841.8633"/></g><!--class BuildingUpgrade--><g id="elem_BuildingUpgrade"><rect codeLine="49" fill="#F1F1F1" height="234.2109" id="BuildingUpgrade" rx="2.5" ry="2.5" style="stroke:#181818;stroke-width:0.5;" width="425.5947" x="251.5" y="681"/><ellipse cx="408.2891" cy="697" fill="#ADD1B2" rx="11" ry="11" style="stroke:#181818;stroke-width:1.0;"/><path d="M411.0547,692.875 Q411.2109,692.6563 411.3984,692.5469 Q411.5859,692.4375 411.8047,692.4375 Q412.1797,692.4375 412.4141,692.7031 Q412.6484,692.9531 412.6484,693.5625 L412.6484,695.0156 Q412.6484,695.625 412.4141,695.8906 Q412.1797,696.1563 411.8047,696.1563 Q411.4609,696.1563 411.2578,695.9531 Q411.0547,695.7656 410.9453,695.25 Q410.8984,694.8906 410.7109,694.7031 Q410.3828,694.3281 409.7734,694.1094 Q409.1641,693.8906 408.5391,693.8906 Q407.7734,693.8906 407.1328,694.2188 Q406.5078,694.5469 406.0078,695.2969 Q405.5234,696.0469 405.5234,697.0781 L405.5234,698.1719 Q405.5234,699.4063 406.4141,700.2344 Q407.3047,701.0469 408.8984,701.0469 Q409.8359,701.0469 410.4922,700.7969 Q410.8828,700.6406 411.3047,700.2031 Q411.5703,699.9375 411.7109,699.8594 Q411.8672,699.7813 412.0703,699.7813 Q412.3984,699.7813 412.6484,700.0469 Q412.9141,700.2969 412.9141,700.6406 Q412.9141,700.9844 412.5703,701.3906 Q412.0703,701.9688 411.2734,702.2969 Q410.1953,702.75 408.8984,702.75 Q407.3828,702.75 406.1797,702.125 Q405.1953,701.625 404.5078,700.5625 Q403.8203,699.4844 403.8203,698.2031 L403.8203,697.0469 Q403.8203,695.7188 404.4297,694.5781 Q405.0547,693.4219 406.1484,692.8125 Q407.2422,692.1875 408.4766,692.1875 Q409.2109,692.1875 409.8516,692.3594 Q410.5078,692.5156 411.0547,692.875 Z " fill="#000000"/><text fill="#000000" font-family="sans-serif" font-size="14" lengthAdjust="spacing" textLength="103.5166" x="428.7891" y="702.7969">BuildingUpgrade</text><line style="stroke:#181818;stroke-width:0.5;" x1="252.5" x2="676.0947" y1="713" y2="713"/><text fill="#000000" font-family="sans-serif" font-size="14" lengthAdjust="spacing" textLength="63.7998" x="257.5" y="732.1074">-id : String</text><text fill="#000000" font-family="sans-serif" font-size="14" lengthAdjust="spacing" textLength="87.9238" x="257.5" y="750.7285">-name : String</text><text fill="#000000" font-family="sans-serif" font-size="14" lengthAdjust="spacing" textLength="123.7305" x="257.5" y="769.3496">-type : BuildingType</text><text fill="#000000" font-family="sans-serif" font-size="14" lengthAdjust="spacing" textLength="84.0479" x="257.5" y="787.9707">-cost : double</text><text fill="#000000" font-family="sans-serif" font-size="14" lengthAdjust="spacing" textLength="133.8271" x="257.5" y="806.5918">-availableFrom : Date</text><text fill="#000000" font-family="sans-serif" font-size="14" lengthAdjust="spacing" textLength="120.6064" x="257.5" y="825.2129">-description : String</text><line style="stroke:#181818;stroke-width:0.5;" x1="252.5" x2="676.0947" y1="832.7266" y2="832.7266"/><text fill="#000000" font-family="sans-serif" font-size="14" lengthAdjust="spacing" textLength="413.5947" x="257.5" y="851.834">+BuildingUpgrade(id, name, type, cost, availableFrom, description)</text><text fill="#000000" font-family="sans-serif" font-size="14" lengthAdjust="spacing" textLength="65.748" x="257.5" y="870.4551">+getCost()</text><text fill="#000000" font-family="sans-serif" font-size="14" lengthAdjust="spacing" textLength="68.0859" x="257.5" y="889.0762">+getType()</text><text fill="#000000" font-family="sans-serif" font-size="14" lengthAdjust="spacing" textLength="126.4375" x="257.5" y="907.6973">+getAvailableFrom()</text></g><!--class BuildingType--><g id="elem_BuildingType"><rect codeLine="63" fill="#F1F1F1" height="234.2109" id="BuildingType" rx="2.5" ry="2.5" style="stroke:#181818;stroke-width:0.5;" width="134.917" x="397" y="994"/><ellipse cx="421.8908" cy="1010" fill="#EB937F" rx="11" ry="11" style="stroke:#181818;stroke-width:1.0;"/><path d="M420.7501,1010.7969 L420.7501,1013.2969 L425.0783,1013.2969 L425.0783,1012.375 Q425.0783,1011.7656 425.3126,1011.5 Q425.5626,1011.2344 425.9376,1011.2344 Q426.3126,1011.2344 426.547,1011.5 Q426.7814,1011.7656 426.7814,1012.375 L426.7814,1015 L418.7814,1015 Q418.1564,1015 417.8908,1014.7656 Q417.6408,1014.5313 417.6408,1014.1406 Q417.6408,1013.7656 417.9064,1013.5313 Q418.172,1013.2969 418.7814,1013.2969 L419.047,1013.2969 L419.047,1006.6406 L418.7814,1006.6406 Q418.1564,1006.6406 417.8908,1006.4063 Q417.6408,1006.1719 417.6408,1005.7813 Q417.6408,1005.4063 417.8908,1005.1719 Q418.1564,1004.9375 418.7814,1004.9375 L426.4064,1004.9375 L426.4064,1007.5313 Q426.4064,1008.1406 426.172,1008.4063 Q425.9533,1008.6563 425.5626,1008.6563 Q425.1876,1008.6563 424.9533,1008.4063 Q424.7189,1008.1406 424.7189,1007.5313 L424.7189,1006.6406 L420.7501,1006.6406 L420.7501,1009.0938 L422.2345,1009.0938 Q422.2345,1008.4375 422.3595,1008.25 Q422.6251,1007.8438 423.0939,1007.8438 Q423.4689,1007.8438 423.7033,1008.1094 Q423.9376,1008.3594 423.9376,1008.9688 L423.9376,1010.9375 Q423.9376,1011.4844 423.8126,1011.6719 Q423.547,1012.0625 423.0939,1012.0625 Q422.6251,1012.0625 422.3595,1011.6563 Q422.2345,1011.4688 422.2345,1010.7969 L420.7501,1010.7969 Z " fill="#000000"/><text fill="#000000" font-family="sans-serif" font-size="14" lengthAdjust="spacing" textLength="80.9375" x="438.0887" y="1015.7969">BuildingType</text><line style="stroke:#181818;stroke-width:0.5;" x1="398" x2="530.917" y1="1026" y2="1026"/><text fill="#000000" font-family="sans-serif" font-size="14" lengthAdjust="spacing" textLength="84.7998" x="403" y="1045.1074">TELEGRAPH</text><text fill="#000000" font-family="sans-serif" font-size="14" lengthAdjust="spacing" textLength="84.7998" x="403" y="1063.7285">TELEPHONE</text><text fill="#000000" font-family="sans-serif" font-size="14" lengthAdjust="spacing" textLength="91.0342" x="403" y="1082.3496">SMALL_CAFE</text><text fill="#000000" font-family="sans-serif" font-size="14" lengthAdjust="spacing" textLength="92.5859" x="403" y="1100.9707">LARGE_CAFE</text><text fill="#000000" font-family="sans-serif" font-size="14" lengthAdjust="spacing" textLength="70" x="403" y="1119.5918">CUSTOMS</text><text fill="#000000" font-family="sans-serif" font-size="14" lengthAdjust="spacing" textLength="97.2344" x="403" y="1138.2129">POST_OFFICE</text><text fill="#000000" font-family="sans-serif" font-size="14" lengthAdjust="spacing" textLength="100.3721" x="403" y="1156.834">SMALL_HOTEL</text><text fill="#000000" font-family="sans-serif" font-size="14" lengthAdjust="spacing" textLength="101.9238" x="403" y="1175.4551">LARGE_HOTEL</text><text fill="#000000" font-family="sans-serif" font-size="14" lengthAdjust="spacing" textLength="31.9033" x="403" y="1194.0762">SILO</text><text fill="#000000" font-family="sans-serif" font-size="14" lengthAdjust="spacing" textLength="122.917" x="403" y="1212.6973">LIQUID_STORAGE</text><line style="stroke:#181818;stroke-width:0.5;" x1="398" x2="530.917" y1="1220.2109" y2="1220.2109"/></g><!--class StationRepository--><g id="elem_StationRepository"><rect codeLine="76" fill="#F1F1F1" height="103.8633" id="StationRepository" rx="2.5" ry="2.5" style="stroke:#181818;stroke-width:0.5;" width="173.4854" x="843" y="241"/><ellipse cx="871.9421" cy="257" fill="#ADD1B2" rx="11" ry="11" style="stroke:#181818;stroke-width:1.0;"/><path d="M874.7077,252.875 Q874.864,252.6563 875.0515,252.5469 Q875.239,252.4375 875.4577,252.4375 Q875.8327,252.4375 876.0671,252.7031 Q876.3015,252.9531 876.3015,253.5625 L876.3015,255.0156 Q876.3015,255.625 876.0671,255.8906 Q875.8327,256.1563 875.4577,256.1563 Q875.114,256.1563 874.9108,255.9531 Q874.7077,255.7656 874.5983,255.25 Q874.5515,254.8906 874.364,254.7031 Q874.0358,254.3281 873.4265,254.1094 Q872.8171,253.8906 872.1921,253.8906 Q871.4265,253.8906 870.7858,254.2188 Q870.1608,254.5469 869.6608,255.2969 Q869.1765,256.0469 869.1765,257.0781 L869.1765,258.1719 Q869.1765,259.4063 870.0671,260.2344 Q870.9577,261.0469 872.5515,261.0469 Q873.489,261.0469 874.1452,260.7969 Q874.5358,260.6406 874.9577,260.2031 Q875.2233,259.9375 875.364,259.8594 Q875.5202,259.7813 875.7233,259.7813 Q876.0515,259.7813 876.3015,260.0469 Q876.5671,260.2969 876.5671,260.6406 Q876.5671,260.9844 876.2233,261.3906 Q875.7233,261.9688 874.9265,262.2969 Q873.8483,262.75 872.5515,262.75 Q871.0358,262.75 869.8327,262.125 Q868.8483,261.625 868.1608,260.5625 Q867.4733,259.4844 867.4733,258.2031 L867.4733,257.0469 Q867.4733,255.7188 868.0827,254.5781 Q868.7077,253.4219 869.8015,252.8125 Q870.8952,252.1875 872.1296,252.1875 Q872.864,252.1875 873.5046,252.3594 Q874.1608,252.5156 874.7077,252.875 Z " fill="#000000"/><text fill="#000000" font-family="sans-serif" font-size="14" lengthAdjust="spacing" textLength="110.5029" x="889.0403" y="262.7969">StationRepository</text><line style="stroke:#181818;stroke-width:0.5;" x1="844" x2="1015.4854" y1="273" y2="273"/><line style="stroke:#181818;stroke-width:0.5;" x1="844" x2="1015.4854" y1="281" y2="281"/><text fill="#000000" font-family="sans-serif" font-size="14" lengthAdjust="spacing" textLength="87.5479" x="849" y="300.1074">+getStations()</text><text fill="#000000" font-family="sans-serif" font-size="14" lengthAdjust="spacing" textLength="161.4854" x="849" y="318.7285">+getStationById(stationId)</text><text fill="#000000" font-family="sans-serif" font-size="14" lengthAdjust="spacing" textLength="145.1543" x="849" y="337.3496">+updateStation(station)</text></g><!--class BuildingUpgradeRepository--><g id="elem_BuildingUpgradeRepository"><rect codeLine="82" fill="#F1F1F1" height="85.2422" id="BuildingUpgradeRepository" rx="2.5" ry="2.5" style="stroke:#181818;stroke-width:0.5;" width="288.6504" x="430" y="250.5"/><ellipse cx="484.8584" cy="266.5" fill="#ADD1B2" rx="11" ry="11" style="stroke:#181818;stroke-width:1.0;"/><path d="M487.624,262.375 Q487.7803,262.1563 487.9678,262.0469 Q488.1553,261.9375 488.374,261.9375 Q488.749,261.9375 488.9834,262.2031 Q489.2178,262.4531 489.2178,263.0625 L489.2178,264.5156 Q489.2178,265.125 488.9834,265.3906 Q488.749,265.6563 488.374,265.6563 Q488.0303,265.6563 487.8271,265.4531 Q487.624,265.2656 487.5146,264.75 Q487.4678,264.3906 487.2803,264.2031 Q486.9521,263.8281 486.3428,263.6094 Q485.7334,263.3906 485.1084,263.3906 Q484.3428,263.3906 483.7021,263.7188 Q483.0771,264.0469 482.5771,264.7969 Q482.0928,265.5469 482.0928,266.5781 L482.0928,267.6719 Q482.0928,268.9063 482.9834,269.7344 Q483.874,270.5469 485.4678,270.5469 Q486.4053,270.5469 487.0615,270.2969 Q487.4521,270.1406 487.874,269.7031 Q488.1396,269.4375 488.2803,269.3594 Q488.4365,269.2813 488.6396,269.2813 Q488.9678,269.2813 489.2178,269.5469 Q489.4834,269.7969 489.4834,270.1406 Q489.4834,270.4844 489.1396,270.8906 Q488.6396,271.4688 487.8428,271.7969 Q486.7646,272.25 485.4678,272.25 Q483.9521,272.25 482.749,271.625 Q481.7646,271.125 481.0771,270.0625 Q480.3896,268.9844 480.3896,267.7031 L480.3896,266.5469 Q480.3896,265.2188 480.999,264.0781 Q481.624,262.9219 482.7178,262.3125 Q483.8115,261.6875 485.0459,261.6875 Q485.7803,261.6875 486.4209,261.8594 Q487.0771,262.0156 487.624,262.375 Z " fill="#000000"/><text fill="#000000" font-family="sans-serif" font-size="14" lengthAdjust="spacing" textLength="170.4336" x="505.3584" y="272.2969">BuildingUpgradeRepository</text><line style="stroke:#181818;stroke-width:0.5;" x1="431" x2="717.6504" y1="282.5" y2="282.5"/><line style="stroke:#181818;stroke-width:0.5;" x1="431" x2="717.6504" y1="290.5" y2="290.5"/><text fill="#000000" font-family="sans-serif" font-size="14" lengthAdjust="spacing" textLength="276.6504" x="436" y="309.6074">+getAvailableUpgrades(station, currentDate)</text><text fill="#000000" font-family="sans-serif" font-size="14" lengthAdjust="spacing" textLength="181.7334" x="436" y="328.2285">+getUpgradeById(upgradeId)</text></g><!--class Repositories--><g id="elem_Repositories"><rect codeLine="87" fill="#F1F1F1" height="122.4844" id="Repositories" rx="2.5" ry="2.5" style="stroke:#181818;stroke-width:0.5;" width="219.3955" x="895" y="30.5"/><ellipse cx="961.541" cy="46.5" fill="#ADD1B2" rx="11" ry="11" style="stroke:#181818;stroke-width:1.0;"/><path d="M964.3066,42.375 Q964.4629,42.1563 964.6504,42.0469 Q964.8379,41.9375 965.0566,41.9375 Q965.4316,41.9375 965.666,42.2031 Q965.9004,42.4531 965.9004,43.0625 L965.9004,44.5156 Q965.9004,45.125 965.666,45.3906 Q965.4316,45.6563 965.0566,45.6563 Q964.7129,45.6563 964.5098,45.4531 Q964.3066,45.2656 964.1973,44.75 Q964.1504,44.3906 963.9629,44.2031 Q963.6348,43.8281 963.0254,43.6094 Q962.416,43.3906 961.791,43.3906 Q961.0254,43.3906 960.3848,43.7188 Q959.7598,44.0469 959.2598,44.7969 Q958.7754,45.5469 958.7754,46.5781 L958.7754,47.6719 Q958.7754,48.9063 959.666,49.7344 Q960.5566,50.5469 962.1504,50.5469 Q963.0879,50.5469 963.7441,50.2969 Q964.1348,50.1406 964.5566,49.7031 Q964.8223,49.4375 964.9629,49.3594 Q965.1191,49.2813 965.3223,49.2813 Q965.6504,49.2813 965.9004,49.5469 Q966.166,49.7969 966.166,50.1406 Q966.166,50.4844 965.8223,50.8906 Q965.3223,51.4688 964.5254,51.7969 Q963.4473,52.25 962.1504,52.25 Q960.6348,52.25 959.4316,51.625 Q958.4473,51.125 957.7598,50.0625 Q957.0723,48.9844 957.0723,47.7031 L957.0723,46.5469 Q957.0723,45.2188 957.6816,44.0781 Q958.3066,42.9219 959.4004,42.3125 Q960.4941,41.6875 961.7285,41.6875 Q962.4629,41.6875 963.1035,41.8594 Q963.7598,42.0156 964.3066,42.375 Z " fill="#000000"/><text fill="#000000" font-family="sans-serif" font-size="14" lengthAdjust="spacing" textLength="77.8135" x="982.041" y="52.2969">Repositories</text><line style="stroke:#181818;stroke-width:0.5;" x1="896" x2="1113.3955" y1="62.5" y2="62.5"/><line style="stroke:#181818;stroke-width:0.5;" x1="896" x2="1113.3955" y1="70.5" y2="70.5"/><text fill="#000000" font-family="sans-serif" font-size="14" lengthAdjust="spacing" textLength="91.7998" x="901" y="89.6074">-Repositories()</text><text fill="#000000" font-family="sans-serif" font-size="14" lengthAdjust="spacing" text-decoration="underline" textLength="89.8857" x="901" y="108.2285">+getInstance()</text><text fill="#000000" font-family="sans-serif" font-size="14" lengthAdjust="spacing" textLength="147.4648" x="901" y="126.8496">+getStationRepository()</text><text fill="#000000" font-family="sans-serif" font-size="14" lengthAdjust="spacing" textLength="207.3955" x="901" y="145.4707">+getBuildingUpgradeRepository()</text></g><!--class UpgradeStationController--><g id="elem_UpgradeStationController"><rect codeLine="94" fill="#F1F1F1" height="141.1055" id="UpgradeStationController" rx="2.5" ry="2.5" style="stroke:#181818;stroke-width:0.5;" width="359.0742" x="263" y="21"/><ellipse cx="359.2979" cy="37" fill="#ADD1B2" rx="11" ry="11" style="stroke:#181818;stroke-width:1.0;"/><path d="M362.0635,32.875 Q362.2197,32.6563 362.4072,32.5469 Q362.5947,32.4375 362.8135,32.4375 Q363.1885,32.4375 363.4229,32.7031 Q363.6572,32.9531 363.6572,33.5625 L363.6572,35.0156 Q363.6572,35.625 363.4229,35.8906 Q363.1885,36.1563 362.8135,36.1563 Q362.4697,36.1563 362.2666,35.9531 Q362.0635,35.7656 361.9541,35.25 Q361.9072,34.8906 361.7197,34.7031 Q361.3916,34.3281 360.7822,34.1094 Q360.1729,33.8906 359.5479,33.8906 Q358.7822,33.8906 358.1416,34.2188 Q357.5166,34.5469 357.0166,35.2969 Q356.5322,36.0469 356.5322,37.0781 L356.5322,38.1719 Q356.5322,39.4063 357.4229,40.2344 Q358.3135,41.0469 359.9072,41.0469 Q360.8447,41.0469 361.501,40.7969 Q361.8916,40.6406 362.3135,40.2031 Q362.5791,39.9375 362.7197,39.8594 Q362.876,39.7813 363.0791,39.7813 Q363.4072,39.7813 363.6572,40.0469 Q363.9229,40.2969 363.9229,40.6406 Q363.9229,40.9844 363.5791,41.3906 Q363.0791,41.9688 362.2822,42.2969 Q361.2041,42.75 359.9072,42.75 Q358.3916,42.75 357.1885,42.125 Q356.2041,41.625 355.5166,40.5625 Q354.8291,39.4844 354.8291,38.2031 L354.8291,37.0469 Q354.8291,35.7188 355.4385,34.5781 Q356.0635,33.4219 357.1572,32.8125 Q358.251,32.1875 359.4854,32.1875 Q360.2197,32.1875 360.8604,32.3594 Q361.5166,32.5156 362.0635,32.875 Z " fill="#000000"/><text fill="#000000" font-family="sans-serif" font-size="14" lengthAdjust="spacing" textLength="157.9785" x="379.7979" y="42.7969">UpgradeStationController</text><line style="stroke:#181818;stroke-width:0.5;" x1="264" x2="621.0742" y1="53" y2="53"/><line style="stroke:#181818;stroke-width:0.5;" x1="264" x2="621.0742" y1="61" y2="61"/><text fill="#000000" font-family="sans-serif" font-size="14" lengthAdjust="spacing" textLength="175.4785" x="269" y="80.1074">+UpgradeStationController()</text><text fill="#000000" font-family="sans-serif" font-size="14" lengthAdjust="spacing" textLength="87.5479" x="269" y="98.7285">+getStations()</text><text fill="#000000" font-family="sans-serif" font-size="14" lengthAdjust="spacing" textLength="207.4023" x="269" y="117.3496">+getAvailableUpgrades(stationId)</text><text fill="#000000" font-family="sans-serif" font-size="14" lengthAdjust="spacing" textLength="228.4297" x="269" y="135.9707">+applyUpgrade(stationId, upgradeId)</text><text fill="#000000" font-family="sans-serif" font-size="14" lengthAdjust="spacing" textLength="347.0742" x="269" y="154.5918">-validateUpgradeCompatibility(station, buildingUpgrade)</text></g><!--class UpgradeStationUI--><g id="elem_UpgradeStationUI"><rect codeLine="102" fill="#F1F1F1" height="48" id="UpgradeStationUI" rx="2.5" ry="2.5" style="stroke:#181818;stroke-width:0.5;" width="143.2891" x="85" y="67.5"/><ellipse cx="100" cy="83.5" fill="#ADD1B2" rx="11" ry="11" style="stroke:#181818;stroke-width:1.0;"/><path d="M102.7656,79.375 Q102.9219,79.1563 103.1094,79.0469 Q103.2969,78.9375 103.5156,78.9375 Q103.8906,78.9375 104.125,79.2031 Q104.3594,79.4531 104.3594,80.0625 L104.3594,81.5156 Q104.3594,82.125 104.125,82.3906 Q103.8906,82.6563 103.5156,82.6563 Q103.1719,82.6563 102.9688,82.4531 Q102.7656,82.2656 102.6563,81.75 Q102.6094,81.3906 102.4219,81.2031 Q102.0938,80.8281 101.4844,80.6094 Q100.875,80.3906 100.25,80.3906 Q99.4844,80.3906 98.8438,80.7188 Q98.2188,81.0469 97.7188,81.7969 Q97.2344,82.5469 97.2344,83.5781 L97.2344,84.6719 Q97.2344,85.9063 98.125,86.7344 Q99.0156,87.5469 100.6094,87.5469 Q101.5469,87.5469 102.2031,87.2969 Q102.5938,87.1406 103.0156,86.7031 Q103.2813,86.4375 103.4219,86.3594 Q103.5781,86.2813 103.7813,86.2813 Q104.1094,86.2813 104.3594,86.5469 Q104.625,86.7969 104.625,87.1406 Q104.625,87.4844 104.2813,87.8906 Q103.7813,88.4688 102.9844,88.7969 Q101.9063,89.25 100.6094,89.25 Q99.0938,89.25 97.8906,88.625 Q96.9063,88.125 96.2188,87.0625 Q95.5313,85.9844 95.5313,84.7031 L95.5313,83.5469 Q95.5313,82.2188 96.1406,81.0781 Q96.7656,79.9219 97.8594,79.3125 Q98.9531,78.6875 100.1875,78.6875 Q100.9219,78.6875 101.5625,78.8594 Q102.2188,79.0156 102.7656,79.375 Z " fill="#000000"/><text fill="#000000" font-family="sans-serif" font-size="14" lengthAdjust="spacing" textLength="111.2891" x="114" y="89.2969">UpgradeStationUI</text><line style="stroke:#181818;stroke-width:0.5;" x1="86" x2="227.2891" y1="99.5" y2="99.5"/><line style="stroke:#181818;stroke-width:0.5;" x1="86" x2="227.2891" y1="107.5" y2="107.5"/></g><g id="elem_GMN14"><path d="M657.5,69 L657.5,113.582 L859.8779,113.582 L859.8779,79 L849.8779,69 L657.5,69 " fill="#FEFFDD" style="stroke:#181818;stroke-width:0.5;"/><path d="M849.8779,69 L849.8779,79 L859.8779,79 L849.8779,69 " fill="#FEFFDD" style="stroke:#181818;stroke-width:1.0;"/><text fill="#000000" font-family="sans-serif" font-size="13" lengthAdjust="spacing" textLength="181.3779" x="663.5" y="88.0283">Validates compatibility between</text><text fill="#000000" font-family="sans-serif" font-size="13" lengthAdjust="spacing" textLength="146.7134" x="663.5" y="105.3193">buildings and station type</text></g><g id="elem_GMN17"><path d="M603,473.5 L603,552.6641 A0,0 0 0 0 603,552.6641 L777.9243,552.6641 A0,0 0 0 0 777.9243,552.6641 L777.9243,483.5 L767.9243,473.5 L673.85,473.5 L596.59,335.52 L665.85,473.5 L603,473.5 A0,0 0 0 0 603,473.5 " fill="#FEFFDD" style="stroke:#181818;stroke-width:0.5;"/><path d="M767.9243,473.5 L767.9243,483.5 L777.9243,483.5 L767.9243,473.5 " fill="#FEFFDD" style="stroke:#181818;stroke-width:0.5;"/><text fill="#000000" font-family="sans-serif" font-size="13" lengthAdjust="spacing" textLength="153.9243" x="609" y="492.5283">Filters upgrades based on:</text><text fill="#000000" font-family="sans-serif" font-size="13" lengthAdjust="spacing" textLength="146.6816" x="609" y="509.8193">- Current date in scenario</text><text fill="#000000" font-family="sans-serif" font-size="13" lengthAdjust="spacing" textLength="123.5508" x="609" y="527.1104">- Station compatibility</text><text fill="#000000" font-family="sans-serif" font-size="13" lengthAdjust="spacing" textLength="141.5972" x="609" y="544.4014">- Mutual exclusivity rules</text></g><!--link UpgradeStationController to GMN14--><g id="link_UpgradeStationController_GMN14"><path d="M622.13,91.5 C639.56,91.5 653.17,91.5 653.17,91.5 C653.17,91.5 654.61,91.5 657.17,91.5 " fill="none" id="UpgradeStationController-GMN14" style="stroke:#181818;stroke-width:1.0;stroke-dasharray:7.0,7.0;"/></g><!--link UpgradeStationUI to UpgradeStationController--><g id="link_UpgradeStationUI_UpgradeStationController"><path codeLine="117" d="M228.27,91.5 C241.81,91.5 251.83,91.5 251.83,91.5 C251.83,91.5 250.08,91.5 256.77,91.5 " fill="none" id="UpgradeStationUI-to-UpgradeStationController" style="stroke:#181818;stroke-width:1.0;stroke-dasharray:7.0,7.0;"/><polygon fill="#181818" points="262.77,91.5,253.77,87.5,257.77,91.5,253.77,95.5,262.77,91.5" style="stroke:#181818;stroke-width:1.0;"/></g><!--link UpgradeStationController to ApplicationSession--><g id="link_UpgradeStationController_ApplicationSession"><path codeLine="119" d="M347.37,162.28 C312.13,188.12 277.6981,213.3713 245.1281,237.2613 " fill="none" id="UpgradeStationController-to-ApplicationSession" style="stroke:#181818;stroke-width:1.0;stroke-dasharray:7.0,7.0;"/><polygon fill="#181818" points="240.29,240.81,249.9129,238.7123,244.3217,237.8528,245.1813,232.2616,240.29,240.81" style="stroke:#181818;stroke-width:1.0;"/></g><!--link UpgradeStationController to UserSession--><g id="link_UpgradeStationController_UserSession"><path codeLine="120" d="M271.49,162.08 C176.57,200.69 77.5,241 77.5,241 C77.5,241 77.5,345 77.5,345 C77.5,345 82.0954,414.843 85.3554,464.303 " fill="none" id="UpgradeStationController-to-UserSession" style="stroke:#181818;stroke-width:1.0;stroke-dasharray:7.0,7.0;"/><polygon fill="#181818" points="85.75,470.29,89.1494,461.0464,85.4212,465.3008,81.1667,461.5726,85.75,470.29" style="stroke:#181818;stroke-width:1.0;"/></g><!--link UpgradeStationController to Station--><g id="link_UpgradeStationController_Station"><path codeLine="121" d="M580.46,162.18 C656.85,200.77 736.5,241 736.5,241 C736.5,241 806.7694,339.6728 863.0894,418.7528 " fill="none" id="UpgradeStationController-to-Station" style="stroke:#181818;stroke-width:1.0;stroke-dasharray:7.0,7.0;"/><polygon fill="#181818" points="866.57,423.64,864.6072,413.9887,863.6695,419.5673,858.0909,418.6296,866.57,423.64" style="stroke:#181818;stroke-width:1.0;"/></g><!--link UpgradeStationController to BuildingUpgrade--><g id="link_UpgradeStationController_BuildingUpgrade"><path codeLine="122" d="M428.38,162.4 C420.6,200.92 412.5,241 412.5,241 C412.5,241 412.5,345 412.5,345 C412.5,345 435.0546,541.0093 450.4546,674.9293 " fill="none" id="UpgradeStationController-to-BuildingUpgrade" style="stroke:#181818;stroke-width:1.0;stroke-dasharray:7.0,7.0;"/><polygon fill="#181818" points="451.14,680.89,454.0856,671.492,450.5688,675.9227,446.138,672.4059,451.14,680.89" style="stroke:#181818;stroke-width:1.0;"/></g><!--link UpgradeStationController to StationRepository--><g id="link_UpgradeStationController_StationRepository"><path codeLine="123" d="M622.02,155.83 C632.86,159.66 639.5,162 639.5,162 C639.5,162 791.5,192 791.5,192 C791.5,192 820.0721,212.6985 854.0221,237.3085 " fill="none" id="UpgradeStationController-to-StationRepository" style="stroke:#181818;stroke-width:1.0;stroke-dasharray:7.0,7.0;"/><polygon fill="#181818" points="858.88,240.83,853.9408,232.3092,854.8317,237.8955,849.2455,238.7864,858.88,240.83" style="stroke:#181818;stroke-width:1.0;"/></g><!--link UpgradeStationController to BuildingUpgradeRepository--><g id="link_UpgradeStationController_BuildingUpgradeRepository"><path codeLine="124" d="M488.67,162.28 C508.15,191.71 526.8604,219.9853 543.7104,245.4653 " fill="none" id="UpgradeStationController-to-BuildingUpgradeRepository" style="stroke:#181818;stroke-width:1.0;stroke-dasharray:7.0,7.0;"/><polygon fill="#181818" points="547.02,250.47,545.392,240.7566,544.262,246.2995,538.7192,245.1694,547.02,250.47" style="stroke:#181818;stroke-width:1.0;"/></g><!--link UpgradeStationController to Repositories--><g id="link_UpgradeStationController_Repositories"><path codeLine="125" d="M619.64,20.89 C641.87,12.03 657,6 657,6 C657,6 860,6 860,6 C860,6 872.6959,13.5152 895.8559,27.2152 " fill="none" id="UpgradeStationController-to-Repositories" style="stroke:#181818;stroke-width:1.0;stroke-dasharray:7.0,7.0;"/><polygon fill="#181818" points="901.02,30.27,895.3103,22.2451,896.7166,27.7244,891.2373,29.1306,901.02,30.27" style="stroke:#181818;stroke-width:1.0;"/></g><!--link Repositories to Repositories--><g id="link_Repositories_Repositories"><path codeLine="127" d="M1114.14,71.93 C1134.59,74.34 1149,80.87 1149,91.5 C1149,102.13 1140.5488,107.9578 1120.0988,110.3678 " fill="none" id="Repositories-to-Repositories" style="stroke:#181818;stroke-width:1.0;"/><polygon fill="#181818" points="1114.14,111.07,1123.5463,113.9892,1119.1056,110.4848,1122.61,106.0441,1114.14,111.07" style="stroke:#181818;stroke-width:1.0;"/><text fill="#000000" font-family="sans-serif" font-size="13" lengthAdjust="spacing" textLength="48.4199" x="1155" y="97.0283">instance</text><text fill="#000000" font-family="sans-serif" font-size="13" lengthAdjust="spacing" textLength="7.23" x="1122.4426" y="108.9042">1</text></g><!--link Repositories to StationRepository--><g id="link_Repositories_StationRepository"><path codeLine="128" d="M1020.22,152.67 C1025.7,173.63 1030.5,192 1030.5,192 C1030.5,192 1030.5,211 1030.5,211 C1030.5,211 1018.0314,221.007 997.8614,237.177 " fill="none" id="Repositories-to-StationRepository" style="stroke:#181818;stroke-width:1.0;"/><polygon fill="#181818" points="993.18,240.93,1002.704,238.4214,997.0811,237.8025,997.7001,232.1796,993.18,240.93" style="stroke:#181818;stroke-width:1.0;"/><text fill="#000000" font-family="sans-serif" font-size="13" lengthAdjust="spacing" textLength="100.439" x="1031.5" y="207.0283">stationRepository</text><text fill="#000000" font-family="sans-serif" font-size="13" lengthAdjust="spacing" textLength="7.23" x="994.2495" y="229.848">1</text></g><!--link Repositories to BuildingUpgradeRepository--><g id="link_Repositories_BuildingUpgradeRepository"><path codeLine="129" d="M894.89,152.48 C884.36,158.25 877.5,162 877.5,162 C877.5,162 765.7641,209.9446 677.1341,247.9646 " fill="none" id="Repositories-to-BuildingUpgradeRepository" style="stroke:#181818;stroke-width:1.0;"/><polygon fill="#181818" points="671.62,250.33,681.468,250.458,676.2151,248.3588,678.3142,243.1059,671.62,250.33" style="stroke:#181818;stroke-width:1.0;"/><text fill="#000000" font-family="sans-serif" font-size="13" lengthAdjust="spacing" textLength="156.8188" x="805.5" y="207.0283">buildingUpgradeRepository</text><text fill="#000000" font-family="sans-serif" font-size="13" lengthAdjust="spacing" textLength="7.23" x="679.5869" y="239.207">1</text></g><!--link ApplicationSession to ApplicationSession--><g id="link_ApplicationSession_ApplicationSession"><path codeLine="131" d="M245.56,276.27 C265.44,277.23 280.5,282.8 280.5,293 C280.5,303.2 271.433,308.4806 251.553,309.4406 " fill="none" id="ApplicationSession-to-ApplicationSession" style="stroke:#181818;stroke-width:1.0;"/><polygon fill="#181818" points="245.56,309.73,254.7425,313.2912,250.5542,309.4888,254.3566,305.3006,245.56,309.73" style="stroke:#181818;stroke-width:1.0;"/><text fill="#000000" font-family="sans-serif" font-size="13" lengthAdjust="spacing" textLength="48.4199" x="286.5" y="298.5283">instance</text><text fill="#000000" font-family="sans-serif" font-size="13" lengthAdjust="spacing" textLength="7.23" x="253.6581" y="307.6291">1</text></g><!--link ApplicationSession to UserSession--><g id="link_ApplicationSession_UserSession"><path codeLine="132" d="M151.27,345.11 C136.93,383.24 119.6924,429.0742 106.2824,464.7242 " fill="none" id="ApplicationSession-to-UserSession" style="stroke:#181818;stroke-width:1.0;stroke-dasharray:7.0,7.0;"/><polygon fill="#181818" points="104.17,470.34,111.0825,463.3245,105.9304,465.6601,103.5948,460.508,104.17,470.34" style="stroke:#181818;stroke-width:1.0;"/></g><!--link StationRepository to Station--><g id="link_StationRepository_Station"><path codeLine="134" d="M929.5,345.11 C929.5,368.52 929.5,390.94 929.5,417.65 " fill="none" id="StationRepository-to-Station" style="stroke:#181818;stroke-width:1.0;"/><polygon fill="#181818" points="929.5,423.65,933.5,414.65,929.5,418.65,925.5,414.65,929.5,423.65" style="stroke:#181818;stroke-width:1.0;"/><text fill="#000000" font-family="sans-serif" font-size="13" lengthAdjust="spacing" textLength="44.8018" x="930.5" y="390.0283">stations</text><text fill="#000000" font-family="sans-serif" font-size="13" lengthAdjust="spacing" textLength="5.0591" x="924.2863" y="412.8786">*</text></g><!--link BuildingUpgradeRepository to BuildingUpgrade--><g id="link_BuildingUpgradeRepository_BuildingUpgrade"><path codeLine="136" d="M544.88,335.85 C517.99,373.85 482.5,424 482.5,424 C482.5,424 475.6791,565.307 470.3991,674.777 " fill="none" id="BuildingUpgradeRepository-to-BuildingUpgrade" style="stroke:#181818;stroke-width:1.0;"/><polygon fill="#181818" points="470.11,680.77,474.5389,671.9732,470.3509,675.7758,466.5482,671.5877,470.11,680.77" style="stroke:#181818;stroke-width:1.0;"/><text fill="#000000" font-family="sans-serif" font-size="13" lengthAdjust="spacing" textLength="101.1816" x="483.5" y="518.5283">buildingUpgrades</text><text fill="#000000" font-family="sans-serif" font-size="13" lengthAdjust="spacing" textLength="5.0591" x="465.3241" y="669.7463">*</text></g><!--link Station to StationType--><g id="link_Station_StationType"><path codeLine="138" d="M929.5,602.38 C929.5,649.57 929.5,699.99 929.5,739.9 " fill="none" id="Station-to-StationType" style="stroke:#181818;stroke-width:1.0;"/><polygon fill="#181818" points="929.5,745.9,933.5,736.9,929.5,740.9,925.5,736.9,929.5,745.9" style="stroke:#181818;stroke-width:1.0;"/><text fill="#000000" font-family="sans-serif" font-size="13" lengthAdjust="spacing" textLength="24.5718" x="930.5" y="647.0283">type</text><text fill="#000000" font-family="sans-serif" font-size="13" lengthAdjust="spacing" textLength="7.23" x="922.0646" y="734.8139">1</text></g><!--link Station to BuildingUpgrade--><g id="link_Station_BuildingUpgrade"><path codeLine="139" d="M812.74,590.68 C802.26,597.56 795.5,602 795.5,602 C795.5,602 737.8797,635.9446 666.9897,677.7046 " fill="none" id="Station-to-BuildingUpgrade" style="stroke:#181818;stroke-width:1.0;"/><polygon fill="#181818" points="661.82,680.75,671.6048,679.6284,666.1281,678.2122,667.5443,672.7355,661.82,680.75" style="stroke:#181818;stroke-width:1.0;"/><text fill="#000000" font-family="sans-serif" font-size="13" lengthAdjust="spacing" textLength="51.3145" x="741.5" y="647.0283">buildings</text><text fill="#000000" font-family="sans-serif" font-size="13" lengthAdjust="spacing" textLength="5.0591" x="669.3155" y="669.725">*</text></g><!--link BuildingUpgrade to BuildingType--><g id="link_BuildingUpgrade_BuildingType"><path codeLine="141" d="M464.5,915.25 C464.5,940.95 464.5,962.19 464.5,987.89 " fill="none" id="BuildingUpgrade-to-BuildingType" style="stroke:#181818;stroke-width:1.0;"/><polygon fill="#181818" points="464.5,993.89,468.5,984.89,464.5,988.89,460.5,984.89,464.5,993.89" style="stroke:#181818;stroke-width:1.0;"/><text fill="#000000" font-family="sans-serif" font-size="13" lengthAdjust="spacing" textLength="24.5718" x="465.5" y="960.0283">type</text><text fill="#000000" font-family="sans-serif" font-size="13" lengthAdjust="spacing" textLength="7.23" x="457.2858" y="982.874">1</text></g><!--link UserSession to Player--><g id="link_UserSession_Player"><path codeLine="143" d="M88.5,555.76 C88.5,603.57 88.5,676.31 88.5,730.76 " fill="none" id="UserSession-to-Player" style="stroke:#181818;stroke-width:1.0;"/><polygon fill="#181818" points="88.5,736.76,92.5,727.76,88.5,731.76,84.5,727.76,88.5,736.76" style="stroke:#181818;stroke-width:1.0;"/><text fill="#000000" font-family="sans-serif" font-size="13" lengthAdjust="spacing" textLength="35.4072" x="89.5" y="647.0283">player</text><text fill="#000000" font-family="sans-serif" font-size="13" lengthAdjust="spacing" textLength="7.23" x="81.0861" y="725.7135">1</text></g><!--SRC=[bLPBJ-Cm4BxdLrXSA4j1kzTgLIcK5YArjDkaUqLER8g5QqUs0zj5_FTr72TnNbteoPxdDzzu9ZsNBuIbKC03E736asV13nWeaM6lrgGmUO5x7AeZnK3WH46sfww1V8Q8ln6s1q-GIbT32SFgc6AGSdhCBzvvZv8BnJt7Aw5GIbyfGU9CuI3XB2H_CVZkUUSKFocWE11a_wm08ZaSmfdd6H_Wfoab2Sn58POorxnxGF-kUbIZ2wEw1EzIQNdo0VPO1KnVM88hfPRDCY4mKxNRHvbl9x5e9Z8E6mgFMFI4k8KAk_w58IWn4WGc8DHrixsLCAZxqPB56T8HjHJnBDQDi5co5EdeDqOvWWUUCULa2fKflKhL5zWqOrAQHlfMPIGKQJkfjKiYrSyRAzYbUm4HdfOO849MD8gR9YKNhv2I7ET_p7GDPGxfykXWAtZ4B3kuY6s1j_FDEZAdCFAZOFrWpj5ykmeU_6LDIwkGBtR24bO6SHXBk7GwLCZWAoGKwlj2JvbMve_1gX2MYI2fwL2LmrRTWZWYQ6p0Z4twiKarRWOVkm7TLwXDNJOjZTNTTuCu_Be5MegY-N9-j_KtzzLjSxz-c1UKh_pbyd7cBuhhqj_UpUlhR1T6wrLepfjr63sk5ujWvdhUhtKynxM-Xy5oNIY2NxlWzb57slftyyupt-AKIwAuE8BtpkFfUr0tnm2DP74Eq4LZfAn9gRuOV3tzMIjIhPKi0-dMrLl1WMJj3AIiEEUGggnL6e9bzM1TuQSNMuUjKS_yTOfhBC12QGFDE5E2KrgjjCj1WnuOilSfjbchkmFrHZ-MKr5fny3XhE2cjNDc_91guvXGeevrCpgRQA38NQ2Bqph65RRV8VuqMAU1yDi2a7fOdTmWnkeDOsPiwXqB6G8MbHbnFOC8vDbipfWhfHU8JZhO8XDnGQZ2GfPyI113YH7WR69viHyba4C3X06PO0O5uLPTVZ8QcArkbQaCKe3_93IJv3KlHcGKImThXxNhwJ1Btk13kjPkFP_ra_RkP_caePMUDcgn_Ac8JYk-4ljJRjF6i7jUOnzSJS7PZxFcZfZevXR3txArnjsbEIaVe0EertLu0qxQ0-M4yheDBO7tQ1puFTfslxrkDGRijwhEkZfDtd01fLVxBqAdC5dbR3CQ5VyFp10tJ4w6xQBgqEq6zfpgAqFxnt82KdFu1m00]--></g></svg>