<svg xmlns="http://www.w3.org/2000/svg" xmlns:xlink="http://www.w3.org/1999/xlink" contentStyleType="text/css" height="1117px" preserveAspectRatio="none" style="width:1748px;height:1117px;background:#FFFFFF;" version="1.1" viewBox="0 0 1748 1117" width="1748px" zoomAndPan="magnify"><defs/><g><rect fill="#FFFFFF" height="952.4004" style="stroke:#181818;stroke-width:1.0;" width="10" x="241.9814" y="90.5332"/><rect fill="#FFFFFF" height="42.291" style="stroke:#181818;stroke-width:1.0;" width="10" x="246.9814" y="531.6074"/><rect fill="#FFFFFF" height="31.291" style="stroke:#181818;stroke-width:1.0;" width="10" x="630.4673" y="148.1152"/><rect fill="#FFFFFF" height="31.291" style="stroke:#181818;stroke-width:1.0;" width="10" x="630.4673" y="335.8613"/><rect fill="#FFFFFF" height="31.291" style="stroke:#181818;stroke-width:1.0;" width="10" x="734.2256" y="210.6973"/><rect fill="#FFFFFF" height="31.291" style="stroke:#181818;stroke-width:1.0;" width="10" x="734.2256" y="398.4434"/><rect fill="#FFFFFF" height="31.291" style="stroke:#181818;stroke-width:1.0;" width="10" x="856.2734" y="273.2793"/><rect fill="#FFFFFF" height="31.291" style="stroke:#181818;stroke-width:1.0;" width="10" x="856.2734" y="973.3516"/><rect fill="#FFFFFF" height="31.291" style="stroke:#181818;stroke-width:1.0;" width="10" x="996.6177" y="723.0234"/><rect fill="#FFFFFF" height="31.291" style="stroke:#181818;stroke-width:1.0;" width="10" x="1140.8584" y="785.6055"/><rect fill="#FFFFFF" height="31.291" style="stroke:#181818;stroke-width:1.0;" width="10" x="1272.6406" y="910.7695"/><rect fill="#FFFFFF" height="31.291" style="stroke:#181818;stroke-width:1.0;" width="10" x="1430.4917" y="461.0254"/><rect fill="#FFFFFF" height="31.291" style="stroke:#181818;stroke-width:1.0;" width="10" x="1666.832" y="848.1875"/><rect fill="none" height="907.1094" style="stroke:#000000;stroke-width:1.5;" width="1593.4878" x="149.0474" y="105.5332"/><line style="stroke:#181818;stroke-width:0.5;stroke-dasharray:5.0,5.0;" x1="246.0474" x2="246.0474" y1="57.2422" y2="1060.9336"/><line style="stroke:#181818;stroke-width:0.5;stroke-dasharray:5.0,5.0;" x1="634.5605" x2="634.5605" y1="57.2422" y2="1060.9336"/><line style="stroke:#181818;stroke-width:0.5;stroke-dasharray:5.0,5.0;" x1="738.374" x2="738.374" y1="57.2422" y2="1060.9336"/><line style="stroke:#181818;stroke-width:0.5;stroke-dasharray:5.0,5.0;" x1="861.0771" x2="861.0771" y1="57.2422" y2="1060.9336"/><line style="stroke:#181818;stroke-width:0.5;stroke-dasharray:5.0,5.0;" x1="1001.4697" x2="1001.4697" y1="57.2422" y2="1060.9336"/><line style="stroke:#181818;stroke-width:0.5;stroke-dasharray:5.0,5.0;" x1="1145.7656" x2="1145.7656" y1="57.2422" y2="1060.9336"/><line style="stroke:#181818;stroke-width:0.5;stroke-dasharray:5.0,5.0;" x1="1276.9512" x2="1276.9512" y1="57.2422" y2="1060.9336"/><line style="stroke:#181818;stroke-width:0.5;stroke-dasharray:5.0,5.0;" x1="1435.3301" x2="1435.3301" y1="57.2422" y2="1060.9336"/><line style="stroke:#181818;stroke-width:0.5;stroke-dasharray:5.0,5.0;" x1="1569.6533" x2="1569.6533" y1="57.2422" y2="1060.9336"/><line style="stroke:#181818;stroke-width:0.5;stroke-dasharray:5.0,5.0;" x1="1671.1289" x2="1671.1289" y1="57.2422" y2="1060.9336"/><rect fill="#E3E3E3" height="32.6211" rx="2.5" ry="2.5" style="stroke:#181818;stroke-width:0.5;" width="175.8682" x="159.0474" y="23.6211"/><text fill="#000000" font-family="sans-serif" font-size="14" lengthAdjust="spacing" textLength="161.8682" x="166.0474" y="45.7285">:UpgradeStationController</text><rect fill="#E3E3E3" height="32.6211" rx="2.5" ry="2.5" style="stroke:#181818;stroke-width:0.5;" width="175.8682" x="159.0474" y="1059.9336"/><text fill="#000000" font-family="sans-serif" font-size="14" lengthAdjust="spacing" textLength="161.8682" x="166.0474" y="1082.041">:UpgradeStationController</text><rect fill="#E3E3E3" height="32.6211" rx="2.5" ry="2.5" style="stroke:#181818;stroke-width:0.5;" width="91.8135" x="589.5605" y="23.6211"/><text fill="#000000" font-family="sans-serif" font-size="14" lengthAdjust="spacing" textLength="77.8135" x="596.5605" y="45.7285">Repositories</text><rect fill="#E3E3E3" height="32.6211" rx="2.5" ry="2.5" style="stroke:#181818;stroke-width:0.5;" width="91.8135" x="589.5605" y="1059.9336"/><text fill="#000000" font-family="sans-serif" font-size="14" lengthAdjust="spacing" textLength="77.8135" x="596.5605" y="1082.041">Repositories</text><rect fill="#E3E3E3" height="51.2422" rx="2.5" ry="2.5" style="stroke:#181818;stroke-width:0.5;" width="95.7031" x="691.374" y="5"/><text fill="#000000" font-family="sans-serif" font-size="14" lengthAdjust="spacing" textLength="72.3652" x="703.043" y="27.1074">repositories</text><text fill="#000000" font-family="sans-serif" font-size="14" lengthAdjust="spacing" textLength="81.7031" x="698.374" y="45.7285">:Repositories</text><rect fill="#E3E3E3" height="51.2422" rx="2.5" ry="2.5" style="stroke:#181818;stroke-width:0.5;" width="95.7031" x="691.374" y="1059.9336"/><text fill="#000000" font-family="sans-serif" font-size="14" lengthAdjust="spacing" textLength="72.3652" x="703.043" y="1082.041">repositories</text><text fill="#000000" font-family="sans-serif" font-size="14" lengthAdjust="spacing" textLength="81.7031" x="698.374" y="1100.6621">:Repositories</text><rect fill="#E3E3E3" height="51.2422" rx="2.5" ry="2.5" style="stroke:#181818;stroke-width:0.5;" width="128.3926" x="797.0771" y="5"/><text fill="#000000" font-family="sans-serif" font-size="14" lengthAdjust="spacing" textLength="108.165" x="807.1909" y="27.1074">stationRepository</text><text fill="#000000" font-family="sans-serif" font-size="14" lengthAdjust="spacing" textLength="114.3926" x="804.0771" y="45.7285">:StationRepository</text><rect fill="#E3E3E3" height="51.2422" rx="2.5" ry="2.5" style="stroke:#181818;stroke-width:0.5;" width="128.3926" x="797.0771" y="1059.9336"/><text fill="#000000" font-family="sans-serif" font-size="14" lengthAdjust="spacing" textLength="108.165" x="807.1909" y="1082.041">stationRepository</text><text fill="#000000" font-family="sans-serif" font-size="14" lengthAdjust="spacing" textLength="114.3926" x="804.0771" y="1100.6621">:StationRepository</text><rect fill="#E3E3E3" height="32.6211" rx="2.5" ry="2.5" style="stroke:#181818;stroke-width:0.5;" width="132.2959" x="935.4697" y="23.6211"/><text fill="#000000" font-family="sans-serif" font-size="14" lengthAdjust="spacing" textLength="118.2959" x="942.4697" y="45.7285">ApplicationSession</text><rect fill="#E3E3E3" height="32.6211" rx="2.5" ry="2.5" style="stroke:#181818;stroke-width:0.5;" width="132.2959" x="935.4697" y="1059.9336"/><text fill="#000000" font-family="sans-serif" font-size="14" lengthAdjust="spacing" textLength="118.2959" x="942.4697" y="1082.041">ApplicationSession</text><rect fill="#E3E3E3" height="51.2422" rx="2.5" ry="2.5" style="stroke:#181818;stroke-width:0.5;" width="136.1855" x="1077.7656" y="5"/><text fill="#000000" font-family="sans-serif" font-size="14" lengthAdjust="spacing" textLength="73.165" x="1109.2759" y="27.1074">appSession</text><text fill="#000000" font-family="sans-serif" font-size="14" lengthAdjust="spacing" textLength="122.1855" x="1084.7656" y="45.7285">:ApplicationSession</text><rect fill="#E3E3E3" height="51.2422" rx="2.5" ry="2.5" style="stroke:#181818;stroke-width:0.5;" width="136.1855" x="1077.7656" y="1059.9336"/><text fill="#000000" font-family="sans-serif" font-size="14" lengthAdjust="spacing" textLength="73.165" x="1109.2759" y="1082.041">appSession</text><text fill="#000000" font-family="sans-serif" font-size="14" lengthAdjust="spacing" textLength="122.1855" x="1084.7656" y="1100.6621">:ApplicationSession</text><rect fill="#E3E3E3" height="51.2422" rx="2.5" ry="2.5" style="stroke:#181818;stroke-width:0.5;" width="107.3789" x="1223.9512" y="5"/><text fill="#000000" font-family="sans-serif" font-size="14" lengthAdjust="spacing" textLength="93.3789" x="1230.9512" y="27.1074">currentSession</text><text fill="#000000" font-family="sans-serif" font-size="14" lengthAdjust="spacing" textLength="83.2549" x="1236.0132" y="45.7285">:UserSession</text><rect fill="#E3E3E3" height="51.2422" rx="2.5" ry="2.5" style="stroke:#181818;stroke-width:0.5;" width="107.3789" x="1223.9512" y="1059.9336"/><text fill="#000000" font-family="sans-serif" font-size="14" lengthAdjust="spacing" textLength="93.3789" x="1230.9512" y="1082.041">currentSession</text><text fill="#000000" font-family="sans-serif" font-size="14" lengthAdjust="spacing" textLength="83.2549" x="1236.0132" y="1100.6621">:UserSession</text><rect fill="#E3E3E3" height="51.2422" rx="2.5" ry="2.5" style="stroke:#181818;stroke-width:0.5;" width="188.3232" x="1341.3301" y="5"/><text fill="#000000" font-family="sans-serif" font-size="14" lengthAdjust="spacing" textLength="168.8818" x="1351.0508" y="27.1074">buildingUpgradeRepository</text><text fill="#000000" font-family="sans-serif" font-size="14" lengthAdjust="spacing" textLength="174.3232" x="1348.3301" y="45.7285">:BuildingUpgradeRepository</text><rect fill="#E3E3E3" height="51.2422" rx="2.5" ry="2.5" style="stroke:#181818;stroke-width:0.5;" width="188.3232" x="1341.3301" y="1059.9336"/><text fill="#000000" font-family="sans-serif" font-size="14" lengthAdjust="spacing" textLength="168.8818" x="1351.0508" y="1082.041">buildingUpgradeRepository</text><text fill="#000000" font-family="sans-serif" font-size="14" lengthAdjust="spacing" textLength="174.3232" x="1348.3301" y="1100.6621">:BuildingUpgradeRepository</text><rect fill="#E3E3E3" height="51.2422" rx="2.5" ry="2.5" style="stroke:#181818;stroke-width:0.5;" width="61.4756" x="1539.6533" y="5"/><text fill="#000000" font-family="sans-serif" font-size="14" lengthAdjust="spacing" textLength="41.248" x="1549.7671" y="27.1074">station</text><text fill="#000000" font-family="sans-serif" font-size="14" lengthAdjust="spacing" textLength="47.4756" x="1546.6533" y="45.7285">:Station</text><rect fill="#E3E3E3" height="51.2422" rx="2.5" ry="2.5" style="stroke:#181818;stroke-width:0.5;" width="61.4756" x="1539.6533" y="1059.9336"/><text fill="#000000" font-family="sans-serif" font-size="14" lengthAdjust="spacing" textLength="41.248" x="1549.7671" y="1082.041">station</text><text fill="#000000" font-family="sans-serif" font-size="14" lengthAdjust="spacing" textLength="47.4756" x="1546.6533" y="1100.6621">:Station</text><rect fill="#E3E3E3" height="51.2422" rx="2.5" ry="2.5" style="stroke:#181818;stroke-width:0.5;" width="121.4063" x="1611.1289" y="5"/><text fill="#000000" font-family="sans-serif" font-size="14" lengthAdjust="spacing" textLength="101.9648" x="1620.8496" y="27.1074">buildingUpgrade</text><text fill="#000000" font-family="sans-serif" font-size="14" lengthAdjust="spacing" textLength="107.4063" x="1618.1289" y="45.7285">:BuildingUpgrade</text><rect fill="#E3E3E3" height="51.2422" rx="2.5" ry="2.5" style="stroke:#181818;stroke-width:0.5;" width="121.4063" x="1611.1289" y="1059.9336"/><text fill="#000000" font-family="sans-serif" font-size="14" lengthAdjust="spacing" textLength="101.9648" x="1620.8496" y="1082.041">buildingUpgrade</text><text fill="#000000" font-family="sans-serif" font-size="14" lengthAdjust="spacing" textLength="107.4063" x="1618.1289" y="1100.6621">:BuildingUpgrade</text><rect fill="#FFFFFF" height="952.4004" style="stroke:#181818;stroke-width:1.0;" width="10" x="241.9814" y="90.5332"/><rect fill="#FFFFFF" height="42.291" style="stroke:#181818;stroke-width:1.0;" width="10" x="246.9814" y="531.6074"/><rect fill="#FFFFFF" height="31.291" style="stroke:#181818;stroke-width:1.0;" width="10" x="630.4673" y="148.1152"/><rect fill="#FFFFFF" height="31.291" style="stroke:#181818;stroke-width:1.0;" width="10" x="630.4673" y="335.8613"/><rect fill="#FFFFFF" height="31.291" style="stroke:#181818;stroke-width:1.0;" width="10" x="734.2256" y="210.6973"/><rect fill="#FFFFFF" height="31.291" style="stroke:#181818;stroke-width:1.0;" width="10" x="734.2256" y="398.4434"/><rect fill="#FFFFFF" height="31.291" style="stroke:#181818;stroke-width:1.0;" width="10" x="856.2734" y="273.2793"/><rect fill="#FFFFFF" height="31.291" style="stroke:#181818;stroke-width:1.0;" width="10" x="856.2734" y="973.3516"/><rect fill="#FFFFFF" height="31.291" style="stroke:#181818;stroke-width:1.0;" width="10" x="996.6177" y="723.0234"/><rect fill="#FFFFFF" height="31.291" style="stroke:#181818;stroke-width:1.0;" width="10" x="1140.8584" y="785.6055"/><rect fill="#FFFFFF" height="31.291" style="stroke:#181818;stroke-width:1.0;" width="10" x="1272.6406" y="910.7695"/><rect fill="#FFFFFF" height="31.291" style="stroke:#181818;stroke-width:1.0;" width="10" x="1430.4917" y="461.0254"/><rect fill="#FFFFFF" height="31.291" style="stroke:#181818;stroke-width:1.0;" width="10" x="1666.832" y="848.1875"/><polygon fill="#181818" points="229.9814,86.5332,239.9814,90.5332,229.9814,94.5332,233.9814,90.5332" style="stroke:#181818;stroke-width:1.0;"/><line style="stroke:#181818;stroke-width:1.0;" x1="0" x2="235.9814" y1="90.5332" y2="90.5332"/><text fill="#000000" font-family="sans-serif" font-size="13" font-weight="bold" lengthAdjust="spacing" textLength="14.46" x="7" y="85.2705">11</text><text fill="#000000" font-family="sans-serif" font-size="13" lengthAdjust="spacing" textLength="204.5215" x="25.46" y="85.2705">applyUpgrade(stationId, upgradeId)</text><path d="M149.0474,105.5332 L286.501,105.5332 L286.501,114.8242 L276.501,124.8242 L149.0474,124.8242 L149.0474,105.5332 " fill="#EEEEEE" style="stroke:#000000;stroke-width:1.5;"/><rect fill="none" height="907.1094" style="stroke:#000000;stroke-width:1.5;" width="1593.4878" x="149.0474" y="105.5332"/><text fill="#000000" font-family="sans-serif" font-size="13" font-weight="bold" lengthAdjust="spacing" textLength="92.4536" x="164.0474" y="120.5615">Apply Upgrade</text><polygon fill="#181818" points="618.4673,144.1152,628.4673,148.1152,618.4673,152.1152,622.4673,148.1152" style="stroke:#181818;stroke-width:1.0;"/><line style="stroke:#181818;stroke-width:1.0;" x1="251.9814" x2="624.4673" y1="148.1152" y2="148.1152"/><text fill="#000000" font-family="sans-serif" font-size="13" font-weight="bold" lengthAdjust="spacing" textLength="25.3018" x="258.9814" y="142.8525">11.1</text><text fill="#000000" font-family="sans-serif" font-size="13" lengthAdjust="spacing" textLength="75.8735" x="288.2832" y="142.8525">getInstance()</text><polygon fill="#181818" points="262.9814,175.4063,252.9814,179.4063,262.9814,183.4063,258.9814,179.4063" style="stroke:#181818;stroke-width:1.0;"/><line style="stroke:#181818;stroke-width:1.0;stroke-dasharray:2.0,2.0;" x1="256.9814" x2="634.4673" y1="179.4063" y2="179.4063"/><text fill="#000000" font-family="sans-serif" font-size="13" font-weight="bold" lengthAdjust="spacing" textLength="25.3018" x="268.9814" y="174.1436">11.2</text><text fill="#000000" font-family="sans-serif" font-size="13" lengthAdjust="spacing" textLength="67.1963" x="298.2832" y="174.1436">repositories</text><polygon fill="#181818" points="722.2256,206.6973,732.2256,210.6973,722.2256,214.6973,726.2256,210.6973" style="stroke:#181818;stroke-width:1.0;"/><line style="stroke:#181818;stroke-width:1.0;" x1="251.9814" x2="728.2256" y1="210.6973" y2="210.6973"/><text fill="#000000" font-family="sans-serif" font-size="13" font-weight="bold" lengthAdjust="spacing" textLength="25.3018" x="258.9814" y="205.4346">11.3</text><text fill="#000000" font-family="sans-serif" font-size="13" lengthAdjust="spacing" textLength="129.3398" x="288.2832" y="205.4346">getStationRepository()</text><polygon fill="#181818" points="262.9814,237.9883,252.9814,241.9883,262.9814,245.9883,258.9814,241.9883" style="stroke:#181818;stroke-width:1.0;"/><line style="stroke:#181818;stroke-width:1.0;stroke-dasharray:2.0,2.0;" x1="256.9814" x2="738.2256" y1="241.9883" y2="241.9883"/><text fill="#000000" font-family="sans-serif" font-size="13" font-weight="bold" lengthAdjust="spacing" textLength="25.3018" x="268.9814" y="236.7256">11.4</text><text fill="#000000" font-family="sans-serif" font-size="13" lengthAdjust="spacing" textLength="100.439" x="298.2832" y="236.7256">stationRepository</text><polygon fill="#181818" points="844.2734,269.2793,854.2734,273.2793,844.2734,277.2793,848.2734,273.2793" style="stroke:#181818;stroke-width:1.0;"/><line style="stroke:#181818;stroke-width:1.0;" x1="251.9814" x2="850.2734" y1="273.2793" y2="273.2793"/><text fill="#000000" font-family="sans-serif" font-size="13" font-weight="bold" lengthAdjust="spacing" textLength="25.3018" x="258.9814" y="268.0166">11.5</text><text fill="#000000" font-family="sans-serif" font-size="13" lengthAdjust="spacing" textLength="142.3589" x="288.2832" y="268.0166">getStationById(stationId)</text><polygon fill="#181818" points="262.9814,300.5703,252.9814,304.5703,262.9814,308.5703,258.9814,304.5703" style="stroke:#181818;stroke-width:1.0;"/><line style="stroke:#181818;stroke-width:1.0;stroke-dasharray:2.0,2.0;" x1="256.9814" x2="860.2734" y1="304.5703" y2="304.5703"/><text fill="#000000" font-family="sans-serif" font-size="13" font-weight="bold" lengthAdjust="spacing" textLength="25.3018" x="268.9814" y="299.3076">11.6</text><text fill="#000000" font-family="sans-serif" font-size="13" lengthAdjust="spacing" textLength="38.3018" x="298.2832" y="299.3076">station</text><polygon fill="#181818" points="618.4673,331.8613,628.4673,335.8613,618.4673,339.8613,622.4673,335.8613" style="stroke:#181818;stroke-width:1.0;"/><line style="stroke:#181818;stroke-width:1.0;" x1="251.9814" x2="624.4673" y1="335.8613" y2="335.8613"/><text fill="#000000" font-family="sans-serif" font-size="13" font-weight="bold" lengthAdjust="spacing" textLength="25.3018" x="258.9814" y="330.5986">11.7</text><text fill="#000000" font-family="sans-serif" font-size="13" lengthAdjust="spacing" textLength="75.8735" x="288.2832" y="330.5986">getInstance()</text><polygon fill="#181818" points="262.9814,363.1523,252.9814,367.1523,262.9814,371.1523,258.9814,367.1523" style="stroke:#181818;stroke-width:1.0;"/><line style="stroke:#181818;stroke-width:1.0;stroke-dasharray:2.0,2.0;" x1="256.9814" x2="634.4673" y1="367.1523" y2="367.1523"/><text fill="#000000" font-family="sans-serif" font-size="13" font-weight="bold" lengthAdjust="spacing" textLength="25.3018" x="268.9814" y="361.8896">11.8</text><text fill="#000000" font-family="sans-serif" font-size="13" lengthAdjust="spacing" textLength="67.1963" x="298.2832" y="361.8896">repositories</text><polygon fill="#181818" points="722.2256,394.4434,732.2256,398.4434,722.2256,402.4434,726.2256,398.4434" style="stroke:#181818;stroke-width:1.0;"/><line style="stroke:#181818;stroke-width:1.0;" x1="251.9814" x2="728.2256" y1="398.4434" y2="398.4434"/><text fill="#000000" font-family="sans-serif" font-size="13" font-weight="bold" lengthAdjust="spacing" textLength="25.3018" x="258.9814" y="393.1807">11.9</text><text fill="#000000" font-family="sans-serif" font-size="13" lengthAdjust="spacing" textLength="184.9897" x="288.2832" y="393.1807">getBuildingUpgradeRepository()</text><polygon fill="#181818" points="262.9814,425.7344,252.9814,429.7344,262.9814,433.7344,258.9814,429.7344" style="stroke:#181818;stroke-width:1.0;"/><line style="stroke:#181818;stroke-width:1.0;stroke-dasharray:2.0,2.0;" x1="256.9814" x2="738.2256" y1="429.7344" y2="429.7344"/><text fill="#000000" font-family="sans-serif" font-size="13" font-weight="bold" lengthAdjust="spacing" textLength="32.5317" x="268.9814" y="424.4717">11.10</text><text fill="#000000" font-family="sans-serif" font-size="13" lengthAdjust="spacing" textLength="156.8188" x="305.5132" y="424.4717">buildingUpgradeRepository</text><polygon fill="#181818" points="1418.4917,457.0254,1428.4917,461.0254,1418.4917,465.0254,1422.4917,461.0254" style="stroke:#181818;stroke-width:1.0;"/><line style="stroke:#181818;stroke-width:1.0;" x1="251.9814" x2="1424.4917" y1="461.0254" y2="461.0254"/><text fill="#000000" font-family="sans-serif" font-size="13" font-weight="bold" lengthAdjust="spacing" textLength="32.5317" x="258.9814" y="455.7627">11.11</text><text fill="#000000" font-family="sans-serif" font-size="13" lengthAdjust="spacing" textLength="161.1606" x="295.5132" y="455.7627">getUpgradeById(upgradeId)</text><polygon fill="#181818" points="262.9814,488.3164,252.9814,492.3164,262.9814,496.3164,258.9814,492.3164" style="stroke:#181818;stroke-width:1.0;"/><line style="stroke:#181818;stroke-width:1.0;stroke-dasharray:2.0,2.0;" x1="256.9814" x2="1434.4917" y1="492.3164" y2="492.3164"/><text fill="#000000" font-family="sans-serif" font-size="13" font-weight="bold" lengthAdjust="spacing" textLength="32.5317" x="268.9814" y="487.0537">11.12</text><text fill="#000000" font-family="sans-serif" font-size="13" lengthAdjust="spacing" textLength="94.6816" x="305.5132" y="487.0537">buildingUpgrade</text><line style="stroke:#181818;stroke-width:1.0;" x1="251.9814" x2="298.9814" y1="518.6074" y2="518.6074"/><line style="stroke:#181818;stroke-width:1.0;" x1="298.9814" x2="298.9814" y1="518.6074" y2="531.6074"/><line style="stroke:#181818;stroke-width:1.0;" x1="257.9814" x2="298.9814" y1="531.6074" y2="531.6074"/><polygon fill="#181818" points="267.9814,527.6074,257.9814,531.6074,267.9814,535.6074,263.9814,531.6074" style="stroke:#181818;stroke-width:1.0;"/><text fill="#000000" font-family="sans-serif" font-size="13" font-weight="bold" lengthAdjust="spacing" textLength="32.5317" x="263.9814" y="513.3447">11.13</text><text fill="#000000" font-family="sans-serif" font-size="13" lengthAdjust="spacing" textLength="317.9541" x="300.5132" y="513.3447">validateUpgradeCompatibility(station, buildingUpgrade)</text><line style="stroke:#181818;stroke-width:1.0;stroke-dasharray:2.0,2.0;" x1="256.9814" x2="298.9814" y1="572.8984" y2="572.8984"/><line style="stroke:#181818;stroke-width:1.0;stroke-dasharray:2.0,2.0;" x1="298.9814" x2="298.9814" y1="572.8984" y2="585.8984"/><line style="stroke:#181818;stroke-width:1.0;stroke-dasharray:2.0,2.0;" x1="251.9814" x2="298.9814" y1="585.8984" y2="585.8984"/><polygon fill="#181818" points="261.9814,581.8984,251.9814,585.8984,261.9814,589.8984,257.9814,585.8984" style="stroke:#181818;stroke-width:1.0;"/><text fill="#000000" font-family="sans-serif" font-size="13" font-weight="bold" lengthAdjust="spacing" textLength="32.5317" x="263.9814" y="567.6357">11.14</text><text fill="#000000" font-family="sans-serif" font-size="13" lengthAdjust="spacing" textLength="133.6816" x="300.5132" y="567.6357">isCompatible (boolean)</text><polygon fill="#181818" points="1558.3911,608.1895,1568.3911,612.1895,1558.3911,616.1895,1562.3911,612.1895" style="stroke:#181818;stroke-width:1.0;"/><line style="stroke:#181818;stroke-width:1.0;" x1="251.9814" x2="1564.3911" y1="612.1895" y2="612.1895"/><text fill="#000000" font-family="sans-serif" font-size="13" font-weight="bold" lengthAdjust="spacing" textLength="32.5317" x="258.9814" y="606.9268">11.15</text><text fill="#000000" font-family="sans-serif" font-size="13" lengthAdjust="spacing" textLength="174.897" x="295.5132" y="606.9268">addUpgrade(buildingUpgrade)</text><rect fill="none" height="43.252" style="stroke:#000000;stroke-width:1.5;" width="148.7715" x="1536.6533" y="620.1895"/><path d="M1536.6533,620.1895 L1597.6533,620.1895 L1597.6533,629.1895 L1587.6533,639.1895 L1536.6533,639.1895 L1536.6533,620.1895 " fill="#EEEEEE" style="stroke:#000000;stroke-width:2.0;"/><text fill="#000000" font-family="sans-serif" font-size="13" font-weight="bold" lengthAdjust="spacing" textLength="16.6182" x="1549.6533" y="636.2178">ref</text><text fill="#000000" font-family="sans-serif" font-size="12" lengthAdjust="spacing" textLength="140.7715" x="1540.6533" y="656.1387">Validate and Add Upgrade</text><polygon fill="#181818" points="262.9814,687.7324,252.9814,691.7324,262.9814,695.7324,258.9814,691.7324" style="stroke:#181818;stroke-width:1.0;"/><line style="stroke:#181818;stroke-width:1.0;stroke-dasharray:2.0,2.0;" x1="256.9814" x2="1569.3911" y1="691.7324" y2="691.7324"/><text fill="#000000" font-family="sans-serif" font-size="13" font-weight="bold" lengthAdjust="spacing" textLength="32.5317" x="268.9814" y="686.4697">11.16</text><text fill="#000000" font-family="sans-serif" font-size="13" lengthAdjust="spacing" textLength="46.96" x="305.5132" y="686.4697">success</text><polygon fill="#181818" points="984.6177,719.0234,994.6177,723.0234,984.6177,727.0234,988.6177,723.0234" style="stroke:#181818;stroke-width:1.0;"/><line style="stroke:#181818;stroke-width:1.0;" x1="251.9814" x2="990.6177" y1="723.0234" y2="723.0234"/><text fill="#000000" font-family="sans-serif" font-size="13" font-weight="bold" lengthAdjust="spacing" textLength="32.5317" x="258.9814" y="717.7607">11.17</text><text fill="#000000" font-family="sans-serif" font-size="13" lengthAdjust="spacing" textLength="75.8735" x="295.5132" y="717.7607">getInstance()</text><polygon fill="#181818" points="262.9814,750.3145,252.9814,754.3145,262.9814,758.3145,258.9814,754.3145" style="stroke:#181818;stroke-width:1.0;"/><line style="stroke:#181818;stroke-width:1.0;stroke-dasharray:2.0,2.0;" x1="256.9814" x2="1000.6177" y1="754.3145" y2="754.3145"/><text fill="#000000" font-family="sans-serif" font-size="13" font-weight="bold" lengthAdjust="spacing" textLength="32.5317" x="268.9814" y="749.0518">11.18</text><text fill="#000000" font-family="sans-serif" font-size="13" lengthAdjust="spacing" textLength="67.939" x="305.5132" y="749.0518">appSession</text><polygon fill="#181818" points="1128.8584,781.6055,1138.8584,785.6055,1128.8584,789.6055,1132.8584,785.6055" style="stroke:#181818;stroke-width:1.0;"/><line style="stroke:#181818;stroke-width:1.0;" x1="251.9814" x2="1134.8584" y1="785.6055" y2="785.6055"/><text fill="#000000" font-family="sans-serif" font-size="13" font-weight="bold" lengthAdjust="spacing" textLength="32.5317" x="258.9814" y="780.3428">11.19</text><text fill="#000000" font-family="sans-serif" font-size="13" lengthAdjust="spacing" textLength="116.3271" x="295.5132" y="780.3428">getCurrentSession()</text><polygon fill="#181818" points="262.9814,812.8965,252.9814,816.8965,262.9814,820.8965,258.9814,816.8965" style="stroke:#181818;stroke-width:1.0;"/><line style="stroke:#181818;stroke-width:1.0;stroke-dasharray:2.0,2.0;" x1="256.9814" x2="1144.8584" y1="816.8965" y2="816.8965"/><text fill="#000000" font-family="sans-serif" font-size="13" font-weight="bold" lengthAdjust="spacing" textLength="32.5317" x="268.9814" y="811.6338">11.20</text><text fill="#000000" font-family="sans-serif" font-size="13" lengthAdjust="spacing" textLength="86.709" x="305.5132" y="811.6338">currentSession</text><polygon fill="#181818" points="1654.832,844.1875,1664.832,848.1875,1654.832,852.1875,1658.832,848.1875" style="stroke:#181818;stroke-width:1.0;"/><line style="stroke:#181818;stroke-width:1.0;" x1="251.9814" x2="1660.832" y1="848.1875" y2="848.1875"/><text fill="#000000" font-family="sans-serif" font-size="13" font-weight="bold" lengthAdjust="spacing" textLength="32.5317" x="258.9814" y="842.9248">11.21</text><text fill="#000000" font-family="sans-serif" font-size="13" lengthAdjust="spacing" textLength="53.46" x="295.5132" y="842.9248">getCost()</text><polygon fill="#181818" points="262.9814,875.4785,252.9814,879.4785,262.9814,883.4785,258.9814,879.4785" style="stroke:#181818;stroke-width:1.0;"/><line style="stroke:#181818;stroke-width:1.0;stroke-dasharray:2.0,2.0;" x1="256.9814" x2="1670.832" y1="879.4785" y2="879.4785"/><text fill="#000000" font-family="sans-serif" font-size="13" font-weight="bold" lengthAdjust="spacing" textLength="32.5317" x="268.9814" y="874.2158">11.22</text><text fill="#000000" font-family="sans-serif" font-size="13" lengthAdjust="spacing" textLength="23.8418" x="305.5132" y="874.2158">cost</text><polygon fill="#181818" points="1260.6406,906.7695,1270.6406,910.7695,1260.6406,914.7695,1264.6406,910.7695" style="stroke:#181818;stroke-width:1.0;"/><line style="stroke:#181818;stroke-width:1.0;" x1="251.9814" x2="1266.6406" y1="910.7695" y2="910.7695"/><text fill="#000000" font-family="sans-serif" font-size="13" font-weight="bold" lengthAdjust="spacing" textLength="32.5317" x="258.9814" y="905.5068">11.23</text><text fill="#000000" font-family="sans-serif" font-size="13" lengthAdjust="spacing" textLength="117.7935" x="295.5132" y="905.5068">updateBudget(-cost)</text><polygon fill="#181818" points="262.9814,938.0605,252.9814,942.0605,262.9814,946.0605,258.9814,942.0605" style="stroke:#181818;stroke-width:1.0;"/><line style="stroke:#181818;stroke-width:1.0;stroke-dasharray:2.0,2.0;" x1="256.9814" x2="1276.6406" y1="942.0605" y2="942.0605"/><text fill="#000000" font-family="sans-serif" font-size="13" font-weight="bold" lengthAdjust="spacing" textLength="32.5317" x="268.9814" y="936.7979">11.24</text><text fill="#000000" font-family="sans-serif" font-size="13" lengthAdjust="spacing" textLength="65.0508" x="305.5132" y="936.7979">newBudget</text><polygon fill="#181818" points="844.2734,969.3516,854.2734,973.3516,844.2734,977.3516,848.2734,973.3516" style="stroke:#181818;stroke-width:1.0;"/><line style="stroke:#181818;stroke-width:1.0;" x1="251.9814" x2="850.2734" y1="973.3516" y2="973.3516"/><text fill="#000000" font-family="sans-serif" font-size="13" font-weight="bold" lengthAdjust="spacing" textLength="32.5317" x="258.9814" y="968.0889">11.25</text><text fill="#000000" font-family="sans-serif" font-size="13" lengthAdjust="spacing" textLength="127.1943" x="295.5132" y="968.0889">updateStation(station)</text><polygon fill="#181818" points="262.9814,1000.6426,252.9814,1004.6426,262.9814,1008.6426,258.9814,1004.6426" style="stroke:#181818;stroke-width:1.0;"/><line style="stroke:#181818;stroke-width:1.0;stroke-dasharray:2.0,2.0;" x1="256.9814" x2="860.2734" y1="1004.6426" y2="1004.6426"/><text fill="#000000" font-family="sans-serif" font-size="13" font-weight="bold" lengthAdjust="spacing" textLength="32.5317" x="268.9814" y="999.3799">11.26</text><text fill="#000000" font-family="sans-serif" font-size="13" lengthAdjust="spacing" textLength="46.96" x="305.5132" y="999.3799">success</text><polygon fill="#181818" points="11,1038.9336,1,1042.9336,11,1046.9336,7,1042.9336" style="stroke:#181818;stroke-width:1.0;"/><line style="stroke:#181818;stroke-width:1.0;stroke-dasharray:2.0,2.0;" x1="5" x2="245.9814" y1="1042.9336" y2="1042.9336"/><text fill="#000000" font-family="sans-serif" font-size="13" font-weight="bold" lengthAdjust="spacing" textLength="14.46" x="17" y="1037.6709">12</text><text fill="#000000" font-family="sans-serif" font-size="13" lengthAdjust="spacing" textLength="46.96" x="35.46" y="1037.6709">success</text><!--SRC=[rLPTQzim57tthn1zIg0UP8zX398i34D9IvpiQL0KItL57Sb8Sal-_MHPiVLbDuozJ2y6-TvppfNkXyGReJNay0pEZBBYbRCp1f8tE17zdneMRx34kRnK671SI4ZBoZOGhn2n3q9By08hWPD4RKjIa1fI2UwMnxha42b_A0cZ6qObPrM5-Hs00cmE-mVNVezh9eXad62XJVRRfyVSjU6MpM-wZBiyvzdkvyFsyBXpdKKdf7UwA8JStzCm-M5ro1vtposSYx6gwueKsYV7GgYFTbWzFJtdsppFV4vOryPEaNtkF2QzQ3Z7L0vGHu6vZR4vxlVRtI4kujIG2gbhCXVY7C1wx9-6NH-pXnzAKkGap6aEPsYVt2H_oEfm9Gbi9AFD-OGvM2oIzBjE5h04wZ2hYt6P6VuCtOEcsyhGtFFziaXW8SaxbBXBEA1MoLbJW_OkBi20wVrsQI95gFD8CPPOPbGnqGBFvhrLZzbbAB1MvvWQpKjW9snlYB274ESVag5J4kJgg2GhZG9n5keWCoYDKQqMTA3QBXj7ylgIeU728ggTWhCbEv3fa0e6B2RJmVe_RdQq2F_T3O_sWB-wQQSlT34OO7tLLa46yjsMOejtGQtBzhJ75BkeWLu3z0uhWfIv0TgmSwtIw4Gg8Y_N_BptwI8nzBt4vHc8YBXYgz4vEp5MOKZdCU4QglyH0UtBgcs025tRNo3ISUNu1R1trGEl_HXuwvSv2G0f0Yk4WaxOBgp-AQGaLf5ECJP5eMQHQnTGNiEnnjre7GOdRWzO45asQEfC33Cb0o_h3cpmMsJxvRjnflEDOOnKS2IWI3qhNlT9S6DuiPeUgsqJ6nDoAg9-QiU2wA5itGfmIktm31WJwBrr56PJjxcyRf0IF4jRXWd5_bCf9jodiFHJ_D4HJGNXSup6uetCBX0pDQyTQIAMqRdvwVmq9JiHGtoE1kMTc4wXl_RhwwlU-PQcFgVN_Vu0]--></g></svg>