<svg xmlns="http://www.w3.org/2000/svg" xmlns:xlink="http://www.w3.org/1999/xlink" contentStyleType="text/css" height="792px" preserveAspectRatio="none" style="width:1274px;height:792px;background:#FFFFFF;" version="1.1" viewBox="0 0 1274 792" width="1274px" zoomAndPan="magnify"><defs/><g><rect fill="#FFFFFF" height="627.8203" style="stroke:#181818;stroke-width:1.0;" width="10" x="215.2261" y="90.5332"/><rect fill="#FFFFFF" height="31.291" style="stroke:#181818;stroke-width:1.0;" width="10" x="359.0669" y="148.1152"/><rect fill="#FFFFFF" height="31.291" style="stroke:#181818;stroke-width:1.0;" width="10" x="359.0669" y="523.6074"/><rect fill="#FFFFFF" height="31.291" style="stroke:#181818;stroke-width:1.0;" width="10" x="462.8252" y="210.6973"/><rect fill="#FFFFFF" height="31.291" style="stroke:#181818;stroke-width:1.0;" width="10" x="462.8252" y="586.1895"/><rect fill="#FFFFFF" height="31.291" style="stroke:#181818;stroke-width:1.0;" width="10" x="584.873" y="273.2793"/><rect fill="#FFFFFF" height="31.291" style="stroke:#181818;stroke-width:1.0;" width="10" x="725.2173" y="335.8613"/><rect fill="#FFFFFF" height="31.291" style="stroke:#181818;stroke-width:1.0;" width="10" x="869.458" y="398.4434"/><rect fill="#FFFFFF" height="31.291" style="stroke:#181818;stroke-width:1.0;" width="10" x="1001.2402" y="461.0254"/><rect fill="#FFFFFF" height="31.291" style="stroke:#181818;stroke-width:1.0;" width="10" x="1159.0913" y="648.7715"/><rect fill="none" height="582.5293" style="stroke:#000000;stroke-width:1.5;" width="1145.9609" x="122.292" y="105.5332"/><line style="stroke:#181818;stroke-width:0.5;stroke-dasharray:5.0,5.0;" x1="219.292" x2="219.292" y1="57.2422" y2="736.3535"/><line style="stroke:#181818;stroke-width:0.5;stroke-dasharray:5.0,5.0;" x1="363.1602" x2="363.1602" y1="57.2422" y2="736.3535"/><line style="stroke:#181818;stroke-width:0.5;stroke-dasharray:5.0,5.0;" x1="466.9736" x2="466.9736" y1="57.2422" y2="736.3535"/><line style="stroke:#181818;stroke-width:0.5;stroke-dasharray:5.0,5.0;" x1="589.6768" x2="589.6768" y1="57.2422" y2="736.3535"/><line style="stroke:#181818;stroke-width:0.5;stroke-dasharray:5.0,5.0;" x1="730.0693" x2="730.0693" y1="57.2422" y2="736.3535"/><line style="stroke:#181818;stroke-width:0.5;stroke-dasharray:5.0,5.0;" x1="874.3652" x2="874.3652" y1="57.2422" y2="736.3535"/><line style="stroke:#181818;stroke-width:0.5;stroke-dasharray:5.0,5.0;" x1="1005.5508" x2="1005.5508" y1="57.2422" y2="736.3535"/><line style="stroke:#181818;stroke-width:0.5;stroke-dasharray:5.0,5.0;" x1="1163.9297" x2="1163.9297" y1="57.2422" y2="736.3535"/><rect fill="#E3E3E3" height="32.6211" rx="2.5" ry="2.5" style="stroke:#181818;stroke-width:0.5;" width="175.8682" x="132.292" y="23.6211"/><text fill="#000000" font-family="sans-serif" font-size="14" lengthAdjust="spacing" textLength="161.8682" x="139.292" y="45.7285">:UpgradeStationController</text><rect fill="#E3E3E3" height="32.6211" rx="2.5" ry="2.5" style="stroke:#181818;stroke-width:0.5;" width="175.8682" x="132.292" y="735.3535"/><text fill="#000000" font-family="sans-serif" font-size="14" lengthAdjust="spacing" textLength="161.8682" x="139.292" y="757.4609">:UpgradeStationController</text><rect fill="#E3E3E3" height="32.6211" rx="2.5" ry="2.5" style="stroke:#181818;stroke-width:0.5;" width="91.8135" x="318.1602" y="23.6211"/><text fill="#000000" font-family="sans-serif" font-size="14" lengthAdjust="spacing" textLength="77.8135" x="325.1602" y="45.7285">Repositories</text><rect fill="#E3E3E3" height="32.6211" rx="2.5" ry="2.5" style="stroke:#181818;stroke-width:0.5;" width="91.8135" x="318.1602" y="735.3535"/><text fill="#000000" font-family="sans-serif" font-size="14" lengthAdjust="spacing" textLength="77.8135" x="325.1602" y="757.4609">Repositories</text><rect fill="#E3E3E3" height="51.2422" rx="2.5" ry="2.5" style="stroke:#181818;stroke-width:0.5;" width="95.7031" x="419.9736" y="5"/><text fill="#000000" font-family="sans-serif" font-size="14" lengthAdjust="spacing" textLength="72.3652" x="431.6426" y="27.1074">repositories</text><text fill="#000000" font-family="sans-serif" font-size="14" lengthAdjust="spacing" textLength="81.7031" x="426.9736" y="45.7285">:Repositories</text><rect fill="#E3E3E3" height="51.2422" rx="2.5" ry="2.5" style="stroke:#181818;stroke-width:0.5;" width="95.7031" x="419.9736" y="735.3535"/><text fill="#000000" font-family="sans-serif" font-size="14" lengthAdjust="spacing" textLength="72.3652" x="431.6426" y="757.4609">repositories</text><text fill="#000000" font-family="sans-serif" font-size="14" lengthAdjust="spacing" textLength="81.7031" x="426.9736" y="776.082">:Repositories</text><rect fill="#E3E3E3" height="51.2422" rx="2.5" ry="2.5" style="stroke:#181818;stroke-width:0.5;" width="128.3926" x="525.6768" y="5"/><text fill="#000000" font-family="sans-serif" font-size="14" lengthAdjust="spacing" textLength="108.165" x="535.7905" y="27.1074">stationRepository</text><text fill="#000000" font-family="sans-serif" font-size="14" lengthAdjust="spacing" textLength="114.3926" x="532.6768" y="45.7285">:StationRepository</text><rect fill="#E3E3E3" height="51.2422" rx="2.5" ry="2.5" style="stroke:#181818;stroke-width:0.5;" width="128.3926" x="525.6768" y="735.3535"/><text fill="#000000" font-family="sans-serif" font-size="14" lengthAdjust="spacing" textLength="108.165" x="535.7905" y="757.4609">stationRepository</text><text fill="#000000" font-family="sans-serif" font-size="14" lengthAdjust="spacing" textLength="114.3926" x="532.6768" y="776.082">:StationRepository</text><rect fill="#E3E3E3" height="32.6211" rx="2.5" ry="2.5" style="stroke:#181818;stroke-width:0.5;" width="132.2959" x="664.0693" y="23.6211"/><text fill="#000000" font-family="sans-serif" font-size="14" lengthAdjust="spacing" textLength="118.2959" x="671.0693" y="45.7285">ApplicationSession</text><rect fill="#E3E3E3" height="32.6211" rx="2.5" ry="2.5" style="stroke:#181818;stroke-width:0.5;" width="132.2959" x="664.0693" y="735.3535"/><text fill="#000000" font-family="sans-serif" font-size="14" lengthAdjust="spacing" textLength="118.2959" x="671.0693" y="757.4609">ApplicationSession</text><rect fill="#E3E3E3" height="51.2422" rx="2.5" ry="2.5" style="stroke:#181818;stroke-width:0.5;" width="136.1855" x="806.3652" y="5"/><text fill="#000000" font-family="sans-serif" font-size="14" lengthAdjust="spacing" textLength="73.165" x="837.8755" y="27.1074">appSession</text><text fill="#000000" font-family="sans-serif" font-size="14" lengthAdjust="spacing" textLength="122.1855" x="813.3652" y="45.7285">:ApplicationSession</text><rect fill="#E3E3E3" height="51.2422" rx="2.5" ry="2.5" style="stroke:#181818;stroke-width:0.5;" width="136.1855" x="806.3652" y="735.3535"/><text fill="#000000" font-family="sans-serif" font-size="14" lengthAdjust="spacing" textLength="73.165" x="837.8755" y="757.4609">appSession</text><text fill="#000000" font-family="sans-serif" font-size="14" lengthAdjust="spacing" textLength="122.1855" x="813.3652" y="776.082">:ApplicationSession</text><rect fill="#E3E3E3" height="51.2422" rx="2.5" ry="2.5" style="stroke:#181818;stroke-width:0.5;" width="107.3789" x="952.5508" y="5"/><text fill="#000000" font-family="sans-serif" font-size="14" lengthAdjust="spacing" textLength="93.3789" x="959.5508" y="27.1074">currentSession</text><text fill="#000000" font-family="sans-serif" font-size="14" lengthAdjust="spacing" textLength="83.2549" x="964.6128" y="45.7285">:UserSession</text><rect fill="#E3E3E3" height="51.2422" rx="2.5" ry="2.5" style="stroke:#181818;stroke-width:0.5;" width="107.3789" x="952.5508" y="735.3535"/><text fill="#000000" font-family="sans-serif" font-size="14" lengthAdjust="spacing" textLength="93.3789" x="959.5508" y="757.4609">currentSession</text><text fill="#000000" font-family="sans-serif" font-size="14" lengthAdjust="spacing" textLength="83.2549" x="964.6128" y="776.082">:UserSession</text><rect fill="#E3E3E3" height="51.2422" rx="2.5" ry="2.5" style="stroke:#181818;stroke-width:0.5;" width="188.3232" x="1069.9297" y="5"/><text fill="#000000" font-family="sans-serif" font-size="14" lengthAdjust="spacing" textLength="168.8818" x="1079.6504" y="27.1074">buildingUpgradeRepository</text><text fill="#000000" font-family="sans-serif" font-size="14" lengthAdjust="spacing" textLength="174.3232" x="1076.9297" y="45.7285">:BuildingUpgradeRepository</text><rect fill="#E3E3E3" height="51.2422" rx="2.5" ry="2.5" style="stroke:#181818;stroke-width:0.5;" width="188.3232" x="1069.9297" y="735.3535"/><text fill="#000000" font-family="sans-serif" font-size="14" lengthAdjust="spacing" textLength="168.8818" x="1079.6504" y="757.4609">buildingUpgradeRepository</text><text fill="#000000" font-family="sans-serif" font-size="14" lengthAdjust="spacing" textLength="174.3232" x="1076.9297" y="776.082">:BuildingUpgradeRepository</text><rect fill="#FFFFFF" height="627.8203" style="stroke:#181818;stroke-width:1.0;" width="10" x="215.2261" y="90.5332"/><rect fill="#FFFFFF" height="31.291" style="stroke:#181818;stroke-width:1.0;" width="10" x="359.0669" y="148.1152"/><rect fill="#FFFFFF" height="31.291" style="stroke:#181818;stroke-width:1.0;" width="10" x="359.0669" y="523.6074"/><rect fill="#FFFFFF" height="31.291" style="stroke:#181818;stroke-width:1.0;" width="10" x="462.8252" y="210.6973"/><rect fill="#FFFFFF" height="31.291" style="stroke:#181818;stroke-width:1.0;" width="10" x="462.8252" y="586.1895"/><rect fill="#FFFFFF" height="31.291" style="stroke:#181818;stroke-width:1.0;" width="10" x="584.873" y="273.2793"/><rect fill="#FFFFFF" height="31.291" style="stroke:#181818;stroke-width:1.0;" width="10" x="725.2173" y="335.8613"/><rect fill="#FFFFFF" height="31.291" style="stroke:#181818;stroke-width:1.0;" width="10" x="869.458" y="398.4434"/><rect fill="#FFFFFF" height="31.291" style="stroke:#181818;stroke-width:1.0;" width="10" x="1001.2402" y="461.0254"/><rect fill="#FFFFFF" height="31.291" style="stroke:#181818;stroke-width:1.0;" width="10" x="1159.0913" y="648.7715"/><polygon fill="#181818" points="203.2261,86.5332,213.2261,90.5332,203.2261,94.5332,207.2261,90.5332" style="stroke:#181818;stroke-width:1.0;"/><line style="stroke:#181818;stroke-width:1.0;" x1="0" x2="209.2261" y1="90.5332" y2="90.5332"/><text fill="#000000" font-family="sans-serif" font-size="13" font-weight="bold" lengthAdjust="spacing" textLength="7.23" x="7" y="85.2705">7</text><text fill="#000000" font-family="sans-serif" font-size="13" lengthAdjust="spacing" textLength="184.9961" x="18.23" y="85.2705">getAvailableUpgrades(stationId)</text><path d="M122.292,105.5332 L313.231,105.5332 L313.231,114.8242 L303.231,124.8242 L122.292,124.8242 L122.292,105.5332 " fill="#EEEEEE" style="stroke:#000000;stroke-width:1.5;"/><rect fill="none" height="582.5293" style="stroke:#000000;stroke-width:1.5;" width="1145.9609" x="122.292" y="105.5332"/><text fill="#000000" font-family="sans-serif" font-size="13" font-weight="bold" lengthAdjust="spacing" textLength="145.939" x="137.292" y="120.5615">Get Available Upgrades</text><polygon fill="#181818" points="347.0669,144.1152,357.0669,148.1152,347.0669,152.1152,351.0669,148.1152" style="stroke:#181818;stroke-width:1.0;"/><line style="stroke:#181818;stroke-width:1.0;" x1="225.2261" x2="353.0669" y1="148.1152" y2="148.1152"/><text fill="#000000" font-family="sans-serif" font-size="13" font-weight="bold" lengthAdjust="spacing" textLength="18.0718" x="232.2261" y="142.8525">7.1</text><text fill="#000000" font-family="sans-serif" font-size="13" lengthAdjust="spacing" textLength="75.8735" x="254.2979" y="142.8525">getInstance()</text><polygon fill="#181818" points="236.2261,175.4063,226.2261,179.4063,236.2261,183.4063,232.2261,179.4063" style="stroke:#181818;stroke-width:1.0;"/><line style="stroke:#181818;stroke-width:1.0;stroke-dasharray:2.0,2.0;" x1="230.2261" x2="363.0669" y1="179.4063" y2="179.4063"/><text fill="#000000" font-family="sans-serif" font-size="13" font-weight="bold" lengthAdjust="spacing" textLength="18.0718" x="242.2261" y="174.1436">7.2</text><text fill="#000000" font-family="sans-serif" font-size="13" lengthAdjust="spacing" textLength="67.1963" x="264.2979" y="174.1436">repositories</text><polygon fill="#181818" points="450.8252,206.6973,460.8252,210.6973,450.8252,214.6973,454.8252,210.6973" style="stroke:#181818;stroke-width:1.0;"/><line style="stroke:#181818;stroke-width:1.0;" x1="225.2261" x2="456.8252" y1="210.6973" y2="210.6973"/><text fill="#000000" font-family="sans-serif" font-size="13" font-weight="bold" lengthAdjust="spacing" textLength="18.0718" x="232.2261" y="205.4346">7.3</text><text fill="#000000" font-family="sans-serif" font-size="13" lengthAdjust="spacing" textLength="129.3398" x="254.2979" y="205.4346">getStationRepository()</text><polygon fill="#181818" points="236.2261,237.9883,226.2261,241.9883,236.2261,245.9883,232.2261,241.9883" style="stroke:#181818;stroke-width:1.0;"/><line style="stroke:#181818;stroke-width:1.0;stroke-dasharray:2.0,2.0;" x1="230.2261" x2="466.8252" y1="241.9883" y2="241.9883"/><text fill="#000000" font-family="sans-serif" font-size="13" font-weight="bold" lengthAdjust="spacing" textLength="18.0718" x="242.2261" y="236.7256">7.4</text><text fill="#000000" font-family="sans-serif" font-size="13" lengthAdjust="spacing" textLength="100.439" x="264.2979" y="236.7256">stationRepository</text><polygon fill="#181818" points="572.873,269.2793,582.873,273.2793,572.873,277.2793,576.873,273.2793" style="stroke:#181818;stroke-width:1.0;"/><line style="stroke:#181818;stroke-width:1.0;" x1="225.2261" x2="578.873" y1="273.2793" y2="273.2793"/><text fill="#000000" font-family="sans-serif" font-size="13" font-weight="bold" lengthAdjust="spacing" textLength="18.0718" x="232.2261" y="268.0166">7.5</text><text fill="#000000" font-family="sans-serif" font-size="13" lengthAdjust="spacing" textLength="142.3589" x="254.2979" y="268.0166">getStationById(stationId)</text><polygon fill="#181818" points="236.2261,300.5703,226.2261,304.5703,236.2261,308.5703,232.2261,304.5703" style="stroke:#181818;stroke-width:1.0;"/><line style="stroke:#181818;stroke-width:1.0;stroke-dasharray:2.0,2.0;" x1="230.2261" x2="588.873" y1="304.5703" y2="304.5703"/><text fill="#000000" font-family="sans-serif" font-size="13" font-weight="bold" lengthAdjust="spacing" textLength="18.0718" x="242.2261" y="299.3076">7.6</text><text fill="#000000" font-family="sans-serif" font-size="13" lengthAdjust="spacing" textLength="38.3018" x="264.2979" y="299.3076">station</text><polygon fill="#181818" points="713.2173,331.8613,723.2173,335.8613,713.2173,339.8613,717.2173,335.8613" style="stroke:#181818;stroke-width:1.0;"/><line style="stroke:#181818;stroke-width:1.0;" x1="225.2261" x2="719.2173" y1="335.8613" y2="335.8613"/><text fill="#000000" font-family="sans-serif" font-size="13" font-weight="bold" lengthAdjust="spacing" textLength="18.0718" x="232.2261" y="330.5986">7.7</text><text fill="#000000" font-family="sans-serif" font-size="13" lengthAdjust="spacing" textLength="75.8735" x="254.2979" y="330.5986">getInstance()</text><polygon fill="#181818" points="236.2261,363.1523,226.2261,367.1523,236.2261,371.1523,232.2261,367.1523" style="stroke:#181818;stroke-width:1.0;"/><line style="stroke:#181818;stroke-width:1.0;stroke-dasharray:2.0,2.0;" x1="230.2261" x2="729.2173" y1="367.1523" y2="367.1523"/><text fill="#000000" font-family="sans-serif" font-size="13" font-weight="bold" lengthAdjust="spacing" textLength="18.0718" x="242.2261" y="361.8896">7.8</text><text fill="#000000" font-family="sans-serif" font-size="13" lengthAdjust="spacing" textLength="67.939" x="264.2979" y="361.8896">appSession</text><polygon fill="#181818" points="857.458,394.4434,867.458,398.4434,857.458,402.4434,861.458,398.4434" style="stroke:#181818;stroke-width:1.0;"/><line style="stroke:#181818;stroke-width:1.0;" x1="225.2261" x2="863.458" y1="398.4434" y2="398.4434"/><text fill="#000000" font-family="sans-serif" font-size="13" font-weight="bold" lengthAdjust="spacing" textLength="18.0718" x="232.2261" y="393.1807">7.9</text><text fill="#000000" font-family="sans-serif" font-size="13" lengthAdjust="spacing" textLength="116.3271" x="254.2979" y="393.1807">getCurrentSession()</text><polygon fill="#181818" points="236.2261,425.7344,226.2261,429.7344,236.2261,433.7344,232.2261,429.7344" style="stroke:#181818;stroke-width:1.0;"/><line style="stroke:#181818;stroke-width:1.0;stroke-dasharray:2.0,2.0;" x1="230.2261" x2="873.458" y1="429.7344" y2="429.7344"/><text fill="#000000" font-family="sans-serif" font-size="13" font-weight="bold" lengthAdjust="spacing" textLength="25.3018" x="242.2261" y="424.4717">7.10</text><text fill="#000000" font-family="sans-serif" font-size="13" lengthAdjust="spacing" textLength="86.709" x="271.5278" y="424.4717">currentSession</text><polygon fill="#181818" points="989.2402,457.0254,999.2402,461.0254,989.2402,465.0254,993.2402,461.0254" style="stroke:#181818;stroke-width:1.0;"/><line style="stroke:#181818;stroke-width:1.0;" x1="225.2261" x2="995.2402" y1="461.0254" y2="461.0254"/><text fill="#000000" font-family="sans-serif" font-size="13" font-weight="bold" lengthAdjust="spacing" textLength="25.3018" x="232.2261" y="455.7627">7.11</text><text fill="#000000" font-family="sans-serif" font-size="13" lengthAdjust="spacing" textLength="97.5381" x="261.5278" y="455.7627">getCurrentDate()</text><polygon fill="#181818" points="236.2261,488.3164,226.2261,492.3164,236.2261,496.3164,232.2261,492.3164" style="stroke:#181818;stroke-width:1.0;"/><line style="stroke:#181818;stroke-width:1.0;stroke-dasharray:2.0,2.0;" x1="230.2261" x2="1005.2402" y1="492.3164" y2="492.3164"/><text fill="#000000" font-family="sans-serif" font-size="13" font-weight="bold" lengthAdjust="spacing" textLength="25.3018" x="242.2261" y="487.0537">7.12</text><text fill="#000000" font-family="sans-serif" font-size="13" lengthAdjust="spacing" textLength="67.9199" x="271.5278" y="487.0537">currentDate</text><polygon fill="#181818" points="347.0669,519.6074,357.0669,523.6074,347.0669,527.6074,351.0669,523.6074" style="stroke:#181818;stroke-width:1.0;"/><line style="stroke:#181818;stroke-width:1.0;" x1="225.2261" x2="353.0669" y1="523.6074" y2="523.6074"/><text fill="#000000" font-family="sans-serif" font-size="13" font-weight="bold" lengthAdjust="spacing" textLength="25.3018" x="232.2261" y="518.3447">7.13</text><text fill="#000000" font-family="sans-serif" font-size="13" lengthAdjust="spacing" textLength="75.8735" x="261.5278" y="518.3447">getInstance()</text><polygon fill="#181818" points="236.2261,550.8984,226.2261,554.8984,236.2261,558.8984,232.2261,554.8984" style="stroke:#181818;stroke-width:1.0;"/><line style="stroke:#181818;stroke-width:1.0;stroke-dasharray:2.0,2.0;" x1="230.2261" x2="363.0669" y1="554.8984" y2="554.8984"/><text fill="#000000" font-family="sans-serif" font-size="13" font-weight="bold" lengthAdjust="spacing" textLength="25.3018" x="242.2261" y="549.6357">7.14</text><text fill="#000000" font-family="sans-serif" font-size="13" lengthAdjust="spacing" textLength="67.1963" x="271.5278" y="549.6357">repositories</text><polygon fill="#181818" points="450.8252,582.1895,460.8252,586.1895,450.8252,590.1895,454.8252,586.1895" style="stroke:#181818;stroke-width:1.0;"/><line style="stroke:#181818;stroke-width:1.0;" x1="225.2261" x2="456.8252" y1="586.1895" y2="586.1895"/><text fill="#000000" font-family="sans-serif" font-size="13" font-weight="bold" lengthAdjust="spacing" textLength="25.3018" x="232.2261" y="580.9268">7.15</text><text fill="#000000" font-family="sans-serif" font-size="13" lengthAdjust="spacing" textLength="184.9897" x="261.5278" y="580.9268">getBuildingUpgradeRepository()</text><polygon fill="#181818" points="236.2261,613.4805,226.2261,617.4805,236.2261,621.4805,232.2261,617.4805" style="stroke:#181818;stroke-width:1.0;"/><line style="stroke:#181818;stroke-width:1.0;stroke-dasharray:2.0,2.0;" x1="230.2261" x2="466.8252" y1="617.4805" y2="617.4805"/><text fill="#000000" font-family="sans-serif" font-size="13" font-weight="bold" lengthAdjust="spacing" textLength="25.3018" x="242.2261" y="612.2178">7.16</text><text fill="#000000" font-family="sans-serif" font-size="13" lengthAdjust="spacing" textLength="156.8188" x="271.5278" y="612.2178">buildingUpgradeRepository</text><polygon fill="#181818" points="1147.0913,644.7715,1157.0913,648.7715,1147.0913,652.7715,1151.0913,648.7715" style="stroke:#181818;stroke-width:1.0;"/><line style="stroke:#181818;stroke-width:1.0;" x1="225.2261" x2="1153.0913" y1="648.7715" y2="648.7715"/><text fill="#000000" font-family="sans-serif" font-size="13" font-weight="bold" lengthAdjust="spacing" textLength="25.3018" x="232.2261" y="643.5088">7.17</text><text fill="#000000" font-family="sans-serif" font-size="13" lengthAdjust="spacing" textLength="249.2979" x="261.5278" y="643.5088">getAvailableUpgrades(station, currentDate)</text><polygon fill="#181818" points="236.2261,676.0625,226.2261,680.0625,236.2261,684.0625,232.2261,680.0625" style="stroke:#181818;stroke-width:1.0;"/><line style="stroke:#181818;stroke-width:1.0;stroke-dasharray:2.0,2.0;" x1="230.2261" x2="1163.0913" y1="680.0625" y2="680.0625"/><text fill="#000000" font-family="sans-serif" font-size="13" font-weight="bold" lengthAdjust="spacing" textLength="25.3018" x="242.2261" y="674.7998">7.18</text><text fill="#000000" font-family="sans-serif" font-size="13" lengthAdjust="spacing" textLength="107.6816" x="271.5278" y="674.7998">availableUpgrades</text><polygon fill="#181818" points="11,714.3535,1,718.3535,11,722.3535,7,718.3535" style="stroke:#181818;stroke-width:1.0;"/><line style="stroke:#181818;stroke-width:1.0;stroke-dasharray:2.0,2.0;" x1="5" x2="219.2261" y1="718.3535" y2="718.3535"/><text fill="#000000" font-family="sans-serif" font-size="13" font-weight="bold" lengthAdjust="spacing" textLength="7.23" x="17" y="713.0908">8</text><text fill="#000000" font-family="sans-serif" font-size="13" lengthAdjust="spacing" textLength="107.6816" x="28.23" y="713.0908">availableUpgrades</text><!--SRC=[rPLHYwCm483V_HLXdtRXFBYdEyfnq7RB8fIsg7qxAAdEkc5j4fAuH__zfUhfHECAoxsiBmKxyysdCnFrA-EIAdeX5y55zgB41OXH5GIw-qVIx9KMa9Xh2KH1PYWlIXoWNsWk_Z1Ua6TQQWW2UzkmZ4dA3RbR76MXQ6xpgM62hmKtIfGbg3j2DLcdyTQDZq4ApOnG37GT4cyE-yIDKIZcDr_uKqv9j7lQRjBzpatMZKYNTBM4P7YlnYJfCetskzCDvpAMKfOigtCIqDh-r0dBm-6KR98a6jQaKhPnjjXyyfHwLYa5tFIeemQ56UjZ76zsgL_YNB4ojsrg6-AyWDNKVpLsTOosZrQfUHC1hOpWrUKCYdmFmbzr4yc2562MRvILz5n2oz7txTkEyWStx-ktW6Q6lL43pH0GUnLAL98yWI4TYFmZrG6tgwvcgzPDRif6t9RX6Tm_T54Tl1aVWgucCMp55mHFKnUOmu3WhzztgZ4P3TAa4khnI0vHUytHt4ww8lJ86i-qexowHZdkriZQsGQix233VXvQc4_JOOqSqIRCznVl7BR242JLRwBF2yFUqngsVUqivepcHEVzUAJkRl-C_dipC3Wbd4Tuj1oV__1amUP3tjZvHlK93wcVOyad3yl_j-oJP_M7bjuvlsTEwY-uPvxdSRy5-6dSAdZdXhLy3p7c0i-RHq7VZH_rZPzXECt6usLZ_W80]--></g></svg>