<svg xmlns="http://www.w3.org/2000/svg" xmlns:xlink="http://www.w3.org/1999/xlink" contentStyleType="text/css" height="808px" preserveAspectRatio="none" style="width:1114px;height:808px;background:#FFFFFF;" version="1.1" viewBox="0 0 1114 808" width="1114px" zoomAndPan="magnify"><title>System Sequence Diagram (SSD) - US03 As an Editor, I want to add a city in a position XY of the selected map, with a name and a positive number of house blocks.</title><defs/><g><text fill="#000000" font-family="sans-serif" font-size="14" font-weight="bold" lengthAdjust="spacing" textLength="1086.7979" x="10" y="30.1074">System Sequence Diagram (SSD) - US03 As an Editor, I want to add a city in a position XY of the selected map, with a name and a positive number of house blocks.</text><rect fill="#FFFFFF" height="573.8691" style="stroke:#181818;stroke-width:1.0;" width="10" x="359.2886" y="133.2422"/><rect fill="#FFFFFF" height="31.291" style="stroke:#181818;stroke-width:1.0;" width="10" x="727.5127" y="156.5332"/><rect fill="#FFFFFF" height="31.291" style="stroke:#181818;stroke-width:1.0;" width="10" x="727.5127" y="219.1152"/><rect fill="#FFFFFF" height="62.582" style="stroke:#181818;stroke-width:1.0;" width="10" x="727.5127" y="281.6973"/><rect fill="#FFFFFF" height="31.291" style="stroke:#181818;stroke-width:1.0;" width="10" x="727.5127" y="375.5703"/><rect fill="#FFFFFF" height="31.291" style="stroke:#181818;stroke-width:1.0;" width="10" x="727.5127" y="438.1523"/><rect fill="#FFFFFF" height="57.582" style="stroke:#181818;stroke-width:1.0;" width="10" x="727.5127" y="500.7344"/><rect fill="#FFFFFF" height="117.5039" style="stroke:#181818;stroke-width:1.0;" width="10" x="727.5127" y="589.6074"/><rect fill="none" height="129.7949" style="stroke:#000000;stroke-width:1.5;" width="441.793" x="333.0024" y="515.7344"/><line style="stroke:#181818;stroke-width:0.5;stroke-dasharray:5.0,5.0;" x1="364.0024" x2="364.0024" y1="123.2422" y2="725.1113"/><line style="stroke:#181818;stroke-width:0.5;stroke-dasharray:5.0,5.0;" x1="732.23" x2="732.23" y1="123.2422" y2="725.1113"/><text fill="#000000" font-family="sans-serif" font-size="14" lengthAdjust="spacing" textLength="36.5723" x="343.0024" y="119.7285">Editor</text><ellipse cx="364.2886" cy="53.1211" fill="#E3E3E3" rx="8" ry="8" style="stroke:#181818;stroke-width:0.5;"/><path d="M364.2886,61.1211 L364.2886,88.1211 M351.2886,69.1211 L377.2886,69.1211 M364.2886,88.1211 L351.2886,103.1211 M364.2886,88.1211 L377.2886,103.1211 " fill="none" style="stroke:#181818;stroke-width:0.5;"/><text fill="#000000" font-family="sans-serif" font-size="14" lengthAdjust="spacing" textLength="36.5723" x="343.0024" y="739.2188">Editor</text><ellipse cx="364.2886" cy="751.2324" fill="#E3E3E3" rx="8" ry="8" style="stroke:#181818;stroke-width:0.5;"/><path d="M364.2886,759.2324 L364.2886,786.2324 M351.2886,767.2324 L377.2886,767.2324 M364.2886,786.2324 L351.2886,801.2324 M364.2886,786.2324 L377.2886,801.2324 " fill="none" style="stroke:#181818;stroke-width:0.5;"/><rect fill="#E3E3E3" height="32.6211" rx="2.5" ry="2.5" style="stroke:#181818;stroke-width:0.5;" width="64.5654" x="700.23" y="89.6211"/><text fill="#000000" font-family="sans-serif" font-size="14" lengthAdjust="spacing" textLength="50.5654" x="707.23" y="111.7285">:System</text><rect fill="#E3E3E3" height="32.6211" rx="2.5" ry="2.5" style="stroke:#181818;stroke-width:0.5;" width="64.5654" x="700.23" y="724.1113"/><text fill="#000000" font-family="sans-serif" font-size="14" lengthAdjust="spacing" textLength="50.5654" x="707.23" y="746.2188">:System</text><rect fill="#FFFFFF" height="573.8691" style="stroke:#181818;stroke-width:1.0;" width="10" x="359.2886" y="133.2422"/><rect fill="#FFFFFF" height="31.291" style="stroke:#181818;stroke-width:1.0;" width="10" x="727.5127" y="156.5332"/><rect fill="#FFFFFF" height="31.291" style="stroke:#181818;stroke-width:1.0;" width="10" x="727.5127" y="219.1152"/><rect fill="#FFFFFF" height="62.582" style="stroke:#181818;stroke-width:1.0;" width="10" x="727.5127" y="281.6973"/><rect fill="#FFFFFF" height="31.291" style="stroke:#181818;stroke-width:1.0;" width="10" x="727.5127" y="375.5703"/><rect fill="#FFFFFF" height="31.291" style="stroke:#181818;stroke-width:1.0;" width="10" x="727.5127" y="438.1523"/><rect fill="#FFFFFF" height="57.582" style="stroke:#181818;stroke-width:1.0;" width="10" x="727.5127" y="500.7344"/><rect fill="#FFFFFF" height="117.5039" style="stroke:#181818;stroke-width:1.0;" width="10" x="727.5127" y="589.6074"/><polygon fill="#181818" points="715.5127,152.5332,725.5127,156.5332,715.5127,160.5332,719.5127,156.5332" style="stroke:#181818;stroke-width:1.0;"/><line style="stroke:#181818;stroke-width:1.0;" x1="369.2886" x2="721.5127" y1="156.5332" y2="156.5332"/><text fill="#000000" font-family="sans-serif" font-size="13" font-weight="bold" lengthAdjust="spacing" textLength="7.23" x="376.2886" y="151.2705">1</text><text fill="#000000" font-family="sans-serif" font-size="13" lengthAdjust="spacing" textLength="123.5698" x="387.5186" y="151.2705">requests to add a city</text><polygon fill="#181818" points="380.2886,183.8242,370.2886,187.8242,380.2886,191.8242,376.2886,187.8242" style="stroke:#181818;stroke-width:1.0;"/><line style="stroke:#181818;stroke-width:1.0;stroke-dasharray:2.0,2.0;" x1="374.2886" x2="731.5127" y1="187.8242" y2="187.8242"/><text fill="#000000" font-family="sans-serif" font-size="13" font-weight="bold" lengthAdjust="spacing" textLength="7.23" x="386.2886" y="182.5615">2</text><text fill="#000000" font-family="sans-serif" font-size="13" lengthAdjust="spacing" textLength="133.6816" x="397.5186" y="182.5615">requests map selection</text><polygon fill="#181818" points="715.5127,215.1152,725.5127,219.1152,715.5127,223.1152,719.5127,219.1152" style="stroke:#181818;stroke-width:1.0;"/><line style="stroke:#181818;stroke-width:1.0;" x1="369.2886" x2="721.5127" y1="219.1152" y2="219.1152"/><text fill="#000000" font-family="sans-serif" font-size="13" font-weight="bold" lengthAdjust="spacing" textLength="7.23" x="376.2886" y="213.8525">3</text><text fill="#000000" font-family="sans-serif" font-size="13" lengthAdjust="spacing" textLength="69.3608" x="387.5186" y="213.8525">selects map</text><polygon fill="#181818" points="380.2886,246.4063,370.2886,250.4063,380.2886,254.4063,376.2886,250.4063" style="stroke:#181818;stroke-width:1.0;"/><line style="stroke:#181818;stroke-width:1.0;stroke-dasharray:2.0,2.0;" x1="374.2886" x2="731.5127" y1="250.4063" y2="250.4063"/><text fill="#000000" font-family="sans-serif" font-size="13" font-weight="bold" lengthAdjust="spacing" textLength="7.23" x="386.2886" y="245.1436">4</text><text fill="#000000" font-family="sans-serif" font-size="13" lengthAdjust="spacing" textLength="109.1035" x="397.5186" y="245.1436">requests city name</text><polygon fill="#181818" points="715.5127,277.6973,725.5127,281.6973,715.5127,285.6973,719.5127,281.6973" style="stroke:#181818;stroke-width:1.0;"/><line style="stroke:#181818;stroke-width:1.0;" x1="369.2886" x2="721.5127" y1="281.6973" y2="281.6973"/><text fill="#000000" font-family="sans-serif" font-size="13" font-weight="bold" lengthAdjust="spacing" textLength="7.23" x="376.2886" y="276.4346">5</text><text fill="#000000" font-family="sans-serif" font-size="13" lengthAdjust="spacing" textLength="108.3799" x="387.5186" y="276.4346">provides city name</text><polygon fill="#181818" points="380.2886,308.9883,370.2886,312.9883,380.2886,316.9883,376.2886,312.9883" style="stroke:#181818;stroke-width:1.0;"/><line style="stroke:#181818;stroke-width:1.0;stroke-dasharray:2.0,2.0;" x1="374.2886" x2="726.5127" y1="312.9883" y2="312.9883"/><text fill="#000000" font-family="sans-serif" font-size="13" font-weight="bold" lengthAdjust="spacing" textLength="7.23" x="386.2886" y="307.7256">6</text><text fill="#000000" font-family="sans-serif" font-size="13" lengthAdjust="spacing" textLength="151.0044" x="397.5186" y="307.7256">validates city name format</text><polygon fill="#181818" points="380.2886,340.2793,370.2886,344.2793,380.2886,348.2793,376.2886,344.2793" style="stroke:#181818;stroke-width:1.0;"/><line style="stroke:#181818;stroke-width:1.0;stroke-dasharray:2.0,2.0;" x1="374.2886" x2="731.5127" y1="344.2793" y2="344.2793"/><text fill="#000000" font-family="sans-serif" font-size="13" font-weight="bold" lengthAdjust="spacing" textLength="7.23" x="386.2886" y="339.0166">7</text><text fill="#000000" font-family="sans-serif" font-size="13" lengthAdjust="spacing" textLength="141.6353" x="397.5186" y="339.0166">requests XY coordinates</text><polygon fill="#181818" points="715.5127,371.5703,725.5127,375.5703,715.5127,379.5703,719.5127,375.5703" style="stroke:#181818;stroke-width:1.0;"/><line style="stroke:#181818;stroke-width:1.0;" x1="369.2886" x2="721.5127" y1="375.5703" y2="375.5703"/><text fill="#000000" font-family="sans-serif" font-size="13" font-weight="bold" lengthAdjust="spacing" textLength="7.23" x="376.2886" y="370.3076">8</text><text fill="#000000" font-family="sans-serif" font-size="13" lengthAdjust="spacing" textLength="155.3779" x="387.5186" y="370.3076">inputs X and Y coordinates</text><polygon fill="#181818" points="380.2886,402.8613,370.2886,406.8613,380.2886,410.8613,376.2886,406.8613" style="stroke:#181818;stroke-width:1.0;"/><line style="stroke:#181818;stroke-width:1.0;stroke-dasharray:2.0,2.0;" x1="374.2886" x2="731.5127" y1="406.8613" y2="406.8613"/><text fill="#000000" font-family="sans-serif" font-size="13" font-weight="bold" lengthAdjust="spacing" textLength="7.23" x="386.2886" y="401.5986">9</text><text fill="#000000" font-family="sans-serif" font-size="13" lengthAdjust="spacing" textLength="191.4961" x="397.5186" y="401.5986">requests number of house blocks</text><polygon fill="#181818" points="715.5127,434.1523,725.5127,438.1523,715.5127,442.1523,719.5127,438.1523" style="stroke:#181818;stroke-width:1.0;"/><line style="stroke:#181818;stroke-width:1.0;" x1="369.2886" x2="721.5127" y1="438.1523" y2="438.1523"/><text fill="#000000" font-family="sans-serif" font-size="13" font-weight="bold" lengthAdjust="spacing" textLength="14.46" x="376.2886" y="432.8896">10</text><text fill="#000000" font-family="sans-serif" font-size="13" lengthAdjust="spacing" textLength="176.3252" x="394.7485" y="432.8896">inputs number of house blocks</text><polygon fill="#181818" points="380.2886,465.4434,370.2886,469.4434,380.2886,473.4434,376.2886,469.4434" style="stroke:#181818;stroke-width:1.0;"/><line style="stroke:#181818;stroke-width:1.0;stroke-dasharray:2.0,2.0;" x1="374.2886" x2="731.5127" y1="469.4434" y2="469.4434"/><text fill="#000000" font-family="sans-serif" font-size="13" font-weight="bold" lengthAdjust="spacing" textLength="14.46" x="386.2886" y="464.1807">11</text><text fill="#000000" font-family="sans-serif" font-size="13" lengthAdjust="spacing" textLength="315.7642" x="404.7485" y="464.1807">requests block assignment method (manual/automatic)</text><polygon fill="#181818" points="715.5127,496.7344,725.5127,500.7344,715.5127,504.7344,719.5127,500.7344" style="stroke:#181818;stroke-width:1.0;"/><line style="stroke:#181818;stroke-width:1.0;" x1="369.2886" x2="721.5127" y1="500.7344" y2="500.7344"/><text fill="#000000" font-family="sans-serif" font-size="13" font-weight="bold" lengthAdjust="spacing" textLength="14.46" x="376.2886" y="495.4717">12</text><text fill="#000000" font-family="sans-serif" font-size="13" lengthAdjust="spacing" textLength="191.4834" x="394.7485" y="495.4717">selects block assignment method</text><path d="M333.0024,515.7344 L393.1733,515.7344 L393.1733,525.0254 L383.1733,535.0254 L333.0024,535.0254 L333.0024,515.7344 " fill="#EEEEEE" style="stroke:#000000;stroke-width:1.5;"/><rect fill="none" height="129.7949" style="stroke:#000000;stroke-width:1.5;" width="441.793" x="333.0024" y="515.7344"/><text fill="#000000" font-family="sans-serif" font-size="13" font-weight="bold" lengthAdjust="spacing" textLength="15.1709" x="348.0024" y="530.7627">alt</text><text fill="#000000" font-family="sans-serif" font-size="11" font-weight="bold" lengthAdjust="spacing" textLength="103.3022" x="408.1733" y="529.6045">[manual placement]</text><polygon fill="#181818" points="380.2886,554.3164,370.2886,558.3164,380.2886,562.3164,376.2886,558.3164" style="stroke:#181818;stroke-width:1.0;"/><line style="stroke:#181818;stroke-width:1.0;stroke-dasharray:2.0,2.0;" x1="374.2886" x2="731.5127" y1="558.3164" y2="558.3164"/><text fill="#000000" font-family="sans-serif" font-size="13" font-weight="bold" lengthAdjust="spacing" textLength="14.46" x="386.2886" y="553.0537">13</text><text fill="#000000" font-family="sans-serif" font-size="13" lengthAdjust="spacing" textLength="205.2261" x="404.7485" y="553.0537">requests coordinates for each block</text><polygon fill="#181818" points="715.5127,585.6074,725.5127,589.6074,715.5127,593.6074,719.5127,589.6074" style="stroke:#181818;stroke-width:1.0;"/><line style="stroke:#181818;stroke-width:1.0;" x1="369.2886" x2="721.5127" y1="589.6074" y2="589.6074"/><text fill="#000000" font-family="sans-serif" font-size="13" font-weight="bold" lengthAdjust="spacing" textLength="14.46" x="376.2886" y="584.3447">14</text><text fill="#000000" font-family="sans-serif" font-size="13" lengthAdjust="spacing" textLength="204.5024" x="394.7485" y="584.3447">provides coordinates for each block</text><line style="stroke:#000000;stroke-width:1.0;stroke-dasharray:2.0,2.0;" x1="333.0024" x2="774.7954" y1="598.6074" y2="598.6074"/><text fill="#000000" font-family="sans-serif" font-size="11" font-weight="bold" lengthAdjust="spacing" textLength="116.7461" x="338.0024" y="610.4775">[automatic placement]</text><polygon fill="#181818" points="380.2886,633.5293,370.2886,637.5293,380.2886,641.5293,376.2886,637.5293" style="stroke:#181818;stroke-width:1.0;"/><line style="stroke:#181818;stroke-width:1.0;stroke-dasharray:2.0,2.0;" x1="374.2886" x2="726.5127" y1="637.5293" y2="637.5293"/><text fill="#000000" font-family="sans-serif" font-size="13" font-weight="bold" lengthAdjust="spacing" textLength="14.46" x="386.2886" y="632.2666">15</text><text fill="#000000" font-family="sans-serif" font-size="13" lengthAdjust="spacing" textLength="253.646" x="404.7485" y="632.2666">generates block positions around city center</text><polygon fill="#181818" points="380.2886,671.8203,370.2886,675.8203,380.2886,679.8203,376.2886,675.8203" style="stroke:#181818;stroke-width:1.0;"/><line style="stroke:#181818;stroke-width:1.0;stroke-dasharray:2.0,2.0;" x1="374.2886" x2="726.5127" y1="675.8203" y2="675.8203"/><text fill="#000000" font-family="sans-serif" font-size="13" font-weight="bold" lengthAdjust="spacing" textLength="14.46" x="386.2886" y="670.5576">16</text><text fill="#000000" font-family="sans-serif" font-size="13" lengthAdjust="spacing" textLength="266.6396" x="404.7485" y="670.5576">validates city placement (boundaries, spacing)</text><polygon fill="#181818" points="375.2886,703.1113,365.2886,707.1113,375.2886,711.1113,371.2886,707.1113" style="stroke:#181818;stroke-width:1.0;"/><line style="stroke:#181818;stroke-width:1.0;stroke-dasharray:2.0,2.0;" x1="369.2886" x2="731.5127" y1="707.1113" y2="707.1113"/><text fill="#000000" font-family="sans-serif" font-size="13" font-weight="bold" lengthAdjust="spacing" textLength="14.46" x="381.2886" y="701.8486">17</text><text fill="#000000" font-family="sans-serif" font-size="13" lengthAdjust="spacing" textLength="162.5698" x="399.7485" y="701.8486">confirms successful addition</text><!--SRC=[dLN1Zjem4BtdAqQSG8AsKczxg5G93dkeAZLRgNiSx24P4TkfxO3u-uwTaD9Te81FLZplpPlnyoHisRReqO1nrgdQEqCGVKT564zQL5kig8o7Xi2JYcYhvZGWrAZTdcq56sm25KNaAA7b8KGoKDBlZgmYM39MANnQbiiPBE1d-UapV0s05bQQe_DpU8OzsWZH0MeD28hZ0TZAhdM18piBlrx1RI3M184Q4KCQ3BPps7Ei9SwY581MZv0TWUtCcdo2rQuB1El6gMtuK1JOHTSVobw90fZqIYQ00LRBvvVlFmgfCRBYDWcRFFL5vVFojNnPVSj8tc6a8w00MVqU5b-6C7YIraaZGWp_bfUZHug14uOrO1T2Cn2Uq4ZPGm-aBncYwItH9IqzBdCyBY3VJchudSbRxtQiwIt1FHfssB2Ms1CEs3XlCDucNLoadFEQRIAvKx_ulaiSsMVlYHxgvNcFFYRi2jT3sZ9U71-uieRa6HYAjTCmDMWxR3wcPoITPpLxq8KN4fnLt7zi92OdXxP1HGbqesV_NbOo38ZMkiy_uj_hFvvSzVB_YS_HaWnC61juOpKLMV8vKz-vut2KMUfT9wRCZq89ZKosdCNgld4tlALH0apNYGmzKvX3aD-0ZFZPHHhbx8Qz2H0wfIY4JTUaCSVNfjF9fvxd3m00]--></g></svg>