<svg xmlns="http://www.w3.org/2000/svg" xmlns:xlink="http://www.w3.org/1999/xlink" contentStyleType="text/css" height="813px" preserveAspectRatio="none" style="width:1106px;height:813px;background:#FFFFFF;" version="1.1" viewBox="0 0 1106 813" width="1106px" zoomAndPan="magnify"><title>Sequence Diagram (SD) - US12 Generate Cargoes Automatically - Split</title><defs/><g><text fill="#000000" font-family="sans-serif" font-size="14" font-weight="bold" lengthAdjust="spacing" textLength="469.1299" x="317.7417" y="30.1074">Sequence Diagram (SD) - US12 Generate Cargoes Automatically - Split</text><rect fill="#FFFFFF" height="579.4609" style="stroke:#181818;stroke-width:1.0;" width="10" x="22.8413" y="133.2422"/><rect fill="#FFFFFF" height="79.543" style="stroke:#181818;stroke-width:1.0;" width="10" x="410.5781" y="156.5332"/><rect fill="#FFFFFF" height="445.3359" style="stroke:#181818;stroke-width:1.0;" width="10" x="410.5781" y="267.3672"/><rect fill="#FFFFFF" height="382.7539" style="stroke:#181818;stroke-width:1.0;" width="10" x="616.937" y="298.6582"/><rect fill="#FFFFFF" height="31.291" style="stroke:#181818;stroke-width:1.0;" width="10" x="847.9141" y="329.9492"/><rect fill="#FFFFFF" height="31.291" style="stroke:#181818;stroke-width:1.0;" width="10" x="1009.248" y="618.8301"/><rect fill="none" height="164.0469" style="stroke:#000000;stroke-width:1.5;" width="253.1646" x="518.9478" y="424.4922"/><line style="stroke:#181818;stroke-width:0.5;stroke-dasharray:5.0,5.0;" x1="27" x2="27" y1="123.2422" y2="730.7031"/><line style="stroke:#181818;stroke-width:0.5;stroke-dasharray:5.0,5.0;" x1="414.9336" x2="414.9336" y1="123.2422" y2="730.7031"/><line style="stroke:#181818;stroke-width:0.5;stroke-dasharray:5.0,5.0;" x1="620.9478" x2="620.9478" y1="123.2422" y2="730.7031"/><line style="stroke:#181818;stroke-width:0.5;stroke-dasharray:5.0,5.0;" x1="851.9453" x2="851.9453" y1="123.2422" y2="730.7031"/><line style="stroke:#181818;stroke-width:0.5;stroke-dasharray:5.0,5.0;" x1="1013.8828" x2="1013.8828" y1="123.2422" y2="730.7031"/><text fill="#000000" font-family="sans-serif" font-size="14" lengthAdjust="spacing" textLength="39.6826" x="5" y="119.7285">Admin</text><ellipse cx="27.8413" cy="53.1211" fill="#E3E3E3" rx="8" ry="8" style="stroke:#181818;stroke-width:0.5;"/><path d="M27.8413,61.1211 L27.8413,88.1211 M14.8413,69.1211 L40.8413,69.1211 M27.8413,88.1211 L14.8413,103.1211 M27.8413,88.1211 L40.8413,103.1211 " fill="none" style="stroke:#181818;stroke-width:0.5;"/><text fill="#000000" font-family="sans-serif" font-size="14" lengthAdjust="spacing" textLength="39.6826" x="5" y="744.8105">Admin</text><ellipse cx="27.8413" cy="756.8242" fill="#E3E3E3" rx="8" ry="8" style="stroke:#181818;stroke-width:0.5;"/><path d="M27.8413,764.8242 L27.8413,791.8242 M14.8413,772.8242 L40.8413,772.8242 M27.8413,791.8242 L14.8413,806.8242 M27.8413,791.8242 L40.8413,806.8242 " fill="none" style="stroke:#181818;stroke-width:0.5;"/><rect fill="#E3E3E3" height="32.6211" rx="2.5" ry="2.5" style="stroke:#181818;stroke-width:0.5;" width="139.2891" x="345.9336" y="89.6211"/><text fill="#000000" font-family="sans-serif" font-size="14" lengthAdjust="spacing" textLength="125.2891" x="352.9336" y="111.7285">:CargoGenerationUI</text><rect fill="#E3E3E3" height="32.6211" rx="2.5" ry="2.5" style="stroke:#181818;stroke-width:0.5;" width="139.2891" x="345.9336" y="729.7031"/><text fill="#000000" font-family="sans-serif" font-size="14" lengthAdjust="spacing" textLength="125.2891" x="352.9336" y="751.8105">:CargoGenerationUI</text><rect fill="#E3E3E3" height="32.6211" rx="2.5" ry="2.5" style="stroke:#181818;stroke-width:0.5;" width="185.9785" x="528.9478" y="89.6211"/><text fill="#000000" font-family="sans-serif" font-size="14" lengthAdjust="spacing" textLength="171.9785" x="535.9478" y="111.7285">:CargoGenerationController</text><rect fill="#E3E3E3" height="32.6211" rx="2.5" ry="2.5" style="stroke:#181818;stroke-width:0.5;" width="185.9785" x="528.9478" y="729.7031"/><text fill="#000000" font-family="sans-serif" font-size="14" lengthAdjust="spacing" textLength="171.9785" x="535.9478" y="751.8105">:CargoGenerationController</text><rect fill="#E3E3E3" height="32.6211" rx="2.5" ry="2.5" style="stroke:#181818;stroke-width:0.5;" width="129.9375" x="787.9453" y="89.6211"/><text fill="#000000" font-family="sans-serif" font-size="14" lengthAdjust="spacing" textLength="115.9375" x="794.9453" y="111.7285">:SimulationService</text><rect fill="#E3E3E3" height="32.6211" rx="2.5" ry="2.5" style="stroke:#181818;stroke-width:0.5;" width="129.9375" x="787.9453" y="729.7031"/><text fill="#000000" font-family="sans-serif" font-size="14" lengthAdjust="spacing" textLength="115.9375" x="794.9453" y="751.8105">:SimulationService</text><rect fill="#E3E3E3" height="32.6211" rx="2.5" ry="2.5" style="stroke:#181818;stroke-width:0.5;" width="172.7305" x="927.8828" y="89.6211"/><text fill="#000000" font-family="sans-serif" font-size="14" lengthAdjust="spacing" textLength="158.7305" x="934.8828" y="111.7285">:CargoDistributionService</text><rect fill="#E3E3E3" height="32.6211" rx="2.5" ry="2.5" style="stroke:#181818;stroke-width:0.5;" width="172.7305" x="927.8828" y="729.7031"/><text fill="#000000" font-family="sans-serif" font-size="14" lengthAdjust="spacing" textLength="158.7305" x="934.8828" y="751.8105">:CargoDistributionService</text><rect fill="#FFFFFF" height="579.4609" style="stroke:#181818;stroke-width:1.0;" width="10" x="22.8413" y="133.2422"/><rect fill="#FFFFFF" height="79.543" style="stroke:#181818;stroke-width:1.0;" width="10" x="410.5781" y="156.5332"/><rect fill="#FFFFFF" height="445.3359" style="stroke:#181818;stroke-width:1.0;" width="10" x="410.5781" y="267.3672"/><rect fill="#FFFFFF" height="382.7539" style="stroke:#181818;stroke-width:1.0;" width="10" x="616.937" y="298.6582"/><rect fill="#FFFFFF" height="31.291" style="stroke:#181818;stroke-width:1.0;" width="10" x="847.9141" y="329.9492"/><rect fill="#FFFFFF" height="31.291" style="stroke:#181818;stroke-width:1.0;" width="10" x="1009.248" y="618.8301"/><polygon fill="#181818" points="398.5781,152.5332,408.5781,156.5332,398.5781,160.5332,402.5781,156.5332" style="stroke:#181818;stroke-width:1.0;"/><line style="stroke:#181818;stroke-width:1.0;" x1="32.8413" x2="404.5781" y1="156.5332" y2="156.5332"/><text fill="#000000" font-family="sans-serif" font-size="13" font-weight="bold" lengthAdjust="spacing" textLength="7.23" x="39.8413" y="151.2705">1</text><text fill="#000000" font-family="sans-serif" font-size="13" lengthAdjust="spacing" textLength="256.5278" x="51.0713" y="151.2705">requests to start cargo generation simulation</text><rect fill="none" height="43.252" style="stroke:#000000;stroke-width:1.5;" width="374.9927" x="342.9336" y="164.5332"/><path d="M342.9336,164.5332 L403.9336,164.5332 L403.9336,173.5332 L393.9336,183.5332 L342.9336,183.5332 L342.9336,164.5332 " fill="#EEEEEE" style="stroke:#000000;stroke-width:2.0;"/><text fill="#000000" font-family="sans-serif" font-size="13" font-weight="bold" lengthAdjust="spacing" textLength="16.6182" x="355.9336" y="180.5615">ref</text><text fill="#000000" font-family="sans-serif" font-size="12" lengthAdjust="spacing" textLength="88.043" x="486.4084" y="200.4824">Get Stations List</text><polygon fill="#181818" points="43.8413,232.0762,33.8413,236.0762,43.8413,240.0762,39.8413,236.0762" style="stroke:#181818;stroke-width:1.0;"/><line style="stroke:#181818;stroke-width:1.0;stroke-dasharray:2.0,2.0;" x1="37.8413" x2="414.5781" y1="236.0762" y2="236.0762"/><text fill="#000000" font-family="sans-serif" font-size="13" font-weight="bold" lengthAdjust="spacing" textLength="7.23" x="49.8413" y="230.8135">2</text><text fill="#000000" font-family="sans-serif" font-size="13" lengthAdjust="spacing" textLength="342.5068" x="61.0713" y="230.8135">shows stations and asks for confirmation to start generation</text><polygon fill="#181818" points="398.5781,263.3672,408.5781,267.3672,398.5781,271.3672,402.5781,267.3672" style="stroke:#181818;stroke-width:1.0;"/><line style="stroke:#181818;stroke-width:1.0;" x1="32.8413" x2="404.5781" y1="267.3672" y2="267.3672"/><text fill="#000000" font-family="sans-serif" font-size="13" font-weight="bold" lengthAdjust="spacing" textLength="7.23" x="39.8413" y="262.1045">3</text><text fill="#000000" font-family="sans-serif" font-size="13" lengthAdjust="spacing" textLength="150.2998" x="51.0713" y="262.1045">confirms cargo generation</text><polygon fill="#181818" points="604.937,294.6582,614.937,298.6582,604.937,302.6582,608.937,298.6582" style="stroke:#181818;stroke-width:1.0;"/><line style="stroke:#181818;stroke-width:1.0;" x1="420.5781" x2="610.937" y1="298.6582" y2="298.6582"/><text fill="#000000" font-family="sans-serif" font-size="13" font-weight="bold" lengthAdjust="spacing" textLength="7.23" x="427.5781" y="293.3955">4</text><text fill="#000000" font-family="sans-serif" font-size="13" lengthAdjust="spacing" textLength="133.6689" x="438.8081" y="293.3955">startCargoGeneration()</text><polygon fill="#181818" points="835.9141,325.9492,845.9141,329.9492,835.9141,333.9492,839.9141,329.9492" style="stroke:#181818;stroke-width:1.0;"/><line style="stroke:#181818;stroke-width:1.0;" x1="626.937" x2="841.9141" y1="329.9492" y2="329.9492"/><text fill="#000000" font-family="sans-serif" font-size="13" font-weight="bold" lengthAdjust="spacing" textLength="7.23" x="633.937" y="324.6865">5</text><text fill="#000000" font-family="sans-serif" font-size="13" lengthAdjust="spacing" textLength="190.7471" x="645.167" y="324.6865">configureSimulation(/* params */)</text><polygon fill="#181818" points="637.937,357.2402,627.937,361.2402,637.937,365.2402,633.937,361.2402" style="stroke:#181818;stroke-width:1.0;"/><line style="stroke:#181818;stroke-width:1.0;stroke-dasharray:2.0,2.0;" x1="631.937" x2="851.9141" y1="361.2402" y2="361.2402"/><text fill="#000000" font-family="sans-serif" font-size="13" font-weight="bold" lengthAdjust="spacing" textLength="7.23" x="643.937" y="355.9775">6</text><text fill="#000000" font-family="sans-serif" font-size="13" lengthAdjust="spacing" textLength="53.4727" x="655.167" y="355.9775">configOK</text><rect fill="none" height="43.252" style="stroke:#000000;stroke-width:1.5;" width="191.9785" x="525.9478" y="369.2402"/><path d="M525.9478,369.2402 L586.9478,369.2402 L586.9478,378.2402 L576.9478,388.2402 L525.9478,388.2402 L525.9478,369.2402 " fill="#EEEEEE" style="stroke:#000000;stroke-width:2.0;"/><text fill="#000000" font-family="sans-serif" font-size="13" font-weight="bold" lengthAdjust="spacing" textLength="16.6182" x="538.9478" y="385.2686">ref</text><text fill="#000000" font-family="sans-serif" font-size="12" lengthAdjust="spacing" textLength="88.043" x="577.9155" y="405.1895">Get Stations List</text><path d="M518.9478,424.4922 L591.3823,424.4922 L591.3823,433.7832 L581.3823,443.7832 L518.9478,443.7832 L518.9478,424.4922 " fill="#EEEEEE" style="stroke:#000000;stroke-width:1.5;"/><rect fill="none" height="164.0469" style="stroke:#000000;stroke-width:1.5;" width="253.1646" x="518.9478" y="424.4922"/><text fill="#000000" font-family="sans-serif" font-size="13" font-weight="bold" lengthAdjust="spacing" textLength="27.4346" x="533.9478" y="439.5205">loop</text><text fill="#000000" font-family="sans-serif" font-size="11" font-weight="bold" lengthAdjust="spacing" textLength="160.73" x="606.3823" y="438.3623">[for each station in stationList]</text><rect fill="none" height="43.252" style="stroke:#000000;stroke-width:1.5;" width="191.9785" x="525.9478" y="443.7832"/><path d="M525.9478,443.7832 L586.9478,443.7832 L586.9478,452.7832 L576.9478,462.7832 L525.9478,462.7832 L525.9478,443.7832 " fill="#EEEEEE" style="stroke:#000000;stroke-width:2.0;"/><text fill="#000000" font-family="sans-serif" font-size="13" font-weight="bold" lengthAdjust="spacing" textLength="16.6182" x="538.9478" y="459.8115">ref</text><text fill="#000000" font-family="sans-serif" font-size="12" lengthAdjust="spacing" textLength="144.7441" x="549.5649" y="479.7324">Generate Industry Cargoes</text><rect fill="none" height="43.252" style="stroke:#000000;stroke-width:1.5;" width="191.9785" x="525.9478" y="492.0352"/><path d="M525.9478,492.0352 L586.9478,492.0352 L586.9478,501.0352 L576.9478,511.0352 L525.9478,511.0352 L525.9478,492.0352 " fill="#EEEEEE" style="stroke:#000000;stroke-width:2.0;"/><text fill="#000000" font-family="sans-serif" font-size="13" font-weight="bold" lengthAdjust="spacing" textLength="16.6182" x="538.9478" y="508.0635">ref</text><text fill="#000000" font-family="sans-serif" font-size="12" lengthAdjust="spacing" textLength="122.7246" x="560.5747" y="527.9844">Generate City Cargoes</text><rect fill="none" height="43.252" style="stroke:#000000;stroke-width:1.5;" width="191.9785" x="525.9478" y="540.2871"/><path d="M525.9478,540.2871 L586.9478,540.2871 L586.9478,549.2871 L576.9478,559.2871 L525.9478,559.2871 L525.9478,540.2871 " fill="#EEEEEE" style="stroke:#000000;stroke-width:2.0;"/><text fill="#000000" font-family="sans-serif" font-size="13" font-weight="bold" lengthAdjust="spacing" textLength="16.6182" x="538.9478" y="556.3154">ref</text><text fill="#000000" font-family="sans-serif" font-size="12" lengthAdjust="spacing" textLength="77.373" x="583.2505" y="576.2363">Store Cargoes</text><polygon fill="#181818" points="997.248,614.8301,1007.248,618.8301,997.248,622.8301,1001.248,618.8301" style="stroke:#181818;stroke-width:1.0;"/><line style="stroke:#181818;stroke-width:1.0;" x1="626.937" x2="1003.248" y1="618.8301" y2="618.8301"/><text fill="#000000" font-family="sans-serif" font-size="13" font-weight="bold" lengthAdjust="spacing" textLength="7.23" x="633.937" y="613.5674">7</text><text fill="#000000" font-family="sans-serif" font-size="13" lengthAdjust="spacing" textLength="111.979" x="645.167" y="613.5674">calculateStatistics()</text><polygon fill="#181818" points="637.937,646.1211,627.937,650.1211,637.937,654.1211,633.937,650.1211" style="stroke:#181818;stroke-width:1.0;"/><line style="stroke:#181818;stroke-width:1.0;stroke-dasharray:2.0,2.0;" x1="631.937" x2="1013.248" y1="650.1211" y2="650.1211"/><text fill="#000000" font-family="sans-serif" font-size="13" font-weight="bold" lengthAdjust="spacing" textLength="7.23" x="643.937" y="644.8584">8</text><text fill="#000000" font-family="sans-serif" font-size="13" lengthAdjust="spacing" textLength="27.4536" x="655.167" y="644.8584">stats</text><polygon fill="#181818" points="431.5781,677.4121,421.5781,681.4121,431.5781,685.4121,427.5781,681.4121" style="stroke:#181818;stroke-width:1.0;"/><line style="stroke:#181818;stroke-width:1.0;stroke-dasharray:2.0,2.0;" x1="425.5781" x2="620.937" y1="681.4121" y2="681.4121"/><text fill="#000000" font-family="sans-serif" font-size="13" font-weight="bold" lengthAdjust="spacing" textLength="7.23" x="437.5781" y="676.1494">9</text><text fill="#000000" font-family="sans-serif" font-size="13" lengthAdjust="spacing" textLength="161.1289" x="448.8081" y="676.1494">cargoGenerationResultDTO</text><polygon fill="#181818" points="38.8413,708.7031,28.8413,712.7031,38.8413,716.7031,34.8413,712.7031" style="stroke:#181818;stroke-width:1.0;"/><line style="stroke:#181818;stroke-width:1.0;stroke-dasharray:2.0,2.0;" x1="32.8413" x2="414.5781" y1="712.7031" y2="712.7031"/><text fill="#000000" font-family="sans-serif" font-size="13" font-weight="bold" lengthAdjust="spacing" textLength="14.46" x="44.8413" y="707.4404">10</text><text fill="#000000" font-family="sans-serif" font-size="13" lengthAdjust="spacing" textLength="234.1143" x="63.3013" y="707.4404">displays operation success and statistics</text><!--SRC=[jLHDR-8m4BtdLumuGRMesZrog5IHgegstKeOzkuwGx1mxApjKF7lT-A0oGUqsiFwv3Xldjzy-Bczr1Mtl8JIQ2DsrfG8tjQOkFYducBF2sJ-g10i2izreRe0j-Ev-P2wW2rN3fF4IqzGXdzgr08XbRneS5EMpc0E6_Rz1poZHiizmfBRmg23nzgRadifk597Gh5AIPyad8vrNRwZfRtmniBaCI-bdW2dcFGr-vMG20gJ5TSU9el0TsANHc-oWDnadyEMHdjhb48RuClrwcKGm6HPgu1bQ0zIO02ox9KzhNvdowTh_AbqtihtUXYLPcnz3ckoaeUc4cqs2T0AMvW_a6vOKCsfaCuxy0QSfsj0DEnGHFdWeheG7pafRpWjYrim1xHqzgrD43hh6Jqm7nWSl93k-1TrtiJ6xxWXRNEIs6fTq1IO3zVeQpauXN6tTx2bdWcZjzAMhTQOnKL_uCnnAFjABKvCRbI2ctatCXz2met8vk91xwUpY8tne_g4UEAvDFmifgWjNePZUdy7uLKukBkVzIWYUMTeOB0wzFEBwlQUjvyzUATS7S8U9BPybCxdBU-slNUeZAb2G-dktRdN8FLvEsBvMaMhv6G6cSvhUZB7iokCq5TL_UCbI-d_omMCt0c_91wS9LUdh6CGJVkv4iruOUYM8vTnqnkZrNMMeO8kwRpt9BoxDLazfnehZQ-o_w9Mw6hbq_LRSeKorE-MYUJILOeV7PWgMbij1BhMK5mim1N7I3gVhPV-1G00]--></g></svg>