<svg xmlns="http://www.w3.org/2000/svg" xmlns:xlink="http://www.w3.org/1999/xlink" contentStyleType="text/css" height="356px" preserveAspectRatio="none" style="width:776px;height:356px;background:#FFFFFF;" version="1.1" viewBox="0 0 776 356" width="776px" zoomAndPan="magnify"><title>US12 - Get Stations List - Partial Sequence Diagram</title><defs/><g><text fill="#000000" font-family="sans-serif" font-size="14" font-weight="bold" lengthAdjust="spacing" textLength="343.875" x="215.1885" y="30.1074">US12 - Get Stations List - Partial Sequence Diagram</text><rect fill="#FFFFFF" height="189.7461" style="stroke:#181818;stroke-width:1.0;" width="10" x="242.2783" y="111.5332"/><rect fill="#FFFFFF" height="31.291" style="stroke:#181818;stroke-width:1.0;" width="10" x="399.7397" y="231.6973"/><rect fill="#FFFFFF" height="31.291" style="stroke:#181818;stroke-width:1.0;" width="10" x="528.4082" y="169.1152"/><rect fill="none" height="144.4551" style="stroke:#000000;stroke-width:1.5;" width="463.3154" x="144.2891" y="126.5332"/><line style="stroke:#181818;stroke-width:0.5;stroke-dasharray:5.0,5.0;" x1="74" x2="74" y1="78.2422" y2="319.2793"/><line style="stroke:#181818;stroke-width:0.5;stroke-dasharray:5.0,5.0;" x1="246.2891" x2="246.2891" y1="78.2422" y2="319.2793"/><line style="stroke:#181818;stroke-width:0.5;stroke-dasharray:5.0,5.0;" x1="404.2676" x2="404.2676" y1="78.2422" y2="319.2793"/><line style="stroke:#181818;stroke-width:0.5;stroke-dasharray:5.0,5.0;" x1="533.2119" x2="533.2119" y1="78.2422" y2="319.2793"/><line style="stroke:#181818;stroke-width:0.5;stroke-dasharray:5.0,5.0;" x1="688.6045" x2="688.6045" y1="78.2422" y2="319.2793"/><rect fill="#E3E3E3" height="32.6211" rx="2.5" ry="2.5" style="stroke:#181818;stroke-width:0.5;" width="139.2891" x="5" y="44.6211"/><text fill="#000000" font-family="sans-serif" font-size="14" lengthAdjust="spacing" textLength="125.2891" x="12" y="66.7285">:CargoGenerationUI</text><rect fill="#E3E3E3" height="32.6211" rx="2.5" ry="2.5" style="stroke:#181818;stroke-width:0.5;" width="139.2891" x="5" y="318.2793"/><text fill="#000000" font-family="sans-serif" font-size="14" lengthAdjust="spacing" textLength="125.2891" x="12" y="340.3867">:CargoGenerationUI</text><rect fill="#E3E3E3" height="32.6211" rx="2.5" ry="2.5" style="stroke:#181818;stroke-width:0.5;" width="185.9785" x="154.2891" y="44.6211"/><text fill="#000000" font-family="sans-serif" font-size="14" lengthAdjust="spacing" textLength="171.9785" x="161.2891" y="66.7285">:CargoGenerationController</text><rect fill="#E3E3E3" height="32.6211" rx="2.5" ry="2.5" style="stroke:#181818;stroke-width:0.5;" width="185.9785" x="154.2891" y="318.2793"/><text fill="#000000" font-family="sans-serif" font-size="14" lengthAdjust="spacing" textLength="171.9785" x="161.2891" y="340.3867">:CargoGenerationController</text><rect fill="#E3E3E3" height="32.6211" rx="2.5" ry="2.5" style="stroke:#181818;stroke-width:0.5;" width="108.9443" x="350.2676" y="44.6211"/><text fill="#000000" font-family="sans-serif" font-size="14" lengthAdjust="spacing" textLength="94.9443" x="357.2676" y="66.7285">:StationMapper</text><rect fill="#E3E3E3" height="32.6211" rx="2.5" ry="2.5" style="stroke:#181818;stroke-width:0.5;" width="108.9443" x="350.2676" y="318.2793"/><text fill="#000000" font-family="sans-serif" font-size="14" lengthAdjust="spacing" textLength="94.9443" x="357.2676" y="340.3867">:StationMapper</text><rect fill="#E3E3E3" height="32.6211" rx="2.5" ry="2.5" style="stroke:#181818;stroke-width:0.5;" width="128.3926" x="469.2119" y="44.6211"/><text fill="#000000" font-family="sans-serif" font-size="14" lengthAdjust="spacing" textLength="114.3926" x="476.2119" y="66.7285">:StationRepository</text><rect fill="#E3E3E3" height="32.6211" rx="2.5" ry="2.5" style="stroke:#181818;stroke-width:0.5;" width="128.3926" x="469.2119" y="318.2793"/><text fill="#000000" font-family="sans-serif" font-size="14" lengthAdjust="spacing" textLength="114.3926" x="476.2119" y="340.3867">:StationRepository</text><rect fill="#E3E3E3" height="32.6211" rx="2.5" ry="2.5" style="stroke:#181818;stroke-width:0.5;" width="162.6475" x="607.6045" y="44.6211"/><text fill="#000000" font-family="sans-serif" font-size="14" lengthAdjust="spacing" textLength="148.6475" x="614.6045" y="66.7285">stationList:List&lt;Station&gt;</text><rect fill="#E3E3E3" height="32.6211" rx="2.5" ry="2.5" style="stroke:#181818;stroke-width:0.5;" width="162.6475" x="607.6045" y="318.2793"/><text fill="#000000" font-family="sans-serif" font-size="14" lengthAdjust="spacing" textLength="148.6475" x="614.6045" y="340.3867">stationList:List&lt;Station&gt;</text><rect fill="#FFFFFF" height="189.7461" style="stroke:#181818;stroke-width:1.0;" width="10" x="242.2783" y="111.5332"/><rect fill="#FFFFFF" height="31.291" style="stroke:#181818;stroke-width:1.0;" width="10" x="399.7397" y="231.6973"/><rect fill="#FFFFFF" height="31.291" style="stroke:#181818;stroke-width:1.0;" width="10" x="528.4082" y="169.1152"/><polygon fill="#181818" points="230.2783,107.5332,240.2783,111.5332,230.2783,115.5332,234.2783,111.5332" style="stroke:#181818;stroke-width:1.0;"/><line style="stroke:#181818;stroke-width:1.0;" x1="74.6445" x2="236.2783" y1="111.5332" y2="111.5332"/><text fill="#000000" font-family="sans-serif" font-size="13" lengthAdjust="spacing" textLength="73.7026" x="81.6445" y="106.2705">getStations()</text><path d="M144.2891,126.5332 L292.5781,126.5332 L292.5781,135.8242 L282.5781,145.8242 L144.2891,145.8242 L144.2891,126.5332 " fill="#EEEEEE" style="stroke:#000000;stroke-width:1.5;"/><rect fill="none" height="144.4551" style="stroke:#000000;stroke-width:1.5;" width="463.3154" x="144.2891" y="126.5332"/><text fill="#000000" font-family="sans-serif" font-size="13" font-weight="bold" lengthAdjust="spacing" textLength="103.2891" x="159.2891" y="141.5615">Get Stations List</text><polygon fill="#181818" points="516.4082,165.1152,526.4082,169.1152,516.4082,173.1152,520.4082,169.1152" style="stroke:#181818;stroke-width:1.0;"/><line style="stroke:#181818;stroke-width:1.0;" x1="252.2783" x2="522.4082" y1="169.1152" y2="169.1152"/><text fill="#000000" font-family="sans-serif" font-size="13" lengthAdjust="spacing" textLength="88.1499" x="259.2783" y="163.8525">getAllStations()</text><polygon fill="#181818" points="263.2783,196.4063,253.2783,200.4063,263.2783,204.4063,259.2783,200.4063" style="stroke:#181818;stroke-width:1.0;"/><line style="stroke:#181818;stroke-width:1.0;stroke-dasharray:2.0,2.0;" x1="257.2783" x2="532.4082" y1="200.4063" y2="200.4063"/><text fill="#000000" font-family="sans-serif" font-size="13" lengthAdjust="spacing" textLength="58.5317" x="269.2783" y="195.1436">stationList</text><polygon fill="#181818" points="387.7397,227.6973,397.7397,231.6973,387.7397,235.6973,391.7397,231.6973" style="stroke:#181818;stroke-width:1.0;"/><line style="stroke:#181818;stroke-width:1.0;" x1="252.2783" x2="393.7397" y1="231.6973" y2="231.6973"/><text fill="#000000" font-family="sans-serif" font-size="13" lengthAdjust="spacing" textLength="125.7026" x="259.2783" y="226.4346">toDTOList(stationList)</text><polygon fill="#181818" points="263.2783,258.9883,253.2783,262.9883,263.2783,266.9883,259.2783,262.9883" style="stroke:#181818;stroke-width:1.0;"/><line style="stroke:#181818;stroke-width:1.0;stroke-dasharray:2.0,2.0;" x1="257.2783" x2="403.7397" y1="262.9883" y2="262.9883"/><text fill="#000000" font-family="sans-serif" font-size="13" lengthAdjust="spacing" textLength="85.9727" x="269.2783" y="257.7256">stationDTOList</text><polygon fill="#181818" points="85.6445,297.2793,75.6445,301.2793,85.6445,305.2793,81.6445,301.2793" style="stroke:#181818;stroke-width:1.0;"/><line style="stroke:#181818;stroke-width:1.0;stroke-dasharray:2.0,2.0;" x1="79.6445" x2="246.2783" y1="301.2793" y2="301.2793"/><text fill="#000000" font-family="sans-serif" font-size="13" lengthAdjust="spacing" textLength="85.9727" x="91.6445" y="296.0166">stationDTOList</text><!--SRC=[VP3BRi8m44Nt_eeHAxfWqIvHXOG0eKXGeZm-O1IcmSBOhZsquk_h96xh0YABBE9xRewlFqfjqU49JaQRvk3CYO3TcOJ_FR7O7B6baY-Am573g5kL1lm1z-PBwXRUKNaIWYM7Q5q-ly04riHGCh8qsiD6UWxVSdGiKK597sVI3S5IOXkgXB3TIICjQeRHT86kDMlIv7g-paQ07khiSMnXD3kZ5Ba-lgYApHKGVRPeRGoLrRpATc_RUPwlYllfWgpnaesxf4InodV_ytw8TrUTTg_NoCzIR9ELbH1r1fDPBmXJQ8b_TXe_2MnOVYBJeDywSxQtKueU3HM9pD0qL-fUMIeDuKcvoPzASWMnfxlqzQ-7vGBBPbdjEdASjDmgnAKJYTXmgn7xxfZ44j9xw1UAKg4XBFk8xtBV]--></g></svg>