<svg xmlns="http://www.w3.org/2000/svg" xmlns:xlink="http://www.w3.org/1999/xlink" contentStyleType="text/css" height="1347px" preserveAspectRatio="none" style="width:2623px;height:1347px;background:#FFFFFF;" version="1.1" viewBox="0 0 2623 1347" width="2623px" zoomAndPan="magnify"><title>US12 - Class Diagram - Generate Cargoes Automatically</title><defs/><g><text fill="#000000" font-family="sans-serif" font-size="14" font-weight="bold" lengthAdjust="spacing" textLength="373.4678" x="1118.145" y="25.1074">US12 - Class Diagram - Generate Cargoes Automatically</text><!--class CargoGenerationUI--><g id="elem_CargoGenerationUI"><rect codeLine="9" fill="#F1F1F1" height="48" id="CargoGenerationUI" rx="2.5" ry="2.5" style="stroke:#181818;stroke-width:0.5;" width="153.3994" x="45.5" y="629.1211"/><ellipse cx="60.5" cy="645.1211" fill="#C2C2C2" rx="11" ry="11" style="stroke:#181818;stroke-width:1.0;"/><path d="M63.2656,640.9961 Q63.4219,640.7773 63.6094,640.668 Q63.7969,640.5586 64.0156,640.5586 Q64.3906,640.5586 64.625,640.8242 Q64.8594,641.0742 64.8594,641.6836 L64.8594,643.1367 Q64.8594,643.7461 64.625,644.0117 Q64.3906,644.2773 64.0156,644.2773 Q63.6719,644.2773 63.4688,644.0742 Q63.2656,643.8867 63.1563,643.3711 Q63.1094,643.0117 62.9219,642.8242 Q62.5938,642.4492 61.9844,642.2305 Q61.375,642.0117 60.75,642.0117 Q59.9844,642.0117 59.3438,642.3398 Q58.7188,642.668 58.2188,643.418 Q57.7344,644.168 57.7344,645.1992 L57.7344,646.293 Q57.7344,647.5273 58.625,648.3555 Q59.5156,649.168 61.1094,649.168 Q62.0469,649.168 62.7031,648.918 Q63.0938,648.7617 63.5156,648.3242 Q63.7813,648.0586 63.9219,647.9805 Q64.0781,647.9023 64.2813,647.9023 Q64.6094,647.9023 64.8594,648.168 Q65.125,648.418 65.125,648.7617 Q65.125,649.1055 64.7813,649.5117 Q64.2813,650.0898 63.4844,650.418 Q62.4063,650.8711 61.1094,650.8711 Q59.5938,650.8711 58.3906,650.2461 Q57.4063,649.7461 56.7188,648.6836 Q56.0313,647.6055 56.0313,646.3242 L56.0313,645.168 Q56.0313,643.8398 56.6406,642.6992 Q57.2656,641.543 58.3594,640.9336 Q59.4531,640.3086 60.6875,640.3086 Q61.4219,640.3086 62.0625,640.4805 Q62.7188,640.6367 63.2656,640.9961 Z " fill="#000000"/><text fill="#000000" font-family="sans-serif" font-size="14" lengthAdjust="spacing" textLength="121.3994" x="74.5" y="650.918">CargoGenerationUI</text><line style="stroke:#181818;stroke-width:0.5;" x1="46.5" x2="197.8994" y1="661.1211" y2="661.1211"/><line style="stroke:#181818;stroke-width:0.5;" x1="46.5" x2="197.8994" y1="669.1211" y2="669.1211"/></g><!--class CargoGenerationController--><g id="elem_CargoGenerationController"><rect codeLine="12" fill="#F1F1F1" height="234.2109" id="CargoGenerationController" rx="2.5" ry="2.5" style="stroke:#181818;stroke-width:0.5;" width="354.3643" x="345" y="536.1211"/><ellipse cx="433.8877" cy="552.1211" fill="#C2C2C2" rx="11" ry="11" style="stroke:#181818;stroke-width:1.0;"/><path d="M436.6533,547.9961 Q436.8096,547.7773 436.9971,547.668 Q437.1846,547.5586 437.4033,547.5586 Q437.7783,547.5586 438.0127,547.8242 Q438.2471,548.0742 438.2471,548.6836 L438.2471,550.1367 Q438.2471,550.7461 438.0127,551.0117 Q437.7783,551.2773 437.4033,551.2773 Q437.0596,551.2773 436.8564,551.0742 Q436.6533,550.8867 436.5439,550.3711 Q436.4971,550.0117 436.3096,549.8242 Q435.9814,549.4492 435.3721,549.2305 Q434.7627,549.0117 434.1377,549.0117 Q433.3721,549.0117 432.7314,549.3398 Q432.1064,549.668 431.6064,550.418 Q431.1221,551.168 431.1221,552.1992 L431.1221,553.293 Q431.1221,554.5273 432.0127,555.3555 Q432.9033,556.168 434.4971,556.168 Q435.4346,556.168 436.0908,555.918 Q436.4814,555.7617 436.9033,555.3242 Q437.1689,555.0586 437.3096,554.9805 Q437.4658,554.9023 437.6689,554.9023 Q437.9971,554.9023 438.2471,555.168 Q438.5127,555.418 438.5127,555.7617 Q438.5127,556.1055 438.1689,556.5117 Q437.6689,557.0898 436.8721,557.418 Q435.7939,557.8711 434.4971,557.8711 Q432.9814,557.8711 431.7783,557.2461 Q430.7939,556.7461 430.1064,555.6836 Q429.4189,554.6055 429.4189,553.3242 L429.4189,552.168 Q429.4189,550.8398 430.0283,549.6992 Q430.6533,548.543 431.7471,547.9336 Q432.8408,547.3086 434.0752,547.3086 Q434.8096,547.3086 435.4502,547.4805 Q436.1064,547.6367 436.6533,547.9961 Z " fill="#000000"/><text fill="#000000" font-family="sans-serif" font-size="14" lengthAdjust="spacing" textLength="168.0889" x="454.3877" y="557.918">CargoGenerationController</text><line style="stroke:#181818;stroke-width:0.5;" x1="346" x2="698.3643" y1="568.1211" y2="568.1211"/><rect fill="none" height="6" style="stroke:#595959;stroke-width:1.0;" width="6" x="353" y="579.9316"/><text fill="#000000" font-family="sans-serif" font-size="14" lengthAdjust="spacing" textLength="229.5371" x="365" y="587.2285">simulationService: SimulationService</text><rect fill="none" height="6" style="stroke:#595959;stroke-width:1.0;" width="6" x="353" y="598.5527"/><text fill="#000000" font-family="sans-serif" font-size="14" lengthAdjust="spacing" textLength="226.4473" x="365" y="605.8496">stationRepository: StationRepository</text><rect fill="none" height="6" style="stroke:#595959;stroke-width:1.0;" width="6" x="353" y="617.1738"/><text fill="#000000" font-family="sans-serif" font-size="14" lengthAdjust="spacing" textLength="199.9648" x="365" y="624.4707">industryService: IndustryService</text><rect fill="none" height="6" style="stroke:#595959;stroke-width:1.0;" width="6" x="353" y="635.7949"/><text fill="#000000" font-family="sans-serif" font-size="14" lengthAdjust="spacing" textLength="146.2549" x="365" y="643.0918">cityService: CityService</text><rect fill="none" height="6" style="stroke:#595959;stroke-width:1.0;" width="6" x="353" y="654.416"/><text fill="#000000" font-family="sans-serif" font-size="14" lengthAdjust="spacing" textLength="314.3506" x="365" y="661.7129">cargoDistributionService: CargoDistributionService</text><rect fill="none" height="6" style="stroke:#595959;stroke-width:1.0;" width="6" x="353" y="673.0371"/><text fill="#000000" font-family="sans-serif" font-size="14" lengthAdjust="spacing" textLength="187.5508" x="365" y="680.334">stationMapper: StationMapper</text><rect fill="none" height="6" style="stroke:#595959;stroke-width:1.0;" width="6" x="353" y="691.6582"/><text fill="#000000" font-family="sans-serif" font-size="14" lengthAdjust="spacing" textLength="175.8682" x="365" y="698.9551">cargoMapper: CargoMapper</text><rect fill="none" height="6" style="stroke:#595959;stroke-width:1.0;" width="6" x="353" y="710.2793"/><text fill="#000000" font-family="sans-serif" font-size="14" lengthAdjust="spacing" textLength="314.4053" x="365" y="717.5762">cargoGenerationMapper: CargoGenerationMapper</text><line style="stroke:#181818;stroke-width:0.5;" x1="346" x2="698.3643" y1="725.0898" y2="725.0898"/><ellipse cx="356" cy="739.9004" fill="#A6A6A6" rx="3" ry="3" style="stroke:#545454;stroke-width:1.0;"/><text fill="#000000" font-family="sans-serif" font-size="14" lengthAdjust="spacing" textLength="198.4268" x="365" y="744.1973">getStations(): List&lt;StationDTO&gt;</text><ellipse cx="356" cy="758.5215" fill="#A6A6A6" rx="3" ry="3" style="stroke:#545454;stroke-width:1.0;"/><text fill="#000000" font-family="sans-serif" font-size="14" lengthAdjust="spacing" textLength="328.3643" x="365" y="762.8184">startCargoGeneration(): CargoGenerationResultDTO</text></g><!--class StationDTO--><g id="elem_StationDTO"><rect codeLine="26" fill="#F1F1F1" height="122.4844" id="StationDTO" rx="2.5" ry="2.5" style="stroke:#181818;stroke-width:0.5;" width="176.9854" x="1813.5" y="482.1211"/><ellipse cx="1861.1738" cy="498.1211" fill="#C2C2C2" rx="11" ry="11" style="stroke:#181818;stroke-width:1.0;"/><path d="M1863.9395,493.9961 Q1864.0957,493.7773 1864.2832,493.668 Q1864.4707,493.5586 1864.6895,493.5586 Q1865.0645,493.5586 1865.2988,493.8242 Q1865.5332,494.0742 1865.5332,494.6836 L1865.5332,496.1367 Q1865.5332,496.7461 1865.2988,497.0117 Q1865.0645,497.2773 1864.6895,497.2773 Q1864.3457,497.2773 1864.1426,497.0742 Q1863.9395,496.8867 1863.8301,496.3711 Q1863.7832,496.0117 1863.5957,495.8242 Q1863.2676,495.4492 1862.6582,495.2305 Q1862.0488,495.0117 1861.4238,495.0117 Q1860.6582,495.0117 1860.0176,495.3398 Q1859.3926,495.668 1858.8926,496.418 Q1858.4082,497.168 1858.4082,498.1992 L1858.4082,499.293 Q1858.4082,500.5273 1859.2988,501.3555 Q1860.1895,502.168 1861.7832,502.168 Q1862.7207,502.168 1863.377,501.918 Q1863.7676,501.7617 1864.1895,501.3242 Q1864.4551,501.0586 1864.5957,500.9805 Q1864.752,500.9023 1864.9551,500.9023 Q1865.2832,500.9023 1865.5332,501.168 Q1865.7988,501.418 1865.7988,501.7617 Q1865.7988,502.1055 1865.4551,502.5117 Q1864.9551,503.0898 1864.1582,503.418 Q1863.0801,503.8711 1861.7832,503.8711 Q1860.2676,503.8711 1859.0645,503.2461 Q1858.0801,502.7461 1857.3926,501.6836 Q1856.7051,500.6055 1856.7051,499.3242 L1856.7051,498.168 Q1856.7051,496.8398 1857.3145,495.6992 Q1857.9395,494.543 1859.0332,493.9336 Q1860.127,493.3086 1861.3613,493.3086 Q1862.0957,493.3086 1862.7363,493.4805 Q1863.3926,493.6367 1863.9395,493.9961 Z " fill="#000000"/><text fill="#000000" font-family="sans-serif" font-size="14" lengthAdjust="spacing" textLength="73.1377" x="1881.6738" y="503.918">StationDTO</text><line style="stroke:#181818;stroke-width:0.5;" x1="1814.5" x2="1989.4854" y1="514.1211" y2="514.1211"/><ellipse cx="1824.5" cy="528.9316" fill="none" rx="3" ry="3" style="stroke:#545454;stroke-width:1.0;"/><text fill="#000000" font-family="sans-serif" font-size="14" lengthAdjust="spacing" textLength="79.3721" x="1833.5" y="533.2285">name: String</text><ellipse cx="1824.5" cy="547.5527" fill="none" rx="3" ry="3" style="stroke:#545454;stroke-width:1.0;"/><text fill="#000000" font-family="sans-serif" font-size="14" lengthAdjust="spacing" textLength="138.5166" x="1833.5" y="551.8496">location: LocationDTO</text><ellipse cx="1824.5" cy="566.1738" fill="none" rx="3" ry="3" style="stroke:#545454;stroke-width:1.0;"/><text fill="#000000" font-family="sans-serif" font-size="14" lengthAdjust="spacing" textLength="150.9854" x="1833.5" y="570.4707">storageCapacity: double</text><ellipse cx="1824.5" cy="584.7949" fill="none" rx="3" ry="3" style="stroke:#545454;stroke-width:1.0;"/><text fill="#000000" font-family="sans-serif" font-size="14" lengthAdjust="spacing" textLength="141.627" x="1833.5" y="589.0918">currentCargoCount: int</text><line style="stroke:#181818;stroke-width:0.5;" x1="1814.5" x2="1989.4854" y1="596.6055" y2="596.6055"/></g><!--class CargoDTO--><g id="elem_CargoDTO"><rect codeLine="33" fill="#F1F1F1" height="122.4844" id="CargoDTO" rx="2.5" ry="2.5" style="stroke:#181818;stroke-width:0.5;" width="218.999" x="1792.5" y="325.1211"/><ellipse cx="1863.9082" cy="341.1211" fill="#C2C2C2" rx="11" ry="11" style="stroke:#181818;stroke-width:1.0;"/><path d="M1866.6738,336.9961 Q1866.8301,336.7773 1867.0176,336.668 Q1867.2051,336.5586 1867.4238,336.5586 Q1867.7988,336.5586 1868.0332,336.8242 Q1868.2676,337.0742 1868.2676,337.6836 L1868.2676,339.1367 Q1868.2676,339.7461 1868.0332,340.0117 Q1867.7988,340.2773 1867.4238,340.2773 Q1867.0801,340.2773 1866.877,340.0742 Q1866.6738,339.8867 1866.5645,339.3711 Q1866.5176,339.0117 1866.3301,338.8242 Q1866.002,338.4492 1865.3926,338.2305 Q1864.7832,338.0117 1864.1582,338.0117 Q1863.3926,338.0117 1862.752,338.3398 Q1862.127,338.668 1861.627,339.418 Q1861.1426,340.168 1861.1426,341.1992 L1861.1426,342.293 Q1861.1426,343.5273 1862.0332,344.3555 Q1862.9238,345.168 1864.5176,345.168 Q1865.4551,345.168 1866.1113,344.918 Q1866.502,344.7617 1866.9238,344.3242 Q1867.1895,344.0586 1867.3301,343.9805 Q1867.4863,343.9023 1867.6895,343.9023 Q1868.0176,343.9023 1868.2676,344.168 Q1868.5332,344.418 1868.5332,344.7617 Q1868.5332,345.1055 1868.1895,345.5117 Q1867.6895,346.0898 1866.8926,346.418 Q1865.8145,346.8711 1864.5176,346.8711 Q1863.002,346.8711 1861.7988,346.2461 Q1860.8145,345.7461 1860.127,344.6836 Q1859.4395,343.6055 1859.4395,342.3242 L1859.4395,341.168 Q1859.4395,339.8398 1860.0488,338.6992 Q1860.6738,337.543 1861.7676,336.9336 Q1862.8613,336.3086 1864.0957,336.3086 Q1864.8301,336.3086 1865.4707,336.4805 Q1866.127,336.6367 1866.6738,336.9961 Z " fill="#000000"/><text fill="#000000" font-family="sans-serif" font-size="14" lengthAdjust="spacing" textLength="67.6826" x="1884.4082" y="346.918">CargoDTO</text><line style="stroke:#181818;stroke-width:0.5;" x1="1793.5" x2="2010.499" y1="357.1211" y2="357.1211"/><ellipse cx="1803.5" cy="371.9316" fill="none" rx="3" ry="3" style="stroke:#545454;stroke-width:1.0;"/><text fill="#000000" font-family="sans-serif" font-size="14" lengthAdjust="spacing" textLength="70.8135" x="1812.5" y="376.2285">type: String</text><ellipse cx="1803.5" cy="390.5527" fill="none" rx="3" ry="3" style="stroke:#545454;stroke-width:1.0;"/><text fill="#000000" font-family="sans-serif" font-size="14" lengthAdjust="spacing" textLength="159.5234" x="1812.5" y="394.8496">originStationName: String</text><ellipse cx="1803.5" cy="409.1738" fill="none" rx="3" ry="3" style="stroke:#545454;stroke-width:1.0;"/><text fill="#000000" font-family="sans-serif" font-size="14" lengthAdjust="spacing" textLength="192.999" x="1812.5" y="413.4707">destinationStationName: String</text><ellipse cx="1803.5" cy="427.7949" fill="none" rx="3" ry="3" style="stroke:#545454;stroke-width:1.0;"/><text fill="#000000" font-family="sans-serif" font-size="14" lengthAdjust="spacing" textLength="98.8545" x="1812.5" y="432.0918">quantity: double</text><line style="stroke:#181818;stroke-width:0.5;" x1="1793.5" x2="2010.499" y1="439.6055" y2="439.6055"/></g><!--class GenerationStatisticsDTO--><g id="elem_GenerationStatisticsDTO"><rect codeLine="41" fill="#F1F1F1" height="103.8633" id="GenerationStatisticsDTO" rx="2.5" ry="2.5" style="stroke:#181818;stroke-width:0.5;" width="229.916" x="7" y="490.1211"/><ellipse cx="41.3869" cy="506.1211" fill="#C2C2C2" rx="11" ry="11" style="stroke:#181818;stroke-width:1.0;"/><path d="M44.1525,501.9961 Q44.3088,501.7773 44.4963,501.668 Q44.6838,501.5586 44.9025,501.5586 Q45.2775,501.5586 45.5119,501.8242 Q45.7463,502.0742 45.7463,502.6836 L45.7463,504.1367 Q45.7463,504.7461 45.5119,505.0117 Q45.2775,505.2773 44.9025,505.2773 Q44.5588,505.2773 44.3557,505.0742 Q44.1525,504.8867 44.0432,504.3711 Q43.9963,504.0117 43.8088,503.8242 Q43.4807,503.4492 42.8713,503.2305 Q42.2619,503.0117 41.6369,503.0117 Q40.8713,503.0117 40.2307,503.3398 Q39.6057,503.668 39.1057,504.418 Q38.6213,505.168 38.6213,506.1992 L38.6213,507.293 Q38.6213,508.5273 39.5119,509.3555 Q40.4025,510.168 41.9963,510.168 Q42.9338,510.168 43.59,509.918 Q43.9807,509.7617 44.4025,509.3242 Q44.6682,509.0586 44.8088,508.9805 Q44.965,508.9023 45.1682,508.9023 Q45.4963,508.9023 45.7463,509.168 Q46.0119,509.418 46.0119,509.7617 Q46.0119,510.1055 45.6682,510.5117 Q45.1682,511.0898 44.3713,511.418 Q43.2932,511.8711 41.9963,511.8711 Q40.4807,511.8711 39.2775,511.2461 Q38.2932,510.7461 37.6057,509.6836 Q36.9182,508.6055 36.9182,507.3242 L36.9182,506.168 Q36.9182,504.8398 37.5275,503.6992 Q38.1525,502.543 39.2463,501.9336 Q40.34,501.3086 41.5744,501.3086 Q42.3088,501.3086 42.9494,501.4805 Q43.6057,501.6367 44.1525,501.9961 Z " fill="#000000"/><text fill="#000000" font-family="sans-serif" font-size="14" lengthAdjust="spacing" textLength="154.834" x="59.6951" y="511.918">GenerationStatisticsDTO</text><line style="stroke:#181818;stroke-width:0.5;" x1="8" x2="235.916" y1="522.1211" y2="522.1211"/><ellipse cx="18" cy="536.9316" fill="none" rx="3" ry="3" style="stroke:#545454;stroke-width:1.0;"/><text fill="#000000" font-family="sans-serif" font-size="14" lengthAdjust="spacing" textLength="203.916" x="27" y="541.2285">averageCargoPerStation: double</text><ellipse cx="18" cy="555.5527" fill="none" rx="3" ry="3" style="stroke:#545454;stroke-width:1.0;"/><text fill="#000000" font-family="sans-serif" font-size="14" lengthAdjust="spacing" textLength="123.751" x="27" y="559.8496">totalVolume: double</text><ellipse cx="18" cy="574.1738" fill="none" rx="3" ry="3" style="stroke:#545454;stroke-width:1.0;"/><text fill="#000000" font-family="sans-serif" font-size="14" lengthAdjust="spacing" textLength="177.4336" x="27" y="578.4707">distributionEfficiency: double</text><line style="stroke:#181818;stroke-width:0.5;" x1="8" x2="235.916" y1="585.9844" y2="585.9844"/></g><!--class Mapper--><g id="elem_Mapper"><rect codeLine="47" fill="#F1F1F1" height="85.2422" id="Mapper" rx="2.5" ry="2.5" style="stroke:#181818;stroke-width:0.5;" width="233.7373" x="1785" y="639.6211"/><ellipse cx="1868.2192" cy="655.6211" fill="#B1B1B1" rx="11" ry="11" style="stroke:#181818;stroke-width:1.0;"/><path d="M1869.1724,652.2617 L1869.1724,658.918 L1870.8911,658.918 Q1871.5005,658.918 1871.7661,659.1523 Q1872.0317,659.3867 1872.0317,659.7773 Q1872.0317,660.1523 1871.7661,660.3867 Q1871.5005,660.6211 1870.8911,660.6211 L1865.7505,660.6211 Q1865.1411,660.6211 1864.8755,660.3867 Q1864.6099,660.1523 1864.6099,659.7617 Q1864.6099,659.3867 1864.8755,659.1523 Q1865.1411,658.918 1865.7505,658.918 L1867.4692,658.918 L1867.4692,652.2617 L1865.7505,652.2617 Q1865.1411,652.2617 1864.8755,652.0273 Q1864.6099,651.793 1864.6099,651.4023 Q1864.6099,651.0273 1864.8755,650.793 Q1865.1411,650.5586 1865.7505,650.5586 L1870.8911,650.5586 Q1871.5005,650.5586 1871.7661,650.793 Q1872.0317,651.0273 1872.0317,651.4023 Q1872.0317,651.793 1871.7661,652.0273 Q1871.5005,652.2617 1870.8911,652.2617 L1869.1724,652.2617 Z " fill="#000000"/><text fill="#000000" font-family="sans-serif" font-size="14" font-style="italic" lengthAdjust="spacing" textLength="47.4688" x="1888.7192" y="661.418">Mapper</text><rect fill="#FFFFFF" height="17.9609" style="stroke:#181818;stroke-width:1.0;stroke-dasharray:2.0,2.0;" width="9.3301" x="2012.4072" y="636.6211"/><text fill="#000000" font-family="sans-serif" font-size="12" font-style="italic" lengthAdjust="spacing" textLength="7.3301" x="2013.4072" y="650.5703">T</text><line style="stroke:#181818;stroke-width:0.5;" x1="1786" x2="2017.7373" y1="671.6211" y2="671.6211"/><line style="stroke:#181818;stroke-width:0.5;" x1="1786" x2="2017.7373" y1="679.6211" y2="679.6211"/><ellipse cx="1796" cy="694.4316" fill="#A6A6A6" rx="3" ry="3" style="stroke:#545454;stroke-width:1.0;"/><text fill="#000000" font-family="sans-serif" font-size="14" lengthAdjust="spacing" textLength="109.6758" x="1805" y="698.7285">toDTO(type: T): T</text><ellipse cx="1796" cy="713.0527" fill="#A6A6A6" rx="3" ry="3" style="stroke:#545454;stroke-width:1.0;"/><text fill="#000000" font-family="sans-serif" font-size="14" lengthAdjust="spacing" textLength="207.7373" x="1805" y="717.3496">toDTOList(type: List&lt;T&gt;): List&lt;T&gt;</text></g><!--class StationMapper--><g id="elem_StationMapper"><rect codeLine="53" fill="#F1F1F1" height="85.2422" id="StationMapper" rx="2.5" ry="2.5" style="stroke:#181818;stroke-width:0.5;" width="355.1436" x="903.5" y="721.6211"/><ellipse cx="1031.2944" cy="737.6211" fill="#C2C2C2" rx="11" ry="11" style="stroke:#181818;stroke-width:1.0;"/><path d="M1034.0601,733.4961 Q1034.2163,733.2773 1034.4038,733.168 Q1034.5913,733.0586 1034.8101,733.0586 Q1035.1851,733.0586 1035.4194,733.3242 Q1035.6538,733.5742 1035.6538,734.1836 L1035.6538,735.6367 Q1035.6538,736.2461 1035.4194,736.5117 Q1035.1851,736.7773 1034.8101,736.7773 Q1034.4663,736.7773 1034.2632,736.5742 Q1034.0601,736.3867 1033.9507,735.8711 Q1033.9038,735.5117 1033.7163,735.3242 Q1033.3882,734.9492 1032.7788,734.7305 Q1032.1694,734.5117 1031.5444,734.5117 Q1030.7788,734.5117 1030.1382,734.8398 Q1029.5132,735.168 1029.0132,735.918 Q1028.5288,736.668 1028.5288,737.6992 L1028.5288,738.793 Q1028.5288,740.0273 1029.4194,740.8555 Q1030.3101,741.668 1031.9038,741.668 Q1032.8413,741.668 1033.4976,741.418 Q1033.8882,741.2617 1034.3101,740.8242 Q1034.5757,740.5586 1034.7163,740.4805 Q1034.8726,740.4023 1035.0757,740.4023 Q1035.4038,740.4023 1035.6538,740.668 Q1035.9194,740.918 1035.9194,741.2617 Q1035.9194,741.6055 1035.5757,742.0117 Q1035.0757,742.5898 1034.2788,742.918 Q1033.2007,743.3711 1031.9038,743.3711 Q1030.3882,743.3711 1029.1851,742.7461 Q1028.2007,742.2461 1027.5132,741.1836 Q1026.8257,740.1055 1026.8257,738.8242 L1026.8257,737.668 Q1026.8257,736.3398 1027.4351,735.1992 Q1028.0601,734.043 1029.1538,733.4336 Q1030.2476,732.8086 1031.4819,732.8086 Q1032.2163,732.8086 1032.8569,732.9805 Q1033.5132,733.1367 1034.0601,733.4961 Z " fill="#000000"/><text fill="#000000" font-family="sans-serif" font-size="14" lengthAdjust="spacing" textLength="91.0547" x="1051.7944" y="743.418">StationMapper</text><line style="stroke:#181818;stroke-width:0.5;" x1="904.5" x2="1257.6436" y1="753.6211" y2="753.6211"/><line style="stroke:#181818;stroke-width:0.5;" x1="904.5" x2="1257.6436" y1="761.6211" y2="761.6211"/><ellipse cx="914.5" cy="776.4316" fill="#A6A6A6" rx="3" ry="3" style="stroke:#545454;stroke-width:1.0;"/><text fill="#000000" font-family="sans-serif" font-size="14" lengthAdjust="spacing" textLength="224.082" x="923.5" y="780.7285">toDTO(station: Station): StationDTO</text><ellipse cx="914.5" cy="795.0527" fill="#A6A6A6" rx="3" ry="3" style="stroke:#545454;stroke-width:1.0;"/><text fill="#000000" font-family="sans-serif" font-size="14" lengthAdjust="spacing" textLength="329.1436" x="923.5" y="799.3496">toDTOList(stations: List&lt;Station&gt;): List&lt;StationDTO&gt;</text></g><!--class CargoMapper--><g id="elem_CargoMapper"><rect codeLine="58" fill="#F1F1F1" height="85.2422" id="CargoMapper" rx="2.5" ry="2.5" style="stroke:#181818;stroke-width:0.5;" width="338.0059" x="912" y="295.6211"/><ellipse cx="1033.9531" cy="311.6211" fill="#C2C2C2" rx="11" ry="11" style="stroke:#181818;stroke-width:1.0;"/><path d="M1036.7188,307.4961 Q1036.875,307.2773 1037.0625,307.168 Q1037.25,307.0586 1037.4688,307.0586 Q1037.8438,307.0586 1038.0781,307.3242 Q1038.3125,307.5742 1038.3125,308.1836 L1038.3125,309.6367 Q1038.3125,310.2461 1038.0781,310.5117 Q1037.8438,310.7773 1037.4688,310.7773 Q1037.125,310.7773 1036.9219,310.5742 Q1036.7188,310.3867 1036.6094,309.8711 Q1036.5625,309.5117 1036.375,309.3242 Q1036.0469,308.9492 1035.4375,308.7305 Q1034.8281,308.5117 1034.2031,308.5117 Q1033.4375,308.5117 1032.7969,308.8398 Q1032.1719,309.168 1031.6719,309.918 Q1031.1875,310.668 1031.1875,311.6992 L1031.1875,312.793 Q1031.1875,314.0273 1032.0781,314.8555 Q1032.9688,315.668 1034.5625,315.668 Q1035.5,315.668 1036.1563,315.418 Q1036.5469,315.2617 1036.9688,314.8242 Q1037.2344,314.5586 1037.375,314.4805 Q1037.5313,314.4023 1037.7344,314.4023 Q1038.0625,314.4023 1038.3125,314.668 Q1038.5781,314.918 1038.5781,315.2617 Q1038.5781,315.6055 1038.2344,316.0117 Q1037.7344,316.5898 1036.9375,316.918 Q1035.8594,317.3711 1034.5625,317.3711 Q1033.0469,317.3711 1031.8438,316.7461 Q1030.8594,316.2461 1030.1719,315.1836 Q1029.4844,314.1055 1029.4844,312.8242 L1029.4844,311.668 Q1029.4844,310.3398 1030.0938,309.1992 Q1030.7188,308.043 1031.8125,307.4336 Q1032.9063,306.8086 1034.1406,306.8086 Q1034.875,306.8086 1035.5156,306.9805 Q1036.1719,307.1367 1036.7188,307.4961 Z " fill="#000000"/><text fill="#000000" font-family="sans-serif" font-size="14" lengthAdjust="spacing" textLength="85.5996" x="1054.4531" y="317.418">CargoMapper</text><line style="stroke:#181818;stroke-width:0.5;" x1="913" x2="1249.0059" y1="327.6211" y2="327.6211"/><line style="stroke:#181818;stroke-width:0.5;" x1="913" x2="1249.0059" y1="335.6211" y2="335.6211"/><ellipse cx="923" cy="350.4316" fill="#A6A6A6" rx="3" ry="3" style="stroke:#545454;stroke-width:1.0;"/><text fill="#000000" font-family="sans-serif" font-size="14" lengthAdjust="spacing" textLength="206.9443" x="932" y="354.7285">toDTO(cargo: Cargo): CargoDTO</text><ellipse cx="923" cy="369.0527" fill="#A6A6A6" rx="3" ry="3" style="stroke:#545454;stroke-width:1.0;"/><text fill="#000000" font-family="sans-serif" font-size="14" lengthAdjust="spacing" textLength="312.0059" x="932" y="373.3496">toDTOList(cargos: List&lt;Cargo&gt;): List&lt;CargoDTO&gt;</text></g><!--class CargoGenerationMapper--><g id="elem_CargoGenerationMapper"><rect codeLine="63" fill="#F1F1F1" height="66.6211" id="CargoGenerationMapper" rx="2.5" ry="2.5" style="stroke:#181818;stroke-width:0.5;" width="548.0947" x="807" y="415.6211"/><ellipse cx="999.3633" cy="431.6211" fill="#C2C2C2" rx="11" ry="11" style="stroke:#181818;stroke-width:1.0;"/><path d="M1002.1289,427.4961 Q1002.2852,427.2773 1002.4727,427.168 Q1002.6602,427.0586 1002.8789,427.0586 Q1003.2539,427.0586 1003.4883,427.3242 Q1003.7227,427.5742 1003.7227,428.1836 L1003.7227,429.6367 Q1003.7227,430.2461 1003.4883,430.5117 Q1003.2539,430.7773 1002.8789,430.7773 Q1002.5352,430.7773 1002.332,430.5742 Q1002.1289,430.3867 1002.0195,429.8711 Q1001.9727,429.5117 1001.7852,429.3242 Q1001.457,428.9492 1000.8477,428.7305 Q1000.2383,428.5117 999.6133,428.5117 Q998.8477,428.5117 998.207,428.8398 Q997.582,429.168 997.082,429.918 Q996.5977,430.668 996.5977,431.6992 L996.5977,432.793 Q996.5977,434.0273 997.4883,434.8555 Q998.3789,435.668 999.9727,435.668 Q1000.9102,435.668 1001.5664,435.418 Q1001.957,435.2617 1002.3789,434.8242 Q1002.6445,434.5586 1002.7852,434.4805 Q1002.9414,434.4023 1003.1445,434.4023 Q1003.4727,434.4023 1003.7227,434.668 Q1003.9883,434.918 1003.9883,435.2617 Q1003.9883,435.6055 1003.6445,436.0117 Q1003.1445,436.5898 1002.3477,436.918 Q1001.2695,437.3711 999.9727,437.3711 Q998.457,437.3711 997.2539,436.7461 Q996.2695,436.2461 995.582,435.1836 Q994.8945,434.1055 994.8945,432.8242 L994.8945,431.668 Q994.8945,430.3398 995.5039,429.1992 Q996.1289,428.043 997.2227,427.4336 Q998.3164,426.8086 999.5508,426.8086 Q1000.2852,426.8086 1000.9258,426.9805 Q1001.582,427.1367 1002.1289,427.4961 Z " fill="#000000"/><text fill="#000000" font-family="sans-serif" font-size="14" lengthAdjust="spacing" textLength="154.8682" x="1019.8633" y="437.418">CargoGenerationMapper</text><line style="stroke:#181818;stroke-width:0.5;" x1="808" x2="1354.0947" y1="447.6211" y2="447.6211"/><line style="stroke:#181818;stroke-width:0.5;" x1="808" x2="1354.0947" y1="455.6211" y2="455.6211"/><ellipse cx="818" cy="470.4316" fill="#A6A6A6" rx="3" ry="3" style="stroke:#545454;stroke-width:1.0;"/><text fill="#000000" font-family="sans-serif" font-size="14" lengthAdjust="spacing" textLength="522.0947" x="827" y="474.7285">toResultDTO(stations: List&lt;Station&gt;, statistics: Object): CargoGenerationResultDTO</text></g><!--class SimulationService--><g id="elem_SimulationService"><rect codeLine="67" fill="#F1F1F1" height="66.6211" id="SimulationService" rx="2.5" ry="2.5" style="stroke:#181818;stroke-width:0.5;" width="191.7441" x="985" y="517.6211"/><ellipse cx="1021.4633" cy="533.6211" fill="#C2C2C2" rx="11" ry="11" style="stroke:#181818;stroke-width:1.0;"/><path d="M1024.229,529.4961 Q1024.3852,529.2773 1024.5727,529.168 Q1024.7602,529.0586 1024.979,529.0586 Q1025.354,529.0586 1025.5883,529.3242 Q1025.8227,529.5742 1025.8227,530.1836 L1025.8227,531.6367 Q1025.8227,532.2461 1025.5883,532.5117 Q1025.354,532.7773 1024.979,532.7773 Q1024.6352,532.7773 1024.4321,532.5742 Q1024.229,532.3867 1024.1196,531.8711 Q1024.0727,531.5117 1023.8852,531.3242 Q1023.5571,530.9492 1022.9477,530.7305 Q1022.3383,530.5117 1021.7133,530.5117 Q1020.9477,530.5117 1020.3071,530.8398 Q1019.6821,531.168 1019.1821,531.918 Q1018.6977,532.668 1018.6977,533.6992 L1018.6977,534.793 Q1018.6977,536.0273 1019.5883,536.8555 Q1020.479,537.668 1022.0727,537.668 Q1023.0102,537.668 1023.6665,537.418 Q1024.0571,537.2617 1024.479,536.8242 Q1024.7446,536.5586 1024.8852,536.4805 Q1025.0415,536.4023 1025.2446,536.4023 Q1025.5727,536.4023 1025.8227,536.668 Q1026.0883,536.918 1026.0883,537.2617 Q1026.0883,537.6055 1025.7446,538.0117 Q1025.2446,538.5898 1024.4477,538.918 Q1023.3696,539.3711 1022.0727,539.3711 Q1020.5571,539.3711 1019.354,538.7461 Q1018.3696,538.2461 1017.6821,537.1836 Q1016.9946,536.1055 1016.9946,534.8242 L1016.9946,533.668 Q1016.9946,532.3398 1017.604,531.1992 Q1018.229,530.043 1019.3227,529.4336 Q1020.4165,528.8086 1021.6508,528.8086 Q1022.3852,528.8086 1023.0258,528.9805 Q1023.6821,529.1367 1024.229,529.4961 Z " fill="#000000"/><text fill="#000000" font-family="sans-serif" font-size="14" lengthAdjust="spacing" textLength="112.0479" x="1040.233" y="539.418">SimulationService</text><line style="stroke:#181818;stroke-width:0.5;" x1="986" x2="1175.7441" y1="549.6211" y2="549.6211"/><line style="stroke:#181818;stroke-width:0.5;" x1="986" x2="1175.7441" y1="557.6211" y2="557.6211"/><ellipse cx="996" cy="572.4316" fill="#A6A6A6" rx="3" ry="3" style="stroke:#545454;stroke-width:1.0;"/><text fill="#000000" font-family="sans-serif" font-size="14" lengthAdjust="spacing" textLength="165.7441" x="1005" y="576.7285">configureSimulation(): void</text></g><!--class StationRepository--><g id="elem_StationRepository"><rect codeLine="71" fill="#F1F1F1" height="66.6211" id="StationRepository" rx="2.5" ry="2.5" style="stroke:#181818;stroke-width:0.5;" width="210.4336" x="976" y="1145.6211"/><ellipse cx="1021.7153" cy="1161.6211" fill="#C2C2C2" rx="11" ry="11" style="stroke:#181818;stroke-width:1.0;"/><path d="M1024.481,1157.4961 Q1024.6372,1157.2773 1024.8247,1157.168 Q1025.0122,1157.0586 1025.231,1157.0586 Q1025.606,1157.0586 1025.8403,1157.3242 Q1026.0747,1157.5742 1026.0747,1158.1836 L1026.0747,1159.6367 Q1026.0747,1160.2461 1025.8403,1160.5117 Q1025.606,1160.7773 1025.231,1160.7773 Q1024.8872,1160.7773 1024.6841,1160.5742 Q1024.481,1160.3867 1024.3716,1159.8711 Q1024.3247,1159.5117 1024.1372,1159.3242 Q1023.8091,1158.9492 1023.1997,1158.7305 Q1022.5903,1158.5117 1021.9653,1158.5117 Q1021.1997,1158.5117 1020.5591,1158.8398 Q1019.9341,1159.168 1019.4341,1159.918 Q1018.9497,1160.668 1018.9497,1161.6992 L1018.9497,1162.793 Q1018.9497,1164.0273 1019.8403,1164.8555 Q1020.731,1165.668 1022.3247,1165.668 Q1023.2622,1165.668 1023.9185,1165.418 Q1024.3091,1165.2617 1024.731,1164.8242 Q1024.9966,1164.5586 1025.1372,1164.4805 Q1025.2935,1164.4023 1025.4966,1164.4023 Q1025.8247,1164.4023 1026.0747,1164.668 Q1026.3403,1164.918 1026.3403,1165.2617 Q1026.3403,1165.6055 1025.9966,1166.0117 Q1025.4966,1166.5898 1024.6997,1166.918 Q1023.6216,1167.3711 1022.3247,1167.3711 Q1020.8091,1167.3711 1019.606,1166.7461 Q1018.6216,1166.2461 1017.9341,1165.1836 Q1017.2466,1164.1055 1017.2466,1162.8242 L1017.2466,1161.668 Q1017.2466,1160.3398 1017.856,1159.1992 Q1018.481,1158.043 1019.5747,1157.4336 Q1020.6685,1156.8086 1021.9028,1156.8086 Q1022.6372,1156.8086 1023.2778,1156.9805 Q1023.9341,1157.1367 1024.481,1157.4961 Z " fill="#000000"/><text fill="#000000" font-family="sans-serif" font-size="14" lengthAdjust="spacing" textLength="110.5029" x="1042.2153" y="1167.418">StationRepository</text><line style="stroke:#181818;stroke-width:0.5;" x1="977" x2="1185.4336" y1="1177.6211" y2="1177.6211"/><line style="stroke:#181818;stroke-width:0.5;" x1="977" x2="1185.4336" y1="1185.6211" y2="1185.6211"/><ellipse cx="987" cy="1200.4316" fill="#A6A6A6" rx="3" ry="3" style="stroke:#545454;stroke-width:1.0;"/><text fill="#000000" font-family="sans-serif" font-size="14" lengthAdjust="spacing" textLength="184.4336" x="996" y="1204.7285">getAllStations(): List&lt;Station&gt;</text></g><!--class IndustryService--><g id="elem_IndustryService"><rect codeLine="75" fill="#F1F1F1" height="66.6211" id="IndustryService" rx="2.5" ry="2.5" style="stroke:#181818;stroke-width:0.5;" width="369.9707" x="1385" y="1226.6211"/><ellipse cx="1517.4941" cy="1242.6211" fill="#C2C2C2" rx="11" ry="11" style="stroke:#181818;stroke-width:1.0;"/><path d="M1520.2598,1238.4961 Q1520.416,1238.2773 1520.6035,1238.168 Q1520.791,1238.0586 1521.0098,1238.0586 Q1521.3848,1238.0586 1521.6191,1238.3242 Q1521.8535,1238.5742 1521.8535,1239.1836 L1521.8535,1240.6367 Q1521.8535,1241.2461 1521.6191,1241.5117 Q1521.3848,1241.7773 1521.0098,1241.7773 Q1520.666,1241.7773 1520.4629,1241.5742 Q1520.2598,1241.3867 1520.1504,1240.8711 Q1520.1035,1240.5117 1519.916,1240.3242 Q1519.5879,1239.9492 1518.9785,1239.7305 Q1518.3691,1239.5117 1517.7441,1239.5117 Q1516.9785,1239.5117 1516.3379,1239.8398 Q1515.7129,1240.168 1515.2129,1240.918 Q1514.7285,1241.668 1514.7285,1242.6992 L1514.7285,1243.793 Q1514.7285,1245.0273 1515.6191,1245.8555 Q1516.5098,1246.668 1518.1035,1246.668 Q1519.041,1246.668 1519.6973,1246.418 Q1520.0879,1246.2617 1520.5098,1245.8242 Q1520.7754,1245.5586 1520.916,1245.4805 Q1521.0723,1245.4023 1521.2754,1245.4023 Q1521.6035,1245.4023 1521.8535,1245.668 Q1522.1191,1245.918 1522.1191,1246.2617 Q1522.1191,1246.6055 1521.7754,1247.0117 Q1521.2754,1247.5898 1520.4785,1247.918 Q1519.4004,1248.3711 1518.1035,1248.3711 Q1516.5879,1248.3711 1515.3848,1247.7461 Q1514.4004,1247.2461 1513.7129,1246.1836 Q1513.0254,1245.1055 1513.0254,1243.8242 L1513.0254,1242.668 Q1513.0254,1241.3398 1513.6348,1240.1992 Q1514.2598,1239.043 1515.3535,1238.4336 Q1516.4473,1237.8086 1517.6816,1237.8086 Q1518.416,1237.8086 1519.0566,1237.9805 Q1519.7129,1238.1367 1520.2598,1238.4961 Z " fill="#000000"/><text fill="#000000" font-family="sans-serif" font-size="14" lengthAdjust="spacing" textLength="96.4824" x="1537.9941" y="1248.418">IndustryService</text><line style="stroke:#181818;stroke-width:0.5;" x1="1386" x2="1753.9707" y1="1258.6211" y2="1258.6211"/><line style="stroke:#181818;stroke-width:0.5;" x1="1386" x2="1753.9707" y1="1266.6211" y2="1266.6211"/><ellipse cx="1396" cy="1281.4316" fill="#A6A6A6" rx="3" ry="3" style="stroke:#545454;stroke-width:1.0;"/><text fill="#000000" font-family="sans-serif" font-size="14" lengthAdjust="spacing" textLength="343.9707" x="1405" y="1285.7285">generateCargoForStation(station: Station): List&lt;Cargo&gt;</text></g><!--class CityService--><g id="elem_CityService"><rect codeLine="79" fill="#F1F1F1" height="66.6211" id="CityService" rx="2.5" ry="2.5" style="stroke:#181818;stroke-width:0.5;" width="369.9707" x="1385" y="816.6211"/><ellipse cx="1530.3389" cy="832.6211" fill="#C2C2C2" rx="11" ry="11" style="stroke:#181818;stroke-width:1.0;"/><path d="M1533.1045,828.4961 Q1533.2607,828.2773 1533.4482,828.168 Q1533.6357,828.0586 1533.8545,828.0586 Q1534.2295,828.0586 1534.4639,828.3242 Q1534.6982,828.5742 1534.6982,829.1836 L1534.6982,830.6367 Q1534.6982,831.2461 1534.4639,831.5117 Q1534.2295,831.7773 1533.8545,831.7773 Q1533.5107,831.7773 1533.3076,831.5742 Q1533.1045,831.3867 1532.9951,830.8711 Q1532.9482,830.5117 1532.7607,830.3242 Q1532.4326,829.9492 1531.8232,829.7305 Q1531.2139,829.5117 1530.5889,829.5117 Q1529.8232,829.5117 1529.1826,829.8398 Q1528.5576,830.168 1528.0576,830.918 Q1527.5732,831.668 1527.5732,832.6992 L1527.5732,833.793 Q1527.5732,835.0273 1528.4639,835.8555 Q1529.3545,836.668 1530.9482,836.668 Q1531.8857,836.668 1532.542,836.418 Q1532.9326,836.2617 1533.3545,835.8242 Q1533.6201,835.5586 1533.7607,835.4805 Q1533.917,835.4023 1534.1201,835.4023 Q1534.4482,835.4023 1534.6982,835.668 Q1534.9639,835.918 1534.9639,836.2617 Q1534.9639,836.6055 1534.6201,837.0117 Q1534.1201,837.5898 1533.3232,837.918 Q1532.2451,838.3711 1530.9482,838.3711 Q1529.4326,838.3711 1528.2295,837.7461 Q1527.2451,837.2461 1526.5576,836.1836 Q1525.8701,835.1055 1525.8701,833.8242 L1525.8701,832.668 Q1525.8701,831.3398 1526.4795,830.1992 Q1527.1045,829.043 1528.1982,828.4336 Q1529.292,827.8086 1530.5264,827.8086 Q1531.2607,827.8086 1531.9014,827.9805 Q1532.5576,828.1367 1533.1045,828.4961 Z " fill="#000000"/><text fill="#000000" font-family="sans-serif" font-size="14" lengthAdjust="spacing" textLength="70.793" x="1550.8389" y="838.418">CityService</text><line style="stroke:#181818;stroke-width:0.5;" x1="1386" x2="1753.9707" y1="848.6211" y2="848.6211"/><line style="stroke:#181818;stroke-width:0.5;" x1="1386" x2="1753.9707" y1="856.6211" y2="856.6211"/><ellipse cx="1396" cy="871.4316" fill="#A6A6A6" rx="3" ry="3" style="stroke:#545454;stroke-width:1.0;"/><text fill="#000000" font-family="sans-serif" font-size="14" lengthAdjust="spacing" textLength="343.9707" x="1405" y="875.7285">generateCargoForStation(station: Station): List&lt;Cargo&gt;</text></g><!--class Station--><g id="elem_Station"><rect codeLine="83" fill="#F1F1F1" height="122.4844" id="Station" rx="2.5" ry="2.5" style="stroke:#181818;stroke-width:0.5;" width="206.5371" x="1798.5" y="960.1211"/><ellipse cx="1875.7256" cy="976.1211" fill="#C2C2C2" rx="11" ry="11" style="stroke:#181818;stroke-width:1.0;"/><path d="M1878.4912,971.9961 Q1878.6475,971.7773 1878.835,971.668 Q1879.0225,971.5586 1879.2412,971.5586 Q1879.6162,971.5586 1879.8506,971.8242 Q1880.085,972.0742 1880.085,972.6836 L1880.085,974.1367 Q1880.085,974.7461 1879.8506,975.0117 Q1879.6162,975.2773 1879.2412,975.2773 Q1878.8975,975.2773 1878.6943,975.0742 Q1878.4912,974.8867 1878.3818,974.3711 Q1878.335,974.0117 1878.1475,973.8242 Q1877.8193,973.4492 1877.21,973.2305 Q1876.6006,973.0117 1875.9756,973.0117 Q1875.21,973.0117 1874.5693,973.3398 Q1873.9443,973.668 1873.4443,974.418 Q1872.96,975.168 1872.96,976.1992 L1872.96,977.293 Q1872.96,978.5273 1873.8506,979.3555 Q1874.7412,980.168 1876.335,980.168 Q1877.2725,980.168 1877.9287,979.918 Q1878.3193,979.7617 1878.7412,979.3242 Q1879.0068,979.0586 1879.1475,978.9805 Q1879.3037,978.9023 1879.5068,978.9023 Q1879.835,978.9023 1880.085,979.168 Q1880.3506,979.418 1880.3506,979.7617 Q1880.3506,980.1055 1880.0068,980.5117 Q1879.5068,981.0898 1878.71,981.418 Q1877.6318,981.8711 1876.335,981.8711 Q1874.8193,981.8711 1873.6162,981.2461 Q1872.6318,980.7461 1871.9443,979.6836 Q1871.2568,978.6055 1871.2568,977.3242 L1871.2568,976.168 Q1871.2568,974.8398 1871.8662,973.6992 Q1872.4912,972.543 1873.585,971.9336 Q1874.6787,971.3086 1875.9131,971.3086 Q1876.6475,971.3086 1877.2881,971.4805 Q1877.9443,971.6367 1878.4912,971.9961 Z " fill="#000000"/><text fill="#000000" font-family="sans-serif" font-size="14" lengthAdjust="spacing" textLength="43.5859" x="1896.2256" y="981.918">Station</text><line style="stroke:#181818;stroke-width:0.5;" x1="1799.5" x2="2004.0371" y1="992.1211" y2="992.1211"/><rect fill="none" height="6" style="stroke:#595959;stroke-width:1.0;" width="6" x="1806.5" y="1003.9316"/><text fill="#000000" font-family="sans-serif" font-size="14" lengthAdjust="spacing" textLength="79.3721" x="1818.5" y="1011.2285">name: String</text><rect fill="none" height="6" style="stroke:#595959;stroke-width:1.0;" width="6" x="1806.5" y="1022.5527"/><text fill="#000000" font-family="sans-serif" font-size="14" lengthAdjust="spacing" textLength="96.4961" x="1818.5" y="1029.8496">location: Object</text><rect fill="none" height="6" style="stroke:#595959;stroke-width:1.0;" width="6" x="1806.5" y="1041.1738"/><text fill="#000000" font-family="sans-serif" font-size="14" lengthAdjust="spacing" textLength="150.9854" x="1818.5" y="1048.4707">storageCapacity: double</text><rect fill="none" height="6" style="stroke:#595959;stroke-width:1.0;" width="6" x="1806.5" y="1059.7949"/><text fill="#000000" font-family="sans-serif" font-size="14" lengthAdjust="spacing" textLength="180.5371" x="1818.5" y="1067.0918">currentCargoes: List&lt;Cargo&gt;</text><line style="stroke:#181818;stroke-width:0.5;" x1="1799.5" x2="2004.0371" y1="1074.6055" y2="1074.6055"/></g><!--class Cargo--><g id="elem_Cargo"><rect codeLine="90" fill="#F1F1F1" height="141.1055" id="Cargo" rx="2.5" ry="2.5" style="stroke:#181818;stroke-width:0.5;" width="170.7578" x="2446" y="889.6211"/><ellipse cx="2508.0635" cy="905.6211" fill="#C2C2C2" rx="11" ry="11" style="stroke:#181818;stroke-width:1.0;"/><path d="M2510.8291,901.4961 Q2510.9854,901.2773 2511.1729,901.168 Q2511.3604,901.0586 2511.5791,901.0586 Q2511.9541,901.0586 2512.1885,901.3242 Q2512.4229,901.5742 2512.4229,902.1836 L2512.4229,903.6367 Q2512.4229,904.2461 2512.1885,904.5117 Q2511.9541,904.7773 2511.5791,904.7773 Q2511.2354,904.7773 2511.0322,904.5742 Q2510.8291,904.3867 2510.7197,903.8711 Q2510.6729,903.5117 2510.4854,903.3242 Q2510.1572,902.9492 2509.5479,902.7305 Q2508.9385,902.5117 2508.3135,902.5117 Q2507.5479,902.5117 2506.9072,902.8398 Q2506.2822,903.168 2505.7822,903.918 Q2505.2979,904.668 2505.2979,905.6992 L2505.2979,906.793 Q2505.2979,908.0273 2506.1885,908.8555 Q2507.0791,909.668 2508.6729,909.668 Q2509.6104,909.668 2510.2666,909.418 Q2510.6572,909.2617 2511.0791,908.8242 Q2511.3447,908.5586 2511.4854,908.4805 Q2511.6416,908.4023 2511.8447,908.4023 Q2512.1729,908.4023 2512.4229,908.668 Q2512.6885,908.918 2512.6885,909.2617 Q2512.6885,909.6055 2512.3447,910.0117 Q2511.8447,910.5898 2511.0479,910.918 Q2509.9697,911.3711 2508.6729,911.3711 Q2507.1572,911.3711 2505.9541,910.7461 Q2504.9697,910.2461 2504.2822,909.1836 Q2503.5947,908.1055 2503.5947,906.8242 L2503.5947,905.668 Q2503.5947,904.3398 2504.2041,903.1992 Q2504.8291,902.043 2505.9229,901.4336 Q2507.0166,900.8086 2508.251,900.8086 Q2508.9854,900.8086 2509.626,900.9805 Q2510.2822,901.1367 2510.8291,901.4961 Z " fill="#000000"/><text fill="#000000" font-family="sans-serif" font-size="14" lengthAdjust="spacing" textLength="38.1309" x="2528.5635" y="911.418">Cargo</text><line style="stroke:#181818;stroke-width:0.5;" x1="2447" x2="2615.7578" y1="921.6211" y2="921.6211"/><rect fill="none" height="6" style="stroke:#595959;stroke-width:1.0;" width="6" x="2454" y="933.4316"/><text fill="#000000" font-family="sans-serif" font-size="14" lengthAdjust="spacing" textLength="70.8135" x="2466" y="940.7285">type: String</text><rect fill="none" height="6" style="stroke:#595959;stroke-width:1.0;" width="6" x="2454" y="952.0527"/><text fill="#000000" font-family="sans-serif" font-size="14" lengthAdjust="spacing" textLength="85.6064" x="2466" y="959.3496">origin: Station</text><rect fill="none" height="6" style="stroke:#595959;stroke-width:1.0;" width="6" x="2454" y="970.6738"/><text fill="#000000" font-family="sans-serif" font-size="14" lengthAdjust="spacing" textLength="119.082" x="2466" y="977.9707">destination: Station</text><rect fill="none" height="6" style="stroke:#595959;stroke-width:1.0;" width="6" x="2454" y="989.2949"/><text fill="#000000" font-family="sans-serif" font-size="14" lengthAdjust="spacing" textLength="98.8545" x="2466" y="996.5918">quantity: double</text><line style="stroke:#181818;stroke-width:0.5;" x1="2447" x2="2615.7578" y1="1004.1055" y2="1004.1055"/><ellipse cx="2457" cy="1018.916" fill="#A6A6A6" rx="3" ry="3" style="stroke:#545454;stroke-width:1.0;"/><text fill="#000000" font-family="sans-serif" font-size="14" lengthAdjust="spacing" textLength="144.7578" x="2466" y="1023.2129">validateData(): boolean</text></g><!--class CargoRepository--><g id="elem_CargoRepository"><rect codeLine="98" fill="#F1F1F1" height="66.6211" id="CargoRepository" rx="2.5" ry="2.5" style="stroke:#181818;stroke-width:0.5;" width="217.4199" x="2163.5" y="926.6211"/><ellipse cx="2215.436" cy="942.6211" fill="#C2C2C2" rx="11" ry="11" style="stroke:#181818;stroke-width:1.0;"/><path d="M2218.2017,938.4961 Q2218.3579,938.2773 2218.5454,938.168 Q2218.7329,938.0586 2218.9517,938.0586 Q2219.3267,938.0586 2219.561,938.3242 Q2219.7954,938.5742 2219.7954,939.1836 L2219.7954,940.6367 Q2219.7954,941.2461 2219.561,941.5117 Q2219.3267,941.7773 2218.9517,941.7773 Q2218.6079,941.7773 2218.4048,941.5742 Q2218.2017,941.3867 2218.0923,940.8711 Q2218.0454,940.5117 2217.8579,940.3242 Q2217.5298,939.9492 2216.9204,939.7305 Q2216.311,939.5117 2215.686,939.5117 Q2214.9204,939.5117 2214.2798,939.8398 Q2213.6548,940.168 2213.1548,940.918 Q2212.6704,941.668 2212.6704,942.6992 L2212.6704,943.793 Q2212.6704,945.0273 2213.561,945.8555 Q2214.4517,946.668 2216.0454,946.668 Q2216.9829,946.668 2217.6392,946.418 Q2218.0298,946.2617 2218.4517,945.8242 Q2218.7173,945.5586 2218.8579,945.4805 Q2219.0142,945.4023 2219.2173,945.4023 Q2219.5454,945.4023 2219.7954,945.668 Q2220.061,945.918 2220.061,946.2617 Q2220.061,946.6055 2219.7173,947.0117 Q2219.2173,947.5898 2218.4204,947.918 Q2217.3423,948.3711 2216.0454,948.3711 Q2214.5298,948.3711 2213.3267,947.7461 Q2212.3423,947.2461 2211.6548,946.1836 Q2210.9673,945.1055 2210.9673,943.8242 L2210.9673,942.668 Q2210.9673,941.3398 2211.5767,940.1992 Q2212.2017,939.043 2213.2954,938.4336 Q2214.3892,937.8086 2215.6235,937.8086 Q2216.3579,937.8086 2216.9985,937.9805 Q2217.6548,938.1367 2218.2017,938.4961 Z " fill="#000000"/><text fill="#000000" font-family="sans-serif" font-size="14" lengthAdjust="spacing" textLength="105.0479" x="2235.936" y="948.418">CargoRepository</text><line style="stroke:#181818;stroke-width:0.5;" x1="2164.5" x2="2379.9199" y1="958.6211" y2="958.6211"/><line style="stroke:#181818;stroke-width:0.5;" x1="2164.5" x2="2379.9199" y1="966.6211" y2="966.6211"/><ellipse cx="2174.5" cy="981.4316" fill="#A6A6A6" rx="3" ry="3" style="stroke:#545454;stroke-width:1.0;"/><text fill="#000000" font-family="sans-serif" font-size="14" lengthAdjust="spacing" textLength="191.4199" x="2183.5" y="985.7285">saveCargo(cargo: Cargo): void</text></g><!--class CargoDistributionService--><g id="elem_CargoDistributionService"><rect codeLine="102" fill="#F1F1F1" height="66.6211" id="CargoDistributionService" rx="2.5" ry="2.5" style="stroke:#181818;stroke-width:0.5;" width="186.8408" x="987.5" y="619.6211"/><ellipse cx="1002.5" cy="635.6211" fill="#C2C2C2" rx="11" ry="11" style="stroke:#181818;stroke-width:1.0;"/><path d="M1005.2656,631.4961 Q1005.4219,631.2773 1005.6094,631.168 Q1005.7969,631.0586 1006.0156,631.0586 Q1006.3906,631.0586 1006.625,631.3242 Q1006.8594,631.5742 1006.8594,632.1836 L1006.8594,633.6367 Q1006.8594,634.2461 1006.625,634.5117 Q1006.3906,634.7773 1006.0156,634.7773 Q1005.6719,634.7773 1005.4688,634.5742 Q1005.2656,634.3867 1005.1563,633.8711 Q1005.1094,633.5117 1004.9219,633.3242 Q1004.5938,632.9492 1003.9844,632.7305 Q1003.375,632.5117 1002.75,632.5117 Q1001.9844,632.5117 1001.3438,632.8398 Q1000.7188,633.168 1000.2188,633.918 Q999.7344,634.668 999.7344,635.6992 L999.7344,636.793 Q999.7344,638.0273 1000.625,638.8555 Q1001.5156,639.668 1003.1094,639.668 Q1004.0469,639.668 1004.7031,639.418 Q1005.0938,639.2617 1005.5156,638.8242 Q1005.7813,638.5586 1005.9219,638.4805 Q1006.0781,638.4023 1006.2813,638.4023 Q1006.6094,638.4023 1006.8594,638.668 Q1007.125,638.918 1007.125,639.2617 Q1007.125,639.6055 1006.7813,640.0117 Q1006.2813,640.5898 1005.4844,640.918 Q1004.4063,641.3711 1003.1094,641.3711 Q1001.5938,641.3711 1000.3906,640.7461 Q999.4063,640.2461 998.7188,639.1836 Q998.0313,638.1055 998.0313,636.8242 L998.0313,635.668 Q998.0313,634.3398 998.6406,633.1992 Q999.2656,632.043 1000.3594,631.4336 Q1001.4531,630.8086 1002.6875,630.8086 Q1003.4219,630.8086 1004.0625,630.9805 Q1004.7188,631.1367 1005.2656,631.4961 Z " fill="#000000"/><text fill="#000000" font-family="sans-serif" font-size="14" lengthAdjust="spacing" textLength="154.8408" x="1016.5" y="641.418">CargoDistributionService</text><line style="stroke:#181818;stroke-width:0.5;" x1="988.5" x2="1173.3408" y1="651.6211" y2="651.6211"/><line style="stroke:#181818;stroke-width:0.5;" x1="988.5" x2="1173.3408" y1="659.6211" y2="659.6211"/><ellipse cx="998.5" cy="674.4316" fill="#A6A6A6" rx="3" ry="3" style="stroke:#545454;stroke-width:1.0;"/><text fill="#000000" font-family="sans-serif" font-size="14" lengthAdjust="spacing" textLength="154.0547" x="1007.5" y="678.7285">calculateStatistics(): void</text></g><!--class Industry--><g id="elem_Industry"><rect codeLine="106" fill="#F1F1F1" height="122.4844" id="Industry" rx="2.5" ry="2.5" style="stroke:#181818;stroke-width:0.5;" width="170.7715" x="2186.5" y="1118.1211"/><ellipse cx="2242.7358" cy="1134.1211" fill="#C2C2C2" rx="11" ry="11" style="stroke:#181818;stroke-width:1.0;"/><path d="M2245.5015,1129.9961 Q2245.6577,1129.7773 2245.8452,1129.668 Q2246.0327,1129.5586 2246.2515,1129.5586 Q2246.6265,1129.5586 2246.8608,1129.8242 Q2247.0952,1130.0742 2247.0952,1130.6836 L2247.0952,1132.1367 Q2247.0952,1132.7461 2246.8608,1133.0117 Q2246.6265,1133.2773 2246.2515,1133.2773 Q2245.9077,1133.2773 2245.7046,1133.0742 Q2245.5015,1132.8867 2245.3921,1132.3711 Q2245.3452,1132.0117 2245.1577,1131.8242 Q2244.8296,1131.4492 2244.2202,1131.2305 Q2243.6108,1131.0117 2242.9858,1131.0117 Q2242.2202,1131.0117 2241.5796,1131.3398 Q2240.9546,1131.668 2240.4546,1132.418 Q2239.9702,1133.168 2239.9702,1134.1992 L2239.9702,1135.293 Q2239.9702,1136.5273 2240.8608,1137.3555 Q2241.7515,1138.168 2243.3452,1138.168 Q2244.2827,1138.168 2244.939,1137.918 Q2245.3296,1137.7617 2245.7515,1137.3242 Q2246.0171,1137.0586 2246.1577,1136.9805 Q2246.314,1136.9023 2246.5171,1136.9023 Q2246.8452,1136.9023 2247.0952,1137.168 Q2247.3608,1137.418 2247.3608,1137.7617 Q2247.3608,1138.1055 2247.0171,1138.5117 Q2246.5171,1139.0898 2245.7202,1139.418 Q2244.6421,1139.8711 2243.3452,1139.8711 Q2241.8296,1139.8711 2240.6265,1139.2461 Q2239.6421,1138.7461 2238.9546,1137.6836 Q2238.2671,1136.6055 2238.2671,1135.3242 L2238.2671,1134.168 Q2238.2671,1132.8398 2238.8765,1131.6992 Q2239.5015,1130.543 2240.5952,1129.9336 Q2241.689,1129.3086 2242.9233,1129.3086 Q2243.6577,1129.3086 2244.2983,1129.4805 Q2244.9546,1129.6367 2245.5015,1129.9961 Z " fill="#000000"/><text fill="#000000" font-family="sans-serif" font-size="14" lengthAdjust="spacing" textLength="49.7998" x="2263.2358" y="1139.918">Industry</text><line style="stroke:#181818;stroke-width:0.5;" x1="2187.5" x2="2356.2715" y1="1150.1211" y2="1150.1211"/><rect fill="none" height="6" style="stroke:#595959;stroke-width:1.0;" width="6" x="2194.5" y="1161.9316"/><text fill="#000000" font-family="sans-serif" font-size="14" lengthAdjust="spacing" textLength="79.3721" x="2206.5" y="1169.2285">name: String</text><rect fill="none" height="6" style="stroke:#595959;stroke-width:1.0;" width="6" x="2194.5" y="1180.5527"/><text fill="#000000" font-family="sans-serif" font-size="14" lengthAdjust="spacing" textLength="70.8135" x="2206.5" y="1187.8496">type: String</text><rect fill="none" height="6" style="stroke:#595959;stroke-width:1.0;" width="6" x="2194.5" y="1199.1738"/><text fill="#000000" font-family="sans-serif" font-size="14" lengthAdjust="spacing" textLength="108.9648" x="2206.5" y="1206.4707">location: Location</text><rect fill="none" height="6" style="stroke:#595959;stroke-width:1.0;" width="6" x="2194.5" y="1217.7949"/><text fill="#000000" font-family="sans-serif" font-size="14" lengthAdjust="spacing" textLength="144.7715" x="2206.5" y="1225.0918">productionRate: double</text><line style="stroke:#181818;stroke-width:0.5;" x1="2187.5" x2="2356.2715" y1="1232.6055" y2="1232.6055"/></g><!--class City--><g id="elem_City"><rect codeLine="113" fill="#F1F1F1" height="141.1055" id="City" rx="2.5" ry="2.5" style="stroke:#181818;stroke-width:0.5;" width="225.999" x="2159" y="750.6211"/><ellipse cx="2255.6943" cy="766.6211" fill="#C2C2C2" rx="11" ry="11" style="stroke:#181818;stroke-width:1.0;"/><path d="M2258.46,762.4961 Q2258.6162,762.2773 2258.8037,762.168 Q2258.9912,762.0586 2259.21,762.0586 Q2259.585,762.0586 2259.8193,762.3242 Q2260.0537,762.5742 2260.0537,763.1836 L2260.0537,764.6367 Q2260.0537,765.2461 2259.8193,765.5117 Q2259.585,765.7773 2259.21,765.7773 Q2258.8662,765.7773 2258.6631,765.5742 Q2258.46,765.3867 2258.3506,764.8711 Q2258.3037,764.5117 2258.1162,764.3242 Q2257.7881,763.9492 2257.1787,763.7305 Q2256.5693,763.5117 2255.9443,763.5117 Q2255.1787,763.5117 2254.5381,763.8398 Q2253.9131,764.168 2253.4131,764.918 Q2252.9287,765.668 2252.9287,766.6992 L2252.9287,767.793 Q2252.9287,769.0273 2253.8193,769.8555 Q2254.71,770.668 2256.3037,770.668 Q2257.2412,770.668 2257.8975,770.418 Q2258.2881,770.2617 2258.71,769.8242 Q2258.9756,769.5586 2259.1162,769.4805 Q2259.2725,769.4023 2259.4756,769.4023 Q2259.8037,769.4023 2260.0537,769.668 Q2260.3193,769.918 2260.3193,770.2617 Q2260.3193,770.6055 2259.9756,771.0117 Q2259.4756,771.5898 2258.6787,771.918 Q2257.6006,772.3711 2256.3037,772.3711 Q2254.7881,772.3711 2253.585,771.7461 Q2252.6006,771.2461 2251.9131,770.1836 Q2251.2256,769.1055 2251.2256,767.8242 L2251.2256,766.668 Q2251.2256,765.3398 2251.835,764.1992 Q2252.46,763.043 2253.5537,762.4336 Q2254.6475,761.8086 2255.8818,761.8086 Q2256.6162,761.8086 2257.2568,761.9805 Q2257.9131,762.1367 2258.46,762.4961 Z " fill="#000000"/><text fill="#000000" font-family="sans-serif" font-size="14" lengthAdjust="spacing" textLength="24.1104" x="2276.1943" y="772.418">City</text><line style="stroke:#181818;stroke-width:0.5;" x1="2160" x2="2383.999" y1="782.6211" y2="782.6211"/><rect fill="none" height="6" style="stroke:#595959;stroke-width:1.0;" width="6" x="2167" y="794.4316"/><text fill="#000000" font-family="sans-serif" font-size="14" lengthAdjust="spacing" textLength="79.3721" x="2179" y="801.7285">name: String</text><rect fill="none" height="6" style="stroke:#595959;stroke-width:1.0;" width="6" x="2167" y="813.0527"/><text fill="#000000" font-family="sans-serif" font-size="14" lengthAdjust="spacing" textLength="87.1787" x="2179" y="820.3496">population: int</text><rect fill="none" height="6" style="stroke:#595959;stroke-width:1.0;" width="6" x="2167" y="831.6738"/><text fill="#000000" font-family="sans-serif" font-size="14" lengthAdjust="spacing" textLength="108.9648" x="2179" y="838.9707">location: Location</text><rect fill="none" height="6" style="stroke:#595959;stroke-width:1.0;" width="6" x="2167" y="850.2949"/><text fill="#000000" font-family="sans-serif" font-size="14" lengthAdjust="spacing" textLength="157.9785" x="2179" y="857.5918">demandFactors: Location</text><rect fill="none" height="6" style="stroke:#595959;stroke-width:1.0;" width="6" x="2167" y="868.916"/><text fill="#000000" font-family="sans-serif" font-size="14" lengthAdjust="spacing" textLength="199.999" x="2179" y="876.2129">houseBlocks: List&lt;HouseBlock&gt;</text><line style="stroke:#181818;stroke-width:0.5;" x1="2160" x2="2383.999" y1="883.7266" y2="883.7266"/></g><!--class Map--><g id="elem_Map"><rect codeLine="121" fill="#F1F1F1" height="196.9688" id="Map" rx="2.5" ry="2.5" style="stroke:#181818;stroke-width:0.5;" width="187.0889" x="987.5" y="913.6211"/><ellipse cx="1063.1772" cy="929.6211" fill="#C2C2C2" rx="11" ry="11" style="stroke:#181818;stroke-width:1.0;"/><path d="M1065.9429,925.4961 Q1066.0991,925.2773 1066.2866,925.168 Q1066.4741,925.0586 1066.6929,925.0586 Q1067.0679,925.0586 1067.3022,925.3242 Q1067.5366,925.5742 1067.5366,926.1836 L1067.5366,927.6367 Q1067.5366,928.2461 1067.3022,928.5117 Q1067.0679,928.7773 1066.6929,928.7773 Q1066.3491,928.7773 1066.146,928.5742 Q1065.9429,928.3867 1065.8335,927.8711 Q1065.7866,927.5117 1065.5991,927.3242 Q1065.271,926.9492 1064.6616,926.7305 Q1064.0522,926.5117 1063.4272,926.5117 Q1062.6616,926.5117 1062.021,926.8398 Q1061.396,927.168 1060.896,927.918 Q1060.4116,928.668 1060.4116,929.6992 L1060.4116,930.793 Q1060.4116,932.0273 1061.3022,932.8555 Q1062.1929,933.668 1063.7866,933.668 Q1064.7241,933.668 1065.3804,933.418 Q1065.771,933.2617 1066.1929,932.8242 Q1066.4585,932.5586 1066.5991,932.4805 Q1066.7554,932.4023 1066.9585,932.4023 Q1067.2866,932.4023 1067.5366,932.668 Q1067.8022,932.918 1067.8022,933.2617 Q1067.8022,933.6055 1067.4585,934.0117 Q1066.9585,934.5898 1066.1616,934.918 Q1065.0835,935.3711 1063.7866,935.3711 Q1062.271,935.3711 1061.0679,934.7461 Q1060.0835,934.2461 1059.396,933.1836 Q1058.7085,932.1055 1058.7085,930.8242 L1058.7085,929.668 Q1058.7085,928.3398 1059.3179,927.1992 Q1059.9429,926.043 1061.0366,925.4336 Q1062.1304,924.8086 1063.3647,924.8086 Q1064.0991,924.8086 1064.7397,924.9805 Q1065.396,925.1367 1065.9429,925.4961 Z " fill="#000000"/><text fill="#000000" font-family="sans-serif" font-size="14" lengthAdjust="spacing" textLength="27.2344" x="1083.6772" y="935.418">Map</text><line style="stroke:#181818;stroke-width:0.5;" x1="988.5" x2="1173.5889" y1="945.6211" y2="945.6211"/><rect fill="none" height="6" style="stroke:#595959;stroke-width:1.0;" width="6" x="995.5" y="957.4316"/><text fill="#000000" font-family="sans-serif" font-size="14" lengthAdjust="spacing" textLength="79.3721" x="1007.5" y="964.7285">name: String</text><rect fill="none" height="6" style="stroke:#595959;stroke-width:1.0;" width="6" x="995.5" y="976.0527"/><text fill="#000000" font-family="sans-serif" font-size="14" lengthAdjust="spacing" textLength="55.248" x="1007.5" y="983.3496">width: int</text><rect fill="none" height="6" style="stroke:#595959;stroke-width:1.0;" width="6" x="995.5" y="994.6738"/><text fill="#000000" font-family="sans-serif" font-size="14" lengthAdjust="spacing" textLength="60.71" x="1007.5" y="1001.9707">height: int</text><rect fill="none" height="6" style="stroke:#595959;stroke-width:1.0;" width="6" x="995.5" y="1013.2949"/><text fill="#000000" font-family="sans-serif" font-size="14" lengthAdjust="spacing" textLength="132.2959" x="1007.5" y="1020.5918">regions: List&lt;Object&gt;</text><rect fill="none" height="6" style="stroke:#595959;stroke-width:1.0;" width="6" x="995.5" y="1031.916"/><text fill="#000000" font-family="sans-serif" font-size="14" lengthAdjust="spacing" textLength="161.0889" x="1007.5" y="1039.2129">scenarios: List&lt;Scenario&gt;</text><rect fill="none" height="6" style="stroke:#595959;stroke-width:1.0;" width="6" x="995.5" y="1050.5371"/><text fill="#000000" font-family="sans-serif" font-size="14" lengthAdjust="spacing" textLength="137.751" x="1007.5" y="1057.834">stations: List&lt;Station&gt;</text><rect fill="none" height="6" style="stroke:#595959;stroke-width:1.0;" width="6" x="995.5" y="1069.1582"/><text fill="#000000" font-family="sans-serif" font-size="14" lengthAdjust="spacing" textLength="155.6338" x="1007.5" y="1076.4551">industries: List&lt;Industry&gt;</text><rect fill="none" height="6" style="stroke:#595959;stroke-width:1.0;" width="6" x="995.5" y="1087.7793"/><text fill="#000000" font-family="sans-serif" font-size="14" lengthAdjust="spacing" textLength="101.9238" x="1007.5" y="1095.0762">cities: List&lt;City&gt;</text><line style="stroke:#181818;stroke-width:0.5;" x1="988.5" x2="1173.5889" y1="1102.5898" y2="1102.5898"/></g><!--class CargoGenerationResultDTO--><g id="elem_CargoGenerationResultDTO"><rect fill="#F1F1F1" height="48" id="CargoGenerationResultDTO" rx="2.5" ry="2.5" style="stroke:#181818;stroke-width:0.5;" width="208.6338" x="417.5" y="805.1211"/><ellipse cx="432.5" cy="821.1211" fill="#C2C2C2" rx="11" ry="11" style="stroke:#181818;stroke-width:1.0;"/><path d="M435.2656,816.9961 Q435.4219,816.7773 435.6094,816.668 Q435.7969,816.5586 436.0156,816.5586 Q436.3906,816.5586 436.625,816.8242 Q436.8594,817.0742 436.8594,817.6836 L436.8594,819.1367 Q436.8594,819.7461 436.625,820.0117 Q436.3906,820.2773 436.0156,820.2773 Q435.6719,820.2773 435.4688,820.0742 Q435.2656,819.8867 435.1563,819.3711 Q435.1094,819.0117 434.9219,818.8242 Q434.5938,818.4492 433.9844,818.2305 Q433.375,818.0117 432.75,818.0117 Q431.9844,818.0117 431.3438,818.3398 Q430.7188,818.668 430.2188,819.418 Q429.7344,820.168 429.7344,821.1992 L429.7344,822.293 Q429.7344,823.5273 430.625,824.3555 Q431.5156,825.168 433.1094,825.168 Q434.0469,825.168 434.7031,824.918 Q435.0938,824.7617 435.5156,824.3242 Q435.7813,824.0586 435.9219,823.9805 Q436.0781,823.9023 436.2813,823.9023 Q436.6094,823.9023 436.8594,824.168 Q437.125,824.418 437.125,824.7617 Q437.125,825.1055 436.7813,825.5117 Q436.2813,826.0898 435.4844,826.418 Q434.4063,826.8711 433.1094,826.8711 Q431.5938,826.8711 430.3906,826.2461 Q429.4063,825.7461 428.7188,824.6836 Q428.0313,823.6055 428.0313,822.3242 L428.0313,821.168 Q428.0313,819.8398 428.6406,818.6992 Q429.2656,817.543 430.3594,816.9336 Q431.4531,816.3086 432.6875,816.3086 Q433.4219,816.3086 434.0625,816.4805 Q434.7188,816.6367 435.2656,816.9961 Z " fill="#000000"/><text fill="#000000" font-family="sans-serif" font-size="14" lengthAdjust="spacing" textLength="176.6338" x="446.5" y="826.918">CargoGenerationResultDTO</text><line style="stroke:#181818;stroke-width:0.5;" x1="418.5" x2="625.1338" y1="837.1211" y2="837.1211"/><line style="stroke:#181818;stroke-width:0.5;" x1="418.5" x2="625.1338" y1="845.1211" y2="845.1211"/></g><!--link CargoGenerationUI to CargoGenerationController--><g id="link_CargoGenerationUI_CargoGenerationController"><path codeLine="133" d="M198.8,653.1211 C240.3,653.1211 287.58,653.1211 338.82,653.1211 " fill="none" id="CargoGenerationUI-to-CargoGenerationController" style="stroke:#181818;stroke-width:1.0;"/><polygon fill="#181818" points="344.82,653.1211,335.82,649.1211,339.82,653.1211,335.82,657.1211,344.82,653.1211" style="stroke:#181818;stroke-width:1.0;"/></g><!--link CargoGenerationUI to StationDTO--><g id="link_CargoGenerationUI_StationDTO"><path codeLine="134" d="M198.69,630.3811 C211.85,625.1811 225.12,619.0911 237,612.1211 C291.88,579.9111 292.4,553.9211 345,518.1211 C536.28,387.9111 582.22,333.0211 807,278.1211 C1216.92,177.9911 1443.37,45.6211 1755,330.1211 C1800.07,371.2611 1750.71,413.6311 1785,464.1211 C1792.67,475.4011 1797.9203,481.6904 1808.6503,490.6304 " fill="none" id="CargoGenerationUI-to-StationDTO" style="stroke:#181818;stroke-width:1.0;stroke-dasharray:7.0,7.0;"/><polygon fill="#181818" points="1813.26,494.4711,1808.9059,485.6369,1809.4186,491.2705,1803.785,491.7832,1813.26,494.4711" style="stroke:#181818;stroke-width:1.0;"/><text fill="#000000" font-family="sans-serif" font-size="13" lengthAdjust="spacing" textLength="46.9663" x="730" y="282.1494">displays</text></g><!--link CargoGenerationUI to CargoGenerationResultDTO--><g id="link_CargoGenerationUI_CargoGenerationResultDTO"><path codeLine="135" d="M155.09,677.1811 C196.77,707.3411 272.75,758.6211 345,788.1211 C367.8,797.4211 387.3384,803.4696 411.5484,809.3296 " fill="none" id="CargoGenerationUI-to-CargoGenerationResultDTO" style="stroke:#181818;stroke-width:1.0;stroke-dasharray:7.0,7.0;"/><polygon fill="#181818" points="417.38,810.7411,409.5736,804.7361,412.5203,809.5648,407.6916,812.5115,417.38,810.7411" style="stroke:#181818;stroke-width:1.0;"/><text fill="#000000" font-family="sans-serif" font-size="13" lengthAdjust="spacing" textLength="46.9663" x="268" y="746.1494">displays</text></g><!--link CargoGenerationController to StationMapper--><g id="link_CargoGenerationController_StationMapper"><path codeLine="138" d="M699.24,688.2411 C764.42,701.2211 832.3858,714.7679 897.5858,727.7679 " fill="none" id="CargoGenerationController-to-StationMapper" style="stroke:#181818;stroke-width:1.0;"/><polygon fill="#181818" points="903.47,728.9411,895.4259,723.2585,898.5665,727.9634,893.8616,731.104,903.47,728.9411" style="stroke:#181818;stroke-width:1.0;"/></g><!--link CargoGenerationController to CargoMapper--><g id="link_CargoGenerationController_CargoMapper"><path codeLine="139" d="M626.82,535.9511 C676.68,486.4611 740.08,432.4411 807,398.1211 C839.27,381.5611 870.1494,370.9668 905.9394,362.2768 " fill="none" id="CargoGenerationController-to-CargoMapper" style="stroke:#181818;stroke-width:1.0;"/><polygon fill="#181818" points="911.77,360.8611,902.0803,359.0976,906.9112,362.0408,903.9679,366.8717,911.77,360.8611" style="stroke:#181818;stroke-width:1.0;"/></g><!--link CargoGenerationController to CargoGenerationMapper--><g id="link_CargoGenerationController_CargoGenerationMapper"><path codeLine="140" d="M699.05,547.4811 C733.95,529.6611 770.96,512.8411 807,500.1211 C825.64,493.5311 839.4957,489.2324 859.3957,484.1624 " fill="none" id="CargoGenerationController-to-CargoGenerationMapper" style="stroke:#181818;stroke-width:1.0;"/><polygon fill="#181818" points="865.21,482.6811,855.5011,481.0269,860.3648,483.9155,857.4762,488.7793,865.21,482.6811" style="stroke:#181818;stroke-width:1.0;"/></g><!--link CargoGenerationController to SimulationService--><g id="link_CargoGenerationController_SimulationService"><path codeLine="141" d="M699.24,620.8411 C793.74,603.5411 900.5781,583.9716 978.7381,569.6616 " fill="none" id="CargoGenerationController-to-SimulationService" style="stroke:#181818;stroke-width:1.0;"/><polygon fill="#181818" points="984.64,568.5811,975.0668,566.2673,979.7218,569.4816,976.5075,574.1365,984.64,568.5811" style="stroke:#181818;stroke-width:1.0;"/></g><!--link CargoGenerationController to StationRepository--><g id="link_CargoGenerationController_StationRepository"><path codeLine="142" d="M685.51,770.5411 C690.31,776.2411 694.83,782.1011 699,788.1211 C724.97,825.5311 715.35,842.6611 729,886.1211 C762.87,993.9211 722.18,1053.4511 807,1128.1211 C852.69,1168.3411 913.7174,1180.9925 969.9174,1183.7925 " fill="none" id="CargoGenerationController-to-StationRepository" style="stroke:#181818;stroke-width:1.0;"/><polygon fill="#181818" points="975.91,1184.0911,967.1202,1179.6482,970.9162,1183.8423,966.7221,1187.6383,975.91,1184.0911" style="stroke:#181818;stroke-width:1.0;"/></g><!--link CargoGenerationController to IndustryService--><g id="link_CargoGenerationController_IndustryService"><path codeLine="143" d="M687.8,770.4911 C691.88,776.1711 695.64,782.0511 699,788.1211 C766.74,910.3511 685.08,968.4511 729,1101.1211 C750.06,1164.7211 749.3,1196.0611 807,1230.1211 C994.85,1340.9811 1250.5965,1322.5861 1413.2565,1294.6661 " fill="none" id="CargoGenerationController-to-IndustryService" style="stroke:#181818;stroke-width:1.0;"/><polygon fill="#181818" points="1419.17,1293.6511,1409.623,1291.2313,1414.2421,1294.497,1410.9764,1299.116,1419.17,1293.6511" style="stroke:#181818;stroke-width:1.0;"/></g><!--link CargoGenerationController to CityService--><g id="link_CargoGenerationController_CityService"><path codeLine="144" d="M686.09,770.2911 C724.1,792.1011 765.61,811.8511 807,824.1211 C998.01,880.7111 1221.8031,880.1378 1378.7531,869.7378 " fill="none" id="CargoGenerationController-to-CityService" style="stroke:#181818;stroke-width:1.0;"/><polygon fill="#181818" points="1384.74,869.3411,1375.4952,865.9449,1379.7509,869.6717,1376.0242,873.9274,1384.74,869.3411" style="stroke:#181818;stroke-width:1.0;"/></g><!--link CargoGenerationController to CargoDistributionService--><g id="link_CargoGenerationController_CargoDistributionService"><path codeLine="145" d="M699.24,653.1211 C794.85,653.1211 903.14,653.1211 981.4,653.1211 " fill="none" id="CargoGenerationController-to-CargoDistributionService" style="stroke:#181818;stroke-width:1.0;"/><polygon fill="#181818" points="987.4,653.1211,978.4,649.1211,982.4,653.1211,978.4,657.1211,987.4,653.1211" style="stroke:#181818;stroke-width:1.0;"/></g><!--link StationMapper to Mapper--><g id="link_StationMapper_Mapper"><path codeLine="147" d="M1258.67,756.3611 C1425.37,748.3411 1663.03,734.9511 1755,720.1211 C1764.7,718.5511 1757.0901,720.405 1767.0701,718.265 " fill="none" id="StationMapper-to-Mapper" style="stroke:#181818;stroke-width:1.0;stroke-dasharray:7.0,7.0;"/><polygon fill="none" points="1784.67,714.4911,1765.8121,712.3984,1768.3281,724.1317,1784.67,714.4911" style="stroke:#181818;stroke-width:1.0;"/><text fill="#000000" font-family="sans-serif" font-size="13" lengthAdjust="spacing" textLength="66.4663" x="1537" y="716.1494">implements</text></g><!--link CargoMapper to Mapper--><g id="link_CargoMapper_Mapper"><path codeLine="148" d="M1250.3,342.9511 C1289.47,352.0311 1327.66,368.7011 1355,398.1211 C1418.59,466.5311 1317.1,541.9811 1385,606.1211 C1445,662.7911 1673.95,622.5711 1755,638.1211 C1764.75,639.9811 1757.3205,637.8731 1767.3305,640.3831 " fill="none" id="CargoMapper-to-Mapper" style="stroke:#181818;stroke-width:1.0;stroke-dasharray:7.0,7.0;"/><polygon fill="none" points="1784.79,644.7611,1768.7898,634.5633,1765.8712,646.203,1784.79,644.7611" style="stroke:#181818;stroke-width:1.0;"/><text fill="#000000" font-family="sans-serif" font-size="13" lengthAdjust="spacing" textLength="66.4663" x="1537" y="602.1494">implements</text></g><!--link CargoGenerationMapper to Mapper--><g id="link_CargoGenerationMapper_Mapper"><path codeLine="149" d="M1334.06,482.6511 C1341.5,487.8411 1348.52,493.6411 1355,500.1211 C1406.46,551.6011 1329.97,613.4711 1385,661.1211 C1414.46,686.6311 1623.9423,687.4582 1766.8623,685.1782 " fill="none" id="CargoGenerationMapper-to-Mapper" style="stroke:#181818;stroke-width:1.0;stroke-dasharray:7.0,7.0;"/><polygon fill="none" points="1784.86,684.8911,1766.7666,679.179,1766.958,691.1774,1784.86,684.8911" style="stroke:#181818;stroke-width:1.0;"/><text fill="#000000" font-family="sans-serif" font-size="13" lengthAdjust="spacing" textLength="66.4663" x="1537" y="657.1494">implements</text></g><!--link StationMapper to Station--><g id="link_StationMapper_Station"><path codeLine="152" d="M1258.62,769.7611 C1443.49,776.9011 1712.77,791.2211 1755,815.1211 C1811.85,847.2811 1849.3441,906.4011 1872.9641,954.7011 " fill="none" id="StationMapper-to-Station" style="stroke:#181818;stroke-width:1.0;stroke-dasharray:7.0,7.0;"/><polygon fill="#181818" points="1875.6,960.0911,1875.2395,950.2488,1873.4034,955.5994,1868.0529,953.7633,1875.6,960.0911" style="stroke:#181818;stroke-width:1.0;"/><text fill="#000000" font-family="sans-serif" font-size="13" lengthAdjust="spacing" textLength="78.7427" x="1531" y="771.1494">converts from</text></g><!--link StationMapper to StationDTO--><g id="link_StationMapper_StationDTO"><path codeLine="153" d="M1258.76,754.9611 C1294.37,745.5111 1328.85,729.7711 1355,704.1211 C1395.79,664.1111 1341.39,616.0311 1385,579.1211 C1504.43,478.0211 1694.4605,496.6749 1807.4105,519.6549 " fill="none" id="StationMapper-to-StationDTO" style="stroke:#181818;stroke-width:1.0;stroke-dasharray:7.0,7.0;"/><polygon fill="#181818" points="1813.29,520.8511,1805.2682,515.1371,1808.3904,519.8543,1803.6732,522.9765,1813.29,520.8511" style="stroke:#181818;stroke-width:1.0;"/><text fill="#000000" font-family="sans-serif" font-size="13" lengthAdjust="spacing" textLength="63.5845" x="1538.5" y="499.1494">converts to</text></g><!--link CargoMapper to Cargo--><g id="link_CargoMapper_Cargo"><path codeLine="154" d="M1224.27,295.5911 C1414.89,246.8011 1759.23,187.8211 2019,307.1211 C2275.99,425.1311 2437.296,740.8294 2499.616,884.0494 " fill="none" id="CargoMapper-to-Cargo" style="stroke:#181818;stroke-width:1.0;stroke-dasharray:7.0,7.0;"/><polygon fill="#181818" points="2502.01,889.5511,2502.0868,879.7025,2500.015,884.9663,2494.7512,882.8945,2502.01,889.5511" style="stroke:#181818;stroke-width:1.0;"/><text fill="#000000" font-family="sans-serif" font-size="13" lengthAdjust="spacing" textLength="78.7427" x="2050" y="319.1494">converts from</text></g><!--link CargoMapper to CargoDTO--><g id="link_CargoMapper_CargoDTO"><path codeLine="155" d="M1250.21,347.9711 C1412.65,357.4911 1647.8403,371.2801 1786.4203,379.4001 " fill="none" id="CargoMapper-to-CargoDTO" style="stroke:#181818;stroke-width:1.0;stroke-dasharray:7.0,7.0;"/><polygon fill="#181818" points="1792.41,379.7511,1783.6594,375.2315,1787.4186,379.4586,1783.1914,383.2178,1792.41,379.7511" style="stroke:#181818;stroke-width:1.0;"/><text fill="#000000" font-family="sans-serif" font-size="13" lengthAdjust="spacing" textLength="63.5845" x="1538.5" y="353.1494">converts to</text></g><!--link StationRepository to Station--><g id="link_StationRepository_Station"><path codeLine="157" d="M1186.07,1159.9011 C1237.02,1150.4311 1299.24,1138.7911 1355,1128.1211 C1509.64,1098.5211 1682.8244,1064.397 1792.5244,1042.667 " fill="none" id="StationRepository-to-Station" style="stroke:#181818;stroke-width:1.0;"/><polygon fill="#181818" points="1798.41,1041.5011,1788.8043,1039.3261,1793.5053,1042.4726,1790.3588,1047.1736,1798.41,1041.5011" style="stroke:#181818;stroke-width:1.0;"/></g><!--link IndustryService to Industry--><g id="link_IndustryService_Industry"><path codeLine="158" d="M1755.37,1238.7811 C1894.92,1222.6311 2074.1597,1201.8906 2180.3997,1189.6006 " fill="none" id="IndustryService-to-Industry" style="stroke:#181818;stroke-width:1.0;"/><polygon fill="#181818" points="2186.36,1188.9111,2176.96,1185.9718,2181.3931,1189.4857,2177.8793,1193.9188,2186.36,1188.9111" style="stroke:#181818;stroke-width:1.0;"/></g><!--link CityService to City--><g id="link_CityService_City"><path codeLine="159" d="M1755.37,842.4811 C1883.58,837.1711 2044.3151,830.5094 2152.9551,826.0094 " fill="none" id="CityService-to-City" style="stroke:#181818;stroke-width:1.0;"/><polygon fill="#181818" points="2158.95,825.7611,2149.7922,822.137,2153.9543,825.968,2150.1233,830.1301,2158.95,825.7611" style="stroke:#181818;stroke-width:1.0;"/></g><!--reverse link Station to Cargo--><g id="link_Station_Cargo"><path codeLine="160" d="M2017.4602,1038.6265 C2116.0502,1050.7565 2256.68,1059.3811 2385,1030.1211 C2405.5,1025.4411 2426.47,1017.5011 2445.89,1008.6011 " fill="none" id="Station-backto-Cargo" style="stroke:#181818;stroke-width:1.0;"/><polygon fill="#181818" points="2005.55,1037.1611,2011.0166,1041.8638,2017.4602,1038.6265,2011.9936,1033.9237,2005.55,1037.1611" style="stroke:#181818;stroke-width:1.0;"/><polygon fill="#000000" points="2256.9878,1020.417,2247.7593,1018.1177,2248.1703,1023.9811,2256.9878,1020.417" style="stroke:#000000;stroke-width:1.0;"/><text fill="#000000" font-family="sans-serif" font-size="13" lengthAdjust="spacing" textLength="35.4009" x="2261" y="1026.1494">stores</text><text fill="#000000" font-family="sans-serif" font-size="13" lengthAdjust="spacing" textLength="7.23" x="2013.1013" y="1052.9081">1</text><text fill="#000000" font-family="sans-serif" font-size="13" lengthAdjust="spacing" textLength="19.5127" x="2418.4529" y="1027.7125">0..*</text></g><!--link Station to CargoRepository--><g id="link_Station_CargoRepository"><path codeLine="161" d="M2005.72,1005.1211 C2044.39,999.0011 2088.74,991.8711 2129,985.1211 C2140.11,983.2511 2145.7878,982.294 2157.3478,980.294 " fill="none" id="Station-to-CargoRepository" style="stroke:#181818;stroke-width:1.0;"/><polygon fill="#181818" points="2163.26,979.2711,2153.7098,976.8639,2158.3332,980.1235,2155.0737,984.7468,2163.26,979.2711" style="stroke:#181818;stroke-width:1.0;"/></g><!--link CargoRepository to Cargo--><g id="link_CargoRepository_Cargo"><path codeLine="162" d="M2380.71,960.1211 C2402.49,960.1211 2419.09,960.1211 2439.93,960.1211 " fill="none" id="CargoRepository-to-Cargo" style="stroke:#181818;stroke-width:1.0;"/><polygon fill="#181818" points="2445.93,960.1211,2436.93,956.1211,2440.93,960.1211,2436.93,964.1211,2445.93,960.1211" style="stroke:#181818;stroke-width:1.0;"/></g><!--reverse link Map to Station--><g id="link_Map_Station"><path codeLine="165" d="M1186.7493,1013.2633 C1341.0793,1014.9633 1637.46,1018.2211 1798.2,1019.9911 " fill="none" id="Map-backto-Station" style="stroke:#181818;stroke-width:1.0;"/><polygon fill="#181818" points="1174.75,1013.1311,1180.7056,1017.1969,1186.7493,1013.2633,1180.7937,1009.1974,1174.75,1013.1311" style="stroke:#181818;stroke-width:1.0;"/><text fill="#000000" font-family="sans-serif" font-size="13" lengthAdjust="spacing" textLength="7.23" x="1182.5052" y="1014.1641">1</text><text fill="#000000" font-family="sans-serif" font-size="13" lengthAdjust="spacing" textLength="19.5127" x="1770.9154" y="1034.5535">0..*</text></g><!--reverse link Map to Industry--><g id="link_Map_Industry"><path codeLine="166" d="M1186.6834,1026.8202 C1411.4534,1058.3902 1970.49,1136.9111 2186.48,1167.2411 " fill="none" id="Map-backto-Industry" style="stroke:#181818;stroke-width:1.0;"/><polygon fill="#181818" points="1174.8,1025.1511,1180.1853,1029.9467,1186.6834,1026.8202,1181.298,1022.0245,1174.8,1025.1511" style="stroke:#181818;stroke-width:1.0;"/><text fill="#000000" font-family="sans-serif" font-size="13" lengthAdjust="spacing" textLength="7.23" x="1182.5592" y="1040.9079">1</text><text fill="#000000" font-family="sans-serif" font-size="13" lengthAdjust="spacing" textLength="19.5127" x="2159.0503" y="1180.9598">0..*</text></g><!--reverse link Map to City--><g id="link_Map_City"><path codeLine="167" d="M1186.6481,995.3077 C1402.3981,960.6477 1925.23,876.6611 2158.81,839.1411 " fill="none" id="Map-backto-City" style="stroke:#181818;stroke-width:1.0;"/><polygon fill="#181818" points="1174.8,997.2111,1181.3585,1000.2088,1186.6481,995.3077,1180.0896,992.31,1174.8,997.2111" style="stroke:#181818;stroke-width:1.0;"/><text fill="#000000" font-family="sans-serif" font-size="13" lengthAdjust="spacing" textLength="7.23" x="1182.5592" y="992.3868">1</text><text fill="#000000" font-family="sans-serif" font-size="13" lengthAdjust="spacing" textLength="19.5127" x="2131.584" y="854.9575">0..*</text></g><!--link Station to Industry--><g id="link_Station_Industry"><path codeLine="168" d="M2005.76,1073.2011 C2020.18,1080.1011 2034.9,1086.9211 2049,1093.1211 C2093.84,1112.8111 2144.74,1132.7011 2186.48,1148.3811 " fill="none" id="Station-Industry" style="stroke:#181818;stroke-width:1.0;"/><polygon fill="#000000" points="2072.1165,1085.6871,2064.894,1079.4994,2062.6364,1084.9264,2072.1165,1085.6871" style="stroke:#000000;stroke-width:1.0;"/><text fill="#000000" font-family="sans-serif" font-size="13" lengthAdjust="spacing" textLength="38.2891" x="2076.5" y="1089.1494">serves</text><text fill="#000000" font-family="sans-serif" font-size="13" lengthAdjust="spacing" textLength="7.23" x="2012.9898" y="1091.2931">1</text><text fill="#000000" font-family="sans-serif" font-size="13" lengthAdjust="spacing" textLength="19.5127" x="2159.0503" y="1160.4201">0..*</text></g><!--link Station to City--><g id="link_Station_City"><path codeLine="169" d="M2005.8,996.6911 C2055.41,983.5311 2108.56,966.9911 2129,952.1211 C2147.84,938.4111 2143,926.0511 2159,909.1211 C2164.52,903.2711 2170.44,897.5011 2176.58,891.8611 " fill="none" id="Station-City" style="stroke:#181818;stroke-width:1.0;"/><polygon fill="#000000" points="2071.7612,940.1509,2062.5151,942.378,2065.59,947.3874,2071.7612,940.1509" style="stroke:#000000;stroke-width:1.0;"/><text fill="#000000" font-family="sans-serif" font-size="13" lengthAdjust="spacing" textLength="38.2891" x="2076.5" y="948.1494">serves</text><text fill="#000000" font-family="sans-serif" font-size="13" lengthAdjust="spacing" textLength="7.23" x="2013.0325" y="1009.6426">1</text><text fill="#000000" font-family="sans-serif" font-size="13" lengthAdjust="spacing" textLength="19.5127" x="2147.2772" y="913.6987">0..*</text></g><!--SRC=[hLTDZzis4BthLn1xoJg9ZAP7Oo4WjPisGDiKQwTtMXhBx5AaIbAxDTh-zmu_956KjRk7t2pE8sSuy_Xch1-OQAcY3McaaELPoGQ8KHraUh2qj7oWDUpDXGDHK1egQXu3z9bMyec9cfmerv1b74w664aKgy-6LCnkOb9acM46p_Yw__0zoScMKwt9Zj7Q7fAJdq20eWR8bgfQWYOVEoCRQbX9ERzaMUdmpXYWUERNp-IVxBy5urOAeoJde114q8LcJSUTQG_gaPMm8VjqoGEDMxg7LcfcfBeWC5roG2QgJXjr6SxxF5rme9AP4R0TFxpHnhnZk8STkqbesmLB7E6lj6r13T7vp_7SthmTFqRZcAW9B5t63Uz83IQuqBUh3Va5exeB2xl3by9XC2HbaYCiE5cw1zrnWxjitTuG_A79IIg2fRpBoGvBpWIvRPLyP9KbLKKDNOK2ZovTHTyHGHjRH4oHgDq2bwM3O8pXb_NamvCAURobI6YimOPKiZjoSBQoKmg43tuhEs4sM5cJ46lqQYxjrAj4gZCHelijZQa2RPZm95k0_DLHOUAeq7NmFMRERSQZIZs6GX_1tme3_1rKE7zoEICDvNz8tbcVqNeLKUl7qucL34GvYG1p0Ef4Io2U2dU7ei-0pSQjpyC1QtmOLoqtWiNHv52iXb- -vFumFQsfNvmSh_lB1CXg4n4WSHYmUihDuXfNfrMzujUzZi3RdhzpZmxL-tEOmLk_erYKfiJhy2QMxl7UFtXN_0tvSlmJ9VM5fnMoc-fRy5bASM9rfs04sBVwA5aLRKurBsn6DVZ8-P8WHBTEr73OxfNUHVz9zgIzLkyekL4kHmdzHYS6SsWJYQZaaQZup0S5NjAJVA8de9UkOR-3oqHHyg0eG-1kBTAHgM6c7ZOdZvGpr4xOeNxQ4Xsbv415udzMMusAuYpfCvXIOwavzVIYlBIqWb6pvlJgsR6KzbbIvkBkbh5NL9qRCUxHOonW8r-MVBIo3VJtal-CcmeQAgfFjCHiwSHsbfs67t3ZGr_jduULgEJux9S2UMALEOyndC4EJ-EtWZgI1K_3mlEm144L6wHe7xwBU4v8zIGUNjZ0qBuWHJ-sZ2QRmo3VsAZnQjfrxlT4I1pnVDEMBYgTpMUqF2-MXxCh-FMwY7lznlQgbjEBNi0kwM2y4oEF1a9tWyOt8ZkheXvY9nskWYlsUjdoH6clD9swdiV68zWhaBCfx8L8PcFigoAFfjddyUbO-y8DeXdt5NUzDkDcqx5WlVwt27C3rfGrBOS61JOKw5MWMVDTX8yZoa2B8vWd0D7J0tN0yoEDSiWidXZsudIBVwkMaPwc0zZ8v4uXIRC3hwBcXsNp9XuH84ixT5piB6wqVLtxyyZDXnloDi_9pNVhzTkR8KZR5l5f5GDkA7DAjYGYjsPpVm-UoVhCMasEL4D5v93w1o6VE5Gra5ihFV1tot5oDVo2SaPyVId-oTG6xEREkC8og5QP5Tyaw3uBLqn34gxOPdcORxEPmCnDCZ55kguKeVu7]--></g></svg>