<svg xmlns="http://www.w3.org/2000/svg" xmlns:xlink="http://www.w3.org/1999/xlink" contentStyleType="text/css" height="1628px" preserveAspectRatio="none" style="width:2927px;height:1628px;background:#FFFFFF;" version="1.1" viewBox="0 0 2927 1628" width="2927px" zoomAndPan="magnify"><title>Sequence Diagram (SD) - US12 Generate Cargoes Automatically - Full</title><defs/><g><text fill="#000000" font-family="sans-serif" font-size="14" font-weight="bold" lengthAdjust="spacing" textLength="463.6816" x="1230.8225" y="30.1074">Sequence Diagram (SD) - US12 Generate Cargoes Automatically - Full</text><rect fill="#FFFFFF" height="1394.1738" style="stroke:#181818;stroke-width:1.0;" width="10" x="22.8413" y="133.2422"/><rect fill="#FFFFFF" height="219.0371" style="stroke:#181818;stroke-width:1.0;" width="10" x="410.5781" y="156.5332"/><rect fill="#FFFFFF" height="1120.5547" style="stroke:#181818;stroke-width:1.0;" width="10" x="410.5781" y="406.8613"/><rect fill="#FFFFFF" height="156.4551" style="stroke:#181818;stroke-width:1.0;" width="10" x="624.167" y="187.8242"/><rect fill="#FFFFFF" height="1057.9727" style="stroke:#181818;stroke-width:1.0;" width="10" x="624.167" y="438.1523"/><rect fill="#FFFFFF" height="31.291" style="stroke:#181818;stroke-width:1.0;" width="10" x="790.0996" y="281.6973"/><rect fill="#FFFFFF" height="31.291" style="stroke:#181818;stroke-width:1.0;" width="10" x="1054.4399" y="1433.543"/><rect fill="#FFFFFF" height="31.291" style="stroke:#181818;stroke-width:1.0;" width="10" x="1215.7876" y="469.4434"/><rect fill="#FFFFFF" height="31.291" style="stroke:#181818;stroke-width:1.0;" width="10" x="1354.9526" y="219.1152"/><rect fill="#FFFFFF" height="31.291" style="stroke:#181818;stroke-width:1.0;" width="10" x="1354.9526" y="532.0254"/><rect fill="#FFFFFF" height="277.6582" style="stroke:#181818;stroke-width:1.0;" width="10" x="1653.1582" y="746.0625"/><rect fill="#FFFFFF" height="277.6582" style="stroke:#181818;stroke-width:1.0;" width="10" x="1653.1582" y="1055.0117"/><rect fill="#FFFFFF" height="31.291" style="stroke:#181818;stroke-width:1.0;" width="10" x="1832.0889" y="620.8984"/><rect fill="#FFFFFF" height="31.291" style="stroke:#181818;stroke-width:1.0;" width="10" x="2149.7119" y="683.4805"/><rect fill="#FFFFFF" height="31.291" style="stroke:#181818;stroke-width:1.0;" width="10" x="2427.6489" y="847.2656"/><rect fill="#FFFFFF" height="31.291" style="stroke:#181818;stroke-width:1.0;" width="10" x="2427.6489" y="1156.2148"/><rect fill="#FFFFFF" height="31.291" style="stroke:#181818;stroke-width:1.0;" width="10" x="2544.6382" y="909.8477"/><rect fill="#FFFFFF" height="31.291" style="stroke:#181818;stroke-width:1.0;" width="10" x="2544.6382" y="1218.7969"/><rect fill="#FFFFFF" height="31.291" style="stroke:#181818;stroke-width:1.0;" width="10" x="2702.4722" y="1370.9609"/><rect fill="none" height="762.3535" style="stroke:#000000;stroke-width:1.5;" width="2104.9292" x="526.1777" y="578.3164"/><rect fill="none" height="232.3672" style="stroke:#000000;stroke-width:1.5;" width="1024.3105" x="1596.7964" y="761.0625"/><rect fill="none" height="232.3672" style="stroke:#000000;stroke-width:1.5;" width="1024.3105" x="1596.7964" y="1070.0117"/><line style="stroke:#181818;stroke-width:0.5;stroke-dasharray:5.0,5.0;" x1="27" x2="27" y1="123.2422" y2="1545.416"/><line style="stroke:#181818;stroke-width:0.5;stroke-dasharray:5.0,5.0;" x1="414.9336" x2="414.9336" y1="123.2422" y2="1545.416"/><line style="stroke:#181818;stroke-width:0.5;stroke-dasharray:5.0,5.0;" x1="628.1777" x2="628.1777" y1="123.2422" y2="1545.416"/><line style="stroke:#181818;stroke-width:0.5;stroke-dasharray:5.0,5.0;" x1="794.6274" x2="794.6274" y1="123.2422" y2="1545.416"/><line style="stroke:#181818;stroke-width:0.5;stroke-dasharray:5.0,5.0;" x1="910.5718" x2="910.5718" y1="123.2422" y2="1545.416"/><line style="stroke:#181818;stroke-width:0.5;stroke-dasharray:5.0,5.0;" x1="1059.061" x2="1059.061" y1="123.2422" y2="1545.416"/><line style="stroke:#181818;stroke-width:0.5;stroke-dasharray:5.0,5.0;" x1="1219.8188" x2="1219.8188" y1="123.2422" y2="1545.416"/><line style="stroke:#181818;stroke-width:0.5;stroke-dasharray:5.0,5.0;" x1="1359.7563" x2="1359.7563" y1="123.2422" y2="1545.416"/><line style="stroke:#181818;stroke-width:0.5;stroke-dasharray:5.0,5.0;" x1="1515.1489" x2="1515.1489" y1="123.2422" y2="1545.416"/><line style="stroke:#181818;stroke-width:0.5;stroke-dasharray:5.0,5.0;" x1="1657.7964" x2="1657.7964" y1="123.2422" y2="1545.416"/><line style="stroke:#181818;stroke-width:0.5;stroke-dasharray:5.0,5.0;" x1="1836.9028" x2="1836.9028" y1="123.2422" y2="1545.416"/><line style="stroke:#181818;stroke-width:0.5;stroke-dasharray:5.0,5.0;" x1="2002.2749" x2="2002.2749" y1="123.2422" y2="1545.416"/><line style="stroke:#181818;stroke-width:0.5;stroke-dasharray:5.0,5.0;" x1="2154.3706" x2="2154.3706" y1="123.2422" y2="1545.416"/><line style="stroke:#181818;stroke-width:0.5;stroke-dasharray:5.0,5.0;" x1="2293.0532" x2="2293.0532" y1="123.2422" y2="1545.416"/><line style="stroke:#181818;stroke-width:0.5;stroke-dasharray:5.0,5.0;" x1="2432.1284" x2="2432.1284" y1="1121.1133" y2="1545.416"/><line style="stroke:#181818;stroke-width:0.5;stroke-dasharray:5.0,5.0;" x1="2549.1694" x2="2549.1694" y1="123.2422" y2="1545.416"/><line style="stroke:#181818;stroke-width:0.5;stroke-dasharray:5.0,5.0;" x1="2707.1069" x2="2707.1069" y1="123.2422" y2="1545.416"/><line style="stroke:#181818;stroke-width:0.5;stroke-dasharray:5.0,5.0;" x1="2861.8374" x2="2861.8374" y1="123.2422" y2="1545.416"/><text fill="#000000" font-family="sans-serif" font-size="14" lengthAdjust="spacing" textLength="39.6826" x="5" y="119.7285">Admin</text><ellipse cx="27.8413" cy="53.1211" fill="#E3E3E3" rx="8" ry="8" style="stroke:#181818;stroke-width:0.5;"/><path d="M27.8413,61.1211 L27.8413,88.1211 M14.8413,69.1211 L40.8413,69.1211 M27.8413,88.1211 L14.8413,103.1211 M27.8413,88.1211 L40.8413,103.1211 " fill="none" style="stroke:#181818;stroke-width:0.5;"/><text fill="#000000" font-family="sans-serif" font-size="14" lengthAdjust="spacing" textLength="39.6826" x="5" y="1559.5234">Admin</text><ellipse cx="27.8413" cy="1571.5371" fill="#E3E3E3" rx="8" ry="8" style="stroke:#181818;stroke-width:0.5;"/><path d="M27.8413,1579.5371 L27.8413,1606.5371 M14.8413,1587.5371 L40.8413,1587.5371 M27.8413,1606.5371 L14.8413,1621.5371 M27.8413,1606.5371 L40.8413,1621.5371 " fill="none" style="stroke:#181818;stroke-width:0.5;"/><rect fill="#E3E3E3" height="32.6211" rx="2.5" ry="2.5" style="stroke:#181818;stroke-width:0.5;" width="139.2891" x="345.9336" y="89.6211"/><text fill="#000000" font-family="sans-serif" font-size="14" lengthAdjust="spacing" textLength="125.2891" x="352.9336" y="111.7285">:CargoGenerationUI</text><rect fill="#E3E3E3" height="32.6211" rx="2.5" ry="2.5" style="stroke:#181818;stroke-width:0.5;" width="139.2891" x="345.9336" y="1544.416"/><text fill="#000000" font-family="sans-serif" font-size="14" lengthAdjust="spacing" textLength="125.2891" x="352.9336" y="1566.5234">:CargoGenerationUI</text><rect fill="#E3E3E3" height="32.6211" rx="2.5" ry="2.5" style="stroke:#181818;stroke-width:0.5;" width="185.9785" x="536.1777" y="89.6211"/><text fill="#000000" font-family="sans-serif" font-size="14" lengthAdjust="spacing" textLength="171.9785" x="543.1777" y="111.7285">:CargoGenerationController</text><rect fill="#E3E3E3" height="32.6211" rx="2.5" ry="2.5" style="stroke:#181818;stroke-width:0.5;" width="185.9785" x="536.1777" y="1544.416"/><text fill="#000000" font-family="sans-serif" font-size="14" lengthAdjust="spacing" textLength="171.9785" x="543.1777" y="1566.5234">:CargoGenerationController</text><rect fill="#E3E3E3" height="32.6211" rx="2.5" ry="2.5" style="stroke:#181818;stroke-width:0.5;" width="108.9443" x="740.6274" y="89.6211"/><text fill="#000000" font-family="sans-serif" font-size="14" lengthAdjust="spacing" textLength="94.9443" x="747.6274" y="111.7285">:StationMapper</text><rect fill="#E3E3E3" height="32.6211" rx="2.5" ry="2.5" style="stroke:#181818;stroke-width:0.5;" width="108.9443" x="740.6274" y="1544.416"/><text fill="#000000" font-family="sans-serif" font-size="14" lengthAdjust="spacing" textLength="94.9443" x="747.6274" y="1566.5234">:StationMapper</text><rect fill="#E3E3E3" height="32.6211" rx="2.5" ry="2.5" style="stroke:#181818;stroke-width:0.5;" width="103.4893" x="859.5718" y="89.6211"/><text fill="#000000" font-family="sans-serif" font-size="14" lengthAdjust="spacing" textLength="89.4893" x="866.5718" y="111.7285">:CargoMapper</text><rect fill="#E3E3E3" height="32.6211" rx="2.5" ry="2.5" style="stroke:#181818;stroke-width:0.5;" width="103.4893" x="859.5718" y="1544.416"/><text fill="#000000" font-family="sans-serif" font-size="14" lengthAdjust="spacing" textLength="89.4893" x="866.5718" y="1566.5234">:CargoMapper</text><rect fill="#E3E3E3" height="32.6211" rx="2.5" ry="2.5" style="stroke:#181818;stroke-width:0.5;" width="172.7578" x="973.061" y="89.6211"/><text fill="#000000" font-family="sans-serif" font-size="14" lengthAdjust="spacing" textLength="158.7578" x="980.061" y="111.7285">:CargoGenerationMapper</text><rect fill="#E3E3E3" height="32.6211" rx="2.5" ry="2.5" style="stroke:#181818;stroke-width:0.5;" width="172.7578" x="973.061" y="1544.416"/><text fill="#000000" font-family="sans-serif" font-size="14" lengthAdjust="spacing" textLength="158.7578" x="980.061" y="1566.5234">:CargoGenerationMapper</text><rect fill="#E3E3E3" height="32.6211" rx="2.5" ry="2.5" style="stroke:#181818;stroke-width:0.5;" width="129.9375" x="1155.8188" y="89.6211"/><text fill="#000000" font-family="sans-serif" font-size="14" lengthAdjust="spacing" textLength="115.9375" x="1162.8188" y="111.7285">:SimulationService</text><rect fill="#E3E3E3" height="32.6211" rx="2.5" ry="2.5" style="stroke:#181818;stroke-width:0.5;" width="129.9375" x="1155.8188" y="1544.416"/><text fill="#000000" font-family="sans-serif" font-size="14" lengthAdjust="spacing" textLength="115.9375" x="1162.8188" y="1566.5234">:SimulationService</text><rect fill="#E3E3E3" height="32.6211" rx="2.5" ry="2.5" style="stroke:#181818;stroke-width:0.5;" width="128.3926" x="1295.7563" y="89.6211"/><text fill="#000000" font-family="sans-serif" font-size="14" lengthAdjust="spacing" textLength="114.3926" x="1302.7563" y="111.7285">:StationRepository</text><rect fill="#E3E3E3" height="32.6211" rx="2.5" ry="2.5" style="stroke:#181818;stroke-width:0.5;" width="128.3926" x="1295.7563" y="1544.416"/><text fill="#000000" font-family="sans-serif" font-size="14" lengthAdjust="spacing" textLength="114.3926" x="1302.7563" y="1566.5234">:StationRepository</text><rect fill="#E3E3E3" height="32.6211" rx="2.5" ry="2.5" style="stroke:#181818;stroke-width:0.5;" width="162.6475" x="1434.1489" y="89.6211"/><text fill="#000000" font-family="sans-serif" font-size="14" lengthAdjust="spacing" textLength="148.6475" x="1441.1489" y="111.7285">stationList:List&lt;Station&gt;</text><rect fill="#E3E3E3" height="32.6211" rx="2.5" ry="2.5" style="stroke:#181818;stroke-width:0.5;" width="162.6475" x="1434.1489" y="1544.416"/><text fill="#000000" font-family="sans-serif" font-size="14" lengthAdjust="spacing" textLength="148.6475" x="1441.1489" y="1566.5234">stationList:List&lt;Station&gt;</text><rect fill="#E3E3E3" height="32.6211" rx="2.5" ry="2.5" style="stroke:#181818;stroke-width:0.5;" width="102.7236" x="1606.7964" y="89.6211"/><text fill="#000000" font-family="sans-serif" font-size="14" lengthAdjust="spacing" textLength="88.7236" x="1613.7964" y="111.7285">station:Station</text><rect fill="#E3E3E3" height="32.6211" rx="2.5" ry="2.5" style="stroke:#181818;stroke-width:0.5;" width="102.7236" x="1606.7964" y="1544.416"/><text fill="#000000" font-family="sans-serif" font-size="14" lengthAdjust="spacing" textLength="88.7236" x="1613.7964" y="1566.5234">station:Station</text><rect fill="#E3E3E3" height="32.6211" rx="2.5" ry="2.5" style="stroke:#181818;stroke-width:0.5;" width="114.3721" x="1779.9028" y="89.6211"/><text fill="#000000" font-family="sans-serif" font-size="14" lengthAdjust="spacing" textLength="100.3721" x="1786.9028" y="111.7285">:IndustryService</text><rect fill="#E3E3E3" height="32.6211" rx="2.5" ry="2.5" style="stroke:#181818;stroke-width:0.5;" width="114.3721" x="1779.9028" y="1544.416"/><text fill="#000000" font-family="sans-serif" font-size="14" lengthAdjust="spacing" textLength="100.3721" x="1786.9028" y="1566.5234">:IndustryService</text><rect fill="#E3E3E3" height="32.6211" rx="2.5" ry="2.5" style="stroke:#181818;stroke-width:0.5;" width="196.0957" x="1904.2749" y="89.6211"/><text fill="#000000" font-family="sans-serif" font-size="14" lengthAdjust="spacing" textLength="182.0957" x="1911.2749" y="111.7285">industryCargoes:List&lt;Cargo&gt;</text><rect fill="#E3E3E3" height="32.6211" rx="2.5" ry="2.5" style="stroke:#181818;stroke-width:0.5;" width="196.0957" x="1904.2749" y="1544.416"/><text fill="#000000" font-family="sans-serif" font-size="14" lengthAdjust="spacing" textLength="182.0957" x="1911.2749" y="1566.5234">industryCargoes:List&lt;Cargo&gt;</text><rect fill="#E3E3E3" height="32.6211" rx="2.5" ry="2.5" style="stroke:#181818;stroke-width:0.5;" width="88.6826" x="2110.3706" y="89.6211"/><text fill="#000000" font-family="sans-serif" font-size="14" lengthAdjust="spacing" textLength="74.6826" x="2117.3706" y="111.7285">:CityService</text><rect fill="#E3E3E3" height="32.6211" rx="2.5" ry="2.5" style="stroke:#181818;stroke-width:0.5;" width="88.6826" x="2110.3706" y="1544.416"/><text fill="#000000" font-family="sans-serif" font-size="14" lengthAdjust="spacing" textLength="74.6826" x="2117.3706" y="1566.5234">:CityService</text><rect fill="#E3E3E3" height="32.6211" rx="2.5" ry="2.5" style="stroke:#181818;stroke-width:0.5;" width="168.0752" x="2209.0532" y="89.6211"/><text fill="#000000" font-family="sans-serif" font-size="14" lengthAdjust="spacing" textLength="154.0752" x="2216.0532" y="111.7285">cityCargoes:List&lt;Cargo&gt;</text><rect fill="#E3E3E3" height="32.6211" rx="2.5" ry="2.5" style="stroke:#181818;stroke-width:0.5;" width="168.0752" x="2209.0532" y="1544.416"/><text fill="#000000" font-family="sans-serif" font-size="14" lengthAdjust="spacing" textLength="154.0752" x="2216.0532" y="1566.5234">cityCargoes:List&lt;Cargo&gt;</text><rect fill="#E3E3E3" height="32.6211" rx="2.5" ry="2.5" style="stroke:#181818;stroke-width:0.5;" width="91.041" x="2387.1284" y="1544.416"/><text fill="#000000" font-family="sans-serif" font-size="14" lengthAdjust="spacing" textLength="77.041" x="2394.1284" y="1566.5234">cargo:Cargo</text><rect fill="#E3E3E3" height="32.6211" rx="2.5" ry="2.5" style="stroke:#181818;stroke-width:0.5;" width="122.9375" x="2488.1694" y="89.6211"/><text fill="#000000" font-family="sans-serif" font-size="14" lengthAdjust="spacing" textLength="108.9375" x="2495.1694" y="111.7285">:CargoRepository</text><rect fill="#E3E3E3" height="32.6211" rx="2.5" ry="2.5" style="stroke:#181818;stroke-width:0.5;" width="122.9375" x="2488.1694" y="1544.416"/><text fill="#000000" font-family="sans-serif" font-size="14" lengthAdjust="spacing" textLength="108.9375" x="2495.1694" y="1566.5234">:CargoRepository</text><rect fill="#E3E3E3" height="32.6211" rx="2.5" ry="2.5" style="stroke:#181818;stroke-width:0.5;" width="172.7305" x="2621.1069" y="89.6211"/><text fill="#000000" font-family="sans-serif" font-size="14" lengthAdjust="spacing" textLength="158.7305" x="2628.1069" y="111.7285">:CargoDistributionService</text><rect fill="#E3E3E3" height="32.6211" rx="2.5" ry="2.5" style="stroke:#181818;stroke-width:0.5;" width="172.7305" x="2621.1069" y="1544.416"/><text fill="#000000" font-family="sans-serif" font-size="14" lengthAdjust="spacing" textLength="158.7305" x="2628.1069" y="1566.5234">:CargoDistributionService</text><rect fill="#E3E3E3" height="32.6211" rx="2.5" ry="2.5" style="stroke:#181818;stroke-width:0.5;" width="117.4893" x="2803.8374" y="89.6211"/><text fill="#000000" font-family="sans-serif" font-size="14" lengthAdjust="spacing" textLength="103.4893" x="2810.8374" y="111.7285">stats:CargoStats</text><rect fill="#E3E3E3" height="32.6211" rx="2.5" ry="2.5" style="stroke:#181818;stroke-width:0.5;" width="117.4893" x="2803.8374" y="1544.416"/><text fill="#000000" font-family="sans-serif" font-size="14" lengthAdjust="spacing" textLength="103.4893" x="2810.8374" y="1566.5234">stats:CargoStats</text><rect fill="#FFFFFF" height="1394.1738" style="stroke:#181818;stroke-width:1.0;" width="10" x="22.8413" y="133.2422"/><rect fill="#FFFFFF" height="219.0371" style="stroke:#181818;stroke-width:1.0;" width="10" x="410.5781" y="156.5332"/><rect fill="#FFFFFF" height="1120.5547" style="stroke:#181818;stroke-width:1.0;" width="10" x="410.5781" y="406.8613"/><rect fill="#FFFFFF" height="156.4551" style="stroke:#181818;stroke-width:1.0;" width="10" x="624.167" y="187.8242"/><rect fill="#FFFFFF" height="1057.9727" style="stroke:#181818;stroke-width:1.0;" width="10" x="624.167" y="438.1523"/><rect fill="#FFFFFF" height="31.291" style="stroke:#181818;stroke-width:1.0;" width="10" x="790.0996" y="281.6973"/><rect fill="#FFFFFF" height="31.291" style="stroke:#181818;stroke-width:1.0;" width="10" x="1054.4399" y="1433.543"/><rect fill="#FFFFFF" height="31.291" style="stroke:#181818;stroke-width:1.0;" width="10" x="1215.7876" y="469.4434"/><rect fill="#FFFFFF" height="31.291" style="stroke:#181818;stroke-width:1.0;" width="10" x="1354.9526" y="219.1152"/><rect fill="#FFFFFF" height="31.291" style="stroke:#181818;stroke-width:1.0;" width="10" x="1354.9526" y="532.0254"/><rect fill="#FFFFFF" height="277.6582" style="stroke:#181818;stroke-width:1.0;" width="10" x="1653.1582" y="746.0625"/><rect fill="#FFFFFF" height="277.6582" style="stroke:#181818;stroke-width:1.0;" width="10" x="1653.1582" y="1055.0117"/><rect fill="#FFFFFF" height="31.291" style="stroke:#181818;stroke-width:1.0;" width="10" x="1832.0889" y="620.8984"/><rect fill="#FFFFFF" height="31.291" style="stroke:#181818;stroke-width:1.0;" width="10" x="2149.7119" y="683.4805"/><rect fill="#FFFFFF" height="31.291" style="stroke:#181818;stroke-width:1.0;" width="10" x="2427.6489" y="847.2656"/><rect fill="#FFFFFF" height="31.291" style="stroke:#181818;stroke-width:1.0;" width="10" x="2427.6489" y="1156.2148"/><rect fill="#FFFFFF" height="31.291" style="stroke:#181818;stroke-width:1.0;" width="10" x="2544.6382" y="909.8477"/><rect fill="#FFFFFF" height="31.291" style="stroke:#181818;stroke-width:1.0;" width="10" x="2544.6382" y="1218.7969"/><rect fill="#FFFFFF" height="31.291" style="stroke:#181818;stroke-width:1.0;" width="10" x="2702.4722" y="1370.9609"/><polygon fill="#181818" points="398.5781,152.5332,408.5781,156.5332,398.5781,160.5332,402.5781,156.5332" style="stroke:#181818;stroke-width:1.0;"/><line style="stroke:#181818;stroke-width:1.0;" x1="32.8413" x2="404.5781" y1="156.5332" y2="156.5332"/><text fill="#000000" font-family="sans-serif" font-size="13" font-weight="bold" lengthAdjust="spacing" textLength="7.23" x="39.8413" y="151.2705">1</text><text fill="#000000" font-family="sans-serif" font-size="13" lengthAdjust="spacing" textLength="256.5278" x="51.0713" y="151.2705">requests to start cargo generation simulation</text><polygon fill="#181818" points="612.167,183.8242,622.167,187.8242,612.167,191.8242,616.167,187.8242" style="stroke:#181818;stroke-width:1.0;"/><line style="stroke:#181818;stroke-width:1.0;" x1="420.5781" x2="618.167" y1="187.8242" y2="187.8242"/><text fill="#000000" font-family="sans-serif" font-size="13" font-weight="bold" lengthAdjust="spacing" textLength="7.23" x="427.5781" y="182.5615">2</text><text fill="#000000" font-family="sans-serif" font-size="13" lengthAdjust="spacing" textLength="73.7026" x="438.8081" y="182.5615">getStations()</text><polygon fill="#181818" points="1342.9526,215.1152,1352.9526,219.1152,1342.9526,223.1152,1346.9526,219.1152" style="stroke:#181818;stroke-width:1.0;"/><line style="stroke:#181818;stroke-width:1.0;" x1="634.167" x2="1348.9526" y1="219.1152" y2="219.1152"/><text fill="#000000" font-family="sans-serif" font-size="13" font-weight="bold" lengthAdjust="spacing" textLength="7.23" x="641.167" y="213.8525">3</text><text fill="#000000" font-family="sans-serif" font-size="13" lengthAdjust="spacing" textLength="88.1499" x="652.397" y="213.8525">getAllStations()</text><polygon fill="#181818" points="645.167,246.4063,635.167,250.4063,645.167,254.4063,641.167,250.4063" style="stroke:#181818;stroke-width:1.0;"/><line style="stroke:#181818;stroke-width:1.0;stroke-dasharray:2.0,2.0;" x1="639.167" x2="1358.9526" y1="250.4063" y2="250.4063"/><text fill="#000000" font-family="sans-serif" font-size="13" font-weight="bold" lengthAdjust="spacing" textLength="7.23" x="651.167" y="245.1436">4</text><text fill="#000000" font-family="sans-serif" font-size="13" lengthAdjust="spacing" textLength="58.5317" x="662.397" y="245.1436">stationList</text><polygon fill="#181818" points="778.0996,277.6973,788.0996,281.6973,778.0996,285.6973,782.0996,281.6973" style="stroke:#181818;stroke-width:1.0;"/><line style="stroke:#181818;stroke-width:1.0;" x1="634.167" x2="784.0996" y1="281.6973" y2="281.6973"/><text fill="#000000" font-family="sans-serif" font-size="13" font-weight="bold" lengthAdjust="spacing" textLength="7.23" x="641.167" y="276.4346">5</text><text fill="#000000" font-family="sans-serif" font-size="13" lengthAdjust="spacing" textLength="125.7026" x="652.397" y="276.4346">toDTOList(stationList)</text><polygon fill="#181818" points="645.167,308.9883,635.167,312.9883,645.167,316.9883,641.167,312.9883" style="stroke:#181818;stroke-width:1.0;"/><line style="stroke:#181818;stroke-width:1.0;stroke-dasharray:2.0,2.0;" x1="639.167" x2="794.0996" y1="312.9883" y2="312.9883"/><text fill="#000000" font-family="sans-serif" font-size="13" font-weight="bold" lengthAdjust="spacing" textLength="7.23" x="651.167" y="307.7256">6</text><text fill="#000000" font-family="sans-serif" font-size="13" lengthAdjust="spacing" textLength="85.9727" x="662.397" y="307.7256">stationDTOList</text><polygon fill="#181818" points="431.5781,340.2793,421.5781,344.2793,431.5781,348.2793,427.5781,344.2793" style="stroke:#181818;stroke-width:1.0;"/><line style="stroke:#181818;stroke-width:1.0;stroke-dasharray:2.0,2.0;" x1="425.5781" x2="628.167" y1="344.2793" y2="344.2793"/><text fill="#000000" font-family="sans-serif" font-size="13" font-weight="bold" lengthAdjust="spacing" textLength="7.23" x="437.5781" y="339.0166">7</text><text fill="#000000" font-family="sans-serif" font-size="13" lengthAdjust="spacing" textLength="85.9727" x="448.8081" y="339.0166">stationDTOList</text><polygon fill="#181818" points="43.8413,371.5703,33.8413,375.5703,43.8413,379.5703,39.8413,375.5703" style="stroke:#181818;stroke-width:1.0;"/><line style="stroke:#181818;stroke-width:1.0;stroke-dasharray:2.0,2.0;" x1="37.8413" x2="414.5781" y1="375.5703" y2="375.5703"/><text fill="#000000" font-family="sans-serif" font-size="13" font-weight="bold" lengthAdjust="spacing" textLength="7.23" x="49.8413" y="370.3076">8</text><text fill="#000000" font-family="sans-serif" font-size="13" lengthAdjust="spacing" textLength="342.5068" x="61.0713" y="370.3076">shows stations and asks for confirmation to start generation</text><polygon fill="#181818" points="398.5781,402.8613,408.5781,406.8613,398.5781,410.8613,402.5781,406.8613" style="stroke:#181818;stroke-width:1.0;"/><line style="stroke:#181818;stroke-width:1.0;" x1="32.8413" x2="404.5781" y1="406.8613" y2="406.8613"/><text fill="#000000" font-family="sans-serif" font-size="13" font-weight="bold" lengthAdjust="spacing" textLength="7.23" x="39.8413" y="401.5986">9</text><text fill="#000000" font-family="sans-serif" font-size="13" lengthAdjust="spacing" textLength="150.2998" x="51.0713" y="401.5986">confirms cargo generation</text><polygon fill="#181818" points="612.167,434.1523,622.167,438.1523,612.167,442.1523,616.167,438.1523" style="stroke:#181818;stroke-width:1.0;"/><line style="stroke:#181818;stroke-width:1.0;" x1="420.5781" x2="618.167" y1="438.1523" y2="438.1523"/><text fill="#000000" font-family="sans-serif" font-size="13" font-weight="bold" lengthAdjust="spacing" textLength="14.46" x="427.5781" y="432.8896">10</text><text fill="#000000" font-family="sans-serif" font-size="13" lengthAdjust="spacing" textLength="133.6689" x="446.0381" y="432.8896">startCargoGeneration()</text><polygon fill="#181818" points="1203.7876,465.4434,1213.7876,469.4434,1203.7876,473.4434,1207.7876,469.4434" style="stroke:#181818;stroke-width:1.0;"/><line style="stroke:#181818;stroke-width:1.0;" x1="634.167" x2="1209.7876" y1="469.4434" y2="469.4434"/><text fill="#000000" font-family="sans-serif" font-size="13" font-weight="bold" lengthAdjust="spacing" textLength="14.46" x="641.167" y="464.1807">11</text><text fill="#000000" font-family="sans-serif" font-size="13" lengthAdjust="spacing" textLength="190.7471" x="659.627" y="464.1807">configureSimulation(/* params */)</text><polygon fill="#181818" points="645.167,496.7344,635.167,500.7344,645.167,504.7344,641.167,500.7344" style="stroke:#181818;stroke-width:1.0;"/><line style="stroke:#181818;stroke-width:1.0;stroke-dasharray:2.0,2.0;" x1="639.167" x2="1219.7876" y1="500.7344" y2="500.7344"/><text fill="#000000" font-family="sans-serif" font-size="13" font-weight="bold" lengthAdjust="spacing" textLength="14.46" x="651.167" y="495.4717">12</text><text fill="#000000" font-family="sans-serif" font-size="13" lengthAdjust="spacing" textLength="53.4727" x="669.627" y="495.4717">configOK</text><polygon fill="#181818" points="1342.9526,528.0254,1352.9526,532.0254,1342.9526,536.0254,1346.9526,532.0254" style="stroke:#181818;stroke-width:1.0;"/><line style="stroke:#181818;stroke-width:1.0;" x1="634.167" x2="1348.9526" y1="532.0254" y2="532.0254"/><text fill="#000000" font-family="sans-serif" font-size="13" font-weight="bold" lengthAdjust="spacing" textLength="14.46" x="641.167" y="526.7627">13</text><text fill="#000000" font-family="sans-serif" font-size="13" lengthAdjust="spacing" textLength="88.1499" x="659.627" y="526.7627">getAllStations()</text><polygon fill="#181818" points="645.167,559.3164,635.167,563.3164,645.167,567.3164,641.167,563.3164" style="stroke:#181818;stroke-width:1.0;"/><line style="stroke:#181818;stroke-width:1.0;stroke-dasharray:2.0,2.0;" x1="639.167" x2="1358.9526" y1="563.3164" y2="563.3164"/><text fill="#000000" font-family="sans-serif" font-size="13" font-weight="bold" lengthAdjust="spacing" textLength="14.46" x="651.167" y="558.0537">14</text><text fill="#000000" font-family="sans-serif" font-size="13" lengthAdjust="spacing" textLength="58.5317" x="669.627" y="558.0537">stationList</text><path d="M526.1777,578.3164 L598.6123,578.3164 L598.6123,587.6074 L588.6123,597.6074 L526.1777,597.6074 L526.1777,578.3164 " fill="#EEEEEE" style="stroke:#000000;stroke-width:1.5;"/><rect fill="none" height="762.3535" style="stroke:#000000;stroke-width:1.5;" width="2104.9292" x="526.1777" y="578.3164"/><text fill="#000000" font-family="sans-serif" font-size="13" font-weight="bold" lengthAdjust="spacing" textLength="27.4346" x="541.1777" y="593.3447">loop</text><text fill="#000000" font-family="sans-serif" font-size="11" font-weight="bold" lengthAdjust="spacing" textLength="160.73" x="613.6123" y="592.1865">[for each station in stationList]</text><polygon fill="#181818" points="1820.0889,616.8984,1830.0889,620.8984,1820.0889,624.8984,1824.0889,620.8984" style="stroke:#181818;stroke-width:1.0;"/><line style="stroke:#181818;stroke-width:1.0;" x1="634.167" x2="1826.0889" y1="620.8984" y2="620.8984"/><text fill="#000000" font-family="sans-serif" font-size="13" font-weight="bold" lengthAdjust="spacing" textLength="14.46" x="641.167" y="615.6357">15</text><text fill="#000000" font-family="sans-serif" font-size="13" lengthAdjust="spacing" textLength="193.6606" x="659.627" y="615.6357">generateCargoForStation(station)</text><polygon fill="#181818" points="645.167,648.1895,635.167,652.1895,645.167,656.1895,641.167,652.1895" style="stroke:#181818;stroke-width:1.0;"/><line style="stroke:#181818;stroke-width:1.0;stroke-dasharray:2.0,2.0;" x1="639.167" x2="1836.0889" y1="652.1895" y2="652.1895"/><text fill="#000000" font-family="sans-serif" font-size="13" font-weight="bold" lengthAdjust="spacing" textLength="14.46" x="651.167" y="646.9268">16</text><text fill="#000000" font-family="sans-serif" font-size="13" lengthAdjust="spacing" textLength="94.6563" x="669.627" y="646.9268">industryCargoes</text><polygon fill="#181818" points="2137.7119,679.4805,2147.7119,683.4805,2137.7119,687.4805,2141.7119,683.4805" style="stroke:#181818;stroke-width:1.0;"/><line style="stroke:#181818;stroke-width:1.0;" x1="634.167" x2="2143.7119" y1="683.4805" y2="683.4805"/><text fill="#000000" font-family="sans-serif" font-size="13" font-weight="bold" lengthAdjust="spacing" textLength="14.46" x="641.167" y="678.2178">17</text><text fill="#000000" font-family="sans-serif" font-size="13" lengthAdjust="spacing" textLength="193.6606" x="659.627" y="678.2178">generateCargoForStation(station)</text><polygon fill="#181818" points="645.167,710.7715,635.167,714.7715,645.167,718.7715,641.167,714.7715" style="stroke:#181818;stroke-width:1.0;"/><line style="stroke:#181818;stroke-width:1.0;stroke-dasharray:2.0,2.0;" x1="639.167" x2="2153.7119" y1="714.7715" y2="714.7715"/><text fill="#000000" font-family="sans-serif" font-size="13" font-weight="bold" lengthAdjust="spacing" textLength="14.46" x="651.167" y="709.5088">18</text><text fill="#000000" font-family="sans-serif" font-size="13" lengthAdjust="spacing" textLength="68.6372" x="669.627" y="709.5088">cityCargoes</text><polygon fill="#181818" points="1641.1582,742.0625,1651.1582,746.0625,1641.1582,750.0625,1645.1582,746.0625" style="stroke:#181818;stroke-width:1.0;"/><line style="stroke:#181818;stroke-width:1.0;" x1="634.167" x2="1647.1582" y1="746.0625" y2="746.0625"/><text fill="#000000" font-family="sans-serif" font-size="13" font-weight="bold" lengthAdjust="spacing" textLength="14.46" x="641.167" y="740.7998">19</text><text fill="#000000" font-family="sans-serif" font-size="13" lengthAdjust="spacing" textLength="174.1416" x="659.627" y="740.7998">addCargoes(industryCargoes)</text><path d="M1596.7964,761.0625 L1669.231,761.0625 L1669.231,770.3535 L1659.231,780.3535 L1596.7964,780.3535 L1596.7964,761.0625 " fill="#EEEEEE" style="stroke:#000000;stroke-width:1.5;"/><rect fill="none" height="232.3672" style="stroke:#000000;stroke-width:1.5;" width="1024.3105" x="1596.7964" y="761.0625"/><text fill="#000000" font-family="sans-serif" font-size="13" font-weight="bold" lengthAdjust="spacing" textLength="27.4346" x="1611.7964" y="776.0908">loop</text><text fill="#000000" font-family="sans-serif" font-size="11" font-weight="bold" lengthAdjust="spacing" textLength="186.4253" x="1684.231" y="774.9326">[for each cargo in industryCargoes]</text><polygon fill="#181818" points="2375.1284,799.6445,2385.1284,803.6445,2375.1284,807.6445,2379.1284,803.6445" style="stroke:#181818;stroke-width:1.0;"/><line style="stroke:#181818;stroke-width:1.0;" x1="1663.1582" x2="2381.1284" y1="803.6445" y2="803.6445"/><text fill="#000000" font-family="sans-serif" font-size="13" font-weight="bold" lengthAdjust="spacing" textLength="14.46" x="1670.1582" y="798.3818">20</text><text fill="#000000" font-family="sans-serif" font-size="13" lengthAdjust="spacing" textLength="130.7871" x="1688.6182" y="798.3818">create(/* cargo data */)</text><rect fill="#E3E3E3" height="32.6211" rx="2.5" ry="2.5" style="stroke:#181818;stroke-width:0.5;" width="91.041" x="2387.1284" y="780.3535"/><text fill="#000000" font-family="sans-serif" font-size="14" lengthAdjust="spacing" textLength="77.041" x="2394.1284" y="802.4609">cargo:Cargo</text><polygon fill="#181818" points="2415.6489,843.2656,2425.6489,847.2656,2415.6489,851.2656,2419.6489,847.2656" style="stroke:#181818;stroke-width:1.0;"/><line style="stroke:#181818;stroke-width:1.0;" x1="1663.1582" x2="2421.6489" y1="847.2656" y2="847.2656"/><text fill="#000000" font-family="sans-serif" font-size="13" font-weight="bold" lengthAdjust="spacing" textLength="14.46" x="1670.1582" y="842.0029">21</text><text fill="#000000" font-family="sans-serif" font-size="13" lengthAdjust="spacing" textLength="80.9263" x="1688.6182" y="842.0029">validateData()</text><polygon fill="#181818" points="1674.1582,874.5566,1664.1582,878.5566,1674.1582,882.5566,1670.1582,878.5566" style="stroke:#181818;stroke-width:1.0;"/><line style="stroke:#181818;stroke-width:1.0;stroke-dasharray:2.0,2.0;" x1="1668.1582" x2="2431.6489" y1="878.5566" y2="878.5566"/><text fill="#000000" font-family="sans-serif" font-size="13" font-weight="bold" lengthAdjust="spacing" textLength="14.46" x="1680.1582" y="873.2939">22</text><text fill="#000000" font-family="sans-serif" font-size="13" lengthAdjust="spacing" textLength="91.7744" x="1698.6182" y="873.2939">validationResult</text><polygon fill="#181818" points="2532.6382,905.8477,2542.6382,909.8477,2532.6382,913.8477,2536.6382,909.8477" style="stroke:#181818;stroke-width:1.0;"/><line style="stroke:#181818;stroke-width:1.0;" x1="1663.1582" x2="2538.6382" y1="909.8477" y2="909.8477"/><text fill="#000000" font-family="sans-serif" font-size="13" font-weight="bold" lengthAdjust="spacing" textLength="14.46" x="1670.1582" y="904.585">23</text><text fill="#000000" font-family="sans-serif" font-size="13" lengthAdjust="spacing" textLength="104.0444" x="1688.6182" y="904.585">saveCargo(cargo)</text><polygon fill="#181818" points="1674.1582,937.1387,1664.1582,941.1387,1674.1582,945.1387,1670.1582,941.1387" style="stroke:#181818;stroke-width:1.0;"/><line style="stroke:#181818;stroke-width:1.0;stroke-dasharray:2.0,2.0;" x1="1668.1582" x2="2548.6382" y1="941.1387" y2="941.1387"/><text fill="#000000" font-family="sans-serif" font-size="13" font-weight="bold" lengthAdjust="spacing" textLength="14.46" x="1680.1582" y="935.876">24</text><text fill="#000000" font-family="sans-serif" font-size="13" lengthAdjust="spacing" textLength="70.0972" x="1698.6182" y="935.876">savedCargo</text><line style="stroke:#181818;stroke-width:1.0;" x1="1663.1582" x2="1705.1582" y1="972.4297" y2="972.4297"/><line style="stroke:#181818;stroke-width:1.0;" x1="1705.1582" x2="1705.1582" y1="972.4297" y2="985.4297"/><line style="stroke:#181818;stroke-width:1.0;" x1="1664.1582" x2="1705.1582" y1="985.4297" y2="985.4297"/><polygon fill="#181818" points="1674.1582,981.4297,1664.1582,985.4297,1674.1582,989.4297,1670.1582,985.4297" style="stroke:#181818;stroke-width:1.0;"/><text fill="#000000" font-family="sans-serif" font-size="13" font-weight="bold" lengthAdjust="spacing" textLength="14.46" x="1670.1582" y="967.167">25</text><text fill="#000000" font-family="sans-serif" font-size="13" lengthAdjust="spacing" textLength="126.4707" x="1688.6182" y="967.167">updateStorage(cargo)</text><polygon fill="#181818" points="645.167,1019.7207,635.167,1023.7207,645.167,1027.7207,641.167,1023.7207" style="stroke:#181818;stroke-width:1.0;"/><line style="stroke:#181818;stroke-width:1.0;stroke-dasharray:2.0,2.0;" x1="639.167" x2="1657.1582" y1="1023.7207" y2="1023.7207"/><text fill="#000000" font-family="sans-serif" font-size="13" font-weight="bold" lengthAdjust="spacing" textLength="14.46" x="651.167" y="1018.458">26</text><text fill="#000000" font-family="sans-serif" font-size="13" lengthAdjust="spacing" textLength="131.5298" x="669.627" y="1018.458">addedIndustryCargoes</text><polygon fill="#181818" points="1641.1582,1051.0117,1651.1582,1055.0117,1641.1582,1059.0117,1645.1582,1055.0117" style="stroke:#181818;stroke-width:1.0;"/><line style="stroke:#181818;stroke-width:1.0;" x1="634.167" x2="1647.1582" y1="1055.0117" y2="1055.0117"/><text fill="#000000" font-family="sans-serif" font-size="13" font-weight="bold" lengthAdjust="spacing" textLength="14.46" x="641.167" y="1049.749">27</text><text fill="#000000" font-family="sans-serif" font-size="13" lengthAdjust="spacing" textLength="148.1226" x="659.627" y="1049.749">addCargoes(cityCargoes)</text><path d="M1596.7964,1070.0117 L1669.231,1070.0117 L1669.231,1079.3027 L1659.231,1089.3027 L1596.7964,1089.3027 L1596.7964,1070.0117 " fill="#EEEEEE" style="stroke:#000000;stroke-width:1.5;"/><rect fill="none" height="232.3672" style="stroke:#000000;stroke-width:1.5;" width="1024.3105" x="1596.7964" y="1070.0117"/><text fill="#000000" font-family="sans-serif" font-size="13" font-weight="bold" lengthAdjust="spacing" textLength="27.4346" x="1611.7964" y="1085.04">loop</text><text fill="#000000" font-family="sans-serif" font-size="11" font-weight="bold" lengthAdjust="spacing" textLength="161.9868" x="1684.231" y="1083.8818">[for each cargo in cityCargoes]</text><polygon fill="#181818" points="2375.1284,1108.5938,2385.1284,1112.5938,2375.1284,1116.5938,2379.1284,1112.5938" style="stroke:#181818;stroke-width:1.0;"/><line style="stroke:#181818;stroke-width:1.0;" x1="1663.1582" x2="2381.1284" y1="1112.5938" y2="1112.5938"/><text fill="#000000" font-family="sans-serif" font-size="13" font-weight="bold" lengthAdjust="spacing" textLength="14.46" x="1670.1582" y="1107.3311">28</text><text fill="#000000" font-family="sans-serif" font-size="13" lengthAdjust="spacing" textLength="130.7871" x="1688.6182" y="1107.3311">create(/* cargo data */)</text><rect fill="#E3E3E3" height="32.6211" rx="2.5" ry="2.5" style="stroke:#181818;stroke-width:0.5;" width="91.041" x="2387.1284" y="1089.3027"/><text fill="#000000" font-family="sans-serif" font-size="14" lengthAdjust="spacing" textLength="77.041" x="2394.1284" y="1111.4102">cargo:Cargo</text><polygon fill="#181818" points="2415.6489,1152.2148,2425.6489,1156.2148,2415.6489,1160.2148,2419.6489,1156.2148" style="stroke:#181818;stroke-width:1.0;"/><line style="stroke:#181818;stroke-width:1.0;" x1="1663.1582" x2="2421.6489" y1="1156.2148" y2="1156.2148"/><text fill="#000000" font-family="sans-serif" font-size="13" font-weight="bold" lengthAdjust="spacing" textLength="14.46" x="1670.1582" y="1150.9521">29</text><text fill="#000000" font-family="sans-serif" font-size="13" lengthAdjust="spacing" textLength="80.9263" x="1688.6182" y="1150.9521">validateData()</text><polygon fill="#181818" points="1674.1582,1183.5059,1664.1582,1187.5059,1674.1582,1191.5059,1670.1582,1187.5059" style="stroke:#181818;stroke-width:1.0;"/><line style="stroke:#181818;stroke-width:1.0;stroke-dasharray:2.0,2.0;" x1="1668.1582" x2="2431.6489" y1="1187.5059" y2="1187.5059"/><text fill="#000000" font-family="sans-serif" font-size="13" font-weight="bold" lengthAdjust="spacing" textLength="14.46" x="1680.1582" y="1182.2432">30</text><text fill="#000000" font-family="sans-serif" font-size="13" lengthAdjust="spacing" textLength="91.7744" x="1698.6182" y="1182.2432">validationResult</text><polygon fill="#181818" points="2532.6382,1214.7969,2542.6382,1218.7969,2532.6382,1222.7969,2536.6382,1218.7969" style="stroke:#181818;stroke-width:1.0;"/><line style="stroke:#181818;stroke-width:1.0;" x1="1663.1582" x2="2538.6382" y1="1218.7969" y2="1218.7969"/><text fill="#000000" font-family="sans-serif" font-size="13" font-weight="bold" lengthAdjust="spacing" textLength="14.46" x="1670.1582" y="1213.5342">31</text><text fill="#000000" font-family="sans-serif" font-size="13" lengthAdjust="spacing" textLength="104.0444" x="1688.6182" y="1213.5342">saveCargo(cargo)</text><polygon fill="#181818" points="1674.1582,1246.0879,1664.1582,1250.0879,1674.1582,1254.0879,1670.1582,1250.0879" style="stroke:#181818;stroke-width:1.0;"/><line style="stroke:#181818;stroke-width:1.0;stroke-dasharray:2.0,2.0;" x1="1668.1582" x2="2548.6382" y1="1250.0879" y2="1250.0879"/><text fill="#000000" font-family="sans-serif" font-size="13" font-weight="bold" lengthAdjust="spacing" textLength="14.46" x="1680.1582" y="1244.8252">32</text><text fill="#000000" font-family="sans-serif" font-size="13" lengthAdjust="spacing" textLength="70.0972" x="1698.6182" y="1244.8252">savedCargo</text><line style="stroke:#181818;stroke-width:1.0;" x1="1663.1582" x2="1705.1582" y1="1281.3789" y2="1281.3789"/><line style="stroke:#181818;stroke-width:1.0;" x1="1705.1582" x2="1705.1582" y1="1281.3789" y2="1294.3789"/><line style="stroke:#181818;stroke-width:1.0;" x1="1664.1582" x2="1705.1582" y1="1294.3789" y2="1294.3789"/><polygon fill="#181818" points="1674.1582,1290.3789,1664.1582,1294.3789,1674.1582,1298.3789,1670.1582,1294.3789" style="stroke:#181818;stroke-width:1.0;"/><text fill="#000000" font-family="sans-serif" font-size="13" font-weight="bold" lengthAdjust="spacing" textLength="14.46" x="1670.1582" y="1276.1162">33</text><text fill="#000000" font-family="sans-serif" font-size="13" lengthAdjust="spacing" textLength="126.4707" x="1688.6182" y="1276.1162">updateStorage(cargo)</text><polygon fill="#181818" points="645.167,1328.6699,635.167,1332.6699,645.167,1336.6699,641.167,1332.6699" style="stroke:#181818;stroke-width:1.0;"/><line style="stroke:#181818;stroke-width:1.0;stroke-dasharray:2.0,2.0;" x1="639.167" x2="1657.1582" y1="1332.6699" y2="1332.6699"/><text fill="#000000" font-family="sans-serif" font-size="13" font-weight="bold" lengthAdjust="spacing" textLength="14.46" x="651.167" y="1327.4072">34</text><text fill="#000000" font-family="sans-serif" font-size="13" lengthAdjust="spacing" textLength="107.6753" x="669.627" y="1327.4072">addedCityCargoes</text><polygon fill="#181818" points="2690.4722,1366.9609,2700.4722,1370.9609,2690.4722,1374.9609,2694.4722,1370.9609" style="stroke:#181818;stroke-width:1.0;"/><line style="stroke:#181818;stroke-width:1.0;" x1="634.167" x2="2696.4722" y1="1370.9609" y2="1370.9609"/><text fill="#000000" font-family="sans-serif" font-size="13" font-weight="bold" lengthAdjust="spacing" textLength="14.46" x="641.167" y="1365.6982">35</text><text fill="#000000" font-family="sans-serif" font-size="13" lengthAdjust="spacing" textLength="111.979" x="659.627" y="1365.6982">calculateStatistics()</text><polygon fill="#181818" points="645.167,1398.252,635.167,1402.252,645.167,1406.252,641.167,1402.252" style="stroke:#181818;stroke-width:1.0;"/><line style="stroke:#181818;stroke-width:1.0;stroke-dasharray:2.0,2.0;" x1="639.167" x2="2706.4722" y1="1402.252" y2="1402.252"/><text fill="#000000" font-family="sans-serif" font-size="13" font-weight="bold" lengthAdjust="spacing" textLength="14.46" x="651.167" y="1396.9893">36</text><text fill="#000000" font-family="sans-serif" font-size="13" lengthAdjust="spacing" textLength="27.4536" x="669.627" y="1396.9893">stats</text><polygon fill="#181818" points="1042.4399,1429.543,1052.4399,1433.543,1042.4399,1437.543,1046.4399,1433.543" style="stroke:#181818;stroke-width:1.0;"/><line style="stroke:#181818;stroke-width:1.0;" x1="634.167" x2="1048.4399" y1="1433.543" y2="1433.543"/><text fill="#000000" font-family="sans-serif" font-size="13" font-weight="bold" lengthAdjust="spacing" textLength="14.46" x="641.167" y="1428.2803">37</text><text fill="#000000" font-family="sans-serif" font-size="13" lengthAdjust="spacing" textLength="176.998" x="659.627" y="1428.2803">toResultDTO(stationList, stats)</text><polygon fill="#181818" points="645.167,1460.834,635.167,1464.834,645.167,1468.834,641.167,1464.834" style="stroke:#181818;stroke-width:1.0;"/><line style="stroke:#181818;stroke-width:1.0;stroke-dasharray:2.0,2.0;" x1="639.167" x2="1058.4399" y1="1464.834" y2="1464.834"/><text fill="#000000" font-family="sans-serif" font-size="13" font-weight="bold" lengthAdjust="spacing" textLength="14.46" x="651.167" y="1459.5713">38</text><text fill="#000000" font-family="sans-serif" font-size="13" lengthAdjust="spacing" textLength="161.1289" x="669.627" y="1459.5713">cargoGenerationResultDTO</text><polygon fill="#181818" points="431.5781,1492.125,421.5781,1496.125,431.5781,1500.125,427.5781,1496.125" style="stroke:#181818;stroke-width:1.0;"/><line style="stroke:#181818;stroke-width:1.0;stroke-dasharray:2.0,2.0;" x1="425.5781" x2="628.167" y1="1496.125" y2="1496.125"/><text fill="#000000" font-family="sans-serif" font-size="13" font-weight="bold" lengthAdjust="spacing" textLength="14.46" x="437.5781" y="1490.8623">39</text><text fill="#000000" font-family="sans-serif" font-size="13" lengthAdjust="spacing" textLength="161.1289" x="456.0381" y="1490.8623">cargoGenerationResultDTO</text><polygon fill="#181818" points="38.8413,1523.416,28.8413,1527.416,38.8413,1531.416,34.8413,1527.416" style="stroke:#181818;stroke-width:1.0;"/><line style="stroke:#181818;stroke-width:1.0;stroke-dasharray:2.0,2.0;" x1="32.8413" x2="414.5781" y1="1527.416" y2="1527.416"/><text fill="#000000" font-family="sans-serif" font-size="13" font-weight="bold" lengthAdjust="spacing" textLength="14.46" x="44.8413" y="1522.1533">40</text><text fill="#000000" font-family="sans-serif" font-size="13" lengthAdjust="spacing" textLength="234.1143" x="63.3013" y="1522.1533">displays operation success and statistics</text><!--SRC=[xLXDRziu4BthLn0vES46GVSOB08Ojbi8cyI1vIomfuAL68S8JMf9AeN__Gv9VOnaIdPHz50WF0HsClDctl0DoObvuxAackx9NacLlsgrPyJgYYMc_Kj9ypUwOvaz24OqoosLEu4Dp2ijr7SkT-I52iEIn78BfXdxhs8oPsJ9wSxPpRBb9RacpzcdFyaN9fccbf45rJl539bNLksfvJaLuW1MdoiXaeJ2RsMr_yOqVCwjqkHYNkovl20KN9OFwMC2EO0NBwcqvEBMmzNWNCddr5i-fzDc2oMjLa8mxSqNsytzm26ptl21bcLjb6tdstJz-31_UbfjOl38TZ7VV5cFMtQ989_DAdk-tqQTChwlXBVFc7xdEGi9fG_PQlDFkbZ5Sz-mKXaEDJpW_3UhftNVtWJpUsxihVlnL-r_XztkqsmRTMkYOUD1FgaiAcFr0IUVFYwZoVFQjfP9ICX_kMlyllhghh9XPRdjHLYast-Z8N8m78DtJd7yt1c5xUksEBQvWx9xk-EY1zibXDVyMpNSsYLKEvgxAxe9lgxkfgrwvlk5lxiM2tsI45Z-8xc-WuuWjz3CqA766c8L0IHjYMT5TgqUYMcbvlrRJEWeKY-00a3NCm2vOxOMW9bTjYQjc-yiWfPt0tUane0o5o82r0F32YQ3XV6kk_IGjdik1Jk9EfLsw5B0jsgvNJlq6OeqdNxTuIC4QkHZ2dMS4omYu14UZHv6e15iR_zw2W2C82w0ULNVJGDc29K5gFBDa1SuldCbNxZU1t6riki4bmm2rZgBYBT6CaUQFK-eFl3WzFqnnRR7RPFChjAiEvfdDrV4tu-6NDsCIQ0xie_sluD7cn_YhFyUtVOEy3TgivwDKAhqKW7RrmQ9S3aAYlbrruYd5zuOVfS_ArqJRLhpyWYbJGxTHYIoK1H4Ud1L7NaYyWX_b0gwhtwA2xxtOcHm7AoqxbQSOd8IlIyy0AP5KUFE1XMR8D4y968X-e89fm6N9xTZ865VSdStNrqvzff1MDV20Q-WbXwryHGAOBnJmS6FBS5tDkxPbTA_8CZ42iZNlNBMKVpxpbJ2ZWBWJPkCDAHI7nQ6lWVrpNn9pYKKFJQEIBK7I4VCnGjAEPlIP2n4gmjIbMw7CdYTmOGpHOp98fb4xJe71CwAzFp3eD5syaEzW_epal7FDCvKvtyqpKVJ_BgcMPntvyGqxK95NpneT78IfI9txpFcxqy3WzJeimVFNCDaCEZWsMF67ZnZUD6iyV3lnugWKtYPuy7YZn1nX43l7mX31hq0-DhlluZRi6EiUa4cHekJkCCXOsouABWf1JqOeifsHgtod9amQ9XsNoEJH8A-Xg7uVm00]--></g></svg>