<svg xmlns="http://www.w3.org/2000/svg" xmlns:xlink="http://www.w3.org/1999/xlink" contentStyleType="text/css" height="1000px" preserveAspectRatio="none" style="width:989px;height:1000px;background:#FFFFFF;" version="1.1" viewBox="0 0 989 1000" width="989px" zoomAndPan="magnify"><defs/><g><rect fill="#FFFFFF" height="806.1973" style="stroke:#181818;stroke-width:1.0;" width="10" x="22.8413" y="93.6211"/><rect fill="#FFFFFF" height="137.4941" style="stroke:#181818;stroke-width:1.0;" width="10" x="354.9473" y="116.9121"/><rect fill="#FFFFFF" height="142.125" style="stroke:#181818;stroke-width:1.0;" width="10" x="354.9473" y="285.6973"/><rect fill="#FFFFFF" height="267.2891" style="stroke:#181818;stroke-width:1.0;" width="10" x="354.9473" y="459.1133"/><rect fill="#FFFFFF" height="142.125" style="stroke:#181818;stroke-width:1.0;" width="10" x="354.9473" y="757.6934"/><rect fill="#FFFFFF" height="31.291" style="stroke:#181818;stroke-width:1.0;" width="10" x="653.8569" y="191.8242"/><rect fill="#FFFFFF" height="79.543" style="stroke:#181818;stroke-width:1.0;" width="10" x="653.8569" y="316.9883"/><rect fill="#FFFFFF" height="93.873" style="stroke:#181818;stroke-width:1.0;" width="10" x="653.8569" y="490.4043"/><rect fill="#FFFFFF" height="79.543" style="stroke:#181818;stroke-width:1.0;" width="10" x="653.8569" y="615.5684"/><rect fill="#FFFFFF" height="79.543" style="stroke:#181818;stroke-width:1.0;" width="10" x="653.8569" y="788.9844"/><rect fill="#FFFFFF" height="31.291" style="stroke:#181818;stroke-width:1.0;" width="10" x="936.1548" y="521.6953"/><line style="stroke:#181818;stroke-width:0.5;stroke-dasharray:5.0,5.0;" x1="27" x2="27" y1="83.6211" y2="917.8184"/><line style="stroke:#181818;stroke-width:0.5;stroke-dasharray:5.0,5.0;" x1="359.644" x2="359.644" y1="83.6211" y2="917.8184"/><line style="stroke:#181818;stroke-width:0.5;stroke-dasharray:5.0,5.0;" x1="658.209" x2="658.209" y1="156.7227" y2="917.8184"/><line style="stroke:#181818;stroke-width:0.5;stroke-dasharray:5.0,5.0;" x1="940.7515" x2="940.7515" y1="83.6211" y2="917.8184"/><text fill="#000000" font-family="sans-serif" font-size="14" lengthAdjust="spacing" textLength="39.6826" x="5" y="80.1074">Player</text><ellipse cx="27.8413" cy="13.5" fill="#E3E3E3" rx="8" ry="8" style="stroke:#181818;stroke-width:0.5;"/><path d="M27.8413,21.5 L27.8413,48.5 M14.8413,29.5 L40.8413,29.5 M27.8413,48.5 L14.8413,63.5 M27.8413,48.5 L40.8413,63.5 " fill="none" style="stroke:#181818;stroke-width:0.5;"/><text fill="#000000" font-family="sans-serif" font-size="14" lengthAdjust="spacing" textLength="39.6826" x="5" y="931.9258">Player</text><ellipse cx="27.8413" cy="943.9395" fill="#E3E3E3" rx="8" ry="8" style="stroke:#181818;stroke-width:0.5;"/><path d="M27.8413,951.9395 L27.8413,978.9395 M14.8413,959.9395 L40.8413,959.9395 M27.8413,978.9395 L14.8413,993.9395 M27.8413,978.9395 L40.8413,993.9395 " fill="none" style="stroke:#181818;stroke-width:0.5;"/><rect fill="#E3E3E3" height="32.6211" rx="2.5" ry="2.5" style="stroke:#181818;stroke-width:0.5;" width="106.6064" x="306.644" y="50"/><text fill="#000000" font-family="sans-serif" font-size="14" lengthAdjust="spacing" textLength="92.6064" x="313.644" y="72.1074">:BuildStationUI</text><rect fill="#E3E3E3" height="32.6211" rx="2.5" ry="2.5" style="stroke:#181818;stroke-width:0.5;" width="106.6064" x="306.644" y="916.8184"/><text fill="#000000" font-family="sans-serif" font-size="14" lengthAdjust="spacing" textLength="92.6064" x="313.644" y="938.9258">:BuildStationUI</text><rect fill="#E3E3E3" height="32.6211" rx="2.5" ry="2.5" style="stroke:#181818;stroke-width:0.5;" width="153.2959" x="582.209" y="916.8184"/><text fill="#000000" font-family="sans-serif" font-size="14" lengthAdjust="spacing" textLength="139.2959" x="589.209" y="938.9258">:BuildStationController</text><rect fill="#E3E3E3" height="51.2422" rx="2.5" ry="2.5" style="stroke:#181818;stroke-width:0.5;" width="84.8066" x="898.7515" y="31.3789"/><text fill="#000000" font-family="sans-serif" font-size="14" lengthAdjust="spacing" textLength="70.8066" x="905.7515" y="53.4863">currentMap</text><text fill="#000000" font-family="sans-serif" font-size="14" lengthAdjust="spacing" textLength="31.124" x="925.5928" y="72.1074">:Map</text><rect fill="#E3E3E3" height="51.2422" rx="2.5" ry="2.5" style="stroke:#181818;stroke-width:0.5;" width="84.8066" x="898.7515" y="916.8184"/><text fill="#000000" font-family="sans-serif" font-size="14" lengthAdjust="spacing" textLength="70.8066" x="905.7515" y="938.9258">currentMap</text><text fill="#000000" font-family="sans-serif" font-size="14" lengthAdjust="spacing" textLength="31.124" x="925.5928" y="957.5469">:Map</text><rect fill="#FFFFFF" height="806.1973" style="stroke:#181818;stroke-width:1.0;" width="10" x="22.8413" y="93.6211"/><rect fill="#FFFFFF" height="137.4941" style="stroke:#181818;stroke-width:1.0;" width="10" x="354.9473" y="116.9121"/><rect fill="#FFFFFF" height="142.125" style="stroke:#181818;stroke-width:1.0;" width="10" x="354.9473" y="285.6973"/><rect fill="#FFFFFF" height="267.2891" style="stroke:#181818;stroke-width:1.0;" width="10" x="354.9473" y="459.1133"/><rect fill="#FFFFFF" height="142.125" style="stroke:#181818;stroke-width:1.0;" width="10" x="354.9473" y="757.6934"/><rect fill="#FFFFFF" height="31.291" style="stroke:#181818;stroke-width:1.0;" width="10" x="653.8569" y="191.8242"/><rect fill="#FFFFFF" height="79.543" style="stroke:#181818;stroke-width:1.0;" width="10" x="653.8569" y="316.9883"/><rect fill="#FFFFFF" height="93.873" style="stroke:#181818;stroke-width:1.0;" width="10" x="653.8569" y="490.4043"/><rect fill="#FFFFFF" height="79.543" style="stroke:#181818;stroke-width:1.0;" width="10" x="653.8569" y="615.5684"/><rect fill="#FFFFFF" height="79.543" style="stroke:#181818;stroke-width:1.0;" width="10" x="653.8569" y="788.9844"/><rect fill="#FFFFFF" height="31.291" style="stroke:#181818;stroke-width:1.0;" width="10" x="936.1548" y="521.6953"/><polygon fill="#181818" points="342.9473,112.9121,352.9473,116.9121,342.9473,120.9121,346.9473,116.9121" style="stroke:#181818;stroke-width:1.0;"/><line style="stroke:#181818;stroke-width:1.0;" x1="32.8413" x2="348.9473" y1="116.9121" y2="116.9121"/><text fill="#000000" font-family="sans-serif" font-size="13" font-weight="bold" lengthAdjust="spacing" textLength="7.23" x="39.8413" y="111.6494">1</text><text fill="#000000" font-family="sans-serif" font-size="13" lengthAdjust="spacing" textLength="125.0171" x="51.0713" y="111.6494">asks to build a station</text><polygon fill="#181818" points="570.209,144.2031,580.209,148.2031,570.209,152.2031,574.209,148.2031" style="stroke:#181818;stroke-width:1.0;"/><line style="stroke:#181818;stroke-width:1.0;stroke-dasharray:2.0,2.0;" x1="364.9473" x2="576.209" y1="148.2031" y2="148.2031"/><text fill="#000000" font-family="sans-serif" font-size="13" font-weight="bold" lengthAdjust="spacing" textLength="7.23" x="371.9473" y="142.9404">2</text><text fill="#000000" font-family="sans-serif" font-size="13" lengthAdjust="spacing" textLength="44.7891" x="383.1772" y="142.9404">create()</text><rect fill="#E3E3E3" height="32.6211" rx="2.5" ry="2.5" style="stroke:#181818;stroke-width:0.5;" width="153.2959" x="582.209" y="124.9121"/><text fill="#000000" font-family="sans-serif" font-size="14" lengthAdjust="spacing" textLength="139.2959" x="589.209" y="147.0195">:BuildStationController</text><polygon fill="#181818" points="641.8569,187.8242,651.8569,191.8242,641.8569,195.8242,645.8569,191.8242" style="stroke:#181818;stroke-width:1.0;"/><line style="stroke:#181818;stroke-width:1.0;" x1="364.9473" x2="647.8569" y1="191.8242" y2="191.8242"/><text fill="#000000" font-family="sans-serif" font-size="13" font-weight="bold" lengthAdjust="spacing" textLength="7.23" x="371.9473" y="186.5615">3</text><text fill="#000000" font-family="sans-serif" font-size="13" lengthAdjust="spacing" textLength="102.6035" x="383.1772" y="186.5615">getStationTypes()</text><polygon fill="#181818" points="375.9473,219.1152,365.9473,223.1152,375.9473,227.1152,371.9473,223.1152" style="stroke:#181818;stroke-width:1.0;"/><line style="stroke:#181818;stroke-width:1.0;stroke-dasharray:2.0,2.0;" x1="369.9473" x2="657.8569" y1="223.1152" y2="223.1152"/><text fill="#000000" font-family="sans-serif" font-size="13" font-weight="bold" lengthAdjust="spacing" textLength="7.23" x="381.9473" y="217.8525">4</text><text fill="#000000" font-family="sans-serif" font-size="13" lengthAdjust="spacing" textLength="217.4897" x="393.1772" y="217.8525">stationTypes (depot, station, terminal)</text><polygon fill="#181818" points="43.8413,250.4063,33.8413,254.4063,43.8413,258.4063,39.8413,254.4063" style="stroke:#181818;stroke-width:1.0;"/><line style="stroke:#181818;stroke-width:1.0;stroke-dasharray:2.0,2.0;" x1="37.8413" x2="358.9473" y1="254.4063" y2="254.4063"/><text fill="#000000" font-family="sans-serif" font-size="13" font-weight="bold" lengthAdjust="spacing" textLength="7.23" x="49.8413" y="249.1436">5</text><text fill="#000000" font-family="sans-serif" font-size="13" lengthAdjust="spacing" textLength="246.416" x="61.0713" y="249.1436">shows station types and asks to select one</text><polygon fill="#181818" points="342.9473,281.6973,352.9473,285.6973,342.9473,289.6973,346.9473,285.6973" style="stroke:#181818;stroke-width:1.0;"/><line style="stroke:#181818;stroke-width:1.0;" x1="32.8413" x2="348.9473" y1="285.6973" y2="285.6973"/><text fill="#000000" font-family="sans-serif" font-size="13" font-weight="bold" lengthAdjust="spacing" textLength="7.23" x="39.8413" y="280.4346">6</text><text fill="#000000" font-family="sans-serif" font-size="13" lengthAdjust="spacing" textLength="121.3989" x="51.0713" y="280.4346">selects a station type</text><polygon fill="#181818" points="641.8569,312.9883,651.8569,316.9883,641.8569,320.9883,645.8569,316.9883" style="stroke:#181818;stroke-width:1.0;"/><line style="stroke:#181818;stroke-width:1.0;" x1="364.9473" x2="647.8569" y1="316.9883" y2="316.9883"/><text fill="#000000" font-family="sans-serif" font-size="13" font-weight="bold" lengthAdjust="spacing" textLength="7.23" x="371.9473" y="311.7256">7</text><text fill="#000000" font-family="sans-serif" font-size="13" lengthAdjust="spacing" textLength="95.3672" x="383.1772" y="311.7256">getCurrentMap()</text><rect fill="none" height="43.252" style="stroke:#000000;stroke-width:1.5;" width="159.2959" x="579.209" y="324.9883"/><path d="M579.209,324.9883 L640.209,324.9883 L640.209,333.9883 L630.209,343.9883 L579.209,343.9883 L579.209,324.9883 " fill="#EEEEEE" style="stroke:#000000;stroke-width:2.0;"/><text fill="#000000" font-family="sans-serif" font-size="13" font-weight="bold" lengthAdjust="spacing" textLength="16.6182" x="592.209" y="341.0166">ref</text><text fill="#000000" font-family="sans-serif" font-size="12" lengthAdjust="spacing" textLength="89.3672" x="614.1733" y="360.9375">Get Current Map</text><polygon fill="#181818" points="375.9473,392.5313,365.9473,396.5313,375.9473,400.5313,371.9473,396.5313" style="stroke:#181818;stroke-width:1.0;"/><line style="stroke:#181818;stroke-width:1.0;stroke-dasharray:2.0,2.0;" x1="369.9473" x2="657.8569" y1="396.5313" y2="396.5313"/><text fill="#000000" font-family="sans-serif" font-size="13" font-weight="bold" lengthAdjust="spacing" textLength="7.23" x="381.9473" y="391.2686">8</text><text fill="#000000" font-family="sans-serif" font-size="13" lengthAdjust="spacing" textLength="65.749" x="393.1772" y="391.2686">currentMap</text><polygon fill="#181818" points="43.8413,423.8223,33.8413,427.8223,43.8413,431.8223,39.8413,427.8223" style="stroke:#181818;stroke-width:1.0;"/><line style="stroke:#181818;stroke-width:1.0;stroke-dasharray:2.0,2.0;" x1="37.8413" x2="358.9473" y1="427.8223" y2="427.8223"/><text fill="#000000" font-family="sans-serif" font-size="13" font-weight="bold" lengthAdjust="spacing" textLength="7.23" x="49.8413" y="422.5596">9</text><text fill="#000000" font-family="sans-serif" font-size="13" lengthAdjust="spacing" textLength="202.3252" x="61.0713" y="422.5596">requests position (X,Y coordinates)</text><polygon fill="#181818" points="342.9473,455.1133,352.9473,459.1133,342.9473,463.1133,346.9473,459.1133" style="stroke:#181818;stroke-width:1.0;"/><line style="stroke:#181818;stroke-width:1.0;" x1="32.8413" x2="348.9473" y1="459.1133" y2="459.1133"/><text fill="#000000" font-family="sans-serif" font-size="13" font-weight="bold" lengthAdjust="spacing" textLength="14.46" x="39.8413" y="453.8506">10</text><text fill="#000000" font-family="sans-serif" font-size="13" lengthAdjust="spacing" textLength="116.3335" x="58.3013" y="453.8506">inputs position (X,Y)</text><polygon fill="#181818" points="641.8569,486.4043,651.8569,490.4043,641.8569,494.4043,645.8569,490.4043" style="stroke:#181818;stroke-width:1.0;"/><line style="stroke:#181818;stroke-width:1.0;" x1="364.9473" x2="647.8569" y1="490.4043" y2="490.4043"/><text fill="#000000" font-family="sans-serif" font-size="13" font-weight="bold" lengthAdjust="spacing" textLength="14.46" x="371.9473" y="485.1416">11</text><text fill="#000000" font-family="sans-serif" font-size="13" lengthAdjust="spacing" textLength="194.3652" x="390.4072" y="485.1416">validatePosition(x, y, stationType)</text><polygon fill="#181818" points="924.1548,517.6953,934.1548,521.6953,924.1548,525.6953,928.1548,521.6953" style="stroke:#181818;stroke-width:1.0;"/><line style="stroke:#181818;stroke-width:1.0;" x1="663.8569" x2="930.1548" y1="521.6953" y2="521.6953"/><text fill="#000000" font-family="sans-serif" font-size="13" font-weight="bold" lengthAdjust="spacing" textLength="14.46" x="670.8569" y="516.4326">12</text><text fill="#000000" font-family="sans-serif" font-size="13" lengthAdjust="spacing" textLength="234.8379" x="689.3169" y="516.4326">validateStationPosition(x, y, stationType)</text><polygon fill="#181818" points="674.8569,548.9863,664.8569,552.9863,674.8569,556.9863,670.8569,552.9863" style="stroke:#181818;stroke-width:1.0;"/><line style="stroke:#181818;stroke-width:1.0;stroke-dasharray:2.0,2.0;" x1="668.8569" x2="940.1548" y1="552.9863" y2="552.9863"/><text fill="#000000" font-family="sans-serif" font-size="13" font-weight="bold" lengthAdjust="spacing" textLength="14.46" x="680.8569" y="547.7236">13</text><text fill="#000000" font-family="sans-serif" font-size="13" lengthAdjust="spacing" textLength="96.8335" x="699.3169" y="547.7236">isValid (boolean)</text><polygon fill="#181818" points="375.9473,580.2773,365.9473,584.2773,375.9473,588.2773,371.9473,584.2773" style="stroke:#181818;stroke-width:1.0;"/><line style="stroke:#181818;stroke-width:1.0;stroke-dasharray:2.0,2.0;" x1="369.9473" x2="657.8569" y1="584.2773" y2="584.2773"/><text fill="#000000" font-family="sans-serif" font-size="13" font-weight="bold" lengthAdjust="spacing" textLength="14.46" x="381.9473" y="579.0146">14</text><text fill="#000000" font-family="sans-serif" font-size="13" lengthAdjust="spacing" textLength="38.2954" x="400.4072" y="579.0146">isValid</text><polygon fill="#181818" points="641.8569,611.5684,651.8569,615.5684,641.8569,619.5684,645.8569,615.5684" style="stroke:#181818;stroke-width:1.0;"/><line style="stroke:#181818;stroke-width:1.0;" x1="364.9473" x2="647.8569" y1="615.5684" y2="615.5684"/><text fill="#000000" font-family="sans-serif" font-size="13" font-weight="bold" lengthAdjust="spacing" textLength="14.46" x="371.9473" y="610.3057">15</text><text fill="#000000" font-family="sans-serif" font-size="13" lengthAdjust="spacing" textLength="155.3525" x="390.4072" y="610.3057">generateStationName(x, y)</text><rect fill="none" height="43.252" style="stroke:#000000;stroke-width:1.5;" width="159.2959" x="579.209" y="623.5684"/><path d="M579.209,623.5684 L640.209,623.5684 L640.209,632.5684 L630.209,642.5684 L579.209,642.5684 L579.209,623.5684 " fill="#EEEEEE" style="stroke:#000000;stroke-width:2.0;"/><text fill="#000000" font-family="sans-serif" font-size="13" font-weight="bold" lengthAdjust="spacing" textLength="16.6182" x="592.209" y="639.5967">ref</text><text fill="#000000" font-family="sans-serif" font-size="12" lengthAdjust="spacing" textLength="126.0703" x="595.8218" y="659.5176">Generate Station Name</text><polygon fill="#181818" points="375.9473,691.1113,365.9473,695.1113,375.9473,699.1113,371.9473,695.1113" style="stroke:#181818;stroke-width:1.0;"/><line style="stroke:#181818;stroke-width:1.0;stroke-dasharray:2.0,2.0;" x1="369.9473" x2="657.8569" y1="695.1113" y2="695.1113"/><text fill="#000000" font-family="sans-serif" font-size="13" font-weight="bold" lengthAdjust="spacing" textLength="14.46" x="381.9473" y="689.8486">16</text><text fill="#000000" font-family="sans-serif" font-size="13" lengthAdjust="spacing" textLength="220.9302" x="400.4072" y="689.8486">proposedName (e.g. "Porto Terminal")</text><polygon fill="#181818" points="43.8413,722.4023,33.8413,726.4023,43.8413,730.4023,39.8413,726.4023" style="stroke:#181818;stroke-width:1.0;"/><line style="stroke:#181818;stroke-width:1.0;stroke-dasharray:2.0,2.0;" x1="37.8413" x2="358.9473" y1="726.4023" y2="726.4023"/><text fill="#000000" font-family="sans-serif" font-size="13" font-weight="bold" lengthAdjust="spacing" textLength="14.46" x="49.8413" y="721.1396">17</text><text fill="#000000" font-family="sans-serif" font-size="13" lengthAdjust="spacing" textLength="279.646" x="68.3013" y="721.1396">shows proposed name and asks for confirmation</text><polygon fill="#181818" points="342.9473,753.6934,352.9473,757.6934,342.9473,761.6934,346.9473,757.6934" style="stroke:#181818;stroke-width:1.0;"/><line style="stroke:#181818;stroke-width:1.0;" x1="32.8413" x2="348.9473" y1="757.6934" y2="757.6934"/><text fill="#000000" font-family="sans-serif" font-size="13" font-weight="bold" lengthAdjust="spacing" textLength="14.46" x="39.8413" y="752.4307">18</text><text fill="#000000" font-family="sans-serif" font-size="13" lengthAdjust="spacing" textLength="85.249" x="58.3013" y="752.4307">confirms name</text><polygon fill="#181818" points="641.8569,784.9844,651.8569,788.9844,641.8569,792.9844,645.8569,788.9844" style="stroke:#181818;stroke-width:1.0;"/><line style="stroke:#181818;stroke-width:1.0;" x1="364.9473" x2="647.8569" y1="788.9844" y2="788.9844"/><text fill="#000000" font-family="sans-serif" font-size="13" font-weight="bold" lengthAdjust="spacing" textLength="14.46" x="371.9473" y="783.7217">19</text><text fill="#000000" font-family="sans-serif" font-size="13" lengthAdjust="spacing" textLength="251.4497" x="390.4072" y="783.7217">buildStation(x, y, stationType, stationName)</text><rect fill="none" height="43.252" style="stroke:#000000;stroke-width:1.5;" width="159.2959" x="579.209" y="796.9844"/><path d="M579.209,796.9844 L640.209,796.9844 L640.209,805.9844 L630.209,815.9844 L579.209,815.9844 L579.209,796.9844 " fill="#EEEEEE" style="stroke:#000000;stroke-width:2.0;"/><text fill="#000000" font-family="sans-serif" font-size="13" font-weight="bold" lengthAdjust="spacing" textLength="16.6182" x="592.209" y="813.0127">ref</text><text fill="#000000" font-family="sans-serif" font-size="12" lengthAdjust="spacing" textLength="67.377" x="625.1685" y="832.9336">Build Station</text><polygon fill="#181818" points="375.9473,864.5273,365.9473,868.5273,375.9473,872.5273,371.9473,868.5273" style="stroke:#181818;stroke-width:1.0;"/><line style="stroke:#181818;stroke-width:1.0;stroke-dasharray:2.0,2.0;" x1="369.9473" x2="657.8569" y1="868.5273" y2="868.5273"/><text fill="#000000" font-family="sans-serif" font-size="13" font-weight="bold" lengthAdjust="spacing" textLength="14.46" x="381.9473" y="863.2646">20</text><text fill="#000000" font-family="sans-serif" font-size="13" lengthAdjust="spacing" textLength="38.3018" x="400.4072" y="863.2646">station</text><polygon fill="#181818" points="38.8413,895.8184,28.8413,899.8184,38.8413,903.8184,34.8413,899.8184" style="stroke:#181818;stroke-width:1.0;"/><line style="stroke:#181818;stroke-width:1.0;stroke-dasharray:2.0,2.0;" x1="32.8413" x2="358.9473" y1="899.8184" y2="899.8184"/><text fill="#000000" font-family="sans-serif" font-size="13" font-weight="bold" lengthAdjust="spacing" textLength="14.46" x="44.8413" y="894.5557">21</text><text fill="#000000" font-family="sans-serif" font-size="13" lengthAdjust="spacing" textLength="155.3589" x="63.3013" y="894.5557">displays operation success</text><!--SRC=[fLNRRk8m47ttLunusL11Fu27IjsggYgr5QAmsaehhKmoW4NYoTeEBN-_axiJ2fjg_O18CkVCpF7nsEwLJgMH2IIaATmPIX2SoL3OvaigmxtSugixnWW6GoVrDlO3x4v6zAxq5ZOojYY4p1pfB5cZ4UBRJaK86oAtfWyXGqS6HlDO7j6CG5gOFzs-tIy4CpaLgbHg1wFPzqp5qQkJJf5UFHPngySBCNUadQ4uhZZlbekdRdIO6OFQFSlqbvxnRncsMYpkNvQ_ds_d8gzC7QJ3kY01lCh_CBtXz31ZpDw28rZdgK62BRCNeGsU2uLgCMZAsBoSgol6XmOv8XYBJaGPm9-twAf-biSKBSVLOGrvqHbugu1EwmAj1uSWmfJSf7uv0OScKLh6BM-4NUP-vLN_JBoZTripWIlufOuQHIp6R0mWZQB7ot9y9cK9iAs81Ub59NsTxfhzz5Gok04we3bLwG4TL11WJFCDkGL6YIyBtVhfwreQ_9EXvTvJigfeFVWvUOEGo4IyFGxjUA28V02pFizuc8O76Qk80-OLDlYOm77Y6sYu-sxya-HnLsOUagARnZkNq5j-fcdRZh8_ygGGh8bYbBhBx6-DV-RFxs_5z-_DxN3qNAhHj2gyo0GB1RgbdVTiwTkI0oeIo5awKISElhnXfvscXjW_6ENC4E3rzfh7Cna-qyjgN8pEYzcHulpSg7E0pfCqSsF3Lq58UgDCqivH6EZz2cWBpc6UNtitngaPcuTSYI53fRY0wftv_v5YUqI3vqcaRChtgGLASxFaDh5P6AArdqdfFPOCVm40]--></g></svg>