<svg xmlns="http://www.w3.org/2000/svg" xmlns:xlink="http://www.w3.org/1999/xlink" contentStyleType="text/css" height="541px" preserveAspectRatio="none" style="width:1131px;height:541px;background:#FFFFFF;" version="1.1" viewBox="0 0 1131 541" width="1131px" zoomAndPan="magnify"><defs/><g><rect fill="#FFFFFF" height="377.1523" style="stroke:#181818;stroke-width:1.0;" width="10" x="497.0049" y="90.5332"/><rect fill="#FFFFFF" height="31.291" style="stroke:#181818;stroke-width:1.0;" width="10" x="631.1802" y="148.1152"/><rect fill="#FFFFFF" height="31.291" style="stroke:#181818;stroke-width:1.0;" width="10" x="734.9385" y="210.6973"/><rect fill="#FFFFFF" height="31.291" style="stroke:#181818;stroke-width:1.0;" width="10" x="856.9863" y="335.5215"/><rect fill="#FFFFFF" height="31.291" style="stroke:#181818;stroke-width:1.0;" width="10" x="1056.3477" y="398.1035"/><rect fill="none" height="331.8613" style="stroke:#000000;stroke-width:1.5;" width="709.6802" x="415.3569" y="105.5332"/><line style="stroke:#181818;stroke-width:0.5;stroke-dasharray:5.0,5.0;" x1="501.3569" x2="501.3569" y1="57.2422" y2="485.6855"/><line style="stroke:#181818;stroke-width:0.5;stroke-dasharray:5.0,5.0;" x1="635.2734" x2="635.2734" y1="57.2422" y2="485.6855"/><line style="stroke:#181818;stroke-width:0.5;stroke-dasharray:5.0,5.0;" x1="739.0869" x2="739.0869" y1="57.2422" y2="485.6855"/><line style="stroke:#181818;stroke-width:0.5;stroke-dasharray:5.0,5.0;" x1="861.79" x2="861.79" y1="57.2422" y2="485.6855"/><line style="stroke:#181818;stroke-width:0.5;stroke-dasharray:5.0,5.0;" x1="966.1826" x2="966.1826" y1="291.1094" y2="485.6855"/><line style="stroke:#181818;stroke-width:0.5;stroke-dasharray:5.0,5.0;" x1="1060.6582" x2="1060.6582" y1="57.2422" y2="485.6855"/><rect fill="#E3E3E3" height="32.6211" rx="2.5" ry="2.5" style="stroke:#181818;stroke-width:0.5;" width="153.2959" x="425.3569" y="23.6211"/><text fill="#000000" font-family="sans-serif" font-size="14" lengthAdjust="spacing" textLength="139.2959" x="432.3569" y="45.7285">:BuildStationController</text><rect fill="#E3E3E3" height="32.6211" rx="2.5" ry="2.5" style="stroke:#181818;stroke-width:0.5;" width="153.2959" x="425.3569" y="484.6855"/><text fill="#000000" font-family="sans-serif" font-size="14" lengthAdjust="spacing" textLength="139.2959" x="432.3569" y="506.793">:BuildStationController</text><rect fill="#E3E3E3" height="32.6211" rx="2.5" ry="2.5" style="stroke:#181818;stroke-width:0.5;" width="91.8135" x="590.2734" y="23.6211"/><text fill="#000000" font-family="sans-serif" font-size="14" lengthAdjust="spacing" textLength="77.8135" x="597.2734" y="45.7285">Repositories</text><rect fill="#E3E3E3" height="32.6211" rx="2.5" ry="2.5" style="stroke:#181818;stroke-width:0.5;" width="91.8135" x="590.2734" y="484.6855"/><text fill="#000000" font-family="sans-serif" font-size="14" lengthAdjust="spacing" textLength="77.8135" x="597.2734" y="506.793">Repositories</text><rect fill="#E3E3E3" height="51.2422" rx="2.5" ry="2.5" style="stroke:#181818;stroke-width:0.5;" width="95.7031" x="692.0869" y="5"/><text fill="#000000" font-family="sans-serif" font-size="14" lengthAdjust="spacing" textLength="72.3652" x="703.7559" y="27.1074">repositories</text><text fill="#000000" font-family="sans-serif" font-size="14" lengthAdjust="spacing" textLength="81.7031" x="699.0869" y="45.7285">:Repositories</text><rect fill="#E3E3E3" height="51.2422" rx="2.5" ry="2.5" style="stroke:#181818;stroke-width:0.5;" width="95.7031" x="692.0869" y="484.6855"/><text fill="#000000" font-family="sans-serif" font-size="14" lengthAdjust="spacing" textLength="72.3652" x="703.7559" y="506.793">repositories</text><text fill="#000000" font-family="sans-serif" font-size="14" lengthAdjust="spacing" textLength="81.7031" x="699.0869" y="525.4141">:Repositories</text><rect fill="#E3E3E3" height="51.2422" rx="2.5" ry="2.5" style="stroke:#181818;stroke-width:0.5;" width="128.3926" x="797.79" y="5"/><text fill="#000000" font-family="sans-serif" font-size="14" lengthAdjust="spacing" textLength="108.165" x="807.9038" y="27.1074">stationRepository</text><text fill="#000000" font-family="sans-serif" font-size="14" lengthAdjust="spacing" textLength="114.3926" x="804.79" y="45.7285">:StationRepository</text><rect fill="#E3E3E3" height="51.2422" rx="2.5" ry="2.5" style="stroke:#181818;stroke-width:0.5;" width="128.3926" x="797.79" y="484.6855"/><text fill="#000000" font-family="sans-serif" font-size="14" lengthAdjust="spacing" textLength="108.165" x="807.9038" y="506.793">stationRepository</text><text fill="#000000" font-family="sans-serif" font-size="14" lengthAdjust="spacing" textLength="114.3926" x="804.79" y="525.4141">:StationRepository</text><rect fill="#E3E3E3" height="51.2422" rx="2.5" ry="2.5" style="stroke:#181818;stroke-width:0.5;" width="61.4756" x="936.1826" y="484.6855"/><text fill="#000000" font-family="sans-serif" font-size="14" lengthAdjust="spacing" textLength="41.248" x="946.2964" y="506.793">station</text><text fill="#000000" font-family="sans-serif" font-size="14" lengthAdjust="spacing" textLength="47.4756" x="943.1826" y="525.4141">:Station</text><rect fill="#E3E3E3" height="51.2422" rx="2.5" ry="2.5" style="stroke:#181818;stroke-width:0.5;" width="107.3789" x="1007.6582" y="5"/><text fill="#000000" font-family="sans-serif" font-size="14" lengthAdjust="spacing" textLength="93.3789" x="1014.6582" y="27.1074">currentSession</text><text fill="#000000" font-family="sans-serif" font-size="14" lengthAdjust="spacing" textLength="83.2549" x="1019.7202" y="45.7285">:UserSession</text><rect fill="#E3E3E3" height="51.2422" rx="2.5" ry="2.5" style="stroke:#181818;stroke-width:0.5;" width="107.3789" x="1007.6582" y="484.6855"/><text fill="#000000" font-family="sans-serif" font-size="14" lengthAdjust="spacing" textLength="93.3789" x="1014.6582" y="506.793">currentSession</text><text fill="#000000" font-family="sans-serif" font-size="14" lengthAdjust="spacing" textLength="83.2549" x="1019.7202" y="525.4141">:UserSession</text><rect fill="#FFFFFF" height="377.1523" style="stroke:#181818;stroke-width:1.0;" width="10" x="497.0049" y="90.5332"/><rect fill="#FFFFFF" height="31.291" style="stroke:#181818;stroke-width:1.0;" width="10" x="631.1802" y="148.1152"/><rect fill="#FFFFFF" height="31.291" style="stroke:#181818;stroke-width:1.0;" width="10" x="734.9385" y="210.6973"/><rect fill="#FFFFFF" height="31.291" style="stroke:#181818;stroke-width:1.0;" width="10" x="856.9863" y="335.5215"/><rect fill="#FFFFFF" height="31.291" style="stroke:#181818;stroke-width:1.0;" width="10" x="1056.3477" y="398.1035"/><polygon fill="#181818" points="485.0049,86.5332,495.0049,90.5332,485.0049,94.5332,489.0049,90.5332" style="stroke:#181818;stroke-width:1.0;"/><line style="stroke:#181818;stroke-width:1.0;" x1="0" x2="491.0049" y1="90.5332" y2="90.5332"/><text fill="#000000" font-family="sans-serif" font-size="13" font-weight="bold" lengthAdjust="spacing" textLength="14.46" x="7" y="85.2705">20</text><text fill="#000000" font-family="sans-serif" font-size="13" lengthAdjust="spacing" textLength="459.5449" x="25.46" y="85.2705">createAndSaveStation(x, y, stationName, stationType, cost, player, currentMap)</text><path d="M415.3569,105.5332 L548.4878,105.5332 L548.4878,114.8242 L538.4878,124.8242 L415.3569,124.8242 L415.3569,105.5332 " fill="#EEEEEE" style="stroke:#000000;stroke-width:1.5;"/><rect fill="none" height="331.8613" style="stroke:#000000;stroke-width:1.5;" width="709.6802" x="415.3569" y="105.5332"/><text fill="#000000" font-family="sans-serif" font-size="13" font-weight="bold" lengthAdjust="spacing" textLength="88.1309" x="430.3569" y="120.5615">Create Station</text><polygon fill="#181818" points="619.1802,144.1152,629.1802,148.1152,619.1802,152.1152,623.1802,148.1152" style="stroke:#181818;stroke-width:1.0;"/><line style="stroke:#181818;stroke-width:1.0;" x1="507.0049" x2="625.1802" y1="148.1152" y2="148.1152"/><text fill="#000000" font-family="sans-serif" font-size="13" font-weight="bold" lengthAdjust="spacing" textLength="25.3018" x="514.0049" y="142.8525">20.1</text><text fill="#000000" font-family="sans-serif" font-size="13" lengthAdjust="spacing" textLength="75.8735" x="543.3066" y="142.8525">getInstance()</text><polygon fill="#181818" points="518.0049,175.4063,508.0049,179.4063,518.0049,183.4063,514.0049,179.4063" style="stroke:#181818;stroke-width:1.0;"/><line style="stroke:#181818;stroke-width:1.0;stroke-dasharray:2.0,2.0;" x1="512.0049" x2="635.1802" y1="179.4063" y2="179.4063"/><text fill="#000000" font-family="sans-serif" font-size="13" font-weight="bold" lengthAdjust="spacing" textLength="25.3018" x="524.0049" y="174.1436">20.2</text><text fill="#000000" font-family="sans-serif" font-size="13" lengthAdjust="spacing" textLength="67.1963" x="553.3066" y="174.1436">repositories</text><polygon fill="#181818" points="722.9385,206.6973,732.9385,210.6973,722.9385,214.6973,726.9385,210.6973" style="stroke:#181818;stroke-width:1.0;"/><line style="stroke:#181818;stroke-width:1.0;" x1="507.0049" x2="728.9385" y1="210.6973" y2="210.6973"/><text fill="#000000" font-family="sans-serif" font-size="13" font-weight="bold" lengthAdjust="spacing" textLength="25.3018" x="514.0049" y="205.4346">20.3</text><text fill="#000000" font-family="sans-serif" font-size="13" lengthAdjust="spacing" textLength="129.3398" x="543.3066" y="205.4346">getStationRepository()</text><polygon fill="#181818" points="518.0049,237.9883,508.0049,241.9883,518.0049,245.9883,514.0049,241.9883" style="stroke:#181818;stroke-width:1.0;"/><line style="stroke:#181818;stroke-width:1.0;stroke-dasharray:2.0,2.0;" x1="512.0049" x2="738.9385" y1="241.9883" y2="241.9883"/><text fill="#000000" font-family="sans-serif" font-size="13" font-weight="bold" lengthAdjust="spacing" textLength="25.3018" x="524.0049" y="236.7256">20.4</text><text fill="#000000" font-family="sans-serif" font-size="13" lengthAdjust="spacing" textLength="100.439" x="553.3066" y="236.7256">stationRepository</text><polygon fill="#181818" points="924.1826,269.2793,934.1826,273.2793,924.1826,277.2793,928.1826,273.2793" style="stroke:#181818;stroke-width:1.0;"/><line style="stroke:#181818;stroke-width:1.0;stroke-dasharray:2.0,2.0;" x1="507.0049" x2="930.1826" y1="273.2793" y2="273.2793"/><text fill="#000000" font-family="sans-serif" font-size="13" font-weight="bold" lengthAdjust="spacing" textLength="25.3018" x="514.0049" y="268.0166">20.5</text><text fill="#000000" font-family="sans-serif" font-size="13" lengthAdjust="spacing" textLength="292.6143" x="543.3066" y="268.0166">create(x, y, stationName, stationType, currentMap)</text><rect fill="#E3E3E3" height="51.2422" rx="2.5" ry="2.5" style="stroke:#181818;stroke-width:0.5;" width="61.4756" x="936.1826" y="249.9883"/><text fill="#000000" font-family="sans-serif" font-size="14" lengthAdjust="spacing" textLength="41.248" x="946.2964" y="272.0957">station</text><text fill="#000000" font-family="sans-serif" font-size="14" lengthAdjust="spacing" textLength="47.4756" x="943.1826" y="290.7168">:Station</text><polygon fill="#181818" points="844.9863,331.5215,854.9863,335.5215,844.9863,339.5215,848.9863,335.5215" style="stroke:#181818;stroke-width:1.0;"/><line style="stroke:#181818;stroke-width:1.0;" x1="507.0049" x2="850.9863" y1="335.5215" y2="335.5215"/><text fill="#000000" font-family="sans-serif" font-size="13" font-weight="bold" lengthAdjust="spacing" textLength="25.3018" x="514.0049" y="330.2588">20.6</text><text fill="#000000" font-family="sans-serif" font-size="13" lengthAdjust="spacing" textLength="109.1226" x="543.3066" y="330.2588">addStation(station)</text><polygon fill="#181818" points="518.0049,362.8125,508.0049,366.8125,518.0049,370.8125,514.0049,366.8125" style="stroke:#181818;stroke-width:1.0;"/><line style="stroke:#181818;stroke-width:1.0;stroke-dasharray:2.0,2.0;" x1="512.0049" x2="860.9863" y1="366.8125" y2="366.8125"/><text fill="#000000" font-family="sans-serif" font-size="13" font-weight="bold" lengthAdjust="spacing" textLength="25.3018" x="524.0049" y="361.5498">20.7</text><text fill="#000000" font-family="sans-serif" font-size="13" lengthAdjust="spacing" textLength="46.96" x="553.3066" y="361.5498">success</text><polygon fill="#181818" points="1044.3477,394.1035,1054.3477,398.1035,1044.3477,402.1035,1048.3477,398.1035" style="stroke:#181818;stroke-width:1.0;"/><line style="stroke:#181818;stroke-width:1.0;" x1="507.0049" x2="1050.3477" y1="398.1035" y2="398.1035"/><text fill="#000000" font-family="sans-serif" font-size="13" font-weight="bold" lengthAdjust="spacing" textLength="25.3018" x="514.0049" y="392.8408">20.8</text><text fill="#000000" font-family="sans-serif" font-size="13" lengthAdjust="spacing" textLength="117.7935" x="543.3066" y="392.8408">updateBudget(-cost)</text><polygon fill="#181818" points="518.0049,425.3945,508.0049,429.3945,518.0049,433.3945,514.0049,429.3945" style="stroke:#181818;stroke-width:1.0;"/><line style="stroke:#181818;stroke-width:1.0;stroke-dasharray:2.0,2.0;" x1="512.0049" x2="1060.3477" y1="429.3945" y2="429.3945"/><text fill="#000000" font-family="sans-serif" font-size="13" font-weight="bold" lengthAdjust="spacing" textLength="25.3018" x="524.0049" y="424.1318">20.9</text><text fill="#000000" font-family="sans-serif" font-size="13" lengthAdjust="spacing" textLength="65.0508" x="553.3066" y="424.1318">newBudget</text><polygon fill="#181818" points="11,463.6855,1,467.6855,11,471.6855,7,467.6855" style="stroke:#181818;stroke-width:1.0;"/><line style="stroke:#181818;stroke-width:1.0;stroke-dasharray:2.0,2.0;" x1="5" x2="501.0049" y1="467.6855" y2="467.6855"/><text fill="#000000" font-family="sans-serif" font-size="13" font-weight="bold" lengthAdjust="spacing" textLength="14.46" x="17" y="462.4229">21</text><text fill="#000000" font-family="sans-serif" font-size="13" lengthAdjust="spacing" textLength="38.3018" x="35.46" y="462.4229">station</text><!--SRC=[XPDDQzmm48Rl_XKYfqrOXwR7fHIIPGaBgRTOpgsmJEIf8s9BHXz9_UyhIwvN_WZLnKYUUURLl2FznaKB2XhII27Pgv8D4gCi9dhyqm9xWmgfwMea2fa1KTLnW7w5KdvmKP7VK6jC4dTiEECj24EkTW-MroKrOBWKUocCadMDweg09liYVvf6vzXApOrK7BKFoGy_JtGQewAONsAtddAcn-pnwL2Sicco3aB6fCuHwFpCOsXnNnnFsRd7hJ8kcN7yD9HPfL0OYbg7Z6UDQjY55Zpd-I4hplH0QP-TW3LIsEO55Vdw9Kc_-oQH7M4AmU2zA2cyur1tysTBkYqPz6JGuBWfkjPjcDHcIzeQEbHk5yJyWFPwMkRsBW5c-Bih43mXRbLAsfRiVLao5FG_-kL5EN6-rqvTXUOeN6d1S7CzHetGu2A9LaXCB_UBNHqZIvmXrWLSp0vI5eP-gYaQauMwY1hfN0pGfs8ZzaosemtJSdCpMlj_CoFx5ds8fzKXeVptv3O3OwK3amcFhp-1nNUtZBdPNRlnXBLGDvjoXx9jwT8UREdisgJzdAu8d3-EMECS6SaK-170QqBNc2XA_uqVnPq_-PQcC-EJcDM_bRy0]--></g></svg>