<svg xmlns="http://www.w3.org/2000/svg" xmlns:xlink="http://www.w3.org/1999/xlink" contentStyleType="text/css" height="417px" preserveAspectRatio="none" style="width:684px;height:417px;background:#FFFFFF;" version="1.1" viewBox="0 0 684 417" width="684px" zoomAndPan="magnify"><defs/><g><rect fill="#FFFFFF" height="252.3281" style="stroke:#181818;stroke-width:1.0;" width="10" x="181.2344" y="90.5332"/><rect fill="#FFFFFF" height="31.291" style="stroke:#181818;stroke-width:1.0;" width="10" x="334.0303" y="148.1152"/><rect fill="#FFFFFF" height="31.291" style="stroke:#181818;stroke-width:1.0;" width="10" x="478.271" y="210.6973"/><rect fill="#FFFFFF" height="31.291" style="stroke:#181818;stroke-width:1.0;" width="10" x="610.0532" y="273.2793"/><rect fill="none" height="207.0371" style="stroke:#000000;stroke-width:1.5;" width="579.1563" x="99.5864" y="105.5332"/><line style="stroke:#181818;stroke-width:0.5;stroke-dasharray:5.0,5.0;" x1="185.5864" x2="185.5864" y1="57.2422" y2="360.8613"/><line style="stroke:#181818;stroke-width:0.5;stroke-dasharray:5.0,5.0;" x1="338.8823" x2="338.8823" y1="57.2422" y2="360.8613"/><line style="stroke:#181818;stroke-width:0.5;stroke-dasharray:5.0,5.0;" x1="483.1782" x2="483.1782" y1="57.2422" y2="360.8613"/><line style="stroke:#181818;stroke-width:0.5;stroke-dasharray:5.0,5.0;" x1="614.3638" x2="614.3638" y1="57.2422" y2="360.8613"/><rect fill="#E3E3E3" height="32.6211" rx="2.5" ry="2.5" style="stroke:#181818;stroke-width:0.5;" width="153.2959" x="109.5864" y="23.6211"/><text fill="#000000" font-family="sans-serif" font-size="14" lengthAdjust="spacing" textLength="139.2959" x="116.5864" y="45.7285">:BuildStationController</text><rect fill="#E3E3E3" height="32.6211" rx="2.5" ry="2.5" style="stroke:#181818;stroke-width:0.5;" width="153.2959" x="109.5864" y="359.8613"/><text fill="#000000" font-family="sans-serif" font-size="14" lengthAdjust="spacing" textLength="139.2959" x="116.5864" y="381.9688">:BuildStationController</text><rect fill="#E3E3E3" height="32.6211" rx="2.5" ry="2.5" style="stroke:#181818;stroke-width:0.5;" width="132.2959" x="272.8823" y="23.6211"/><text fill="#000000" font-family="sans-serif" font-size="14" lengthAdjust="spacing" textLength="118.2959" x="279.8823" y="45.7285">ApplicationSession</text><rect fill="#E3E3E3" height="32.6211" rx="2.5" ry="2.5" style="stroke:#181818;stroke-width:0.5;" width="132.2959" x="272.8823" y="359.8613"/><text fill="#000000" font-family="sans-serif" font-size="14" lengthAdjust="spacing" textLength="118.2959" x="279.8823" y="381.9688">ApplicationSession</text><rect fill="#E3E3E3" height="51.2422" rx="2.5" ry="2.5" style="stroke:#181818;stroke-width:0.5;" width="136.1855" x="415.1782" y="5"/><text fill="#000000" font-family="sans-serif" font-size="14" lengthAdjust="spacing" textLength="73.165" x="446.6885" y="27.1074">appSession</text><text fill="#000000" font-family="sans-serif" font-size="14" lengthAdjust="spacing" textLength="122.1855" x="422.1782" y="45.7285">:ApplicationSession</text><rect fill="#E3E3E3" height="51.2422" rx="2.5" ry="2.5" style="stroke:#181818;stroke-width:0.5;" width="136.1855" x="415.1782" y="359.8613"/><text fill="#000000" font-family="sans-serif" font-size="14" lengthAdjust="spacing" textLength="73.165" x="446.6885" y="381.9688">appSession</text><text fill="#000000" font-family="sans-serif" font-size="14" lengthAdjust="spacing" textLength="122.1855" x="422.1782" y="400.5898">:ApplicationSession</text><rect fill="#E3E3E3" height="51.2422" rx="2.5" ry="2.5" style="stroke:#181818;stroke-width:0.5;" width="107.3789" x="561.3638" y="5"/><text fill="#000000" font-family="sans-serif" font-size="14" lengthAdjust="spacing" textLength="93.3789" x="568.3638" y="27.1074">currentSession</text><text fill="#000000" font-family="sans-serif" font-size="14" lengthAdjust="spacing" textLength="83.2549" x="573.4258" y="45.7285">:UserSession</text><rect fill="#E3E3E3" height="51.2422" rx="2.5" ry="2.5" style="stroke:#181818;stroke-width:0.5;" width="107.3789" x="561.3638" y="359.8613"/><text fill="#000000" font-family="sans-serif" font-size="14" lengthAdjust="spacing" textLength="93.3789" x="568.3638" y="381.9688">currentSession</text><text fill="#000000" font-family="sans-serif" font-size="14" lengthAdjust="spacing" textLength="83.2549" x="573.4258" y="400.5898">:UserSession</text><rect fill="#FFFFFF" height="252.3281" style="stroke:#181818;stroke-width:1.0;" width="10" x="181.2344" y="90.5332"/><rect fill="#FFFFFF" height="31.291" style="stroke:#181818;stroke-width:1.0;" width="10" x="334.0303" y="148.1152"/><rect fill="#FFFFFF" height="31.291" style="stroke:#181818;stroke-width:1.0;" width="10" x="478.271" y="210.6973"/><rect fill="#FFFFFF" height="31.291" style="stroke:#181818;stroke-width:1.0;" width="10" x="610.0532" y="273.2793"/><polygon fill="#181818" points="169.2344,86.5332,179.2344,90.5332,169.2344,94.5332,173.2344,90.5332" style="stroke:#181818;stroke-width:1.0;"/><line style="stroke:#181818;stroke-width:1.0;" x1="0" x2="175.2344" y1="90.5332" y2="90.5332"/><text fill="#000000" font-family="sans-serif" font-size="13" font-weight="bold" lengthAdjust="spacing" textLength="14.46" x="7" y="85.2705">18</text><text fill="#000000" font-family="sans-serif" font-size="13" lengthAdjust="spacing" textLength="143.7744" x="25.46" y="85.2705">getCurrentUserSession()</text><path d="M99.5864,105.5332 L252.2427,105.5332 L252.2427,114.8242 L242.2427,124.8242 L99.5864,124.8242 L99.5864,105.5332 " fill="#EEEEEE" style="stroke:#000000;stroke-width:1.5;"/><rect fill="none" height="207.0371" style="stroke:#000000;stroke-width:1.5;" width="579.1563" x="99.5864" y="105.5332"/><text fill="#000000" font-family="sans-serif" font-size="13" font-weight="bold" lengthAdjust="spacing" textLength="107.6563" x="114.5864" y="120.5615">Get User Session</text><polygon fill="#181818" points="322.0303,144.1152,332.0303,148.1152,322.0303,152.1152,326.0303,148.1152" style="stroke:#181818;stroke-width:1.0;"/><line style="stroke:#181818;stroke-width:1.0;" x1="191.2344" x2="328.0303" y1="148.1152" y2="148.1152"/><text fill="#000000" font-family="sans-serif" font-size="13" font-weight="bold" lengthAdjust="spacing" textLength="25.3018" x="198.2344" y="142.8525">18.1</text><text fill="#000000" font-family="sans-serif" font-size="13" lengthAdjust="spacing" textLength="75.8735" x="227.5361" y="142.8525">getInstance()</text><polygon fill="#181818" points="202.2344,175.4063,192.2344,179.4063,202.2344,183.4063,198.2344,179.4063" style="stroke:#181818;stroke-width:1.0;"/><line style="stroke:#181818;stroke-width:1.0;stroke-dasharray:2.0,2.0;" x1="196.2344" x2="338.0303" y1="179.4063" y2="179.4063"/><text fill="#000000" font-family="sans-serif" font-size="13" font-weight="bold" lengthAdjust="spacing" textLength="25.3018" x="208.2344" y="174.1436">18.2</text><text fill="#000000" font-family="sans-serif" font-size="13" lengthAdjust="spacing" textLength="67.939" x="237.5361" y="174.1436">appSession</text><polygon fill="#181818" points="466.271,206.6973,476.271,210.6973,466.271,214.6973,470.271,210.6973" style="stroke:#181818;stroke-width:1.0;"/><line style="stroke:#181818;stroke-width:1.0;" x1="191.2344" x2="472.271" y1="210.6973" y2="210.6973"/><text fill="#000000" font-family="sans-serif" font-size="13" font-weight="bold" lengthAdjust="spacing" textLength="25.3018" x="198.2344" y="205.4346">18.3</text><text fill="#000000" font-family="sans-serif" font-size="13" lengthAdjust="spacing" textLength="116.3271" x="227.5361" y="205.4346">getCurrentSession()</text><polygon fill="#181818" points="202.2344,237.9883,192.2344,241.9883,202.2344,245.9883,198.2344,241.9883" style="stroke:#181818;stroke-width:1.0;"/><line style="stroke:#181818;stroke-width:1.0;stroke-dasharray:2.0,2.0;" x1="196.2344" x2="482.271" y1="241.9883" y2="241.9883"/><text fill="#000000" font-family="sans-serif" font-size="13" font-weight="bold" lengthAdjust="spacing" textLength="25.3018" x="208.2344" y="236.7256">18.4</text><text fill="#000000" font-family="sans-serif" font-size="13" lengthAdjust="spacing" textLength="86.709" x="237.5361" y="236.7256">currentSession</text><polygon fill="#181818" points="598.0532,269.2793,608.0532,273.2793,598.0532,277.2793,602.0532,273.2793" style="stroke:#181818;stroke-width:1.0;"/><line style="stroke:#181818;stroke-width:1.0;" x1="191.2344" x2="604.0532" y1="273.2793" y2="273.2793"/><text fill="#000000" font-family="sans-serif" font-size="13" font-weight="bold" lengthAdjust="spacing" textLength="25.3018" x="198.2344" y="268.0166">18.5</text><text fill="#000000" font-family="sans-serif" font-size="13" lengthAdjust="spacing" textLength="63.5781" x="227.5361" y="268.0166">getPlayer()</text><polygon fill="#181818" points="202.2344,300.5703,192.2344,304.5703,202.2344,308.5703,198.2344,304.5703" style="stroke:#181818;stroke-width:1.0;"/><line style="stroke:#181818;stroke-width:1.0;stroke-dasharray:2.0,2.0;" x1="196.2344" x2="614.0532" y1="304.5703" y2="304.5703"/><text fill="#000000" font-family="sans-serif" font-size="13" font-weight="bold" lengthAdjust="spacing" textLength="25.3018" x="208.2344" y="299.3076">18.6</text><text fill="#000000" font-family="sans-serif" font-size="13" lengthAdjust="spacing" textLength="35.4072" x="237.5361" y="299.3076">player</text><polygon fill="#181818" points="11,338.8613,1,342.8613,11,346.8613,7,342.8613" style="stroke:#181818;stroke-width:1.0;"/><line style="stroke:#181818;stroke-width:1.0;stroke-dasharray:2.0,2.0;" x1="5" x2="185.2344" y1="342.8613" y2="342.8613"/><text fill="#000000" font-family="sans-serif" font-size="13" font-weight="bold" lengthAdjust="spacing" textLength="14.46" x="17" y="337.5986">19</text><text fill="#000000" font-family="sans-serif" font-size="13" lengthAdjust="spacing" textLength="35.4072" x="35.46" y="337.5986">player</text><!--SRC=[XP9TQy8m58Rl-oiENcqN7NYtoHYu8YA84wjt0ydIinfCav2a6_xxrTIrfrsdkGaaxtdEUpxSKIZ3B2kWq4hpWzK5WhSbHgxvCOmVMOwfFqa4YzmpbKigS0UMwM-XSlXaqc4KLSzUS66OyZ2Ql9P2PgbdNcYLQEMjbXBj29Y3PBjPTjLJOwJWGPkYSzKLXDFrUf_EqdJnjkhgcJ4NtRkQt0xUfulLV3dRzZ6yj1QLRr4xXvOoajrcCrjj6nCHAxrMPV615iQFKVmIQe49vEYJ6aOGT_TT_SCuOjoBB-QnxW5K9xUwD3173-T8k8I6h_C9_2eFgQPEjr2k6Wd7Aiclje7JlW4v51AtvjjkDkeC1s7NRBLDxlIZxSKrcsH2_nWcU6AzEy4RzacIFuNq9bsNi9RiX7R8UdyngEa-YjWr0JXaSmY8AWitNQAdyF8SnpqaHPrNwmS0]--></g></svg>