<svg xmlns="http://www.w3.org/2000/svg" xmlns:xlink="http://www.w3.org/1999/xlink" contentStyleType="text/css" height="1695px" preserveAspectRatio="none" style="width:1895px;height:1695px;background:#FFFFFF;" version="1.1" viewBox="0 0 1895 1695" width="1895px" zoomAndPan="magnify"><defs/><g><rect fill="#FFFFFF" height="1500.668" style="stroke:#181818;stroke-width:1.0;" width="10" x="22.8413" y="93.6211"/><rect fill="#FFFFFF" height="137.4941" style="stroke:#181818;stroke-width:1.0;" width="10" x="354.9473" y="116.9121"/><rect fill="#FFFFFF" height="281.6191" style="stroke:#181818;stroke-width:1.0;" width="10" x="354.9473" y="285.6973"/><rect fill="#FFFFFF" height="281.6191" style="stroke:#181818;stroke-width:1.0;" width="10" x="354.9473" y="598.6074"/><rect fill="#FFFFFF" height="682.7715" style="stroke:#181818;stroke-width:1.0;" width="10" x="354.9473" y="911.5176"/><rect fill="#FFFFFF" height="31.291" style="stroke:#181818;stroke-width:1.0;" width="10" x="653.8569" y="191.8242"/><rect fill="#FFFFFF" height="219.0371" style="stroke:#181818;stroke-width:1.0;" width="10" x="653.8569" y="316.9883"/><rect fill="#FFFFFF" height="93.873" style="stroke:#181818;stroke-width:1.0;" width="10" x="653.8569" y="629.8984"/><rect fill="#FFFFFF" height="93.873" style="stroke:#181818;stroke-width:1.0;" width="10" x="653.8569" y="755.0625"/><rect fill="#FFFFFF" height="620.1895" style="stroke:#181818;stroke-width:1.0;" width="10" x="653.8569" y="942.8086"/><rect fill="#FFFFFF" height="42.291" style="stroke:#181818;stroke-width:1.0;" width="10" x="658.8569" y="1169.8457"/><rect fill="#FFFFFF" height="31.291" style="stroke:#181818;stroke-width:1.0;" width="10" x="900.6885" y="348.2793"/><rect fill="#FFFFFF" height="31.291" style="stroke:#181818;stroke-width:1.0;" width="10" x="900.6885" y="1250.4277"/><rect fill="#FFFFFF" height="31.291" style="stroke:#181818;stroke-width:1.0;" width="10" x="1004.4468" y="410.8613"/><rect fill="#FFFFFF" height="31.291" style="stroke:#181818;stroke-width:1.0;" width="10" x="1004.4468" y="1313.0098"/><rect fill="#FFFFFF" height="31.291" style="stroke:#181818;stroke-width:1.0;" width="10" x="1118.3188" y="473.4434"/><rect fill="#FFFFFF" height="31.291" style="stroke:#181818;stroke-width:1.0;" width="10" x="1226.7427" y="661.1895"/><rect fill="#FFFFFF" height="31.291" style="stroke:#181818;stroke-width:1.0;" width="10" x="1226.7427" y="786.3535"/><rect fill="#FFFFFF" height="31.291" style="stroke:#181818;stroke-width:1.0;" width="10" x="1345.2939" y="974.0996"/><rect fill="#FFFFFF" height="31.291" style="stroke:#181818;stroke-width:1.0;" width="10" x="1489.5347" y="1036.6816"/><rect fill="#FFFFFF" height="31.291" style="stroke:#181818;stroke-width:1.0;" width="10" x="1621.3169" y="1099.2637"/><rect fill="#FFFFFF" height="31.291" style="stroke:#181818;stroke-width:1.0;" width="10" x="1621.3169" y="1500.416"/><rect fill="#FFFFFF" height="31.291" style="stroke:#181818;stroke-width:1.0;" width="10" x="1749.2026" y="1437.834"/><line style="stroke:#181818;stroke-width:0.5;stroke-dasharray:5.0,5.0;" x1="27" x2="27" y1="83.6211" y2="1612.2891"/><line style="stroke:#181818;stroke-width:0.5;stroke-dasharray:5.0,5.0;" x1="359.644" x2="359.644" y1="83.6211" y2="1612.2891"/><line style="stroke:#181818;stroke-width:0.5;stroke-dasharray:5.0,5.0;" x1="658.209" x2="658.209" y1="156.7227" y2="1612.2891"/><line style="stroke:#181818;stroke-width:0.5;stroke-dasharray:5.0,5.0;" x1="904.7817" x2="904.7817" y1="83.6211" y2="1612.2891"/><line style="stroke:#181818;stroke-width:0.5;stroke-dasharray:5.0,5.0;" x1="1008.5952" x2="1008.5952" y1="83.6211" y2="1612.2891"/><line style="stroke:#181818;stroke-width:0.5;stroke-dasharray:5.0,5.0;" x1="1123.2983" x2="1123.2983" y1="83.6211" y2="1612.2891"/><line style="stroke:#181818;stroke-width:0.5;stroke-dasharray:5.0,5.0;" x1="1231.3394" x2="1231.3394" y1="83.6211" y2="1612.2891"/><line style="stroke:#181818;stroke-width:0.5;stroke-dasharray:5.0,5.0;" x1="1350.146" x2="1350.146" y1="83.6211" y2="1612.2891"/><line style="stroke:#181818;stroke-width:0.5;stroke-dasharray:5.0,5.0;" x1="1494.4419" x2="1494.4419" y1="83.6211" y2="1612.2891"/><line style="stroke:#181818;stroke-width:0.5;stroke-dasharray:5.0,5.0;" x1="1625.6274" x2="1625.6274" y1="83.6211" y2="1612.2891"/><line style="stroke:#181818;stroke-width:0.5;stroke-dasharray:5.0,5.0;" x1="1754.0063" x2="1754.0063" y1="83.6211" y2="1612.2891"/><line style="stroke:#181818;stroke-width:0.5;stroke-dasharray:5.0,5.0;" x1="1858.3989" x2="1858.3989" y1="1393.4219" y2="1612.2891"/><text fill="#000000" font-family="sans-serif" font-size="14" lengthAdjust="spacing" textLength="39.6826" x="5" y="80.1074">Player</text><ellipse cx="27.8413" cy="13.5" fill="#E2E2F0" rx="8" ry="8" style="stroke:#181818;stroke-width:0.5;"/><path d="M27.8413,21.5 L27.8413,48.5 M14.8413,29.5 L40.8413,29.5 M27.8413,48.5 L14.8413,63.5 M27.8413,48.5 L40.8413,63.5 " fill="none" style="stroke:#181818;stroke-width:0.5;"/><text fill="#000000" font-family="sans-serif" font-size="14" lengthAdjust="spacing" textLength="39.6826" x="5" y="1626.3965">Player</text><ellipse cx="27.8413" cy="1638.4102" fill="#E2E2F0" rx="8" ry="8" style="stroke:#181818;stroke-width:0.5;"/><path d="M27.8413,1646.4102 L27.8413,1673.4102 M14.8413,1654.4102 L40.8413,1654.4102 M27.8413,1673.4102 L14.8413,1688.4102 M27.8413,1673.4102 L40.8413,1688.4102 " fill="none" style="stroke:#181818;stroke-width:0.5;"/><rect fill="#E2E2F0" height="32.6211" rx="2.5" ry="2.5" style="stroke:#181818;stroke-width:0.5;" width="106.6064" x="306.644" y="50"/><text fill="#000000" font-family="sans-serif" font-size="14" lengthAdjust="spacing" textLength="92.6064" x="313.644" y="72.1074">:BuildStationUI</text><rect fill="#E2E2F0" height="32.6211" rx="2.5" ry="2.5" style="stroke:#181818;stroke-width:0.5;" width="106.6064" x="306.644" y="1611.2891"/><text fill="#000000" font-family="sans-serif" font-size="14" lengthAdjust="spacing" textLength="92.6064" x="313.644" y="1633.3965">:BuildStationUI</text><rect fill="#E2E2F0" height="32.6211" rx="2.5" ry="2.5" style="stroke:#181818;stroke-width:0.5;" width="153.2959" x="582.209" y="1611.2891"/><text fill="#000000" font-family="sans-serif" font-size="14" lengthAdjust="spacing" textLength="139.2959" x="589.209" y="1633.3965">:BuildStationController</text><rect fill="#E2E2F0" height="32.6211" rx="2.5" ry="2.5" style="stroke:#181818;stroke-width:0.5;" width="91.8135" x="859.7817" y="50"/><text fill="#000000" font-family="sans-serif" font-size="14" lengthAdjust="spacing" textLength="77.8135" x="866.7817" y="72.1074">Repositories</text><rect fill="#E2E2F0" height="32.6211" rx="2.5" ry="2.5" style="stroke:#181818;stroke-width:0.5;" width="91.8135" x="859.7817" y="1611.2891"/><text fill="#000000" font-family="sans-serif" font-size="14" lengthAdjust="spacing" textLength="77.8135" x="866.7817" y="1633.3965">Repositories</text><rect fill="#E2E2F0" height="51.2422" rx="2.5" ry="2.5" style="stroke:#181818;stroke-width:0.5;" width="95.7031" x="961.5952" y="31.3789"/><text fill="#000000" font-family="sans-serif" font-size="14" lengthAdjust="spacing" textLength="72.3652" x="973.2642" y="53.4863">repositories</text><text fill="#000000" font-family="sans-serif" font-size="14" lengthAdjust="spacing" textLength="81.7031" x="968.5952" y="72.1074">:Repositories</text><rect fill="#E2E2F0" height="51.2422" rx="2.5" ry="2.5" style="stroke:#181818;stroke-width:0.5;" width="95.7031" x="961.5952" y="1611.2891"/><text fill="#000000" font-family="sans-serif" font-size="14" lengthAdjust="spacing" textLength="72.3652" x="973.2642" y="1633.3965">repositories</text><text fill="#000000" font-family="sans-serif" font-size="14" lengthAdjust="spacing" textLength="81.7031" x="968.5952" y="1652.0176">:Repositories</text><rect fill="#E2E2F0" height="51.2422" rx="2.5" ry="2.5" style="stroke:#181818;stroke-width:0.5;" width="112.041" x="1067.2983" y="31.3789"/><text fill="#000000" font-family="sans-serif" font-size="14" lengthAdjust="spacing" textLength="94.1514" x="1076.2432" y="53.4863">mapRepository</text><text fill="#000000" font-family="sans-serif" font-size="14" lengthAdjust="spacing" textLength="98.041" x="1074.2983" y="72.1074">:MapRepository</text><rect fill="#E2E2F0" height="51.2422" rx="2.5" ry="2.5" style="stroke:#181818;stroke-width:0.5;" width="112.041" x="1067.2983" y="1611.2891"/><text fill="#000000" font-family="sans-serif" font-size="14" lengthAdjust="spacing" textLength="94.1514" x="1076.2432" y="1633.3965">mapRepository</text><text fill="#000000" font-family="sans-serif" font-size="14" lengthAdjust="spacing" textLength="98.041" x="1074.2983" y="1652.0176">:MapRepository</text><rect fill="#E2E2F0" height="51.2422" rx="2.5" ry="2.5" style="stroke:#181818;stroke-width:0.5;" width="84.8066" x="1189.3394" y="31.3789"/><text fill="#000000" font-family="sans-serif" font-size="14" lengthAdjust="spacing" textLength="70.8066" x="1196.3394" y="53.4863">currentMap</text><text fill="#000000" font-family="sans-serif" font-size="14" lengthAdjust="spacing" textLength="31.124" x="1216.1807" y="72.1074">:Map</text><rect fill="#E2E2F0" height="51.2422" rx="2.5" ry="2.5" style="stroke:#181818;stroke-width:0.5;" width="84.8066" x="1189.3394" y="1611.2891"/><text fill="#000000" font-family="sans-serif" font-size="14" lengthAdjust="spacing" textLength="70.8066" x="1196.3394" y="1633.3965">currentMap</text><text fill="#000000" font-family="sans-serif" font-size="14" lengthAdjust="spacing" textLength="31.124" x="1216.1807" y="1652.0176">:Map</text><rect fill="#E2E2F0" height="32.6211" rx="2.5" ry="2.5" style="stroke:#181818;stroke-width:0.5;" width="132.2959" x="1284.146" y="50"/><text fill="#000000" font-family="sans-serif" font-size="14" lengthAdjust="spacing" textLength="118.2959" x="1291.146" y="72.1074">ApplicationSession</text><rect fill="#E2E2F0" height="32.6211" rx="2.5" ry="2.5" style="stroke:#181818;stroke-width:0.5;" width="132.2959" x="1284.146" y="1611.2891"/><text fill="#000000" font-family="sans-serif" font-size="14" lengthAdjust="spacing" textLength="118.2959" x="1291.146" y="1633.3965">ApplicationSession</text><rect fill="#E2E2F0" height="51.2422" rx="2.5" ry="2.5" style="stroke:#181818;stroke-width:0.5;" width="136.1855" x="1426.4419" y="31.3789"/><text fill="#000000" font-family="sans-serif" font-size="14" lengthAdjust="spacing" textLength="73.165" x="1457.9521" y="53.4863">appSession</text><text fill="#000000" font-family="sans-serif" font-size="14" lengthAdjust="spacing" textLength="122.1855" x="1433.4419" y="72.1074">:ApplicationSession</text><rect fill="#E2E2F0" height="51.2422" rx="2.5" ry="2.5" style="stroke:#181818;stroke-width:0.5;" width="136.1855" x="1426.4419" y="1611.2891"/><text fill="#000000" font-family="sans-serif" font-size="14" lengthAdjust="spacing" textLength="73.165" x="1457.9521" y="1633.3965">appSession</text><text fill="#000000" font-family="sans-serif" font-size="14" lengthAdjust="spacing" textLength="122.1855" x="1433.4419" y="1652.0176">:ApplicationSession</text><rect fill="#E2E2F0" height="51.2422" rx="2.5" ry="2.5" style="stroke:#181818;stroke-width:0.5;" width="107.3789" x="1572.6274" y="31.3789"/><text fill="#000000" font-family="sans-serif" font-size="14" lengthAdjust="spacing" textLength="93.3789" x="1579.6274" y="53.4863">currentSession</text><text fill="#000000" font-family="sans-serif" font-size="14" lengthAdjust="spacing" textLength="83.2549" x="1584.6895" y="72.1074">:UserSession</text><rect fill="#E2E2F0" height="51.2422" rx="2.5" ry="2.5" style="stroke:#181818;stroke-width:0.5;" width="107.3789" x="1572.6274" y="1611.2891"/><text fill="#000000" font-family="sans-serif" font-size="14" lengthAdjust="spacing" textLength="93.3789" x="1579.6274" y="1633.3965">currentSession</text><text fill="#000000" font-family="sans-serif" font-size="14" lengthAdjust="spacing" textLength="83.2549" x="1584.6895" y="1652.0176">:UserSession</text><rect fill="#E2E2F0" height="51.2422" rx="2.5" ry="2.5" style="stroke:#181818;stroke-width:0.5;" width="128.3926" x="1690.0063" y="31.3789"/><text fill="#000000" font-family="sans-serif" font-size="14" lengthAdjust="spacing" textLength="108.165" x="1700.1201" y="53.4863">stationRepository</text><text fill="#000000" font-family="sans-serif" font-size="14" lengthAdjust="spacing" textLength="114.3926" x="1697.0063" y="72.1074">:StationRepository</text><rect fill="#E2E2F0" height="51.2422" rx="2.5" ry="2.5" style="stroke:#181818;stroke-width:0.5;" width="128.3926" x="1690.0063" y="1611.2891"/><text fill="#000000" font-family="sans-serif" font-size="14" lengthAdjust="spacing" textLength="108.165" x="1700.1201" y="1633.3965">stationRepository</text><text fill="#000000" font-family="sans-serif" font-size="14" lengthAdjust="spacing" textLength="114.3926" x="1697.0063" y="1652.0176">:StationRepository</text><rect fill="#E2E2F0" height="51.2422" rx="2.5" ry="2.5" style="stroke:#181818;stroke-width:0.5;" width="61.4756" x="1828.3989" y="1611.2891"/><text fill="#000000" font-family="sans-serif" font-size="14" lengthAdjust="spacing" textLength="41.248" x="1838.5127" y="1633.3965">station</text><text fill="#000000" font-family="sans-serif" font-size="14" lengthAdjust="spacing" textLength="47.4756" x="1835.3989" y="1652.0176">:Station</text><rect fill="#FFFFFF" height="1500.668" style="stroke:#181818;stroke-width:1.0;" width="10" x="22.8413" y="93.6211"/><rect fill="#FFFFFF" height="137.4941" style="stroke:#181818;stroke-width:1.0;" width="10" x="354.9473" y="116.9121"/><rect fill="#FFFFFF" height="281.6191" style="stroke:#181818;stroke-width:1.0;" width="10" x="354.9473" y="285.6973"/><rect fill="#FFFFFF" height="281.6191" style="stroke:#181818;stroke-width:1.0;" width="10" x="354.9473" y="598.6074"/><rect fill="#FFFFFF" height="682.7715" style="stroke:#181818;stroke-width:1.0;" width="10" x="354.9473" y="911.5176"/><rect fill="#FFFFFF" height="31.291" style="stroke:#181818;stroke-width:1.0;" width="10" x="653.8569" y="191.8242"/><rect fill="#FFFFFF" height="219.0371" style="stroke:#181818;stroke-width:1.0;" width="10" x="653.8569" y="316.9883"/><rect fill="#FFFFFF" height="93.873" style="stroke:#181818;stroke-width:1.0;" width="10" x="653.8569" y="629.8984"/><rect fill="#FFFFFF" height="93.873" style="stroke:#181818;stroke-width:1.0;" width="10" x="653.8569" y="755.0625"/><rect fill="#FFFFFF" height="620.1895" style="stroke:#181818;stroke-width:1.0;" width="10" x="653.8569" y="942.8086"/><rect fill="#FFFFFF" height="42.291" style="stroke:#181818;stroke-width:1.0;" width="10" x="658.8569" y="1169.8457"/><rect fill="#FFFFFF" height="31.291" style="stroke:#181818;stroke-width:1.0;" width="10" x="900.6885" y="348.2793"/><rect fill="#FFFFFF" height="31.291" style="stroke:#181818;stroke-width:1.0;" width="10" x="900.6885" y="1250.4277"/><rect fill="#FFFFFF" height="31.291" style="stroke:#181818;stroke-width:1.0;" width="10" x="1004.4468" y="410.8613"/><rect fill="#FFFFFF" height="31.291" style="stroke:#181818;stroke-width:1.0;" width="10" x="1004.4468" y="1313.0098"/><rect fill="#FFFFFF" height="31.291" style="stroke:#181818;stroke-width:1.0;" width="10" x="1118.3188" y="473.4434"/><rect fill="#FFFFFF" height="31.291" style="stroke:#181818;stroke-width:1.0;" width="10" x="1226.7427" y="661.1895"/><rect fill="#FFFFFF" height="31.291" style="stroke:#181818;stroke-width:1.0;" width="10" x="1226.7427" y="786.3535"/><rect fill="#FFFFFF" height="31.291" style="stroke:#181818;stroke-width:1.0;" width="10" x="1345.2939" y="974.0996"/><rect fill="#FFFFFF" height="31.291" style="stroke:#181818;stroke-width:1.0;" width="10" x="1489.5347" y="1036.6816"/><rect fill="#FFFFFF" height="31.291" style="stroke:#181818;stroke-width:1.0;" width="10" x="1621.3169" y="1099.2637"/><rect fill="#FFFFFF" height="31.291" style="stroke:#181818;stroke-width:1.0;" width="10" x="1621.3169" y="1500.416"/><rect fill="#FFFFFF" height="31.291" style="stroke:#181818;stroke-width:1.0;" width="10" x="1749.2026" y="1437.834"/><polygon fill="#181818" points="342.9473,112.9121,352.9473,116.9121,342.9473,120.9121,346.9473,116.9121" style="stroke:#181818;stroke-width:1.0;"/><line style="stroke:#181818;stroke-width:1.0;" x1="32.8413" x2="348.9473" y1="116.9121" y2="116.9121"/><text fill="#000000" font-family="sans-serif" font-size="13" font-weight="bold" lengthAdjust="spacing" textLength="7.23" x="39.8413" y="111.6494">1</text><text fill="#000000" font-family="sans-serif" font-size="13" lengthAdjust="spacing" textLength="125.0171" x="51.0713" y="111.6494">asks to build a station</text><polygon fill="#181818" points="570.209,144.2031,580.209,148.2031,570.209,152.2031,574.209,148.2031" style="stroke:#181818;stroke-width:1.0;"/><line style="stroke:#181818;stroke-width:1.0;stroke-dasharray:2.0,2.0;" x1="364.9473" x2="576.209" y1="148.2031" y2="148.2031"/><text fill="#000000" font-family="sans-serif" font-size="13" font-weight="bold" lengthAdjust="spacing" textLength="7.23" x="371.9473" y="142.9404">2</text><text fill="#000000" font-family="sans-serif" font-size="13" lengthAdjust="spacing" textLength="44.7891" x="383.1772" y="142.9404">create()</text><rect fill="#E2E2F0" height="32.6211" rx="2.5" ry="2.5" style="stroke:#181818;stroke-width:0.5;" width="153.2959" x="582.209" y="124.9121"/><text fill="#000000" font-family="sans-serif" font-size="14" lengthAdjust="spacing" textLength="139.2959" x="589.209" y="147.0195">:BuildStationController</text><polygon fill="#181818" points="641.8569,187.8242,651.8569,191.8242,641.8569,195.8242,645.8569,191.8242" style="stroke:#181818;stroke-width:1.0;"/><line style="stroke:#181818;stroke-width:1.0;" x1="364.9473" x2="647.8569" y1="191.8242" y2="191.8242"/><text fill="#000000" font-family="sans-serif" font-size="13" font-weight="bold" lengthAdjust="spacing" textLength="7.23" x="371.9473" y="186.5615">3</text><text fill="#000000" font-family="sans-serif" font-size="13" lengthAdjust="spacing" textLength="102.6035" x="383.1772" y="186.5615">getStationTypes()</text><polygon fill="#181818" points="375.9473,219.1152,365.9473,223.1152,375.9473,227.1152,371.9473,223.1152" style="stroke:#181818;stroke-width:1.0;"/><line style="stroke:#181818;stroke-width:1.0;stroke-dasharray:2.0,2.0;" x1="369.9473" x2="657.8569" y1="223.1152" y2="223.1152"/><text fill="#000000" font-family="sans-serif" font-size="13" font-weight="bold" lengthAdjust="spacing" textLength="7.23" x="381.9473" y="217.8525">4</text><text fill="#000000" font-family="sans-serif" font-size="13" lengthAdjust="spacing" textLength="217.4897" x="393.1772" y="217.8525">stationTypes (depot, station, terminal)</text><polygon fill="#181818" points="43.8413,250.4063,33.8413,254.4063,43.8413,258.4063,39.8413,254.4063" style="stroke:#181818;stroke-width:1.0;"/><line style="stroke:#181818;stroke-width:1.0;stroke-dasharray:2.0,2.0;" x1="37.8413" x2="358.9473" y1="254.4063" y2="254.4063"/><text fill="#000000" font-family="sans-serif" font-size="13" font-weight="bold" lengthAdjust="spacing" textLength="7.23" x="49.8413" y="249.1436">5</text><text fill="#000000" font-family="sans-serif" font-size="13" lengthAdjust="spacing" textLength="246.416" x="61.0713" y="249.1436">shows station types and asks to select one</text><polygon fill="#181818" points="342.9473,281.6973,352.9473,285.6973,342.9473,289.6973,346.9473,285.6973" style="stroke:#181818;stroke-width:1.0;"/><line style="stroke:#181818;stroke-width:1.0;" x1="32.8413" x2="348.9473" y1="285.6973" y2="285.6973"/><text fill="#000000" font-family="sans-serif" font-size="13" font-weight="bold" lengthAdjust="spacing" textLength="7.23" x="39.8413" y="280.4346">6</text><text fill="#000000" font-family="sans-serif" font-size="13" lengthAdjust="spacing" textLength="121.3989" x="51.0713" y="280.4346">selects a station type</text><polygon fill="#181818" points="641.8569,312.9883,651.8569,316.9883,641.8569,320.9883,645.8569,316.9883" style="stroke:#181818;stroke-width:1.0;"/><line style="stroke:#181818;stroke-width:1.0;" x1="364.9473" x2="647.8569" y1="316.9883" y2="316.9883"/><text fill="#000000" font-family="sans-serif" font-size="13" font-weight="bold" lengthAdjust="spacing" textLength="7.23" x="371.9473" y="311.7256">7</text><text fill="#000000" font-family="sans-serif" font-size="13" lengthAdjust="spacing" textLength="95.3672" x="383.1772" y="311.7256">getCurrentMap()</text><polygon fill="#181818" points="888.6885,344.2793,898.6885,348.2793,888.6885,352.2793,892.6885,348.2793" style="stroke:#181818;stroke-width:1.0;"/><line style="stroke:#181818;stroke-width:1.0;" x1="663.8569" x2="894.6885" y1="348.2793" y2="348.2793"/><text fill="#000000" font-family="sans-serif" font-size="13" font-weight="bold" lengthAdjust="spacing" textLength="7.23" x="670.8569" y="343.0166">8</text><text fill="#000000" font-family="sans-serif" font-size="13" lengthAdjust="spacing" textLength="75.8735" x="682.0869" y="343.0166">getInstance()</text><polygon fill="#181818" points="674.8569,375.5703,664.8569,379.5703,674.8569,383.5703,670.8569,379.5703" style="stroke:#181818;stroke-width:1.0;"/><line style="stroke:#181818;stroke-width:1.0;stroke-dasharray:2.0,2.0;" x1="668.8569" x2="904.6885" y1="379.5703" y2="379.5703"/><text fill="#000000" font-family="sans-serif" font-size="13" font-weight="bold" lengthAdjust="spacing" textLength="7.23" x="680.8569" y="374.3076">9</text><text fill="#000000" font-family="sans-serif" font-size="13" lengthAdjust="spacing" textLength="67.1963" x="692.0869" y="374.3076">repositories</text><polygon fill="#181818" points="992.4468,406.8613,1002.4468,410.8613,992.4468,414.8613,996.4468,410.8613" style="stroke:#181818;stroke-width:1.0;"/><line style="stroke:#181818;stroke-width:1.0;" x1="663.8569" x2="998.4468" y1="410.8613" y2="410.8613"/><text fill="#000000" font-family="sans-serif" font-size="13" font-weight="bold" lengthAdjust="spacing" textLength="14.46" x="670.8569" y="405.5986">10</text><text fill="#000000" font-family="sans-serif" font-size="13" lengthAdjust="spacing" textLength="114.1563" x="689.3169" y="405.5986">getMapRepository()</text><polygon fill="#181818" points="674.8569,438.1523,664.8569,442.1523,674.8569,446.1523,670.8569,442.1523" style="stroke:#181818;stroke-width:1.0;"/><line style="stroke:#181818;stroke-width:1.0;stroke-dasharray:2.0,2.0;" x1="668.8569" x2="1008.4468" y1="442.1523" y2="442.1523"/><text fill="#000000" font-family="sans-serif" font-size="13" font-weight="bold" lengthAdjust="spacing" textLength="14.46" x="680.8569" y="436.8896">11</text><text fill="#000000" font-family="sans-serif" font-size="13" lengthAdjust="spacing" textLength="87.4263" x="699.3169" y="436.8896">mapRepository</text><polygon fill="#181818" points="1106.3188,469.4434,1116.3188,473.4434,1106.3188,477.4434,1110.3188,473.4434" style="stroke:#181818;stroke-width:1.0;"/><line style="stroke:#181818;stroke-width:1.0;" x1="663.8569" x2="1112.3188" y1="473.4434" y2="473.4434"/><text fill="#000000" font-family="sans-serif" font-size="13" font-weight="bold" lengthAdjust="spacing" textLength="14.46" x="670.8569" y="468.1807">12</text><text fill="#000000" font-family="sans-serif" font-size="13" lengthAdjust="spacing" textLength="95.3672" x="689.3169" y="468.1807">getCurrentMap()</text><polygon fill="#181818" points="674.8569,500.7344,664.8569,504.7344,674.8569,508.7344,670.8569,504.7344" style="stroke:#181818;stroke-width:1.0;"/><line style="stroke:#181818;stroke-width:1.0;stroke-dasharray:2.0,2.0;" x1="668.8569" x2="1122.3188" y1="504.7344" y2="504.7344"/><text fill="#000000" font-family="sans-serif" font-size="13" font-weight="bold" lengthAdjust="spacing" textLength="14.46" x="680.8569" y="499.4717">13</text><text fill="#000000" font-family="sans-serif" font-size="13" lengthAdjust="spacing" textLength="65.749" x="699.3169" y="499.4717">currentMap</text><polygon fill="#181818" points="375.9473,532.0254,365.9473,536.0254,375.9473,540.0254,371.9473,536.0254" style="stroke:#181818;stroke-width:1.0;"/><line style="stroke:#181818;stroke-width:1.0;stroke-dasharray:2.0,2.0;" x1="369.9473" x2="657.8569" y1="536.0254" y2="536.0254"/><text fill="#000000" font-family="sans-serif" font-size="13" font-weight="bold" lengthAdjust="spacing" textLength="14.46" x="381.9473" y="530.7627">14</text><text fill="#000000" font-family="sans-serif" font-size="13" lengthAdjust="spacing" textLength="65.749" x="400.4072" y="530.7627">currentMap</text><polygon fill="#181818" points="43.8413,563.3164,33.8413,567.3164,43.8413,571.3164,39.8413,567.3164" style="stroke:#181818;stroke-width:1.0;"/><line style="stroke:#181818;stroke-width:1.0;stroke-dasharray:2.0,2.0;" x1="37.8413" x2="358.9473" y1="567.3164" y2="567.3164"/><text fill="#000000" font-family="sans-serif" font-size="13" font-weight="bold" lengthAdjust="spacing" textLength="14.46" x="49.8413" y="562.0537">15</text><text fill="#000000" font-family="sans-serif" font-size="13" lengthAdjust="spacing" textLength="202.3252" x="68.3013" y="562.0537">requests position (X,Y coordinates)</text><polygon fill="#181818" points="342.9473,594.6074,352.9473,598.6074,342.9473,602.6074,346.9473,598.6074" style="stroke:#181818;stroke-width:1.0;"/><line style="stroke:#181818;stroke-width:1.0;" x1="32.8413" x2="348.9473" y1="598.6074" y2="598.6074"/><text fill="#000000" font-family="sans-serif" font-size="13" font-weight="bold" lengthAdjust="spacing" textLength="14.46" x="39.8413" y="593.3447">16</text><text fill="#000000" font-family="sans-serif" font-size="13" lengthAdjust="spacing" textLength="116.3335" x="58.3013" y="593.3447">inputs position (X,Y)</text><polygon fill="#181818" points="641.8569,625.8984,651.8569,629.8984,641.8569,633.8984,645.8569,629.8984" style="stroke:#181818;stroke-width:1.0;"/><line style="stroke:#181818;stroke-width:1.0;" x1="364.9473" x2="647.8569" y1="629.8984" y2="629.8984"/><text fill="#000000" font-family="sans-serif" font-size="13" font-weight="bold" lengthAdjust="spacing" textLength="14.46" x="371.9473" y="624.6357">17</text><text fill="#000000" font-family="sans-serif" font-size="13" lengthAdjust="spacing" textLength="194.3652" x="390.4072" y="624.6357">validatePosition(x, y, stationType)</text><polygon fill="#181818" points="1214.7427,657.1895,1224.7427,661.1895,1214.7427,665.1895,1218.7427,661.1895" style="stroke:#181818;stroke-width:1.0;"/><line style="stroke:#181818;stroke-width:1.0;" x1="663.8569" x2="1220.7427" y1="661.1895" y2="661.1895"/><text fill="#000000" font-family="sans-serif" font-size="13" font-weight="bold" lengthAdjust="spacing" textLength="14.46" x="670.8569" y="655.9268">18</text><text fill="#000000" font-family="sans-serif" font-size="13" lengthAdjust="spacing" textLength="234.8379" x="689.3169" y="655.9268">validateStationPosition(x, y, stationType)</text><polygon fill="#181818" points="674.8569,688.4805,664.8569,692.4805,674.8569,696.4805,670.8569,692.4805" style="stroke:#181818;stroke-width:1.0;"/><line style="stroke:#181818;stroke-width:1.0;stroke-dasharray:2.0,2.0;" x1="668.8569" x2="1230.7427" y1="692.4805" y2="692.4805"/><text fill="#000000" font-family="sans-serif" font-size="13" font-weight="bold" lengthAdjust="spacing" textLength="14.46" x="680.8569" y="687.2178">19</text><text fill="#000000" font-family="sans-serif" font-size="13" lengthAdjust="spacing" textLength="96.8335" x="699.3169" y="687.2178">isValid (boolean)</text><polygon fill="#181818" points="375.9473,719.7715,365.9473,723.7715,375.9473,727.7715,371.9473,723.7715" style="stroke:#181818;stroke-width:1.0;"/><line style="stroke:#181818;stroke-width:1.0;stroke-dasharray:2.0,2.0;" x1="369.9473" x2="657.8569" y1="723.7715" y2="723.7715"/><text fill="#000000" font-family="sans-serif" font-size="13" font-weight="bold" lengthAdjust="spacing" textLength="14.46" x="381.9473" y="718.5088">20</text><text fill="#000000" font-family="sans-serif" font-size="13" lengthAdjust="spacing" textLength="38.2954" x="400.4072" y="718.5088">isValid</text><polygon fill="#181818" points="641.8569,751.0625,651.8569,755.0625,641.8569,759.0625,645.8569,755.0625" style="stroke:#181818;stroke-width:1.0;"/><line style="stroke:#181818;stroke-width:1.0;" x1="364.9473" x2="647.8569" y1="755.0625" y2="755.0625"/><text fill="#000000" font-family="sans-serif" font-size="13" font-weight="bold" lengthAdjust="spacing" textLength="14.46" x="371.9473" y="749.7998">21</text><text fill="#000000" font-family="sans-serif" font-size="13" lengthAdjust="spacing" textLength="155.3525" x="390.4072" y="749.7998">generateStationName(x, y)</text><polygon fill="#181818" points="1214.7427,782.3535,1224.7427,786.3535,1214.7427,790.3535,1218.7427,786.3535" style="stroke:#181818;stroke-width:1.0;"/><line style="stroke:#181818;stroke-width:1.0;" x1="663.8569" x2="1220.7427" y1="786.3535" y2="786.3535"/><text fill="#000000" font-family="sans-serif" font-size="13" font-weight="bold" lengthAdjust="spacing" textLength="14.46" x="670.8569" y="781.0908">22</text><text fill="#000000" font-family="sans-serif" font-size="13" lengthAdjust="spacing" textLength="115.5781" x="689.3169" y="781.0908">findClosestCity(x, y)</text><polygon fill="#181818" points="674.8569,813.6445,664.8569,817.6445,674.8569,821.6445,670.8569,817.6445" style="stroke:#181818;stroke-width:1.0;"/><line style="stroke:#181818;stroke-width:1.0;stroke-dasharray:2.0,2.0;" x1="668.8569" x2="1230.7427" y1="817.6445" y2="817.6445"/><text fill="#000000" font-family="sans-serif" font-size="13" font-weight="bold" lengthAdjust="spacing" textLength="14.46" x="680.8569" y="812.3818">23</text><text fill="#000000" font-family="sans-serif" font-size="13" lengthAdjust="spacing" textLength="62.8481" x="699.3169" y="812.3818">closestCity</text><polygon fill="#181818" points="375.9473,844.9355,365.9473,848.9355,375.9473,852.9355,371.9473,848.9355" style="stroke:#181818;stroke-width:1.0;"/><line style="stroke:#181818;stroke-width:1.0;stroke-dasharray:2.0,2.0;" x1="369.9473" x2="657.8569" y1="848.9355" y2="848.9355"/><text fill="#000000" font-family="sans-serif" font-size="13" font-weight="bold" lengthAdjust="spacing" textLength="14.46" x="381.9473" y="843.6729">24</text><text fill="#000000" font-family="sans-serif" font-size="13" lengthAdjust="spacing" textLength="220.9302" x="400.4072" y="843.6729">proposedName (e.g. "Porto Terminal")</text><polygon fill="#181818" points="43.8413,876.2266,33.8413,880.2266,43.8413,884.2266,39.8413,880.2266" style="stroke:#181818;stroke-width:1.0;"/><line style="stroke:#181818;stroke-width:1.0;stroke-dasharray:2.0,2.0;" x1="37.8413" x2="358.9473" y1="880.2266" y2="880.2266"/><text fill="#000000" font-family="sans-serif" font-size="13" font-weight="bold" lengthAdjust="spacing" textLength="14.46" x="49.8413" y="874.9639">25</text><text fill="#000000" font-family="sans-serif" font-size="13" lengthAdjust="spacing" textLength="279.646" x="68.3013" y="874.9639">shows proposed name and asks for confirmation</text><polygon fill="#181818" points="342.9473,907.5176,352.9473,911.5176,342.9473,915.5176,346.9473,911.5176" style="stroke:#181818;stroke-width:1.0;"/><line style="stroke:#181818;stroke-width:1.0;" x1="32.8413" x2="348.9473" y1="911.5176" y2="911.5176"/><text fill="#000000" font-family="sans-serif" font-size="13" font-weight="bold" lengthAdjust="spacing" textLength="14.46" x="39.8413" y="906.2549">26</text><text fill="#000000" font-family="sans-serif" font-size="13" lengthAdjust="spacing" textLength="85.249" x="58.3013" y="906.2549">confirms name</text><polygon fill="#181818" points="641.8569,938.8086,651.8569,942.8086,641.8569,946.8086,645.8569,942.8086" style="stroke:#181818;stroke-width:1.0;"/><line style="stroke:#181818;stroke-width:1.0;" x1="364.9473" x2="647.8569" y1="942.8086" y2="942.8086"/><text fill="#000000" font-family="sans-serif" font-size="13" font-weight="bold" lengthAdjust="spacing" textLength="14.46" x="371.9473" y="937.5459">27</text><text fill="#000000" font-family="sans-serif" font-size="13" lengthAdjust="spacing" textLength="251.4497" x="390.4072" y="937.5459">buildStation(x, y, stationType, stationName)</text><polygon fill="#181818" points="1333.2939,970.0996,1343.2939,974.0996,1333.2939,978.0996,1337.2939,974.0996" style="stroke:#181818;stroke-width:1.0;"/><line style="stroke:#181818;stroke-width:1.0;" x1="663.8569" x2="1339.2939" y1="974.0996" y2="974.0996"/><text fill="#000000" font-family="sans-serif" font-size="13" font-weight="bold" lengthAdjust="spacing" textLength="14.46" x="670.8569" y="968.8369">28</text><text fill="#000000" font-family="sans-serif" font-size="13" lengthAdjust="spacing" textLength="75.8735" x="689.3169" y="968.8369">getInstance()</text><polygon fill="#181818" points="674.8569,1001.3906,664.8569,1005.3906,674.8569,1009.3906,670.8569,1005.3906" style="stroke:#181818;stroke-width:1.0;"/><line style="stroke:#181818;stroke-width:1.0;stroke-dasharray:2.0,2.0;" x1="668.8569" x2="1349.2939" y1="1005.3906" y2="1005.3906"/><text fill="#000000" font-family="sans-serif" font-size="13" font-weight="bold" lengthAdjust="spacing" textLength="14.46" x="680.8569" y="1000.1279">29</text><text fill="#000000" font-family="sans-serif" font-size="13" lengthAdjust="spacing" textLength="67.939" x="699.3169" y="1000.1279">appSession</text><polygon fill="#181818" points="1477.5347,1032.6816,1487.5347,1036.6816,1477.5347,1040.6816,1481.5347,1036.6816" style="stroke:#181818;stroke-width:1.0;"/><line style="stroke:#181818;stroke-width:1.0;" x1="663.8569" x2="1483.5347" y1="1036.6816" y2="1036.6816"/><text fill="#000000" font-family="sans-serif" font-size="13" font-weight="bold" lengthAdjust="spacing" textLength="14.46" x="670.8569" y="1031.4189">30</text><text fill="#000000" font-family="sans-serif" font-size="13" lengthAdjust="spacing" textLength="116.3271" x="689.3169" y="1031.4189">getCurrentSession()</text><polygon fill="#181818" points="674.8569,1063.9727,664.8569,1067.9727,674.8569,1071.9727,670.8569,1067.9727" style="stroke:#181818;stroke-width:1.0;"/><line style="stroke:#181818;stroke-width:1.0;stroke-dasharray:2.0,2.0;" x1="668.8569" x2="1493.5347" y1="1067.9727" y2="1067.9727"/><text fill="#000000" font-family="sans-serif" font-size="13" font-weight="bold" lengthAdjust="spacing" textLength="14.46" x="680.8569" y="1062.71">31</text><text fill="#000000" font-family="sans-serif" font-size="13" lengthAdjust="spacing" textLength="86.709" x="699.3169" y="1062.71">currentSession</text><polygon fill="#181818" points="1609.3169,1095.2637,1619.3169,1099.2637,1609.3169,1103.2637,1613.3169,1099.2637" style="stroke:#181818;stroke-width:1.0;"/><line style="stroke:#181818;stroke-width:1.0;" x1="663.8569" x2="1615.3169" y1="1099.2637" y2="1099.2637"/><text fill="#000000" font-family="sans-serif" font-size="13" font-weight="bold" lengthAdjust="spacing" textLength="14.46" x="670.8569" y="1094.001">32</text><text fill="#000000" font-family="sans-serif" font-size="13" lengthAdjust="spacing" textLength="63.5781" x="689.3169" y="1094.001">getPlayer()</text><polygon fill="#181818" points="674.8569,1126.5547,664.8569,1130.5547,674.8569,1134.5547,670.8569,1130.5547" style="stroke:#181818;stroke-width:1.0;"/><line style="stroke:#181818;stroke-width:1.0;stroke-dasharray:2.0,2.0;" x1="668.8569" x2="1625.3169" y1="1130.5547" y2="1130.5547"/><text fill="#000000" font-family="sans-serif" font-size="13" font-weight="bold" lengthAdjust="spacing" textLength="14.46" x="680.8569" y="1125.292">33</text><text fill="#000000" font-family="sans-serif" font-size="13" lengthAdjust="spacing" textLength="35.4072" x="699.3169" y="1125.292">player</text><line style="stroke:#181818;stroke-width:1.0;" x1="663.8569" x2="710.8569" y1="1156.8457" y2="1156.8457"/><line style="stroke:#181818;stroke-width:1.0;" x1="710.8569" x2="710.8569" y1="1156.8457" y2="1169.8457"/><line style="stroke:#181818;stroke-width:1.0;" x1="669.8569" x2="710.8569" y1="1169.8457" y2="1169.8457"/><polygon fill="#181818" points="679.8569,1165.8457,669.8569,1169.8457,679.8569,1173.8457,675.8569,1169.8457" style="stroke:#181818;stroke-width:1.0;"/><text fill="#000000" font-family="sans-serif" font-size="13" font-weight="bold" lengthAdjust="spacing" textLength="14.46" x="675.8569" y="1151.583">34</text><text fill="#000000" font-family="sans-serif" font-size="13" lengthAdjust="spacing" textLength="194.3716" x="694.3169" y="1151.583">calculateStationCost(stationType)</text><line style="stroke:#181818;stroke-width:1.0;stroke-dasharray:2.0,2.0;" x1="668.8569" x2="710.8569" y1="1211.1367" y2="1211.1367"/><line style="stroke:#181818;stroke-width:1.0;stroke-dasharray:2.0,2.0;" x1="710.8569" x2="710.8569" y1="1211.1367" y2="1224.1367"/><line style="stroke:#181818;stroke-width:1.0;stroke-dasharray:2.0,2.0;" x1="663.8569" x2="710.8569" y1="1224.1367" y2="1224.1367"/><polygon fill="#181818" points="673.8569,1220.1367,663.8569,1224.1367,673.8569,1228.1367,669.8569,1224.1367" style="stroke:#181818;stroke-width:1.0;"/><text fill="#000000" font-family="sans-serif" font-size="13" font-weight="bold" lengthAdjust="spacing" textLength="14.46" x="675.8569" y="1205.874">35</text><text fill="#000000" font-family="sans-serif" font-size="13" lengthAdjust="spacing" textLength="23.8418" x="694.3169" y="1205.874">cost</text><polygon fill="#181818" points="888.6885,1246.4277,898.6885,1250.4277,888.6885,1254.4277,892.6885,1250.4277" style="stroke:#181818;stroke-width:1.0;"/><line style="stroke:#181818;stroke-width:1.0;" x1="663.8569" x2="894.6885" y1="1250.4277" y2="1250.4277"/><text fill="#000000" font-family="sans-serif" font-size="13" font-weight="bold" lengthAdjust="spacing" textLength="14.46" x="670.8569" y="1245.165">36</text><text fill="#000000" font-family="sans-serif" font-size="13" lengthAdjust="spacing" textLength="75.8735" x="689.3169" y="1245.165">getInstance()</text><polygon fill="#181818" points="674.8569,1277.7188,664.8569,1281.7188,674.8569,1285.7188,670.8569,1281.7188" style="stroke:#181818;stroke-width:1.0;"/><line style="stroke:#181818;stroke-width:1.0;stroke-dasharray:2.0,2.0;" x1="668.8569" x2="904.6885" y1="1281.7188" y2="1281.7188"/><text fill="#000000" font-family="sans-serif" font-size="13" font-weight="bold" lengthAdjust="spacing" textLength="14.46" x="680.8569" y="1276.4561">37</text><text fill="#000000" font-family="sans-serif" font-size="13" lengthAdjust="spacing" textLength="67.1963" x="699.3169" y="1276.4561">repositories</text><polygon fill="#181818" points="992.4468,1309.0098,1002.4468,1313.0098,992.4468,1317.0098,996.4468,1313.0098" style="stroke:#181818;stroke-width:1.0;"/><line style="stroke:#181818;stroke-width:1.0;" x1="663.8569" x2="998.4468" y1="1313.0098" y2="1313.0098"/><text fill="#000000" font-family="sans-serif" font-size="13" font-weight="bold" lengthAdjust="spacing" textLength="14.46" x="670.8569" y="1307.7471">38</text><text fill="#000000" font-family="sans-serif" font-size="13" lengthAdjust="spacing" textLength="129.3398" x="689.3169" y="1307.7471">getStationRepository()</text><polygon fill="#181818" points="674.8569,1340.3008,664.8569,1344.3008,674.8569,1348.3008,670.8569,1344.3008" style="stroke:#181818;stroke-width:1.0;"/><line style="stroke:#181818;stroke-width:1.0;stroke-dasharray:2.0,2.0;" x1="668.8569" x2="1008.4468" y1="1344.3008" y2="1344.3008"/><text fill="#000000" font-family="sans-serif" font-size="13" font-weight="bold" lengthAdjust="spacing" textLength="14.46" x="680.8569" y="1339.0381">39</text><text fill="#000000" font-family="sans-serif" font-size="13" lengthAdjust="spacing" textLength="100.439" x="699.3169" y="1339.0381">stationRepository</text><polygon fill="#181818" points="1816.3989,1371.5918,1826.3989,1375.5918,1816.3989,1379.5918,1820.3989,1375.5918" style="stroke:#181818;stroke-width:1.0;"/><line style="stroke:#181818;stroke-width:1.0;stroke-dasharray:2.0,2.0;" x1="663.8569" x2="1822.3989" y1="1375.5918" y2="1375.5918"/><text fill="#000000" font-family="sans-serif" font-size="13" font-weight="bold" lengthAdjust="spacing" textLength="14.46" x="670.8569" y="1370.3291">40</text><text fill="#000000" font-family="sans-serif" font-size="13" lengthAdjust="spacing" textLength="292.6143" x="689.3169" y="1370.3291">create(x, y, stationName, stationType, currentMap)</text><rect fill="#E2E2F0" height="51.2422" rx="2.5" ry="2.5" style="stroke:#181818;stroke-width:0.5;" width="61.4756" x="1828.3989" y="1352.3008"/><text fill="#000000" font-family="sans-serif" font-size="14" lengthAdjust="spacing" textLength="41.248" x="1838.5127" y="1374.4082">station</text><text fill="#000000" font-family="sans-serif" font-size="14" lengthAdjust="spacing" textLength="47.4756" x="1835.3989" y="1393.0293">:Station</text><polygon fill="#181818" points="1737.2026,1433.834,1747.2026,1437.834,1737.2026,1441.834,1741.2026,1437.834" style="stroke:#181818;stroke-width:1.0;"/><line style="stroke:#181818;stroke-width:1.0;" x1="663.8569" x2="1743.2026" y1="1437.834" y2="1437.834"/><text fill="#000000" font-family="sans-serif" font-size="13" font-weight="bold" lengthAdjust="spacing" textLength="14.46" x="670.8569" y="1432.5713">41</text><text fill="#000000" font-family="sans-serif" font-size="13" lengthAdjust="spacing" textLength="109.1226" x="689.3169" y="1432.5713">addStation(station)</text><polygon fill="#181818" points="674.8569,1465.125,664.8569,1469.125,674.8569,1473.125,670.8569,1469.125" style="stroke:#181818;stroke-width:1.0;"/><line style="stroke:#181818;stroke-width:1.0;stroke-dasharray:2.0,2.0;" x1="668.8569" x2="1753.2026" y1="1469.125" y2="1469.125"/><text fill="#000000" font-family="sans-serif" font-size="13" font-weight="bold" lengthAdjust="spacing" textLength="14.46" x="680.8569" y="1463.8623">42</text><text fill="#000000" font-family="sans-serif" font-size="13" lengthAdjust="spacing" textLength="46.96" x="699.3169" y="1463.8623">success</text><polygon fill="#181818" points="1609.3169,1496.416,1619.3169,1500.416,1609.3169,1504.416,1613.3169,1500.416" style="stroke:#181818;stroke-width:1.0;"/><line style="stroke:#181818;stroke-width:1.0;" x1="663.8569" x2="1615.3169" y1="1500.416" y2="1500.416"/><text fill="#000000" font-family="sans-serif" font-size="13" font-weight="bold" lengthAdjust="spacing" textLength="14.46" x="670.8569" y="1495.1533">43</text><text fill="#000000" font-family="sans-serif" font-size="13" lengthAdjust="spacing" textLength="117.7935" x="689.3169" y="1495.1533">updateBudget(-cost)</text><polygon fill="#181818" points="674.8569,1527.707,664.8569,1531.707,674.8569,1535.707,670.8569,1531.707" style="stroke:#181818;stroke-width:1.0;"/><line style="stroke:#181818;stroke-width:1.0;stroke-dasharray:2.0,2.0;" x1="668.8569" x2="1625.3169" y1="1531.707" y2="1531.707"/><text fill="#000000" font-family="sans-serif" font-size="13" font-weight="bold" lengthAdjust="spacing" textLength="14.46" x="680.8569" y="1526.4443">44</text><text fill="#000000" font-family="sans-serif" font-size="13" lengthAdjust="spacing" textLength="65.0508" x="699.3169" y="1526.4443">newBudget</text><polygon fill="#181818" points="375.9473,1558.998,365.9473,1562.998,375.9473,1566.998,371.9473,1562.998" style="stroke:#181818;stroke-width:1.0;"/><line style="stroke:#181818;stroke-width:1.0;stroke-dasharray:2.0,2.0;" x1="369.9473" x2="657.8569" y1="1562.998" y2="1562.998"/><text fill="#000000" font-family="sans-serif" font-size="13" font-weight="bold" lengthAdjust="spacing" textLength="14.46" x="381.9473" y="1557.7354">45</text><text fill="#000000" font-family="sans-serif" font-size="13" lengthAdjust="spacing" textLength="38.3018" x="400.4072" y="1557.7354">station</text><polygon fill="#181818" points="38.8413,1590.2891,28.8413,1594.2891,38.8413,1598.2891,34.8413,1594.2891" style="stroke:#181818;stroke-width:1.0;"/><line style="stroke:#181818;stroke-width:1.0;stroke-dasharray:2.0,2.0;" x1="32.8413" x2="358.9473" y1="1594.2891" y2="1594.2891"/><text fill="#000000" font-family="sans-serif" font-size="13" font-weight="bold" lengthAdjust="spacing" textLength="14.46" x="44.8413" y="1589.0264">46</text><text fill="#000000" font-family="sans-serif" font-size="13" lengthAdjust="spacing" textLength="155.3589" x="63.3013" y="1589.0264">displays operation success</text><!--SRC=[jLVRZjem47tFLrZxqb31Vi0-h4GHgf3sWWXRjLAbbKaCQssmKzlfbh_lEDUnIK9MtUO50ZDdncUk_gHVkSYeeaTob4B6BqeU6J4gPq7xJqRZLtfWaJcbZ2WM6oeEAHRGBpIHRrmSo9wccWK1pOqK-N77L11yUk498tifpKx-2MXif29NwvIUcBeYL9FrtVp7SXC0ak4npwWmvEhcIyxJ93BKS2cULeNSqsf0PY65KJ9DAyp5TdFdIczO9ZK7svpfGcIpN3z6hen2CZ_5JRVASxHw-7gtt3u-kCf7cZKA9z2-n- -5-lry_MmXNBquLue90-AbKkd_qsQpVDW-WuehFS-obCV5aIEcDNmKylFr-ZbQHj7AzufcMIK7w9UL-mvNETb2FMccC4RjSASJkeoHGq_a_rR0HDlvrhfnJbE5qMfY-S2c5VzD3QkpAI3mbD_9x1PoXzo0_AicHfATpHj2IGLPY3Rwa6MaUa1f1hesbpv_1lrOCP089u4ZKGh0tmTcAjUsfunfaAl56l0YBGbw2jLPxQ16wYHCW1ephN-S4iFKaGkQjhW9Sv5zpwlp0_2BVDCr4Z45FXL9muXcALGraO857YxGqKLbgQ1R4WlGGIOnJuicvz_1qcrPVoN2Ie1X4JEaxs2KrKsyfmIeWtf3SC4xmeY14gdVdxPaIi-SkXzq3nLRfwC8kNNPQJE3FYFuJk_hTZGG4iVdfdtvpZP0ipR8RLVhyx616oY83fJHEQ_OhvnfoD62B9kYuVVf3n9BgH8e8yFqP6IomvJBVPp9k5p_JLEUWC2wqWt_JCbfYWlzFVcFfWB2hfhE61Ek6JHZ_91YIoYgN7-pHacuap9bL4pwWekn1-9RuVK7rz7rkeXWgZtz0psoukHzX_KvxUTrpqMoIAM6v5bmS-f07KtZ09LnQ-5CRGoHvsHcIaAAiiHIGK9sVRY6DKigQE_RQd9SzSVBAQN-4LBR8C8QQKR87bQwM8ezLyTof3fGmSWwgn1q0JwkldPe1JnF_ER5KlAUGaCRqRXnW_SlFqeO32L0kvdr1GM3NdBJdq8BPs4RuVR0CEesSzxinn_dqcZojidoIEML8RpGpVgYu4CYzxC2-58h6un4JGHDupnjkz92QXEEwCJzpGbX0zRuylrFAnFvFplJsMNWe_UcThd-aEK9KAkR1xuOEFt7jXol6RNRpAIR6tpxiHqYQLfRXTF3YdDhyYbnG34VUHn3mVQnu62EBD8yi_l8bpo1a8Opcx0VNwo2lPK6_g5UlVlM-tVBX6lRD3IHcLr2x5A8wVH67Nej4Vu2]--></g></svg>