<svg xmlns="http://www.w3.org/2000/svg" xmlns:xlink="http://www.w3.org/1999/xlink" contentStyleType="text/css" height="1343px" preserveAspectRatio="none" style="width:1200px;height:1343px;background:#FFFFFF;" version="1.1" viewBox="0 0 1200 1343" width="1200px" zoomAndPan="magnify"><defs/><g><!--class ApplicationSession--><g id="elem_ApplicationSession"><rect codeLine="11" fill="#F1F1F1" height="122.4844" id="ApplicationSession" rx="2.5" ry="2.5" style="stroke:#181818;stroke-width:0.5;" width="163.3887" x="7" y="278"/><ellipse cx="27.8917" cy="294" fill="#ADD1B2" rx="11" ry="11" style="stroke:#181818;stroke-width:1.0;"/><path d="M30.6574,289.875 Q30.8136,289.6563 31.0011,289.5469 Q31.1886,289.4375 31.4074,289.4375 Q31.7824,289.4375 32.0167,289.7031 Q32.2511,289.9531 32.2511,290.5625 L32.2511,292.0156 Q32.2511,292.625 32.0167,292.8906 Q31.7824,293.1563 31.4074,293.1563 Q31.0636,293.1563 30.8605,292.9531 Q30.6574,292.7656 30.548,292.25 Q30.5011,291.8906 30.3136,291.7031 Q29.9855,291.3281 29.3761,291.1094 Q28.7667,290.8906 28.1417,290.8906 Q27.3761,290.8906 26.7355,291.2188 Q26.1105,291.5469 25.6105,292.2969 Q25.1261,293.0469 25.1261,294.0781 L25.1261,295.1719 Q25.1261,296.4063 26.0167,297.2344 Q26.9074,298.0469 28.5011,298.0469 Q29.4386,298.0469 30.0949,297.7969 Q30.4855,297.6406 30.9074,297.2031 Q31.173,296.9375 31.3136,296.8594 Q31.4699,296.7813 31.673,296.7813 Q32.0011,296.7813 32.2511,297.0469 Q32.5167,297.2969 32.5167,297.6406 Q32.5167,297.9844 32.173,298.3906 Q31.673,298.9688 30.8761,299.2969 Q29.798,299.75 28.5011,299.75 Q26.9855,299.75 25.7824,299.125 Q24.798,298.625 24.1105,297.5625 Q23.423,296.4844 23.423,295.2031 L23.423,294.0469 Q23.423,292.7188 24.0324,291.5781 Q24.6574,290.4219 25.7511,289.8125 Q26.8449,289.1875 28.0792,289.1875 Q28.8136,289.1875 29.4542,289.3594 Q30.1105,289.5156 30.6574,289.875 Z " fill="#000000"/><text fill="#000000" font-family="sans-serif" font-size="14" lengthAdjust="spacing" textLength="118.2959" x="43.201" y="299.7969">ApplicationSession</text><line style="stroke:#181818;stroke-width:0.5;" x1="8" x2="169.3887" y1="310" y2="310"/><line style="stroke:#181818;stroke-width:0.5;" x1="8" x2="169.3887" y1="318" y2="318"/><text fill="#000000" font-family="sans-serif" font-size="14" lengthAdjust="spacing" textLength="132.2822" x="13" y="337.1074">-ApplicationSession()</text><text fill="#000000" font-family="sans-serif" font-size="14" lengthAdjust="spacing" text-decoration="underline" textLength="89.8857" x="13" y="355.7285">+getInstance()</text><text fill="#000000" font-family="sans-serif" font-size="14" lengthAdjust="spacing" textLength="133.4512" x="13" y="374.3496">+getCurrentSession()</text><text fill="#000000" font-family="sans-serif" font-size="14" lengthAdjust="spacing" textLength="151.3887" x="13" y="392.9707">+updateBudget(amount)</text></g><!--class UserSession--><g id="elem_UserSession"><rect codeLine="19" fill="#F1F1F1" height="66.6211" id="UserSession" rx="2.5" ry="2.5" style="stroke:#181818;stroke-width:0.5;" width="111.3652" x="132" y="525.5"/><ellipse cx="147" cy="541.5" fill="#ADD1B2" rx="11" ry="11" style="stroke:#181818;stroke-width:1.0;"/><path d="M149.7656,537.375 Q149.9219,537.1563 150.1094,537.0469 Q150.2969,536.9375 150.5156,536.9375 Q150.8906,536.9375 151.125,537.2031 Q151.3594,537.4531 151.3594,538.0625 L151.3594,539.5156 Q151.3594,540.125 151.125,540.3906 Q150.8906,540.6563 150.5156,540.6563 Q150.1719,540.6563 149.9688,540.4531 Q149.7656,540.2656 149.6563,539.75 Q149.6094,539.3906 149.4219,539.2031 Q149.0938,538.8281 148.4844,538.6094 Q147.875,538.3906 147.25,538.3906 Q146.4844,538.3906 145.8438,538.7188 Q145.2188,539.0469 144.7188,539.7969 Q144.2344,540.5469 144.2344,541.5781 L144.2344,542.6719 Q144.2344,543.9063 145.125,544.7344 Q146.0156,545.5469 147.6094,545.5469 Q148.5469,545.5469 149.2031,545.2969 Q149.5938,545.1406 150.0156,544.7031 Q150.2813,544.4375 150.4219,544.3594 Q150.5781,544.2813 150.7813,544.2813 Q151.1094,544.2813 151.3594,544.5469 Q151.625,544.7969 151.625,545.1406 Q151.625,545.4844 151.2813,545.8906 Q150.7813,546.4688 149.9844,546.7969 Q148.9063,547.25 147.6094,547.25 Q146.0938,547.25 144.8906,546.625 Q143.9063,546.125 143.2188,545.0625 Q142.5313,543.9844 142.5313,542.7031 L142.5313,541.5469 Q142.5313,540.2188 143.1406,539.0781 Q143.7656,537.9219 144.8594,537.3125 Q145.9531,536.6875 147.1875,536.6875 Q147.9219,536.6875 148.5625,536.8594 Q149.2188,537.0156 149.7656,537.375 Z " fill="#000000"/><text fill="#000000" font-family="sans-serif" font-size="14" lengthAdjust="spacing" textLength="79.3652" x="161" y="547.2969">UserSession</text><line style="stroke:#181818;stroke-width:0.5;" x1="133" x2="242.3652" y1="557.5" y2="557.5"/><line style="stroke:#181818;stroke-width:0.5;" x1="133" x2="242.3652" y1="565.5" y2="565.5"/><text fill="#000000" font-family="sans-serif" font-size="14" lengthAdjust="spacing" textLength="76.6445" x="138" y="584.6074">+getPlayer()</text></g><!--class Player--><g id="elem_Player"><rect codeLine="24" fill="#F1F1F1" height="122.4844" id="Player" rx="2.5" ry="2.5" style="stroke:#181818;stroke-width:0.5;" width="163.3887" x="106" y="746"/><ellipse cx="163.603" cy="762" fill="#ADD1B2" rx="11" ry="11" style="stroke:#181818;stroke-width:1.0;"/><path d="M166.3687,757.875 Q166.5249,757.6563 166.7124,757.5469 Q166.8999,757.4375 167.1187,757.4375 Q167.4937,757.4375 167.728,757.7031 Q167.9624,757.9531 167.9624,758.5625 L167.9624,760.0156 Q167.9624,760.625 167.728,760.8906 Q167.4937,761.1563 167.1187,761.1563 Q166.7749,761.1563 166.5718,760.9531 Q166.3687,760.7656 166.2593,760.25 Q166.2124,759.8906 166.0249,759.7031 Q165.6968,759.3281 165.0874,759.1094 Q164.478,758.8906 163.853,758.8906 Q163.0874,758.8906 162.4468,759.2188 Q161.8218,759.5469 161.3218,760.2969 Q160.8374,761.0469 160.8374,762.0781 L160.8374,763.1719 Q160.8374,764.4063 161.728,765.2344 Q162.6187,766.0469 164.2124,766.0469 Q165.1499,766.0469 165.8062,765.7969 Q166.1968,765.6406 166.6187,765.2031 Q166.8843,764.9375 167.0249,764.8594 Q167.1812,764.7813 167.3843,764.7813 Q167.7124,764.7813 167.9624,765.0469 Q168.228,765.2969 168.228,765.6406 Q168.228,765.9844 167.8843,766.3906 Q167.3843,766.9688 166.5874,767.2969 Q165.5093,767.75 164.2124,767.75 Q162.6968,767.75 161.4937,767.125 Q160.5093,766.625 159.8218,765.5625 Q159.1343,764.4844 159.1343,763.2031 L159.1343,762.0469 Q159.1343,760.7188 159.7437,759.5781 Q160.3687,758.4219 161.4624,757.8125 Q162.5562,757.1875 163.7905,757.1875 Q164.5249,757.1875 165.1655,757.3594 Q165.8218,757.5156 166.3687,757.875 Z " fill="#000000"/><text fill="#000000" font-family="sans-serif" font-size="14" lengthAdjust="spacing" textLength="39.6826" x="184.103" y="767.7969">Player</text><line style="stroke:#181818;stroke-width:0.5;" x1="107" x2="268.3887" y1="778" y2="778"/><text fill="#000000" font-family="sans-serif" font-size="14" lengthAdjust="spacing" textLength="63.7998" x="112" y="797.1074">-id : String</text><text fill="#000000" font-family="sans-serif" font-size="14" lengthAdjust="spacing" textLength="87.9238" x="112" y="815.7285">-name : String</text><text fill="#000000" font-family="sans-serif" font-size="14" lengthAdjust="spacing" textLength="101.1924" x="112" y="834.3496">-budget : double</text><line style="stroke:#181818;stroke-width:0.5;" x1="107" x2="268.3887" y1="841.8633" y2="841.8633"/><text fill="#000000" font-family="sans-serif" font-size="14" lengthAdjust="spacing" textLength="151.3887" x="112" y="860.9707">+updateBudget(amount)</text></g><!--class Station--><g id="elem_Station"><rect codeLine="32" fill="#F1F1F1" height="159.7266" id="Station" rx="2.5" ry="2.5" style="stroke:#181818;stroke-width:0.5;" width="252.8301" x="563" y="479"/><ellipse cx="663.3721" cy="495" fill="#ADD1B2" rx="11" ry="11" style="stroke:#181818;stroke-width:1.0;"/><path d="M666.1377,490.875 Q666.2939,490.6563 666.4814,490.5469 Q666.6689,490.4375 666.8877,490.4375 Q667.2627,490.4375 667.4971,490.7031 Q667.7314,490.9531 667.7314,491.5625 L667.7314,493.0156 Q667.7314,493.625 667.4971,493.8906 Q667.2627,494.1563 666.8877,494.1563 Q666.5439,494.1563 666.3408,493.9531 Q666.1377,493.7656 666.0283,493.25 Q665.9814,492.8906 665.7939,492.7031 Q665.4658,492.3281 664.8564,492.1094 Q664.2471,491.8906 663.6221,491.8906 Q662.8564,491.8906 662.2158,492.2188 Q661.5908,492.5469 661.0908,493.2969 Q660.6064,494.0469 660.6064,495.0781 L660.6064,496.1719 Q660.6064,497.4063 661.4971,498.2344 Q662.3877,499.0469 663.9814,499.0469 Q664.9189,499.0469 665.5752,498.7969 Q665.9658,498.6406 666.3877,498.2031 Q666.6533,497.9375 666.7939,497.8594 Q666.9502,497.7813 667.1533,497.7813 Q667.4814,497.7813 667.7314,498.0469 Q667.9971,498.2969 667.9971,498.6406 Q667.9971,498.9844 667.6533,499.3906 Q667.1533,499.9688 666.3564,500.2969 Q665.2783,500.75 663.9814,500.75 Q662.4658,500.75 661.2627,500.125 Q660.2783,499.625 659.5908,498.5625 Q658.9033,497.4844 658.9033,496.2031 L658.9033,495.0469 Q658.9033,493.7188 659.5127,492.5781 Q660.1377,491.4219 661.2314,490.8125 Q662.3252,490.1875 663.5596,490.1875 Q664.2939,490.1875 664.9346,490.3594 Q665.5908,490.5156 666.1377,490.875 Z " fill="#000000"/><text fill="#000000" font-family="sans-serif" font-size="14" lengthAdjust="spacing" textLength="43.5859" x="683.8721" y="500.7969">Station</text><line style="stroke:#181818;stroke-width:0.5;" x1="564" x2="814.8301" y1="511" y2="511"/><text fill="#000000" font-family="sans-serif" font-size="14" lengthAdjust="spacing" textLength="87.9238" x="569" y="530.1074">-name : String</text><text fill="#000000" font-family="sans-serif" font-size="14" lengthAdjust="spacing" textLength="117.5029" x="569" y="548.7285">-type : StationType</text><text fill="#000000" font-family="sans-serif" font-size="14" lengthAdjust="spacing" textLength="69.248" x="569" y="567.3496">-radius : int</text><text fill="#000000" font-family="sans-serif" font-size="14" lengthAdjust="spacing" textLength="84.0479" x="569" y="585.9707">-cost : double</text><text fill="#000000" font-family="sans-serif" font-size="14" lengthAdjust="spacing" textLength="117.5166" x="569" y="604.5918">-location : Location</text><line style="stroke:#181818;stroke-width:0.5;" x1="564" x2="814.8301" y1="612.1055" y2="612.1055"/><text fill="#000000" font-family="sans-serif" font-size="14" lengthAdjust="spacing" textLength="240.8301" x="569" y="631.2129">+Station(x, y, name, stationType, map)</text></g><!--class StationType--><g id="elem_StationType"><rect codeLine="42" fill="#F1F1F1" height="141.1055" id="StationType" rx="2.5" ry="2.5" style="stroke:#181818;stroke-width:0.5;" width="106.71" x="908" y="736.5"/><ellipse cx="923" cy="752.5" fill="#EB937F" rx="11" ry="11" style="stroke:#181818;stroke-width:1.0;"/><path d="M921.8594,753.2969 L921.8594,755.7969 L926.1875,755.7969 L926.1875,754.875 Q926.1875,754.2656 926.4219,754 Q926.6719,753.7344 927.0469,753.7344 Q927.4219,753.7344 927.6563,754 Q927.8906,754.2656 927.8906,754.875 L927.8906,757.5 L919.8906,757.5 Q919.2656,757.5 919,757.2656 Q918.75,757.0313 918.75,756.6406 Q918.75,756.2656 919.0156,756.0313 Q919.2813,755.7969 919.8906,755.7969 L920.1563,755.7969 L920.1563,749.1406 L919.8906,749.1406 Q919.2656,749.1406 919,748.9063 Q918.75,748.6719 918.75,748.2813 Q918.75,747.9063 919,747.6719 Q919.2656,747.4375 919.8906,747.4375 L927.5156,747.4375 L927.5156,750.0313 Q927.5156,750.6406 927.2813,750.9063 Q927.0625,751.1563 926.6719,751.1563 Q926.2969,751.1563 926.0625,750.9063 Q925.8281,750.6406 925.8281,750.0313 L925.8281,749.1406 L921.8594,749.1406 L921.8594,751.5938 L923.3438,751.5938 Q923.3438,750.9375 923.4688,750.75 Q923.7344,750.3438 924.2031,750.3438 Q924.5781,750.3438 924.8125,750.6094 Q925.0469,750.8594 925.0469,751.4688 L925.0469,753.4375 Q925.0469,753.9844 924.9219,754.1719 Q924.6563,754.5625 924.2031,754.5625 Q923.7344,754.5625 923.4688,754.1563 Q923.3438,753.9688 923.3438,753.2969 L921.8594,753.2969 Z " fill="#000000"/><text fill="#000000" font-family="sans-serif" font-size="14" lengthAdjust="spacing" textLength="74.71" x="937" y="758.2969">StationType</text><line style="stroke:#181818;stroke-width:0.5;" x1="909" x2="1013.71" y1="768.5" y2="768.5"/><text fill="#000000" font-family="sans-serif" font-size="14" lengthAdjust="spacing" textLength="48.2275" x="914" y="787.6074">DEPOT</text><text fill="#000000" font-family="sans-serif" font-size="14" lengthAdjust="spacing" textLength="60.6689" x="914" y="806.2285">STATION</text><text fill="#000000" font-family="sans-serif" font-size="14" lengthAdjust="spacing" textLength="70.7861" x="914" y="824.8496">TERMINAL</text><line style="stroke:#181818;stroke-width:0.5;" x1="909" x2="1013.71" y1="832.3633" y2="832.3633"/><text fill="#000000" font-family="sans-serif" font-size="14" lengthAdjust="spacing" textLength="80.541" x="914" y="851.4707">+getRadius()</text><text fill="#000000" font-family="sans-serif" font-size="14" lengthAdjust="spacing" textLength="65.748" x="914" y="870.0918">+getCost()</text></g><!--class Location--><g id="elem_Location"><rect codeLine="51" fill="#F1F1F1" height="141.1055" id="Location" rx="2.5" ry="2.5" style="stroke:#181818;stroke-width:0.5;" width="104.21" x="559.5" y="1195"/><ellipse cx="583.1757" cy="1211" fill="#ADD1B2" rx="11" ry="11" style="stroke:#181818;stroke-width:1.0;"/><path d="M585.9413,1206.875 Q586.0976,1206.6563 586.2851,1206.5469 Q586.4726,1206.4375 586.6913,1206.4375 Q587.0663,1206.4375 587.3007,1206.7031 Q587.5351,1206.9531 587.5351,1207.5625 L587.5351,1209.0156 Q587.5351,1209.625 587.3007,1209.8906 Q587.0663,1210.1563 586.6913,1210.1563 Q586.3476,1210.1563 586.1444,1209.9531 Q585.9413,1209.7656 585.8319,1209.25 Q585.7851,1208.8906 585.5976,1208.7031 Q585.2694,1208.3281 584.6601,1208.1094 Q584.0507,1207.8906 583.4257,1207.8906 Q582.6601,1207.8906 582.0194,1208.2188 Q581.3944,1208.5469 580.8944,1209.2969 Q580.4101,1210.0469 580.4101,1211.0781 L580.4101,1212.1719 Q580.4101,1213.4063 581.3007,1214.2344 Q582.1913,1215.0469 583.7851,1215.0469 Q584.7226,1215.0469 585.3788,1214.7969 Q585.7694,1214.6406 586.1913,1214.2031 Q586.4569,1213.9375 586.5976,1213.8594 Q586.7538,1213.7813 586.9569,1213.7813 Q587.2851,1213.7813 587.5351,1214.0469 Q587.8007,1214.2969 587.8007,1214.6406 Q587.8007,1214.9844 587.4569,1215.3906 Q586.9569,1215.9688 586.1601,1216.2969 Q585.0819,1216.75 583.7851,1216.75 Q582.2694,1216.75 581.0663,1216.125 Q580.0819,1215.625 579.3944,1214.5625 Q578.7069,1213.4844 578.7069,1212.2031 L578.7069,1211.0469 Q578.7069,1209.7188 579.3163,1208.5781 Q579.9413,1207.4219 581.0351,1206.8125 Q582.1288,1206.1875 583.3632,1206.1875 Q584.0976,1206.1875 584.7382,1206.3594 Q585.3944,1206.5156 585.9413,1206.875 Z " fill="#000000"/><text fill="#000000" font-family="sans-serif" font-size="14" lengthAdjust="spacing" textLength="52.9307" x="599.1036" y="1216.7969">Location</text><line style="stroke:#181818;stroke-width:0.5;" x1="560.5" x2="662.71" y1="1227" y2="1227"/><text fill="#000000" font-family="sans-serif" font-size="14" lengthAdjust="spacing" textLength="38.1172" x="565.5" y="1246.1074">-x : int</text><text fill="#000000" font-family="sans-serif" font-size="14" lengthAdjust="spacing" textLength="38.1172" x="565.5" y="1264.7285">-y : int</text><line style="stroke:#181818;stroke-width:0.5;" x1="560.5" x2="662.71" y1="1272.2422" y2="1272.2422"/><text fill="#000000" font-family="sans-serif" font-size="14" lengthAdjust="spacing" textLength="92.21" x="565.5" y="1291.3496">+Location(x, y)</text><text fill="#000000" font-family="sans-serif" font-size="14" lengthAdjust="spacing" textLength="46.2998" x="565.5" y="1309.9707">+getX()</text><text fill="#000000" font-family="sans-serif" font-size="14" lengthAdjust="spacing" textLength="46.2998" x="565.5" y="1328.5918">+getY()</text></g><!--class Map--><g id="elem_Map"><rect codeLine="60" fill="#F1F1F1" height="178.3477" id="Map" rx="2.5" ry="2.5" style="stroke:#181818;stroke-width:0.5;" width="273.0781" x="334" y="718"/><ellipse cx="452.6719" cy="734" fill="#ADD1B2" rx="11" ry="11" style="stroke:#181818;stroke-width:1.0;"/><path d="M455.4375,729.875 Q455.5938,729.6563 455.7813,729.5469 Q455.9688,729.4375 456.1875,729.4375 Q456.5625,729.4375 456.7969,729.7031 Q457.0313,729.9531 457.0313,730.5625 L457.0313,732.0156 Q457.0313,732.625 456.7969,732.8906 Q456.5625,733.1563 456.1875,733.1563 Q455.8438,733.1563 455.6406,732.9531 Q455.4375,732.7656 455.3281,732.25 Q455.2813,731.8906 455.0938,731.7031 Q454.7656,731.3281 454.1563,731.1094 Q453.5469,730.8906 452.9219,730.8906 Q452.1563,730.8906 451.5156,731.2188 Q450.8906,731.5469 450.3906,732.2969 Q449.9063,733.0469 449.9063,734.0781 L449.9063,735.1719 Q449.9063,736.4063 450.7969,737.2344 Q451.6875,738.0469 453.2813,738.0469 Q454.2188,738.0469 454.875,737.7969 Q455.2656,737.6406 455.6875,737.2031 Q455.9531,736.9375 456.0938,736.8594 Q456.25,736.7813 456.4531,736.7813 Q456.7813,736.7813 457.0313,737.0469 Q457.2969,737.2969 457.2969,737.6406 Q457.2969,737.9844 456.9531,738.3906 Q456.4531,738.9688 455.6563,739.2969 Q454.5781,739.75 453.2813,739.75 Q451.7656,739.75 450.5625,739.125 Q449.5781,738.625 448.8906,737.5625 Q448.2031,736.4844 448.2031,735.2031 L448.2031,734.0469 Q448.2031,732.7188 448.8125,731.5781 Q449.4375,730.4219 450.5313,729.8125 Q451.625,729.1875 452.8594,729.1875 Q453.5938,729.1875 454.2344,729.3594 Q454.8906,729.5156 455.4375,729.875 Z " fill="#000000"/><text fill="#000000" font-family="sans-serif" font-size="14" lengthAdjust="spacing" textLength="27.2344" x="473.1719" y="739.7969">Map</text><line style="stroke:#181818;stroke-width:0.5;" x1="335" x2="606.0781" y1="750" y2="750"/><text fill="#000000" font-family="sans-serif" font-size="14" lengthAdjust="spacing" textLength="87.9238" x="340" y="769.1074">-name : String</text><text fill="#000000" font-family="sans-serif" font-size="14" lengthAdjust="spacing" textLength="63.7998" x="340" y="787.7285">-width : int</text><text fill="#000000" font-family="sans-serif" font-size="14" lengthAdjust="spacing" textLength="69.2617" x="340" y="806.3496">-height : int</text><text fill="#000000" font-family="sans-serif" font-size="14" lengthAdjust="spacing" textLength="110.4756" x="340" y="824.9707">-cities : List&lt;City&gt;</text><text fill="#000000" font-family="sans-serif" font-size="14" lengthAdjust="spacing" textLength="164.1855" x="340" y="843.5918">-industries : List&lt;Industry&gt;</text><line style="stroke:#181818;stroke-width:0.5;" x1="335" x2="606.0781" y1="851.1055" y2="851.1055"/><text fill="#000000" font-family="sans-serif" font-size="14" lengthAdjust="spacing" textLength="261.0781" x="340" y="870.2129">+validateStationPosition(x, y, stationType)</text><text fill="#000000" font-family="sans-serif" font-size="14" lengthAdjust="spacing" textLength="132.6445" x="340" y="888.834">+findClosestCity(x, y)</text></g><!--class City--><g id="elem_City"><rect codeLine="71" fill="#F1F1F1" height="141.1055" id="City" rx="2.5" ry="2.5" style="stroke:#181818;stroke-width:0.5;" width="129.5166" x="469.5" y="975"/><ellipse cx="517.9531" cy="991" fill="#ADD1B2" rx="11" ry="11" style="stroke:#181818;stroke-width:1.0;"/><path d="M520.7188,986.875 Q520.875,986.6563 521.0625,986.5469 Q521.25,986.4375 521.4688,986.4375 Q521.8438,986.4375 522.0781,986.7031 Q522.3125,986.9531 522.3125,987.5625 L522.3125,989.0156 Q522.3125,989.625 522.0781,989.8906 Q521.8438,990.1563 521.4688,990.1563 Q521.125,990.1563 520.9219,989.9531 Q520.7188,989.7656 520.6094,989.25 Q520.5625,988.8906 520.375,988.7031 Q520.0469,988.3281 519.4375,988.1094 Q518.8281,987.8906 518.2031,987.8906 Q517.4375,987.8906 516.7969,988.2188 Q516.1719,988.5469 515.6719,989.2969 Q515.1875,990.0469 515.1875,991.0781 L515.1875,992.1719 Q515.1875,993.4063 516.0781,994.2344 Q516.9688,995.0469 518.5625,995.0469 Q519.5,995.0469 520.1563,994.7969 Q520.5469,994.6406 520.9688,994.2031 Q521.2344,993.9375 521.375,993.8594 Q521.5313,993.7813 521.7344,993.7813 Q522.0625,993.7813 522.3125,994.0469 Q522.5781,994.2969 522.5781,994.6406 Q522.5781,994.9844 522.2344,995.3906 Q521.7344,995.9688 520.9375,996.2969 Q519.8594,996.75 518.5625,996.75 Q517.0469,996.75 515.8438,996.125 Q514.8594,995.625 514.1719,994.5625 Q513.4844,993.4844 513.4844,992.2031 L513.4844,991.0469 Q513.4844,989.7188 514.0938,988.5781 Q514.7188,987.4219 515.8125,986.8125 Q516.9063,986.1875 518.1406,986.1875 Q518.875,986.1875 519.5156,986.3594 Q520.1719,986.5156 520.7188,986.875 Z " fill="#000000"/><text fill="#000000" font-family="sans-serif" font-size="14" lengthAdjust="spacing" textLength="24.1104" x="538.4531" y="996.7969">City</text><line style="stroke:#181818;stroke-width:0.5;" x1="470.5" x2="598.0166" y1="1007" y2="1007"/><text fill="#000000" font-family="sans-serif" font-size="14" lengthAdjust="spacing" textLength="87.9238" x="475.5" y="1026.1074">-name : String</text><text fill="#000000" font-family="sans-serif" font-size="14" lengthAdjust="spacing" textLength="117.5166" x="475.5" y="1044.7285">-location : Location</text><text fill="#000000" font-family="sans-serif" font-size="14" lengthAdjust="spacing" textLength="110.4961" x="475.5" y="1063.3496">-houseBlocks : int</text><line style="stroke:#181818;stroke-width:0.5;" x1="470.5" x2="598.0166" y1="1070.8633" y2="1070.8633"/><text fill="#000000" font-family="sans-serif" font-size="14" lengthAdjust="spacing" textLength="74.3066" x="475.5" y="1089.9707">+getName()</text><text fill="#000000" font-family="sans-serif" font-size="14" lengthAdjust="spacing" textLength="89.8926" x="475.5" y="1108.5918">+getLocation()</text></g><!--class MapRepository--><g id="elem_MapRepository"><rect codeLine="80" fill="#F1F1F1" height="66.6211" id="MapRepository" rx="2.5" ry="2.5" style="stroke:#181818;stroke-width:0.5;" width="126.1514" x="447.5" y="305.5"/><ellipse cx="462.5" cy="321.5" fill="#ADD1B2" rx="11" ry="11" style="stroke:#181818;stroke-width:1.0;"/><path d="M465.2656,317.375 Q465.4219,317.1563 465.6094,317.0469 Q465.7969,316.9375 466.0156,316.9375 Q466.3906,316.9375 466.625,317.2031 Q466.8594,317.4531 466.8594,318.0625 L466.8594,319.5156 Q466.8594,320.125 466.625,320.3906 Q466.3906,320.6563 466.0156,320.6563 Q465.6719,320.6563 465.4688,320.4531 Q465.2656,320.2656 465.1563,319.75 Q465.1094,319.3906 464.9219,319.2031 Q464.5938,318.8281 463.9844,318.6094 Q463.375,318.3906 462.75,318.3906 Q461.9844,318.3906 461.3438,318.7188 Q460.7188,319.0469 460.2188,319.7969 Q459.7344,320.5469 459.7344,321.5781 L459.7344,322.6719 Q459.7344,323.9063 460.625,324.7344 Q461.5156,325.5469 463.1094,325.5469 Q464.0469,325.5469 464.7031,325.2969 Q465.0938,325.1406 465.5156,324.7031 Q465.7813,324.4375 465.9219,324.3594 Q466.0781,324.2813 466.2813,324.2813 Q466.6094,324.2813 466.8594,324.5469 Q467.125,324.7969 467.125,325.1406 Q467.125,325.4844 466.7813,325.8906 Q466.2813,326.4688 465.4844,326.7969 Q464.4063,327.25 463.1094,327.25 Q461.5938,327.25 460.3906,326.625 Q459.4063,326.125 458.7188,325.0625 Q458.0313,323.9844 458.0313,322.7031 L458.0313,321.5469 Q458.0313,320.2188 458.6406,319.0781 Q459.2656,317.9219 460.3594,317.3125 Q461.4531,316.6875 462.6875,316.6875 Q463.4219,316.6875 464.0625,316.8594 Q464.7188,317.0156 465.2656,317.375 Z " fill="#000000"/><text fill="#000000" font-family="sans-serif" font-size="14" lengthAdjust="spacing" textLength="94.1514" x="476.5" y="327.2969">MapRepository</text><line style="stroke:#181818;stroke-width:0.5;" x1="448.5" x2="572.6514" y1="337.5" y2="337.5"/><line style="stroke:#181818;stroke-width:0.5;" x1="448.5" x2="572.6514" y1="345.5" y2="345.5"/><text fill="#000000" font-family="sans-serif" font-size="14" lengthAdjust="spacing" textLength="110.8789" x="453.5" y="364.6074">+getCurrentMap()</text></g><!--class StationRepository--><g id="elem_StationRepository"><rect codeLine="84" fill="#F1F1F1" height="85.2422" id="StationRepository" rx="2.5" ry="2.5" style="stroke:#181818;stroke-width:0.5;" width="142.5029" x="783" y="296.5"/><ellipse cx="798" cy="312.5" fill="#ADD1B2" rx="11" ry="11" style="stroke:#181818;stroke-width:1.0;"/><path d="M800.7656,308.375 Q800.9219,308.1563 801.1094,308.0469 Q801.2969,307.9375 801.5156,307.9375 Q801.8906,307.9375 802.125,308.2031 Q802.3594,308.4531 802.3594,309.0625 L802.3594,310.5156 Q802.3594,311.125 802.125,311.3906 Q801.8906,311.6563 801.5156,311.6563 Q801.1719,311.6563 800.9688,311.4531 Q800.7656,311.2656 800.6563,310.75 Q800.6094,310.3906 800.4219,310.2031 Q800.0938,309.8281 799.4844,309.6094 Q798.875,309.3906 798.25,309.3906 Q797.4844,309.3906 796.8438,309.7188 Q796.2188,310.0469 795.7188,310.7969 Q795.2344,311.5469 795.2344,312.5781 L795.2344,313.6719 Q795.2344,314.9063 796.125,315.7344 Q797.0156,316.5469 798.6094,316.5469 Q799.5469,316.5469 800.2031,316.2969 Q800.5938,316.1406 801.0156,315.7031 Q801.2813,315.4375 801.4219,315.3594 Q801.5781,315.2813 801.7813,315.2813 Q802.1094,315.2813 802.3594,315.5469 Q802.625,315.7969 802.625,316.1406 Q802.625,316.4844 802.2813,316.8906 Q801.7813,317.4688 800.9844,317.7969 Q799.9063,318.25 798.6094,318.25 Q797.0938,318.25 795.8906,317.625 Q794.9063,317.125 794.2188,316.0625 Q793.5313,314.9844 793.5313,313.7031 L793.5313,312.5469 Q793.5313,311.2188 794.1406,310.0781 Q794.7656,308.9219 795.8594,308.3125 Q796.9531,307.6875 798.1875,307.6875 Q798.9219,307.6875 799.5625,307.8594 Q800.2188,308.0156 800.7656,308.375 Z " fill="#000000"/><text fill="#000000" font-family="sans-serif" font-size="14" lengthAdjust="spacing" textLength="110.5029" x="812" y="318.2969">StationRepository</text><line style="stroke:#181818;stroke-width:0.5;" x1="784" x2="924.5029" y1="328.5" y2="328.5"/><line style="stroke:#181818;stroke-width:0.5;" x1="784" x2="924.5029" y1="336.5" y2="336.5"/><text fill="#000000" font-family="sans-serif" font-size="14" lengthAdjust="spacing" textLength="125.6924" x="789" y="355.6074">+addStation(station)</text><text fill="#000000" font-family="sans-serif" font-size="14" lengthAdjust="spacing" textLength="87.5479" x="789" y="374.2285">+getStations()</text></g><!--class Repositories--><g id="elem_Repositories"><rect codeLine="89" fill="#F1F1F1" height="122.4844" id="Repositories" rx="2.5" ry="2.5" style="stroke:#181818;stroke-width:0.5;" width="159.4648" x="939" y="49"/><ellipse cx="976.3431" cy="65" fill="#ADD1B2" rx="11" ry="11" style="stroke:#181818;stroke-width:1.0;"/><path d="M979.1087,60.875 Q979.265,60.6563 979.4525,60.5469 Q979.64,60.4375 979.8587,60.4375 Q980.2337,60.4375 980.4681,60.7031 Q980.7025,60.9531 980.7025,61.5625 L980.7025,63.0156 Q980.7025,63.625 980.4681,63.8906 Q980.2337,64.1563 979.8587,64.1563 Q979.515,64.1563 979.3119,63.9531 Q979.1087,63.7656 978.9994,63.25 Q978.9525,62.8906 978.765,62.7031 Q978.4369,62.3281 977.8275,62.1094 Q977.2181,61.8906 976.5931,61.8906 Q975.8275,61.8906 975.1869,62.2188 Q974.5619,62.5469 974.0619,63.2969 Q973.5775,64.0469 973.5775,65.0781 L973.5775,66.1719 Q973.5775,67.4063 974.4681,68.2344 Q975.3587,69.0469 976.9525,69.0469 Q977.89,69.0469 978.5462,68.7969 Q978.9369,68.6406 979.3587,68.2031 Q979.6244,67.9375 979.765,67.8594 Q979.9212,67.7813 980.1244,67.7813 Q980.4525,67.7813 980.7025,68.0469 Q980.9681,68.2969 980.9681,68.6406 Q980.9681,68.9844 980.6244,69.3906 Q980.1244,69.9688 979.3275,70.2969 Q978.2494,70.75 976.9525,70.75 Q975.4369,70.75 974.2337,70.125 Q973.2494,69.625 972.5619,68.5625 Q971.8744,67.4844 971.8744,66.2031 L971.8744,65.0469 Q971.8744,63.7188 972.4837,62.5781 Q973.1087,61.4219 974.2025,60.8125 Q975.2962,60.1875 976.5306,60.1875 Q977.265,60.1875 977.9056,60.3594 Q978.5619,60.5156 979.1087,60.875 Z " fill="#000000"/><text fill="#000000" font-family="sans-serif" font-size="14" lengthAdjust="spacing" textLength="77.8135" x="995.3083" y="70.7969">Repositories</text><line style="stroke:#181818;stroke-width:0.5;" x1="940" x2="1097.4648" y1="81" y2="81"/><line style="stroke:#181818;stroke-width:0.5;" x1="940" x2="1097.4648" y1="89" y2="89"/><text fill="#000000" font-family="sans-serif" font-size="14" lengthAdjust="spacing" textLength="91.7998" x="945" y="108.1074">-Repositories()</text><text fill="#000000" font-family="sans-serif" font-size="14" lengthAdjust="spacing" text-decoration="underline" textLength="89.8857" x="945" y="126.7285">+getInstance()</text><text fill="#000000" font-family="sans-serif" font-size="14" lengthAdjust="spacing" textLength="131.1133" x="945" y="145.3496">+getMapRepository()</text><text fill="#000000" font-family="sans-serif" font-size="14" lengthAdjust="spacing" textLength="147.4648" x="945" y="163.9707">+getStationRepository()</text></g><!--class BuildStationController--><g id="elem_BuildStationController"><rect codeLine="96" fill="#F1F1F1" height="178.3477" id="BuildStationController" rx="2.5" ry="2.5" style="stroke:#181818;stroke-width:0.5;" width="290.9678" x="365" y="21"/><ellipse cx="438.5308" cy="37" fill="#ADD1B2" rx="11" ry="11" style="stroke:#181818;stroke-width:1.0;"/><path d="M441.2964,32.875 Q441.4526,32.6563 441.6401,32.5469 Q441.8276,32.4375 442.0464,32.4375 Q442.4214,32.4375 442.6558,32.7031 Q442.8901,32.9531 442.8901,33.5625 L442.8901,35.0156 Q442.8901,35.625 442.6558,35.8906 Q442.4214,36.1563 442.0464,36.1563 Q441.7026,36.1563 441.4995,35.9531 Q441.2964,35.7656 441.187,35.25 Q441.1401,34.8906 440.9526,34.7031 Q440.6245,34.3281 440.0151,34.1094 Q439.4058,33.8906 438.7808,33.8906 Q438.0151,33.8906 437.3745,34.2188 Q436.7495,34.5469 436.2495,35.2969 Q435.7651,36.0469 435.7651,37.0781 L435.7651,38.1719 Q435.7651,39.4063 436.6558,40.2344 Q437.5464,41.0469 439.1401,41.0469 Q440.0776,41.0469 440.7339,40.7969 Q441.1245,40.6406 441.5464,40.2031 Q441.812,39.9375 441.9526,39.8594 Q442.1089,39.7813 442.312,39.7813 Q442.6401,39.7813 442.8901,40.0469 Q443.1558,40.2969 443.1558,40.6406 Q443.1558,40.9844 442.812,41.3906 Q442.312,41.9688 441.5151,42.2969 Q440.437,42.75 439.1401,42.75 Q437.6245,42.75 436.4214,42.125 Q435.437,41.625 434.7495,40.5625 Q434.062,39.4844 434.062,38.2031 L434.062,37.0469 Q434.062,35.7188 434.6714,34.5781 Q435.2964,33.4219 436.3901,32.8125 Q437.4839,32.1875 438.7183,32.1875 Q439.4526,32.1875 440.0933,32.3594 Q440.7495,32.5156 441.2964,32.875 Z " fill="#000000"/><text fill="#000000" font-family="sans-serif" font-size="14" lengthAdjust="spacing" textLength="135.4063" x="459.0308" y="42.7969">BuildStationController</text><line style="stroke:#181818;stroke-width:0.5;" x1="366" x2="654.9678" y1="53" y2="53"/><line style="stroke:#181818;stroke-width:0.5;" x1="366" x2="654.9678" y1="61" y2="61"/><text fill="#000000" font-family="sans-serif" font-size="14" lengthAdjust="spacing" textLength="152.9063" x="371" y="80.1074">+BuildStationController()</text><text fill="#000000" font-family="sans-serif" font-size="14" lengthAdjust="spacing" textLength="118.6719" x="371" y="98.7285">+getStationTypes()</text><text fill="#000000" font-family="sans-serif" font-size="14" lengthAdjust="spacing" textLength="110.8789" x="371" y="117.3496">+getCurrentMap()</text><text fill="#000000" font-family="sans-serif" font-size="14" lengthAdjust="spacing" textLength="217.4922" x="371" y="135.9707">+validatePosition(x, y, stationType)</text><text fill="#000000" font-family="sans-serif" font-size="14" lengthAdjust="spacing" textLength="175.4785" x="371" y="154.5918">+generateStationName(x, y)</text><text fill="#000000" font-family="sans-serif" font-size="14" lengthAdjust="spacing" textLength="278.9678" x="371" y="173.2129">+buildStation(x, y, stationType, stationName)</text><text fill="#000000" font-family="sans-serif" font-size="14" lengthAdjust="spacing" textLength="213.9854" x="371" y="191.834">-calculateStationCost(stationType)</text></g><!--class BuildStationUI--><g id="elem_BuildStationUI"><rect codeLine="106" fill="#F1F1F1" height="48" id="BuildStationUI" rx="2.5" ry="2.5" style="stroke:#181818;stroke-width:0.5;" width="120.7168" x="209" y="86"/><ellipse cx="224" cy="102" fill="#ADD1B2" rx="11" ry="11" style="stroke:#181818;stroke-width:1.0;"/><path d="M226.7656,97.875 Q226.9219,97.6563 227.1094,97.5469 Q227.2969,97.4375 227.5156,97.4375 Q227.8906,97.4375 228.125,97.7031 Q228.3594,97.9531 228.3594,98.5625 L228.3594,100.0156 Q228.3594,100.625 228.125,100.8906 Q227.8906,101.1563 227.5156,101.1563 Q227.1719,101.1563 226.9688,100.9531 Q226.7656,100.7656 226.6563,100.25 Q226.6094,99.8906 226.4219,99.7031 Q226.0938,99.3281 225.4844,99.1094 Q224.875,98.8906 224.25,98.8906 Q223.4844,98.8906 222.8438,99.2188 Q222.2188,99.5469 221.7188,100.2969 Q221.2344,101.0469 221.2344,102.0781 L221.2344,103.1719 Q221.2344,104.4063 222.125,105.2344 Q223.0156,106.0469 224.6094,106.0469 Q225.5469,106.0469 226.2031,105.7969 Q226.5938,105.6406 227.0156,105.2031 Q227.2813,104.9375 227.4219,104.8594 Q227.5781,104.7813 227.7813,104.7813 Q228.1094,104.7813 228.3594,105.0469 Q228.625,105.2969 228.625,105.6406 Q228.625,105.9844 228.2813,106.3906 Q227.7813,106.9688 226.9844,107.2969 Q225.9063,107.75 224.6094,107.75 Q223.0938,107.75 221.8906,107.125 Q220.9063,106.625 220.2188,105.5625 Q219.5313,104.4844 219.5313,103.2031 L219.5313,102.0469 Q219.5313,100.7188 220.1406,99.5781 Q220.7656,98.4219 221.8594,97.8125 Q222.9531,97.1875 224.1875,97.1875 Q224.9219,97.1875 225.5625,97.3594 Q226.2188,97.5156 226.7656,97.875 Z " fill="#000000"/><text fill="#000000" font-family="sans-serif" font-size="14" lengthAdjust="spacing" textLength="88.7168" x="238" y="107.7969">BuildStationUI</text><line style="stroke:#181818;stroke-width:0.5;" x1="210" x2="328.7168" y1="118" y2="118"/><line style="stroke:#181818;stroke-width:0.5;" x1="210" x2="328.7168" y1="126" y2="126"/></g><g id="elem_GMN15"><path d="M691.5,87.5 L691.5,106 L656.24,110 L691.5,114 L691.5,132.082 A0,0 0 0 0 691.5,132.082 L903.2979,132.082 A0,0 0 0 0 903.2979,132.082 L903.2979,97.5 L893.2979,87.5 L691.5,87.5 A0,0 0 0 0 691.5,87.5 " fill="#FEFFDD" style="stroke:#181818;stroke-width:0.5;"/><path d="M893.2979,87.5 L893.2979,97.5 L903.2979,97.5 L893.2979,87.5 " fill="#FEFFDD" style="stroke:#181818;stroke-width:0.5;"/><text fill="#000000" font-family="sans-serif" font-size="13" lengthAdjust="spacing" textLength="190.7979" x="697.5" y="106.5283">Station name is generated based</text><text fill="#000000" font-family="sans-serif" font-size="13" lengthAdjust="spacing" textLength="103.3271" x="697.5" y="123.8193">on the closest city</text></g><g id="elem_GMN18"><path d="M851.5,536.5 L851.5,581.082 A0,0 0 0 0 851.5,581.082 L1001.1099,581.082 A0,0 0 0 0 1001.1099,581.082 L1001.1099,546.5 L991.1099,536.5 L923.31,536.5 L868.21,381.52 L915.31,536.5 L851.5,536.5 A0,0 0 0 0 851.5,536.5 " fill="#FEFFDD" style="stroke:#181818;stroke-width:0.5;"/><path d="M991.1099,536.5 L991.1099,546.5 L1001.1099,546.5 L991.1099,536.5 " fill="#FEFFDD" style="stroke:#181818;stroke-width:0.5;"/><text fill="#000000" font-family="sans-serif" font-size="13" lengthAdjust="spacing" textLength="128.6099" x="857.5" y="555.5283">- maintains all stations</text><text fill="#000000" font-family="sans-serif" font-size="13" lengthAdjust="spacing" textLength="124.998" x="857.5" y="572.8193">in the railway network</text></g><!--link BuildStationUI to BuildStationController--><g id="link_BuildStationUI_BuildStationController"><path codeLine="119" d="M330.39,110 C341.59,110 349.83,110 349.83,110 C349.83,110 350.01,110 358.94,110 " fill="none" id="BuildStationUI-to-BuildStationController" style="stroke:#181818;stroke-width:1.0;stroke-dasharray:7.0,7.0;"/><polygon fill="#181818" points="364.94,110,355.94,106,359.94,110,355.94,114,364.94,110" style="stroke:#181818;stroke-width:1.0;"/></g><!--link BuildStationController to ApplicationSession--><g id="link_BuildStationController_ApplicationSession"><path codeLine="121" d="M364.94,189.58 C354.23,195.37 347.5,199 347.5,199 C347.5,199 275.5,229 275.5,229 C275.5,229 225.7537,257.9986 175.4337,287.3286 " fill="none" id="BuildStationController-to-ApplicationSession" style="stroke:#181818;stroke-width:1.0;stroke-dasharray:7.0,7.0;"/><polygon fill="#181818" points="170.25,290.35,180.0399,289.2737,174.5698,287.8321,176.0113,282.362,170.25,290.35" style="stroke:#181818;stroke-width:1.0;"/></g><!--link BuildStationController to UserSession--><g id="link_BuildStationController_UserSession"><path codeLine="122" d="M387.88,199.22 C364.16,216.3 346.5,229 346.5,229 C346.5,229 265.5,400 265.5,400 C265.5,400 229.1663,473.6 206.3163,519.88 " fill="none" id="BuildStationController-to-UserSession" style="stroke:#181818;stroke-width:1.0;stroke-dasharray:7.0,7.0;"/><polygon fill="#181818" points="203.66,525.26,211.2311,518.9609,205.8736,520.7767,204.0578,515.4192,203.66,525.26" style="stroke:#181818;stroke-width:1.0;"/></g><!--link BuildStationController to Station--><g id="link_BuildStationController_Station"><path codeLine="123" d="M552.84,199.39 C572.03,239.45 590.5,278 590.5,278 C590.5,278 630.2496,390.4333 659.5296,473.2333 " fill="none" id="BuildStationController-to-Station" style="stroke:#181818;stroke-width:1.0;stroke-dasharray:7.0,7.0;"/><polygon fill="#181818" points="661.53,478.89,662.3006,469.0713,659.863,474.1761,654.7583,471.7385,661.53,478.89" style="stroke:#181818;stroke-width:1.0;"/></g><!--link BuildStationController to StationType--><g id="link_BuildStationController_StationType"><path codeLine="124" d="M656.06,189.58 C666.77,195.37 673.5,199 673.5,199 C673.5,199 930.5,229 930.5,229 C930.5,229 1019.5,479 1019.5,479 C1019.5,479 1019.5,639 1019.5,639 C1019.5,639 1003.6182,684.712 987.7282,730.472 " fill="none" id="BuildStationController-to-StationType" style="stroke:#181818;stroke-width:1.0;stroke-dasharray:7.0,7.0;"/><polygon fill="#181818" points="985.76,736.14,992.491,728.9501,987.4002,731.4167,984.9336,726.3259,985.76,736.14" style="stroke:#181818;stroke-width:1.0;"/></g><!--link BuildStationController to Map--><g id="link_BuildStationController_Map"><path codeLine="125" d="M467.63,199.39 C448.2,239.45 429.5,278 429.5,278 C429.5,278 429.5,400 429.5,400 C429.5,400 448.9475,592.5303 460.9975,711.9303 " fill="none" id="BuildStationController-to-Map" style="stroke:#181818;stroke-width:1.0;stroke-dasharray:7.0,7.0;"/><polygon fill="#181818" points="461.6,717.9,464.6761,708.5438,461.0979,712.9253,456.7165,709.3471,461.6,717.9" style="stroke:#181818;stroke-width:1.0;"/></g><!--link BuildStationController to MapRepository--><g id="link_BuildStationController_MapRepository"><path codeLine="126" d="M510.5,199.09 C510.5,236.35 510.5,271.47 510.5,299.23 " fill="none" id="BuildStationController-to-MapRepository" style="stroke:#181818;stroke-width:1.0;stroke-dasharray:7.0,7.0;"/><polygon fill="#181818" points="510.5,305.23,514.5,296.23,510.5,300.23,506.5,296.23,510.5,305.23" style="stroke:#181818;stroke-width:1.0;"/></g><!--link BuildStationController to StationRepository--><g id="link_BuildStationController_StationRepository"><path codeLine="127" d="M643.99,199.09 C694.79,232.61 745.3113,265.9565 786.5813,293.1765 " fill="none" id="BuildStationController-to-StationRepository" style="stroke:#181818;stroke-width:1.0;stroke-dasharray:7.0,7.0;"/><polygon fill="#181818" points="791.59,296.48,786.2793,288.1856,787.4161,293.7271,781.8746,294.8638,791.59,296.48" style="stroke:#181818;stroke-width:1.0;"/></g><!--link BuildStationController to Repositories--><g id="link_BuildStationController_Repositories"><path codeLine="128" d="M656.2,26.05 C676.72,14.23 691,6 691,6 C691,6 904,6 904,6 C904,6 921.5,21 921.5,21 C921.5,21 930.5785,29.3341 947.5085,44.8641 " fill="none" id="BuildStationController-to-Repositories" style="stroke:#181818;stroke-width:1.0;stroke-dasharray:7.0,7.0;"/><polygon fill="#181818" points="951.93,48.92,948.0017,39.8885,948.2454,45.5401,942.5938,45.7838,951.93,48.92" style="stroke:#181818;stroke-width:1.0;"/></g><!--link Repositories to Repositories--><g id="link_Repositories_Repositories"><path codeLine="130" d="M1098.23,86.33 C1118.13,87.98 1133,95.88 1133,110 C1133,124.12 1124.1095,131.5242 1104.2095,133.1742 " fill="none" id="Repositories-to-Repositories" style="stroke:#181818;stroke-width:1.0;"/><polygon fill="#181818" points="1098.23,133.67,1107.5297,136.9126,1103.2129,133.2568,1106.8687,128.94,1098.23,133.67" style="stroke:#181818;stroke-width:1.0;"/><text fill="#000000" font-family="sans-serif" font-size="13" lengthAdjust="spacing" textLength="48.4199" x="1139" y="115.5283">instance</text><text fill="#000000" font-family="sans-serif" font-size="13" lengthAdjust="spacing" textLength="7.23" x="1106.4114" y="132.1821">1</text></g><!--link Repositories to MapRepository--><g id="link_Repositories_MapRepository"><path codeLine="131" d="M952.19,171.16 C935.14,186.62 921.5,199 921.5,199 C921.5,199 694.7938,275.6778 579.5038,314.6678 " fill="none" id="Repositories-to-MapRepository" style="stroke:#181818;stroke-width:1.0;"/><polygon fill="#181818" points="573.82,316.59,583.6271,317.4959,578.5565,314.9882,581.0642,309.9175,573.82,316.59" style="stroke:#181818;stroke-width:1.0;"/><text fill="#000000" font-family="sans-serif" font-size="13" lengthAdjust="spacing" textLength="87.4263" x="834.5" y="244.0283">mapRepository</text><text fill="#000000" font-family="sans-serif" font-size="13" lengthAdjust="spacing" textLength="7.23" x="581.5506" y="310.0831">1</text></g><!--link Repositories to StationRepository--><g id="link_Repositories_StationRepository"><path codeLine="132" d="M1011.04,171.09 C1006.48,207.9 1001.5,248 1001.5,248 C1001.5,248 966.037,269.7068 927.527,293.2868 " fill="none" id="Repositories-to-StationRepository" style="stroke:#181818;stroke-width:1.0;"/><polygon fill="#181818" points="922.41,296.42,932.1742,295.1316,926.6741,293.809,927.9967,288.309,922.41,296.42" style="stroke:#181818;stroke-width:1.0;"/><text fill="#000000" font-family="sans-serif" font-size="13" lengthAdjust="spacing" textLength="100.439" x="1004.5" y="244.0283">stationRepository</text><text fill="#000000" font-family="sans-serif" font-size="13" lengthAdjust="spacing" textLength="7.23" x="925.7333" y="285.3113">1</text></g><!--link ApplicationSession to ApplicationSession--><g id="link_ApplicationSession_ApplicationSession"><path codeLine="134" d="M170.16,320.54 C190.13,321.91 205,328.06 205,339 C205,349.94 196.1159,355.6793 176.1459,357.0493 " fill="none" id="ApplicationSession-to-ApplicationSession" style="stroke:#181818;stroke-width:1.0;"/><polygon fill="#181818" points="170.16,357.46,179.4127,360.8346,175.1483,357.1178,178.8651,352.8534,170.16,357.46" style="stroke:#181818;stroke-width:1.0;"/><text fill="#000000" font-family="sans-serif" font-size="13" lengthAdjust="spacing" textLength="48.4199" x="211" y="344.5283">instance</text><text fill="#000000" font-family="sans-serif" font-size="13" lengthAdjust="spacing" textLength="7.23" x="178.2692" y="355.4284">1</text></g><!--link ApplicationSession to UserSession--><g id="link_ApplicationSession_UserSession"><path codeLine="135" d="M115.81,400.15 C134.19,440.6 155.2199,486.9166 170.1999,519.9166 " fill="none" id="ApplicationSession-to-UserSession" style="stroke:#181818;stroke-width:1.0;stroke-dasharray:7.0,7.0;"/><polygon fill="#181818" points="172.68,525.38,172.6022,515.5314,170.6133,520.8271,165.3176,518.8382,172.68,525.38" style="stroke:#181818;stroke-width:1.0;"/></g><!--link MapRepository to Map--><g id="link_MapRepository_Map"><path codeLine="137" d="M503,372.59 C493.54,413.67 478.5,479 478.5,479 C478.5,479 475.1668,615.0918 472.7968,711.9418 " fill="none" id="MapRepository-to-Map" style="stroke:#181818;stroke-width:1.0;"/><polygon fill="#181818" points="472.65,717.94,476.869,709.0405,472.7723,712.9415,468.8714,708.8448,472.65,717.94" style="stroke:#181818;stroke-width:1.0;"/><text fill="#000000" font-family="sans-serif" font-size="13" lengthAdjust="spacing" textLength="65.749" x="479.5" y="564.5283">currentMap</text><text fill="#000000" font-family="sans-serif" font-size="13" lengthAdjust="spacing" textLength="7.23" x="465.5445" y="706.8868">1</text></g><!--link StationRepository to Station--><g id="link_StationRepository_Station"><path codeLine="139" d="M823.08,381.52 C802.32,408.94 778.0704,440.9754 753.1604,473.8954 " fill="none" id="StationRepository-to-Station" style="stroke:#181818;stroke-width:1.0;"/><polygon fill="#181818" points="749.54,478.68,758.1604,473.9167,752.557,474.6928,751.7809,469.0895,749.54,478.68" style="stroke:#181818;stroke-width:1.0;"/><text fill="#000000" font-family="sans-serif" font-size="13" lengthAdjust="spacing" textLength="44.8018" x="783.5" y="445.0283">stations</text><text fill="#000000" font-family="sans-serif" font-size="13" lengthAdjust="spacing" textLength="5.0591" x="749.6749" y="467.8229">*</text></g><!--link Map to City--><g id="link_Map_City"><path codeLine="141" d="M494.33,896.06 C501.37,922.07 507.4018,944.3686 514.0818,969.0386 " fill="none" id="Map-to-City" style="stroke:#181818;stroke-width:1.0;"/><polygon fill="#181818" points="515.65,974.83,517.1587,965.0974,514.3432,970.0038,509.4368,967.1883,515.65,974.83" style="stroke:#181818;stroke-width:1.0;"/><text fill="#000000" font-family="sans-serif" font-size="13" lengthAdjust="spacing" textLength="29.6182" x="507.5" y="941.0283">cities</text><text fill="#000000" font-family="sans-serif" font-size="13" lengthAdjust="spacing" textLength="5.0591" x="508.4763" y="963.7035">*</text></g><!--link Station to StationType--><g id="link_Station_StationType"><path codeLine="143" d="M777.06,639.19 C820.08,678.1 866.0795,719.7059 903.3395,753.3959 " fill="none" id="Station-to-StationType" style="stroke:#181818;stroke-width:1.0;"/><polygon fill="#181818" points="907.79,757.42,903.797,748.4169,904.0813,754.0666,898.4316,754.3509,907.79,757.42" style="stroke:#181818;stroke-width:1.0;"/><text fill="#000000" font-family="sans-serif" font-size="13" lengthAdjust="spacing" textLength="24.5718" x="826.5" y="684.0283">type</text><text fill="#000000" font-family="sans-serif" font-size="13" lengthAdjust="spacing" textLength="7.23" x="892.7814" y="746.2939">1</text></g><!--link Station to Location--><g id="link_Station_Location"><path codeLine="144" d="M681.66,639.09 C665.39,803.09 629.5,1165 629.5,1165 C629.5,1165 628.1865,1172.2255 625.1665,1188.9455 " fill="none" id="Station-to-Location" style="stroke:#181818;stroke-width:1.0;"/><polygon fill="#181818" points="624.1,1194.85,629.636,1186.7043,624.9887,1189.9296,621.7634,1185.2823,624.1,1194.85" style="stroke:#181818;stroke-width:1.0;"/><text fill="#000000" font-family="sans-serif" font-size="13" lengthAdjust="spacing" textLength="44.8081" x="654.5" y="941.0283">location</text><text fill="#000000" font-family="sans-serif" font-size="13" lengthAdjust="spacing" textLength="7.23" x="618.0395" y="1183.7255">1</text></g><!--link Station to Map--><g id="link_Station_Map"><path codeLine="145" d="M619,639.19 C596.74,664.19 575.9996,687.4885 553.2096,713.0885 " fill="none" id="Station-to-Map" style="stroke:#181818;stroke-width:1.0;"/><polygon fill="#181818" points="549.22,717.57,558.192,713.5075,552.5446,713.8354,552.2167,708.1881,549.22,717.57" style="stroke:#181818;stroke-width:1.0;"/><text fill="#000000" font-family="sans-serif" font-size="13" lengthAdjust="spacing" textLength="25.2891" x="588.5" y="684.0283">map</text><text fill="#000000" font-family="sans-serif" font-size="13" lengthAdjust="spacing" textLength="7.23" x="548.2201" y="706.7923">1</text></g><!--link City to Location--><g id="link_City_Location"><path codeLine="147" d="M559.07,1116.08 C567.97,1141.25 576.0025,1164.0023 584.8925,1189.1823 " fill="none" id="City-to-Location" style="stroke:#181818;stroke-width:1.0;"/><polygon fill="#181818" points="586.89,1194.84,587.6656,1185.0217,585.2254,1190.1252,580.1219,1187.6851,586.89,1194.84" style="stroke:#181818;stroke-width:1.0;"/><text fill="#000000" font-family="sans-serif" font-size="13" lengthAdjust="spacing" textLength="44.8081" x="576.5" y="1161.0283">location</text><text fill="#000000" font-family="sans-serif" font-size="13" lengthAdjust="spacing" textLength="7.23" x="576.9922" y="1183.7145">1</text></g><!--link UserSession to Player--><g id="link_UserSession_Player"><path codeLine="149" d="M187.5,592.67 C187.5,631.61 187.5,691.49 187.5,739.76 " fill="none" id="UserSession-to-Player" style="stroke:#181818;stroke-width:1.0;"/><polygon fill="#181818" points="187.5,745.76,191.5,736.76,187.5,740.76,183.5,736.76,187.5,745.76" style="stroke:#181818;stroke-width:1.0;"/><text fill="#000000" font-family="sans-serif" font-size="13" lengthAdjust="spacing" textLength="35.4072" x="188.5" y="684.0283">player</text><text fill="#000000" font-family="sans-serif" font-size="13" lengthAdjust="spacing" textLength="7.23" x="180.0861" y="734.7135">1</text></g><!--SRC=[ZLPDR-8m4BtxLrYzb6vfjNj5AoJAze14FrIej7iqYG4BnuviPscswd_ViMC7cmHQ9AHatdZcpVFOaqkzOw8aYXIua49cMoKBYesgA3eW9SbsP4CNfkOKAveP8ZOyTj1Raiiz4nky9bp726U2chgak9IyjY_eiWUKoaWKhSeuqNfYZ6Ahoj1P9iM2_QFuEqANdAuDDX8hjjaQd3DBXqc1a5k39sN9MKQiQK6rjiWxml2xwO46Lmwwnk_QW3txm1jgPW9UH4PR46pJIYagpF6ogio9eNTL3Yu3KiXAc2lq4QYyQgfI3YxMCoSrLOF8iR7Wm9FbU8GNKBlOU8iWi2T7jfNB2jPSLYlOZ2zHMXXNVfkgBx3Ra55mNSAR1nJ9MQK1Oi9uKoPrHA6nSTbe3FQvVmpaVCp1sn3NGvTyYFKXpn0Nf7HigQYAc84d_El- -MdfdXRBoNBszEYUb_Sl3xF7oHmTD7vnL9CT1AQnve5QAyLRKbZjtto0uEsOHr5_nod-nF4VI7bMvJtBpJP9kQMkenDvcM7KAZvdsloSCbEFGu-8lD8Gxu3E6WjuU4P_2MUs5xoCprApIFn8zb326e9EkTHK6vlArzfMP6rdI-hRU5-Qh3Iz0todKrr1jKU85AlOIfsA-K9BMu1KWKDyBW4VTBkyPmd9yz23Ne0eiqTq7AgDOPKEnSV6BryXIGs3Rje4RFFVLOm7obCfZ9ASjrV5zGcu9xhTPzrpepNAfGtpUQTigA3gq5fk2-EJiOfeTQEqBtRTLMXrmhEA7sAwyvgaxjNaTGPQ02AaeNuaoFK9MPgBmz-0he6PRal9yOfecZiVWCsMmX1oPy6UmXfkf1pR93xLIXeZ2vkhits-e890dyDVOy9vg5Wxa3Nn5M5yJseCCt0lrIvASLJXxVXKHUX4Vzp2afv9UCOx7bPdtBpr2ovkS9nnWyxx18ua_JpT5vp7oS55A3dRDsDyyUCYFU_sgceEyf6lTqwlfP6TNX6DtYNTgsaKUYDQYhfx5mZs817D7lHuSr7AEge50cNjhO1Gbwhp_TOMSQ2kNTGMTvDYvATN6-XOWsNpdM4_DpekyyCe2LEbuzCmBYnLb_3SMXGfq3hwpwuHBjt3Vm00]--></g></svg>