<svg xmlns="http://www.w3.org/2000/svg" xmlns:xlink="http://www.w3.org/1999/xlink" contentStyleType="text/css" height="507px" preserveAspectRatio="none" style="width:447px;height:507px;background:#FFFFFF;" version="1.1" viewBox="0 0 447 507" width="447px" zoomAndPan="magnify"><title>System Sequence Diagram (SD) - US08 Build Railway Line</title><defs/><g><text fill="#000000" font-family="sans-serif" font-size="14" font-weight="bold" lengthAdjust="spacing" textLength="396.7852" x="24.291" y="30.1074">System Sequence Diagram (SSD) - US08 Build Railway Line</text><rect fill="#FFFFFF" height="273.6191" style="stroke:#181818;stroke-width:1.0;" width="10" x="22.8413" y="133.2422"/><rect fill="#FFFFFF" height="31.291" style="stroke:#181818;stroke-width:1.0;" width="10" x="404.0845" y="156.5332"/><rect fill="#FFFFFF" height="31.291" style="stroke:#181818;stroke-width:1.0;" width="10" x="404.0845" y="219.1152"/><rect fill="#FFFFFF" height="31.291" style="stroke:#181818;stroke-width:1.0;" width="10" x="404.0845" y="281.6973"/><rect fill="#FFFFFF" height="62.582" style="stroke:#181818;stroke-width:1.0;" width="10" x="404.0845" y="344.2793"/><line style="stroke:#181818;stroke-width:0.5;stroke-dasharray:5.0,5.0;" x1="27" x2="27" y1="123.2422" y2="424.8613"/><line style="stroke:#181818;stroke-width:0.5;stroke-dasharray:5.0,5.0;" x1="408.8018" x2="408.8018" y1="123.2422" y2="424.8613"/><text fill="#000000" font-family="sans-serif" font-size="14" lengthAdjust="spacing" textLength="39.6826" x="5" y="119.7285">Player</text><ellipse cx="27.8413" cy="53.1211" fill="#E2E2F0" rx="8" ry="8" style="stroke:#181818;stroke-width:0.5;"/><path d="M27.8413,61.1211 L27.8413,88.1211 M14.8413,69.1211 L40.8413,69.1211 M27.8413,88.1211 L14.8413,103.1211 M27.8413,88.1211 L40.8413,103.1211 " fill="none" style="stroke:#181818;stroke-width:0.5;"/><text fill="#000000" font-family="sans-serif" font-size="14" lengthAdjust="spacing" textLength="39.6826" x="5" y="438.9688">Player</text><ellipse cx="27.8413" cy="450.9824" fill="#E2E2F0" rx="8" ry="8" style="stroke:#181818;stroke-width:0.5;"/><path d="M27.8413,458.9824 L27.8413,485.9824 M14.8413,466.9824 L40.8413,466.9824 M27.8413,485.9824 L14.8413,500.9824 M27.8413,485.9824 L40.8413,500.9824 " fill="none" style="stroke:#181818;stroke-width:0.5;"/><rect fill="#E2E2F0" height="32.6211" rx="2.5" ry="2.5" style="stroke:#181818;stroke-width:0.5;" width="64.5654" x="376.8018" y="89.6211"/><text fill="#000000" font-family="sans-serif" font-size="14" lengthAdjust="spacing" textLength="50.5654" x="383.8018" y="111.7285">:System</text><rect fill="#E2E2F0" height="32.6211" rx="2.5" ry="2.5" style="stroke:#181818;stroke-width:0.5;" width="64.5654" x="376.8018" y="423.8613"/><text fill="#000000" font-family="sans-serif" font-size="14" lengthAdjust="spacing" textLength="50.5654" x="383.8018" y="445.9688">:System</text><rect fill="#FFFFFF" height="273.6191" style="stroke:#181818;stroke-width:1.0;" width="10" x="22.8413" y="133.2422"/><rect fill="#FFFFFF" height="31.291" style="stroke:#181818;stroke-width:1.0;" width="10" x="404.0845" y="156.5332"/><rect fill="#FFFFFF" height="31.291" style="stroke:#181818;stroke-width:1.0;" width="10" x="404.0845" y="219.1152"/><rect fill="#FFFFFF" height="31.291" style="stroke:#181818;stroke-width:1.0;" width="10" x="404.0845" y="281.6973"/><rect fill="#FFFFFF" height="62.582" style="stroke:#181818;stroke-width:1.0;" width="10" x="404.0845" y="344.2793"/><polygon fill="#181818" points="392.0845,152.5332,402.0845,156.5332,392.0845,160.5332,396.0845,156.5332" style="stroke:#181818;stroke-width:1.0;"/><line style="stroke:#181818;stroke-width:1.0;" x1="32.8413" x2="398.0845" y1="156.5332" y2="156.5332"/><text fill="#000000" font-family="sans-serif" font-size="13" font-weight="bold" lengthAdjust="spacing" textLength="7.23" x="39.8413" y="151.2705">1</text><text fill="#000000" font-family="sans-serif" font-size="13" lengthAdjust="spacing" textLength="174.1479" x="51.0713" y="151.2705">requests to build a railway line</text><polygon fill="#181818" points="43.8413,183.8242,33.8413,187.8242,43.8413,191.8242,39.8413,187.8242" style="stroke:#181818;stroke-width:1.0;"/><line style="stroke:#181818;stroke-width:1.0;stroke-dasharray:2.0,2.0;" x1="37.8413" x2="408.0845" y1="187.8242" y2="187.8242"/><text fill="#000000" font-family="sans-serif" font-size="13" font-weight="bold" lengthAdjust="spacing" textLength="7.23" x="49.8413" y="182.5615">2</text><text fill="#000000" font-family="sans-serif" font-size="13" lengthAdjust="spacing" textLength="336.0132" x="61.0713" y="182.5615">shows available stations and asks to select starting station</text><polygon fill="#181818" points="392.0845,215.1152,402.0845,219.1152,392.0845,223.1152,396.0845,219.1152" style="stroke:#181818;stroke-width:1.0;"/><line style="stroke:#181818;stroke-width:1.0;" x1="32.8413" x2="398.0845" y1="219.1152" y2="219.1152"/><text fill="#000000" font-family="sans-serif" font-size="13" font-weight="bold" lengthAdjust="spacing" textLength="7.23" x="39.8413" y="213.8525">3</text><text fill="#000000" font-family="sans-serif" font-size="13" lengthAdjust="spacing" textLength="128.6162" x="51.0713" y="213.8525">selects starting station</text><polygon fill="#181818" points="43.8413,246.4063,33.8413,250.4063,43.8413,254.4063,39.8413,250.4063" style="stroke:#181818;stroke-width:1.0;"/><line style="stroke:#181818;stroke-width:1.0;stroke-dasharray:2.0,2.0;" x1="37.8413" x2="408.0845" y1="250.4063" y2="250.4063"/><text fill="#000000" font-family="sans-serif" font-size="13" font-weight="bold" lengthAdjust="spacing" textLength="7.23" x="49.8413" y="245.1436">4</text><text fill="#000000" font-family="sans-serif" font-size="13" lengthAdjust="spacing" textLength="206.6797" x="61.0713" y="245.1436">shows available destination stations</text><polygon fill="#181818" points="392.0845,277.6973,402.0845,281.6973,392.0845,285.6973,396.0845,281.6973" style="stroke:#181818;stroke-width:1.0;"/><line style="stroke:#181818;stroke-width:1.0;" x1="32.8413" x2="398.0845" y1="281.6973" y2="281.6973"/><text fill="#000000" font-family="sans-serif" font-size="13" font-weight="bold" lengthAdjust="spacing" textLength="7.23" x="39.8413" y="276.4346">5</text><text fill="#000000" font-family="sans-serif" font-size="13" lengthAdjust="spacing" textLength="148.8652" x="51.0713" y="276.4346">selects destination station</text><polygon fill="#181818" points="43.8413,308.9883,33.8413,312.9883,43.8413,316.9883,39.8413,312.9883" style="stroke:#181818;stroke-width:1.0;"/><line style="stroke:#181818;stroke-width:1.0;stroke-dasharray:2.0,2.0;" x1="37.8413" x2="408.0845" y1="312.9883" y2="312.9883"/><text fill="#000000" font-family="sans-serif" font-size="13" font-weight="bold" lengthAdjust="spacing" textLength="7.23" x="49.8413" y="307.7256">6</text><text fill="#000000" font-family="sans-serif" font-size="13" lengthAdjust="spacing" textLength="224.7261" x="61.0713" y="307.7256">calculates and shows construction cost</text><polygon fill="#181818" points="392.0845,340.2793,402.0845,344.2793,392.0845,348.2793,396.0845,344.2793" style="stroke:#181818;stroke-width:1.0;"/><line style="stroke:#181818;stroke-width:1.0;" x1="32.8413" x2="398.0845" y1="344.2793" y2="344.2793"/><text fill="#000000" font-family="sans-serif" font-size="13" font-weight="bold" lengthAdjust="spacing" textLength="7.23" x="39.8413" y="339.0166">7</text><text fill="#000000" font-family="sans-serif" font-size="13" lengthAdjust="spacing" textLength="122.8208" x="51.0713" y="339.0166">confirms construction</text><polygon fill="#181818" points="43.8413,371.5703,33.8413,375.5703,43.8413,379.5703,39.8413,375.5703" style="stroke:#181818;stroke-width:1.0;"/><line style="stroke:#181818;stroke-width:1.0;stroke-dasharray:2.0,2.0;" x1="37.8413" x2="403.0845" y1="375.5703" y2="375.5703"/><text fill="#000000" font-family="sans-serif" font-size="13" font-weight="bold" lengthAdjust="spacing" textLength="7.23" x="49.8413" y="370.3076">8</text><text fill="#000000" font-family="sans-serif" font-size="13" lengthAdjust="spacing" textLength="242.7915" x="61.0713" y="370.3076">validates resources and builds railway line</text><polygon fill="#181818" points="38.8413,402.8613,28.8413,406.8613,38.8413,410.8613,34.8413,406.8613" style="stroke:#181818;stroke-width:1.0;"/><line style="stroke:#181818;stroke-width:1.0;stroke-dasharray:2.0,2.0;" x1="32.8413" x2="408.0845" y1="406.8613" y2="406.8613"/><text fill="#000000" font-family="sans-serif" font-size="13" font-weight="bold" lengthAdjust="spacing" textLength="7.23" x="44.8413" y="401.5986">9</text><text fill="#000000" font-family="sans-serif" font-size="13" lengthAdjust="spacing" textLength="155.3589" x="56.0713" y="401.5986">displays operation success</text><!--SRC=[fP8zRm8n343t-nKMKpiWTQmOAhM2ZKg8QmT6atDfH2wvnWw8VrzVBg1-m42RAOhjvnVBOiKHr0SMQg6cZqJU44mjRYAsS5FNqriOmsjzTmzFoRe6bcZT7Wymjvwg2fC4dzerHRqR2H562uS7YYD0XiNySJLRLXr6iSPsw0L6aw5NZjUh-cNsd2lj3eME1HNe6UumVYXfC87O-x4mI81rja68nSVrFdtT2LReK4wXZ1LOq1FWzx1dm9qoSArpO46nmUkJLpPlSoScHqRwc7x3Ruv96TpGptQNt0SAdyVynxdHYLYVMIV_FxgTGLsjPz2Pv3Hv6E9WQzH9OZAPR0BBbO9Q_sPZ-nrqjTeEdMsoMIGEAPhYc5U9Vs_I9KvZkTCbPmWTnJAjP9HsSUvVdigAVm80]--></g></svg>