<svg xmlns="http://www.w3.org/2000/svg" xmlns:xlink="http://www.w3.org/1999/xlink" contentStyleType="text/css" data-diagram-type="CLASS" height="651px" preserveAspectRatio="none" style="width:450px;height:651px;background:#FFFFFF;" version="1.1" viewBox="0 0 450 651" width="450px" zoomAndPan="magnify"><title>Create Map System Design</title><defs/><g><text fill="#000000" font-family="sans-serif" font-size="14" font-weight="bold" lengthAdjust="spacing" textLength="212.8848" x="111.9904" y="22.9951">Create Map System Design</text><!--class Map--><g class="entity" data-entity="Map" data-source-line="3" data-uid="ent0002" id="entity_Map"><rect fill="#F1F1F1" height="162.0781" rx="2.5" ry="2.5" style="stroke:#181818;stroke-width:0.5;" width="162.5547" x="7" y="482.3769"/><ellipse cx="69.2549" cy="498.3769" fill="#ADD1B2" rx="11" ry="11" style="stroke:#181818;stroke-width:1;"/><path d="M72.2236,504.0175 Q71.6455,504.3144 71.0049,504.455 Q70.3643,504.6112 69.6611,504.6112 Q67.1611,504.6112 65.833,502.9706 Q64.5205,501.3144 64.5205,498.1894 Q64.5205,495.0644 65.833,493.4081 Q67.1611,491.7519 69.6611,491.7519 Q70.3643,491.7519 71.0049,491.9081 Q71.6611,492.0644 72.2236,492.3612 L72.2236,495.08 Q71.5986,494.5019 71.0049,494.2362 Q70.4111,493.955 69.7861,493.955 Q68.4424,493.955 67.7549,495.0331 Q67.0674,496.0956 67.0674,498.1894 Q67.0674,500.2831 67.7549,501.3612 Q68.4424,502.4237 69.7861,502.4237 Q70.4111,502.4237 71.0049,502.1581 Q71.5986,501.8769 72.2236,501.2987 L72.2236,504.0175 Z " fill="#000000"/><text fill="#000000" font-family="sans-serif" font-size="14" lengthAdjust="spacing" textLength="29.5449" x="89.7549" y="503.2236">Map</text><line style="stroke:#181818;stroke-width:0.5;" x1="8" x2="168.5547" y1="514.3769" y2="514.3769"/><rect fill="none" height="6" style="stroke:#C82930;stroke-width:1;" width="6" x="15" y="525.0253"/><text fill="#000000" font-family="sans-serif" font-size="14" lengthAdjust="spacing" textLength="85.9346" x="27" y="531.372">String name</text><rect fill="none" height="6" style="stroke:#C82930;stroke-width:1;" width="6" x="15" y="541.3222"/><text fill="#000000" font-family="sans-serif" font-size="14" lengthAdjust="spacing" textLength="61.291" x="27" y="547.6689">int width</text><rect fill="none" height="6" style="stroke:#C82930;stroke-width:1;" width="6" x="15" y="557.6191"/><text fill="#000000" font-family="sans-serif" font-size="14" lengthAdjust="spacing" textLength="67.3271" x="27" y="563.9657">int height</text><line style="stroke:#181818;stroke-width:0.5;" x1="8" x2="168.5547" y1="571.2675" y2="571.2675"/><ellipse cx="18" cy="584.9159" fill="#84BE84" rx="3" ry="3" style="stroke:#038048;stroke-width:1;"/><text fill="#000000" font-family="sans-serif" font-size="14" lengthAdjust="spacing" textLength="136.5547" x="27" y="588.2626">Map(String, int, int)</text><ellipse cx="18" cy="601.2128" fill="#84BE84" rx="3" ry="3" style="stroke:#038048;stroke-width:1;"/><text fill="#000000" font-family="sans-serif" font-size="14" lengthAdjust="spacing" textLength="121.4473" x="27" y="604.5595">String getName()</text><ellipse cx="18" cy="617.5097" fill="#84BE84" rx="3" ry="3" style="stroke:#038048;stroke-width:1;"/><text fill="#000000" font-family="sans-serif" font-size="14" lengthAdjust="spacing" textLength="97.5967" x="27" y="620.8564">int getWidth()</text><ellipse cx="18" cy="633.8066" fill="#84BE84" rx="3" ry="3" style="stroke:#038048;stroke-width:1;"/><text fill="#000000" font-family="sans-serif" font-size="14" lengthAdjust="spacing" textLength="102.8945" x="27" y="637.1532">int getHeight()</text></g><!--class MapService--><g class="entity" data-entity="MapService" data-source-line="13" data-uid="ent0003" id="entity_MapService"><rect fill="#F1F1F1" height="96.8906" rx="2.5" ry="2.5" style="stroke:#181818;stroke-width:0.5;" width="241.2979" x="85.63" y="325.4869"/><ellipse cx="161.3859" cy="341.4869" fill="#ADD1B2" rx="11" ry="11" style="stroke:#181818;stroke-width:1;"/><path d="M164.3546,347.1275 Q163.7765,347.4244 163.1359,347.565 Q162.4952,347.7212 161.7921,347.7212 Q159.2921,347.7212 157.964,346.0806 Q156.6515,344.4244 156.6515,341.2994 Q156.6515,338.1744 157.964,336.5181 Q159.2921,334.8619 161.7921,334.8619 Q162.4952,334.8619 163.1359,335.0181 Q163.7921,335.1744 164.3546,335.4712 L164.3546,338.19 Q163.7296,337.6119 163.1359,337.3462 Q162.5421,337.065 161.9171,337.065 Q160.5734,337.065 159.8859,338.1431 Q159.1984,339.2056 159.1984,341.2994 Q159.1984,343.3931 159.8859,344.4712 Q160.5734,345.5337 161.9171,345.5337 Q162.5421,345.5337 163.1359,345.2681 Q163.7296,344.9869 164.3546,344.4087 L164.3546,347.1275 Z " fill="#000000"/><text fill="#000000" font-family="sans-serif" font-size="14" lengthAdjust="spacing" textLength="81.2861" x="181.8859" y="346.3336">MapService</text><line style="stroke:#181818;stroke-width:0.5;" x1="86.63" x2="325.9279" y1="357.4869" y2="357.4869"/><rect fill="none" height="6" style="stroke:#C82930;stroke-width:1;" width="6" x="93.63" y="368.1353"/><text fill="#000000" font-family="sans-serif" font-size="14" lengthAdjust="spacing" textLength="215.2432" x="105.63" y="374.482">MapRepository mapRepository</text><line style="stroke:#181818;stroke-width:0.5;" x1="86.63" x2="325.9279" y1="381.7837" y2="381.7837"/><ellipse cx="96.63" cy="395.4322" fill="#84BE84" rx="3" ry="3" style="stroke:#038048;stroke-width:1;"/><text fill="#000000" font-family="sans-serif" font-size="14" lengthAdjust="spacing" textLength="215.2979" x="105.63" y="398.7789">Map createMap(String, int, int)</text><rect fill="#F24D5C" height="6" style="stroke:#C82930;stroke-width:1;" width="6" x="93.63" y="408.7291"/><text fill="#000000" font-family="sans-serif" font-size="14" lengthAdjust="spacing" textLength="214.9971" x="105.63" y="415.0757">boolean isNameUnique(String)</text></g><!--class MapRepository--><g class="entity" data-entity="MapRepository" data-source-line="19" data-uid="ent0004" id="entity_MapRepository"><rect fill="#F1F1F1" height="96.8906" rx="2.5" ry="2.5" style="stroke:#181818;stroke-width:0.5;" width="239.1855" x="204.68" y="514.9769"/><ellipse cx="267.7142" cy="530.9769" fill="#ADD1B2" rx="11" ry="11" style="stroke:#181818;stroke-width:1;"/><path d="M270.6829,536.6175 Q270.1048,536.9144 269.4642,537.055 Q268.8236,537.2113 268.1204,537.2113 Q265.6204,537.2113 264.2923,535.5706 Q262.9798,533.9144 262.9798,530.7894 Q262.9798,527.6644 264.2923,526.0081 Q265.6204,524.3519 268.1204,524.3519 Q268.8236,524.3519 269.4642,524.5081 Q270.1204,524.6644 270.6829,524.9613 L270.6829,527.68 Q270.0579,527.1019 269.4642,526.8363 Q268.8704,526.555 268.2454,526.555 Q266.9017,526.555 266.2142,527.6331 Q265.5267,528.6956 265.5267,530.7894 Q265.5267,532.8831 266.2142,533.9613 Q266.9017,535.0238 268.2454,535.0238 Q268.8704,535.0238 269.4642,534.7581 Q270.0579,534.4769 270.6829,533.8988 L270.6829,536.6175 Z " fill="#000000"/><text fill="#000000" font-family="sans-serif" font-size="14" lengthAdjust="spacing" textLength="104.6172" x="288.2142" y="535.8236">MapRepository</text><line style="stroke:#181818;stroke-width:0.5;" x1="205.68" x2="442.8655" y1="546.9769" y2="546.9769"/><rect fill="none" height="6" style="stroke:#C82930;stroke-width:1;" width="6" x="212.68" y="557.6253"/><text fill="#000000" font-family="sans-serif" font-size="14" lengthAdjust="spacing" textLength="120.3262" x="224.68" y="563.972">List&lt;Map&gt; maps</text><line style="stroke:#181818;stroke-width:0.5;" x1="205.68" x2="442.8655" y1="571.2738" y2="571.2738"/><ellipse cx="215.68" cy="584.9222" fill="#84BE84" rx="3" ry="3" style="stroke:#038048;stroke-width:1;"/><text fill="#000000" font-family="sans-serif" font-size="14" lengthAdjust="spacing" textLength="107.3174" x="224.68" y="588.2689">void save(Map)</text><ellipse cx="215.68" cy="601.2191" fill="#84BE84" rx="3" ry="3" style="stroke:#038048;stroke-width:1;"/><text fill="#000000" font-family="sans-serif" font-size="14" lengthAdjust="spacing" textLength="213.1855" x="224.68" y="604.5657">boolean existsByName(String)</text></g><!--class CreateMapUI--><g class="entity" data-entity="CreateMapUI" data-source-line="25" data-uid="ent0005" id="entity_CreateMapUI"><rect fill="#F1F1F1" height="96.8906" rx="2.5" ry="2.5" style="stroke:#181818;stroke-width:0.5;" width="177.0674" x="117.74" y="44.2969"/><ellipse cx="157.1841" cy="60.2969" fill="#ADD1B2" rx="11" ry="11" style="stroke:#181818;stroke-width:1;"/><path d="M160.1529,65.9375 Q159.5748,66.2344 158.9341,66.375 Q158.2935,66.5313 157.5904,66.5313 Q155.0904,66.5313 153.7623,64.8906 Q152.4498,63.2344 152.4498,60.1094 Q152.4498,56.9844 153.7623,55.3281 Q155.0904,53.6719 157.5904,53.6719 Q158.2935,53.6719 158.9341,53.8281 Q159.5904,53.9844 160.1529,54.2813 L160.1529,57 Q159.5279,56.4219 158.9341,56.1563 Q158.3404,55.875 157.7154,55.875 Q156.3716,55.875 155.6841,56.9531 Q154.9966,58.0156 154.9966,60.1094 Q154.9966,62.2031 155.6841,63.2813 Q156.3716,64.3438 157.7154,64.3438 Q158.3404,64.3438 158.9341,64.0781 Q159.5279,63.7969 160.1529,63.2188 L160.1529,65.9375 Z " fill="#000000"/><text fill="#000000" font-family="sans-serif" font-size="14" lengthAdjust="spacing" textLength="90.7471" x="176.6162" y="65.1436">CreateMapUI</text><line style="stroke:#181818;stroke-width:0.5;" x1="118.74" x2="293.8074" y1="76.2969" y2="76.2969"/><line style="stroke:#181818;stroke-width:0.5;" x1="118.74" x2="293.8074" y1="84.2969" y2="84.2969"/><ellipse cx="128.74" cy="97.9453" fill="#84BE84" rx="3" ry="3" style="stroke:#038048;stroke-width:1;"/><text fill="#000000" font-family="sans-serif" font-size="14" lengthAdjust="spacing" textLength="142.6182" x="137.74" y="101.292">void openInterface()</text><ellipse cx="128.74" cy="114.2422" fill="#84BE84" rx="3" ry="3" style="stroke:#038048;stroke-width:1;"/><text fill="#000000" font-family="sans-serif" font-size="14" lengthAdjust="spacing" textLength="134.7773" x="137.74" y="117.5889">void requestInput()</text><ellipse cx="128.74" cy="130.5391" fill="#84BE84" rx="3" ry="3" style="stroke:#038048;stroke-width:1;"/><text fill="#000000" font-family="sans-serif" font-size="14" lengthAdjust="spacing" textLength="151.0674" x="137.74" y="133.8857">void displaySuccess()</text></g><!--class CreateMapController--><g class="entity" data-entity="CreateMapController" data-source-line="31" data-uid="ent0006" id="entity_CreateMapController"><rect fill="#F1F1F1" height="64.2969" rx="2.5" ry="2.5" style="stroke:#181818;stroke-width:0.5;" width="265.6543" x="73.45" y="201.1869"/><ellipse cx="129.2552" cy="217.1869" fill="#ADD1B2" rx="11" ry="11" style="stroke:#181818;stroke-width:1;"/><path d="M132.2239,222.8275 Q131.6458,223.1244 131.0052,223.265 Q130.3646,223.4213 129.6614,223.4213 Q127.1614,223.4213 125.8333,221.7806 Q124.5208,220.1244 124.5208,216.9994 Q124.5208,213.8744 125.8333,212.2181 Q127.1614,210.5619 129.6614,210.5619 Q130.3646,210.5619 131.0052,210.7181 Q131.6614,210.8744 132.2239,211.1713 L132.2239,213.89 Q131.5989,213.3119 131.0052,213.0463 Q130.4114,212.765 129.7864,212.765 Q128.4427,212.765 127.7552,213.8431 Q127.0677,214.9056 127.0677,216.9994 Q127.0677,219.0931 127.7552,220.1713 Q128.4427,221.2338 129.7864,221.2338 Q130.4114,221.2338 131.0052,220.9681 Q131.5989,220.6869 132.2239,220.1088 L132.2239,222.8275 Z " fill="#000000"/><text fill="#000000" font-family="sans-serif" font-size="14" lengthAdjust="spacing" textLength="145.5439" x="149.7552" y="222.0336">CreateMapController</text><line style="stroke:#181818;stroke-width:0.5;" x1="74.45" x2="338.1043" y1="233.1869" y2="233.1869"/><line style="stroke:#181818;stroke-width:0.5;" x1="74.45" x2="338.1043" y1="241.1869" y2="241.1869"/><ellipse cx="84.45" cy="254.8353" fill="#84BE84" rx="3" ry="3" style="stroke:#038048;stroke-width:1;"/><text fill="#000000" font-family="sans-serif" font-size="14" lengthAdjust="spacing" textLength="239.6543" x="93.45" y="258.182">void submitMapCreationRequest()</text></g><!--link MapService to Map--><g class="link" data-entity-1="MapService" data-entity-2="Map" data-source-line="35" data-uid="lnk7" id="link_MapService_Map"><path codeLine="35" d="M176.2,422.7269 C164.86,440.7369 154.8258,456.6788 142.1258,476.8588" fill="none" id="MapService-to-Map" style="stroke:#181818;stroke-width:1;"/><polygon fill="#181818" points="138.93,481.9369,147.1091,476.4503,141.5932,477.7052,140.3383,472.1892,138.93,481.9369" style="stroke:#181818;stroke-width:1;"/></g><!--link MapService to MapRepository--><g class="link" data-entity-1="MapService" data-entity-2="MapRepository" data-source-line="36" data-uid="lnk8" id="link_MapService_MapRepository"><path codeLine="36" d="M236.36,422.7269 C254.11,450.9369 273.3143,481.4387 291.0543,509.6287" fill="none" id="MapService-to-MapRepository" style="stroke:#181818;stroke-width:1;"/><polygon fill="#181818" points="294.25,514.7069,292.8419,504.9592,291.5869,510.4751,286.071,509.2201,294.25,514.7069" style="stroke:#181818;stroke-width:1;"/></g><!--link CreateMapController to MapService--><g class="link" data-entity-1="CreateMapController" data-entity-2="MapService" data-source-line="37" data-uid="lnk9" id="link_CreateMapController_MapService"><path codeLine="37" d="M206.28,265.7869 C206.28,283.2769 206.28,299.4069 206.28,319.0069" fill="none" id="CreateMapController-to-MapService" style="stroke:#181818;stroke-width:1;"/><polygon fill="#181818" points="206.28,325.0069,210.28,316.0069,206.28,320.0069,202.28,316.0069,206.28,325.0069" style="stroke:#181818;stroke-width:1;"/></g><!--link CreateMapUI to CreateMapController--><g class="link" data-entity-1="CreateMapUI" data-entity-2="CreateMapController" data-source-line="38" data-uid="lnk10" id="link_CreateMapUI_CreateMapController"><path codeLine="38" d="M206.28,141.4469 C206.28,161.1769 206.28,177.5069 206.28,195.0869" fill="none" id="CreateMapUI-to-CreateMapController" style="stroke:#181818;stroke-width:1;"/><polygon fill="#181818" points="206.28,201.0869,210.28,192.0869,206.28,196.0869,202.28,192.0869,206.28,201.0869" style="stroke:#181818;stroke-width:1;"/></g><!--SRC=[TL71JiCm3BttAtmiWlu1se5nO19mM3LnpbhJMMgJ4hk52l7l95dAKYWvHCfxzdlFZf2q25kBIX2UL0_bn88Tt2DJexEiQXLp83upSAU0KYpf1hJgC2Aa1TwfbbFoFY4r9md0jM_FpsqtdWpNLUIYN8Fox1Jp6VOQ3dlnih_1Xw3jqAyaNubsf0f_OZfeZxrX4cCdwDBN9HLKOV3_ynLmDAP5fO7OvpjeUXim5Yy396vpXaTYkNNKnljpj1qDrS1gnDmnysIp2twu5hwRmYx-k6pdj8TTz8XofaUzquBsLLMN7GRAeWlCijFz84kc9kvRDPL3LI5plkQpDLgiQLkqIpyUZXs9B_2LPFJ-x78MINwZA3P-DojGyXrhTh4gDcNfv9vQQVa6]--></g></svg>