<svg xmlns="http://www.w3.org/2000/svg" xmlns:xlink="http://www.w3.org/1999/xlink" contentStyleType="text/css" height="601px" preserveAspectRatio="none" style="width:1114px;height:601px;background:#FFFFFF;" version="1.1" viewBox="0 0 1114 601" width="1114px" zoomAndPan="magnify"><title>System Sequence Diagram (SSD) - US03 As an Editor, I want to add a city in a position XY of the selected map, with a name and a positive number of house blocks.</title><defs/><g><text fill="#000000" font-family="sans-serif" font-size="14" font-weight="bold" lengthAdjust="spacing" textLength="1086.7979" x="10" y="30.1074">System Sequence Diagram (SSD) - US03 As an Editor, I want to add a city in a position XY of the selected map, with a name and a positive number of house blocks.</text><rect fill="#FFFFFF" height="367.4922" style="stroke:#181818;stroke-width:1.0;" width="10" x="416.7285" y="133.2422"/><rect fill="#FFFFFF" height="31.291" style="stroke:#181818;stroke-width:1.0;" width="10" x="670.0728" y="156.5332"/><rect fill="#FFFFFF" height="31.291" style="stroke:#181818;stroke-width:1.0;" width="10" x="670.0728" y="219.1152"/><rect fill="#FFFFFF" height="31.291" style="stroke:#181818;stroke-width:1.0;" width="10" x="670.0728" y="281.6973"/><rect fill="#FFFFFF" height="31.291" style="stroke:#181818;stroke-width:1.0;" width="10" x="670.0728" y="344.2793"/><rect fill="#FFFFFF" height="31.291" style="stroke:#181818;stroke-width:1.0;" width="10" x="670.0728" y="406.8613"/><rect fill="#FFFFFF" height="31.291" style="stroke:#181818;stroke-width:1.0;" width="10" x="670.0728" y="469.4434"/><line style="stroke:#181818;stroke-width:0.5;stroke-dasharray:5.0,5.0;" x1="421.4424" x2="421.4424" y1="123.2422" y2="518.7344"/><line style="stroke:#181818;stroke-width:0.5;stroke-dasharray:5.0,5.0;" x1="674.79" x2="674.79" y1="123.2422" y2="518.7344"/><text fill="#000000" font-family="sans-serif" font-size="14" lengthAdjust="spacing" textLength="36.5723" x="400.4424" y="119.7285">Editor</text><ellipse cx="421.7285" cy="53.1211" fill="#E3E3E3" rx="8" ry="8" style="stroke:#181818;stroke-width:0.5;"/><path d="M421.7285,61.1211 L421.7285,88.1211 M408.7285,69.1211 L434.7285,69.1211 M421.7285,88.1211 L408.7285,103.1211 M421.7285,88.1211 L434.7285,103.1211 " fill="none" style="stroke:#181818;stroke-width:0.5;"/><text fill="#000000" font-family="sans-serif" font-size="14" lengthAdjust="spacing" textLength="36.5723" x="400.4424" y="532.8418">Editor</text><ellipse cx="421.7285" cy="544.8555" fill="#E3E3E3" rx="8" ry="8" style="stroke:#181818;stroke-width:0.5;"/><path d="M421.7285,552.8555 L421.7285,579.8555 M408.7285,560.8555 L434.7285,560.8555 M421.7285,579.8555 L408.7285,594.8555 M421.7285,579.8555 L434.7285,594.8555 " fill="none" style="stroke:#181818;stroke-width:0.5;"/><rect fill="#E3E3E3" height="32.6211" rx="2.5" ry="2.5" style="stroke:#181818;stroke-width:0.5;" width="64.5654" x="642.79" y="89.6211"/><text fill="#000000" font-family="sans-serif" font-size="14" lengthAdjust="spacing" textLength="50.5654" x="649.79" y="111.7285">:System</text><rect fill="#E3E3E3" height="32.6211" rx="2.5" ry="2.5" style="stroke:#181818;stroke-width:0.5;" width="64.5654" x="642.79" y="517.7344"/><text fill="#000000" font-family="sans-serif" font-size="14" lengthAdjust="spacing" textLength="50.5654" x="649.79" y="539.8418">:System</text><rect fill="#FFFFFF" height="367.4922" style="stroke:#181818;stroke-width:1.0;" width="10" x="416.7285" y="133.2422"/><rect fill="#FFFFFF" height="31.291" style="stroke:#181818;stroke-width:1.0;" width="10" x="670.0728" y="156.5332"/><rect fill="#FFFFFF" height="31.291" style="stroke:#181818;stroke-width:1.0;" width="10" x="670.0728" y="219.1152"/><rect fill="#FFFFFF" height="31.291" style="stroke:#181818;stroke-width:1.0;" width="10" x="670.0728" y="281.6973"/><rect fill="#FFFFFF" height="31.291" style="stroke:#181818;stroke-width:1.0;" width="10" x="670.0728" y="344.2793"/><rect fill="#FFFFFF" height="31.291" style="stroke:#181818;stroke-width:1.0;" width="10" x="670.0728" y="406.8613"/><rect fill="#FFFFFF" height="31.291" style="stroke:#181818;stroke-width:1.0;" width="10" x="670.0728" y="469.4434"/><polygon fill="#181818" points="658.0728,152.5332,668.0728,156.5332,658.0728,160.5332,662.0728,156.5332" style="stroke:#181818;stroke-width:1.0;"/><line style="stroke:#181818;stroke-width:1.0;" x1="426.7285" x2="664.0728" y1="156.5332" y2="156.5332"/><text fill="#000000" font-family="sans-serif" font-size="13" font-weight="bold" lengthAdjust="spacing" textLength="7.23" x="433.7285" y="151.2705">1</text><text fill="#000000" font-family="sans-serif" font-size="13" lengthAdjust="spacing" textLength="123.5698" x="444.9585" y="151.2705">requests to add a city</text><polygon fill="#181818" points="437.7285,183.8242,427.7285,187.8242,437.7285,191.8242,433.7285,187.8242" style="stroke:#181818;stroke-width:1.0;"/><line style="stroke:#181818;stroke-width:1.0;stroke-dasharray:2.0,2.0;" x1="431.7285" x2="674.0728" y1="187.8242" y2="187.8242"/><text fill="#000000" font-family="sans-serif" font-size="13" font-weight="bold" lengthAdjust="spacing" textLength="7.23" x="443.7285" y="182.5615">2</text><text fill="#000000" font-family="sans-serif" font-size="13" lengthAdjust="spacing" textLength="133.6816" x="454.9585" y="182.5615">requests map selection</text><polygon fill="#181818" points="658.0728,215.1152,668.0728,219.1152,658.0728,223.1152,662.0728,219.1152" style="stroke:#181818;stroke-width:1.0;"/><line style="stroke:#181818;stroke-width:1.0;" x1="426.7285" x2="664.0728" y1="219.1152" y2="219.1152"/><text fill="#000000" font-family="sans-serif" font-size="13" font-weight="bold" lengthAdjust="spacing" textLength="7.23" x="433.7285" y="213.8525">3</text><text fill="#000000" font-family="sans-serif" font-size="13" lengthAdjust="spacing" textLength="69.3608" x="444.9585" y="213.8525">selects map</text><polygon fill="#181818" points="437.7285,246.4063,427.7285,250.4063,437.7285,254.4063,433.7285,250.4063" style="stroke:#181818;stroke-width:1.0;"/><line style="stroke:#181818;stroke-width:1.0;stroke-dasharray:2.0,2.0;" x1="431.7285" x2="674.0728" y1="250.4063" y2="250.4063"/><text fill="#000000" font-family="sans-serif" font-size="13" font-weight="bold" lengthAdjust="spacing" textLength="7.23" x="443.7285" y="245.1436">4</text><text fill="#000000" font-family="sans-serif" font-size="13" lengthAdjust="spacing" textLength="109.1035" x="454.9585" y="245.1436">requests city name</text><polygon fill="#181818" points="658.0728,277.6973,668.0728,281.6973,658.0728,285.6973,662.0728,281.6973" style="stroke:#181818;stroke-width:1.0;"/><line style="stroke:#181818;stroke-width:1.0;" x1="426.7285" x2="664.0728" y1="281.6973" y2="281.6973"/><text fill="#000000" font-family="sans-serif" font-size="13" font-weight="bold" lengthAdjust="spacing" textLength="7.23" x="433.7285" y="276.4346">5</text><text fill="#000000" font-family="sans-serif" font-size="13" lengthAdjust="spacing" textLength="108.3799" x="444.9585" y="276.4346">provides city name</text><polygon fill="#181818" points="437.7285,308.9883,427.7285,312.9883,437.7285,316.9883,433.7285,312.9883" style="stroke:#181818;stroke-width:1.0;"/><line style="stroke:#181818;stroke-width:1.0;stroke-dasharray:2.0,2.0;" x1="431.7285" x2="674.0728" y1="312.9883" y2="312.9883"/><text fill="#000000" font-family="sans-serif" font-size="13" font-weight="bold" lengthAdjust="spacing" textLength="7.23" x="443.7285" y="307.7256">6</text><text fill="#000000" font-family="sans-serif" font-size="13" lengthAdjust="spacing" textLength="141.6353" x="454.9585" y="307.7256">requests XY coordinates</text><polygon fill="#181818" points="658.0728,340.2793,668.0728,344.2793,658.0728,348.2793,662.0728,344.2793" style="stroke:#181818;stroke-width:1.0;"/><line style="stroke:#181818;stroke-width:1.0;" x1="426.7285" x2="664.0728" y1="344.2793" y2="344.2793"/><text fill="#000000" font-family="sans-serif" font-size="13" font-weight="bold" lengthAdjust="spacing" textLength="7.23" x="433.7285" y="339.0166">7</text><text fill="#000000" font-family="sans-serif" font-size="13" lengthAdjust="spacing" textLength="155.3779" x="444.9585" y="339.0166">inputs X and Y coordinates</text><polygon fill="#181818" points="437.7285,371.5703,427.7285,375.5703,437.7285,379.5703,433.7285,375.5703" style="stroke:#181818;stroke-width:1.0;"/><line style="stroke:#181818;stroke-width:1.0;stroke-dasharray:2.0,2.0;" x1="431.7285" x2="674.0728" y1="375.5703" y2="375.5703"/><text fill="#000000" font-family="sans-serif" font-size="13" font-weight="bold" lengthAdjust="spacing" textLength="7.23" x="443.7285" y="370.3076">8</text><text fill="#000000" font-family="sans-serif" font-size="13" lengthAdjust="spacing" textLength="191.4961" x="454.9585" y="370.3076">requests number of house blocks</text><polygon fill="#181818" points="658.0728,402.8613,668.0728,406.8613,658.0728,410.8613,662.0728,406.8613" style="stroke:#181818;stroke-width:1.0;"/><line style="stroke:#181818;stroke-width:1.0;" x1="426.7285" x2="664.0728" y1="406.8613" y2="406.8613"/><text fill="#000000" font-family="sans-serif" font-size="13" font-weight="bold" lengthAdjust="spacing" textLength="7.23" x="433.7285" y="401.5986">9</text><text fill="#000000" font-family="sans-serif" font-size="13" lengthAdjust="spacing" textLength="176.3252" x="444.9585" y="401.5986">inputs number of house blocks</text><polygon fill="#181818" points="437.7285,434.1523,427.7285,438.1523,437.7285,442.1523,433.7285,438.1523" style="stroke:#181818;stroke-width:1.0;"/><line style="stroke:#181818;stroke-width:1.0;stroke-dasharray:2.0,2.0;" x1="431.7285" x2="674.0728" y1="438.1523" y2="438.1523"/><text fill="#000000" font-family="sans-serif" font-size="13" font-weight="bold" lengthAdjust="spacing" textLength="14.46" x="443.7285" y="432.8896">10</text><text fill="#000000" font-family="sans-serif" font-size="13" lengthAdjust="spacing" textLength="200.8843" x="462.1885" y="432.8896">requests block assignment method</text><polygon fill="#181818" points="658.0728,465.4434,668.0728,469.4434,658.0728,473.4434,662.0728,469.4434" style="stroke:#181818;stroke-width:1.0;"/><line style="stroke:#181818;stroke-width:1.0;" x1="426.7285" x2="664.0728" y1="469.4434" y2="469.4434"/><text fill="#000000" font-family="sans-serif" font-size="13" font-weight="bold" lengthAdjust="spacing" textLength="14.46" x="433.7285" y="464.1807">11</text><text fill="#000000" font-family="sans-serif" font-size="13" lengthAdjust="spacing" textLength="191.4834" x="452.1885" y="464.1807">selects block assignment method</text><polygon fill="#181818" points="432.7285,496.7344,422.7285,500.7344,432.7285,504.7344,428.7285,500.7344" style="stroke:#181818;stroke-width:1.0;"/><line style="stroke:#181818;stroke-width:1.0;stroke-dasharray:2.0,2.0;" x1="426.7285" x2="674.0728" y1="500.7344" y2="500.7344"/><text fill="#000000" font-family="sans-serif" font-size="13" font-weight="bold" lengthAdjust="spacing" textLength="14.46" x="438.7285" y="495.4717">12</text><text fill="#000000" font-family="sans-serif" font-size="13" lengthAdjust="spacing" textLength="162.5698" x="457.1885" y="495.4717">confirms successful addition</text><!--SRC=[dPDDQ-D038Rl_XKYfrrebiBUUYWKaaCFPQ7kmlQepYYsY6V6Ev8JykyhVpIaNu5uJeEbz_4h-RLiERQOCK18CRawfq2WkQD2ZfKMtHOhAlNG46HoYh5gJXkaHf_s72lOO2DK5CfghUL1b0AKzB-Zw0XMZ5NV_gCiLpzX2N_Bwzzm9u0HrfurvIkuXpr61Ks0tWE2Opq0HxkrILWvHVZt36a3MXC8DMQ6F0Hihs3FMbjVH1i0epzATWIn2o-KUrcTEY5uQPBRog-Ym4xJMBIxCmUm69qi00NMg_kdFu-5pQZikEsDBMx6eOPw-Lm-hHy69UzGwKrGW9tn3ilRgGrkR7Ms255vFzxGVKHCJ9ZEf5qQPWAUO6piQGUsbq7YwIFeEo-ZRc3CDp1ydNxX5xwypMd7dZu2PdcmEBYKikTeIhdGY0Muwnb3O3w3PXdwEcppZ9rXpV8sw2swmbKCP7aEf7NoCxDpZdQ9FPVYXdCGaCuv4jbqJVz_yBbOdpmQEQy0]--></g></svg>