<svg xmlns="http://www.w3.org/2000/svg" xmlns:xlink="http://www.w3.org/1999/xlink" contentStyleType="text/css" height="664px" preserveAspectRatio="none" style="width:697px;height:664px;background:#FFFFFF;" version="1.1" viewBox="0 0 697 664" width="697px" zoomAndPan="magnify"><title>System Sequence Diagram (SD) - US04 As an Editor, I want to create a scenario for a selected map.</title><defs/><g><text fill="#000000" font-family="sans-serif" font-size="14" font-weight="bold" lengthAdjust="spacing" textLength="669.1152" x="10" y="30.1074">System Sequence Diagram (SSD) - US04 As an Editor, I want to create a scenario for a selected map.</text><rect fill="#FFFFFF" height="430.0742" style="stroke:#181818;stroke-width:1.0;" width="10" x="162.0063" y="133.2422"/><rect fill="#FFFFFF" height="31.291" style="stroke:#181818;stroke-width:1.0;" width="10" x="507.1123" y="156.5332"/><rect fill="#FFFFFF" height="31.291" style="stroke:#181818;stroke-width:1.0;" width="10" x="507.1123" y="219.1152"/><rect fill="#FFFFFF" height="31.291" style="stroke:#181818;stroke-width:1.0;" width="10" x="507.1123" y="281.6973"/><rect fill="#FFFFFF" height="31.291" style="stroke:#181818;stroke-width:1.0;" width="10" x="507.1123" y="344.2793"/><rect fill="#FFFFFF" height="31.291" style="stroke:#181818;stroke-width:1.0;" width="10" x="507.1123" y="406.8613"/><rect fill="#FFFFFF" height="31.291" style="stroke:#181818;stroke-width:1.0;" width="10" x="507.1123" y="469.4434"/><rect fill="#FFFFFF" height="31.291" style="stroke:#181818;stroke-width:1.0;" width="10" x="507.1123" y="532.0254"/><line style="stroke:#181818;stroke-width:0.5;stroke-dasharray:5.0,5.0;" x1="166.7202" x2="166.7202" y1="123.2422" y2="581.3164"/><line style="stroke:#181818;stroke-width:0.5;stroke-dasharray:5.0,5.0;" x1="511.8296" x2="511.8296" y1="123.2422" y2="581.3164"/><text fill="#000000" font-family="sans-serif" font-size="14" lengthAdjust="spacing" textLength="36.5723" x="145.7202" y="119.7285">Editor</text><ellipse cx="167.0063" cy="53.1211" fill="#E3E3E3" rx="8" ry="8" style="stroke:#181818;stroke-width:0.5;"/><path d="M167.0063,61.1211 L167.0063,88.1211 M154.0063,69.1211 L180.0063,69.1211 M167.0063,88.1211 L154.0063,103.1211 M167.0063,88.1211 L180.0063,103.1211 " fill="none" style="stroke:#181818;stroke-width:0.5;"/><text fill="#000000" font-family="sans-serif" font-size="14" lengthAdjust="spacing" textLength="36.5723" x="145.7202" y="595.4238">Editor</text><ellipse cx="167.0063" cy="607.4375" fill="#E3E3E3" rx="8" ry="8" style="stroke:#181818;stroke-width:0.5;"/><path d="M167.0063,615.4375 L167.0063,642.4375 M154.0063,623.4375 L180.0063,623.4375 M167.0063,642.4375 L154.0063,657.4375 M167.0063,642.4375 L180.0063,657.4375 " fill="none" style="stroke:#181818;stroke-width:0.5;"/><rect fill="#E3E3E3" height="32.6211" rx="2.5" ry="2.5" style="stroke:#181818;stroke-width:0.5;" width="64.5654" x="479.8296" y="89.6211"/><text fill="#000000" font-family="sans-serif" font-size="14" lengthAdjust="spacing" textLength="50.5654" x="486.8296" y="111.7285">:System</text><rect fill="#E3E3E3" height="32.6211" rx="2.5" ry="2.5" style="stroke:#181818;stroke-width:0.5;" width="64.5654" x="479.8296" y="580.3164"/><text fill="#000000" font-family="sans-serif" font-size="14" lengthAdjust="spacing" textLength="50.5654" x="486.8296" y="602.4238">:System</text><rect fill="#FFFFFF" height="430.0742" style="stroke:#181818;stroke-width:1.0;" width="10" x="162.0063" y="133.2422"/><rect fill="#FFFFFF" height="31.291" style="stroke:#181818;stroke-width:1.0;" width="10" x="507.1123" y="156.5332"/><rect fill="#FFFFFF" height="31.291" style="stroke:#181818;stroke-width:1.0;" width="10" x="507.1123" y="219.1152"/><rect fill="#FFFFFF" height="31.291" style="stroke:#181818;stroke-width:1.0;" width="10" x="507.1123" y="281.6973"/><rect fill="#FFFFFF" height="31.291" style="stroke:#181818;stroke-width:1.0;" width="10" x="507.1123" y="344.2793"/><rect fill="#FFFFFF" height="31.291" style="stroke:#181818;stroke-width:1.0;" width="10" x="507.1123" y="406.8613"/><rect fill="#FFFFFF" height="31.291" style="stroke:#181818;stroke-width:1.0;" width="10" x="507.1123" y="469.4434"/><rect fill="#FFFFFF" height="31.291" style="stroke:#181818;stroke-width:1.0;" width="10" x="507.1123" y="532.0254"/><polygon fill="#181818" points="495.1123,152.5332,505.1123,156.5332,495.1123,160.5332,499.1123,156.5332" style="stroke:#181818;stroke-width:1.0;"/><line style="stroke:#181818;stroke-width:1.0;" x1="172.0063" x2="501.1123" y1="156.5332" y2="156.5332"/><text fill="#000000" font-family="sans-serif" font-size="13" font-weight="bold" lengthAdjust="spacing" textLength="7.23" x="179.0063" y="151.2705">1</text><text fill="#000000" font-family="sans-serif" font-size="13" lengthAdjust="spacing" textLength="144.5171" x="190.2363" y="151.2705">asks to create a scenario</text><polygon fill="#181818" points="183.0063,183.8242,173.0063,187.8242,183.0063,191.8242,179.0063,187.8242" style="stroke:#181818;stroke-width:1.0;"/><line style="stroke:#181818;stroke-width:1.0;stroke-dasharray:2.0,2.0;" x1="177.0063" x2="511.1123" y1="187.8242" y2="187.8242"/><text fill="#000000" font-family="sans-serif" font-size="13" font-weight="bold" lengthAdjust="spacing" textLength="7.23" x="189.0063" y="182.5615">2</text><text fill="#000000" font-family="sans-serif" font-size="13" lengthAdjust="spacing" textLength="218.2197" x="200.2363" y="182.5615">shows map list and asks to select one</text><polygon fill="#181818" points="495.1123,215.1152,505.1123,219.1152,495.1123,223.1152,499.1123,219.1152" style="stroke:#181818;stroke-width:1.0;"/><line style="stroke:#181818;stroke-width:1.0;" x1="172.0063" x2="501.1123" y1="219.1152" y2="219.1152"/><text fill="#000000" font-family="sans-serif" font-size="13" font-weight="bold" lengthAdjust="spacing" textLength="7.23" x="179.0063" y="213.8525">3</text><text fill="#000000" font-family="sans-serif" font-size="13" lengthAdjust="spacing" textLength="80.2026" x="190.2363" y="213.8525">selects a map</text><polygon fill="#181818" points="183.0063,246.4063,173.0063,250.4063,183.0063,254.4063,179.0063,250.4063" style="stroke:#181818;stroke-width:1.0;"/><line style="stroke:#181818;stroke-width:1.0;stroke-dasharray:2.0,2.0;" x1="177.0063" x2="511.1123" y1="250.4063" y2="250.4063"/><text fill="#000000" font-family="sans-serif" font-size="13" font-weight="bold" lengthAdjust="spacing" textLength="7.23" x="189.0063" y="245.1436">4</text><text fill="#000000" font-family="sans-serif" font-size="13" lengthAdjust="spacing" textLength="241.3252" x="200.2363" y="245.1436">requests data (name, start time, end time)</text><polygon fill="#181818" points="495.1123,277.6973,505.1123,281.6973,495.1123,285.6973,499.1123,281.6973" style="stroke:#181818;stroke-width:1.0;"/><line style="stroke:#181818;stroke-width:1.0;" x1="172.0063" x2="501.1123" y1="281.6973" y2="281.6973"/><text fill="#000000" font-family="sans-serif" font-size="13" font-weight="bold" lengthAdjust="spacing" textLength="7.23" x="179.0063" y="276.4346">5</text><text fill="#000000" font-family="sans-serif" font-size="13" lengthAdjust="spacing" textLength="121.418" x="190.2363" y="276.4346">types requested data</text><polygon fill="#181818" points="183.0063,308.9883,173.0063,312.9883,183.0063,316.9883,179.0063,312.9883" style="stroke:#181818;stroke-width:1.0;"/><line style="stroke:#181818;stroke-width:1.0;stroke-dasharray:2.0,2.0;" x1="177.0063" x2="511.1123" y1="312.9883" y2="312.9883"/><text fill="#000000" font-family="sans-serif" font-size="13" font-weight="bold" lengthAdjust="spacing" textLength="7.23" x="189.0063" y="307.7256">6</text><text fill="#000000" font-family="sans-serif" font-size="13" lengthAdjust="spacing" textLength="299.876" x="200.2363" y="307.7256">shows available locomotive types and asks to select</text><polygon fill="#181818" points="495.1123,340.2793,505.1123,344.2793,495.1123,348.2793,499.1123,344.2793" style="stroke:#181818;stroke-width:1.0;"/><line style="stroke:#181818;stroke-width:1.0;" x1="172.0063" x2="501.1123" y1="344.2793" y2="344.2793"/><text fill="#000000" font-family="sans-serif" font-size="13" font-weight="bold" lengthAdjust="spacing" textLength="7.23" x="179.0063" y="339.0166">7</text><text fill="#000000" font-family="sans-serif" font-size="13" lengthAdjust="spacing" textLength="140.8926" x="190.2363" y="339.0166">selects locomotive types</text><polygon fill="#181818" points="183.0063,371.5703,173.0063,375.5703,183.0063,379.5703,179.0063,375.5703" style="stroke:#181818;stroke-width:1.0;"/><line style="stroke:#181818;stroke-width:1.0;stroke-dasharray:2.0,2.0;" x1="177.0063" x2="511.1123" y1="375.5703" y2="375.5703"/><text fill="#000000" font-family="sans-serif" font-size="13" font-weight="bold" lengthAdjust="spacing" textLength="7.23" x="189.0063" y="370.3076">8</text><text fill="#000000" font-family="sans-serif" font-size="13" lengthAdjust="spacing" textLength="283.2578" x="200.2363" y="370.3076">shows available industry types and asks to select</text><polygon fill="#181818" points="495.1123,402.8613,505.1123,406.8613,495.1123,410.8613,499.1123,406.8613" style="stroke:#181818;stroke-width:1.0;"/><line style="stroke:#181818;stroke-width:1.0;" x1="172.0063" x2="501.1123" y1="406.8613" y2="406.8613"/><text fill="#000000" font-family="sans-serif" font-size="13" font-weight="bold" lengthAdjust="spacing" textLength="7.23" x="179.0063" y="401.5986">9</text><text fill="#000000" font-family="sans-serif" font-size="13" lengthAdjust="spacing" textLength="124.2744" x="190.2363" y="401.5986">selects industry types</text><polygon fill="#181818" points="183.0063,434.1523,173.0063,438.1523,183.0063,442.1523,179.0063,438.1523" style="stroke:#181818;stroke-width:1.0;"/><line style="stroke:#181818;stroke-width:1.0;stroke-dasharray:2.0,2.0;" x1="177.0063" x2="511.1123" y1="438.1523" y2="438.1523"/><text fill="#000000" font-family="sans-serif" font-size="13" font-weight="bold" lengthAdjust="spacing" textLength="14.46" x="189.0063" y="432.8896">10</text><text fill="#000000" font-family="sans-serif" font-size="13" lengthAdjust="spacing" textLength="142.3335" x="207.4663" y="432.8896">asks for historical events</text><polygon fill="#181818" points="495.1123,465.4434,505.1123,469.4434,495.1123,473.4434,499.1123,469.4434" style="stroke:#181818;stroke-width:1.0;"/><line style="stroke:#181818;stroke-width:1.0;" x1="172.0063" x2="501.1123" y1="469.4434" y2="469.4434"/><text fill="#000000" font-family="sans-serif" font-size="13" font-weight="bold" lengthAdjust="spacing" textLength="14.46" x="179.0063" y="464.1807">11</text><text fill="#000000" font-family="sans-serif" font-size="13" lengthAdjust="spacing" textLength="125.0107" x="197.4663" y="464.1807">adds historical events</text><polygon fill="#181818" points="183.0063,496.7344,173.0063,500.7344,183.0063,504.7344,179.0063,500.7344" style="stroke:#181818;stroke-width:1.0;"/><line style="stroke:#181818;stroke-width:1.0;stroke-dasharray:2.0,2.0;" x1="177.0063" x2="511.1123" y1="500.7344" y2="500.7344"/><text fill="#000000" font-family="sans-serif" font-size="13" font-weight="bold" lengthAdjust="spacing" textLength="14.46" x="189.0063" y="495.4717">12</text><text fill="#000000" font-family="sans-serif" font-size="13" lengthAdjust="spacing" textLength="235.5742" x="207.4663" y="495.4717">shows all data and requests confirmation</text><polygon fill="#181818" points="495.1123,528.0254,505.1123,532.0254,495.1123,536.0254,499.1123,532.0254" style="stroke:#181818;stroke-width:1.0;"/><line style="stroke:#181818;stroke-width:1.0;" x1="172.0063" x2="501.1123" y1="532.0254" y2="532.0254"/><text fill="#000000" font-family="sans-serif" font-size="13" font-weight="bold" lengthAdjust="spacing" textLength="14.46" x="179.0063" y="526.7627">13</text><text fill="#000000" font-family="sans-serif" font-size="13" lengthAdjust="spacing" textLength="78.0317" x="197.4663" y="526.7627">confirms data</text><polygon fill="#181818" points="178.0063,559.3164,168.0063,563.3164,178.0063,567.3164,174.0063,563.3164" style="stroke:#181818;stroke-width:1.0;"/><line style="stroke:#181818;stroke-width:1.0;stroke-dasharray:2.0,2.0;" x1="172.0063" x2="511.1123" y1="563.3164" y2="563.3164"/><text fill="#000000" font-family="sans-serif" font-size="13" font-weight="bold" lengthAdjust="spacing" textLength="14.46" x="184.0063" y="558.0537">14</text><text fill="#000000" font-family="sans-serif" font-size="13" lengthAdjust="spacing" textLength="155.3589" x="202.4663" y="558.0537">displays operation success</text><!--SRC=[hPCnRzim48Lt_Og3fmI8YmwTF0G8O0yPYW9LEcIya6URCCLJUISR-lSvIegHjiuWDvfEuhsFZuydEOJKOiO66axizfaR0iqTLN9UQT4TS4Urzf4WarDCk_Y-GVRe-HJI3hOOXQfAWrfhtOjI0pNzxYWvWdN0NMc_gUlrBIpXL_tr6pm8O8AD3yhv3XxXX4b16LmcL084SPGm1uOjv_9AqHoGXmRRBrLLOQUSkkQ5ijNE8B0OOGj0WStwyUd7pyfiQd2XBUp5QlGrhDVFzTFc-w0CnxBV9AZ0dh66vVtK1YkJ7EIYkq5mfhnXONec_T9G4tHbeV59oYaW1b4BmP_func14mq4JnV15-oDGakqSETRokMcnFGU5U4cOKDt86hXWOPIavairUrCNzgt96zukxl2lpOnF6A8-6Bp5TbnmmQWQOD_Cxmolx_9_-yr9D-9vlwpdVx9dUzpC57-hBqD8UVWC08TAQdCD8JUomUGQuABSHp24jHvB1sdRSWDQk0qqzuabIj7pmTf8_O2t58UzWVfd2FvCAPtdqRAAm00]--></g></svg>