<svg xmlns="http://www.w3.org/2000/svg" xmlns:xlink="http://www.w3.org/1999/xlink" contentStyleType="text/css" data-diagram-type="CLASS" height="463px" preserveAspectRatio="none" style="width:424px;height:463px;background:#FFFFFF;" version="1.1" viewBox="0 0 424 463" width="424px" zoomAndPan="magnify"><title>Domain Model (DM) - US11 List Trains</title><defs/><g><g class="title" data-source-line="5"><text fill="#000000" font-family="sans-serif" font-size="14" font-weight="bold" lengthAdjust="spacing" textLength="299.9883" x="55.2835" y="22.9951">Domain Model (DM) - US11 List Trains</text></g><!--class Train--><g class="entity" data-entity="Train" data-source-line="7" data-uid="ent0002" id="entity_Train"><rect fill="#F1F1F1" height="96.8906" rx="2.5" ry="2.5" style="stroke:#181818;stroke-width:0.5;" width="123.5352" x="129.79" y="44.2969"/><ellipse cx="169.9386" cy="60.2969" fill="#C2C2C2" rx="11" ry="11" style="stroke:#181818;stroke-width:1;"/><path d="M172.9073,65.9375 Q172.3292,66.2344 171.6886,66.375 Q171.048,66.5313 170.3448,66.5313 Q167.8448,66.5313 166.5167,64.8906 Q165.2042,63.2344 165.2042,60.1094 Q165.2042,56.9844 166.5167,55.3281 Q167.8448,53.6719 170.3448,53.6719 Q171.048,53.6719 171.6886,53.8281 Q172.3448,53.9844 172.9073,54.2813 L172.9073,57 Q172.2823,56.4219 171.6886,56.1563 Q171.0948,55.875 170.4698,55.875 Q169.1261,55.875 168.4386,56.9531 Q167.7511,58.0156 167.7511,60.1094 Q167.7511,62.2031 168.4386,63.2813 Q169.1261,64.3438 170.4698,64.3438 Q171.0948,64.3438 171.6886,64.0781 Q172.2823,63.7969 172.9073,63.2188 L172.9073,65.9375 Z " fill="#000000"/><text fill="#000000" font-family="sans-serif" font-size="14" lengthAdjust="spacing" textLength="35.6494" x="189.5272" y="65.1436">Train</text><line style="stroke:#181818;stroke-width:0.5;" x1="130.79" x2="252.3252" y1="76.2969" y2="76.2969"/><text fill="#000000" font-family="sans-serif" font-size="14" lengthAdjust="spacing" textLength="39.7031" x="135.79" y="93.292">name</text><text fill="#000000" font-family="sans-serif" font-size="14" lengthAdjust="spacing" textLength="111.5352" x="135.79" y="109.5889">locomotiveType</text><text fill="#000000" font-family="sans-serif" font-size="14" lengthAdjust="spacing" textLength="108.5273" x="135.79" y="125.8857">currentCargoes</text><line style="stroke:#181818;stroke-width:0.5;" x1="130.79" x2="252.3252" y1="133.1875" y2="133.1875"/></g><!--class Locomotive--><g class="entity" data-entity="Locomotive" data-source-line="13" data-uid="ent0003" id="entity_Locomotive"><rect fill="#F1F1F1" height="80.5938" rx="2.5" ry="2.5" style="stroke:#181818;stroke-width:0.5;" width="113.1084" x="7" y="226.3369"/><ellipse cx="22" cy="242.3369" fill="#C2C2C2" rx="11" ry="11" style="stroke:#181818;stroke-width:1;"/><path d="M24.9688,247.9775 Q24.3906,248.2744 23.75,248.415 Q23.1094,248.5713 22.4063,248.5713 Q19.9063,248.5713 18.5781,246.9306 Q17.2656,245.2744 17.2656,242.1494 Q17.2656,239.0244 18.5781,237.3681 Q19.9063,235.7119 22.4063,235.7119 Q23.1094,235.7119 23.75,235.8681 Q24.4063,236.0244 24.9688,236.3213 L24.9688,239.04 Q24.3438,238.4619 23.75,238.1963 Q23.1563,237.915 22.5313,237.915 Q21.1875,237.915 20.5,238.9931 Q19.8125,240.0556 19.8125,242.1494 Q19.8125,244.2431 20.5,245.3213 Q21.1875,246.3838 22.5313,246.3838 Q23.1563,246.3838 23.75,246.1181 Q24.3438,245.8369 24.9688,245.2588 L24.9688,247.9775 Z " fill="#000000"/><text fill="#000000" font-family="sans-serif" font-size="14" lengthAdjust="spacing" textLength="81.1084" x="36" y="247.1836">Locomotive</text><line style="stroke:#181818;stroke-width:0.5;" x1="8" x2="119.1084" y1="258.3369" y2="258.3369"/><text fill="#000000" font-family="sans-serif" font-size="14" lengthAdjust="spacing" textLength="31.2744" x="13" y="275.332">type</text><text fill="#000000" font-family="sans-serif" font-size="14" lengthAdjust="spacing" textLength="95.5869" x="13" y="291.6289">specifications</text><line style="stroke:#181818;stroke-width:0.5;" x1="8" x2="119.1084" y1="298.9306" y2="298.9306"/></g><!--class Cargo--><g class="entity" data-entity="Cargo" data-source-line="18" data-uid="ent0004" id="entity_Cargo"><rect fill="#F1F1F1" height="96.8906" rx="2.5" ry="2.5" style="stroke:#181818;stroke-width:0.5;" width="73.5625" x="154.77" y="218.1869"/><ellipse cx="169.77" cy="234.1869" fill="#C2C2C2" rx="11" ry="11" style="stroke:#181818;stroke-width:1;"/><path d="M172.7388,239.8275 Q172.1606,240.1244 171.52,240.265 Q170.8794,240.4213 170.1763,240.4213 Q167.6763,240.4213 166.3481,238.7806 Q165.0356,237.1244 165.0356,233.9994 Q165.0356,230.8744 166.3481,229.2181 Q167.6763,227.5619 170.1763,227.5619 Q170.8794,227.5619 171.52,227.7181 Q172.1763,227.8744 172.7388,228.1713 L172.7388,230.89 Q172.1138,230.3119 171.52,230.0463 Q170.9263,229.765 170.3013,229.765 Q168.9575,229.765 168.27,230.8431 Q167.5825,231.9056 167.5825,233.9994 Q167.5825,236.0931 168.27,237.1713 Q168.9575,238.2338 170.3013,238.2338 Q170.9263,238.2338 171.52,237.9681 Q172.1138,237.6869 172.7388,237.1088 L172.7388,239.8275 Z " fill="#000000"/><text fill="#000000" font-family="sans-serif" font-size="14" lengthAdjust="spacing" textLength="41.5625" x="183.77" y="239.0336">Cargo</text><line style="stroke:#181818;stroke-width:0.5;" x1="155.77" x2="227.3325" y1="250.1869" y2="250.1869"/><text fill="#000000" font-family="sans-serif" font-size="14" lengthAdjust="spacing" textLength="31.2744" x="160.77" y="267.182">type</text><text fill="#000000" font-family="sans-serif" font-size="14" lengthAdjust="spacing" textLength="58.3652" x="160.77" y="283.4789">quantity</text><text fill="#000000" font-family="sans-serif" font-size="14" lengthAdjust="spacing" textLength="43.0186" x="160.77" y="299.7757">status</text><line style="stroke:#181818;stroke-width:0.5;" x1="155.77" x2="227.3325" y1="307.0775" y2="307.0775"/></g><!--class Route--><g class="entity" data-entity="Route" data-source-line="24" data-uid="ent0005" id="entity_Route"><rect fill="#F1F1F1" height="80.5938" rx="2.5" ry="2.5" style="stroke:#181818;stroke-width:0.5;" width="73.2686" x="262.92" y="226.3369"/><ellipse cx="277.92" cy="242.3369" fill="#C2C2C2" rx="11" ry="11" style="stroke:#181818;stroke-width:1;"/><path d="M280.8887,247.9775 Q280.3106,248.2744 279.67,248.415 Q279.0294,248.5713 278.3262,248.5713 Q275.8262,248.5713 274.4981,246.9306 Q273.1856,245.2744 273.1856,242.1494 Q273.1856,239.0244 274.4981,237.3681 Q275.8262,235.7119 278.3262,235.7119 Q279.0294,235.7119 279.67,235.8681 Q280.3262,236.0244 280.8887,236.3213 L280.8887,239.04 Q280.2637,238.4619 279.67,238.1963 Q279.0762,237.915 278.4512,237.915 Q277.1075,237.915 276.42,238.9931 Q275.7325,240.0556 275.7325,242.1494 Q275.7325,244.2431 276.42,245.3213 Q277.1075,246.3838 278.4512,246.3838 Q279.0762,246.3838 279.67,246.1181 Q280.2637,245.8369 280.8887,245.2588 L280.8887,247.9775 Z " fill="#000000"/><text fill="#000000" font-family="sans-serif" font-size="14" lengthAdjust="spacing" textLength="41.2686" x="291.92" y="247.1836">Route</text><line style="stroke:#181818;stroke-width:0.5;" x1="263.92" x2="335.1886" y1="258.3369" y2="258.3369"/><text fill="#000000" font-family="sans-serif" font-size="14" lengthAdjust="spacing" textLength="55.4736" x="268.92" y="275.332">stations</text><text fill="#000000" font-family="sans-serif" font-size="14" lengthAdjust="spacing" textLength="31.8281" x="268.92" y="291.6289">path</text><line style="stroke:#181818;stroke-width:0.5;" x1="263.92" x2="335.1886" y1="298.9306" y2="298.9306"/></g><!--class Station--><g class="entity" data-entity="Station" data-source-line="29" data-uid="ent0006" id="entity_Station"><rect fill="#F1F1F1" height="64.2969" rx="2.5" ry="2.5" style="stroke:#181818;stroke-width:0.5;" width="81.7725" x="200.67" y="392.0769"/><ellipse cx="215.67" cy="408.0769" fill="#C2C2C2" rx="11" ry="11" style="stroke:#181818;stroke-width:1;"/><path d="M218.6388,413.7175 Q218.0606,414.0144 217.42,414.155 Q216.7794,414.3113 216.0763,414.3113 Q213.5763,414.3113 212.2481,412.6706 Q210.9356,411.0144 210.9356,407.8894 Q210.9356,404.7644 212.2481,403.1081 Q213.5763,401.4519 216.0763,401.4519 Q216.7794,401.4519 217.42,401.6081 Q218.0763,401.7644 218.6388,402.0613 L218.6388,404.78 Q218.0138,404.2019 217.42,403.9363 Q216.8263,403.655 216.2013,403.655 Q214.8575,403.655 214.17,404.7331 Q213.4825,405.7956 213.4825,407.8894 Q213.4825,409.9831 214.17,411.0613 Q214.8575,412.1238 216.2013,412.1238 Q216.8263,412.1238 217.42,411.8581 Q218.0138,411.5769 218.6388,410.9988 L218.6388,413.7175 Z " fill="#000000"/><text fill="#000000" font-family="sans-serif" font-size="14" lengthAdjust="spacing" textLength="49.7725" x="229.67" y="412.9236">Station</text><line style="stroke:#181818;stroke-width:0.5;" x1="201.67" x2="281.4425" y1="424.0769" y2="424.0769"/><text fill="#000000" font-family="sans-serif" font-size="14" lengthAdjust="spacing" textLength="39.7031" x="206.67" y="441.072">name</text><line style="stroke:#181818;stroke-width:0.5;" x1="201.67" x2="281.4425" y1="448.3738" y2="448.3738"/></g><!--class Path--><g class="entity" data-entity="Path" data-source-line="33" data-uid="ent0007" id="entity_Path"><rect fill="#F1F1F1" height="64.2969" rx="2.5" ry="2.5" style="stroke:#181818;stroke-width:0.5;" width="80.7012" x="317.2" y="392.0769"/><ellipse cx="339.9928" cy="408.0769" fill="#C2C2C2" rx="11" ry="11" style="stroke:#181818;stroke-width:1;"/><path d="M342.9616,413.7175 Q342.3834,414.0144 341.7428,414.155 Q341.1022,414.3113 340.3991,414.3113 Q337.8991,414.3113 336.5709,412.6706 Q335.2584,411.0144 335.2584,407.8894 Q335.2584,404.7644 336.5709,403.1081 Q337.8991,401.4519 340.3991,401.4519 Q341.1022,401.4519 341.7428,401.6081 Q342.3991,401.7644 342.9616,402.0613 L342.9616,404.78 Q342.3366,404.2019 341.7428,403.9363 Q341.1491,403.655 340.5241,403.655 Q339.1803,403.655 338.4928,404.7331 Q337.8053,405.7956 337.8053,407.8894 Q337.8053,409.9831 338.4928,411.0613 Q339.1803,412.1238 340.5241,412.1238 Q341.1491,412.1238 341.7428,411.8581 Q342.3366,411.5769 342.9616,410.9988 L342.9616,413.7175 Z " fill="#000000"/><text fill="#000000" font-family="sans-serif" font-size="14" lengthAdjust="spacing" textLength="31.3838" x="355.7246" y="412.9236">Path</text><line style="stroke:#181818;stroke-width:0.5;" x1="318.2" x2="396.9012" y1="424.0769" y2="424.0769"/><text fill="#000000" font-family="sans-serif" font-size="14" lengthAdjust="spacing" textLength="68.7012" x="323.2" y="441.072">segments</text><line style="stroke:#181818;stroke-width:0.5;" x1="318.2" x2="396.9012" y1="448.3738" y2="448.3738"/></g><!--link Train to Locomotive--><g class="link" data-entity-1="Train" data-entity-2="Locomotive" data-source-line="38" data-uid="lnk8" id="link_Train_Locomotive"><path codeLine="38" d="M155.9,141.6269 C136.15,168.1469 111.88,200.7369 93.19,225.8469" fill="none" id="Train-Locomotive" style="stroke:#181818;stroke-width:1;"/><polygon fill="#000000" points="132.5639,183.7637,140.3231,178.264,135.6086,174.7536,132.5639,183.7637" style="stroke:#000000;stroke-width:1;"/><text fill="#000000" font-family="sans-serif" font-size="13" lengthAdjust="spacing" textLength="22.9785" x="144.55" y="184.2538">has</text><text fill="#000000" font-family="sans-serif" font-size="13" lengthAdjust="spacing" textLength="8.271" x="142.5892" y="161.2794">1</text><text fill="#000000" font-family="sans-serif" font-size="13" lengthAdjust="spacing" textLength="8.271" x="89.2973" y="215.2286">1</text></g><!--link Train to Cargo--><g class="link" data-entity-1="Train" data-entity-2="Cargo" data-source-line="39" data-uid="lnk9" id="link_Train_Cargo"><path codeLine="39" d="M191.55,141.6269 C191.55,165.3669 191.55,193.9669 191.55,217.7169" fill="none" id="Train-Cargo" style="stroke:#181818;stroke-width:1;"/><polygon fill="#000000" points="196.55,184.7533,199.4889,175.7082,193.6111,175.7082,196.55,184.7533" style="stroke:#000000;stroke-width:1;"/><text fill="#000000" font-family="sans-serif" font-size="13" lengthAdjust="spacing" textLength="44.186" x="205.55" y="184.2538">carries</text><text fill="#000000" font-family="sans-serif" font-size="13" lengthAdjust="spacing" textLength="8.271" x="183.0297" y="161.2794">1</text><text fill="#000000" font-family="sans-serif" font-size="13" lengthAdjust="spacing" textLength="23.0356" x="167.0069" y="207.2119">0..*</text></g><!--link Train to Route--><g class="link" data-entity-1="Train" data-entity-2="Route" data-source-line="40" data-uid="lnk10" id="link_Train_Route"><path codeLine="40" d="M234.16,141.4769 C241.74,150.9969 249.22,161.1569 255.55,171.1869 C266.37,188.3169 276.15,208.5369 283.72,225.8669" fill="none" id="Train-Route" style="stroke:#181818;stroke-width:1;"/><polygon fill="#000000" points="271.082,184.0648,269.0358,174.7769,263.9673,177.7535,271.082,184.0648" style="stroke:#000000;stroke-width:1;"/><text fill="#000000" font-family="sans-serif" font-size="13" lengthAdjust="spacing" textLength="45.1128" x="277.55" y="184.2538">follows</text><text fill="#000000" font-family="sans-serif" font-size="13" lengthAdjust="spacing" textLength="8.271" x="231.3654" y="161.1092">1</text><text fill="#000000" font-family="sans-serif" font-size="13" lengthAdjust="spacing" textLength="24.8066" x="255.3482" y="215.2518">0..1</text></g><!--link Route to Station--><g class="link" data-entity-1="Route" data-entity-2="Station" data-source-line="41" data-uid="lnk11" id="link_Route_Station"><path codeLine="41" d="M264.76,307.3769 C256.65,318.8169 249.07,331.8069 244.55,345.0769 C239.52,359.8669 238.41,377.1369 238.7,391.6769" fill="none" id="Route-Station" style="stroke:#181818;stroke-width:1;"/><polygon fill="#000000" points="248.0733,358.4202,253.5525,350.6466,247.9369,348.9106,248.0733,358.4202" style="stroke:#000000;stroke-width:1;"/><text fill="#000000" font-family="sans-serif" font-size="13" lengthAdjust="spacing" textLength="55.0278" x="258.55" y="358.1438">contains</text><text fill="#000000" font-family="sans-serif" font-size="13" lengthAdjust="spacing" textLength="8.271" x="250.5988" y="327.1431">1</text><text fill="#000000" font-family="sans-serif" font-size="13" lengthAdjust="spacing" textLength="23.0356" x="212.9667" y="381.1222">1..*</text></g><!--link Route to Path--><g class="link" data-entity-1="Route" data-entity-2="Path" data-source-line="42" data-uid="lnk12" id="link_Route_Path"><path codeLine="42" d="M314.34,307.2969 C324.11,333.4969 336.73,367.3669 345.81,391.7269" fill="none" id="Route-Path" style="stroke:#181818;stroke-width:1;"/><polygon fill="#000000" points="340.2963,358.3284,339.8911,348.8265,334.3834,350.8794,340.2963,358.3284" style="stroke:#000000;stroke-width:1;"/><text fill="#000000" font-family="sans-serif" font-size="13" lengthAdjust="spacing" textLength="69.0054" x="347.55" y="358.1438">defined by</text><text fill="#000000" font-family="sans-serif" font-size="13" lengthAdjust="spacing" textLength="8.271" x="308.0806" y="327.0504">1</text><text fill="#000000" font-family="sans-serif" font-size="13" lengthAdjust="spacing" textLength="8.271" x="334.7377" y="380.9322">1</text></g><!--SRC=[RP3DRiCW48JlFCNAb_v8YPgh3xaqnqIAalG1jdXjem3hmhgHLVNTY-tQjTgUWDblXe5uDRx1W0uSUzPrO4SWeIKLvqc3-eeLdQMp186qeA_i4eWr5dmple8IRIIbn4X2T-pGU3XmGHRkTuS7MC7BURE1lOa2bv26KIbjCSRn11_AeoDbMRDZCUzqwHfIkWs1l3nZg9YY-fmy-nbBHkd9s90sfT4eXls27AmJzDQYJmKx5GMbNL0dRgMFwlN1tw3KF-FpA4ybP_sOgDv5bKijXxmxE94TGshJH3M-Bjjai5eDow9w3ZL6sFvYdjRhn-oxTmuQGp3qBvLsO-ySIhQMRpqrAlDzGzPKFwMnb_xl_uBP-9WS2YgDfm9UEzX-0G00]--></g></svg>