<svg xmlns="http://www.w3.org/2000/svg" xmlns:xlink="http://www.w3.org/1999/xlink" contentStyleType="text/css" height="664px" preserveAspectRatio="none" style="width:803px;height:664px;background:#FFFFFF;" version="1.1" viewBox="0 0 803 664" width="803px" zoomAndPan="magnify"><title>System Sequence Diagram (SSD) - US02 As an Editor, I want to add an industry in a position XY of the selected map.</title><defs/><g><text fill="#000000" font-family="sans-serif" font-size="14" font-weight="bold" lengthAdjust="spacing" textLength="775.6055" x="10" y="30.1074">System Sequence Diagram (SSD) - US02 As an Editor, I want to add an industry in a position XY of the selected map.</text><rect fill="#FFFFFF" height="430.0742" style="stroke:#181818;stroke-width:1.0;" width="10" x="204.7588" y="133.2422"/><rect fill="#FFFFFF" height="31.291" style="stroke:#181818;stroke-width:1.0;" width="10" x="570.8501" y="156.5332"/><rect fill="#FFFFFF" height="62.582" style="stroke:#181818;stroke-width:1.0;" width="10" x="570.8501" y="219.1152"/><rect fill="#FFFFFF" height="31.291" style="stroke:#181818;stroke-width:1.0;" width="10" x="570.8501" y="312.9883"/><rect fill="#FFFFFF" height="31.291" style="stroke:#181818;stroke-width:1.0;" width="10" x="570.8501" y="375.5703"/><rect fill="#FFFFFF" height="31.291" style="stroke:#181818;stroke-width:1.0;" width="10" x="570.8501" y="438.1523"/><rect fill="#FFFFFF" height="62.582" style="stroke:#181818;stroke-width:1.0;" width="10" x="570.8501" y="500.7344"/><line style="stroke:#181818;stroke-width:0.5;stroke-dasharray:5.0,5.0;" x1="209.4727" x2="209.4727" y1="123.2422" y2="581.3164"/><line style="stroke:#181818;stroke-width:0.5;stroke-dasharray:5.0,5.0;" x1="575.5674" x2="575.5674" y1="123.2422" y2="581.3164"/><text fill="#000000" font-family="sans-serif" font-size="14" lengthAdjust="spacing" textLength="36.5723" x="188.4727" y="119.7285">Editor</text><ellipse cx="209.7588" cy="53.1211" fill="#E3E3E3" rx="8" ry="8" style="stroke:#181818;stroke-width:0.5;"/><path d="M209.7588,61.1211 L209.7588,88.1211 M196.7588,69.1211 L222.7588,69.1211 M209.7588,88.1211 L196.7588,103.1211 M209.7588,88.1211 L222.7588,103.1211 " fill="none" style="stroke:#181818;stroke-width:0.5;"/><text fill="#000000" font-family="sans-serif" font-size="14" lengthAdjust="spacing" textLength="36.5723" x="188.4727" y="595.4238">Editor</text><ellipse cx="209.7588" cy="607.4375" fill="#E3E3E3" rx="8" ry="8" style="stroke:#181818;stroke-width:0.5;"/><path d="M209.7588,615.4375 L209.7588,642.4375 M196.7588,623.4375 L222.7588,623.4375 M209.7588,642.4375 L196.7588,657.4375 M209.7588,642.4375 L222.7588,657.4375 " fill="none" style="stroke:#181818;stroke-width:0.5;"/><rect fill="#E3E3E3" height="32.6211" rx="2.5" ry="2.5" style="stroke:#181818;stroke-width:0.5;" width="64.5654" x="543.5674" y="89.6211"/><text fill="#000000" font-family="sans-serif" font-size="14" lengthAdjust="spacing" textLength="50.5654" x="550.5674" y="111.7285">:System</text><rect fill="#E3E3E3" height="32.6211" rx="2.5" ry="2.5" style="stroke:#181818;stroke-width:0.5;" width="64.5654" x="543.5674" y="580.3164"/><text fill="#000000" font-family="sans-serif" font-size="14" lengthAdjust="spacing" textLength="50.5654" x="550.5674" y="602.4238">:System</text><rect fill="#FFFFFF" height="430.0742" style="stroke:#181818;stroke-width:1.0;" width="10" x="204.7588" y="133.2422"/><rect fill="#FFFFFF" height="31.291" style="stroke:#181818;stroke-width:1.0;" width="10" x="570.8501" y="156.5332"/><rect fill="#FFFFFF" height="62.582" style="stroke:#181818;stroke-width:1.0;" width="10" x="570.8501" y="219.1152"/><rect fill="#FFFFFF" height="31.291" style="stroke:#181818;stroke-width:1.0;" width="10" x="570.8501" y="312.9883"/><rect fill="#FFFFFF" height="31.291" style="stroke:#181818;stroke-width:1.0;" width="10" x="570.8501" y="375.5703"/><rect fill="#FFFFFF" height="31.291" style="stroke:#181818;stroke-width:1.0;" width="10" x="570.8501" y="438.1523"/><rect fill="#FFFFFF" height="62.582" style="stroke:#181818;stroke-width:1.0;" width="10" x="570.8501" y="500.7344"/><polygon fill="#181818" points="558.8501,152.5332,568.8501,156.5332,558.8501,160.5332,562.8501,156.5332" style="stroke:#181818;stroke-width:1.0;"/><line style="stroke:#181818;stroke-width:1.0;" x1="214.7588" x2="564.8501" y1="156.5332" y2="156.5332"/><text fill="#000000" font-family="sans-serif" font-size="13" font-weight="bold" lengthAdjust="spacing" textLength="7.23" x="221.7588" y="151.2705">1</text><text fill="#000000" font-family="sans-serif" font-size="13" lengthAdjust="spacing" textLength="133.688" x="232.9888" y="151.2705">asks to add an industry</text><polygon fill="#181818" points="225.7588,183.8242,215.7588,187.8242,225.7588,191.8242,221.7588,187.8242" style="stroke:#181818;stroke-width:1.0;"/><line style="stroke:#181818;stroke-width:1.0;stroke-dasharray:2.0,2.0;" x1="219.7588" x2="574.8501" y1="187.8242" y2="187.8242"/><text fill="#000000" font-family="sans-serif" font-size="13" font-weight="bold" lengthAdjust="spacing" textLength="7.23" x="231.7588" y="182.5615">2</text><text fill="#000000" font-family="sans-serif" font-size="13" lengthAdjust="spacing" textLength="134.4243" x="242.9888" y="182.5615">requests authentication</text><polygon fill="#181818" points="558.8501,215.1152,568.8501,219.1152,558.8501,223.1152,562.8501,219.1152" style="stroke:#181818;stroke-width:1.0;"/><line style="stroke:#181818;stroke-width:1.0;" x1="214.7588" x2="564.8501" y1="219.1152" y2="219.1152"/><text fill="#000000" font-family="sans-serif" font-size="13" font-weight="bold" lengthAdjust="spacing" textLength="7.23" x="221.7588" y="213.8525">3</text><text fill="#000000" font-family="sans-serif" font-size="13" lengthAdjust="spacing" textLength="115.6162" x="232.9888" y="213.8525">provides credentials</text><polygon fill="#181818" points="225.7588,246.4063,215.7588,250.4063,225.7588,254.4063,221.7588,250.4063" style="stroke:#181818;stroke-width:1.0;"/><line style="stroke:#181818;stroke-width:1.0;stroke-dasharray:2.0,2.0;" x1="219.7588" x2="569.8501" y1="250.4063" y2="250.4063"/><text fill="#000000" font-family="sans-serif" font-size="13" font-weight="bold" lengthAdjust="spacing" textLength="7.23" x="231.7588" y="245.1436">4</text><text fill="#000000" font-family="sans-serif" font-size="13" lengthAdjust="spacing" textLength="114.1689" x="242.9888" y="245.1436">validates Editor role</text><polygon fill="#181818" points="225.7588,277.6973,215.7588,281.6973,225.7588,285.6973,221.7588,281.6973" style="stroke:#181818;stroke-width:1.0;"/><line style="stroke:#181818;stroke-width:1.0;stroke-dasharray:2.0,2.0;" x1="219.7588" x2="574.8501" y1="281.6973" y2="281.6973"/><text fill="#000000" font-family="sans-serif" font-size="13" font-weight="bold" lengthAdjust="spacing" textLength="7.23" x="231.7588" y="276.4346">5</text><text fill="#000000" font-family="sans-serif" font-size="13" lengthAdjust="spacing" textLength="218.2197" x="242.9888" y="276.4346">shows map list and asks to select one</text><polygon fill="#181818" points="558.8501,308.9883,568.8501,312.9883,558.8501,316.9883,562.8501,312.9883" style="stroke:#181818;stroke-width:1.0;"/><line style="stroke:#181818;stroke-width:1.0;" x1="214.7588" x2="564.8501" y1="312.9883" y2="312.9883"/><text fill="#000000" font-family="sans-serif" font-size="13" font-weight="bold" lengthAdjust="spacing" textLength="7.23" x="221.7588" y="307.7256">6</text><text fill="#000000" font-family="sans-serif" font-size="13" lengthAdjust="spacing" textLength="69.3608" x="232.9888" y="307.7256">selects map</text><polygon fill="#181818" points="225.7588,340.2793,215.7588,344.2793,225.7588,348.2793,221.7588,344.2793" style="stroke:#181818;stroke-width:1.0;"/><line style="stroke:#181818;stroke-width:1.0;stroke-dasharray:2.0,2.0;" x1="219.7588" x2="574.8501" y1="344.2793" y2="344.2793"/><text fill="#000000" font-family="sans-serif" font-size="13" font-weight="bold" lengthAdjust="spacing" textLength="7.23" x="231.7588" y="339.0166">7</text><text fill="#000000" font-family="sans-serif" font-size="13" lengthAdjust="spacing" textLength="159.6943" x="242.9888" y="339.0166">shows industry type options</text><polygon fill="#181818" points="558.8501,371.5703,568.8501,375.5703,558.8501,379.5703,562.8501,375.5703" style="stroke:#181818;stroke-width:1.0;"/><line style="stroke:#181818;stroke-width:1.0;" x1="214.7588" x2="564.8501" y1="375.5703" y2="375.5703"/><text fill="#000000" font-family="sans-serif" font-size="13" font-weight="bold" lengthAdjust="spacing" textLength="7.23" x="221.7588" y="370.3076">8</text><text fill="#000000" font-family="sans-serif" font-size="13" lengthAdjust="spacing" textLength="117.7744" x="232.9888" y="370.3076">selects industry type</text><polygon fill="#181818" points="225.7588,402.8613,215.7588,406.8613,225.7588,410.8613,221.7588,406.8613" style="stroke:#181818;stroke-width:1.0;"/><line style="stroke:#181818;stroke-width:1.0;stroke-dasharray:2.0,2.0;" x1="219.7588" x2="574.8501" y1="406.8613" y2="406.8613"/><text fill="#000000" font-family="sans-serif" font-size="13" font-weight="bold" lengthAdjust="spacing" textLength="7.23" x="231.7588" y="401.5986">9</text><text fill="#000000" font-family="sans-serif" font-size="13" lengthAdjust="spacing" textLength="277.4688" x="242.9888" y="401.5986">shows industry subtype options (filtered by type)</text><polygon fill="#181818" points="558.8501,434.1523,568.8501,438.1523,558.8501,442.1523,562.8501,438.1523" style="stroke:#181818;stroke-width:1.0;"/><line style="stroke:#181818;stroke-width:1.0;" x1="214.7588" x2="564.8501" y1="438.1523" y2="438.1523"/><text fill="#000000" font-family="sans-serif" font-size="13" font-weight="bold" lengthAdjust="spacing" textLength="14.46" x="221.7588" y="432.8896">10</text><text fill="#000000" font-family="sans-serif" font-size="13" lengthAdjust="spacing" textLength="138.7344" x="240.2188" y="432.8896">selects industry subtype</text><polygon fill="#181818" points="225.7588,465.4434,215.7588,469.4434,225.7588,473.4434,221.7588,469.4434" style="stroke:#181818;stroke-width:1.0;"/><line style="stroke:#181818;stroke-width:1.0;stroke-dasharray:2.0,2.0;" x1="219.7588" x2="574.8501" y1="469.4434" y2="469.4434"/><text fill="#000000" font-family="sans-serif" font-size="13" font-weight="bold" lengthAdjust="spacing" textLength="14.46" x="231.7588" y="464.1807">11</text><text fill="#000000" font-family="sans-serif" font-size="13" lengthAdjust="spacing" textLength="141.6353" x="250.2188" y="464.1807">requests XY coordinates</text><polygon fill="#181818" points="558.8501,496.7344,568.8501,500.7344,558.8501,504.7344,562.8501,500.7344" style="stroke:#181818;stroke-width:1.0;"/><line style="stroke:#181818;stroke-width:1.0;" x1="214.7588" x2="564.8501" y1="500.7344" y2="500.7344"/><text fill="#000000" font-family="sans-serif" font-size="13" font-weight="bold" lengthAdjust="spacing" textLength="14.46" x="221.7588" y="495.4717">12</text><text fill="#000000" font-family="sans-serif" font-size="13" lengthAdjust="spacing" textLength="155.3779" x="240.2188" y="495.4717">inputs X and Y coordinates</text><polygon fill="#181818" points="225.7588,528.0254,215.7588,532.0254,225.7588,536.0254,221.7588,532.0254" style="stroke:#181818;stroke-width:1.0;"/><line style="stroke:#181818;stroke-width:1.0;stroke-dasharray:2.0,2.0;" x1="219.7588" x2="569.8501" y1="532.0254" y2="532.0254"/><text fill="#000000" font-family="sans-serif" font-size="13" font-weight="bold" lengthAdjust="spacing" textLength="14.46" x="231.7588" y="526.7627">13</text><text fill="#000000" font-family="sans-serif" font-size="13" lengthAdjust="spacing" textLength="313.6313" x="250.2188" y="526.7627">validates placement (boundaries, occupation, spacing)</text><polygon fill="#181818" points="220.7588,559.3164,210.7588,563.3164,220.7588,567.3164,216.7588,563.3164" style="stroke:#181818;stroke-width:1.0;"/><line style="stroke:#181818;stroke-width:1.0;stroke-dasharray:2.0,2.0;" x1="214.7588" x2="574.8501" y1="563.3164" y2="563.3164"/><text fill="#000000" font-family="sans-serif" font-size="13" font-weight="bold" lengthAdjust="spacing" textLength="14.46" x="226.7588" y="558.0537">14</text><text fill="#000000" font-family="sans-serif" font-size="13" lengthAdjust="spacing" textLength="162.5698" x="245.2188" y="558.0537">confirms successful addition</text><!--SRC=[fLHDRo8n3BtFhx0uWGIhrHuvh5G93ZsiAdMwKdiqYGSYPk9id83uztLcPX7T3oHeJb7Yz_ByR4VspWUCs477diqkSaUGOgPApZS1pHwtLATJIn399FJRzZ90TcZvwFmM6co5gYgvfA7rIH9rKDElJDuGh1nkI_YqhbSpMC3F-kitU1103slh4iSvFC8HVOB4WDQM2-TjbXHFkW64mEAIOm-lRy0Df1s1KAkAo4A7uKjLOKxiSxUXg7kZd30Pk2U00klLuylJSwMgapCkbAScoq5cVr-_rI_h7ptI7J3HRq05keOzBBwFOR1Ko5x-8ROFFtECf32k4RnGdf5ngQQgHPBKYgmvUHM79SqUO-bFfl-f2P4FpfA0YMGBYnRZPYa7R9tLM1bh0f6rrjSGikEZ5FkXTPBK1tlsPIWEiASRKnc0FUlD6GnwpesJJe60G_5JxbJnWUkpUYHlBYN1j75j8gqOR8O7PfzLERvmVnVgT1dcQ9qlZN2Z7FqKSk7e6-5leljwCRHegDEUXkc6ixSO7SaSs9WS-b6PW-WtfL_Gx2gZOT-us8bwP0o9DBajm-kkJTl5qS3p3W00]--></g></svg>