<svg xmlns="http://www.w3.org/2000/svg" xmlns:xlink="http://www.w3.org/1999/xlink" contentStyleType="text/css" data-diagram-type="CLASS" height="463px" preserveAspectRatio="none" style="width:721px;height:463px;background:#FFFFFF;" version="1.1" viewBox="0 0 721 463" width="721px" zoomAndPan="magnify"><title>Domain Model (DM) - US11 List Trains</title><defs/><g><text fill="#000000" font-family="sans-serif" font-size="14" font-weight="bold" lengthAdjust="spacing" textLength="299.9883" x="203.8417" y="22.9951">Domain Model (DM) - US11 List Trains</text><!--class Train--><g class="entity" data-entity="Train" data-source-line="7" data-uid="ent0002" id="entity_Train"><rect fill="#F1F1F1" height="96.8906" rx="2.5" ry="2.5" style="stroke:#181818;stroke-width:0.5;" width="233.1904" x="179.67" y="44.2969"/><ellipse cx="274.1905" cy="60.2969" fill="#C2C2C2" rx="11" ry="11" style="stroke:#181818;stroke-width:1;"/><path d="M277.1593,65.9375 Q276.5811,66.2344 275.9405,66.375 Q275.2999,66.5313 274.5968,66.5313 Q272.0968,66.5313 270.7686,64.8906 Q269.4561,63.2344 269.4561,60.1094 Q269.4561,56.9844 270.7686,55.3281 Q272.0968,53.6719 274.5968,53.6719 Q275.2999,53.6719 275.9405,53.8281 Q276.5968,53.9844 277.1593,54.2813 L277.1593,57 Q276.5343,56.4219 275.9405,56.1563 Q275.3468,55.875 274.7218,55.875 Q273.378,55.875 272.6905,56.9531 Q272.003,58.0156 272.003,60.1094 Q272.003,62.2031 272.6905,63.2813 Q273.378,64.3438 274.7218,64.3438 Q275.3468,64.3438 275.9405,64.0781 Q276.5343,63.7969 277.1593,63.2188 L277.1593,65.9375 Z " fill="#000000"/><text fill="#000000" font-family="sans-serif" font-size="14" lengthAdjust="spacing" textLength="35.6494" x="294.6905" y="65.1436">Train</text><line style="stroke:#181818;stroke-width:0.5;" x1="180.67" x2="411.8604" y1="76.2969" y2="76.2969"/><rect fill="none" height="6" style="stroke:#595959;stroke-width:1;" width="6" x="187.67" y="86.9453"/><text fill="#000000" font-family="sans-serif" font-size="14" lengthAdjust="spacing" textLength="90.6514" x="199.67" y="93.292">name: String</text><rect fill="none" height="6" style="stroke:#595959;stroke-width:1;" width="6" x="187.67" y="103.2422"/><text fill="#000000" font-family="sans-serif" font-size="14" lengthAdjust="spacing" textLength="162.4834" x="199.67" y="109.5889">locomotiveType: String</text><rect fill="none" height="6" style="stroke:#595959;stroke-width:1;" width="6" x="187.67" y="119.5391"/><text fill="#000000" font-family="sans-serif" font-size="14" lengthAdjust="spacing" textLength="207.1904" x="199.67" y="125.8857">currentCargoes: List&lt;Cargo&gt;</text><line style="stroke:#181818;stroke-width:0.5;" x1="180.67" x2="411.8604" y1="133.1875" y2="133.1875"/></g><!--class Locomotive--><g class="entity" data-entity="Locomotive" data-source-line="13" data-uid="ent0003" id="entity_Locomotive"><rect fill="#F1F1F1" height="80.5938" rx="2.5" ry="2.5" style="stroke:#181818;stroke-width:0.5;" width="172.5352" x="7" y="226.3369"/><ellipse cx="48.742" cy="242.3369" fill="#C2C2C2" rx="11" ry="11" style="stroke:#181818;stroke-width:1;"/><path d="M51.7108,247.9775 Q51.1327,248.2744 50.492,248.415 Q49.8514,248.5713 49.1483,248.5713 Q46.6483,248.5713 45.3202,246.9306 Q44.0077,245.2744 44.0077,242.1494 Q44.0077,239.0244 45.3202,237.3681 Q46.6483,235.7119 49.1483,235.7119 Q49.8514,235.7119 50.492,235.8681 Q51.1483,236.0244 51.7108,236.3213 L51.7108,239.04 Q51.0858,238.4619 50.492,238.1963 Q49.8983,237.915 49.2733,237.915 Q47.9295,237.915 47.242,238.9931 Q46.5545,240.0556 46.5545,242.1494 Q46.5545,244.2431 47.242,245.3213 Q47.9295,246.3838 49.2733,246.3838 Q49.8983,246.3838 50.492,246.1181 Q51.0858,245.8369 51.7108,245.2588 L51.7108,247.9775 Z " fill="#000000"/><text fill="#000000" font-family="sans-serif" font-size="14" lengthAdjust="spacing" textLength="81.1084" x="68.6847" y="247.1836">Locomotive</text><line style="stroke:#181818;stroke-width:0.5;" x1="8" x2="178.5352" y1="258.3369" y2="258.3369"/><rect fill="none" height="6" style="stroke:#595959;stroke-width:1;" width="6" x="15" y="268.9853"/><text fill="#000000" font-family="sans-serif" font-size="14" lengthAdjust="spacing" textLength="82.2227" x="27" y="275.332">type: String</text><rect fill="none" height="6" style="stroke:#595959;stroke-width:1;" width="6" x="15" y="285.2822"/><text fill="#000000" font-family="sans-serif" font-size="14" lengthAdjust="spacing" textLength="146.5352" x="27" y="291.6289">specifications: String</text><line style="stroke:#181818;stroke-width:0.5;" x1="8" x2="178.5352" y1="298.9306" y2="298.9306"/></g><!--class Cargo--><g class="entity" data-entity="Cargo" data-source-line="18" data-uid="ent0004" id="entity_Cargo"><rect fill="#F1F1F1" height="96.8906" rx="2.5" ry="2.5" style="stroke:#181818;stroke-width:0.5;" width="164.3594" x="214.09" y="218.1869"/><ellipse cx="271.2384" cy="234.1869" fill="#C2C2C2" rx="11" ry="11" style="stroke:#181818;stroke-width:1;"/><path d="M274.2072,239.8275 Q273.6291,240.1244 272.9884,240.265 Q272.3478,240.4213 271.6447,240.4213 Q269.1447,240.4213 267.8166,238.7806 Q266.5041,237.1244 266.5041,233.9994 Q266.5041,230.8744 267.8166,229.2181 Q269.1447,227.5619 271.6447,227.5619 Q272.3478,227.5619 272.9884,227.7181 Q273.6447,227.8744 274.2072,228.1713 L274.2072,230.89 Q273.5822,230.3119 272.9884,230.0463 Q272.3947,229.765 271.7697,229.765 Q270.4259,229.765 269.7384,230.8431 Q269.0509,231.9056 269.0509,233.9994 Q269.0509,236.0931 269.7384,237.1713 Q270.4259,238.2338 271.7697,238.2338 Q272.3947,238.2338 272.9884,237.9681 Q273.5822,237.6869 274.2072,237.1088 L274.2072,239.8275 Z " fill="#000000"/><text fill="#000000" font-family="sans-serif" font-size="14" lengthAdjust="spacing" textLength="41.5625" x="291.7384" y="239.0336">Cargo</text><line style="stroke:#181818;stroke-width:0.5;" x1="215.09" x2="377.4494" y1="250.1869" y2="250.1869"/><rect fill="none" height="6" style="stroke:#595959;stroke-width:1;" width="6" x="222.09" y="260.8353"/><text fill="#000000" font-family="sans-serif" font-size="14" lengthAdjust="spacing" textLength="82.2227" x="234.09" y="267.182">type: String</text><rect fill="none" height="6" style="stroke:#595959;stroke-width:1;" width="6" x="222.09" y="277.1322"/><text fill="#000000" font-family="sans-serif" font-size="14" lengthAdjust="spacing" textLength="85.7842" x="234.09" y="283.4789">quantity: int</text><rect fill="none" height="6" style="stroke:#595959;stroke-width:1;" width="6" x="222.09" y="293.4291"/><text fill="#000000" font-family="sans-serif" font-size="14" lengthAdjust="spacing" textLength="138.3594" x="234.09" y="299.7757">status: CargoStatus</text><line style="stroke:#181818;stroke-width:0.5;" x1="215.09" x2="377.4494" y1="307.0775" y2="307.0775"/></g><!--class Route--><g class="entity" data-entity="Route" data-source-line="24" data-uid="ent0005" id="entity_Route"><rect fill="#F1F1F1" height="80.5938" rx="2.5" ry="2.5" style="stroke:#181818;stroke-width:0.5;" width="188.3467" x="413.09" y="226.3369"/><ellipse cx="482.3791" cy="242.3369" fill="#C2C2C2" rx="11" ry="11" style="stroke:#181818;stroke-width:1;"/><path d="M485.3478,247.9775 Q484.7697,248.2744 484.1291,248.415 Q483.4884,248.5713 482.7853,248.5713 Q480.2853,248.5713 478.9572,246.9306 Q477.6447,245.2744 477.6447,242.1494 Q477.6447,239.0244 478.9572,237.3681 Q480.2853,235.7119 482.7853,235.7119 Q483.4884,235.7119 484.1291,235.8681 Q484.7853,236.0244 485.3478,236.3213 L485.3478,239.04 Q484.7228,238.4619 484.1291,238.1963 Q483.5353,237.915 482.9103,237.915 Q481.5666,237.915 480.8791,238.9931 Q480.1916,240.0556 480.1916,242.1494 Q480.1916,244.2431 480.8791,245.3213 Q481.5666,246.3838 482.9103,246.3838 Q483.5353,246.3838 484.1291,246.1181 Q484.7228,245.8369 485.3478,245.2588 L485.3478,247.9775 Z " fill="#000000"/><text fill="#000000" font-family="sans-serif" font-size="14" lengthAdjust="spacing" textLength="41.2686" x="502.8791" y="247.1836">Route</text><line style="stroke:#181818;stroke-width:0.5;" x1="414.09" x2="600.4367" y1="258.3369" y2="258.3369"/><rect fill="none" height="6" style="stroke:#595959;stroke-width:1;" width="6" x="421.09" y="268.9853"/><text fill="#000000" font-family="sans-serif" font-size="14" lengthAdjust="spacing" textLength="162.3467" x="433.09" y="275.332">stations: List&lt;Station&gt;</text><rect fill="none" height="6" style="stroke:#595959;stroke-width:1;" width="6" x="421.09" y="285.2822"/><text fill="#000000" font-family="sans-serif" font-size="14" lengthAdjust="spacing" textLength="72.3789" x="433.09" y="291.6289">path: Path</text><line style="stroke:#181818;stroke-width:0.5;" x1="414.09" x2="600.4367" y1="298.9306" y2="298.9306"/></g><!--class Station--><g class="entity" data-entity="Station" data-source-line="29" data-uid="ent0006" id="entity_Station"><rect fill="#F1F1F1" height="64.2969" rx="2.5" ry="2.5" style="stroke:#181818;stroke-width:0.5;" width="116.6514" x="347.94" y="392.0769"/><ellipse cx="378.6355" cy="408.0769" fill="#C2C2C2" rx="11" ry="11" style="stroke:#181818;stroke-width:1;"/><path d="M381.6043,413.7175 Q381.0261,414.0144 380.3855,414.155 Q379.7449,414.3113 379.0418,414.3113 Q376.5418,414.3113 375.2136,412.6706 Q373.9011,411.0144 373.9011,407.8894 Q373.9011,404.7644 375.2136,403.1081 Q376.5418,401.4519 379.0418,401.4519 Q379.7449,401.4519 380.3855,401.6081 Q381.0418,401.7644 381.6043,402.0613 L381.6043,404.78 Q380.9793,404.2019 380.3855,403.9363 Q379.7918,403.655 379.1668,403.655 Q377.823,403.655 377.1355,404.7331 Q376.448,405.7956 376.448,407.8894 Q376.448,409.9831 377.1355,411.0613 Q377.823,412.1238 379.1668,412.1238 Q379.7918,412.1238 380.3855,411.8581 Q380.9793,411.5769 381.6043,410.9988 L381.6043,413.7175 Z " fill="#000000"/><text fill="#000000" font-family="sans-serif" font-size="14" lengthAdjust="spacing" textLength="49.7725" x="396.1234" y="412.9236">Station</text><line style="stroke:#181818;stroke-width:0.5;" x1="348.94" x2="463.5914" y1="424.0769" y2="424.0769"/><rect fill="none" height="6" style="stroke:#595959;stroke-width:1;" width="6" x="355.94" y="434.7253"/><text fill="#000000" font-family="sans-serif" font-size="14" lengthAdjust="spacing" textLength="90.6514" x="367.94" y="441.072">name: String</text><line style="stroke:#181818;stroke-width:0.5;" x1="348.94" x2="463.5914" y1="448.3738" y2="448.3738"/></g><!--class Path--><g class="entity" data-entity="Path" data-source-line="33" data-uid="ent0007" id="entity_Path"><rect fill="#F1F1F1" height="64.2969" rx="2.5" ry="2.5" style="stroke:#181818;stroke-width:0.5;" width="214.8018" x="499.87" y="392.0769"/><ellipse cx="587.329" cy="408.0769" fill="#C2C2C2" rx="11" ry="11" style="stroke:#181818;stroke-width:1;"/><path d="M590.2977,413.7175 Q589.7196,414.0144 589.079,414.155 Q588.4384,414.3113 587.7352,414.3113 Q585.2352,414.3113 583.9071,412.6706 Q582.5946,411.0144 582.5946,407.8894 Q582.5946,404.7644 583.9071,403.1081 Q585.2352,401.4519 587.7352,401.4519 Q588.4384,401.4519 589.079,401.6081 Q589.7352,401.7644 590.2977,402.0613 L590.2977,404.78 Q589.6727,404.2019 589.079,403.9363 Q588.4852,403.655 587.8602,403.655 Q586.5165,403.655 585.829,404.7331 Q585.1415,405.7956 585.1415,407.8894 Q585.1415,409.9831 585.829,411.0613 Q586.5165,412.1238 587.8602,412.1238 Q588.4852,412.1238 589.079,411.8581 Q589.6727,411.5769 590.2977,410.9988 L590.2977,413.7175 Z " fill="#000000"/><text fill="#000000" font-family="sans-serif" font-size="14" lengthAdjust="spacing" textLength="31.3838" x="607.829" y="412.9236">Path</text><line style="stroke:#181818;stroke-width:0.5;" x1="500.87" x2="713.6718" y1="424.0769" y2="424.0769"/><rect fill="none" height="6" style="stroke:#595959;stroke-width:1;" width="6" x="507.87" y="434.7253"/><text fill="#000000" font-family="sans-serif" font-size="14" lengthAdjust="spacing" textLength="188.8018" x="519.87" y="441.072">segments: List&lt;Segment&gt;</text><line style="stroke:#181818;stroke-width:0.5;" x1="500.87" x2="713.6718" y1="448.3738" y2="448.3738"/></g><!--link Train to Locomotive--><g class="link" data-entity-1="Train" data-entity-2="Locomotive" data-source-line="38" data-uid="lnk8" id="link_Train_Locomotive"><path codeLine="38" d="M239.72,141.6269 C208.4,168.1469 169.92,200.7369 140.26,225.8469" fill="none" id="Train-Locomotive" style="stroke:#181818;stroke-width:1;"/><polygon fill="#000000" points="202.4542,182.9844,211.2562,179.3821,207.4578,174.8964,202.4542,182.9844" style="stroke:#000000;stroke-width:1;"/><text fill="#000000" font-family="sans-serif" font-size="13" lengthAdjust="spacing" textLength="22.9785" x="215.27" y="184.2538">has</text><text fill="#000000" font-family="sans-serif" font-size="13" lengthAdjust="spacing" textLength="8.271" x="223.6024" y="161.2794">1</text><text fill="#000000" font-family="sans-serif" font-size="13" lengthAdjust="spacing" textLength="8.271" x="139.1335" y="215.2286">1</text></g><!--link Train to Cargo--><g class="link" data-entity-1="Train" data-entity-2="Cargo" data-source-line="39" data-uid="lnk9" id="link_Train_Cargo"><path codeLine="39" d="M296.27,141.6269 C296.27,165.3669 296.27,193.9669 296.27,217.7169" fill="none" id="Train-Cargo" style="stroke:#181818;stroke-width:1;"/><polygon fill="#000000" points="301.27,184.7533,304.2089,175.7082,298.3311,175.7082,301.27,184.7533" style="stroke:#000000;stroke-width:1;"/><text fill="#000000" font-family="sans-serif" font-size="13" lengthAdjust="spacing" textLength="44.186" x="310.27" y="184.2538">carries</text><text fill="#000000" font-family="sans-serif" font-size="13" lengthAdjust="spacing" textLength="8.271" x="287.7514" y="161.2794">1</text><text fill="#000000" font-family="sans-serif" font-size="13" lengthAdjust="spacing" textLength="23.0356" x="271.7271" y="207.2119">0..*</text></g><!--link Train to Route--><g class="link" data-entity-1="Train" data-entity-2="Route" data-source-line="40" data-uid="lnk10" id="link_Train_Route"><path codeLine="40" d="M355.04,141.6269 C387.6,168.1469 427.6,200.7369 458.42,225.8469" fill="none" id="Train-Route" style="stroke:#181818;stroke-width:1;"/><polygon fill="#000000" points="417.1465,182.9113,411.9901,174.9199,408.2776,179.4769,417.1465,182.9113" style="stroke:#000000;stroke-width:1;"/><text fill="#000000" font-family="sans-serif" font-size="13" lengthAdjust="spacing" textLength="45.1128" x="422.27" y="184.2538">follows</text><text fill="#000000" font-family="sans-serif" font-size="13" lengthAdjust="spacing" textLength="8.271" x="354.4186" y="161.2794">1</text><text fill="#000000" font-family="sans-serif" font-size="13" lengthAdjust="spacing" textLength="24.8066" x="424.7874" y="215.2286">0..1</text></g><!--link Route to Station--><g class="link" data-entity-1="Route" data-entity-2="Station" data-source-line="41" data-uid="lnk11" id="link_Route_Station"><path codeLine="41" d="M481.52,307.2969 C464.51,333.4969 442.53,367.3669 426.72,391.7269" fill="none" id="Route-Station" style="stroke:#181818;stroke-width:1;"/><polygon fill="#000000" points="459.5478,357.8373,466.9375,351.8503,462.0071,348.6502,459.5478,357.8373" style="stroke:#000000;stroke-width:1;"/><text fill="#000000" font-family="sans-serif" font-size="13" lengthAdjust="spacing" textLength="55.0278" x="471.27" y="358.1438">contains</text><text fill="#000000" font-family="sans-serif" font-size="13" lengthAdjust="spacing" textLength="8.271" x="468.8013" y="327.0504">1</text><text fill="#000000" font-family="sans-serif" font-size="13" lengthAdjust="spacing" textLength="23.0356" x="405.4864" y="380.9322">1..*</text></g><!--link Route to Path--><g class="link" data-entity-1="Route" data-entity-2="Path" data-source-line="42" data-uid="lnk12" id="link_Route_Path"><path codeLine="42" d="M532.76,307.2969 C549.6,333.4969 571.37,367.3669 587.02,391.7269" fill="none" id="Route-Path" style="stroke:#181818;stroke-width:1;"/><polygon fill="#000000" points="572.9732,357.8495,570.5554,348.6514,565.6107,351.8292,572.9732,357.8495" style="stroke:#000000;stroke-width:1;"/><text fill="#000000" font-family="sans-serif" font-size="13" lengthAdjust="spacing" textLength="69.0054" x="579.27" y="358.1438">defined by</text><text fill="#000000" font-family="sans-serif" font-size="13" lengthAdjust="spacing" textLength="8.271" x="528.2076" y="327.0504">1</text><text fill="#000000" font-family="sans-serif" font-size="13" lengthAdjust="spacing" textLength="8.271" x="574.2723" y="380.9322">1</text></g><!--SRC=[TPBFReCm3CRlF8N5PN-aLkiLJLpMOojDfNi0BnY86XAMc5Leshil98LsNNSXEFw-dsCdxY1rXnPRQ8qseh6c9M3RK-BcJ8VYW3KLF2W2Iu9Hr-fIu1eipL7g6YfKZfA49NlfshGeDMnDIGhkrzi7MC1RiLh1HZg6lVL9boH2eNCnWgy4l4PZInaKR3qnR2WZJ6jOVj9-w7wdH6yjQNv1MnjoMK0_XoXFlYVuPlQVAl0rndKaP2K5iZJQpQcP48Z_cJzwrBxZ8GEfEU8OkVUOO2j2S6RjJC_JGKPXh1WENiGm3xaEkSdWrN_FtfFWrg1cpUYOy5ItVZepFePXCdUm8nMBDx9pIRo0T9N2OX6MYw5bqA23_4hpj5m-fgV9P23GMaatLVulzfn1PPGonr4LT-PwWJLrvsb6y_Wy_WhJs5y69LLIKmdl0-G_]--></g></svg>