<svg xmlns="http://www.w3.org/2000/svg" xmlns:xlink="http://www.w3.org/1999/xlink" contentStyleType="text/css" data-diagram-type="SEQUENCE" height="1283px" preserveAspectRatio="none" style="width:1807px;height:1283px;background:#FFFFFF;" version="1.1" viewBox="0 0 1807 1283" width="1807px" zoomAndPan="magnify"><title>US23 - Save Game - Sequence Diagram</title><defs/><g><text fill="#000000" font-family="Verdana" font-size="22" font-weight="bold" lengthAdjust="spacing" textLength="484.9775" x="664.5684" y="35.4209">US23 - Save Game - Sequence Diagram</text><g><title>SaveGameUI</title><rect fill="#FFFFFF" height="1023.9219" style="stroke:#000000;stroke-width:1;" width="10" x="241.7158" y="160.0391"/></g><g><title>SaveGameController</title><rect fill="#FFFFFF" height="814.9922" style="stroke:#000000;stroke-width:1;" width="10" x="457.4829" y="347.8359"/></g><g><title>SaveGameService</title><rect fill="#FFFFFF" height="272.0625" style="stroke:#000000;stroke-width:1;" width="10" x="831.0845" y="802.6953"/></g><g><title>SaveGameSerializer</title><rect fill="#FFFFFF" height="29.1328" style="stroke:#000000;stroke-width:1;" width="10" x="1147.1235" y="873.9609"/></g><g><title>SaveGameRepository</title><rect fill="#FFFFFF" height="113.3984" style="stroke:#000000;stroke-width:1;" width="10" x="1337.3135" y="932.2266"/></g><g><title>GameSession</title><rect fill="#FFFFFF" height="29.1328" style="stroke:#000000;stroke-width:1;" width="10" x="1591.2407" y="419.1016"/></g><g><title>GameSession</title><rect fill="#FFFFFF" height="29.1328" style="stroke:#000000;stroke-width:1;" width="10" x="1591.2407" y="744.4297"/></g><g><title>UserSession</title><rect fill="#FFFFFF" height="87.3984" style="stroke:#000000;stroke-width:1;" width="10" x="1725.4512" y="585.7656"/></g><rect fill="#FFFFFF" height="692.5938" style="stroke:#000000;stroke-width:1;" width="1625.6079" x="174.5063" y="463.2344"/><rect fill="#FFFFFF" height="43.9375" style="stroke:none;stroke-width:1;" width="1625.6079" x="174.5063" y="1111.8906"/><g><title>Player</title><rect fill="#000000" fill-opacity="0.00000" height="1073.0547" width="8" x="30.7827" y="128.9063"/><line style="stroke:#000000;stroke-width:1;" x1="34" x2="34" y1="128.9063" y2="1201.9609"/></g><g><title>SaveGameUI</title><rect fill="#000000" fill-opacity="0.00000" height="1073.0547" width="8" x="242.7158" y="128.9063"/><line style="stroke:#000000;stroke-width:1;" x1="246.5063" x2="246.5063" y1="128.9063" y2="1201.9609"/></g><g><title>SaveGameController</title><rect fill="#000000" fill-opacity="0.00000" height="1073.0547" width="8" x="458.4829" y="128.9063"/><line style="stroke:#000000;stroke-width:1;" x1="461.875" x2="461.875" y1="128.9063" y2="1201.9609"/></g><g><title>SaveGameService</title><rect fill="#000000" fill-opacity="0.00000" height="1073.0547" width="8" x="832.0845" y="128.9063"/><line style="stroke:#000000;stroke-width:1;" x1="835.1924" x2="835.1924" y1="128.9063" y2="1201.9609"/></g><g><title>SaveGameSerializer</title><rect fill="#000000" fill-opacity="0.00000" height="1073.0547" width="8" x="1148.1235" y="128.9063"/><line style="stroke:#000000;stroke-width:1;" x1="1151.4912" x2="1151.4912" y1="128.9063" y2="1201.9609"/></g><g><title>SaveGameRepository</title><rect fill="#000000" fill-opacity="0.00000" height="1073.0547" width="8" x="1338.3135" y="128.9063"/><line style="stroke:#000000;stroke-width:1;" x1="1341.7559" x2="1341.7559" y1="128.9063" y2="1201.9609"/></g><g><title>GameSession</title><rect fill="#000000" fill-opacity="0.00000" height="1073.0547" width="8" x="1592.2407" y="128.9063"/><line style="stroke:#000000;stroke-width:1;" x1="1595.6934" x2="1595.6934" y1="128.9063" y2="1201.9609"/></g><g><title>UserSession</title><rect fill="#000000" fill-opacity="0.00000" height="1073.0547" width="8" x="1726.4512" y="128.9063"/><line style="stroke:#000000;stroke-width:1;" x1="1729.7881" x2="1729.7881" y1="128.9063" y2="1201.9609"/></g><g class="participant participant-head" data-participant="P"><text fill="#000000" font-family="Verdana" font-size="14" lengthAdjust="spacing" textLength="43.5654" x="10" y="125.6045">Player</text><ellipse cx="34.7827" cy="60.6094" fill="#FFFFFF" rx="8" ry="8" style="stroke:#000000;stroke-width:1;"/><path d="M34.7827,68.6094 L34.7827,95.6094 M21.7827,76.6094 L47.7827,76.6094 M34.7827,95.6094 L21.7827,110.6094 M34.7827,95.6094 L47.7827,110.6094" fill="none" style="stroke:#000000;stroke-width:1;"/></g><g class="participant participant-tail" data-participant="P"><text fill="#000000" font-family="Verdana" font-size="14" lengthAdjust="spacing" textLength="43.5654" x="10" y="1213.9561">Player</text><ellipse cx="34.7827" cy="1226.2578" fill="#FFFFFF" rx="8" ry="8" style="stroke:#000000;stroke-width:1;"/><path d="M34.7827,1234.2578 L34.7827,1261.2578 M21.7827,1242.2578 L47.7827,1242.2578 M34.7827,1261.2578 L21.7827,1276.2578 M34.7827,1261.2578 L47.7827,1276.2578" fill="none" style="stroke:#000000;stroke-width:1;"/></g><g class="participant participant-head" data-participant="UI"><rect fill="#FFFFFF" height="30.2969" rx="2.5" ry="2.5" style="stroke:#000000;stroke-width:1;" width="104.4189" x="194.5063" y="97.6094"/><text fill="#000000" font-family="Verdana" font-size="14" lengthAdjust="spacing" textLength="90.4189" x="201.5063" y="117.6045">SaveGameUI</text></g><g class="participant participant-tail" data-participant="UI"><rect fill="#FFFFFF" height="30.2969" rx="2.5" ry="2.5" style="stroke:#000000;stroke-width:1;" width="104.4189" x="194.5063" y="1200.9609"/><text fill="#000000" font-family="Verdana" font-size="14" lengthAdjust="spacing" textLength="90.4189" x="201.5063" y="1220.9561">SaveGameUI</text></g><g class="participant participant-head" data-participant="Controller"><rect fill="#FFFFFF" height="30.2969" rx="2.5" ry="2.5" style="stroke:#000000;stroke-width:1;" width="159.2158" x="382.875" y="97.6094"/><text fill="#000000" font-family="Verdana" font-size="14" lengthAdjust="spacing" textLength="145.2158" x="389.875" y="117.6045">SaveGameController</text></g><g class="participant participant-tail" data-participant="Controller"><rect fill="#FFFFFF" height="30.2969" rx="2.5" ry="2.5" style="stroke:#000000;stroke-width:1;" width="159.2158" x="382.875" y="1200.9609"/><text fill="#000000" font-family="Verdana" font-size="14" lengthAdjust="spacing" textLength="145.2158" x="389.875" y="1220.9561">SaveGameController</text></g><g class="participant participant-head" data-participant="Service"><rect fill="#FFFFFF" height="30.2969" rx="2.5" ry="2.5" style="stroke:#000000;stroke-width:1;" width="141.7842" x="765.1924" y="97.6094"/><text fill="#000000" font-family="Verdana" font-size="14" lengthAdjust="spacing" textLength="127.7842" x="772.1924" y="117.6045">SaveGameService</text></g><g class="participant participant-tail" data-participant="Service"><rect fill="#FFFFFF" height="30.2969" rx="2.5" ry="2.5" style="stroke:#000000;stroke-width:1;" width="141.7842" x="765.1924" y="1200.9609"/><text fill="#000000" font-family="Verdana" font-size="14" lengthAdjust="spacing" textLength="127.7842" x="772.1924" y="1220.9561">SaveGameService</text></g><g class="participant participant-head" data-participant="Serializer"><rect fill="#FFFFFF" height="30.2969" rx="2.5" ry="2.5" style="stroke:#000000;stroke-width:1;" width="155.2646" x="1074.4912" y="97.6094"/><text fill="#000000" font-family="Verdana" font-size="14" lengthAdjust="spacing" textLength="141.2646" x="1081.4912" y="117.6045">SaveGameSerializer</text></g><g class="participant participant-tail" data-participant="Serializer"><rect fill="#FFFFFF" height="30.2969" rx="2.5" ry="2.5" style="stroke:#000000;stroke-width:1;" width="155.2646" x="1074.4912" y="1200.9609"/><text fill="#000000" font-family="Verdana" font-size="14" lengthAdjust="spacing" textLength="141.2646" x="1081.4912" y="1220.9561">SaveGameSerializer</text></g><g class="participant participant-head" data-participant="Repository"><rect fill="#FFFFFF" height="30.2969" rx="2.5" ry="2.5" style="stroke:#000000;stroke-width:1;" width="165.1152" x="1259.7559" y="97.6094"/><text fill="#000000" font-family="Verdana" font-size="14" lengthAdjust="spacing" textLength="151.1152" x="1266.7559" y="117.6045">SaveGameRepository</text></g><g class="participant participant-tail" data-participant="Repository"><rect fill="#FFFFFF" height="30.2969" rx="2.5" ry="2.5" style="stroke:#000000;stroke-width:1;" width="165.1152" x="1259.7559" y="1200.9609"/><text fill="#000000" font-family="Verdana" font-size="14" lengthAdjust="spacing" textLength="151.1152" x="1266.7559" y="1220.9561">SaveGameRepository</text></g><g class="participant participant-head" data-participant="Session"><rect fill="#FFFFFF" height="30.2969" rx="2.5" ry="2.5" style="stroke:#000000;stroke-width:1;" width="109.0947" x="1541.6934" y="97.6094"/><text fill="#000000" font-family="Verdana" font-size="14" lengthAdjust="spacing" textLength="95.0947" x="1548.6934" y="117.6045">GameSession</text></g><g class="participant participant-tail" data-participant="Session"><rect fill="#FFFFFF" height="30.2969" rx="2.5" ry="2.5" style="stroke:#000000;stroke-width:1;" width="109.0947" x="1541.6934" y="1200.9609"/><text fill="#000000" font-family="Verdana" font-size="14" lengthAdjust="spacing" textLength="95.0947" x="1548.6934" y="1220.9561">GameSession</text></g><g class="participant participant-head" data-participant="UserSess"><rect fill="#FFFFFF" height="30.2969" rx="2.5" ry="2.5" style="stroke:#000000;stroke-width:1;" width="99.3262" x="1680.7881" y="97.6094"/><text fill="#000000" font-family="Verdana" font-size="14" lengthAdjust="spacing" textLength="85.3262" x="1687.7881" y="117.6045">UserSession</text></g><g class="participant participant-tail" data-participant="UserSess"><rect fill="#FFFFFF" height="30.2969" rx="2.5" ry="2.5" style="stroke:#000000;stroke-width:1;" width="99.3262" x="1680.7881" y="1200.9609"/><text fill="#000000" font-family="Verdana" font-size="14" lengthAdjust="spacing" textLength="85.3262" x="1687.7881" y="1220.9561">UserSession</text></g><g><title>SaveGameUI</title><rect fill="#FFFFFF" height="1023.9219" style="stroke:#000000;stroke-width:1;" width="10" x="241.7158" y="160.0391"/></g><g><title>SaveGameController</title><rect fill="#FFFFFF" height="814.9922" style="stroke:#000000;stroke-width:1;" width="10" x="457.4829" y="347.8359"/></g><g><title>SaveGameService</title><rect fill="#FFFFFF" height="272.0625" style="stroke:#000000;stroke-width:1;" width="10" x="831.0845" y="802.6953"/></g><g><title>SaveGameSerializer</title><rect fill="#FFFFFF" height="29.1328" style="stroke:#000000;stroke-width:1;" width="10" x="1147.1235" y="873.9609"/></g><g><title>SaveGameRepository</title><rect fill="#FFFFFF" height="113.3984" style="stroke:#000000;stroke-width:1;" width="10" x="1337.3135" y="932.2266"/></g><g><title>GameSession</title><rect fill="#FFFFFF" height="29.1328" style="stroke:#000000;stroke-width:1;" width="10" x="1591.2407" y="419.1016"/></g><g><title>GameSession</title><rect fill="#FFFFFF" height="29.1328" style="stroke:#000000;stroke-width:1;" width="10" x="1591.2407" y="744.4297"/></g><g><title>UserSession</title><rect fill="#FFFFFF" height="87.3984" style="stroke:#000000;stroke-width:1;" width="10" x="1725.4512" y="585.7656"/></g><g class="message" data-participant-1="P" data-participant-2="UI"><polygon fill="#000000" points="229.7158,156.0391,239.7158,160.0391,229.7158,164.0391,233.7158,160.0391" style="stroke:#000000;stroke-width:1;"/><line style="stroke:#000000;stroke-width:1;" x1="34.7827" x2="235.7158" y1="160.0391" y2="160.0391"/><text fill="#000000" font-family="Verdana" font-size="13" lengthAdjust="spacing" textLength="31.9668" x="41.7827" y="154.9731">run()</text></g><g class="message" data-participant-1="UI" data-participant-2="UI"><line style="stroke:#000000;stroke-width:1;" x1="251.7158" x2="293.7158" y1="189.1719" y2="189.1719"/><line style="stroke:#000000;stroke-width:1;" x1="293.7158" x2="293.7158" y1="189.1719" y2="202.1719"/><line style="stroke:#000000;stroke-width:1;" x1="252.7158" x2="293.7158" y1="202.1719" y2="202.1719"/><polygon fill="#000000" points="262.7158,198.1719,252.7158,202.1719,262.7158,206.1719,258.7158,202.1719" style="stroke:#000000;stroke-width:1;"/><text fill="#000000" font-family="Verdana" font-size="13" lengthAdjust="spacing" textLength="150.0459" x="258.7158" y="184.106">showSaveGameMenu()</text></g><g class="message" data-participant-1="UI" data-participant-2="P"><polygon fill="#000000" points="45.7827,227.3047,35.7827,231.3047,45.7827,235.3047,41.7827,231.3047" style="stroke:#000000;stroke-width:1;"/><line style="stroke:#000000;stroke-width:1;" x1="39.7827" x2="240.7158" y1="231.3047" y2="231.3047"/><text fill="#000000" font-family="Verdana" font-size="13" lengthAdjust="spacing" textLength="139.4453" x="51.7827" y="226.2388">display menu options</text></g><g class="message" data-participant-1="P" data-participant-2="UI"><polygon fill="#000000" points="229.7158,256.4375,239.7158,260.4375,229.7158,264.4375,233.7158,260.4375" style="stroke:#000000;stroke-width:1;"/><line style="stroke:#000000;stroke-width:1;" x1="34.7827" x2="235.7158" y1="260.4375" y2="260.4375"/><text fill="#000000" font-family="Verdana" font-size="13" lengthAdjust="spacing" textLength="182.9331" x="41.7827" y="255.3716">select "Save Current Game"</text></g><g class="message" data-participant-1="UI" data-participant-2="P"><polygon fill="#000000" points="45.7827,285.5703,35.7827,289.5703,45.7827,293.5703,41.7827,289.5703" style="stroke:#000000;stroke-width:1;"/><line style="stroke:#000000;stroke-width:1;" x1="39.7827" x2="240.7158" y1="289.5703" y2="289.5703"/><text fill="#000000" font-family="Verdana" font-size="13" lengthAdjust="spacing" textLength="149.1953" x="51.7827" y="284.5044">request save file name</text></g><g class="message" data-participant-1="P" data-participant-2="UI"><polygon fill="#000000" points="229.7158,314.7031,239.7158,318.7031,229.7158,322.7031,233.7158,318.7031" style="stroke:#000000;stroke-width:1;"/><line style="stroke:#000000;stroke-width:1;" x1="34.7827" x2="235.7158" y1="318.7031" y2="318.7031"/><text fill="#000000" font-family="Verdana" font-size="13" lengthAdjust="spacing" textLength="111.3887" x="41.7827" y="313.6372">provide fileName</text></g><g class="message" data-participant-1="UI" data-participant-2="Controller"><polygon fill="#000000" points="445.4829,343.8359,455.4829,347.8359,445.4829,351.8359,449.4829,347.8359" style="stroke:#000000;stroke-width:1;"/><line style="stroke:#000000;stroke-width:1;" x1="251.7158" x2="451.4829" y1="347.8359" y2="347.8359"/><text fill="#000000" font-family="Verdana" font-size="13" lengthAdjust="spacing" textLength="186.7671" x="258.7158" y="342.77">saveCurrentGame(fileName)</text></g><g class="message" data-participant-1="Controller" data-participant-2="Controller"><line style="stroke:#000000;stroke-width:1;" x1="467.4829" x2="509.4829" y1="376.9688" y2="376.9688"/><line style="stroke:#000000;stroke-width:1;" x1="509.4829" x2="509.4829" y1="376.9688" y2="389.9688"/><line style="stroke:#000000;stroke-width:1;" x1="468.4829" x2="509.4829" y1="389.9688" y2="389.9688"/><polygon fill="#000000" points="478.4829,385.9688,468.4829,389.9688,478.4829,393.9688,474.4829,389.9688" style="stroke:#000000;stroke-width:1;"/><text fill="#000000" font-family="Verdana" font-size="13" lengthAdjust="spacing" textLength="161.8652" x="474.4829" y="371.9028">hasActiveGameSession()</text></g><g class="message" data-participant-1="Controller" data-participant-2="Session"><polygon fill="#000000" points="1579.2407,415.1016,1589.2407,419.1016,1579.2407,423.1016,1583.2407,419.1016" style="stroke:#000000;stroke-width:1;"/><line style="stroke:#000000;stroke-width:1;" x1="467.4829" x2="1585.2407" y1="419.1016" y2="419.1016"/><text fill="#000000" font-family="Verdana" font-size="13" lengthAdjust="spacing" textLength="99.6709" x="474.4829" y="414.0356">isGameActive()</text></g><g class="message" data-participant-1="Session" data-participant-2="Controller"><polygon fill="#000000" points="478.4829,444.2344,468.4829,448.2344,478.4829,452.2344,474.4829,448.2344" style="stroke:#000000;stroke-width:1;"/><line style="stroke:#000000;stroke-width:1;stroke-dasharray:2.0,2.0;" x1="472.4829" x2="1595.2407" y1="448.2344" y2="448.2344"/><text fill="#000000" font-family="Verdana" font-size="13" lengthAdjust="spacing" textLength="61.9849" x="484.4829" y="443.1685">true/false</text></g><path d="M174.5063,463.2344 L238.9492,463.2344 L238.9492,470.3672 L228.9492,480.3672 L174.5063,480.3672 L174.5063,463.2344" fill="#FFFFFF" style="stroke:#000000;stroke-width:1;"/><rect fill="none" height="692.5938" style="stroke:#000000;stroke-width:1;" width="1625.6079" x="174.5063" y="463.2344"/><text fill="#000000" font-family="Verdana" font-size="13" font-weight="bold" lengthAdjust="spacing" textLength="19.4429" x="189.5063" y="476.3013">alt</text><text fill="#000000" font-family="Verdana" font-size="11" font-weight="bold" lengthAdjust="spacing" textLength="150.6431" x="253.9492" y="475.4448">[if active session exists]</text><g class="message" data-participant-1="Controller" data-participant-2="Controller"><line style="stroke:#000000;stroke-width:1;" x1="467.4829" x2="509.4829" y1="501.5" y2="501.5"/><line style="stroke:#000000;stroke-width:1;" x1="509.4829" x2="509.4829" y1="501.5" y2="514.5"/><line style="stroke:#000000;stroke-width:1;" x1="468.4829" x2="509.4829" y1="514.5" y2="514.5"/><polygon fill="#000000" points="478.4829,510.5,468.4829,514.5,478.4829,518.5,474.4829,514.5" style="stroke:#000000;stroke-width:1;"/><text fill="#000000" font-family="Verdana" font-size="13" lengthAdjust="spacing" textLength="172.0659" x="474.4829" y="496.4341">isValidFileName(fileName)</text></g><g class="message" data-participant-1="Controller" data-participant-2="Controller"><line style="stroke:#000000;stroke-width:1;" x1="467.4829" x2="509.4829" y1="543.6328" y2="543.6328"/><line style="stroke:#000000;stroke-width:1;" x1="509.4829" x2="509.4829" y1="543.6328" y2="556.6328"/><line style="stroke:#000000;stroke-width:1;" x1="468.4829" x2="509.4829" y1="556.6328" y2="556.6328"/><polygon fill="#000000" points="478.4829,552.6328,468.4829,556.6328,478.4829,560.6328,474.4829,556.6328" style="stroke:#000000;stroke-width:1;"/><text fill="#000000" font-family="Verdana" font-size="13" lengthAdjust="spacing" textLength="121.2847" x="474.4829" y="538.5669">getCurrentPlayer()</text></g><g class="message" data-participant-1="Controller" data-participant-2="UserSess"><polygon fill="#000000" points="1713.4512,581.7656,1723.4512,585.7656,1713.4512,589.7656,1717.4512,585.7656" style="stroke:#000000;stroke-width:1;"/><line style="stroke:#000000;stroke-width:1;" x1="467.4829" x2="1719.4512" y1="585.7656" y2="585.7656"/><text fill="#000000" font-family="Verdana" font-size="13" lengthAdjust="spacing" textLength="86.7852" x="474.4829" y="580.6997">getInstance()</text></g><g class="message" data-participant-1="UserSess" data-participant-2="Controller"><polygon fill="#000000" points="478.4829,610.8984,468.4829,614.8984,478.4829,618.8984,474.4829,614.8984" style="stroke:#000000;stroke-width:1;"/><line style="stroke:#000000;stroke-width:1;stroke-dasharray:2.0,2.0;" x1="472.4829" x2="1724.4512" y1="614.8984" y2="614.8984"/><text fill="#000000" font-family="Verdana" font-size="13" lengthAdjust="spacing" textLength="77.9556" x="484.4829" y="609.8325">userSession</text></g><g class="message" data-participant-1="Controller" data-participant-2="UserSess"><polygon fill="#000000" points="1713.4512,640.0313,1723.4512,644.0313,1713.4512,648.0313,1717.4512,644.0313" style="stroke:#000000;stroke-width:1;"/><line style="stroke:#000000;stroke-width:1;" x1="467.4829" x2="1719.4512" y1="644.0313" y2="644.0313"/><text fill="#000000" font-family="Verdana" font-size="13" lengthAdjust="spacing" textLength="71.9443" x="474.4829" y="638.9653">getPlayer()</text></g><g class="message" data-participant-1="UserSess" data-participant-2="Controller"><polygon fill="#000000" points="478.4829,669.1641,468.4829,673.1641,478.4829,677.1641,474.4829,673.1641" style="stroke:#000000;stroke-width:1;"/><line style="stroke:#000000;stroke-width:1;stroke-dasharray:2.0,2.0;" x1="472.4829" x2="1729.4512" y1="673.1641" y2="673.1641"/><text fill="#000000" font-family="Verdana" font-size="13" lengthAdjust="spacing" textLength="40.8662" x="484.4829" y="668.0981">player</text></g><g class="message" data-participant-1="Controller" data-participant-2="Controller"><line style="stroke:#000000;stroke-width:1;" x1="467.4829" x2="509.4829" y1="702.2969" y2="702.2969"/><line style="stroke:#000000;stroke-width:1;" x1="509.4829" x2="509.4829" y1="702.2969" y2="715.2969"/><line style="stroke:#000000;stroke-width:1;" x1="468.4829" x2="509.4829" y1="715.2969" y2="715.2969"/><polygon fill="#000000" points="478.4829,711.2969,468.4829,715.2969,478.4829,719.2969,474.4829,715.2969" style="stroke:#000000;stroke-width:1;"/><text fill="#000000" font-family="Verdana" font-size="13" lengthAdjust="spacing" textLength="137.3442" x="474.4829" y="697.231">getCurrentScenario()</text></g><g class="message" data-participant-1="Controller" data-participant-2="Session"><polygon fill="#000000" points="1579.2407,740.4297,1589.2407,744.4297,1579.2407,748.4297,1583.2407,744.4297" style="stroke:#000000;stroke-width:1;"/><line style="stroke:#000000;stroke-width:1;" x1="467.4829" x2="1585.2407" y1="744.4297" y2="744.4297"/><text fill="#000000" font-family="Verdana" font-size="13" lengthAdjust="spacing" textLength="137.3442" x="474.4829" y="739.3638">getCurrentScenario()</text></g><g class="message" data-participant-1="Session" data-participant-2="Controller"><polygon fill="#000000" points="478.4829,769.5625,468.4829,773.5625,478.4829,777.5625,474.4829,773.5625" style="stroke:#000000;stroke-width:1;"/><line style="stroke:#000000;stroke-width:1;stroke-dasharray:2.0,2.0;" x1="472.4829" x2="1595.2407" y1="773.5625" y2="773.5625"/><text fill="#000000" font-family="Verdana" font-size="13" lengthAdjust="spacing" textLength="55.0342" x="484.4829" y="768.4966">scenario</text></g><g class="message" data-participant-1="Controller" data-participant-2="Service"><polygon fill="#000000" points="819.0845,798.6953,829.0845,802.6953,819.0845,806.6953,823.0845,802.6953" style="stroke:#000000;stroke-width:1;"/><line style="stroke:#000000;stroke-width:1;" x1="467.4829" x2="825.0845" y1="802.6953" y2="802.6953"/><text fill="#000000" font-family="Verdana" font-size="13" lengthAdjust="spacing" textLength="344.6016" x="474.4829" y="797.6294">saveGame(fileName, player, scenario, gameSession)</text></g><g class="message" data-participant-1="Service" data-participant-2="Service"><line style="stroke:#000000;stroke-width:1;" x1="841.0845" x2="883.0845" y1="831.8281" y2="831.8281"/><line style="stroke:#000000;stroke-width:1;" x1="883.0845" x2="883.0845" y1="831.8281" y2="844.8281"/><line style="stroke:#000000;stroke-width:1;" x1="842.0845" x2="883.0845" y1="844.8281" y2="844.8281"/><polygon fill="#000000" points="852.0845,840.8281,842.0845,844.8281,852.0845,848.8281,848.0845,844.8281" style="stroke:#000000;stroke-width:1;"/><text fill="#000000" font-family="Verdana" font-size="13" lengthAdjust="spacing" textLength="282.0391" x="848.0845" y="826.7622">collectGameState(saveData, gameSession)</text></g><g class="message" data-participant-1="Service" data-participant-2="Serializer"><polygon fill="#000000" points="1135.1235,869.9609,1145.1235,873.9609,1135.1235,877.9609,1139.1235,873.9609" style="stroke:#000000;stroke-width:1;"/><line style="stroke:#000000;stroke-width:1;" x1="841.0845" x2="1141.1235" y1="873.9609" y2="873.9609"/><text fill="#000000" font-family="Verdana" font-size="13" lengthAdjust="spacing" textLength="168.0479" x="848.0845" y="868.895">serializeToJson(saveData)</text></g><g class="message" data-participant-1="Serializer" data-participant-2="Service"><polygon fill="#000000" points="852.0845,899.0938,842.0845,903.0938,852.0845,907.0938,848.0845,903.0938" style="stroke:#000000;stroke-width:1;"/><line style="stroke:#000000;stroke-width:1;stroke-dasharray:2.0,2.0;" x1="846.0845" x2="1151.1235" y1="903.0938" y2="903.0938"/><text fill="#000000" font-family="Verdana" font-size="13" lengthAdjust="spacing" textLength="57.6177" x="858.0845" y="898.0278">jsonData</text></g><g class="message" data-participant-1="Service" data-participant-2="Repository"><polygon fill="#000000" points="1325.3135,928.2266,1335.3135,932.2266,1325.3135,936.2266,1329.3135,932.2266" style="stroke:#000000;stroke-width:1;"/><line style="stroke:#000000;stroke-width:1;" x1="841.0845" x2="1331.3135" y1="932.2266" y2="932.2266"/><text fill="#000000" font-family="Verdana" font-size="13" lengthAdjust="spacing" textLength="273.0444" x="848.0845" y="927.1606">saveGame(fileName, saveData, jsonData)</text></g><g class="message" data-participant-1="Repository" data-participant-2="Repository"><line style="stroke:#000000;stroke-width:1;" x1="1347.3135" x2="1389.3135" y1="961.3594" y2="961.3594"/><line style="stroke:#000000;stroke-width:1;" x1="1389.3135" x2="1389.3135" y1="961.3594" y2="974.3594"/><line style="stroke:#000000;stroke-width:1;" x1="1348.3135" x2="1389.3135" y1="974.3594" y2="974.3594"/><polygon fill="#000000" points="1358.3135,970.3594,1348.3135,974.3594,1358.3135,978.3594,1354.3135,974.3594" style="stroke:#000000;stroke-width:1;"/><text fill="#000000" font-family="Verdana" font-size="13" lengthAdjust="spacing" textLength="179.4673" x="1354.3135" y="956.2935">sanitizeFileName(fileName)</text></g><g class="message" data-participant-1="Repository" data-participant-2="Repository"><line style="stroke:#000000;stroke-width:1;" x1="1347.3135" x2="1389.3135" y1="1003.4922" y2="1003.4922"/><line style="stroke:#000000;stroke-width:1;" x1="1389.3135" x2="1389.3135" y1="1003.4922" y2="1016.4922"/><line style="stroke:#000000;stroke-width:1;" x1="1348.3135" x2="1389.3135" y1="1016.4922" y2="1016.4922"/><polygon fill="#000000" points="1358.3135,1012.4922,1348.3135,1016.4922,1358.3135,1020.4922,1354.3135,1016.4922" style="stroke:#000000;stroke-width:1;"/><text fill="#000000" font-family="Verdana" font-size="13" lengthAdjust="spacing" textLength="219.9272" x="1354.3135" y="998.4263">createSavesDirectoryIfNotExists()</text></g><g class="message" data-participant-1="Repository" data-participant-2="Service"><polygon fill="#000000" points="852.0845,1041.625,842.0845,1045.625,852.0845,1049.625,848.0845,1045.625" style="stroke:#000000;stroke-width:1;"/><line style="stroke:#000000;stroke-width:1;stroke-dasharray:2.0,2.0;" x1="846.0845" x2="1341.3135" y1="1045.625" y2="1045.625"/><text fill="#000000" font-family="Verdana" font-size="13" lengthAdjust="spacing" textLength="96.5796" x="858.0845" y="1040.5591">success/failure</text></g><g class="message" data-participant-1="Service" data-participant-2="Controller"><polygon fill="#000000" points="478.4829,1070.7578,468.4829,1074.7578,478.4829,1078.7578,474.4829,1074.7578" style="stroke:#000000;stroke-width:1;"/><line style="stroke:#000000;stroke-width:1;stroke-dasharray:2.0,2.0;" x1="472.4829" x2="835.0845" y1="1074.7578" y2="1074.7578"/><text fill="#000000" font-family="Verdana" font-size="13" lengthAdjust="spacing" textLength="96.5796" x="484.4829" y="1069.6919">success/failure</text></g><g class="message" data-participant-1="Controller" data-participant-2="UI"><polygon fill="#000000" points="262.7158,1099.8906,252.7158,1103.8906,262.7158,1107.8906,258.7158,1103.8906" style="stroke:#000000;stroke-width:1;"/><line style="stroke:#000000;stroke-width:1;stroke-dasharray:2.0,2.0;" x1="256.7158" x2="456.4829" y1="1103.8906" y2="1103.8906"/><text fill="#000000" font-family="Verdana" font-size="13" lengthAdjust="spacing" textLength="96.5796" x="268.7158" y="1098.8247">success/failure</text></g><line style="stroke:#000000;stroke-width:1;stroke-dasharray:2.0,2.0;" x1="174.5063" x2="1800.1143" y1="1112.8906" y2="1112.8906"/><text fill="#000000" font-family="Verdana" font-size="11" font-weight="bold" lengthAdjust="spacing" textLength="116.9663" x="179.5063" y="1123.1011">[no active session]</text><g class="message" data-participant-1="Controller" data-participant-2="UI"><polygon fill="#000000" points="262.7158,1143.8281,252.7158,1147.8281,262.7158,1151.8281,258.7158,1147.8281" style="stroke:#000000;stroke-width:1;"/><line style="stroke:#000000;stroke-width:1;stroke-dasharray:2.0,2.0;" x1="256.7158" x2="456.4829" y1="1147.8281" y2="1147.8281"/><text fill="#000000" font-family="Verdana" font-size="13" lengthAdjust="spacing" textLength="158.355" x="268.7158" y="1142.7622">error (no active session)</text></g><g class="message" data-participant-1="UI" data-participant-2="P"><polygon fill="#000000" points="45.7827,1179.9609,35.7827,1183.9609,45.7827,1187.9609,41.7827,1183.9609" style="stroke:#000000;stroke-width:1;"/><line style="stroke:#000000;stroke-width:1;" x1="39.7827" x2="245.7158" y1="1183.9609" y2="1183.9609"/><text fill="#000000" font-family="Verdana" font-size="13" lengthAdjust="spacing" textLength="149.9126" x="51.7827" y="1178.895">display result message</text></g><!--SRC=[ZLPHRzCm47xthp1xwgHLIF360zBM0IeQKqKfF5l9jJsMsi5skXN4V-USs8qT9njzIdpVzztvy_dILtOF1-1r9L0oyu2o5beSk85V3SW2-1_6wNUjjNfSg4ffVbE9ug5RBApIDqgNe8UXEzp27KeOZww4jbXWBQHz6K1hEwqQMNQW7tkq4AMV3D-efrpyBsCMRGLyitxpbi_vMXo1Vn9a03s7BT-Ys947Z0cNWQygSGBDXU4hLlU5yGj7TjpDyi95Dylny499grLLWMvX_UiuV0twY0MqMFyy2KHHuM-lsx-Emxz2hGpIXaujl7zDuPsoCQYabssVKz36W8v1uPsn5P-_9oVuEwuRERjq5k9HM73kC5eFKRDNZw6oBo0RWdRH5GLBDDIF9twW05UrfJI9j84A2hyrlcYq1YhAALr48jeTfx7SED0MwSmb8IALMgiZbbtiteKykJyWbuhOFeDBC0lWQ6VHWRA8ErJQ2tFjA10vJBjE6NwTu6WShcF4FeRp2CZvC8_L3RpUYie0Ao6ZCL5PZblU1e2Sx5JW2OqrxRrvPWjelbE7bH-z1v4PBn1tOBs9tMMQZJ524tNufJHMq6tqqBwFGgkvrJCbSw7fE_J5L4bDqv9r2sj1aR59FV_lmxe0AJIgKIVwBfWaP0Vh5YTxmdZoiFYOF5f7EtxyDKZw_yhRSNNMlkAxlh6p8hivTiuJb9CaXKjSjFTiROasSrblXHKZqgc07tpjQF0ltzHdGnSiIEG5XM7frOB4F2df9sauUcvSmX-Mr0_NSU_wZOK4W_gYwUpM8xrSNQAbGYOkvJFCGWEbSZFKtA86zwqxBRVtodveXy4i5qXReYaAEX4QDLWr6eOE3NQGEfJrv_DQMVl4RNh-A0mqW2OWbsemwIRfGFzmD9zbX4i6icJnA8tdVVxDqc0Q6h47OeiT9CJDyXy0]--></g></svg>