<svg xmlns="http://www.w3.org/2000/svg" xmlns:xlink="http://www.w3.org/1999/xlink" contentStyleType="text/css" height="604px" preserveAspectRatio="none" style="width:1070px;height:604px;background:#FFFFFF;" version="1.1" viewBox="0 0 1070 604" width="1070px" zoomAndPan="magnify"><defs/><g><rect fill="#FFFFFF" height="440.0742" style="stroke:#181818;stroke-width:1.0;" width="10" x="182.6943" y="90.5332"/><rect fill="#FFFFFF" height="31.291" style="stroke:#181818;stroke-width:1.0;" width="10" x="325.749" y="148.1152"/><rect fill="#FFFFFF" height="31.291" style="stroke:#181818;stroke-width:1.0;" width="10" x="429.5073" y="210.6973"/><rect fill="#FFFFFF" height="31.291" style="stroke:#181818;stroke-width:1.0;" width="10" x="565.5586" y="461.0254"/><rect fill="#FFFFFF" height="31.291" style="stroke:#181818;stroke-width:1.0;" width="10" x="719.9063" y="273.2793"/><rect fill="#FFFFFF" height="31.291" style="stroke:#181818;stroke-width:1.0;" width="10" x="864.147" y="335.8613"/><rect fill="#FFFFFF" height="31.291" style="stroke:#181818;stroke-width:1.0;" width="10" x="995.9292" y="398.4434"/><rect fill="none" height="394.7832" style="stroke:#000000;stroke-width:1.5;" width="974.0723" x="90.5464" y="105.5332"/><line style="stroke:#181818;stroke-width:0.5;stroke-dasharray:5.0,5.0;" x1="187.5464" x2="187.5464" y1="57.2422" y2="548.6074"/><line style="stroke:#181818;stroke-width:0.5;stroke-dasharray:5.0,5.0;" x1="329.8423" x2="329.8423" y1="57.2422" y2="548.6074"/><line style="stroke:#181818;stroke-width:0.5;stroke-dasharray:5.0,5.0;" x1="433.6558" x2="433.6558" y1="57.2422" y2="548.6074"/><line style="stroke:#181818;stroke-width:0.5;stroke-dasharray:5.0,5.0;" x1="570.3589" x2="570.3589" y1="57.2422" y2="548.6074"/><line style="stroke:#181818;stroke-width:0.5;stroke-dasharray:5.0,5.0;" x1="724.7583" x2="724.7583" y1="57.2422" y2="548.6074"/><line style="stroke:#181818;stroke-width:0.5;stroke-dasharray:5.0,5.0;" x1="869.0542" x2="869.0542" y1="57.2422" y2="548.6074"/><line style="stroke:#181818;stroke-width:0.5;stroke-dasharray:5.0,5.0;" x1="1000.2397" x2="1000.2397" y1="57.2422" y2="548.6074"/><rect fill="#E3E3E3" height="32.6211" rx="2.5" ry="2.5" style="stroke:#181818;stroke-width:0.5;" width="174.2959" x="100.5464" y="23.6211"/><text fill="#000000" font-family="sans-serif" font-size="14" lengthAdjust="spacing" textLength="160.2959" x="107.5464" y="45.7285">:BuyLocomotiveController</text><rect fill="#E3E3E3" height="32.6211" rx="2.5" ry="2.5" style="stroke:#181818;stroke-width:0.5;" width="174.2959" x="100.5464" y="547.6074"/><text fill="#000000" font-family="sans-serif" font-size="14" lengthAdjust="spacing" textLength="160.2959" x="107.5464" y="569.7148">:BuyLocomotiveController</text><rect fill="#E3E3E3" height="32.6211" rx="2.5" ry="2.5" style="stroke:#181818;stroke-width:0.5;" width="91.8135" x="284.8423" y="23.6211"/><text fill="#000000" font-family="sans-serif" font-size="14" lengthAdjust="spacing" textLength="77.8135" x="291.8423" y="45.7285">Repositories</text><rect fill="#E3E3E3" height="32.6211" rx="2.5" ry="2.5" style="stroke:#181818;stroke-width:0.5;" width="91.8135" x="284.8423" y="547.6074"/><text fill="#000000" font-family="sans-serif" font-size="14" lengthAdjust="spacing" textLength="77.8135" x="291.8423" y="569.7148">Repositories</text><rect fill="#E3E3E3" height="51.2422" rx="2.5" ry="2.5" style="stroke:#181818;stroke-width:0.5;" width="95.7031" x="386.6558" y="5"/><text fill="#000000" font-family="sans-serif" font-size="14" lengthAdjust="spacing" textLength="72.3652" x="398.3247" y="27.1074">repositories</text><text fill="#000000" font-family="sans-serif" font-size="14" lengthAdjust="spacing" textLength="81.7031" x="393.6558" y="45.7285">:Repositories</text><rect fill="#E3E3E3" height="51.2422" rx="2.5" ry="2.5" style="stroke:#181818;stroke-width:0.5;" width="95.7031" x="386.6558" y="547.6074"/><text fill="#000000" font-family="sans-serif" font-size="14" lengthAdjust="spacing" textLength="72.3652" x="398.3247" y="569.7148">repositories</text><text fill="#000000" font-family="sans-serif" font-size="14" lengthAdjust="spacing" textLength="81.7031" x="393.6558" y="588.3359">:Repositories</text><rect fill="#E3E3E3" height="51.2422" rx="2.5" ry="2.5" style="stroke:#181818;stroke-width:0.5;" width="156.3994" x="492.3589" y="5"/><text fill="#000000" font-family="sans-serif" font-size="14" lengthAdjust="spacing" textLength="133.834" x="503.6416" y="27.1074">locomotiveRepository</text><text fill="#000000" font-family="sans-serif" font-size="14" lengthAdjust="spacing" textLength="142.3994" x="499.3589" y="45.7285">:LocomotiveRepository</text><rect fill="#E3E3E3" height="51.2422" rx="2.5" ry="2.5" style="stroke:#181818;stroke-width:0.5;" width="156.3994" x="492.3589" y="547.6074"/><text fill="#000000" font-family="sans-serif" font-size="14" lengthAdjust="spacing" textLength="133.834" x="503.6416" y="569.7148">locomotiveRepository</text><text fill="#000000" font-family="sans-serif" font-size="14" lengthAdjust="spacing" textLength="142.3994" x="499.3589" y="588.3359">:LocomotiveRepository</text><rect fill="#E3E3E3" height="32.6211" rx="2.5" ry="2.5" style="stroke:#181818;stroke-width:0.5;" width="132.2959" x="658.7583" y="23.6211"/><text fill="#000000" font-family="sans-serif" font-size="14" lengthAdjust="spacing" textLength="118.2959" x="665.7583" y="45.7285">ApplicationSession</text><rect fill="#E3E3E3" height="32.6211" rx="2.5" ry="2.5" style="stroke:#181818;stroke-width:0.5;" width="132.2959" x="658.7583" y="547.6074"/><text fill="#000000" font-family="sans-serif" font-size="14" lengthAdjust="spacing" textLength="118.2959" x="665.7583" y="569.7148">ApplicationSession</text><rect fill="#E3E3E3" height="51.2422" rx="2.5" ry="2.5" style="stroke:#181818;stroke-width:0.5;" width="136.1855" x="801.0542" y="5"/><text fill="#000000" font-family="sans-serif" font-size="14" lengthAdjust="spacing" textLength="73.165" x="832.5645" y="27.1074">appSession</text><text fill="#000000" font-family="sans-serif" font-size="14" lengthAdjust="spacing" textLength="122.1855" x="808.0542" y="45.7285">:ApplicationSession</text><rect fill="#E3E3E3" height="51.2422" rx="2.5" ry="2.5" style="stroke:#181818;stroke-width:0.5;" width="136.1855" x="801.0542" y="547.6074"/><text fill="#000000" font-family="sans-serif" font-size="14" lengthAdjust="spacing" textLength="73.165" x="832.5645" y="569.7148">appSession</text><text fill="#000000" font-family="sans-serif" font-size="14" lengthAdjust="spacing" textLength="122.1855" x="808.0542" y="588.3359">:ApplicationSession</text><rect fill="#E3E3E3" height="51.2422" rx="2.5" ry="2.5" style="stroke:#181818;stroke-width:0.5;" width="107.3789" x="947.2397" y="5"/><text fill="#000000" font-family="sans-serif" font-size="14" lengthAdjust="spacing" textLength="93.3789" x="954.2397" y="27.1074">currentSession</text><text fill="#000000" font-family="sans-serif" font-size="14" lengthAdjust="spacing" textLength="83.2549" x="959.3018" y="45.7285">:UserSession</text><rect fill="#E3E3E3" height="51.2422" rx="2.5" ry="2.5" style="stroke:#181818;stroke-width:0.5;" width="107.3789" x="947.2397" y="547.6074"/><text fill="#000000" font-family="sans-serif" font-size="14" lengthAdjust="spacing" textLength="93.3789" x="954.2397" y="569.7148">currentSession</text><text fill="#000000" font-family="sans-serif" font-size="14" lengthAdjust="spacing" textLength="83.2549" x="959.3018" y="588.3359">:UserSession</text><rect fill="#FFFFFF" height="440.0742" style="stroke:#181818;stroke-width:1.0;" width="10" x="182.6943" y="90.5332"/><rect fill="#FFFFFF" height="31.291" style="stroke:#181818;stroke-width:1.0;" width="10" x="325.749" y="148.1152"/><rect fill="#FFFFFF" height="31.291" style="stroke:#181818;stroke-width:1.0;" width="10" x="429.5073" y="210.6973"/><rect fill="#FFFFFF" height="31.291" style="stroke:#181818;stroke-width:1.0;" width="10" x="565.5586" y="461.0254"/><rect fill="#FFFFFF" height="31.291" style="stroke:#181818;stroke-width:1.0;" width="10" x="719.9063" y="273.2793"/><rect fill="#FFFFFF" height="31.291" style="stroke:#181818;stroke-width:1.0;" width="10" x="864.147" y="335.8613"/><rect fill="#FFFFFF" height="31.291" style="stroke:#181818;stroke-width:1.0;" width="10" x="995.9292" y="398.4434"/><polygon fill="#181818" points="170.6943,86.5332,180.6943,90.5332,170.6943,94.5332,174.6943,90.5332" style="stroke:#181818;stroke-width:1.0;"/><line style="stroke:#181818;stroke-width:1.0;" x1="0" x2="176.6943" y1="90.5332" y2="90.5332"/><text fill="#000000" font-family="sans-serif" font-size="13" font-weight="bold" lengthAdjust="spacing" textLength="7.23" x="7" y="85.2705">3</text><text fill="#000000" font-family="sans-serif" font-size="13" lengthAdjust="spacing" textLength="152.4644" x="18.23" y="85.2705">getAvailableLocomotives()</text><path d="M90.5464,105.5332 L301.709,105.5332 L301.709,114.8242 L291.709,124.8242 L90.5464,124.8242 L90.5464,105.5332 " fill="#EEEEEE" style="stroke:#000000;stroke-width:1.5;"/><rect fill="none" height="394.7832" style="stroke:#000000;stroke-width:1.5;" width="974.0723" x="90.5464" y="105.5332"/><text fill="#000000" font-family="sans-serif" font-size="13" font-weight="bold" lengthAdjust="spacing" textLength="166.1626" x="105.5464" y="120.5615">Get Available Locomotives</text><polygon fill="#181818" points="313.749,144.1152,323.749,148.1152,313.749,152.1152,317.749,148.1152" style="stroke:#181818;stroke-width:1.0;"/><line style="stroke:#181818;stroke-width:1.0;" x1="192.6943" x2="319.749" y1="148.1152" y2="148.1152"/><text fill="#000000" font-family="sans-serif" font-size="13" font-weight="bold" lengthAdjust="spacing" textLength="18.0718" x="199.6943" y="142.8525">3.1</text><text fill="#000000" font-family="sans-serif" font-size="13" lengthAdjust="spacing" textLength="75.8735" x="221.7661" y="142.8525">getInstance()</text><polygon fill="#181818" points="203.6943,175.4063,193.6943,179.4063,203.6943,183.4063,199.6943,179.4063" style="stroke:#181818;stroke-width:1.0;"/><line style="stroke:#181818;stroke-width:1.0;stroke-dasharray:2.0,2.0;" x1="197.6943" x2="329.749" y1="179.4063" y2="179.4063"/><text fill="#000000" font-family="sans-serif" font-size="13" font-weight="bold" lengthAdjust="spacing" textLength="18.0718" x="209.6943" y="174.1436">3.2</text><text fill="#000000" font-family="sans-serif" font-size="13" lengthAdjust="spacing" textLength="67.1963" x="231.7661" y="174.1436">repositories</text><polygon fill="#181818" points="417.5073,206.6973,427.5073,210.6973,417.5073,214.6973,421.5073,210.6973" style="stroke:#181818;stroke-width:1.0;"/><line style="stroke:#181818;stroke-width:1.0;" x1="192.6943" x2="423.5073" y1="210.6973" y2="210.6973"/><text fill="#000000" font-family="sans-serif" font-size="13" font-weight="bold" lengthAdjust="spacing" textLength="18.0718" x="199.6943" y="205.4346">3.3</text><text fill="#000000" font-family="sans-serif" font-size="13" lengthAdjust="spacing" textLength="155.3462" x="221.7661" y="205.4346">getLocomotiveRepository()</text><polygon fill="#181818" points="203.6943,237.9883,193.6943,241.9883,203.6943,245.9883,199.6943,241.9883" style="stroke:#181818;stroke-width:1.0;"/><line style="stroke:#181818;stroke-width:1.0;stroke-dasharray:2.0,2.0;" x1="197.6943" x2="433.5073" y1="241.9883" y2="241.9883"/><text fill="#000000" font-family="sans-serif" font-size="13" font-weight="bold" lengthAdjust="spacing" textLength="18.0718" x="209.6943" y="236.7256">3.4</text><text fill="#000000" font-family="sans-serif" font-size="13" lengthAdjust="spacing" textLength="124.2744" x="231.7661" y="236.7256">locomotiveRepository</text><polygon fill="#181818" points="707.9063,269.2793,717.9063,273.2793,707.9063,277.2793,711.9063,273.2793" style="stroke:#181818;stroke-width:1.0;"/><line style="stroke:#181818;stroke-width:1.0;" x1="192.6943" x2="713.9063" y1="273.2793" y2="273.2793"/><text fill="#000000" font-family="sans-serif" font-size="13" font-weight="bold" lengthAdjust="spacing" textLength="18.0718" x="199.6943" y="268.0166">3.5</text><text fill="#000000" font-family="sans-serif" font-size="13" lengthAdjust="spacing" textLength="75.8735" x="221.7661" y="268.0166">getInstance()</text><polygon fill="#181818" points="203.6943,300.5703,193.6943,304.5703,203.6943,308.5703,199.6943,304.5703" style="stroke:#181818;stroke-width:1.0;"/><line style="stroke:#181818;stroke-width:1.0;stroke-dasharray:2.0,2.0;" x1="197.6943" x2="723.9063" y1="304.5703" y2="304.5703"/><text fill="#000000" font-family="sans-serif" font-size="13" font-weight="bold" lengthAdjust="spacing" textLength="18.0718" x="209.6943" y="299.3076">3.6</text><text fill="#000000" font-family="sans-serif" font-size="13" lengthAdjust="spacing" textLength="67.939" x="231.7661" y="299.3076">appSession</text><polygon fill="#181818" points="852.147,331.8613,862.147,335.8613,852.147,339.8613,856.147,335.8613" style="stroke:#181818;stroke-width:1.0;"/><line style="stroke:#181818;stroke-width:1.0;" x1="192.6943" x2="858.147" y1="335.8613" y2="335.8613"/><text fill="#000000" font-family="sans-serif" font-size="13" font-weight="bold" lengthAdjust="spacing" textLength="18.0718" x="199.6943" y="330.5986">3.7</text><text fill="#000000" font-family="sans-serif" font-size="13" lengthAdjust="spacing" textLength="116.3271" x="221.7661" y="330.5986">getCurrentSession()</text><polygon fill="#181818" points="203.6943,363.1523,193.6943,367.1523,203.6943,371.1523,199.6943,367.1523" style="stroke:#181818;stroke-width:1.0;"/><line style="stroke:#181818;stroke-width:1.0;stroke-dasharray:2.0,2.0;" x1="197.6943" x2="868.147" y1="367.1523" y2="367.1523"/><text fill="#000000" font-family="sans-serif" font-size="13" font-weight="bold" lengthAdjust="spacing" textLength="18.0718" x="209.6943" y="361.8896">3.8</text><text fill="#000000" font-family="sans-serif" font-size="13" lengthAdjust="spacing" textLength="86.709" x="231.7661" y="361.8896">currentSession</text><polygon fill="#181818" points="983.9292,394.4434,993.9292,398.4434,983.9292,402.4434,987.9292,398.4434" style="stroke:#181818;stroke-width:1.0;"/><line style="stroke:#181818;stroke-width:1.0;" x1="192.6943" x2="989.9292" y1="398.4434" y2="398.4434"/><text fill="#000000" font-family="sans-serif" font-size="13" font-weight="bold" lengthAdjust="spacing" textLength="18.0718" x="199.6943" y="393.1807">3.9</text><text fill="#000000" font-family="sans-serif" font-size="13" lengthAdjust="spacing" textLength="97.5381" x="221.7661" y="393.1807">getCurrentDate()</text><polygon fill="#181818" points="203.6943,425.7344,193.6943,429.7344,203.6943,433.7344,199.6943,429.7344" style="stroke:#181818;stroke-width:1.0;"/><line style="stroke:#181818;stroke-width:1.0;stroke-dasharray:2.0,2.0;" x1="197.6943" x2="999.9292" y1="429.7344" y2="429.7344"/><text fill="#000000" font-family="sans-serif" font-size="13" font-weight="bold" lengthAdjust="spacing" textLength="25.3018" x="209.6943" y="424.4717">3.10</text><text fill="#000000" font-family="sans-serif" font-size="13" lengthAdjust="spacing" textLength="67.9199" x="238.9961" y="424.4717">currentDate</text><polygon fill="#181818" points="553.5586,457.0254,563.5586,461.0254,553.5586,465.0254,557.5586,461.0254" style="stroke:#181818;stroke-width:1.0;"/><line style="stroke:#181818;stroke-width:1.0;" x1="192.6943" x2="559.5586" y1="461.0254" y2="461.0254"/><text fill="#000000" font-family="sans-serif" font-size="13" font-weight="bold" lengthAdjust="spacing" textLength="25.3018" x="199.6943" y="455.7627">3.11</text><text fill="#000000" font-family="sans-serif" font-size="13" lengthAdjust="spacing" textLength="220.3843" x="228.9961" y="455.7627">getAvailableLocomotives(currentDate)</text><polygon fill="#181818" points="203.6943,488.3164,193.6943,492.3164,203.6943,496.3164,199.6943,492.3164" style="stroke:#181818;stroke-width:1.0;"/><line style="stroke:#181818;stroke-width:1.0;stroke-dasharray:2.0,2.0;" x1="197.6943" x2="569.5586" y1="492.3164" y2="492.3164"/><text fill="#000000" font-family="sans-serif" font-size="13" font-weight="bold" lengthAdjust="spacing" textLength="25.3018" x="209.6943" y="487.0537">3.12</text><text fill="#000000" font-family="sans-serif" font-size="13" lengthAdjust="spacing" textLength="144.5234" x="238.9961" y="487.0537">availableLocomotivesList</text><polygon fill="#181818" points="11,526.6074,1,530.6074,11,534.6074,7,530.6074" style="stroke:#181818;stroke-width:1.0;"/><line style="stroke:#181818;stroke-width:1.0;stroke-dasharray:2.0,2.0;" x1="5" x2="186.6943" y1="530.6074" y2="530.6074"/><text fill="#000000" font-family="sans-serif" font-size="13" font-weight="bold" lengthAdjust="spacing" textLength="7.23" x="17" y="525.3447">4</text><text fill="#000000" font-family="sans-serif" font-size="13" lengthAdjust="spacing" textLength="144.5234" x="28.23" y="525.3447">availableLocomotivesList</text><!--SRC=[XPJ1Yjim48RlVWgnf-t1XR8zXL98lMO9k76mipqLWbQPUiNAaf3aBNdxAlRM7YjAh8j1dld_JpCZsJSkDJMq9QsIYhqQrG9nfeF4ZdyqPM-qWTgT1103p57P21nWN-bH_UMo8N-ei90aVjjnnZMLZjojVdIdGZ7LAiVV8LFI6IK4c3j2BSdsLJ4Fhq0hovqo76mVKkMxifx761JpMwxYAOTwitqgydsvdIUBaMNCEtcH8hBTYnLbLluizvjV-U6iEnTRQoqueuuhMOEr_jFdh7UxGvtNzIOqfrf_n7dBvUHhPs2TCI3T9FLimM2DxBcgykr-X4XevvJisXSmv259l_U59olIW5k_KoxeYu2f0lR-qppZyvU4Cl-7EXXQHlngZEeqUG97HWc2DFgOy-gjl6NVbS5p8wsV8WRUvt_Kg3_qcw0r9AOVr2k2spy67Y5GYFjF5Hr8Ocs_IeNQSS67X2VIsAnT9KRg5-ne9fOhYASFSsAHT9g1QIPZQ5Zi5bPOs6mseWkOLmeRbqVeytkmW7-hli5zcHtXqUl4-CCxXib3lKlciseC-EBcXgZ1UtJZ4YEd27xuhc7yq0DFIyIfuDR5pXAp07aSpeJUbw_znhSqNJJ1XVAX_m00]--></g></svg>