<svg xmlns="http://www.w3.org/2000/svg" xmlns:xlink="http://www.w3.org/1999/xlink" contentStyleType="text/css" height="1752px" preserveAspectRatio="none" style="width:1332px;height:1752px;background:#FFFFFF;" version="1.1" viewBox="0 0 1332 1752" width="1332px" zoomAndPan="magnify"><defs/><g><!--class ApplicationSession--><g id="elem_ApplicationSession"><rect codeLine="11" fill="#F1F1F1" height="103.8633" id="ApplicationSession" rx="2.5" ry="2.5" style="stroke:#181818;stroke-width:0.5;" width="236.4854" x="173.5" y="317.5"/><ellipse cx="228.3447" cy="333.5" fill="#ADD1B2" rx="11" ry="11" style="stroke:#181818;stroke-width:1.0;"/><path d="M231.1104,329.375 Q231.2666,329.1563 231.4541,329.0469 Q231.6416,328.9375 231.8604,328.9375 Q232.2354,328.9375 232.4697,329.2031 Q232.7041,329.4531 232.7041,330.0625 L232.7041,331.5156 Q232.7041,332.125 232.4697,332.3906 Q232.2354,332.6563 231.8604,332.6563 Q231.5166,332.6563 231.3135,332.4531 Q231.1104,332.2656 231.001,331.75 Q230.9541,331.3906 230.7666,331.2031 Q230.4385,330.8281 229.8291,330.6094 Q229.2197,330.3906 228.5947,330.3906 Q227.8291,330.3906 227.1885,330.7188 Q226.5635,331.0469 226.0635,331.7969 Q225.5791,332.5469 225.5791,333.5781 L225.5791,334.6719 Q225.5791,335.9063 226.4697,336.7344 Q227.3604,337.5469 228.9541,337.5469 Q229.8916,337.5469 230.5479,337.2969 Q230.9385,337.1406 231.3604,336.7031 Q231.626,336.4375 231.7666,336.3594 Q231.9229,336.2813 232.126,336.2813 Q232.4541,336.2813 232.7041,336.5469 Q232.9697,336.7969 232.9697,337.1406 Q232.9697,337.4844 232.626,337.8906 Q232.126,338.4688 231.3291,338.7969 Q230.251,339.25 228.9541,339.25 Q227.4385,339.25 226.2354,338.625 Q225.251,338.125 224.5635,337.0625 Q223.876,335.9844 223.876,334.7031 L223.876,333.5469 Q223.876,332.2188 224.4854,331.0781 Q225.1104,329.9219 226.2041,329.3125 Q227.2979,328.6875 228.5322,328.6875 Q229.2666,328.6875 229.9072,328.8594 Q230.5635,329.0156 231.1104,329.375 Z " fill="#000000"/><text fill="#000000" font-family="sans-serif" font-size="14" lengthAdjust="spacing" textLength="118.2959" x="248.8447" y="339.2969">ApplicationSession</text><line style="stroke:#181818;stroke-width:0.5;" x1="174.5" x2="408.9854" y1="349.5" y2="349.5"/><line style="stroke:#181818;stroke-width:0.5;" x1="174.5" x2="408.9854" y1="357.5" y2="357.5"/><text fill="#000000" font-family="sans-serif" font-size="14" lengthAdjust="spacing" textLength="132.2822" x="179.5" y="376.6074">-ApplicationSession()</text><text fill="#000000" font-family="sans-serif" font-size="14" lengthAdjust="spacing" text-decoration="underline" textLength="219.8506" x="179.5" y="395.2285">+getInstance() : ApplicationSession</text><text fill="#000000" font-family="sans-serif" font-size="14" lengthAdjust="spacing" textLength="224.4854" x="179.5" y="413.8496">+getCurrentSession() : UserSession</text></g><!--class UserSession--><g id="elem_UserSession"><rect codeLine="17" fill="#F1F1F1" height="159.7266" id="UserSession" rx="2.5" ry="2.5" style="stroke:#181818;stroke-width:0.5;" width="383.5879" x="174.5" y="519"/><ellipse cx="322.3613" cy="535" fill="#ADD1B2" rx="11" ry="11" style="stroke:#181818;stroke-width:1.0;"/><path d="M325.127,530.875 Q325.2832,530.6563 325.4707,530.5469 Q325.6582,530.4375 325.877,530.4375 Q326.252,530.4375 326.4863,530.7031 Q326.7207,530.9531 326.7207,531.5625 L326.7207,533.0156 Q326.7207,533.625 326.4863,533.8906 Q326.252,534.1563 325.877,534.1563 Q325.5332,534.1563 325.3301,533.9531 Q325.127,533.7656 325.0176,533.25 Q324.9707,532.8906 324.7832,532.7031 Q324.4551,532.3281 323.8457,532.1094 Q323.2363,531.8906 322.6113,531.8906 Q321.8457,531.8906 321.2051,532.2188 Q320.5801,532.5469 320.0801,533.2969 Q319.5957,534.0469 319.5957,535.0781 L319.5957,536.1719 Q319.5957,537.4063 320.4863,538.2344 Q321.377,539.0469 322.9707,539.0469 Q323.9082,539.0469 324.5645,538.7969 Q324.9551,538.6406 325.377,538.2031 Q325.6426,537.9375 325.7832,537.8594 Q325.9395,537.7813 326.1426,537.7813 Q326.4707,537.7813 326.7207,538.0469 Q326.9863,538.2969 326.9863,538.6406 Q326.9863,538.9844 326.6426,539.3906 Q326.1426,539.9688 325.3457,540.2969 Q324.2676,540.75 322.9707,540.75 Q321.4551,540.75 320.252,540.125 Q319.2676,539.625 318.5801,538.5625 Q317.8926,537.4844 317.8926,536.2031 L317.8926,535.0469 Q317.8926,533.7188 318.502,532.5781 Q319.127,531.4219 320.2207,530.8125 Q321.3145,530.1875 322.5488,530.1875 Q323.2832,530.1875 323.9238,530.3594 Q324.5801,530.5156 325.127,530.875 Z " fill="#000000"/><text fill="#000000" font-family="sans-serif" font-size="14" lengthAdjust="spacing" textLength="79.3652" x="342.8613" y="540.7969">UserSession</text><line style="stroke:#181818;stroke-width:0.5;" x1="175.5" x2="557.0879" y1="551" y2="551"/><text fill="#000000" font-family="sans-serif" font-size="14" lengthAdjust="spacing" textLength="94.1445" x="180.5" y="570.1074">-player : Player</text><text fill="#000000" font-family="sans-serif" font-size="14" lengthAdjust="spacing" textLength="119.0479" x="180.5" y="588.7285">-currentDate : Date</text><line style="stroke:#181818;stroke-width:0.5;" x1="175.5" x2="557.0879" y1="596.2422" y2="596.2422"/><text fill="#000000" font-family="sans-serif" font-size="14" lengthAdjust="spacing" textLength="154.458" x="180.5" y="615.3496">+getCurrentDate() : Date</text><text fill="#000000" font-family="sans-serif" font-size="14" lengthAdjust="spacing" textLength="258.8086" x="180.5" y="633.9707">+updateBudget(amount : double) : double</text><text fill="#000000" font-family="sans-serif" font-size="14" lengthAdjust="spacing" textLength="127.9961" x="180.5" y="652.5918">+getPlayer() : Player</text><text fill="#000000" font-family="sans-serif" font-size="14" lengthAdjust="spacing" textLength="371.5879" x="180.5" y="671.2129">+addLocomotiveToFleet(locomotive : Locomotive) : boolean</text></g><!--class Player--><g id="elem_Player"><rect codeLine="26" fill="#F1F1F1" height="159.7266" id="Player" rx="2.5" ry="2.5" style="stroke:#181818;stroke-width:0.5;" width="318.1953" x="259.5" y="758"/><ellipse cx="394.5063" cy="774" fill="#ADD1B2" rx="11" ry="11" style="stroke:#181818;stroke-width:1.0;"/><path d="M397.272,769.875 Q397.4282,769.6563 397.6157,769.5469 Q397.8032,769.4375 398.022,769.4375 Q398.397,769.4375 398.6313,769.7031 Q398.8657,769.9531 398.8657,770.5625 L398.8657,772.0156 Q398.8657,772.625 398.6313,772.8906 Q398.397,773.1563 398.022,773.1563 Q397.6782,773.1563 397.4751,772.9531 Q397.272,772.7656 397.1626,772.25 Q397.1157,771.8906 396.9282,771.7031 Q396.6001,771.3281 395.9907,771.1094 Q395.3813,770.8906 394.7563,770.8906 Q393.9907,770.8906 393.3501,771.2188 Q392.7251,771.5469 392.2251,772.2969 Q391.7407,773.0469 391.7407,774.0781 L391.7407,775.1719 Q391.7407,776.4063 392.6313,777.2344 Q393.522,778.0469 395.1157,778.0469 Q396.0532,778.0469 396.7095,777.7969 Q397.1001,777.6406 397.522,777.2031 Q397.7876,776.9375 397.9282,776.8594 Q398.0845,776.7813 398.2876,776.7813 Q398.6157,776.7813 398.8657,777.0469 Q399.1313,777.2969 399.1313,777.6406 Q399.1313,777.9844 398.7876,778.3906 Q398.2876,778.9688 397.4907,779.2969 Q396.4126,779.75 395.1157,779.75 Q393.6001,779.75 392.397,779.125 Q391.4126,778.625 390.7251,777.5625 Q390.0376,776.4844 390.0376,775.2031 L390.0376,774.0469 Q390.0376,772.7188 390.647,771.5781 Q391.272,770.4219 392.3657,769.8125 Q393.4595,769.1875 394.6938,769.1875 Q395.4282,769.1875 396.0688,769.3594 Q396.7251,769.5156 397.272,769.875 Z " fill="#000000"/><text fill="#000000" font-family="sans-serif" font-size="14" lengthAdjust="spacing" textLength="39.6826" x="415.0063" y="779.7969">Player</text><line style="stroke:#181818;stroke-width:0.5;" x1="260.5" x2="576.6953" y1="790" y2="790"/><text fill="#000000" font-family="sans-serif" font-size="14" lengthAdjust="spacing" textLength="63.7998" x="265.5" y="809.1074">-id : String</text><text fill="#000000" font-family="sans-serif" font-size="14" lengthAdjust="spacing" textLength="87.9238" x="265.5" y="827.7285">-name : String</text><text fill="#000000" font-family="sans-serif" font-size="14" lengthAdjust="spacing" textLength="92.6201" x="265.5" y="846.3496">-funds : double</text><text fill="#000000" font-family="sans-serif" font-size="14" lengthAdjust="spacing" textLength="120.5996" x="265.5" y="864.9707">-trains : List&lt;Train&gt;</text><line style="stroke:#181818;stroke-width:0.5;" x1="260.5" x2="576.6953" y1="872.4844" y2="872.4844"/><text fill="#000000" font-family="sans-serif" font-size="14" lengthAdjust="spacing" textLength="258.8086" x="265.5" y="891.5918">+updateBudget(amount : double) : double</text><text fill="#000000" font-family="sans-serif" font-size="14" lengthAdjust="spacing" textLength="306.1953" x="265.5" y="910.2129">+addLocomotive(locomotive : Locomotive) : Train</text></g><!--class Train--><g id="elem_Train"><rect codeLine="36" fill="#F1F1F1" height="141.1055" id="Train" rx="2.5" ry="2.5" style="stroke:#181818;stroke-width:0.5;" width="283.9814" x="112.5" y="997"/><ellipse cx="234.2925" cy="1013" fill="#ADD1B2" rx="11" ry="11" style="stroke:#181818;stroke-width:1.0;"/><path d="M237.0581,1008.875 Q237.2144,1008.6563 237.4019,1008.5469 Q237.5894,1008.4375 237.8081,1008.4375 Q238.1831,1008.4375 238.4175,1008.7031 Q238.6519,1008.9531 238.6519,1009.5625 L238.6519,1011.0156 Q238.6519,1011.625 238.4175,1011.8906 Q238.1831,1012.1563 237.8081,1012.1563 Q237.4644,1012.1563 237.2612,1011.9531 Q237.0581,1011.7656 236.9487,1011.25 Q236.9019,1010.8906 236.7144,1010.7031 Q236.3862,1010.3281 235.7769,1010.1094 Q235.1675,1009.8906 234.5425,1009.8906 Q233.7769,1009.8906 233.1362,1010.2188 Q232.5112,1010.5469 232.0112,1011.2969 Q231.5269,1012.0469 231.5269,1013.0781 L231.5269,1014.1719 Q231.5269,1015.4063 232.4175,1016.2344 Q233.3081,1017.0469 234.9019,1017.0469 Q235.8394,1017.0469 236.4956,1016.7969 Q236.8862,1016.6406 237.3081,1016.2031 Q237.5737,1015.9375 237.7144,1015.8594 Q237.8706,1015.7813 238.0737,1015.7813 Q238.4019,1015.7813 238.6519,1016.0469 Q238.9175,1016.2969 238.9175,1016.6406 Q238.9175,1016.9844 238.5737,1017.3906 Q238.0737,1017.9688 237.2769,1018.2969 Q236.1987,1018.75 234.9019,1018.75 Q233.3862,1018.75 232.1831,1018.125 Q231.1987,1017.625 230.5112,1016.5625 Q229.8237,1015.4844 229.8237,1014.2031 L229.8237,1013.0469 Q229.8237,1011.7188 230.4331,1010.5781 Q231.0581,1009.4219 232.1519,1008.8125 Q233.2456,1008.1875 234.48,1008.1875 Q235.2144,1008.1875 235.855,1008.3594 Q236.5112,1008.5156 237.0581,1008.875 Z " fill="#000000"/><text fill="#000000" font-family="sans-serif" font-size="14" lengthAdjust="spacing" textLength="31.8965" x="254.7925" y="1018.7969">Train</text><line style="stroke:#181818;stroke-width:0.5;" x1="113.5" x2="395.4814" y1="1029" y2="1029"/><text fill="#000000" font-family="sans-serif" font-size="14" lengthAdjust="spacing" textLength="63.7998" x="118.5" y="1048.1074">-id : String</text><text fill="#000000" font-family="sans-serif" font-size="14" lengthAdjust="spacing" textLength="154.8408" x="118.5" y="1066.7285">-locomotive : Locomotive</text><text fill="#000000" font-family="sans-serif" font-size="14" lengthAdjust="spacing" textLength="165.7373" x="118.5" y="1085.3496">-carriages : List&lt;Carriage&gt;</text><line style="stroke:#181818;stroke-width:0.5;" x1="113.5" x2="395.4814" y1="1092.8633" y2="1092.8633"/><text fill="#000000" font-family="sans-serif" font-size="14" lengthAdjust="spacing" textLength="266.4922" x="118.5" y="1111.9707">+Train(id : String, locomotive : Locomotive)</text><text fill="#000000" font-family="sans-serif" font-size="14" lengthAdjust="spacing" textLength="271.9814" x="118.5" y="1130.5918">+addCarriage(carriage : Carriage) : boolean</text></g><!--class Locomotive--><g id="elem_Locomotive"><rect codeLine="45" fill="#F1F1F1" height="290.0742" id="Locomotive" rx="2.5" ry="2.5" style="stroke:#181818;stroke-width:0.5;" width="960.2197" x="365.5" y="1217"/><ellipse cx="805.5635" cy="1233" fill="#ADD1B2" rx="11" ry="11" style="stroke:#181818;stroke-width:1.0;"/><path d="M808.3291,1228.875 Q808.4854,1228.6563 808.6729,1228.5469 Q808.8604,1228.4375 809.0791,1228.4375 Q809.4541,1228.4375 809.6885,1228.7031 Q809.9229,1228.9531 809.9229,1229.5625 L809.9229,1231.0156 Q809.9229,1231.625 809.6885,1231.8906 Q809.4541,1232.1563 809.0791,1232.1563 Q808.7354,1232.1563 808.5322,1231.9531 Q808.3291,1231.7656 808.2197,1231.25 Q808.1729,1230.8906 807.9854,1230.7031 Q807.6572,1230.3281 807.0479,1230.1094 Q806.4385,1229.8906 805.8135,1229.8906 Q805.0479,1229.8906 804.4072,1230.2188 Q803.7822,1230.5469 803.2822,1231.2969 Q802.7979,1232.0469 802.7979,1233.0781 L802.7979,1234.1719 Q802.7979,1235.4063 803.6885,1236.2344 Q804.5791,1237.0469 806.1729,1237.0469 Q807.1104,1237.0469 807.7666,1236.7969 Q808.1572,1236.6406 808.5791,1236.2031 Q808.8447,1235.9375 808.9854,1235.8594 Q809.1416,1235.7813 809.3447,1235.7813 Q809.6729,1235.7813 809.9229,1236.0469 Q810.1885,1236.2969 810.1885,1236.6406 Q810.1885,1236.9844 809.8447,1237.3906 Q809.3447,1237.9688 808.5479,1238.2969 Q807.4697,1238.75 806.1729,1238.75 Q804.6572,1238.75 803.4541,1238.125 Q802.4697,1237.625 801.7822,1236.5625 Q801.0947,1235.4844 801.0947,1234.2031 L801.0947,1233.0469 Q801.0947,1231.7188 801.7041,1230.5781 Q802.3291,1229.4219 803.4229,1228.8125 Q804.5166,1228.1875 805.751,1228.1875 Q806.4854,1228.1875 807.126,1228.3594 Q807.7822,1228.5156 808.3291,1228.875 Z " fill="#000000"/><text fill="#000000" font-family="sans-serif" font-size="14" lengthAdjust="spacing" textLength="71.5928" x="826.0635" y="1238.7969">Locomotive</text><line style="stroke:#181818;stroke-width:0.5;" x1="366.5" x2="1324.7197" y1="1249" y2="1249"/><text fill="#000000" font-family="sans-serif" font-size="14" lengthAdjust="spacing" textLength="63.7998" x="371.5" y="1268.1074">-id : String</text><text fill="#000000" font-family="sans-serif" font-size="14" lengthAdjust="spacing" textLength="87.9238" x="371.5" y="1286.7285">-name : String</text><text fill="#000000" font-family="sans-serif" font-size="14" lengthAdjust="spacing" textLength="145.5098" x="371.5" y="1305.3496">-type : LocomotiveType</text><text fill="#000000" font-family="sans-serif" font-size="14" lengthAdjust="spacing" textLength="96.5029" x="371.5" y="1323.9707">-power : double</text><text fill="#000000" font-family="sans-serif" font-size="14" lengthAdjust="spacing" textLength="96.5166" x="371.5" y="1342.5918">-speed : double</text><text fill="#000000" font-family="sans-serif" font-size="14" lengthAdjust="spacing" textLength="88.7168" x="371.5" y="1361.2129">-price : double</text><text fill="#000000" font-family="sans-serif" font-size="14" lengthAdjust="spacing" textLength="133.8271" x="371.5" y="1379.834">-availableFrom : Date</text><text fill="#000000" font-family="sans-serif" font-size="14" lengthAdjust="spacing" textLength="129.1719" x="371.5" y="1398.4551">-availableUntil : Date</text><line style="stroke:#181818;stroke-width:0.5;" x1="366.5" x2="1324.7197" y1="1405.9688" y2="1405.9688"/><text fill="#000000" font-family="sans-serif" font-size="14" lengthAdjust="spacing" textLength="948.2197" x="371.5" y="1425.0762">+Locomotive(id : String, name : String, type : LocomotiveType, power : double, speed : double, price : double, availableFrom : Date, availableUntil : Date)</text><text fill="#000000" font-family="sans-serif" font-size="14" lengthAdjust="spacing" textLength="122.5684" x="371.5" y="1443.6973">+getPrice() : double</text><text fill="#000000" font-family="sans-serif" font-size="14" lengthAdjust="spacing" textLength="182.4717" x="371.5" y="1462.3184">+getType() : LocomotiveType</text><text fill="#000000" font-family="sans-serif" font-size="14" lengthAdjust="spacing" textLength="167.6787" x="371.5" y="1480.9395">+getAvailableFrom() : Date</text><text fill="#000000" font-family="sans-serif" font-size="14" lengthAdjust="spacing" textLength="163.0234" x="371.5" y="1499.5605">+getAvailableUntil() : Date</text></g><!--class LocomotiveType--><g id="elem_LocomotiveType"><rect codeLine="62" fill="#F1F1F1" height="103.8633" id="LocomotiveType" rx="2.5" ry="2.5" style="stroke:#181818;stroke-width:0.5;" width="134.7168" x="778" y="1614"/><ellipse cx="793" cy="1630" fill="#EB937F" rx="11" ry="11" style="stroke:#181818;stroke-width:1.0;"/><path d="M791.8594,1630.7969 L791.8594,1633.2969 L796.1875,1633.2969 L796.1875,1632.375 Q796.1875,1631.7656 796.4219,1631.5 Q796.6719,1631.2344 797.0469,1631.2344 Q797.4219,1631.2344 797.6563,1631.5 Q797.8906,1631.7656 797.8906,1632.375 L797.8906,1635 L789.8906,1635 Q789.2656,1635 789,1634.7656 Q788.75,1634.5313 788.75,1634.1406 Q788.75,1633.7656 789.0156,1633.5313 Q789.2813,1633.2969 789.8906,1633.2969 L790.1563,1633.2969 L790.1563,1626.6406 L789.8906,1626.6406 Q789.2656,1626.6406 789,1626.4063 Q788.75,1626.1719 788.75,1625.7813 Q788.75,1625.4063 789,1625.1719 Q789.2656,1624.9375 789.8906,1624.9375 L797.5156,1624.9375 L797.5156,1627.5313 Q797.5156,1628.1406 797.2813,1628.4063 Q797.0625,1628.6563 796.6719,1628.6563 Q796.2969,1628.6563 796.0625,1628.4063 Q795.8281,1628.1406 795.8281,1627.5313 L795.8281,1626.6406 L791.8594,1626.6406 L791.8594,1629.0938 L793.3438,1629.0938 Q793.3438,1628.4375 793.4688,1628.25 Q793.7344,1627.8438 794.2031,1627.8438 Q794.5781,1627.8438 794.8125,1628.1094 Q795.0469,1628.3594 795.0469,1628.9688 L795.0469,1630.9375 Q795.0469,1631.4844 794.9219,1631.6719 Q794.6563,1632.0625 794.2031,1632.0625 Q793.7344,1632.0625 793.4688,1631.6563 Q793.3438,1631.4688 793.3438,1630.7969 L791.8594,1630.7969 Z " fill="#000000"/><text fill="#000000" font-family="sans-serif" font-size="14" lengthAdjust="spacing" textLength="102.7168" x="807" y="1635.7969">LocomotiveType</text><line style="stroke:#181818;stroke-width:0.5;" x1="779" x2="911.7168" y1="1646" y2="1646"/><text fill="#000000" font-family="sans-serif" font-size="14" lengthAdjust="spacing" textLength="48.2275" x="784" y="1665.1074">STEAM</text><text fill="#000000" font-family="sans-serif" font-size="14" lengthAdjust="spacing" textLength="49.7998" x="784" y="1683.7285">DIESEL</text><text fill="#000000" font-family="sans-serif" font-size="14" lengthAdjust="spacing" textLength="69.2344" x="784" y="1702.3496">ELECTRIC</text><line style="stroke:#181818;stroke-width:0.5;" x1="779" x2="911.7168" y1="1709.8633" y2="1709.8633"/></g><!--class Carriage--><g id="elem_Carriage"><rect codeLine="68" fill="#F1F1F1" height="122.4844" id="Carriage" rx="2.5" ry="2.5" style="stroke:#181818;stroke-width:0.5;" width="297.1748" x="33" y="1301"/><ellipse cx="150.4927" cy="1317" fill="#ADD1B2" rx="11" ry="11" style="stroke:#181818;stroke-width:1.0;"/><path d="M153.2583,1312.875 Q153.4146,1312.6563 153.6021,1312.5469 Q153.7896,1312.4375 154.0083,1312.4375 Q154.3833,1312.4375 154.6177,1312.7031 Q154.8521,1312.9531 154.8521,1313.5625 L154.8521,1315.0156 Q154.8521,1315.625 154.6177,1315.8906 Q154.3833,1316.1563 154.0083,1316.1563 Q153.6646,1316.1563 153.4614,1315.9531 Q153.2583,1315.7656 153.1489,1315.25 Q153.1021,1314.8906 152.9146,1314.7031 Q152.5864,1314.3281 151.9771,1314.1094 Q151.3677,1313.8906 150.7427,1313.8906 Q149.9771,1313.8906 149.3364,1314.2188 Q148.7114,1314.5469 148.2114,1315.2969 Q147.7271,1316.0469 147.7271,1317.0781 L147.7271,1318.1719 Q147.7271,1319.4063 148.6177,1320.2344 Q149.5083,1321.0469 151.1021,1321.0469 Q152.0396,1321.0469 152.6958,1320.7969 Q153.0864,1320.6406 153.5083,1320.2031 Q153.7739,1319.9375 153.9146,1319.8594 Q154.0708,1319.7813 154.2739,1319.7813 Q154.6021,1319.7813 154.8521,1320.0469 Q155.1177,1320.2969 155.1177,1320.6406 Q155.1177,1320.9844 154.7739,1321.3906 Q154.2739,1321.9688 153.4771,1322.2969 Q152.3989,1322.75 151.1021,1322.75 Q149.5864,1322.75 148.3833,1322.125 Q147.3989,1321.625 146.7114,1320.5625 Q146.0239,1319.4844 146.0239,1318.2031 L146.0239,1317.0469 Q146.0239,1315.7188 146.6333,1314.5781 Q147.2583,1313.4219 148.3521,1312.8125 Q149.4458,1312.1875 150.6802,1312.1875 Q151.4146,1312.1875 152.0552,1312.3594 Q152.7114,1312.5156 153.2583,1312.875 Z " fill="#000000"/><text fill="#000000" font-family="sans-serif" font-size="14" lengthAdjust="spacing" textLength="53.6895" x="170.9927" y="1322.7969">Carriage</text><line style="stroke:#181818;stroke-width:0.5;" x1="34" x2="329.1748" y1="1333" y2="1333"/><text fill="#000000" font-family="sans-serif" font-size="14" lengthAdjust="spacing" textLength="63.7998" x="39" y="1352.1074">-id : String</text><text fill="#000000" font-family="sans-serif" font-size="14" lengthAdjust="spacing" textLength="151.7305" x="39" y="1370.7285">-cargoType : CargoType</text><line style="stroke:#181818;stroke-width:0.5;" x1="34" x2="329.1748" y1="1378.2422" y2="1378.2422"/><text fill="#000000" font-family="sans-serif" font-size="14" lengthAdjust="spacing" textLength="285.1748" x="39" y="1397.3496">+Carriage(id : String, cargoType : CargoType)</text><text fill="#000000" font-family="sans-serif" font-size="14" lengthAdjust="spacing" textLength="187.1406" x="39" y="1415.9707">+getCargoType() : CargoType</text></g><!--class CargoType--><g id="elem_CargoType"><rect codeLine="76" fill="#F1F1F1" height="159.7266" id="CargoType" rx="2.5" ry="2.5" style="stroke:#181818;stroke-width:0.5;" width="108.4756" x="127.5" y="1586"/><ellipse cx="145.7493" cy="1602" fill="#EB937F" rx="11" ry="11" style="stroke:#181818;stroke-width:1.0;"/><path d="M144.6087,1602.7969 L144.6087,1605.2969 L148.9368,1605.2969 L148.9368,1604.375 Q148.9368,1603.7656 149.1712,1603.5 Q149.4212,1603.2344 149.7962,1603.2344 Q150.1712,1603.2344 150.4056,1603.5 Q150.6399,1603.7656 150.6399,1604.375 L150.6399,1607 L142.6399,1607 Q142.0149,1607 141.7493,1606.7656 Q141.4993,1606.5313 141.4993,1606.1406 Q141.4993,1605.7656 141.7649,1605.5313 Q142.0306,1605.2969 142.6399,1605.2969 L142.9056,1605.2969 L142.9056,1598.6406 L142.6399,1598.6406 Q142.0149,1598.6406 141.7493,1598.4063 Q141.4993,1598.1719 141.4993,1597.7813 Q141.4993,1597.4063 141.7493,1597.1719 Q142.0149,1596.9375 142.6399,1596.9375 L150.2649,1596.9375 L150.2649,1599.5313 Q150.2649,1600.1406 150.0306,1600.4063 Q149.8118,1600.6563 149.4212,1600.6563 Q149.0462,1600.6563 148.8118,1600.4063 Q148.5774,1600.1406 148.5774,1599.5313 L148.5774,1598.6406 L144.6087,1598.6406 L144.6087,1601.0938 L146.0931,1601.0938 Q146.0931,1600.4375 146.2181,1600.25 Q146.4837,1599.8438 146.9524,1599.8438 Q147.3274,1599.8438 147.5618,1600.1094 Q147.7962,1600.3594 147.7962,1600.9688 L147.7962,1602.9375 Q147.7962,1603.4844 147.6712,1603.6719 Q147.4056,1604.0625 146.9524,1604.0625 Q146.4837,1604.0625 146.2181,1603.6563 Q146.0931,1603.4688 146.0931,1602.7969 L144.6087,1602.7969 Z " fill="#000000"/><text fill="#000000" font-family="sans-serif" font-size="14" lengthAdjust="spacing" textLength="69.2549" x="160.4714" y="1607.7969">CargoType</text><line style="stroke:#181818;stroke-width:0.5;" x1="128.5" x2="234.9756" y1="1618" y2="1618"/><text fill="#000000" font-family="sans-serif" font-size="14" lengthAdjust="spacing" textLength="96.4756" x="133.5" y="1637.1074">PASSENGERS</text><text fill="#000000" font-family="sans-serif" font-size="14" lengthAdjust="spacing" textLength="32.6758" x="133.5" y="1655.7285">MAIL</text><text fill="#000000" font-family="sans-serif" font-size="14" lengthAdjust="spacing" textLength="38.124" x="133.5" y="1674.3496">COAL</text><text fill="#000000" font-family="sans-serif" font-size="14" lengthAdjust="spacing" textLength="73.124" x="133.5" y="1692.9707">IRON_ORE</text><text fill="#000000" font-family="sans-serif" font-size="14" lengthAdjust="spacing" textLength="44.3516" x="133.5" y="1711.5918">STEEL</text><text fill="#000000" font-family="sans-serif" font-size="14" lengthAdjust="spacing" textLength="38.8965" x="133.5" y="1730.2129">CARS</text><line style="stroke:#181818;stroke-width:0.5;" x1="128.5" x2="234.9756" y1="1737.7266" y2="1737.7266"/></g><!--class LocomotiveRepository--><g id="elem_LocomotiveRepository"><rect codeLine="85" fill="#F1F1F1" height="85.2422" id="LocomotiveRepository" rx="2.5" ry="2.5" style="stroke:#181818;stroke-width:0.5;" width="420.1533" x="750.5" y="556.5"/><ellipse cx="887.0718" cy="572.5" fill="#ADD1B2" rx="11" ry="11" style="stroke:#181818;stroke-width:1.0;"/><path d="M889.8374,568.375 Q889.9937,568.1563 890.1812,568.0469 Q890.3687,567.9375 890.5874,567.9375 Q890.9624,567.9375 891.1968,568.2031 Q891.4312,568.4531 891.4312,569.0625 L891.4312,570.5156 Q891.4312,571.125 891.1968,571.3906 Q890.9624,571.6563 890.5874,571.6563 Q890.2437,571.6563 890.0405,571.4531 Q889.8374,571.2656 889.728,570.75 Q889.6812,570.3906 889.4937,570.2031 Q889.1655,569.8281 888.5562,569.6094 Q887.9468,569.3906 887.3218,569.3906 Q886.5562,569.3906 885.9155,569.7188 Q885.2905,570.0469 884.7905,570.7969 Q884.3062,571.5469 884.3062,572.5781 L884.3062,573.6719 Q884.3062,574.9063 885.1968,575.7344 Q886.0874,576.5469 887.6812,576.5469 Q888.6187,576.5469 889.2749,576.2969 Q889.6655,576.1406 890.0874,575.7031 Q890.353,575.4375 890.4937,575.3594 Q890.6499,575.2813 890.853,575.2813 Q891.1812,575.2813 891.4312,575.5469 Q891.6968,575.7969 891.6968,576.1406 Q891.6968,576.4844 891.353,576.8906 Q890.853,577.4688 890.0562,577.7969 Q888.978,578.25 887.6812,578.25 Q886.1655,578.25 884.9624,577.625 Q883.978,577.125 883.2905,576.0625 Q882.603,574.9844 882.603,573.7031 L882.603,572.5469 Q882.603,571.2188 883.2124,570.0781 Q883.8374,568.9219 884.9312,568.3125 Q886.0249,567.6875 887.2593,567.6875 Q887.9937,567.6875 888.6343,567.8594 Q889.2905,568.0156 889.8374,568.375 Z " fill="#000000"/><text fill="#000000" font-family="sans-serif" font-size="14" lengthAdjust="spacing" textLength="138.5098" x="907.5718" y="578.2969">LocomotiveRepository</text><line style="stroke:#181818;stroke-width:0.5;" x1="751.5" x2="1169.6533" y1="588.5" y2="588.5"/><line style="stroke:#181818;stroke-width:0.5;" x1="751.5" x2="1169.6533" y1="596.5" y2="596.5"/><text fill="#000000" font-family="sans-serif" font-size="14" lengthAdjust="spacing" textLength="408.1533" x="756.5" y="615.6074">+getAvailableLocomotives(currentDate : Date) : List&lt;Locomotive&gt;</text><text fill="#000000" font-family="sans-serif" font-size="14" lengthAdjust="spacing" textLength="346.6641" x="756.5" y="634.2285">+getLocomotiveById(locomotiveId : String) : Locomotive</text></g><!--class Repositories--><g id="elem_Repositories"><rect codeLine="90" fill="#F1F1F1" height="141.1055" id="Repositories" rx="2.5" ry="2.5" style="stroke:#181818;stroke-width:0.5;" width="337.6504" x="806.5" y="299"/><ellipse cx="932.1685" cy="315" fill="#ADD1B2" rx="11" ry="11" style="stroke:#181818;stroke-width:1.0;"/><path d="M934.9341,310.875 Q935.0903,310.6563 935.2778,310.5469 Q935.4653,310.4375 935.6841,310.4375 Q936.0591,310.4375 936.2935,310.7031 Q936.5278,310.9531 936.5278,311.5625 L936.5278,313.0156 Q936.5278,313.625 936.2935,313.8906 Q936.0591,314.1563 935.6841,314.1563 Q935.3403,314.1563 935.1372,313.9531 Q934.9341,313.7656 934.8247,313.25 Q934.7778,312.8906 934.5903,312.7031 Q934.2622,312.3281 933.6528,312.1094 Q933.0435,311.8906 932.4185,311.8906 Q931.6528,311.8906 931.0122,312.2188 Q930.3872,312.5469 929.8872,313.2969 Q929.4028,314.0469 929.4028,315.0781 L929.4028,316.1719 Q929.4028,317.4063 930.2935,318.2344 Q931.1841,319.0469 932.7778,319.0469 Q933.7153,319.0469 934.3716,318.7969 Q934.7622,318.6406 935.1841,318.2031 Q935.4497,317.9375 935.5903,317.8594 Q935.7466,317.7813 935.9497,317.7813 Q936.2778,317.7813 936.5278,318.0469 Q936.7935,318.2969 936.7935,318.6406 Q936.7935,318.9844 936.4497,319.3906 Q935.9497,319.9688 935.1528,320.2969 Q934.0747,320.75 932.7778,320.75 Q931.2622,320.75 930.0591,320.125 Q929.0747,319.625 928.3872,318.5625 Q927.6997,317.4844 927.6997,316.2031 L927.6997,315.0469 Q927.6997,313.7188 928.3091,312.5781 Q928.9341,311.4219 930.0278,310.8125 Q931.1216,310.1875 932.356,310.1875 Q933.0903,310.1875 933.731,310.3594 Q934.3872,310.5156 934.9341,310.875 Z " fill="#000000"/><text fill="#000000" font-family="sans-serif" font-size="14" lengthAdjust="spacing" textLength="77.8135" x="952.6685" y="320.7969">Repositories</text><line style="stroke:#181818;stroke-width:0.5;" x1="807.5" x2="1143.1504" y1="331" y2="331"/><text fill="#000000" font-family="sans-serif" font-size="14" lengthAdjust="spacing" textLength="182.8545" x="812.5" y="350.1074">-static instance : Repositories</text><text fill="#000000" font-family="sans-serif" font-size="14" lengthAdjust="spacing" textLength="288.6748" x="812.5" y="368.7285">-locomotiveRepository : LocomotiveRepository</text><line style="stroke:#181818;stroke-width:0.5;" x1="807.5" x2="1143.1504" y1="376.2422" y2="376.2422"/><text fill="#000000" font-family="sans-serif" font-size="14" lengthAdjust="spacing" textLength="91.7998" x="812.5" y="395.3496">-Repositories()</text><text fill="#000000" font-family="sans-serif" font-size="14" lengthAdjust="spacing" text-decoration="underline" textLength="179.3682" x="812.5" y="413.9707">+getInstance() : Repositories</text><text fill="#000000" font-family="sans-serif" font-size="14" lengthAdjust="spacing" textLength="325.6504" x="812.5" y="432.5918">+getLocomotiveRepository() : LocomotiveRepository</text></g><!--class BuyLocomotiveController--><g id="elem_BuyLocomotiveController"><rect codeLine="99" fill="#F1F1F1" height="122.4844" id="BuyLocomotiveController" rx="2.5" ry="2.5" style="stroke:#181818;stroke-width:0.5;" width="442.3223" x="425.5" y="116"/><ellipse cx="564.208" cy="132" fill="#ADD1B2" rx="11" ry="11" style="stroke:#181818;stroke-width:1.0;"/><path d="M566.9736,127.875 Q567.1299,127.6563 567.3174,127.5469 Q567.5049,127.4375 567.7236,127.4375 Q568.0986,127.4375 568.333,127.7031 Q568.5674,127.9531 568.5674,128.5625 L568.5674,130.0156 Q568.5674,130.625 568.333,130.8906 Q568.0986,131.1563 567.7236,131.1563 Q567.3799,131.1563 567.1768,130.9531 Q566.9736,130.7656 566.8643,130.25 Q566.8174,129.8906 566.6299,129.7031 Q566.3018,129.3281 565.6924,129.1094 Q565.083,128.8906 564.458,128.8906 Q563.6924,128.8906 563.0518,129.2188 Q562.4268,129.5469 561.9268,130.2969 Q561.4424,131.0469 561.4424,132.0781 L561.4424,133.1719 Q561.4424,134.4063 562.333,135.2344 Q563.2236,136.0469 564.8174,136.0469 Q565.7549,136.0469 566.4111,135.7969 Q566.8018,135.6406 567.2236,135.2031 Q567.4893,134.9375 567.6299,134.8594 Q567.7861,134.7813 567.9893,134.7813 Q568.3174,134.7813 568.5674,135.0469 Q568.833,135.2969 568.833,135.6406 Q568.833,135.9844 568.4893,136.3906 Q567.9893,136.9688 567.1924,137.2969 Q566.1143,137.75 564.8174,137.75 Q563.3018,137.75 562.0986,137.125 Q561.1143,136.625 560.4268,135.5625 Q559.7393,134.4844 559.7393,133.2031 L559.7393,132.0469 Q559.7393,130.7188 560.3486,129.5781 Q560.9736,128.4219 562.0674,127.8125 Q563.1611,127.1875 564.3955,127.1875 Q565.1299,127.1875 565.7705,127.3594 Q566.4268,127.5156 566.9736,127.875 Z " fill="#000000"/><text fill="#000000" font-family="sans-serif" font-size="14" lengthAdjust="spacing" textLength="156.4063" x="584.708" y="137.7969">BuyLocomotiveController</text><line style="stroke:#181818;stroke-width:0.5;" x1="426.5" x2="866.8223" y1="148" y2="148"/><line style="stroke:#181818;stroke-width:0.5;" x1="426.5" x2="866.8223" y1="156" y2="156"/><text fill="#000000" font-family="sans-serif" font-size="14" lengthAdjust="spacing" textLength="173.9063" x="431.5" y="175.1074">+BuyLocomotiveController()</text><text fill="#000000" font-family="sans-serif" font-size="14" lengthAdjust="spacing" textLength="293.7676" x="431.5" y="193.7285">+getAvailableLocomotives() : List&lt;Locomotive&gt;</text><text fill="#000000" font-family="sans-serif" font-size="14" lengthAdjust="spacing" textLength="299.9951" x="431.5" y="212.3496">+buyLocomotive(locomotiveId : String) : boolean</text><text fill="#000000" font-family="sans-serif" font-size="14" lengthAdjust="spacing" textLength="430.3223" x="431.5" y="230.9707">-validatePurchase(player : Player, locomotive : Locomotive) : boolean</text></g><!--class BuyLocomotiveUI--><g id="elem_BuyLocomotiveUI"><rect codeLine="106" fill="#F1F1F1" height="48" id="BuyLocomotiveUI" rx="2.5" ry="2.5" style="stroke:#181818;stroke-width:0.5;" width="141.7168" x="575.5" y="7"/><ellipse cx="590.5" cy="23" fill="#ADD1B2" rx="11" ry="11" style="stroke:#181818;stroke-width:1.0;"/><path d="M593.2656,18.875 Q593.4219,18.6563 593.6094,18.5469 Q593.7969,18.4375 594.0156,18.4375 Q594.3906,18.4375 594.625,18.7031 Q594.8594,18.9531 594.8594,19.5625 L594.8594,21.0156 Q594.8594,21.625 594.625,21.8906 Q594.3906,22.1563 594.0156,22.1563 Q593.6719,22.1563 593.4688,21.9531 Q593.2656,21.7656 593.1563,21.25 Q593.1094,20.8906 592.9219,20.7031 Q592.5938,20.3281 591.9844,20.1094 Q591.375,19.8906 590.75,19.8906 Q589.9844,19.8906 589.3438,20.2188 Q588.7188,20.5469 588.2188,21.2969 Q587.7344,22.0469 587.7344,23.0781 L587.7344,24.1719 Q587.7344,25.4063 588.625,26.2344 Q589.5156,27.0469 591.1094,27.0469 Q592.0469,27.0469 592.7031,26.7969 Q593.0938,26.6406 593.5156,26.2031 Q593.7813,25.9375 593.9219,25.8594 Q594.0781,25.7813 594.2813,25.7813 Q594.6094,25.7813 594.8594,26.0469 Q595.125,26.2969 595.125,26.6406 Q595.125,26.9844 594.7813,27.3906 Q594.2813,27.9688 593.4844,28.2969 Q592.4063,28.75 591.1094,28.75 Q589.5938,28.75 588.3906,28.125 Q587.4063,27.625 586.7188,26.5625 Q586.0313,25.4844 586.0313,24.2031 L586.0313,23.0469 Q586.0313,21.7188 586.6406,20.5781 Q587.2656,19.4219 588.3594,18.8125 Q589.4531,18.1875 590.6875,18.1875 Q591.4219,18.1875 592.0625,18.3594 Q592.7188,18.5156 593.2656,18.875 Z " fill="#000000"/><text fill="#000000" font-family="sans-serif" font-size="14" lengthAdjust="spacing" textLength="109.7168" x="604.5" y="28.7969">BuyLocomotiveUI</text><line style="stroke:#181818;stroke-width:0.5;" x1="576.5" x2="716.2168" y1="39" y2="39"/><line style="stroke:#181818;stroke-width:0.5;" x1="576.5" x2="716.2168" y1="47" y2="47"/></g><!--class RailwayNetwork--><g id="elem_RailwayNetwork"><rect codeLine="109" fill="#F1F1F1" height="85.2422" id="RailwayNetwork" rx="2.5" ry="2.5" style="stroke:#181818;stroke-width:0.5;" width="217.0508" x="7" y="795.5"/><ellipse cx="61.0962" cy="811.5" fill="#ADD1B2" rx="11" ry="11" style="stroke:#181818;stroke-width:1.0;"/><path d="M63.8618,807.375 Q64.0181,807.1563 64.2056,807.0469 Q64.3931,806.9375 64.6118,806.9375 Q64.9868,806.9375 65.2212,807.2031 Q65.4556,807.4531 65.4556,808.0625 L65.4556,809.5156 Q65.4556,810.125 65.2212,810.3906 Q64.9868,810.6563 64.6118,810.6563 Q64.2681,810.6563 64.0649,810.4531 Q63.8618,810.2656 63.7524,809.75 Q63.7056,809.3906 63.5181,809.2031 Q63.1899,808.8281 62.5806,808.6094 Q61.9712,808.3906 61.3462,808.3906 Q60.5806,808.3906 59.9399,808.7188 Q59.3149,809.0469 58.8149,809.7969 Q58.3306,810.5469 58.3306,811.5781 L58.3306,812.6719 Q58.3306,813.9063 59.2212,814.7344 Q60.1118,815.5469 61.7056,815.5469 Q62.6431,815.5469 63.2993,815.2969 Q63.6899,815.1406 64.1118,814.7031 Q64.3774,814.4375 64.5181,814.3594 Q64.6743,814.2813 64.8774,814.2813 Q65.2056,814.2813 65.4556,814.5469 Q65.7212,814.7969 65.7212,815.1406 Q65.7212,815.4844 65.3774,815.8906 Q64.8774,816.4688 64.0806,816.7969 Q63.0024,817.25 61.7056,817.25 Q60.1899,817.25 58.9868,816.625 Q58.0024,816.125 57.3149,815.0625 Q56.6274,813.9844 56.6274,812.7031 L56.6274,811.5469 Q56.6274,810.2188 57.2368,809.0781 Q57.8618,807.9219 58.9556,807.3125 Q60.0493,806.6875 61.2837,806.6875 Q62.0181,806.6875 62.6587,806.8594 Q63.3149,807.0156 63.8618,807.375 Z " fill="#000000"/><text fill="#000000" font-family="sans-serif" font-size="14" lengthAdjust="spacing" textLength="100.3584" x="81.5962" y="817.2969">RailwayNetwork</text><line style="stroke:#181818;stroke-width:0.5;" x1="8" x2="223.0508" y1="827.5" y2="827.5"/><text fill="#000000" font-family="sans-serif" font-size="14" lengthAdjust="spacing" textLength="120.5996" x="13" y="846.6074">-trains : List&lt;Train&gt;</text><line style="stroke:#181818;stroke-width:0.5;" x1="8" x2="223.0508" y1="854.1211" y2="854.1211"/><text fill="#000000" font-family="sans-serif" font-size="14" lengthAdjust="spacing" textLength="205.0508" x="13" y="873.2285">+addTrain(train : Train) : boolean</text></g><g id="elem_GMN15"><path d="M902.5,154.5 L902.5,199.082 L1078.167,199.082 L1078.167,164.5 L1068.167,154.5 L902.5,154.5 " fill="#FEFFDD" style="stroke:#181818;stroke-width:0.5;"/><path d="M1068.167,154.5 L1068.167,164.5 L1078.167,164.5 L1068.167,154.5 " fill="#FEFFDD" style="stroke:#181818;stroke-width:1.0;"/><text fill="#000000" font-family="sans-serif" font-size="13" lengthAdjust="spacing" textLength="127.1816" x="908.5" y="173.5283">Validates if player has</text><text fill="#000000" font-family="sans-serif" font-size="13" lengthAdjust="spacing" textLength="154.667" x="908.5" y="190.8193">enough funds for purchase</text></g><g id="elem_GMN18"><path d="M735.5,807 L735.5,868.873 A0,0 0 0 0 735.5,868.873 L931.3652,868.873 A0,0 0 0 0 931.3652,868.873 L931.3652,817 L921.3652,807 L853.69,807 L938.23,641.55 L845.69,807 L735.5,807 A0,0 0 0 0 735.5,807 " fill="#FEFFDD" style="stroke:#181818;stroke-width:0.5;"/><path d="M921.3652,807 L921.3652,817 L931.3652,817 L921.3652,807 " fill="#FEFFDD" style="stroke:#181818;stroke-width:0.5;"/><text fill="#000000" font-family="sans-serif" font-size="13" lengthAdjust="spacing" textLength="168.3525" x="741.5" y="826.0283">Filters locomotives based on:</text><text fill="#000000" font-family="sans-serif" font-size="13" lengthAdjust="spacing" textLength="146.6816" x="741.5" y="843.3193">- Current date in scenario</text><text fill="#000000" font-family="sans-serif" font-size="13" lengthAdjust="spacing" textLength="174.8652" x="741.5" y="860.6104">- Available types for the player</text></g><!--link BuyLocomotiveController to GMN15--><g id="link_BuyLocomotiveController_GMN15"><path d="M867.59,177 C872.75,177 875.83,177 875.83,177 C875.83,177 887.03,177 902.43,177 " fill="none" id="BuyLocomotiveController-GMN15" style="stroke:#181818;stroke-width:1.0;stroke-dasharray:7.0,7.0;"/></g><!--link BuyLocomotiveUI to BuyLocomotiveController--><g id="link_BuyLocomotiveUI_BuyLocomotiveController"><path codeLine="126" d="M646.5,55.14 C646.5,71.59 646.5,88.5 646.5,109.95 " fill="none" id="BuyLocomotiveUI-to-BuyLocomotiveController" style="stroke:#181818;stroke-width:1.0;stroke-dasharray:7.0,7.0;"/><polygon fill="#181818" points="646.5,115.95,650.5,106.95,646.5,110.95,642.5,106.95,646.5,115.95" style="stroke:#181818;stroke-width:1.0;"/></g><!--link BuyLocomotiveController to ApplicationSession--><g id="link_BuyLocomotiveController_ApplicationSession"><path codeLine="128" d="M534.66,238.01 C487.11,263.53 437.5168,290.1429 391.9368,314.6029 " fill="none" id="BuyLocomotiveController-to-ApplicationSession" style="stroke:#181818;stroke-width:1.0;stroke-dasharray:7.0,7.0;"/><polygon fill="#181818" points="386.65,317.44,396.4717,316.7089,391.0557,315.0757,392.6888,309.6597,386.65,317.44" style="stroke:#181818;stroke-width:1.0;"/></g><!--link BuyLocomotiveController to UserSession--><g id="link_BuyLocomotiveController_UserSession"><path codeLine="129" d="M605.81,238.03 C594.62,254.54 585.5,268 585.5,268 C585.5,268 504.5,440 504.5,440 C504.5,440 474.217,474.6711 439.847,514.0211 " fill="none" id="BuyLocomotiveController-to-UserSession" style="stroke:#181818;stroke-width:1.0;stroke-dasharray:7.0,7.0;"/><polygon fill="#181818" points="435.9,518.54,444.8332,514.3929,439.1892,514.7742,438.8079,509.1302,435.9,518.54" style="stroke:#181818;stroke-width:1.0;"/></g><!--link BuyLocomotiveController to Locomotive--><g id="link_BuyLocomotiveController_Locomotive"><path codeLine="130" d="M657.84,238.01 C668.39,293.85 682.5,368.5 682.5,368.5 C682.5,368.5 682.5,368.5 682.5,1068.5 C682.5,1068.5 721.1295,1137.8188 762.2695,1211.6488 " fill="none" id="BuyLocomotiveController-to-Locomotive" style="stroke:#181818;stroke-width:1.0;stroke-dasharray:7.0,7.0;"/><polygon fill="#181818" points="765.19,1216.89,764.3033,1207.0811,762.7562,1212.5223,757.315,1210.9752,765.19,1216.89" style="stroke:#181818;stroke-width:1.0;"/></g><!--link BuyLocomotiveController to LocomotiveRepository--><g id="link_BuyLocomotiveController_LocomotiveRepository"><path codeLine="131" d="M687.85,238.03 C699.23,254.54 708.5,268 708.5,268 C708.5,268 789.5,440 789.5,440 C789.5,440 860.5036,505.5976 911.1636,552.4176 " fill="none" id="BuyLocomotiveController-to-LocomotiveRepository" style="stroke:#181818;stroke-width:1.0;stroke-dasharray:7.0,7.0;"/><polygon fill="#181818" points="915.57,556.49,911.6754,547.4439,911.898,553.0964,906.2456,553.319,915.57,556.49" style="stroke:#181818;stroke-width:1.0;"/></g><!--link BuyLocomotiveController to Repositories--><g id="link_BuyLocomotiveController_Repositories"><path codeLine="132" d="M750.15,238.01 C783.58,257.37 815.7178,275.9832 850.2378,295.9732 " fill="none" id="BuyLocomotiveController-to-Repositories" style="stroke:#181818;stroke-width:1.0;stroke-dasharray:7.0,7.0;"/><polygon fill="#181818" points="855.43,298.98,849.6461,291.0084,851.1031,296.4744,845.6371,297.9314,855.43,298.98" style="stroke:#181818;stroke-width:1.0;"/></g><!--link BuyLocomotiveController to Player--><g id="link_BuyLocomotiveController_Player"><path codeLine="133" d="M637.94,238.43 C619.05,371.68 575.5,679 575.5,679 C575.5,679 540.7891,713.9339 501.6891,753.2839 " fill="none" id="BuyLocomotiveController-to-Player" style="stroke:#181818;stroke-width:1.0;stroke-dasharray:7.0,7.0;"/><polygon fill="#181818" points="497.46,757.54,506.6411,753.9752,500.9842,753.9932,500.9662,748.3364,497.46,757.54" style="stroke:#181818;stroke-width:1.0;"/></g><!--link Repositories to Repositories--><g id="link_Repositories_Repositories"><path codeLine="135" d="M1144.73,353.22 C1165.72,356.12 1179.5,361.54 1179.5,369.5 C1179.5,377.46 1171.6635,382.0588 1150.6735,384.9588 " fill="none" id="Repositories-to-Repositories" style="stroke:#181818;stroke-width:1.0;"/><polygon fill="#181818" points="1144.73,385.78,1154.1928,388.5106,1149.683,385.0957,1153.0979,380.5859,1144.73,385.78" style="stroke:#181818;stroke-width:1.0;"/><text fill="#000000" font-family="sans-serif" font-size="13" lengthAdjust="spacing" textLength="48.4199" x="1185.5" y="375.0283">instance</text><text fill="#000000" font-family="sans-serif" font-size="13" lengthAdjust="spacing" textLength="7.23" x="1152.0293" y="349.2068">1</text><text fill="#000000" font-family="sans-serif" font-size="13" lengthAdjust="spacing" textLength="7.23" x="1152.0293" y="383.1405">1</text></g><!--link Repositories to LocomotiveRepository--><g id="link_Repositories_LocomotiveRepository"><path codeLine="136" d="M970.9,440.3 C968.39,478.31 965.7753,518.073 963.6353,550.483 " fill="none" id="Repositories-to-LocomotiveRepository" style="stroke:#181818;stroke-width:1.0;"/><polygon fill="#181818" points="963.24,556.47,967.8243,547.7531,963.5694,551.4809,959.8417,547.226,963.24,556.47" style="stroke:#181818;stroke-width:1.0;"/><text fill="#000000" font-family="sans-serif" font-size="13" lengthAdjust="spacing" textLength="124.2744" x="969.5" y="485.0283">locomotiveRepository</text><text fill="#000000" font-family="sans-serif" font-size="13" lengthAdjust="spacing" textLength="7.23" x="963.1312" y="462.1435">1</text><text fill="#000000" font-family="sans-serif" font-size="13" lengthAdjust="spacing" textLength="7.23" x="956.125" y="545.3693">1</text></g><!--link ApplicationSession to ApplicationSession--><g id="link_ApplicationSession_ApplicationSession"><path codeLine="138" d="M409.54,351.92 C430.16,354.27 444.5,360.12 444.5,369.5 C444.5,378.88 436.1214,384.0506 415.5014,386.4006 " fill="none" id="ApplicationSession-to-ApplicationSession" style="stroke:#181818;stroke-width:1.0;"/><polygon fill="#181818" points="409.54,387.08,418.9351,390.0352,414.5078,386.5138,418.0292,382.0866,409.54,387.08" style="stroke:#181818;stroke-width:1.0;"/><text fill="#000000" font-family="sans-serif" font-size="13" lengthAdjust="spacing" textLength="48.4199" x="450.5" y="375.0283">instance</text><text fill="#000000" font-family="sans-serif" font-size="13" lengthAdjust="spacing" textLength="7.23" x="418.0768" y="347.1296">1</text><text fill="#000000" font-family="sans-serif" font-size="13" lengthAdjust="spacing" textLength="7.23" x="418.0768" y="384.7618">1</text></g><!--link ApplicationSession to UserSession--><g id="link_ApplicationSession_UserSession"><path codeLine="139" d="M308.33,421.56 C317.79,450.25 327.9212,480.9718 338.5712,513.2718 " fill="none" id="ApplicationSession-to-UserSession" style="stroke:#181818;stroke-width:1.0;stroke-dasharray:7.0,7.0;"/><polygon fill="#181818" points="340.45,518.97,341.4306,509.1701,338.8843,514.2215,333.8329,511.6752,340.45,518.97" style="stroke:#181818;stroke-width:1.0;"/><text fill="#000000" font-family="sans-serif" font-size="13" lengthAdjust="spacing" textLength="86.709" x="330.5" y="485.0283">currentSession</text><text fill="#000000" font-family="sans-serif" font-size="13" lengthAdjust="spacing" textLength="7.23" x="330.7555" y="507.863">1</text></g><!--link LocomotiveRepository to Locomotive--><g id="link_LocomotiveRepository_Locomotive"><path codeLine="141" d="M959.06,641.57 C956.08,727.77 949.5,918 949.5,918 C949.5,918 911.0714,1081.7088 880.7114,1211.0188 " fill="none" id="LocomotiveRepository-to-Locomotive" style="stroke:#181818;stroke-width:1.0;stroke-dasharray:7.0,7.0;"/><polygon fill="#181818" points="879.34,1216.86,885.2912,1209.0125,880.4828,1211.9924,877.503,1207.184,879.34,1216.86" style="stroke:#181818;stroke-width:1.0;"/><text fill="#000000" font-family="sans-serif" font-size="13" lengthAdjust="spacing" textLength="68.6372" x="942.5" y="963.0283">locomotives</text><text fill="#000000" font-family="sans-serif" font-size="13" lengthAdjust="spacing" textLength="5.0591" x="875.9518" y="1205.9718">*</text></g><!--link Locomotive to LocomotiveType--><g id="link_Locomotive_LocomotiveType"><path codeLine="143" d="M845.5,1507.37 C845.5,1545.58 845.5,1578.37 845.5,1607.9 " fill="none" id="Locomotive-to-LocomotiveType" style="stroke:#181818;stroke-width:1.0;"/><polygon fill="#181818" points="845.5,1613.9,849.5,1604.9,845.5,1608.9,841.5,1604.9,845.5,1613.9" style="stroke:#181818;stroke-width:1.0;"/><text fill="#000000" font-family="sans-serif" font-size="13" lengthAdjust="spacing" textLength="24.5718" x="846.5" y="1552.0283">type</text><text fill="#000000" font-family="sans-serif" font-size="13" lengthAdjust="spacing" textLength="7.23" x="838.0642" y="1602.8139">1</text></g><!--link Carriage to CargoType--><g id="link_Carriage_CargoType"><path codeLine="145" d="M181.5,1423.03 C181.5,1469.73 181.5,1528.94 181.5,1579.9 " fill="none" id="Carriage-to-CargoType" style="stroke:#181818;stroke-width:1.0;"/><polygon fill="#181818" points="181.5,1585.9,185.5,1576.9,181.5,1580.9,177.5,1576.9,181.5,1585.9" style="stroke:#181818;stroke-width:1.0;"/><text fill="#000000" font-family="sans-serif" font-size="13" lengthAdjust="spacing" textLength="24.5718" x="182.5" y="1552.0283">type</text><text fill="#000000" font-family="sans-serif" font-size="13" lengthAdjust="spacing" textLength="7.23" x="174.166" y="1574.7865">1</text></g><!--link UserSession to Player--><g id="link_UserSession_Player"><path codeLine="147" d="M383.89,679.25 C389.44,704.55 394.2944,726.6694 399.8444,751.9694 " fill="none" id="UserSession-to-Player" style="stroke:#181818;stroke-width:1.0;"/><polygon fill="#181818" points="401.13,757.83,403.1086,748.1819,400.0586,752.9461,395.2945,749.8961,401.13,757.83" style="stroke:#181818;stroke-width:1.0;"/><text fill="#000000" font-family="sans-serif" font-size="13" lengthAdjust="spacing" textLength="35.4072" x="395.5" y="724.0283">player</text><text fill="#000000" font-family="sans-serif" font-size="13" lengthAdjust="spacing" textLength="7.23" x="392.2076" y="746.7101">1</text></g><!--link Player to Train--><g id="link_Player_Train"><path codeLine="149" d="M361.37,918.25 C342.98,943.77 326.2386,966.9828 308.3686,991.7728 " fill="none" id="Player-to-Train" style="stroke:#181818;stroke-width:1.0;"/><polygon fill="#181818" points="304.86,996.64,313.3677,991.6782,307.7838,992.584,306.878,987.0001,304.86,996.64" style="stroke:#181818;stroke-width:1.0;"/><text fill="#000000" font-family="sans-serif" font-size="13" lengthAdjust="spacing" textLength="31.7891" x="337.5" y="963.0283">trains</text><text fill="#000000" font-family="sans-serif" font-size="13" lengthAdjust="spacing" textLength="7.23" x="349.3505" y="939.6513">1</text><text fill="#000000" font-family="sans-serif" font-size="13" lengthAdjust="spacing" textLength="5.0591" x="304.7996" y="985.4939">*</text></g><!--link Train to Locomotive--><g id="link_Train_Locomotive"><path codeLine="151" d="M394.93,1138 C443.07,1161.83 493.4825,1186.7788 549.0725,1214.2888 " fill="none" id="Train-to-Locomotive" style="stroke:#181818;stroke-width:1.0;"/><polygon fill="#181818" points="554.45,1216.95,548.1578,1209.3732,549.9687,1214.7323,544.6095,1216.5432,554.45,1216.95" style="stroke:#181818;stroke-width:1.0;"/><text fill="#000000" font-family="sans-serif" font-size="13" lengthAdjust="spacing" textLength="62.1372" x="481.5" y="1183.0283">locomotive</text><text fill="#000000" font-family="sans-serif" font-size="13" lengthAdjust="spacing" textLength="7.23" x="402.0637" y="1160.1848">1</text><text fill="#000000" font-family="sans-serif" font-size="13" lengthAdjust="spacing" textLength="7.23" x="531.3421" y="1205.587">1</text></g><!--link Train to Carriage--><g id="link_Train_Carriage"><path codeLine="152" d="M237.11,1138.19 C224.75,1187.7 209.7829,1247.6886 197.9929,1294.9286 " fill="none" id="Train-to-Carriage" style="stroke:#181818;stroke-width:1.0;"/><polygon fill="#181818" points="196.54,1300.75,202.6003,1292.9864,197.7507,1295.8988,194.8384,1291.0493,196.54,1300.75" style="stroke:#181818;stroke-width:1.0;"/><text fill="#000000" font-family="sans-serif" font-size="13" lengthAdjust="spacing" textLength="53.4663" x="230.5" y="1183.0283">carriages</text><text fill="#000000" font-family="sans-serif" font-size="13" lengthAdjust="spacing" textLength="7.23" x="228.0659" y="1160.0227">1</text><text fill="#000000" font-family="sans-serif" font-size="13" lengthAdjust="spacing" textLength="5.0591" x="192.9832" y="1289.7023">*</text></g><!--link RailwayNetwork to Train--><g id="link_RailwayNetwork_Train"><path codeLine="154" d="M140.99,880.73 C160.82,913.18 185.6423,953.7997 208.8423,991.7797 " fill="none" id="RailwayNetwork-to-Train" style="stroke:#181818;stroke-width:1.0;"/><polygon fill="#181818" points="211.97,996.9,210.6919,987.1344,209.3636,992.6331,203.8649,991.3047,211.97,996.9" style="stroke:#181818;stroke-width:1.0;"/><text fill="#000000" font-family="sans-serif" font-size="13" lengthAdjust="spacing" textLength="31.7891" x="194.5" y="963.0283">trains</text><text fill="#000000" font-family="sans-serif" font-size="13" lengthAdjust="spacing" textLength="7.23" x="137.5089" y="902.927">1</text><text fill="#000000" font-family="sans-serif" font-size="13" lengthAdjust="spacing" textLength="5.0591" x="202.3303" y="985.7807">*</text></g><!--SRC=[dLPVR-8u47_tfx3wKjZ2wkuLdP1ebfwGsBO2kgydanYmQkp8Tbfng_tkDt7is4aTzdPv8Px_lvdnZ6_rAnCbKUICprB8_AJacMAZAee2foJvApdIhRbmYXND3H577Wle4odaEnD7V21SnnpE13MNak9IyajzGBS9fbH6eaWhvqJhXJ6AxIj3LxaKM_OlnNyWTClfmM0ZiMB7ay45gyDXKY1aTV2YB3dBIKtQKgtX3tz767xJ16iqjgmx_5qReES_y96QbO23oEbeZ6S97QS1Wbcb51McjGNYBvegB_V3XnGHsrXAJYvKWSQp_N3KlB7uXHWAhFhlWxUQQ5r5tAeiu71V5I0s8cTP2GC2XQpsd8xRhs2gyMcjHExlC2cAjSpbMHhsHdVoWLEmnriAY0TshRoNabCI8MsijI1P0K9RAA8uEeeWPzgd7IfHw6wKKsX0maHDNJDj_jhLfpdw7RWTJDV0M1y1YZrUGJ9WoHUIACNWnhG8CaUOMm4Nc_KnYcnFXioE0nflQUHzWA2d9OiIhFnYOUpDZAFO0S7thtotxTifcYufBVh4Kh6SzedaZJ1EuFm0uoPkveZr8WpZCS_b82fd9tKT29Dqz9DUu9DUp9DUk9Daf9DqaEFeXjLMHgcxLqTX6OcqMe55xB1_qsE-THq4eDvKLEUUNLVoxMwv-6g_lgoMs-NQVYxNosotMMMXLNmVNMaKwBgZt3MvpVntN9wsFpl5IQf52Mjf5b0mx56r51VQysAxNJx-lTnixV7hOjLWofuMpSTgy_JupzDcwU4xpDa2D19NOqDBgPcHwk8ST7CT1FNeuv0U-riUnER1I23UNrP5D89M8K7TXWW1jc4n62M-ACskmipjAL2DnJxCfmZQB8auL6_QiVJpxVZ1RmzmyD5h-SXvY_M-kWI1J0gZ9EVjDhaRue_6FwdNbUhiOvF3bV4ZjKdH6-6iNa3FbSfFHDDHRvSF3_7KTEwWUba1sb1y0FDEBe_Kl4lrsfO_kHgZ2mWxebaiLj1ljfvp8Q5xcoUKF0obrXhyvk1gp0x-sGAm6szKoEfuSYly81KkNLBWrXQuTk9SxQKnC3_1rs07FZ1kgD9HzZJUWwa2Ip5psDqZ2DS1mGN0EgU2A2Rz2y_Ntqx_9Y9peYxiAAP-rZz_dWyc0GqrPgsKU1zU4u_VXzVaebdm_yIYN5vJw5pOQuBkNOWw0-ZcpniydSxjVuSnQuVHiC8wFP1ISmgXn2i-jfLWHo4ak3MaMZ5-Yi_ySziN12L3jAgVulWxKUjOBG7MxRow7n5gzwkNowArs8Z44NgfPpzWN1yZHsXJ0k7jt6LlfWD2pJbTW0w0lkIdc_0Cc8M7BBH2TnmDE_yF]--></g></svg>