<svg xmlns="http://www.w3.org/2000/svg" xmlns:xlink="http://www.w3.org/1999/xlink" contentStyleType="text/css" height="929px" preserveAspectRatio="none" style="width:1320px;height:929px;background:#FFFFFF;" version="1.1" viewBox="0 0 1320 929" width="1320px" zoomAndPan="magnify"><defs/><g><rect fill="#FFFFFF" height="764.6543" style="stroke:#181818;stroke-width:1.0;" width="10" x="199.3062" y="90.5332"/><rect fill="#FFFFFF" height="31.291" style="stroke:#181818;stroke-width:1.0;" width="10" x="475.7622" y="148.1152"/><rect fill="#FFFFFF" height="31.291" style="stroke:#181818;stroke-width:1.0;" width="10" x="579.5205" y="210.6973"/><rect fill="#FFFFFF" height="31.291" style="stroke:#181818;stroke-width:1.0;" width="10" x="715.5718" y="273.2793"/><rect fill="#FFFFFF" height="31.291" style="stroke:#181818;stroke-width:1.0;" width="10" x="869.9194" y="335.8613"/><rect fill="#FFFFFF" height="31.291" style="stroke:#181818;stroke-width:1.0;" width="10" x="1014.1602" y="398.4434"/><rect fill="#FFFFFF" height="31.291" style="stroke:#181818;stroke-width:1.0;" width="10" x="1145.9424" y="461.0254"/><rect fill="#FFFFFF" height="31.291" style="stroke:#181818;stroke-width:1.0;" width="10" x="1145.9424" y="723.0234"/><rect fill="#FFFFFF" height="31.291" style="stroke:#181818;stroke-width:1.0;" width="10" x="1145.9424" y="785.6055"/><rect fill="#FFFFFF" height="31.291" style="stroke:#181818;stroke-width:1.0;" width="10" x="1254.373" y="523.6074"/><rect fill="none" height="719.3633" style="stroke:#000000;stroke-width:1.5;" width="1206.9561" x="107.1582" y="105.5332"/><line style="stroke:#181818;stroke-width:0.5;stroke-dasharray:5.0,5.0;" x1="204.1582" x2="204.1582" y1="57.2422" y2="873.1875"/><line style="stroke:#181818;stroke-width:0.5;stroke-dasharray:5.0,5.0;" x1="479.8555" x2="479.8555" y1="57.2422" y2="873.1875"/><line style="stroke:#181818;stroke-width:0.5;stroke-dasharray:5.0,5.0;" x1="583.6689" x2="583.6689" y1="57.2422" y2="873.1875"/><line style="stroke:#181818;stroke-width:0.5;stroke-dasharray:5.0,5.0;" x1="720.3721" x2="720.3721" y1="57.2422" y2="873.1875"/><line style="stroke:#181818;stroke-width:0.5;stroke-dasharray:5.0,5.0;" x1="874.7715" x2="874.7715" y1="57.2422" y2="873.1875"/><line style="stroke:#181818;stroke-width:0.5;stroke-dasharray:5.0,5.0;" x1="1019.0674" x2="1019.0674" y1="57.2422" y2="873.1875"/><line style="stroke:#181818;stroke-width:0.5;stroke-dasharray:5.0,5.0;" x1="1150.2529" x2="1150.2529" y1="57.2422" y2="873.1875"/><line style="stroke:#181818;stroke-width:0.5;stroke-dasharray:5.0,5.0;" x1="1258.6318" x2="1258.6318" y1="57.2422" y2="873.1875"/><rect fill="#E3E3E3" height="32.6211" rx="2.5" ry="2.5" style="stroke:#181818;stroke-width:0.5;" width="174.2959" x="117.1582" y="23.6211"/><text fill="#000000" font-family="sans-serif" font-size="14" lengthAdjust="spacing" textLength="160.2959" x="124.1582" y="45.7285">:BuyLocomotiveController</text><rect fill="#E3E3E3" height="32.6211" rx="2.5" ry="2.5" style="stroke:#181818;stroke-width:0.5;" width="174.2959" x="117.1582" y="872.1875"/><text fill="#000000" font-family="sans-serif" font-size="14" lengthAdjust="spacing" textLength="160.2959" x="124.1582" y="894.2949">:BuyLocomotiveController</text><rect fill="#E3E3E3" height="32.6211" rx="2.5" ry="2.5" style="stroke:#181818;stroke-width:0.5;" width="91.8135" x="434.8555" y="23.6211"/><text fill="#000000" font-family="sans-serif" font-size="14" lengthAdjust="spacing" textLength="77.8135" x="441.8555" y="45.7285">Repositories</text><rect fill="#E3E3E3" height="32.6211" rx="2.5" ry="2.5" style="stroke:#181818;stroke-width:0.5;" width="91.8135" x="434.8555" y="872.1875"/><text fill="#000000" font-family="sans-serif" font-size="14" lengthAdjust="spacing" textLength="77.8135" x="441.8555" y="894.2949">Repositories</text><rect fill="#E3E3E3" height="51.2422" rx="2.5" ry="2.5" style="stroke:#181818;stroke-width:0.5;" width="95.7031" x="536.6689" y="5"/><text fill="#000000" font-family="sans-serif" font-size="14" lengthAdjust="spacing" textLength="72.3652" x="548.3379" y="27.1074">repositories</text><text fill="#000000" font-family="sans-serif" font-size="14" lengthAdjust="spacing" textLength="81.7031" x="543.6689" y="45.7285">:Repositories</text><rect fill="#E3E3E3" height="51.2422" rx="2.5" ry="2.5" style="stroke:#181818;stroke-width:0.5;" width="95.7031" x="536.6689" y="872.1875"/><text fill="#000000" font-family="sans-serif" font-size="14" lengthAdjust="spacing" textLength="72.3652" x="548.3379" y="894.2949">repositories</text><text fill="#000000" font-family="sans-serif" font-size="14" lengthAdjust="spacing" textLength="81.7031" x="543.6689" y="912.916">:Repositories</text><rect fill="#E3E3E3" height="51.2422" rx="2.5" ry="2.5" style="stroke:#181818;stroke-width:0.5;" width="156.3994" x="642.3721" y="5"/><text fill="#000000" font-family="sans-serif" font-size="14" lengthAdjust="spacing" textLength="133.834" x="653.6548" y="27.1074">locomotiveRepository</text><text fill="#000000" font-family="sans-serif" font-size="14" lengthAdjust="spacing" textLength="142.3994" x="649.3721" y="45.7285">:LocomotiveRepository</text><rect fill="#E3E3E3" height="51.2422" rx="2.5" ry="2.5" style="stroke:#181818;stroke-width:0.5;" width="156.3994" x="642.3721" y="872.1875"/><text fill="#000000" font-family="sans-serif" font-size="14" lengthAdjust="spacing" textLength="133.834" x="653.6548" y="894.2949">locomotiveRepository</text><text fill="#000000" font-family="sans-serif" font-size="14" lengthAdjust="spacing" textLength="142.3994" x="649.3721" y="912.916">:LocomotiveRepository</text><rect fill="#E3E3E3" height="32.6211" rx="2.5" ry="2.5" style="stroke:#181818;stroke-width:0.5;" width="132.2959" x="808.7715" y="23.6211"/><text fill="#000000" font-family="sans-serif" font-size="14" lengthAdjust="spacing" textLength="118.2959" x="815.7715" y="45.7285">ApplicationSession</text><rect fill="#E3E3E3" height="32.6211" rx="2.5" ry="2.5" style="stroke:#181818;stroke-width:0.5;" width="132.2959" x="808.7715" y="872.1875"/><text fill="#000000" font-family="sans-serif" font-size="14" lengthAdjust="spacing" textLength="118.2959" x="815.7715" y="894.2949">ApplicationSession</text><rect fill="#E3E3E3" height="51.2422" rx="2.5" ry="2.5" style="stroke:#181818;stroke-width:0.5;" width="136.1855" x="951.0674" y="5"/><text fill="#000000" font-family="sans-serif" font-size="14" lengthAdjust="spacing" textLength="73.165" x="982.5776" y="27.1074">appSession</text><text fill="#000000" font-family="sans-serif" font-size="14" lengthAdjust="spacing" textLength="122.1855" x="958.0674" y="45.7285">:ApplicationSession</text><rect fill="#E3E3E3" height="51.2422" rx="2.5" ry="2.5" style="stroke:#181818;stroke-width:0.5;" width="136.1855" x="951.0674" y="872.1875"/><text fill="#000000" font-family="sans-serif" font-size="14" lengthAdjust="spacing" textLength="73.165" x="982.5776" y="894.2949">appSession</text><text fill="#000000" font-family="sans-serif" font-size="14" lengthAdjust="spacing" textLength="122.1855" x="958.0674" y="912.916">:ApplicationSession</text><rect fill="#E3E3E3" height="51.2422" rx="2.5" ry="2.5" style="stroke:#181818;stroke-width:0.5;" width="107.3789" x="1097.2529" y="5"/><text fill="#000000" font-family="sans-serif" font-size="14" lengthAdjust="spacing" textLength="93.3789" x="1104.2529" y="27.1074">currentSession</text><text fill="#000000" font-family="sans-serif" font-size="14" lengthAdjust="spacing" textLength="83.2549" x="1109.3149" y="45.7285">:UserSession</text><rect fill="#E3E3E3" height="51.2422" rx="2.5" ry="2.5" style="stroke:#181818;stroke-width:0.5;" width="107.3789" x="1097.2529" y="872.1875"/><text fill="#000000" font-family="sans-serif" font-size="14" lengthAdjust="spacing" textLength="93.3789" x="1104.2529" y="894.2949">currentSession</text><text fill="#000000" font-family="sans-serif" font-size="14" lengthAdjust="spacing" textLength="83.2549" x="1109.3149" y="912.916">:UserSession</text><rect fill="#E3E3E3" height="51.2422" rx="2.5" ry="2.5" style="stroke:#181818;stroke-width:0.5;" width="89.4824" x="1214.6318" y="5"/><text fill="#000000" font-family="sans-serif" font-size="14" lengthAdjust="spacing" textLength="66.917" x="1225.9146" y="27.1074">locomotive</text><text fill="#000000" font-family="sans-serif" font-size="14" lengthAdjust="spacing" textLength="75.4824" x="1221.6318" y="45.7285">:Locomotive</text><rect fill="#E3E3E3" height="51.2422" rx="2.5" ry="2.5" style="stroke:#181818;stroke-width:0.5;" width="89.4824" x="1214.6318" y="872.1875"/><text fill="#000000" font-family="sans-serif" font-size="14" lengthAdjust="spacing" textLength="66.917" x="1225.9146" y="894.2949">locomotive</text><text fill="#000000" font-family="sans-serif" font-size="14" lengthAdjust="spacing" textLength="75.4824" x="1221.6318" y="912.916">:Locomotive</text><rect fill="#FFFFFF" height="764.6543" style="stroke:#181818;stroke-width:1.0;" width="10" x="199.3062" y="90.5332"/><rect fill="#FFFFFF" height="31.291" style="stroke:#181818;stroke-width:1.0;" width="10" x="475.7622" y="148.1152"/><rect fill="#FFFFFF" height="31.291" style="stroke:#181818;stroke-width:1.0;" width="10" x="579.5205" y="210.6973"/><rect fill="#FFFFFF" height="31.291" style="stroke:#181818;stroke-width:1.0;" width="10" x="715.5718" y="273.2793"/><rect fill="#FFFFFF" height="31.291" style="stroke:#181818;stroke-width:1.0;" width="10" x="869.9194" y="335.8613"/><rect fill="#FFFFFF" height="31.291" style="stroke:#181818;stroke-width:1.0;" width="10" x="1014.1602" y="398.4434"/><rect fill="#FFFFFF" height="31.291" style="stroke:#181818;stroke-width:1.0;" width="10" x="1145.9424" y="461.0254"/><rect fill="#FFFFFF" height="31.291" style="stroke:#181818;stroke-width:1.0;" width="10" x="1145.9424" y="723.0234"/><rect fill="#FFFFFF" height="31.291" style="stroke:#181818;stroke-width:1.0;" width="10" x="1145.9424" y="785.6055"/><rect fill="#FFFFFF" height="31.291" style="stroke:#181818;stroke-width:1.0;" width="10" x="1254.373" y="523.6074"/><polygon fill="#181818" points="187.3062,86.5332,197.3062,90.5332,187.3062,94.5332,191.3062,90.5332" style="stroke:#181818;stroke-width:1.0;"/><line style="stroke:#181818;stroke-width:1.0;" x1="0" x2="193.3062" y1="90.5332" y2="90.5332"/><text fill="#000000" font-family="sans-serif" font-size="13" font-weight="bold" lengthAdjust="spacing" textLength="7.23" x="7" y="85.2705">7</text><text fill="#000000" font-family="sans-serif" font-size="13" lengthAdjust="spacing" textLength="169.0762" x="18.23" y="85.2705">buyLocomotive(locomotiveId)</text><path d="M107.1582,105.5332 L310.3672,105.5332 L310.3672,114.8242 L300.3672,124.8242 L107.1582,124.8242 L107.1582,105.5332 " fill="#EEEEEE" style="stroke:#000000;stroke-width:1.5;"/><rect fill="none" height="719.3633" style="stroke:#000000;stroke-width:1.5;" width="1206.9561" x="107.1582" y="105.5332"/><text fill="#000000" font-family="sans-serif" font-size="13" font-weight="bold" lengthAdjust="spacing" textLength="158.209" x="122.1582" y="120.5615">Buy Selected Locomotive</text><polygon fill="#181818" points="463.7622,144.1152,473.7622,148.1152,463.7622,152.1152,467.7622,148.1152" style="stroke:#181818;stroke-width:1.0;"/><line style="stroke:#181818;stroke-width:1.0;" x1="209.3062" x2="469.7622" y1="148.1152" y2="148.1152"/><text fill="#000000" font-family="sans-serif" font-size="13" font-weight="bold" lengthAdjust="spacing" textLength="18.0718" x="216.3062" y="142.8525">7.1</text><text fill="#000000" font-family="sans-serif" font-size="13" lengthAdjust="spacing" textLength="75.8735" x="238.3779" y="142.8525">getInstance()</text><polygon fill="#181818" points="220.3062,175.4063,210.3062,179.4063,220.3062,183.4063,216.3062,179.4063" style="stroke:#181818;stroke-width:1.0;"/><line style="stroke:#181818;stroke-width:1.0;stroke-dasharray:2.0,2.0;" x1="214.3062" x2="479.7622" y1="179.4063" y2="179.4063"/><text fill="#000000" font-family="sans-serif" font-size="13" font-weight="bold" lengthAdjust="spacing" textLength="18.0718" x="226.3062" y="174.1436">7.2</text><text fill="#000000" font-family="sans-serif" font-size="13" lengthAdjust="spacing" textLength="67.1963" x="248.3779" y="174.1436">repositories</text><polygon fill="#181818" points="567.5205,206.6973,577.5205,210.6973,567.5205,214.6973,571.5205,210.6973" style="stroke:#181818;stroke-width:1.0;"/><line style="stroke:#181818;stroke-width:1.0;" x1="209.3062" x2="573.5205" y1="210.6973" y2="210.6973"/><text fill="#000000" font-family="sans-serif" font-size="13" font-weight="bold" lengthAdjust="spacing" textLength="18.0718" x="216.3062" y="205.4346">7.3</text><text fill="#000000" font-family="sans-serif" font-size="13" lengthAdjust="spacing" textLength="155.3462" x="238.3779" y="205.4346">getLocomotiveRepository()</text><polygon fill="#181818" points="220.3062,237.9883,210.3062,241.9883,220.3062,245.9883,216.3062,241.9883" style="stroke:#181818;stroke-width:1.0;"/><line style="stroke:#181818;stroke-width:1.0;stroke-dasharray:2.0,2.0;" x1="214.3062" x2="583.5205" y1="241.9883" y2="241.9883"/><text fill="#000000" font-family="sans-serif" font-size="13" font-weight="bold" lengthAdjust="spacing" textLength="18.0718" x="226.3062" y="236.7256">7.4</text><text fill="#000000" font-family="sans-serif" font-size="13" lengthAdjust="spacing" textLength="124.2744" x="248.3779" y="236.7256">locomotiveRepository</text><polygon fill="#181818" points="703.5718,269.2793,713.5718,273.2793,703.5718,277.2793,707.5718,273.2793" style="stroke:#181818;stroke-width:1.0;"/><line style="stroke:#181818;stroke-width:1.0;" x1="209.3062" x2="709.5718" y1="273.2793" y2="273.2793"/><text fill="#000000" font-family="sans-serif" font-size="13" font-weight="bold" lengthAdjust="spacing" textLength="18.0718" x="216.3062" y="268.0166">7.5</text><text fill="#000000" font-family="sans-serif" font-size="13" lengthAdjust="spacing" textLength="192.2007" x="238.3779" y="268.0166">getLocomotiveById(locomotiveId)</text><polygon fill="#181818" points="220.3062,300.5703,210.3062,304.5703,220.3062,308.5703,216.3062,304.5703" style="stroke:#181818;stroke-width:1.0;"/><line style="stroke:#181818;stroke-width:1.0;stroke-dasharray:2.0,2.0;" x1="214.3062" x2="719.5718" y1="304.5703" y2="304.5703"/><text fill="#000000" font-family="sans-serif" font-size="13" font-weight="bold" lengthAdjust="spacing" textLength="18.0718" x="226.3062" y="299.3076">7.6</text><text fill="#000000" font-family="sans-serif" font-size="13" lengthAdjust="spacing" textLength="62.1372" x="248.3779" y="299.3076">locomotive</text><polygon fill="#181818" points="857.9194,331.8613,867.9194,335.8613,857.9194,339.8613,861.9194,335.8613" style="stroke:#181818;stroke-width:1.0;"/><line style="stroke:#181818;stroke-width:1.0;" x1="209.3062" x2="863.9194" y1="335.8613" y2="335.8613"/><text fill="#000000" font-family="sans-serif" font-size="13" font-weight="bold" lengthAdjust="spacing" textLength="18.0718" x="216.3062" y="330.5986">7.7</text><text fill="#000000" font-family="sans-serif" font-size="13" lengthAdjust="spacing" textLength="75.8735" x="238.3779" y="330.5986">getInstance()</text><polygon fill="#181818" points="220.3062,363.1523,210.3062,367.1523,220.3062,371.1523,216.3062,367.1523" style="stroke:#181818;stroke-width:1.0;"/><line style="stroke:#181818;stroke-width:1.0;stroke-dasharray:2.0,2.0;" x1="214.3062" x2="873.9194" y1="367.1523" y2="367.1523"/><text fill="#000000" font-family="sans-serif" font-size="13" font-weight="bold" lengthAdjust="spacing" textLength="18.0718" x="226.3062" y="361.8896">7.8</text><text fill="#000000" font-family="sans-serif" font-size="13" lengthAdjust="spacing" textLength="67.939" x="248.3779" y="361.8896">appSession</text><polygon fill="#181818" points="1002.1602,394.4434,1012.1602,398.4434,1002.1602,402.4434,1006.1602,398.4434" style="stroke:#181818;stroke-width:1.0;"/><line style="stroke:#181818;stroke-width:1.0;" x1="209.3062" x2="1008.1602" y1="398.4434" y2="398.4434"/><text fill="#000000" font-family="sans-serif" font-size="13" font-weight="bold" lengthAdjust="spacing" textLength="18.0718" x="216.3062" y="393.1807">7.9</text><text fill="#000000" font-family="sans-serif" font-size="13" lengthAdjust="spacing" textLength="116.3271" x="238.3779" y="393.1807">getCurrentSession()</text><polygon fill="#181818" points="220.3062,425.7344,210.3062,429.7344,220.3062,433.7344,216.3062,429.7344" style="stroke:#181818;stroke-width:1.0;"/><line style="stroke:#181818;stroke-width:1.0;stroke-dasharray:2.0,2.0;" x1="214.3062" x2="1018.1602" y1="429.7344" y2="429.7344"/><text fill="#000000" font-family="sans-serif" font-size="13" font-weight="bold" lengthAdjust="spacing" textLength="25.3018" x="226.3062" y="424.4717">7.10</text><text fill="#000000" font-family="sans-serif" font-size="13" lengthAdjust="spacing" textLength="86.709" x="255.6079" y="424.4717">currentSession</text><polygon fill="#181818" points="1133.9424,457.0254,1143.9424,461.0254,1133.9424,465.0254,1137.9424,461.0254" style="stroke:#181818;stroke-width:1.0;"/><line style="stroke:#181818;stroke-width:1.0;" x1="209.3062" x2="1139.9424" y1="461.0254" y2="461.0254"/><text fill="#000000" font-family="sans-serif" font-size="13" font-weight="bold" lengthAdjust="spacing" textLength="25.3018" x="216.3062" y="455.7627">7.11</text><text fill="#000000" font-family="sans-serif" font-size="13" lengthAdjust="spacing" textLength="63.5781" x="245.6079" y="455.7627">getPlayer()</text><polygon fill="#181818" points="220.3062,488.3164,210.3062,492.3164,220.3062,496.3164,216.3062,492.3164" style="stroke:#181818;stroke-width:1.0;"/><line style="stroke:#181818;stroke-width:1.0;stroke-dasharray:2.0,2.0;" x1="214.3062" x2="1149.9424" y1="492.3164" y2="492.3164"/><text fill="#000000" font-family="sans-serif" font-size="13" font-weight="bold" lengthAdjust="spacing" textLength="25.3018" x="226.3062" y="487.0537">7.12</text><text fill="#000000" font-family="sans-serif" font-size="13" lengthAdjust="spacing" textLength="35.4072" x="255.6079" y="487.0537">player</text><polygon fill="#181818" points="1242.373,519.6074,1252.373,523.6074,1242.373,527.6074,1246.373,523.6074" style="stroke:#181818;stroke-width:1.0;"/><line style="stroke:#181818;stroke-width:1.0;" x1="209.3062" x2="1248.373" y1="523.6074" y2="523.6074"/><text fill="#000000" font-family="sans-serif" font-size="13" font-weight="bold" lengthAdjust="spacing" textLength="25.3018" x="216.3062" y="518.3447">7.13</text><text fill="#000000" font-family="sans-serif" font-size="13" lengthAdjust="spacing" textLength="56.3481" x="245.6079" y="518.3447">getPrice()</text><polygon fill="#181818" points="220.3062,550.8984,210.3062,554.8984,220.3062,558.8984,216.3062,554.8984" style="stroke:#181818;stroke-width:1.0;"/><line style="stroke:#181818;stroke-width:1.0;stroke-dasharray:2.0,2.0;" x1="214.3062" x2="1258.373" y1="554.8984" y2="554.8984"/><text fill="#000000" font-family="sans-serif" font-size="13" font-weight="bold" lengthAdjust="spacing" textLength="25.3018" x="226.3062" y="549.6357">7.14</text><text fill="#000000" font-family="sans-serif" font-size="13" lengthAdjust="spacing" textLength="28.1772" x="255.6079" y="549.6357">price</text><line style="stroke:#181818;stroke-width:1.0;" x1="209.3062" x2="251.3062" y1="586.1895" y2="586.1895"/><line style="stroke:#181818;stroke-width:1.0;" x1="251.3062" x2="251.3062" y1="586.1895" y2="599.1895"/><line style="stroke:#181818;stroke-width:1.0;" x1="210.3062" x2="251.3062" y1="599.1895" y2="599.1895"/><polygon fill="#181818" points="220.3062,595.1895,210.3062,599.1895,220.3062,603.1895,216.3062,599.1895" style="stroke:#181818;stroke-width:1.0;"/><text fill="#000000" font-family="sans-serif" font-size="13" font-weight="bold" lengthAdjust="spacing" textLength="25.3018" x="216.3062" y="580.9268">7.15</text><text fill="#000000" font-family="sans-serif" font-size="13" lengthAdjust="spacing" textLength="213.1543" x="245.6079" y="580.9268">validatePurchase(player, locomotive)</text><rect fill="none" height="43.252" style="stroke:#000000;stroke-width:1.5;" width="180.2959" x="114.1582" y="607.1895"/><path d="M114.1582,607.1895 L175.1582,607.1895 L175.1582,616.1895 L165.1582,626.1895 L114.1582,626.1895 L114.1582,607.1895 " fill="#EEEEEE" style="stroke:#000000;stroke-width:2.0;"/><text fill="#000000" font-family="sans-serif" font-size="13" font-weight="bold" lengthAdjust="spacing" textLength="16.6182" x="127.1582" y="623.2178">ref</text><text fill="#000000" font-family="sans-serif" font-size="12" lengthAdjust="spacing" textLength="97.3945" x="155.6089" y="643.1387">Validate Purchase</text><line style="stroke:#181818;stroke-width:1.0;stroke-dasharray:2.0,2.0;" x1="209.3062" x2="251.3062" y1="678.7324" y2="678.7324"/><line style="stroke:#181818;stroke-width:1.0;stroke-dasharray:2.0,2.0;" x1="251.3062" x2="251.3062" y1="678.7324" y2="691.7324"/><line style="stroke:#181818;stroke-width:1.0;stroke-dasharray:2.0,2.0;" x1="210.3062" x2="251.3062" y1="691.7324" y2="691.7324"/><polygon fill="#181818" points="220.3062,687.7324,210.3062,691.7324,220.3062,695.7324,216.3062,691.7324" style="stroke:#181818;stroke-width:1.0;"/><text fill="#000000" font-family="sans-serif" font-size="13" font-weight="bold" lengthAdjust="spacing" textLength="25.3018" x="216.3062" y="673.4697">7.16</text><text fill="#000000" font-family="sans-serif" font-size="13" lengthAdjust="spacing" textLength="96.8335" x="245.6079" y="673.4697">isValid (boolean)</text><polygon fill="#181818" points="1133.9424,719.0234,1143.9424,723.0234,1133.9424,727.0234,1137.9424,723.0234" style="stroke:#181818;stroke-width:1.0;"/><line style="stroke:#181818;stroke-width:1.0;" x1="209.3062" x2="1139.9424" y1="723.0234" y2="723.0234"/><text fill="#000000" font-family="sans-serif" font-size="13" font-weight="bold" lengthAdjust="spacing" textLength="25.3018" x="216.3062" y="717.7607">7.17</text><text fill="#000000" font-family="sans-serif" font-size="13" lengthAdjust="spacing" textLength="122.1289" x="245.6079" y="717.7607">updateBudget(-price)</text><polygon fill="#181818" points="220.3062,750.3145,210.3062,754.3145,220.3062,758.3145,216.3062,754.3145" style="stroke:#181818;stroke-width:1.0;"/><line style="stroke:#181818;stroke-width:1.0;stroke-dasharray:2.0,2.0;" x1="214.3062" x2="1149.9424" y1="754.3145" y2="754.3145"/><text fill="#000000" font-family="sans-serif" font-size="13" font-weight="bold" lengthAdjust="spacing" textLength="25.3018" x="226.3062" y="749.0518">7.18</text><text fill="#000000" font-family="sans-serif" font-size="13" lengthAdjust="spacing" textLength="65.0508" x="255.6079" y="749.0518">newBudget</text><polygon fill="#181818" points="1133.9424,781.6055,1143.9424,785.6055,1133.9424,789.6055,1137.9424,785.6055" style="stroke:#181818;stroke-width:1.0;"/><line style="stroke:#181818;stroke-width:1.0;" x1="209.3062" x2="1139.9424" y1="785.6055" y2="785.6055"/><text fill="#000000" font-family="sans-serif" font-size="13" font-weight="bold" lengthAdjust="spacing" textLength="25.3018" x="216.3062" y="780.3428">7.19</text><text fill="#000000" font-family="sans-serif" font-size="13" lengthAdjust="spacing" textLength="203.0361" x="245.6079" y="780.3428">addLocomotiveToFleet(locomotive)</text><polygon fill="#181818" points="220.3062,812.8965,210.3062,816.8965,220.3062,820.8965,216.3062,816.8965" style="stroke:#181818;stroke-width:1.0;"/><line style="stroke:#181818;stroke-width:1.0;stroke-dasharray:2.0,2.0;" x1="214.3062" x2="1149.9424" y1="816.8965" y2="816.8965"/><text fill="#000000" font-family="sans-serif" font-size="13" font-weight="bold" lengthAdjust="spacing" textLength="25.3018" x="226.3062" y="811.6338">7.20</text><text fill="#000000" font-family="sans-serif" font-size="13" lengthAdjust="spacing" textLength="46.96" x="255.6079" y="811.6338">success</text><polygon fill="#181818" points="11,851.1875,1,855.1875,11,859.1875,7,855.1875" style="stroke:#181818;stroke-width:1.0;"/><line style="stroke:#181818;stroke-width:1.0;stroke-dasharray:2.0,2.0;" x1="5" x2="203.3062" y1="855.1875" y2="855.1875"/><text fill="#000000" font-family="sans-serif" font-size="13" font-weight="bold" lengthAdjust="spacing" textLength="7.23" x="17" y="849.9248">8</text><text fill="#000000" font-family="sans-serif" font-size="13" lengthAdjust="spacing" textLength="46.96" x="28.23" y="849.9248">success</text><!--SRC=[hLLDR-8m5BpdLrWzWRHPgQTTeTLA1T5L91OGeJrLGiPv1Ql6Zco7Yd-_9g79ip4VX_MbLVnctZpFs9WFBakgwOxib5HigzKEYDKL9ARTAIdxe1l8xK40qS0ibHk12yoM5kgJomrvfy90ahZFbZDUKcd9ms1O7IQAgPsoV0yZ9QrMGe1-8DIGqN8nySiNK2h3hT8SJ5so6CzdkL-ZKSsR7CGXgpoR_fcCbxEf3nQjbXPtS2IJoEUQR38RpVxEbjdhU7NazScUob9mHYrNCWTZt9yQypIVh_9ndcTXSrgMfphNyZRuqWoiqXgaxQXU36ZCCNfPBCRJPLn4TmBUtC6qIK8hgsIrMuCcFvBqTsqM6P0rzhFNaML5tyTyVqmeSplKGcCqSMkZLLKIbmcIWt1XWe9qR7N5STMjNClQITTp0pQJnYMFGQ_VLhNiJKO8MWqmFQaU41oPjh20W27UltEXKHABoaLLoC8pVOYuKnhBvqN5YFrCUn3SKFlma1M1UsSJXDd74uJqQPSGSMue4XwIdWb75-2szVYgONcO14dhBc1C6YQx9YjCnCYxZpTaNaX4d1v9zo_z3VdNWX4y3iq8Sq4Fe6FImxS4YmwfaDoo9ep930cl9FUaJVEu-UYrYaVJ4tHakHx8o5ars3qLl72ryqgpBJNGQwRxXgBUxy0QtedQkoUmVVM-rkk9XtmHjRiWYoCkLD19uAO6azvQAG5Kkdw-5HVThSfZos5LkAFifVKnz3teNLRVi5l2PzF10ztZ-dNnj2YwDskfdWMu8V2f_-z1JCMOksBaxZcQIPn_pJ_e5_1d_U5NcWRS2QPpE_y0]--></g></svg>