<svg xmlns="http://www.w3.org/2000/svg" xmlns:xlink="http://www.w3.org/1999/xlink" contentStyleType="text/css" height="577px" preserveAspectRatio="none" style="width:675px;height:577px;background:#FFFFFF;" version="1.1" viewBox="0 0 675 577" width="675px" zoomAndPan="magnify"><defs/><g><rect fill="#FFFFFF" height="382.4531" style="stroke:#181818;stroke-width:1.0;" width="10" x="22.8413" y="93.6211"/><rect fill="#FFFFFF" height="185.7461" style="stroke:#181818;stroke-width:1.0;" width="10" x="365.0654" y="116.9121"/><rect fill="#FFFFFF" height="142.125" style="stroke:#181818;stroke-width:1.0;" width="10" x="365.0654" y="333.9492"/><rect fill="#FFFFFF" height="79.543" style="stroke:#181818;stroke-width:1.0;" width="10" x="574.3716" y="191.8242"/><rect fill="#FFFFFF" height="79.543" style="stroke:#181818;stroke-width:1.0;" width="10" x="574.3716" y="365.2402"/><line style="stroke:#181818;stroke-width:0.5;stroke-dasharray:5.0,5.0;" x1="27" x2="27" y1="83.6211" y2="494.0742"/><line style="stroke:#181818;stroke-width:0.5;stroke-dasharray:5.0,5.0;" x1="369.2622" x2="369.2622" y1="83.6211" y2="494.0742"/><line style="stroke:#181818;stroke-width:0.5;stroke-dasharray:5.0,5.0;" x1="579.2236" x2="579.2236" y1="156.7227" y2="494.0742"/><text fill="#000000" font-family="sans-serif" font-size="14" lengthAdjust="spacing" textLength="39.6826" x="5" y="80.1074">Player</text><ellipse cx="27.8413" cy="13.5" fill="#E3E3E3" rx="8" ry="8" style="stroke:#181818;stroke-width:0.5;"/><path d="M27.8413,21.5 L27.8413,48.5 M14.8413,29.5 L40.8413,29.5 M27.8413,48.5 L14.8413,63.5 M27.8413,48.5 L40.8413,63.5 " fill="none" style="stroke:#181818;stroke-width:0.5;"/><text fill="#000000" font-family="sans-serif" font-size="14" lengthAdjust="spacing" textLength="39.6826" x="5" y="508.1816">Player</text><ellipse cx="27.8413" cy="520.1953" fill="#E3E3E3" rx="8" ry="8" style="stroke:#181818;stroke-width:0.5;"/><path d="M27.8413,528.1953 L27.8413,555.1953 M14.8413,536.1953 L40.8413,536.1953 M27.8413,555.1953 L14.8413,570.1953 M27.8413,555.1953 L40.8413,570.1953 " fill="none" style="stroke:#181818;stroke-width:0.5;"/><rect fill="#E3E3E3" height="32.6211" rx="2.5" ry="2.5" style="stroke:#181818;stroke-width:0.5;" width="127.6064" x="306.2622" y="50"/><text fill="#000000" font-family="sans-serif" font-size="14" lengthAdjust="spacing" textLength="113.6064" x="313.2622" y="72.1074">:BuyLocomotiveUI</text><rect fill="#E3E3E3" height="32.6211" rx="2.5" ry="2.5" style="stroke:#181818;stroke-width:0.5;" width="127.6064" x="306.2622" y="493.0742"/><text fill="#000000" font-family="sans-serif" font-size="14" lengthAdjust="spacing" textLength="113.6064" x="313.2622" y="515.1816">:BuyLocomotiveUI</text><rect fill="#E3E3E3" height="32.6211" rx="2.5" ry="2.5" style="stroke:#181818;stroke-width:0.5;" width="174.2959" x="492.2236" y="493.0742"/><text fill="#000000" font-family="sans-serif" font-size="14" lengthAdjust="spacing" textLength="160.2959" x="499.2236" y="515.1816">:BuyLocomotiveController</text><rect fill="#FFFFFF" height="382.4531" style="stroke:#181818;stroke-width:1.0;" width="10" x="22.8413" y="93.6211"/><rect fill="#FFFFFF" height="185.7461" style="stroke:#181818;stroke-width:1.0;" width="10" x="365.0654" y="116.9121"/><rect fill="#FFFFFF" height="142.125" style="stroke:#181818;stroke-width:1.0;" width="10" x="365.0654" y="333.9492"/><rect fill="#FFFFFF" height="79.543" style="stroke:#181818;stroke-width:1.0;" width="10" x="574.3716" y="191.8242"/><rect fill="#FFFFFF" height="79.543" style="stroke:#181818;stroke-width:1.0;" width="10" x="574.3716" y="365.2402"/><polygon fill="#181818" points="353.0654,112.9121,363.0654,116.9121,353.0654,120.9121,357.0654,116.9121" style="stroke:#181818;stroke-width:1.0;"/><line style="stroke:#181818;stroke-width:1.0;" x1="32.8413" x2="359.0654" y1="116.9121" y2="116.9121"/><text fill="#000000" font-family="sans-serif" font-size="13" font-weight="bold" lengthAdjust="spacing" textLength="7.23" x="39.8413" y="111.6494">1</text><text fill="#000000" font-family="sans-serif" font-size="13" lengthAdjust="spacing" textLength="135.1099" x="51.0713" y="111.6494">requests locomotive list</text><polygon fill="#181818" points="480.2236,144.2031,490.2236,148.2031,480.2236,152.2031,484.2236,148.2031" style="stroke:#181818;stroke-width:1.0;"/><line style="stroke:#181818;stroke-width:1.0;stroke-dasharray:2.0,2.0;" x1="375.0654" x2="486.2236" y1="148.2031" y2="148.2031"/><text fill="#000000" font-family="sans-serif" font-size="13" font-weight="bold" lengthAdjust="spacing" textLength="7.23" x="382.0654" y="142.9404">2</text><text fill="#000000" font-family="sans-serif" font-size="13" lengthAdjust="spacing" textLength="44.7891" x="393.2954" y="142.9404">create()</text><rect fill="#E3E3E3" height="32.6211" rx="2.5" ry="2.5" style="stroke:#181818;stroke-width:0.5;" width="174.2959" x="492.2236" y="124.9121"/><text fill="#000000" font-family="sans-serif" font-size="14" lengthAdjust="spacing" textLength="160.2959" x="499.2236" y="147.0195">:BuyLocomotiveController</text><polygon fill="#181818" points="562.3716,187.8242,572.3716,191.8242,562.3716,195.8242,566.3716,191.8242" style="stroke:#181818;stroke-width:1.0;"/><line style="stroke:#181818;stroke-width:1.0;" x1="375.0654" x2="568.3716" y1="191.8242" y2="191.8242"/><text fill="#000000" font-family="sans-serif" font-size="13" font-weight="bold" lengthAdjust="spacing" textLength="7.23" x="382.0654" y="186.5615">3</text><text fill="#000000" font-family="sans-serif" font-size="13" lengthAdjust="spacing" textLength="152.4644" x="393.2954" y="186.5615">getAvailableLocomotives()</text><rect fill="none" height="43.252" style="stroke:#000000;stroke-width:1.5;" width="180.2959" x="489.2236" y="199.8242"/><path d="M489.2236,199.8242 L550.2236,199.8242 L550.2236,208.8242 L540.2236,218.8242 L489.2236,218.8242 L489.2236,199.8242 " fill="#EEEEEE" style="stroke:#000000;stroke-width:2.0;"/><text fill="#000000" font-family="sans-serif" font-size="13" font-weight="bold" lengthAdjust="spacing" textLength="16.6182" x="502.2236" y="215.8525">ref</text><text fill="#000000" font-family="sans-serif" font-size="12" lengthAdjust="spacing" textLength="142.0723" x="508.3354" y="235.7734">Get Available Locomotives</text><polygon fill="#181818" points="386.0654,267.3672,376.0654,271.3672,386.0654,275.3672,382.0654,271.3672" style="stroke:#181818;stroke-width:1.0;"/><line style="stroke:#181818;stroke-width:1.0;stroke-dasharray:2.0,2.0;" x1="380.0654" x2="578.3716" y1="271.3672" y2="271.3672"/><text fill="#000000" font-family="sans-serif" font-size="13" font-weight="bold" lengthAdjust="spacing" textLength="7.23" x="392.0654" y="266.1045">4</text><text fill="#000000" font-family="sans-serif" font-size="13" lengthAdjust="spacing" textLength="144.5234" x="403.2954" y="266.1045">availableLocomotivesList</text><polygon fill="#181818" points="43.8413,298.6582,33.8413,302.6582,43.8413,306.6582,39.8413,302.6582" style="stroke:#181818;stroke-width:1.0;"/><line style="stroke:#181818;stroke-width:1.0;stroke-dasharray:2.0,2.0;" x1="37.8413" x2="369.0654" y1="302.6582" y2="302.6582"/><text fill="#000000" font-family="sans-serif" font-size="13" font-weight="bold" lengthAdjust="spacing" textLength="7.23" x="49.8413" y="297.3955">5</text><text fill="#000000" font-family="sans-serif" font-size="13" lengthAdjust="spacing" textLength="296.9941" x="61.0713" y="297.3955">shows available locomotives and asks to select one</text><polygon fill="#181818" points="353.0654,329.9492,363.0654,333.9492,353.0654,337.9492,357.0654,333.9492" style="stroke:#181818;stroke-width:1.0;"/><line style="stroke:#181818;stroke-width:1.0;" x1="32.8413" x2="359.0654" y1="333.9492" y2="333.9492"/><text fill="#000000" font-family="sans-serif" font-size="13" font-weight="bold" lengthAdjust="spacing" textLength="7.23" x="39.8413" y="328.6865">6</text><text fill="#000000" font-family="sans-serif" font-size="13" lengthAdjust="spacing" textLength="156.0762" x="51.0713" y="328.6865">selects a locomotive to buy</text><polygon fill="#181818" points="562.3716,361.2402,572.3716,365.2402,562.3716,369.2402,566.3716,365.2402" style="stroke:#181818;stroke-width:1.0;"/><line style="stroke:#181818;stroke-width:1.0;" x1="375.0654" x2="568.3716" y1="365.2402" y2="365.2402"/><text fill="#000000" font-family="sans-serif" font-size="13" font-weight="bold" lengthAdjust="spacing" textLength="7.23" x="382.0654" y="359.9775">7</text><text fill="#000000" font-family="sans-serif" font-size="13" lengthAdjust="spacing" textLength="169.0762" x="393.2954" y="359.9775">buyLocomotive(locomotiveId)</text><rect fill="none" height="43.252" style="stroke:#000000;stroke-width:1.5;" width="180.2959" x="489.2236" y="373.2402"/><path d="M489.2236,373.2402 L550.2236,373.2402 L550.2236,382.2402 L540.2236,392.2402 L489.2236,392.2402 L489.2236,373.2402 " fill="#EEEEEE" style="stroke:#000000;stroke-width:2.0;"/><text fill="#000000" font-family="sans-serif" font-size="13" font-weight="bold" lengthAdjust="spacing" textLength="16.6182" x="502.2236" y="389.2686">ref</text><text fill="#000000" font-family="sans-serif" font-size="12" lengthAdjust="spacing" textLength="135.4102" x="511.6665" y="409.1895">Buy Selected Locomotive</text><polygon fill="#181818" points="386.0654,440.7832,376.0654,444.7832,386.0654,448.7832,382.0654,444.7832" style="stroke:#181818;stroke-width:1.0;"/><line style="stroke:#181818;stroke-width:1.0;stroke-dasharray:2.0,2.0;" x1="380.0654" x2="578.3716" y1="444.7832" y2="444.7832"/><text fill="#000000" font-family="sans-serif" font-size="13" font-weight="bold" lengthAdjust="spacing" textLength="7.23" x="392.0654" y="439.5205">8</text><text fill="#000000" font-family="sans-serif" font-size="13" lengthAdjust="spacing" textLength="46.96" x="403.2954" y="439.5205">success</text><polygon fill="#181818" points="38.8413,472.0742,28.8413,476.0742,38.8413,480.0742,34.8413,476.0742" style="stroke:#181818;stroke-width:1.0;"/><line style="stroke:#181818;stroke-width:1.0;stroke-dasharray:2.0,2.0;" x1="32.8413" x2="369.0654" y1="476.0742" y2="476.0742"/><text fill="#000000" font-family="sans-serif" font-size="13" font-weight="bold" lengthAdjust="spacing" textLength="7.23" x="44.8413" y="470.8115">9</text><text fill="#000000" font-family="sans-serif" font-size="13" lengthAdjust="spacing" textLength="164.7471" x="56.0713" y="470.8115">displays purchase confirmed</text><!--SRC=[fPFFRi8m3CRlUGgBo_v8l027IHkQ9YGE2BR3Zcvg82ADkpXbu-td5YWjOqZJV6gJpp-xdrtPk51Yn08A3cpNaGk252ioqjwKQ3UueaNQUO98Dc5O-Qv0rfZpfmihMA8NCWQhnA4gCeh6tAnTJh1aJXb_6RI98mnc7dSK1u02i-dZ-_FSA2avwqeC2GQZfsetPSi59xUbjqaZV9jS4uqvfCZU7wZZr_dKrDNS5XCTYnZGs3_3y469CD8F-gX8ae1lMU2Tf4RR0hGu74ApXffSLxY_Lu2Df8hREzDJx0LwlQBqk4NdCVDqQbTKVvItHPgceHEHbi1RYZzlwdYX12qQEkoUaa9UStfdJMl3emDueRtfqO4wSkgtU6x5mT6HBW9_oedNiLHFjG-KZK1Y4FAwHi21p1bVVRuqf7s2GhfJKb1MxQxEgPr2rjsLsnDaalz_3hg7i6WQfBmpXZzEGIfhIUHtqtkvvyxdJahzfmJAAjer2e7bi7IneFoInPtNFU8R]--></g></svg>