<svg xmlns="http://www.w3.org/2000/svg" xmlns:xlink="http://www.w3.org/1999/xlink" contentStyleType="text/css" height="414px" preserveAspectRatio="none" style="width:566px;height:414px;background:#FFFFFF;" version="1.1" viewBox="0 0 566 414" width="566px" zoomAndPan="magnify"><title>System Sequence Diagram (SSD) - US06: As a Player, I want to upgrade a station</title><defs/><g><text fill="#000000" font-family="sans-serif" font-size="14" font-weight="bold" lengthAdjust="spacing" textLength="538.3779" x="10" y="30.1074">System Sequence Diagram (SSD) - US06: As a Player, I want to upgrade a station</text><rect fill="#FFFFFF" height="179.7461" style="stroke:#181818;stroke-width:1.0;" width="10" x="175.8057" y="133.2422"/><rect fill="#FFFFFF" height="31.291" style="stroke:#181818;stroke-width:1.0;" width="10" x="364.1309" y="156.5332"/><rect fill="#FFFFFF" height="93.873" style="stroke:#181818;stroke-width:1.0;" width="10" x="364.1309" y="219.1152"/><line style="stroke:#181818;stroke-width:0.5;stroke-dasharray:5.0,5.0;" x1="179.9644" x2="179.9644" y1="123.2422" y2="330.9883"/><line style="stroke:#181818;stroke-width:0.5;stroke-dasharray:5.0,5.0;" x1="368.8481" x2="368.8481" y1="123.2422" y2="330.9883"/><text fill="#000000" font-family="sans-serif" font-size="14" lengthAdjust="spacing" textLength="39.6826" x="157.9644" y="119.7285">Player</text><ellipse cx="180.8057" cy="53.1211" fill="#E3E3E3" rx="8" ry="8" style="stroke:#181818;stroke-width:0.5;"/><path d="M180.8057,61.1211 L180.8057,88.1211 M167.8057,69.1211 L193.8057,69.1211 M180.8057,88.1211 L167.8057,103.1211 M180.8057,88.1211 L193.8057,103.1211 " fill="none" style="stroke:#181818;stroke-width:0.5;"/><text fill="#000000" font-family="sans-serif" font-size="14" lengthAdjust="spacing" textLength="39.6826" x="157.9644" y="345.0957">Player</text><ellipse cx="180.8057" cy="357.1094" fill="#E3E3E3" rx="8" ry="8" style="stroke:#181818;stroke-width:0.5;"/><path d="M180.8057,365.1094 L180.8057,392.1094 M167.8057,373.1094 L193.8057,373.1094 M180.8057,392.1094 L167.8057,407.1094 M180.8057,392.1094 L193.8057,407.1094 " fill="none" style="stroke:#181818;stroke-width:0.5;"/><rect fill="#E3E3E3" height="32.6211" rx="2.5" ry="2.5" style="stroke:#181818;stroke-width:0.5;" width="64.5654" x="336.8481" y="89.6211"/><text fill="#000000" font-family="sans-serif" font-size="14" lengthAdjust="spacing" textLength="50.5654" x="343.8481" y="111.7285">:System</text><rect fill="#E3E3E3" height="32.6211" rx="2.5" ry="2.5" style="stroke:#181818;stroke-width:0.5;" width="64.5654" x="336.8481" y="329.9883"/><text fill="#000000" font-family="sans-serif" font-size="14" lengthAdjust="spacing" textLength="50.5654" x="343.8481" y="352.0957">:System</text><rect fill="#FFFFFF" height="179.7461" style="stroke:#181818;stroke-width:1.0;" width="10" x="175.8057" y="133.2422"/><rect fill="#FFFFFF" height="31.291" style="stroke:#181818;stroke-width:1.0;" width="10" x="364.1309" y="156.5332"/><rect fill="#FFFFFF" height="93.873" style="stroke:#181818;stroke-width:1.0;" width="10" x="364.1309" y="219.1152"/><polygon fill="#181818" points="352.1309,152.5332,362.1309,156.5332,352.1309,160.5332,356.1309,156.5332" style="stroke:#181818;stroke-width:1.0;"/><line style="stroke:#181818;stroke-width:1.0;" x1="185.8057" x2="358.1309" y1="156.5332" y2="156.5332"/><text fill="#000000" font-family="sans-serif" font-size="13" font-weight="bold" lengthAdjust="spacing" textLength="7.23" x="192.8057" y="151.2705">1</text><text fill="#000000" font-family="sans-serif" font-size="13" lengthAdjust="spacing" textLength="75.8735" x="204.0356" y="151.2705">select station</text><polygon fill="#181818" points="196.8057,183.8242,186.8057,187.8242,196.8057,191.8242,192.8057,187.8242" style="stroke:#181818;stroke-width:1.0;"/><line style="stroke:#181818;stroke-width:1.0;stroke-dasharray:2.0,2.0;" x1="190.8057" x2="368.1309" y1="187.8242" y2="187.8242"/><text fill="#000000" font-family="sans-serif" font-size="13" font-weight="bold" lengthAdjust="spacing" textLength="7.23" x="202.8057" y="182.5615">2</text><text fill="#000000" font-family="sans-serif" font-size="13" lengthAdjust="spacing" textLength="143.0952" x="214.0356" y="182.5615">show available upgrades</text><polygon fill="#181818" points="352.1309,215.1152,362.1309,219.1152,352.1309,223.1152,356.1309,219.1152" style="stroke:#181818;stroke-width:1.0;"/><line style="stroke:#181818;stroke-width:1.0;" x1="185.8057" x2="358.1309" y1="219.1152" y2="219.1152"/><text fill="#000000" font-family="sans-serif" font-size="13" font-weight="bold" lengthAdjust="spacing" textLength="7.23" x="192.8057" y="213.8525">3</text><text fill="#000000" font-family="sans-serif" font-size="13" lengthAdjust="spacing" textLength="93.2407" x="204.0356" y="213.8525">choose upgrade</text><polygon fill="#181818" points="196.8057,246.4063,186.8057,250.4063,196.8057,254.4063,192.8057,250.4063" style="stroke:#181818;stroke-width:1.0;"/><line style="stroke:#181818;stroke-width:1.0;stroke-dasharray:2.0,2.0;" x1="190.8057" x2="363.1309" y1="250.4063" y2="250.4063"/><text fill="#000000" font-family="sans-serif" font-size="13" font-weight="bold" lengthAdjust="spacing" textLength="7.23" x="202.8057" y="245.1436">4</text><text fill="#000000" font-family="sans-serif" font-size="13" lengthAdjust="spacing" textLength="96.1289" x="214.0356" y="245.1436">validate upgrade</text><polygon fill="#181818" points="196.8057,277.6973,186.8057,281.6973,196.8057,285.6973,192.8057,281.6973" style="stroke:#181818;stroke-width:1.0;"/><line style="stroke:#181818;stroke-width:1.0;stroke-dasharray:2.0,2.0;" x1="190.8057" x2="363.1309" y1="281.6973" y2="281.6973"/><text fill="#000000" font-family="sans-serif" font-size="13" font-weight="bold" lengthAdjust="spacing" textLength="7.23" x="202.8057" y="276.4346">5</text><text fill="#000000" font-family="sans-serif" font-size="13" lengthAdjust="spacing" textLength="82.3989" x="214.0356" y="276.4346">apply upgrade</text><polygon fill="#181818" points="191.8057,308.9883,181.8057,312.9883,191.8057,316.9883,187.8057,312.9883" style="stroke:#181818;stroke-width:1.0;"/><line style="stroke:#181818;stroke-width:1.0;stroke-dasharray:2.0,2.0;" x1="185.8057" x2="368.1309" y1="312.9883" y2="312.9883"/><text fill="#000000" font-family="sans-serif" font-size="13" font-weight="bold" lengthAdjust="spacing" textLength="7.23" x="197.8057" y="307.7256">6</text><text fill="#000000" font-family="sans-serif" font-size="13" lengthAdjust="spacing" textLength="108.3989" x="209.0356" y="307.7256">upgrade confirmed</text><!--SRC=[ZP0zQyCm48Pt_Oh3KmiDTEhWeH18Xa8AeMg7Z1VvOelemvNEDlxtbUEF1kgXauJkUUxUKxngLsD02zOxhwhWBG67XaHSAZMgAvOakJS4WHIZAyqz42iiVATT2HSqaOHWpGcLVMIo8Ecx8QS8TXhB0N-GSlS86_YIpoyvR2CW70ts59xW3Jfq3EoXgHDRKAf5HjRU2O4DUzVOCuLqL-m3PAEN0KOu7hQd_OT8YLWhNGzjidoCSAlBa_pSlzzCtIBJB8ZnXCthX40EaKnQSvcyA7EF2TmaPxAJK_aEi4Ljy9oMd_97KT0VVMsaghoFYoR-DxD5eui1chKr2ElQzB-Drv3vivLt5nqi5M8bzjtBAFu0]--></g></svg>