<svg xmlns="http://www.w3.org/2000/svg" xmlns:xlink="http://www.w3.org/1999/xlink" contentStyleType="text/css" data-diagram-type="CLASS" height="555px" preserveAspectRatio="none" style="width:420px;height:555px;background:#FFFFFF;" version="1.1" viewBox="0 0 420 555" width="420px" zoomAndPan="magnify"><defs/><g><!--class Player--><g class="entity" data-entity="Player" data-source-line="7" data-uid="ent0002" id="entity_Player"><rect fill="#F1F1F1" height="113.1875" rx="2.5" ry="2.5" style="stroke:#181818;stroke-width:0.5;" width="273.5771" x="74.37" y="7"/><ellipse cx="185.1259" cy="23" fill="#ADD1B2" rx="11" ry="11" style="stroke:#181818;stroke-width:1;"/><path d="M188.0946,28.6406 Q187.5165,28.9375 186.8759,29.0781 Q186.2352,29.2344 185.5321,29.2344 Q183.0321,29.2344 181.704,27.5938 Q180.3915,25.9375 180.3915,22.8125 Q180.3915,19.6875 181.704,18.0313 Q183.0321,16.375 185.5321,16.375 Q186.2352,16.375 186.8759,16.5313 Q187.5321,16.6875 188.0946,16.9844 L188.0946,19.7031 Q187.4696,19.125 186.8759,18.8594 Q186.2821,18.5781 185.6571,18.5781 Q184.3134,18.5781 183.6259,19.6563 Q182.9384,20.7188 182.9384,22.8125 Q182.9384,24.9063 183.6259,25.9844 Q184.3134,27.0469 185.6571,27.0469 Q186.2821,27.0469 186.8759,26.7813 Q187.4696,26.5 188.0946,25.9219 L188.0946,28.6406 Z " fill="#000000"/><text fill="#000000" font-family="sans-serif" font-size="14" lengthAdjust="spacing" textLength="43.5654" x="205.6259" y="27.8467">Player</text><line style="stroke:#181818;stroke-width:0.5;" x1="75.37" x2="346.9471" y1="39" y2="39"/><text fill="#000000" font-family="sans-serif" font-size="14" lengthAdjust="spacing" textLength="45.2471" x="80.37" y="55.9951">-id: int</text><text fill="#000000" font-family="sans-serif" font-size="14" lengthAdjust="spacing" textLength="95.7031" x="80.37" y="72.292">-name: String</text><line style="stroke:#181818;stroke-width:0.5;" x1="75.37" x2="346.9471" y1="79.5938" y2="79.5938"/><text fill="#000000" font-family="sans-serif" font-size="14" lengthAdjust="spacing" textLength="207.1563" x="80.37" y="96.5889">+listStations(): List&lt;Station&gt;</text><text fill="#000000" font-family="sans-serif" font-size="14" lengthAdjust="spacing" textLength="261.5771" x="80.37" y="112.8857">+selectStation(stationId: int): Station</text></g><!--class Station--><g class="entity" data-entity="Station" data-source-line="15" data-uid="ent0003" id="entity_Station"><rect fill="#F1F1F1" height="178.375" rx="2.5" ry="2.5" style="stroke:#181818;stroke-width:0.5;" width="278.6289" x="71.85" y="180.19"/><ellipse cx="182.0282" cy="196.19" fill="#ADD1B2" rx="11" ry="11" style="stroke:#181818;stroke-width:1;"/><path d="M184.997,201.8306 Q184.4188,202.1275 183.7782,202.2681 Q183.1376,202.4244 182.4345,202.4244 Q179.9345,202.4244 178.6063,200.7837 Q177.2938,199.1275 177.2938,196.0025 Q177.2938,192.8775 178.6063,191.2212 Q179.9345,189.565 182.4345,189.565 Q183.1376,189.565 183.7782,189.7212 Q184.4345,189.8775 184.997,190.1744 L184.997,192.8931 Q184.372,192.315 183.7782,192.0494 Q183.1845,191.7681 182.5595,191.7681 Q181.2157,191.7681 180.5282,192.8462 Q179.8407,193.9087 179.8407,196.0025 Q179.8407,198.0962 180.5282,199.1744 Q181.2157,200.2369 182.5595,200.2369 Q183.1845,200.2369 183.7782,199.9712 Q184.372,199.69 184.997,199.1119 L184.997,201.8306 Z " fill="#000000"/><text fill="#000000" font-family="sans-serif" font-size="14" lengthAdjust="spacing" textLength="49.7725" x="202.5282" y="201.0367">Station</text><line style="stroke:#181818;stroke-width:0.5;" x1="72.85" x2="349.4789" y1="212.19" y2="212.19"/><text fill="#000000" font-family="sans-serif" font-size="14" lengthAdjust="spacing" textLength="45.2471" x="77.85" y="229.1851">-id: int</text><text fill="#000000" font-family="sans-serif" font-size="14" lengthAdjust="spacing" textLength="95.7031" x="77.85" y="245.482">-name: String</text><text fill="#000000" font-family="sans-serif" font-size="14" lengthAdjust="spacing" textLength="111.5488" x="77.85" y="261.7789">-location: String</text><text fill="#000000" font-family="sans-serif" font-size="14" lengthAdjust="spacing" textLength="182.3145" x="77.85" y="278.0757">-buildings: List&lt;Building&gt;</text><text fill="#000000" font-family="sans-serif" font-size="14" lengthAdjust="spacing" textLength="159.1064" x="77.85" y="294.3726">-cargoes: List&lt;Cargo&gt;</text><line style="stroke:#181818;stroke-width:0.5;" x1="72.85" x2="349.4789" y1="301.6744" y2="301.6744"/><text fill="#000000" font-family="sans-serif" font-size="14" lengthAdjust="spacing" textLength="145.127" x="77.85" y="318.6695">+getDetails(): String</text><text fill="#000000" font-family="sans-serif" font-size="14" lengthAdjust="spacing" textLength="266.6289" x="77.85" y="334.9664">+addBuilding(building: Building): void</text><text fill="#000000" font-family="sans-serif" font-size="14" lengthAdjust="spacing" textLength="219.5771" x="77.85" y="351.2632">+addCargo(cargo: Cargo): void</text></g><!--class Building--><g class="entity" data-entity="Building" data-source-line="27" data-uid="ent0004" id="entity_Building"><rect fill="#F1F1F1" height="113.1875" rx="2.5" ry="2.5" style="stroke:#181818;stroke-width:0.5;" width="188.3262" x="7" y="426.71"/><ellipse cx="68.5166" cy="442.71" fill="#ADD1B2" rx="11" ry="11" style="stroke:#181818;stroke-width:1;"/><path d="M71.4854,448.3506 Q70.9072,448.6475 70.2666,448.7881 Q69.626,448.9444 68.9229,448.9444 Q66.4229,448.9444 65.0947,447.3037 Q63.7822,445.6475 63.7822,442.5225 Q63.7822,439.3975 65.0947,437.7412 Q66.4229,436.085 68.9229,436.085 Q69.626,436.085 70.2666,436.2412 Q70.9229,436.3975 71.4854,436.6944 L71.4854,439.4131 Q70.8604,438.835 70.2666,438.5694 Q69.6729,438.2881 69.0479,438.2881 Q67.7041,438.2881 67.0166,439.3662 Q66.3291,440.4287 66.3291,442.5225 Q66.3291,444.6162 67.0166,445.6944 Q67.7041,446.7569 69.0479,446.7569 Q69.6729,446.7569 70.2666,446.4912 Q70.8604,446.21 71.4854,445.6319 L71.4854,448.3506 Z " fill="#000000"/><text fill="#000000" font-family="sans-serif" font-size="14" lengthAdjust="spacing" textLength="56.793" x="89.0166" y="447.5567">Building</text><line style="stroke:#181818;stroke-width:0.5;" x1="8" x2="194.3262" y1="458.71" y2="458.71"/><text fill="#000000" font-family="sans-serif" font-size="14" lengthAdjust="spacing" textLength="45.2471" x="13" y="475.7051">-id: int</text><text fill="#000000" font-family="sans-serif" font-size="14" lengthAdjust="spacing" textLength="87.2744" x="13" y="492.002">-type: String</text><text fill="#000000" font-family="sans-serif" font-size="14" lengthAdjust="spacing" textLength="65.7617" x="13" y="508.2989">-level: int</text><line style="stroke:#181818;stroke-width:0.5;" x1="8" x2="194.3262" y1="515.6006" y2="515.6006"/><text fill="#000000" font-family="sans-serif" font-size="14" lengthAdjust="spacing" textLength="176.3262" x="13" y="532.5957">+getDescription(): String</text></g><!--class Cargo--><g class="entity" data-entity="Cargo" data-source-line="35" data-uid="ent0005" id="entity_Cargo"><rect fill="#F1F1F1" height="129.4844" rx="2.5" ry="2.5" style="stroke:#181818;stroke-width:0.5;" width="183.3496" x="230.49" y="418.57"/><ellipse cx="297.1336" cy="434.57" fill="#ADD1B2" rx="11" ry="11" style="stroke:#181818;stroke-width:1;"/><path d="M300.1023,440.2106 Q299.5242,440.5075 298.8836,440.6481 Q298.2429,440.8044 297.5398,440.8044 Q295.0398,440.8044 293.7117,439.1637 Q292.3992,437.5075 292.3992,434.3825 Q292.3992,431.2575 293.7117,429.6012 Q295.0398,427.945 297.5398,427.945 Q298.2429,427.945 298.8836,428.1012 Q299.5398,428.2575 300.1023,428.5544 L300.1023,431.2731 Q299.4773,430.695 298.8836,430.4294 Q298.2898,430.1481 297.6648,430.1481 Q296.3211,430.1481 295.6336,431.2262 Q294.9461,432.2887 294.9461,434.3825 Q294.9461,436.4762 295.6336,437.5544 Q296.3211,438.6169 297.6648,438.6169 Q298.2898,438.6169 298.8836,438.3512 Q299.4773,438.07 300.1023,437.4919 L300.1023,440.2106 Z " fill="#000000"/><text fill="#000000" font-family="sans-serif" font-size="14" lengthAdjust="spacing" textLength="41.5625" x="317.6336" y="439.4167">Cargo</text><line style="stroke:#181818;stroke-width:0.5;" x1="231.49" x2="412.8396" y1="450.57" y2="450.57"/><text fill="#000000" font-family="sans-serif" font-size="14" lengthAdjust="spacing" textLength="45.2471" x="236.49" y="467.5651">-id: int</text><text fill="#000000" font-family="sans-serif" font-size="14" lengthAdjust="spacing" textLength="87.2744" x="236.49" y="483.862">-type: String</text><text fill="#000000" font-family="sans-serif" font-size="14" lengthAdjust="spacing" textLength="90.8359" x="236.49" y="500.1589">-quantity: int</text><text fill="#000000" font-family="sans-serif" font-size="14" lengthAdjust="spacing" textLength="89.9473" x="236.49" y="516.4557">-demand: int</text><line style="stroke:#181818;stroke-width:0.5;" x1="231.49" x2="412.8396" y1="523.7575" y2="523.7575"/><text fill="#000000" font-family="sans-serif" font-size="14" lengthAdjust="spacing" textLength="171.3496" x="236.49" y="540.7526">+isInDemand(): boolean</text></g><!--link Player to Station--><g class="link" data-entity-1="Player" data-entity-2="Station" data-source-line="44" data-uid="lnk6" id="link_Player_Station"><path codeLine="44" d="M211.16,120.65 C211.16,138.96 211.16,153.72 211.16,173.78" fill="none" id="Player-to-Station" style="stroke:#181818;stroke-width:1;"/><polygon fill="#181818" points="211.16,179.78,215.16,170.78,211.16,174.78,207.16,170.78,211.16,179.78" style="stroke:#181818;stroke-width:1;"/><text fill="#000000" font-family="sans-serif" font-size="13" lengthAdjust="spacing" textLength="86.4868" x="124.16" y="146.2769">views/selects</text><text fill="#000000" font-family="sans-serif" font-size="13" lengthAdjust="spacing" textLength="6.5" x="204.9405" y="169.1147">*</text></g><!--reverse link Station to Building--><g class="link" data-entity-1="Station" data-entity-2="Building" data-source-line="45" data-uid="lnk7" id="link_Station_Building"><path codeLine="45" d="M133.59,370.86 C133.59,393.76 133.59,405.76 133.59,426.51" fill="none" id="Station-backto-Building" style="stroke:#181818;stroke-width:1;"/><polygon fill="#181818" points="133.59,358.86,129.59,364.86,133.59,370.86,137.59,364.86,133.59,358.86" style="stroke:#181818;stroke-width:1;"/><text fill="#000000" font-family="sans-serif" font-size="13" lengthAdjust="spacing" textLength="55.0278" x="77.59" y="388.7469">contains</text><text fill="#000000" font-family="sans-serif" font-size="13" lengthAdjust="spacing" textLength="8.271" x="119.1003" y="378.6605">1</text><text fill="#000000" font-family="sans-serif" font-size="13" lengthAdjust="spacing" textLength="23.0356" x="113.1426" y="415.7492">0..*</text></g><!--reverse link Station to Cargo--><g class="link" data-entity-1="Station" data-entity-2="Cargo" data-source-line="46" data-uid="lnk8" id="link_Station_Cargo"><path codeLine="46" d="M290.48,370.86 C290.48,390.79 290.48,399.54 290.48,418.26" fill="none" id="Station-backto-Cargo" style="stroke:#181818;stroke-width:1;"/><polygon fill="#181818" points="290.48,358.86,286.48,364.86,290.48,370.86,294.48,364.86,290.48,358.86" style="stroke:#181818;stroke-width:1;"/><text fill="#000000" font-family="sans-serif" font-size="13" lengthAdjust="spacing" textLength="34.8296" x="291.48" y="384.6269">holds</text><text fill="#000000" font-family="sans-serif" font-size="13" lengthAdjust="spacing" textLength="8.271" x="288.4925" y="378.6605">1</text><text fill="#000000" font-family="sans-serif" font-size="13" lengthAdjust="spacing" textLength="23.0356" x="262.7586" y="407.3988">0..*</text></g><!--SRC=[ZLFBReCm4BpxArPSIXAHfbTKHMgRIwGUgl853gp8AevDiPEALltt6Zy8L8qK3g0PnhipNbiVI3QyvKSe1TVwoPYMTYU3srB9WhuGLamFaeQN1rvZOJg1q69fkAm5ZWI299gkGL2jsIl6s1sy2TvXwwipzuxKDmFxP5JbGD9u8FaHSoYi2LaxPY58cy9mGqhgT9R3gyMFWLXxYKPXlGGkrVwxzMLdVJL7i9_UJW0JFv6xoL0cLEdaKtPt8b5Pf8F3vu2znQpaRQqm_dpfKJ1VezcWuIHSkd5oNbMnIXhBvn0fApuhgWQfgvcwFZau41KkTrms2JwG_oNlv_WdEPvHN1JUkYvRQjp6N-oxZix3f9rdRklrSUBIaEb6eWgFN8vMBKXlvSQHVU-TKW9v6FCx2dzazjHe5WvSbgqXcIV3lEt-47xgUtz-D8jyyf30FCiWMIsNLZxiKWxsKjXHoQjIdp27lHAL_WK0]--></g></svg>