<svg xmlns="http://www.w3.org/2000/svg" xmlns:xlink="http://www.w3.org/1999/xlink" contentStyleType="text/css" height="1860px" preserveAspectRatio="none" style="width:2257px;height:1860px;background:#FFFFFF;" version="1.1" viewBox="0 0 2257 1860" width="2257px" zoomAndPan="magnify"><title>Sequence Diagram (SD) - US02 Add Industry to Map - Full</title><defs/><g><text fill="#000000" font-family="sans-serif" font-size="14" font-weight="bold" lengthAdjust="spacing" textLength="382.71" x="936.4224" y="30.1074">Sequence Diagram (SD) - US02 Add Industry to Map - Full</text><rect fill="#FFFFFF" height="1626.1719" style="stroke:#181818;stroke-width:1.0;" width="10" x="21.2861" y="133.2422"/><rect fill="#FFFFFF" height="513.6563" style="stroke:#181818;stroke-width:1.0;" width="10" x="351.2148" y="156.5332"/><rect fill="#FFFFFF" height="219.0371" style="stroke:#181818;stroke-width:1.0;" width="10" x="351.2148" y="701.4805"/><rect fill="#FFFFFF" height="219.0371" style="stroke:#181818;stroke-width:1.0;" width="10" x="351.2148" y="951.8086"/><rect fill="#FFFFFF" height="31.291" style="stroke:#181818;stroke-width:1.0;" width="10" x="351.2148" y="1202.1367"/><rect fill="#FFFFFF" height="494.6953" style="stroke:#181818;stroke-width:1.0;" width="10" x="351.2148" y="1264.7188"/><rect fill="#FFFFFF" height="156.4551" style="stroke:#181818;stroke-width:1.0;" width="10" x="574.9937" y="187.8242"/><rect fill="#FFFFFF" height="219.0371" style="stroke:#181818;stroke-width:1.0;" width="10" x="574.9937" y="419.8613"/><rect fill="#FFFFFF" height="156.4551" style="stroke:#181818;stroke-width:1.0;" width="10" x="574.9937" y="732.7715"/><rect fill="#FFFFFF" height="156.4551" style="stroke:#181818;stroke-width:1.0;" width="10" x="574.9937" y="983.0996"/><rect fill="#FFFFFF" height="387.8223" style="stroke:#181818;stroke-width:1.0;" width="10" x="574.9937" y="1340.3008"/><rect fill="#FFFFFF" height="31.291" style="stroke:#181818;stroke-width:1.0;" width="10" x="735.1436" y="576.3164"/><rect fill="#FFFFFF" height="31.291" style="stroke:#181818;stroke-width:1.0;" width="10" x="864.5811" y="826.6445"/><rect fill="#FFFFFF" height="31.291" style="stroke:#181818;stroke-width:1.0;" width="10" x="864.5811" y="1076.9727"/><rect fill="#FFFFFF" height="31.291" style="stroke:#181818;stroke-width:1.0;" width="10" x="1024.3735" y="219.1152"/><rect fill="#FFFFFF" height="31.291" style="stroke:#181818;stroke-width:1.0;" width="10" x="1159.6523" y="281.6973"/><rect fill="#FFFFFF" height="31.291" style="stroke:#181818;stroke-width:1.0;" width="10" x="1279.7451" y="451.1523"/><rect fill="#FFFFFF" height="31.291" style="stroke:#181818;stroke-width:1.0;" width="10" x="1407.231" y="513.7344"/><rect fill="#FFFFFF" height="31.291" style="stroke:#181818;stroke-width:1.0;" width="10" x="1407.231" y="1371.5918"/><rect fill="#FFFFFF" height="31.291" style="stroke:#181818;stroke-width:1.0;" width="10" x="1556.1167" y="764.0625"/><rect fill="#FFFFFF" height="31.291" style="stroke:#181818;stroke-width:1.0;" width="10" x="1556.1167" y="1014.3906"/><rect fill="#FFFFFF" height="31.291" style="stroke:#181818;stroke-width:1.0;" width="10" x="1556.1167" y="1434.1738"/><rect fill="#FFFFFF" height="31.291" style="stroke:#181818;stroke-width:1.0;" width="10" x="1707.3369" y="1571.668"/><rect fill="#FFFFFF" height="200.0762" style="stroke:#181818;stroke-width:1.0;" width="10" x="2003.9116" y="1496.7559"/><rect fill="#FFFFFF" height="31.291" style="stroke:#181818;stroke-width:1.0;" width="10" x="2179.2515" y="1634.25"/><line style="stroke:#181818;stroke-width:0.5;stroke-dasharray:5.0,5.0;" x1="26" x2="26" y1="123.2422" y2="1777.4141"/><line style="stroke:#181818;stroke-width:0.5;stroke-dasharray:5.0,5.0;" x1="355.915" x2="355.915" y1="123.2422" y2="1777.4141"/><line style="stroke:#181818;stroke-width:0.5;stroke-dasharray:5.0,5.0;" x1="579.3491" x2="579.3491" y1="123.2422" y2="1777.4141"/><line style="stroke:#181818;stroke-width:0.5;stroke-dasharray:5.0,5.0;" x1="739.8472" x2="739.8472" y1="123.2422" y2="1777.4141"/><line style="stroke:#181818;stroke-width:0.5;stroke-dasharray:5.0,5.0;" x1="869.4399" x2="869.4399" y1="123.2422" y2="1777.4141"/><line style="stroke:#181818;stroke-width:0.5;stroke-dasharray:5.0,5.0;" x1="1028.7222" x2="1028.7222" y1="123.2422" y2="1777.4141"/><line style="stroke:#181818;stroke-width:0.5;stroke-dasharray:5.0,5.0;" x1="1164.0249" x2="1164.0249" y1="123.2422" y2="1777.4141"/><line style="stroke:#181818;stroke-width:0.5;stroke-dasharray:5.0,5.0;" x1="1284.2798" x2="1284.2798" y1="123.2422" y2="1777.4141"/><line style="stroke:#181818;stroke-width:0.5;stroke-dasharray:5.0,5.0;" x1="1412.2104" x2="1412.2104" y1="123.2422" y2="1777.4141"/><line style="stroke:#181818;stroke-width:0.5;stroke-dasharray:5.0,5.0;" x1="1560.2515" x2="1560.2515" y1="123.2422" y2="1777.4141"/><line style="stroke:#181818;stroke-width:0.5;stroke-dasharray:5.0,5.0;" x1="1711.9819" x2="1711.9819" y1="1536.5664" y2="1777.4141"/><line style="stroke:#181818;stroke-width:0.5;stroke-dasharray:5.0,5.0;" x1="2008.7256" x2="2008.7256" y1="123.2422" y2="1777.4141"/><line style="stroke:#181818;stroke-width:0.5;stroke-dasharray:5.0,5.0;" x1="2183.9482" x2="2183.9482" y1="123.2422" y2="1777.4141"/><text fill="#000000" font-family="sans-serif" font-size="14" lengthAdjust="spacing" textLength="36.5723" x="5" y="119.7285">Editor</text><ellipse cx="26.2861" cy="53.1211" fill="#E3E3E3" rx="8" ry="8" style="stroke:#181818;stroke-width:0.5;"/><path d="M26.2861,61.1211 L26.2861,88.1211 M13.2861,69.1211 L39.2861,69.1211 M26.2861,88.1211 L13.2861,103.1211 M26.2861,88.1211 L39.2861,103.1211 " fill="none" style="stroke:#181818;stroke-width:0.5;"/><text fill="#000000" font-family="sans-serif" font-size="14" lengthAdjust="spacing" textLength="36.5723" x="5" y="1791.5215">Editor</text><ellipse cx="26.2861" cy="1803.5352" fill="#E3E3E3" rx="8" ry="8" style="stroke:#181818;stroke-width:0.5;"/><path d="M26.2861,1811.5352 L26.2861,1838.5352 M13.2861,1819.5352 L39.2861,1819.5352 M26.2861,1838.5352 L13.2861,1853.5352 M26.2861,1838.5352 L39.2861,1853.5352 " fill="none" style="stroke:#181818;stroke-width:0.5;"/><rect fill="#E3E3E3" height="32.6211" rx="2.5" ry="2.5" style="stroke:#181818;stroke-width:0.5;" width="106.5996" x="302.915" y="89.6211"/><text fill="#000000" font-family="sans-serif" font-size="14" lengthAdjust="spacing" textLength="92.5996" x="309.915" y="111.7285">:AddIndustryUI</text><rect fill="#E3E3E3" height="32.6211" rx="2.5" ry="2.5" style="stroke:#181818;stroke-width:0.5;" width="106.5996" x="302.915" y="1776.4141"/><text fill="#000000" font-family="sans-serif" font-size="14" lengthAdjust="spacing" textLength="92.5996" x="309.915" y="1798.5215">:AddIndustryUI</text><rect fill="#E3E3E3" height="32.6211" rx="2.5" ry="2.5" style="stroke:#181818;stroke-width:0.5;" width="153.2891" x="503.3491" y="89.6211"/><text fill="#000000" font-family="sans-serif" font-size="14" lengthAdjust="spacing" textLength="139.2891" x="510.3491" y="111.7285">:AddIndustryController</text><rect fill="#E3E3E3" height="32.6211" rx="2.5" ry="2.5" style="stroke:#181818;stroke-width:0.5;" width="153.2891" x="503.3491" y="1776.4141"/><text fill="#000000" font-family="sans-serif" font-size="14" lengthAdjust="spacing" textLength="139.2891" x="510.3491" y="1798.5215">:AddIndustryController</text><rect fill="#E3E3E3" height="32.6211" rx="2.5" ry="2.5" style="stroke:#181818;stroke-width:0.5;" width="92.5928" x="693.8472" y="89.6211"/><text fill="#000000" font-family="sans-serif" font-size="14" lengthAdjust="spacing" textLength="78.5928" x="700.8472" y="111.7285">:MapMapper</text><rect fill="#E3E3E3" height="32.6211" rx="2.5" ry="2.5" style="stroke:#181818;stroke-width:0.5;" width="92.5928" x="693.8472" y="1776.4141"/><text fill="#000000" font-family="sans-serif" font-size="14" lengthAdjust="spacing" textLength="78.5928" x="700.8472" y="1798.5215">:MapMapper</text><rect fill="#E3E3E3" height="32.6211" rx="2.5" ry="2.5" style="stroke:#181818;stroke-width:0.5;" width="146.2822" x="796.4399" y="89.6211"/><text fill="#000000" font-family="sans-serif" font-size="14" lengthAdjust="spacing" textLength="132.2822" x="803.4399" y="111.7285">:IndustryTypeMapper</text><rect fill="#E3E3E3" height="32.6211" rx="2.5" ry="2.5" style="stroke:#181818;stroke-width:0.5;" width="146.2822" x="796.4399" y="1776.4141"/><text fill="#000000" font-family="sans-serif" font-size="14" lengthAdjust="spacing" textLength="132.2822" x="803.4399" y="1798.5215">:IndustryTypeMapper</text><rect fill="#E3E3E3" height="32.6211" rx="2.5" ry="2.5" style="stroke:#181818;stroke-width:0.5;" width="153.3027" x="952.7222" y="89.6211"/><text fill="#000000" font-family="sans-serif" font-size="14" lengthAdjust="spacing" textLength="139.3027" x="959.7222" y="111.7285">:AuthenticationService</text><rect fill="#E3E3E3" height="32.6211" rx="2.5" ry="2.5" style="stroke:#181818;stroke-width:0.5;" width="153.3027" x="952.7222" y="1776.4141"/><text fill="#000000" font-family="sans-serif" font-size="14" lengthAdjust="spacing" textLength="139.3027" x="959.7222" y="1798.5215">:AuthenticationService</text><rect fill="#E3E3E3" height="32.6211" rx="2.5" ry="2.5" style="stroke:#181818;stroke-width:0.5;" width="97.2549" x="1116.0249" y="89.6211"/><text fill="#000000" font-family="sans-serif" font-size="14" lengthAdjust="spacing" textLength="83.2549" x="1123.0249" y="111.7285">:UserSession</text><rect fill="#E3E3E3" height="32.6211" rx="2.5" ry="2.5" style="stroke:#181818;stroke-width:0.5;" width="97.2549" x="1116.0249" y="1776.4141"/><text fill="#000000" font-family="sans-serif" font-size="14" lengthAdjust="spacing" textLength="83.2549" x="1123.0249" y="1798.5215">:UserSession</text><rect fill="#E3E3E3" height="32.6211" rx="2.5" ry="2.5" style="stroke:#181818;stroke-width:0.5;" width="122.9307" x="1223.2798" y="89.6211"/><text fill="#000000" font-family="sans-serif" font-size="14" lengthAdjust="spacing" textLength="108.9307" x="1230.2798" y="111.7285">:GameRepository</text><rect fill="#E3E3E3" height="32.6211" rx="2.5" ry="2.5" style="stroke:#181818;stroke-width:0.5;" width="122.9307" x="1223.2798" y="1776.4141"/><text fill="#000000" font-family="sans-serif" font-size="14" lengthAdjust="spacing" textLength="108.9307" x="1230.2798" y="1798.5215">:GameRepository</text><rect fill="#E3E3E3" height="32.6211" rx="2.5" ry="2.5" style="stroke:#181818;stroke-width:0.5;" width="112.041" x="1356.2104" y="89.6211"/><text fill="#000000" font-family="sans-serif" font-size="14" lengthAdjust="spacing" textLength="98.041" x="1363.2104" y="111.7285">:MapRepository</text><rect fill="#E3E3E3" height="32.6211" rx="2.5" ry="2.5" style="stroke:#181818;stroke-width:0.5;" width="112.041" x="1356.2104" y="1776.4141"/><text fill="#000000" font-family="sans-serif" font-size="14" lengthAdjust="spacing" textLength="98.041" x="1363.2104" y="1798.5215">:MapRepository</text><rect fill="#E3E3E3" height="32.6211" rx="2.5" ry="2.5" style="stroke:#181818;stroke-width:0.5;" width="165.7305" x="1478.2515" y="89.6211"/><text fill="#000000" font-family="sans-serif" font-size="14" lengthAdjust="spacing" textLength="151.7305" x="1485.2515" y="111.7285">:IndustryTypeRepository</text><rect fill="#E3E3E3" height="32.6211" rx="2.5" ry="2.5" style="stroke:#181818;stroke-width:0.5;" width="165.7305" x="1478.2515" y="1776.4141"/><text fill="#000000" font-family="sans-serif" font-size="14" lengthAdjust="spacing" textLength="151.7305" x="1485.2515" y="1798.5215">:IndustryTypeRepository</text><rect fill="#E3E3E3" height="32.6211" rx="2.5" ry="2.5" style="stroke:#181818;stroke-width:0.5;" width="116.71" x="1653.9819" y="1776.4141"/><text fill="#000000" font-family="sans-serif" font-size="14" lengthAdjust="spacing" textLength="102.71" x="1660.9819" y="1798.5215">industry:Industry</text><rect fill="#E3E3E3" height="32.6211" rx="2.5" ry="2.5" style="stroke:#181818;stroke-width:0.5;" width="114.3721" x="1951.7256" y="89.6211"/><text fill="#000000" font-family="sans-serif" font-size="14" lengthAdjust="spacing" textLength="100.3721" x="1958.7256" y="111.7285">:IndustryService</text><rect fill="#E3E3E3" height="32.6211" rx="2.5" ry="2.5" style="stroke:#181818;stroke-width:0.5;" width="114.3721" x="1951.7256" y="1776.4141"/><text fill="#000000" font-family="sans-serif" font-size="14" lengthAdjust="spacing" textLength="100.3721" x="1958.7256" y="1798.5215">:IndustryService</text><rect fill="#E3E3E3" height="32.6211" rx="2.5" ry="2.5" style="stroke:#181818;stroke-width:0.5;" width="134.6064" x="2116.9482" y="89.6211"/><text fill="#000000" font-family="sans-serif" font-size="14" lengthAdjust="spacing" textLength="120.6064" x="2123.9482" y="111.7285">:IndustryRepository</text><rect fill="#E3E3E3" height="32.6211" rx="2.5" ry="2.5" style="stroke:#181818;stroke-width:0.5;" width="134.6064" x="2116.9482" y="1776.4141"/><text fill="#000000" font-family="sans-serif" font-size="14" lengthAdjust="spacing" textLength="120.6064" x="2123.9482" y="1798.5215">:IndustryRepository</text><rect fill="#FFFFFF" height="1626.1719" style="stroke:#181818;stroke-width:1.0;" width="10" x="21.2861" y="133.2422"/><rect fill="#FFFFFF" height="513.6563" style="stroke:#181818;stroke-width:1.0;" width="10" x="351.2148" y="156.5332"/><rect fill="#FFFFFF" height="219.0371" style="stroke:#181818;stroke-width:1.0;" width="10" x="351.2148" y="701.4805"/><rect fill="#FFFFFF" height="219.0371" style="stroke:#181818;stroke-width:1.0;" width="10" x="351.2148" y="951.8086"/><rect fill="#FFFFFF" height="31.291" style="stroke:#181818;stroke-width:1.0;" width="10" x="351.2148" y="1202.1367"/><rect fill="#FFFFFF" height="494.6953" style="stroke:#181818;stroke-width:1.0;" width="10" x="351.2148" y="1264.7188"/><rect fill="#FFFFFF" height="156.4551" style="stroke:#181818;stroke-width:1.0;" width="10" x="574.9937" y="187.8242"/><rect fill="#FFFFFF" height="219.0371" style="stroke:#181818;stroke-width:1.0;" width="10" x="574.9937" y="419.8613"/><rect fill="#FFFFFF" height="156.4551" style="stroke:#181818;stroke-width:1.0;" width="10" x="574.9937" y="732.7715"/><rect fill="#FFFFFF" height="156.4551" style="stroke:#181818;stroke-width:1.0;" width="10" x="574.9937" y="983.0996"/><rect fill="#FFFFFF" height="387.8223" style="stroke:#181818;stroke-width:1.0;" width="10" x="574.9937" y="1340.3008"/><rect fill="#FFFFFF" height="31.291" style="stroke:#181818;stroke-width:1.0;" width="10" x="735.1436" y="576.3164"/><rect fill="#FFFFFF" height="31.291" style="stroke:#181818;stroke-width:1.0;" width="10" x="864.5811" y="826.6445"/><rect fill="#FFFFFF" height="31.291" style="stroke:#181818;stroke-width:1.0;" width="10" x="864.5811" y="1076.9727"/><rect fill="#FFFFFF" height="31.291" style="stroke:#181818;stroke-width:1.0;" width="10" x="1024.3735" y="219.1152"/><rect fill="#FFFFFF" height="31.291" style="stroke:#181818;stroke-width:1.0;" width="10" x="1159.6523" y="281.6973"/><rect fill="#FFFFFF" height="31.291" style="stroke:#181818;stroke-width:1.0;" width="10" x="1279.7451" y="451.1523"/><rect fill="#FFFFFF" height="31.291" style="stroke:#181818;stroke-width:1.0;" width="10" x="1407.231" y="513.7344"/><rect fill="#FFFFFF" height="31.291" style="stroke:#181818;stroke-width:1.0;" width="10" x="1407.231" y="1371.5918"/><rect fill="#FFFFFF" height="31.291" style="stroke:#181818;stroke-width:1.0;" width="10" x="1556.1167" y="764.0625"/><rect fill="#FFFFFF" height="31.291" style="stroke:#181818;stroke-width:1.0;" width="10" x="1556.1167" y="1014.3906"/><rect fill="#FFFFFF" height="31.291" style="stroke:#181818;stroke-width:1.0;" width="10" x="1556.1167" y="1434.1738"/><rect fill="#FFFFFF" height="31.291" style="stroke:#181818;stroke-width:1.0;" width="10" x="1707.3369" y="1571.668"/><rect fill="#FFFFFF" height="200.0762" style="stroke:#181818;stroke-width:1.0;" width="10" x="2003.9116" y="1496.7559"/><rect fill="#FFFFFF" height="31.291" style="stroke:#181818;stroke-width:1.0;" width="10" x="2179.2515" y="1634.25"/><polygon fill="#181818" points="339.2148,152.5332,349.2148,156.5332,339.2148,160.5332,343.2148,156.5332" style="stroke:#181818;stroke-width:1.0;"/><line style="stroke:#181818;stroke-width:1.0;" x1="31.2861" x2="345.2148" y1="156.5332" y2="156.5332"/><text fill="#000000" font-family="sans-serif" font-size="13" font-weight="bold" lengthAdjust="spacing" textLength="7.23" x="38.2861" y="151.2705">1</text><text fill="#000000" font-family="sans-serif" font-size="13" lengthAdjust="spacing" textLength="133.688" x="49.5161" y="151.2705">asks to add an industry</text><polygon fill="#181818" points="562.9937,183.8242,572.9937,187.8242,562.9937,191.8242,566.9937,187.8242" style="stroke:#181818;stroke-width:1.0;"/><line style="stroke:#181818;stroke-width:1.0;" x1="361.2148" x2="568.9937" y1="187.8242" y2="187.8242"/><text fill="#000000" font-family="sans-serif" font-size="13" font-weight="bold" lengthAdjust="spacing" textLength="7.23" x="368.2148" y="182.5615">2</text><text fill="#000000" font-family="sans-serif" font-size="13" lengthAdjust="spacing" textLength="124.2617" x="379.4448" y="182.5615">getCurrentUserRole()</text><polygon fill="#181818" points="1012.3735,215.1152,1022.3735,219.1152,1012.3735,223.1152,1016.3735,219.1152" style="stroke:#181818;stroke-width:1.0;"/><line style="stroke:#181818;stroke-width:1.0;" x1="584.9937" x2="1018.3735" y1="219.1152" y2="219.1152"/><text fill="#000000" font-family="sans-serif" font-size="13" font-weight="bold" lengthAdjust="spacing" textLength="7.23" x="591.9937" y="213.8525">3</text><text fill="#000000" font-family="sans-serif" font-size="13" lengthAdjust="spacing" textLength="143.7744" x="603.2236" y="213.8525">getCurrentUserSession()</text><polygon fill="#181818" points="595.9937,246.4063,585.9937,250.4063,595.9937,254.4063,591.9937,250.4063" style="stroke:#181818;stroke-width:1.0;"/><line style="stroke:#181818;stroke-width:1.0;stroke-dasharray:2.0,2.0;" x1="589.9937" x2="1028.3735" y1="250.4063" y2="250.4063"/><text fill="#000000" font-family="sans-serif" font-size="13" font-weight="bold" lengthAdjust="spacing" textLength="7.23" x="601.9937" y="245.1436">4</text><text fill="#000000" font-family="sans-serif" font-size="13" lengthAdjust="spacing" textLength="71.5381" x="613.2236" y="245.1436">userSession</text><polygon fill="#181818" points="1147.6523,277.6973,1157.6523,281.6973,1147.6523,285.6973,1151.6523,281.6973" style="stroke:#181818;stroke-width:1.0;"/><line style="stroke:#181818;stroke-width:1.0;" x1="584.9937" x2="1153.6523" y1="281.6973" y2="281.6973"/><text fill="#000000" font-family="sans-serif" font-size="13" font-weight="bold" lengthAdjust="spacing" textLength="7.23" x="591.9937" y="276.4346">5</text><text fill="#000000" font-family="sans-serif" font-size="13" lengthAdjust="spacing" textLength="87.4136" x="603.2236" y="276.4346">getUserRoles()</text><polygon fill="#181818" points="595.9937,308.9883,585.9937,312.9883,595.9937,316.9883,591.9937,312.9883" style="stroke:#181818;stroke-width:1.0;"/><line style="stroke:#181818;stroke-width:1.0;stroke-dasharray:2.0,2.0;" x1="589.9937" x2="1163.6523" y1="312.9883" y2="312.9883"/><text fill="#000000" font-family="sans-serif" font-size="13" font-weight="bold" lengthAdjust="spacing" textLength="7.23" x="601.9937" y="307.7256">6</text><text fill="#000000" font-family="sans-serif" font-size="13" lengthAdjust="spacing" textLength="28.1772" x="613.2236" y="307.7256">roles</text><polygon fill="#181818" points="372.2148,340.2793,362.2148,344.2793,372.2148,348.2793,368.2148,344.2793" style="stroke:#181818;stroke-width:1.0;"/><line style="stroke:#181818;stroke-width:1.0;stroke-dasharray:2.0,2.0;" x1="366.2148" x2="578.9937" y1="344.2793" y2="344.2793"/><text fill="#000000" font-family="sans-serif" font-size="13" font-weight="bold" lengthAdjust="spacing" textLength="7.23" x="378.2148" y="339.0166">7</text><text fill="#000000" font-family="sans-serif" font-size="13" lengthAdjust="spacing" textLength="28.1772" x="389.4448" y="339.0166">roles</text><line style="stroke:#181818;stroke-width:1.0;" x1="361.2148" x2="403.2148" y1="375.5703" y2="375.5703"/><line style="stroke:#181818;stroke-width:1.0;" x1="403.2148" x2="403.2148" y1="375.5703" y2="388.5703"/><line style="stroke:#181818;stroke-width:1.0;" x1="362.2148" x2="403.2148" y1="388.5703" y2="388.5703"/><polygon fill="#181818" points="372.2148,384.5703,362.2148,388.5703,372.2148,392.5703,368.2148,388.5703" style="stroke:#181818;stroke-width:1.0;"/><text fill="#000000" font-family="sans-serif" font-size="13" font-weight="bold" lengthAdjust="spacing" textLength="7.23" x="368.2148" y="370.3076">8</text><text fill="#000000" font-family="sans-serif" font-size="13" lengthAdjust="spacing" textLength="123.3921" x="379.4448" y="370.3076">validateRole("Editor")</text><polygon fill="#181818" points="562.9937,415.8613,572.9937,419.8613,562.9937,423.8613,566.9937,419.8613" style="stroke:#181818;stroke-width:1.0;"/><line style="stroke:#181818;stroke-width:1.0;" x1="361.2148" x2="568.9937" y1="419.8613" y2="419.8613"/><text fill="#000000" font-family="sans-serif" font-size="13" font-weight="bold" lengthAdjust="spacing" textLength="7.23" x="368.2148" y="414.5986">9</text><text fill="#000000" font-family="sans-serif" font-size="13" lengthAdjust="spacing" textLength="72.249" x="379.4448" y="414.5986">getMapList()</text><polygon fill="#181818" points="1267.7451,447.1523,1277.7451,451.1523,1267.7451,455.1523,1271.7451,451.1523" style="stroke:#181818;stroke-width:1.0;"/><line style="stroke:#181818;stroke-width:1.0;" x1="584.9937" x2="1273.7451" y1="451.1523" y2="451.1523"/><text fill="#000000" font-family="sans-serif" font-size="13" font-weight="bold" lengthAdjust="spacing" textLength="14.46" x="591.9937" y="445.8896">10</text><text fill="#000000" font-family="sans-serif" font-size="13" lengthAdjust="spacing" textLength="114.1563" x="610.4536" y="445.8896">getMapRepository()</text><polygon fill="#181818" points="595.9937,478.4434,585.9937,482.4434,595.9937,486.4434,591.9937,482.4434" style="stroke:#181818;stroke-width:1.0;"/><line style="stroke:#181818;stroke-width:1.0;stroke-dasharray:2.0,2.0;" x1="589.9937" x2="1283.7451" y1="482.4434" y2="482.4434"/><text fill="#000000" font-family="sans-serif" font-size="13" font-weight="bold" lengthAdjust="spacing" textLength="14.46" x="601.9937" y="477.1807">11</text><text fill="#000000" font-family="sans-serif" font-size="13" lengthAdjust="spacing" textLength="87.4263" x="620.4536" y="477.1807">mapRepository</text><polygon fill="#181818" points="1395.231,509.7344,1405.231,513.7344,1395.231,517.7344,1399.231,513.7344" style="stroke:#181818;stroke-width:1.0;"/><line style="stroke:#181818;stroke-width:1.0;" x1="584.9937" x2="1401.231" y1="513.7344" y2="513.7344"/><text fill="#000000" font-family="sans-serif" font-size="13" font-weight="bold" lengthAdjust="spacing" textLength="14.46" x="591.9937" y="508.4717">12</text><text fill="#000000" font-family="sans-serif" font-size="13" lengthAdjust="spacing" textLength="72.9663" x="610.4536" y="508.4717">getAllMaps()</text><polygon fill="#181818" points="595.9937,541.0254,585.9937,545.0254,595.9937,549.0254,591.9937,545.0254" style="stroke:#181818;stroke-width:1.0;"/><line style="stroke:#181818;stroke-width:1.0;stroke-dasharray:2.0,2.0;" x1="589.9937" x2="1411.231" y1="545.0254" y2="545.0254"/><text fill="#000000" font-family="sans-serif" font-size="13" font-weight="bold" lengthAdjust="spacing" textLength="14.46" x="601.9937" y="539.7627">13</text><text fill="#000000" font-family="sans-serif" font-size="13" lengthAdjust="spacing" textLength="45.519" x="620.4536" y="539.7627">mapList</text><polygon fill="#181818" points="723.1436,572.3164,733.1436,576.3164,723.1436,580.3164,727.1436,576.3164" style="stroke:#181818;stroke-width:1.0;"/><line style="stroke:#181818;stroke-width:1.0;" x1="584.9937" x2="729.1436" y1="576.3164" y2="576.3164"/><text fill="#000000" font-family="sans-serif" font-size="13" font-weight="bold" lengthAdjust="spacing" textLength="14.46" x="591.9937" y="571.0537">14</text><text fill="#000000" font-family="sans-serif" font-size="13" lengthAdjust="spacing" textLength="112.6899" x="610.4536" y="571.0537">toDTOList(mapList)</text><polygon fill="#181818" points="595.9937,603.6074,585.9937,607.6074,595.9937,611.6074,591.9937,607.6074" style="stroke:#181818;stroke-width:1.0;"/><line style="stroke:#181818;stroke-width:1.0;stroke-dasharray:2.0,2.0;" x1="589.9937" x2="739.1436" y1="607.6074" y2="607.6074"/><text fill="#000000" font-family="sans-serif" font-size="13" font-weight="bold" lengthAdjust="spacing" textLength="14.46" x="601.9937" y="602.3447">15</text><text fill="#000000" font-family="sans-serif" font-size="13" lengthAdjust="spacing" textLength="72.96" x="620.4536" y="602.3447">mapDTOList</text><polygon fill="#181818" points="372.2148,634.8984,362.2148,638.8984,372.2148,642.8984,368.2148,638.8984" style="stroke:#181818;stroke-width:1.0;"/><line style="stroke:#181818;stroke-width:1.0;stroke-dasharray:2.0,2.0;" x1="366.2148" x2="578.9937" y1="638.8984" y2="638.8984"/><text fill="#000000" font-family="sans-serif" font-size="13" font-weight="bold" lengthAdjust="spacing" textLength="14.46" x="378.2148" y="633.6357">16</text><text fill="#000000" font-family="sans-serif" font-size="13" lengthAdjust="spacing" textLength="72.96" x="396.6748" y="633.6357">mapDTOList</text><polygon fill="#181818" points="42.2861,666.1895,32.2861,670.1895,42.2861,674.1895,38.2861,670.1895" style="stroke:#181818;stroke-width:1.0;"/><line style="stroke:#181818;stroke-width:1.0;stroke-dasharray:2.0,2.0;" x1="36.2861" x2="355.2148" y1="670.1895" y2="670.1895"/><text fill="#000000" font-family="sans-serif" font-size="13" font-weight="bold" lengthAdjust="spacing" textLength="14.46" x="48.2861" y="664.9268">17</text><text fill="#000000" font-family="sans-serif" font-size="13" lengthAdjust="spacing" textLength="218.2197" x="66.7461" y="664.9268">shows map list and asks to select one</text><polygon fill="#181818" points="339.2148,697.4805,349.2148,701.4805,339.2148,705.4805,343.2148,701.4805" style="stroke:#181818;stroke-width:1.0;"/><line style="stroke:#181818;stroke-width:1.0;" x1="31.2861" x2="345.2148" y1="701.4805" y2="701.4805"/><text fill="#000000" font-family="sans-serif" font-size="13" font-weight="bold" lengthAdjust="spacing" textLength="14.46" x="38.2861" y="696.2178">18</text><text fill="#000000" font-family="sans-serif" font-size="13" lengthAdjust="spacing" textLength="69.3608" x="56.7461" y="696.2178">selects map</text><polygon fill="#181818" points="562.9937,728.7715,572.9937,732.7715,562.9937,736.7715,566.9937,732.7715" style="stroke:#181818;stroke-width:1.0;"/><line style="stroke:#181818;stroke-width:1.0;" x1="361.2148" x2="568.9937" y1="732.7715" y2="732.7715"/><text fill="#000000" font-family="sans-serif" font-size="13" font-weight="bold" lengthAdjust="spacing" textLength="14.46" x="368.2148" y="727.5088">19</text><text fill="#000000" font-family="sans-serif" font-size="13" lengthAdjust="spacing" textLength="122.1035" x="386.6748" y="727.5088">getIndustryTypeList()</text><polygon fill="#181818" points="1544.1167,760.0625,1554.1167,764.0625,1544.1167,768.0625,1548.1167,764.0625" style="stroke:#181818;stroke-width:1.0;"/><line style="stroke:#181818;stroke-width:1.0;" x1="584.9937" x2="1550.1167" y1="764.0625" y2="764.0625"/><text fill="#000000" font-family="sans-serif" font-size="13" font-weight="bold" lengthAdjust="spacing" textLength="14.46" x="591.9937" y="758.7998">20</text><text fill="#000000" font-family="sans-serif" font-size="13" lengthAdjust="spacing" textLength="122.8208" x="610.4536" y="758.7998">getAllIndustryTypes()</text><polygon fill="#181818" points="595.9937,791.3535,585.9937,795.3535,595.9937,799.3535,591.9937,795.3535" style="stroke:#181818;stroke-width:1.0;"/><line style="stroke:#181818;stroke-width:1.0;stroke-dasharray:2.0,2.0;" x1="589.9937" x2="1560.1167" y1="795.3535" y2="795.3535"/><text fill="#000000" font-family="sans-serif" font-size="13" font-weight="bold" lengthAdjust="spacing" textLength="14.46" x="601.9937" y="790.0908">21</text><text fill="#000000" font-family="sans-serif" font-size="13" lengthAdjust="spacing" textLength="94.6499" x="620.4536" y="790.0908">industryTypeList</text><polygon fill="#181818" points="852.5811,822.6445,862.5811,826.6445,852.5811,830.6445,856.5811,826.6445" style="stroke:#181818;stroke-width:1.0;"/><line style="stroke:#181818;stroke-width:1.0;" x1="584.9937" x2="858.5811" y1="826.6445" y2="826.6445"/><text fill="#000000" font-family="sans-serif" font-size="13" font-weight="bold" lengthAdjust="spacing" textLength="14.46" x="591.9937" y="821.3818">22</text><text fill="#000000" font-family="sans-serif" font-size="13" lengthAdjust="spacing" textLength="161.8208" x="610.4536" y="821.3818">toDTOList(industryTypeList)</text><polygon fill="#181818" points="595.9937,853.9355,585.9937,857.9355,595.9937,861.9355,591.9937,857.9355" style="stroke:#181818;stroke-width:1.0;"/><line style="stroke:#181818;stroke-width:1.0;stroke-dasharray:2.0,2.0;" x1="589.9937" x2="868.5811" y1="857.9355" y2="857.9355"/><text fill="#000000" font-family="sans-serif" font-size="13" font-weight="bold" lengthAdjust="spacing" textLength="14.46" x="601.9937" y="852.6729">23</text><text fill="#000000" font-family="sans-serif" font-size="13" lengthAdjust="spacing" textLength="122.0908" x="620.4536" y="852.6729">industryTypeDTOList</text><polygon fill="#181818" points="372.2148,885.2266,362.2148,889.2266,372.2148,893.2266,368.2148,889.2266" style="stroke:#181818;stroke-width:1.0;"/><line style="stroke:#181818;stroke-width:1.0;stroke-dasharray:2.0,2.0;" x1="366.2148" x2="578.9937" y1="889.2266" y2="889.2266"/><text fill="#000000" font-family="sans-serif" font-size="13" font-weight="bold" lengthAdjust="spacing" textLength="14.46" x="378.2148" y="883.9639">24</text><text fill="#000000" font-family="sans-serif" font-size="13" lengthAdjust="spacing" textLength="122.0908" x="396.6748" y="883.9639">industryTypeDTOList</text><polygon fill="#181818" points="42.2861,916.5176,32.2861,920.5176,42.2861,924.5176,38.2861,920.5176" style="stroke:#181818;stroke-width:1.0;"/><line style="stroke:#181818;stroke-width:1.0;stroke-dasharray:2.0,2.0;" x1="36.2861" x2="355.2148" y1="920.5176" y2="920.5176"/><text fill="#000000" font-family="sans-serif" font-size="13" font-weight="bold" lengthAdjust="spacing" textLength="14.46" x="48.2861" y="915.2549">25</text><text fill="#000000" font-family="sans-serif" font-size="13" lengthAdjust="spacing" textLength="159.6943" x="66.7461" y="915.2549">shows industry type options</text><polygon fill="#181818" points="339.2148,947.8086,349.2148,951.8086,339.2148,955.8086,343.2148,951.8086" style="stroke:#181818;stroke-width:1.0;"/><line style="stroke:#181818;stroke-width:1.0;" x1="31.2861" x2="345.2148" y1="951.8086" y2="951.8086"/><text fill="#000000" font-family="sans-serif" font-size="13" font-weight="bold" lengthAdjust="spacing" textLength="14.46" x="38.2861" y="946.5459">26</text><text fill="#000000" font-family="sans-serif" font-size="13" lengthAdjust="spacing" textLength="117.7744" x="56.7461" y="946.5459">selects industry type</text><polygon fill="#181818" points="562.9937,979.0996,572.9937,983.0996,562.9937,987.0996,566.9937,983.0996" style="stroke:#181818;stroke-width:1.0;"/><line style="stroke:#181818;stroke-width:1.0;" x1="361.2148" x2="568.9937" y1="983.0996" y2="983.0996"/><text fill="#000000" font-family="sans-serif" font-size="13" font-weight="bold" lengthAdjust="spacing" textLength="14.46" x="368.2148" y="977.8369">27</text><text fill="#000000" font-family="sans-serif" font-size="13" lengthAdjust="spacing" textLength="176.3188" x="386.6748" y="977.8369">getIndustrySubtypeList(typeId)</text><polygon fill="#181818" points="1544.1167,1010.3906,1554.1167,1014.3906,1544.1167,1018.3906,1548.1167,1014.3906" style="stroke:#181818;stroke-width:1.0;"/><line style="stroke:#181818;stroke-width:1.0;" x1="584.9937" x2="1550.1167" y1="1014.3906" y2="1014.3906"/><text fill="#000000" font-family="sans-serif" font-size="13" font-weight="bold" lengthAdjust="spacing" textLength="14.46" x="591.9937" y="1009.1279">28</text><text fill="#000000" font-family="sans-serif" font-size="13" lengthAdjust="spacing" textLength="171.2598" x="610.4536" y="1009.1279">getSubtypesByTypeId(typeId)</text><polygon fill="#181818" points="595.9937,1041.6816,585.9937,1045.6816,595.9937,1049.6816,591.9937,1045.6816" style="stroke:#181818;stroke-width:1.0;"/><line style="stroke:#181818;stroke-width:1.0;stroke-dasharray:2.0,2.0;" x1="589.9937" x2="1560.1167" y1="1045.6816" y2="1045.6816"/><text fill="#000000" font-family="sans-serif" font-size="13" font-weight="bold" lengthAdjust="spacing" textLength="14.46" x="601.9937" y="1040.4189">29</text><text fill="#000000" font-family="sans-serif" font-size="13" lengthAdjust="spacing" textLength="113.4517" x="620.4536" y="1040.4189">industrySubtypeList</text><polygon fill="#181818" points="852.5811,1072.9727,862.5811,1076.9727,852.5811,1080.9727,856.5811,1076.9727" style="stroke:#181818;stroke-width:1.0;"/><line style="stroke:#181818;stroke-width:1.0;" x1="584.9937" x2="858.5811" y1="1076.9727" y2="1076.9727"/><text fill="#000000" font-family="sans-serif" font-size="13" font-weight="bold" lengthAdjust="spacing" textLength="14.46" x="591.9937" y="1071.71">30</text><text fill="#000000" font-family="sans-serif" font-size="13" lengthAdjust="spacing" textLength="230.4834" x="610.4536" y="1071.71">subtypeToDTOList(industrySubtypeList)</text><polygon fill="#181818" points="595.9937,1104.2637,585.9937,1108.2637,595.9937,1112.2637,591.9937,1108.2637" style="stroke:#181818;stroke-width:1.0;"/><line style="stroke:#181818;stroke-width:1.0;stroke-dasharray:2.0,2.0;" x1="589.9937" x2="868.5811" y1="1108.2637" y2="1108.2637"/><text fill="#000000" font-family="sans-serif" font-size="13" font-weight="bold" lengthAdjust="spacing" textLength="14.46" x="601.9937" y="1103.001">31</text><text fill="#000000" font-family="sans-serif" font-size="13" lengthAdjust="spacing" textLength="140.8926" x="620.4536" y="1103.001">industrySubtypeDTOList</text><polygon fill="#181818" points="372.2148,1135.5547,362.2148,1139.5547,372.2148,1143.5547,368.2148,1139.5547" style="stroke:#181818;stroke-width:1.0;"/><line style="stroke:#181818;stroke-width:1.0;stroke-dasharray:2.0,2.0;" x1="366.2148" x2="578.9937" y1="1139.5547" y2="1139.5547"/><text fill="#000000" font-family="sans-serif" font-size="13" font-weight="bold" lengthAdjust="spacing" textLength="14.46" x="378.2148" y="1134.292">32</text><text fill="#000000" font-family="sans-serif" font-size="13" lengthAdjust="spacing" textLength="140.8926" x="396.6748" y="1134.292">industrySubtypeDTOList</text><polygon fill="#181818" points="42.2861,1166.8457,32.2861,1170.8457,42.2861,1174.8457,38.2861,1170.8457" style="stroke:#181818;stroke-width:1.0;"/><line style="stroke:#181818;stroke-width:1.0;stroke-dasharray:2.0,2.0;" x1="36.2861" x2="355.2148" y1="1170.8457" y2="1170.8457"/><text fill="#000000" font-family="sans-serif" font-size="13" font-weight="bold" lengthAdjust="spacing" textLength="14.46" x="48.2861" y="1165.583">33</text><text fill="#000000" font-family="sans-serif" font-size="13" lengthAdjust="spacing" textLength="277.4688" x="66.7461" y="1165.583">shows industry subtype options (filtered by type)</text><polygon fill="#181818" points="339.2148,1198.1367,349.2148,1202.1367,339.2148,1206.1367,343.2148,1202.1367" style="stroke:#181818;stroke-width:1.0;"/><line style="stroke:#181818;stroke-width:1.0;" x1="31.2861" x2="345.2148" y1="1202.1367" y2="1202.1367"/><text fill="#000000" font-family="sans-serif" font-size="13" font-weight="bold" lengthAdjust="spacing" textLength="14.46" x="38.2861" y="1196.874">34</text><text fill="#000000" font-family="sans-serif" font-size="13" lengthAdjust="spacing" textLength="138.7344" x="56.7461" y="1196.874">selects industry subtype</text><polygon fill="#181818" points="42.2861,1229.4277,32.2861,1233.4277,42.2861,1237.4277,38.2861,1233.4277" style="stroke:#181818;stroke-width:1.0;"/><line style="stroke:#181818;stroke-width:1.0;stroke-dasharray:2.0,2.0;" x1="36.2861" x2="355.2148" y1="1233.4277" y2="1233.4277"/><text fill="#000000" font-family="sans-serif" font-size="13" font-weight="bold" lengthAdjust="spacing" textLength="14.46" x="48.2861" y="1228.165">35</text><text fill="#000000" font-family="sans-serif" font-size="13" lengthAdjust="spacing" textLength="141.6353" x="66.7461" y="1228.165">requests XY coordinates</text><polygon fill="#181818" points="339.2148,1260.7188,349.2148,1264.7188,339.2148,1268.7188,343.2148,1264.7188" style="stroke:#181818;stroke-width:1.0;"/><line style="stroke:#181818;stroke-width:1.0;" x1="31.2861" x2="345.2148" y1="1264.7188" y2="1264.7188"/><text fill="#000000" font-family="sans-serif" font-size="13" font-weight="bold" lengthAdjust="spacing" textLength="14.46" x="38.2861" y="1259.4561">36</text><text fill="#000000" font-family="sans-serif" font-size="13" lengthAdjust="spacing" textLength="155.3779" x="56.7461" y="1259.4561">inputs X and Y coordinates</text><line style="stroke:#181818;stroke-width:1.0;" x1="361.2148" x2="403.2148" y1="1296.0098" y2="1296.0098"/><line style="stroke:#181818;stroke-width:1.0;" x1="403.2148" x2="403.2148" y1="1296.0098" y2="1309.0098"/><line style="stroke:#181818;stroke-width:1.0;" x1="362.2148" x2="403.2148" y1="1309.0098" y2="1309.0098"/><polygon fill="#181818" points="372.2148,1305.0098,362.2148,1309.0098,372.2148,1313.0098,368.2148,1309.0098" style="stroke:#181818;stroke-width:1.0;"/><text fill="#000000" font-family="sans-serif" font-size="13" font-weight="bold" lengthAdjust="spacing" textLength="14.46" x="368.2148" y="1290.7471">37</text><text fill="#000000" font-family="sans-serif" font-size="13" lengthAdjust="spacing" textLength="119.209" x="386.6748" y="1290.7471">collectIndustryData()</text><polygon fill="#181818" points="562.9937,1336.3008,572.9937,1340.3008,562.9937,1344.3008,566.9937,1340.3008" style="stroke:#181818;stroke-width:1.0;"/><line style="stroke:#181818;stroke-width:1.0;" x1="361.2148" x2="568.9937" y1="1340.3008" y2="1340.3008"/><text fill="#000000" font-family="sans-serif" font-size="13" font-weight="bold" lengthAdjust="spacing" textLength="14.46" x="368.2148" y="1335.0381">38</text><text fill="#000000" font-family="sans-serif" font-size="13" lengthAdjust="spacing" textLength="119.9517" x="386.6748" y="1335.0381">addIndustry(request)</text><polygon fill="#181818" points="1395.231,1367.5918,1405.231,1371.5918,1395.231,1375.5918,1399.231,1371.5918" style="stroke:#181818;stroke-width:1.0;"/><line style="stroke:#181818;stroke-width:1.0;" x1="584.9937" x2="1401.231" y1="1371.5918" y2="1371.5918"/><text fill="#000000" font-family="sans-serif" font-size="13" font-weight="bold" lengthAdjust="spacing" textLength="14.46" x="591.9937" y="1366.3291">39</text><text fill="#000000" font-family="sans-serif" font-size="13" lengthAdjust="spacing" textLength="138.7344" x="610.4536" y="1366.3291">findById(request.mapId)</text><polygon fill="#181818" points="595.9937,1398.8828,585.9937,1402.8828,595.9937,1406.8828,591.9937,1402.8828" style="stroke:#181818;stroke-width:1.0;"/><line style="stroke:#181818;stroke-width:1.0;stroke-dasharray:2.0,2.0;" x1="589.9937" x2="1411.231" y1="1402.8828" y2="1402.8828"/><text fill="#000000" font-family="sans-serif" font-size="13" font-weight="bold" lengthAdjust="spacing" textLength="14.46" x="601.9937" y="1397.6201">40</text><text fill="#000000" font-family="sans-serif" font-size="13" lengthAdjust="spacing" textLength="73.709" x="620.4536" y="1397.6201">selectedMap</text><polygon fill="#181818" points="1544.1167,1430.1738,1554.1167,1434.1738,1544.1167,1438.1738,1548.1167,1434.1738" style="stroke:#181818;stroke-width:1.0;"/><line style="stroke:#181818;stroke-width:1.0;" x1="584.9937" x2="1550.1167" y1="1434.1738" y2="1434.1738"/><text fill="#000000" font-family="sans-serif" font-size="13" font-weight="bold" lengthAdjust="spacing" textLength="14.46" x="591.9937" y="1428.9111">41</text><text fill="#000000" font-family="sans-serif" font-size="13" lengthAdjust="spacing" textLength="254.3696" x="610.4536" y="1428.9111">findSubtypeById(request.industrySubtypeId)</text><polygon fill="#181818" points="595.9937,1461.4648,585.9937,1465.4648,595.9937,1469.4648,591.9937,1465.4648" style="stroke:#181818;stroke-width:1.0;"/><line style="stroke:#181818;stroke-width:1.0;stroke-dasharray:2.0,2.0;" x1="589.9937" x2="1560.1167" y1="1465.4648" y2="1465.4648"/><text fill="#000000" font-family="sans-serif" font-size="13" font-weight="bold" lengthAdjust="spacing" textLength="14.46" x="601.9937" y="1460.2021">42</text><text fill="#000000" font-family="sans-serif" font-size="13" lengthAdjust="spacing" textLength="96.1226" x="620.4536" y="1460.2021">selectedSubtype</text><polygon fill="#181818" points="1991.9116,1492.7559,2001.9116,1496.7559,1991.9116,1500.7559,1995.9116,1496.7559" style="stroke:#181818;stroke-width:1.0;"/><line style="stroke:#181818;stroke-width:1.0;" x1="584.9937" x2="1997.9116" y1="1496.7559" y2="1496.7559"/><text fill="#000000" font-family="sans-serif" font-size="13" font-weight="bold" lengthAdjust="spacing" textLength="14.46" x="591.9937" y="1491.4932">43</text><text fill="#000000" font-family="sans-serif" font-size="13" lengthAdjust="spacing" textLength="318.6714" x="610.4536" y="1491.4932">createIndustry(request, selectedMap, selectedSubtype)</text><polygon fill="#181818" points="1781.6919,1524.0469,1771.6919,1528.0469,1781.6919,1532.0469,1777.6919,1528.0469" style="stroke:#181818;stroke-width:1.0;"/><line style="stroke:#181818;stroke-width:1.0;stroke-dasharray:2.0,2.0;" x1="1775.6919" x2="2002.9116" y1="1528.0469" y2="1528.0469"/><text fill="#000000" font-family="sans-serif" font-size="13" font-weight="bold" lengthAdjust="spacing" textLength="14.46" x="1787.6919" y="1522.7842">44</text><text fill="#000000" font-family="sans-serif" font-size="13" lengthAdjust="spacing" textLength="190.7598" x="1806.1519" y="1522.7842">create industry from request data</text><rect fill="#E3E3E3" height="32.6211" rx="2.5" ry="2.5" style="stroke:#181818;stroke-width:0.5;" width="116.71" x="1653.9819" y="1504.7559"/><text fill="#000000" font-family="sans-serif" font-size="14" lengthAdjust="spacing" textLength="102.71" x="1660.9819" y="1526.8633">industry:Industry</text><polygon fill="#181818" points="1728.3369,1567.668,1718.3369,1571.668,1728.3369,1575.668,1724.3369,1571.668" style="stroke:#181818;stroke-width:1.0;"/><line style="stroke:#181818;stroke-width:1.0;" x1="1722.3369" x2="2002.9116" y1="1571.668" y2="1571.668"/><text fill="#000000" font-family="sans-serif" font-size="13" font-weight="bold" lengthAdjust="spacing" textLength="14.46" x="1734.3369" y="1566.4053">45</text><text fill="#000000" font-family="sans-serif" font-size="13" lengthAdjust="spacing" textLength="80.9263" x="1752.7969" y="1566.4053">validateData()</text><polygon fill="#181818" points="1991.9116,1598.959,2001.9116,1602.959,1991.9116,1606.959,1995.9116,1602.959" style="stroke:#181818;stroke-width:1.0;"/><line style="stroke:#181818;stroke-width:1.0;stroke-dasharray:2.0,2.0;" x1="1712.3369" x2="1997.9116" y1="1602.959" y2="1602.959"/><text fill="#000000" font-family="sans-serif" font-size="13" font-weight="bold" lengthAdjust="spacing" textLength="14.46" x="1719.3369" y="1597.6963">46</text><text fill="#000000" font-family="sans-serif" font-size="13" lengthAdjust="spacing" textLength="91.7744" x="1737.7969" y="1597.6963">validationResult</text><polygon fill="#181818" points="2167.2515,1630.25,2177.2515,1634.25,2167.2515,1638.25,2171.2515,1634.25" style="stroke:#181818;stroke-width:1.0;"/><line style="stroke:#181818;stroke-width:1.0;" x1="2013.9116" x2="2173.2515" y1="1634.25" y2="1634.25"/><text fill="#000000" font-family="sans-serif" font-size="13" font-weight="bold" lengthAdjust="spacing" textLength="14.46" x="2020.9116" y="1628.9873">47</text><text fill="#000000" font-family="sans-serif" font-size="13" lengthAdjust="spacing" textLength="127.8799" x="2039.3716" y="1628.9873">saveIndustry(industry)</text><polygon fill="#181818" points="2024.9116,1661.541,2014.9116,1665.541,2024.9116,1669.541,2020.9116,1665.541" style="stroke:#181818;stroke-width:1.0;"/><line style="stroke:#181818;stroke-width:1.0;stroke-dasharray:2.0,2.0;" x1="2018.9116" x2="2183.2515" y1="1665.541" y2="1665.541"/><text fill="#000000" font-family="sans-serif" font-size="13" font-weight="bold" lengthAdjust="spacing" textLength="14.46" x="2030.9116" y="1660.2783">48</text><text fill="#000000" font-family="sans-serif" font-size="13" lengthAdjust="spacing" textLength="46.96" x="2049.3716" y="1660.2783">success</text><polygon fill="#181818" points="595.9937,1692.832,585.9937,1696.832,595.9937,1700.832,591.9937,1696.832" style="stroke:#181818;stroke-width:1.0;"/><line style="stroke:#181818;stroke-width:1.0;stroke-dasharray:2.0,2.0;" x1="589.9937" x2="2007.9116" y1="1696.832" y2="1696.832"/><text fill="#000000" font-family="sans-serif" font-size="13" font-weight="bold" lengthAdjust="spacing" textLength="14.46" x="601.9937" y="1691.5693">49</text><text fill="#000000" font-family="sans-serif" font-size="13" lengthAdjust="spacing" textLength="45.519" x="620.4536" y="1691.5693">industry</text><polygon fill="#181818" points="372.2148,1724.123,362.2148,1728.123,372.2148,1732.123,368.2148,1728.123" style="stroke:#181818;stroke-width:1.0;"/><line style="stroke:#181818;stroke-width:1.0;stroke-dasharray:2.0,2.0;" x1="366.2148" x2="578.9937" y1="1728.123" y2="1728.123"/><text fill="#000000" font-family="sans-serif" font-size="13" font-weight="bold" lengthAdjust="spacing" textLength="14.46" x="378.2148" y="1722.8604">50</text><text fill="#000000" font-family="sans-serif" font-size="13" lengthAdjust="spacing" textLength="46.96" x="396.6748" y="1722.8604">success</text><polygon fill="#181818" points="37.2861,1755.4141,27.2861,1759.4141,37.2861,1763.4141,33.2861,1759.4141" style="stroke:#181818;stroke-width:1.0;"/><line style="stroke:#181818;stroke-width:1.0;stroke-dasharray:2.0,2.0;" x1="31.2861" x2="355.2148" y1="1759.4141" y2="1759.4141"/><text fill="#000000" font-family="sans-serif" font-size="13" font-weight="bold" lengthAdjust="spacing" textLength="14.46" x="43.2861" y="1754.1514">51</text><text fill="#000000" font-family="sans-serif" font-size="13" lengthAdjust="spacing" textLength="162.5698" x="61.7461" y="1754.1514">confirms successful addition</text><!--SRC=[jLZ1Rk8m4Btp5LPFK9NLQeyzh4I1xKOgfIAmsXxTn52h8MPjXug_tt5Y9uuJ1oXjXDIqpBnvutapjYlUQBh376_HbgKiUkLiIv3a6Uc9yfiTZjxmXeJoa134IIHnkabi0_6AO_PEqmrQuqIGNazI2QOX-PUHD29eGl56sVN3oG0DqIhy_WEDuXW5QPm9oGz8CZJ3E_ZgLvOalHxE94kpxGlXy1v9nj7LDARmymfXWQQJO3bVz22qf17TuLIYgrk0CsYh83TR1NwJCKibPqb22iJnSl7W60CT-EoqmMpq19-dgHlLu2qFEsAP1u-JLRXSFBVwZ3BvIbBu0vQKfI7XUngHt6sqMlvsZ5U2y9080PP5Kk4q38FvesDsZxTaGNPCg4Kwv9RtezbqCNsQD_Do385aYvsTcUDWicjwKUrKUjViFH7i5J2cuNJn9nXFFHuTV48bZUTSDNIF9J5YwI5uYdSq_0dQGBVW-YQKyZ0e4QV8aCzDItzG4T8FE86hqWeuRuWSPvn38LM95YmX_K5fMNhdmaBMati3YYfr0qKNsWAgWUNoGCwJ0mqhNbc5KxEDYH-dbQ5HMi7I92byv4fXkWHB78iaLqW-Ugr8BHHD6UjW5b1jyPqgvfvxdD0OBFFgcGapyBbKXOSUUg12dbLmquubGYLYtvAM7UmkQObbBUdMHlGjRIjYArqz50gseoG1mjxIcm7YqZGOTPPgvNpysf1yz8hP2fYIJPRpl1uQtKzJp-CMeXgjJbNZTh1j0UnGQWlaIN85VpswRc6hPUz28Q44S61knUKS4oI1lHcnbFJSbWfQ1s3XaAETFFJiVU7i9h0dTIaj6z6hiTgUuzQl1ckLa3fSVONqWdScqI90D-2HP3noT09u4ZeYpeuO7Ghj2l11gTBoZ0UOYEtKeKUSAT0QnjbI3RCNQTIgNeBuCirgF76NBrCGDq0_JxaMzIyIhoWYB1iQja9_bOnrY2zLiYV6fMBMosRqZFfhcaZ2IOnU2fKEFYfnZTofSfiOLvSi0GX_dr7468zf2XwdTXZSu3BbcsyaJG1_c-NUaRf2HMMZJR34_MFd9rpTmlgQ-pdjM1rCrh1aTmTeFuto3ROnRnUUSKOfAaBYcTuLBpcdECD3KTQ2h35tnFgviyJa4rh2-hGveYzgIWkS08nRsXjxEMzSBaVIDBT0NwOc-D0YT7rTSgbwQitPrZGAWXC_Ra0UZr65i6uEZkAzcJGix10r_jM2wXWmNXP4P8biOBGKxwAyglkpKWtULyKq2tb2fjObl2jdArPxzYAB8hZ6df9qHyYJfEFiIiSQf4sL7HkHcyZPEq_4qZNbMs6GrbcYXYYLvehlJ7dhL_tFZ_y0]--></g></svg>