<svg xmlns="http://www.w3.org/2000/svg" xmlns:xlink="http://www.w3.org/1999/xlink" contentStyleType="text/css" height="883px" preserveAspectRatio="none" style="width:867px;height:883px;background:#FFFFFF;" version="1.1" viewBox="0 0 867 883" width="867px" zoomAndPan="magnify"><title>Sequence Diagram (SD) - US02 Add Industry to Map - Split</title><defs/><g><text fill="#000000" font-family="sans-serif" font-size="14" font-weight="bold" lengthAdjust="spacing" textLength="388.1582" x="237.1765" y="30.1074">Sequence Diagram (SD) - US02 Add Industry to Map - Split</text><rect fill="#FFFFFF" height="649.082" style="stroke:#181818;stroke-width:1.0;" width="10" x="21.2861" y="133.2422"/><rect fill="#FFFFFF" height="186.416" style="stroke:#181818;stroke-width:1.0;" width="10" x="343.9849" y="156.5332"/><rect fill="#FFFFFF" height="79.543" style="stroke:#181818;stroke-width:1.0;" width="10" x="343.9849" y="374.2402"/><rect fill="#FFFFFF" height="79.543" style="stroke:#181818;stroke-width:1.0;" width="10" x="343.9849" y="485.0742"/><rect fill="#FFFFFF" height="31.291" style="stroke:#181818;stroke-width:1.0;" width="10" x="343.9849" y="595.9082"/><rect fill="#FFFFFF" height="123.834" style="stroke:#181818;stroke-width:1.0;" width="10" x="343.9849" y="658.4902"/><rect fill="#FFFFFF" height="31.291" style="stroke:#181818;stroke-width:1.0;" width="10" x="515.6538" y="187.8242"/><line style="stroke:#181818;stroke-width:0.5;stroke-dasharray:5.0,5.0;" x1="26" x2="26" y1="123.2422" y2="800.3242"/><line style="stroke:#181818;stroke-width:0.5;stroke-dasharray:5.0,5.0;" x1="348.6851" x2="348.6851" y1="123.2422" y2="800.3242"/><line style="stroke:#181818;stroke-width:0.5;stroke-dasharray:5.0,5.0;" x1="520.0093" x2="520.0093" y1="123.2422" y2="800.3242"/><line style="stroke:#181818;stroke-width:0.5;stroke-dasharray:5.0,5.0;" x1="669.2983" x2="669.2983" y1="123.2422" y2="800.3242"/><line style="stroke:#181818;stroke-width:0.5;stroke-dasharray:5.0,5.0;" x1="799.8013" x2="799.8013" y1="123.2422" y2="800.3242"/><text fill="#000000" font-family="sans-serif" font-size="14" lengthAdjust="spacing" textLength="36.5723" x="5" y="119.7285">Editor</text><ellipse cx="26.2861" cy="53.1211" fill="#E3E3E3" rx="8" ry="8" style="stroke:#181818;stroke-width:0.5;"/><path d="M26.2861,61.1211 L26.2861,88.1211 M13.2861,69.1211 L39.2861,69.1211 M26.2861,88.1211 L13.2861,103.1211 M26.2861,88.1211 L39.2861,103.1211 " fill="none" style="stroke:#181818;stroke-width:0.5;"/><text fill="#000000" font-family="sans-serif" font-size="14" lengthAdjust="spacing" textLength="36.5723" x="5" y="814.4316">Editor</text><ellipse cx="26.2861" cy="826.4453" fill="#E3E3E3" rx="8" ry="8" style="stroke:#181818;stroke-width:0.5;"/><path d="M26.2861,834.4453 L26.2861,861.4453 M13.2861,842.4453 L39.2861,842.4453 M26.2861,861.4453 L13.2861,876.4453 M26.2861,861.4453 L39.2861,876.4453 " fill="none" style="stroke:#181818;stroke-width:0.5;"/><rect fill="#E3E3E3" height="32.6211" rx="2.5" ry="2.5" style="stroke:#181818;stroke-width:0.5;" width="106.5996" x="295.6851" y="89.6211"/><text fill="#000000" font-family="sans-serif" font-size="14" lengthAdjust="spacing" textLength="92.5996" x="302.6851" y="111.7285">:AddIndustryUI</text><rect fill="#E3E3E3" height="32.6211" rx="2.5" ry="2.5" style="stroke:#181818;stroke-width:0.5;" width="106.5996" x="295.6851" y="799.3242"/><text fill="#000000" font-family="sans-serif" font-size="14" lengthAdjust="spacing" textLength="92.5996" x="302.6851" y="821.4316">:AddIndustryUI</text><rect fill="#E3E3E3" height="32.6211" rx="2.5" ry="2.5" style="stroke:#181818;stroke-width:0.5;" width="153.2891" x="444.0093" y="89.6211"/><text fill="#000000" font-family="sans-serif" font-size="14" lengthAdjust="spacing" textLength="139.2891" x="451.0093" y="111.7285">:AddIndustryController</text><rect fill="#E3E3E3" height="32.6211" rx="2.5" ry="2.5" style="stroke:#181818;stroke-width:0.5;" width="153.2891" x="444.0093" y="799.3242"/><text fill="#000000" font-family="sans-serif" font-size="14" lengthAdjust="spacing" textLength="139.2891" x="451.0093" y="821.4316">:AddIndustryController</text><rect fill="#E3E3E3" height="32.6211" rx="2.5" ry="2.5" style="stroke:#181818;stroke-width:0.5;" width="124.5029" x="607.2983" y="89.6211"/><text fill="#000000" font-family="sans-serif" font-size="14" lengthAdjust="spacing" textLength="110.5029" x="614.2983" y="111.7285">selectedMap:Map</text><rect fill="#E3E3E3" height="32.6211" rx="2.5" ry="2.5" style="stroke:#181818;stroke-width:0.5;" width="124.5029" x="607.2983" y="799.3242"/><text fill="#000000" font-family="sans-serif" font-size="14" lengthAdjust="spacing" textLength="110.5029" x="614.2983" y="821.4316">selectedMap:Map</text><rect fill="#E3E3E3" height="32.6211" rx="2.5" ry="2.5" style="stroke:#181818;stroke-width:0.5;" width="116.71" x="741.8013" y="89.6211"/><text fill="#000000" font-family="sans-serif" font-size="14" lengthAdjust="spacing" textLength="102.71" x="748.8013" y="111.7285">industry:Industry</text><rect fill="#E3E3E3" height="32.6211" rx="2.5" ry="2.5" style="stroke:#181818;stroke-width:0.5;" width="116.71" x="741.8013" y="799.3242"/><text fill="#000000" font-family="sans-serif" font-size="14" lengthAdjust="spacing" textLength="102.71" x="748.8013" y="821.4316">industry:Industry</text><rect fill="#FFFFFF" height="649.082" style="stroke:#181818;stroke-width:1.0;" width="10" x="21.2861" y="133.2422"/><rect fill="#FFFFFF" height="186.416" style="stroke:#181818;stroke-width:1.0;" width="10" x="343.9849" y="156.5332"/><rect fill="#FFFFFF" height="79.543" style="stroke:#181818;stroke-width:1.0;" width="10" x="343.9849" y="374.2402"/><rect fill="#FFFFFF" height="79.543" style="stroke:#181818;stroke-width:1.0;" width="10" x="343.9849" y="485.0742"/><rect fill="#FFFFFF" height="31.291" style="stroke:#181818;stroke-width:1.0;" width="10" x="343.9849" y="595.9082"/><rect fill="#FFFFFF" height="123.834" style="stroke:#181818;stroke-width:1.0;" width="10" x="343.9849" y="658.4902"/><rect fill="#FFFFFF" height="31.291" style="stroke:#181818;stroke-width:1.0;" width="10" x="515.6538" y="187.8242"/><polygon fill="#181818" points="331.9849,152.5332,341.9849,156.5332,331.9849,160.5332,335.9849,156.5332" style="stroke:#181818;stroke-width:1.0;"/><line style="stroke:#181818;stroke-width:1.0;" x1="31.2861" x2="337.9849" y1="156.5332" y2="156.5332"/><text fill="#000000" font-family="sans-serif" font-size="13" font-weight="bold" lengthAdjust="spacing" textLength="7.23" x="38.2861" y="151.2705">1</text><text fill="#000000" font-family="sans-serif" font-size="13" lengthAdjust="spacing" textLength="133.688" x="49.5161" y="151.2705">asks to add an industry</text><polygon fill="#181818" points="503.6538,183.8242,513.6538,187.8242,503.6538,191.8242,507.6538,187.8242" style="stroke:#181818;stroke-width:1.0;"/><line style="stroke:#181818;stroke-width:1.0;" x1="353.9849" x2="509.6538" y1="187.8242" y2="187.8242"/><text fill="#000000" font-family="sans-serif" font-size="13" font-weight="bold" lengthAdjust="spacing" textLength="7.23" x="360.9849" y="182.5615">2</text><text fill="#000000" font-family="sans-serif" font-size="13" lengthAdjust="spacing" textLength="124.2617" x="372.2148" y="182.5615">getCurrentUserRole()</text><polygon fill="#181818" points="364.9849,215.1152,354.9849,219.1152,364.9849,223.1152,360.9849,219.1152" style="stroke:#181818;stroke-width:1.0;"/><line style="stroke:#181818;stroke-width:1.0;stroke-dasharray:2.0,2.0;" x1="358.9849" x2="519.6538" y1="219.1152" y2="219.1152"/><text fill="#000000" font-family="sans-serif" font-size="13" font-weight="bold" lengthAdjust="spacing" textLength="7.23" x="370.9849" y="213.8525">3</text><text fill="#000000" font-family="sans-serif" font-size="13" lengthAdjust="spacing" textLength="28.1772" x="382.2148" y="213.8525">roles</text><line style="stroke:#181818;stroke-width:1.0;" x1="353.9849" x2="395.9849" y1="250.4063" y2="250.4063"/><line style="stroke:#181818;stroke-width:1.0;" x1="395.9849" x2="395.9849" y1="250.4063" y2="263.4063"/><line style="stroke:#181818;stroke-width:1.0;" x1="354.9849" x2="395.9849" y1="263.4063" y2="263.4063"/><polygon fill="#181818" points="364.9849,259.4063,354.9849,263.4063,364.9849,267.4063,360.9849,263.4063" style="stroke:#181818;stroke-width:1.0;"/><text fill="#000000" font-family="sans-serif" font-size="13" font-weight="bold" lengthAdjust="spacing" textLength="7.23" x="360.9849" y="245.1436">4</text><text fill="#000000" font-family="sans-serif" font-size="13" lengthAdjust="spacing" textLength="123.3921" x="372.2148" y="245.1436">validateRole("Editor")</text><rect fill="none" height="43.252" style="stroke:#000000;stroke-width:1.5;" width="307.6133" x="292.6851" y="271.4063"/><path d="M292.6851,271.4063 L353.6851,271.4063 L353.6851,280.4063 L343.6851,290.4063 L292.6851,290.4063 L292.6851,271.4063 " fill="#EEEEEE" style="stroke:#000000;stroke-width:2.0;"/><text fill="#000000" font-family="sans-serif" font-size="13" font-weight="bold" lengthAdjust="spacing" textLength="16.6182" x="305.6851" y="287.4346">ref</text><text fill="#000000" font-family="sans-serif" font-size="12" lengthAdjust="spacing" textLength="74.0273" x="409.478" y="307.3555">Get Maps List</text><polygon fill="#181818" points="42.2861,338.9492,32.2861,342.9492,42.2861,346.9492,38.2861,342.9492" style="stroke:#181818;stroke-width:1.0;"/><line style="stroke:#181818;stroke-width:1.0;stroke-dasharray:2.0,2.0;" x1="36.2861" x2="347.9849" y1="342.9492" y2="342.9492"/><text fill="#000000" font-family="sans-serif" font-size="13" font-weight="bold" lengthAdjust="spacing" textLength="7.23" x="48.2861" y="337.6865">5</text><text fill="#000000" font-family="sans-serif" font-size="13" lengthAdjust="spacing" textLength="218.2197" x="59.5161" y="337.6865">shows map list and asks to select one</text><polygon fill="#181818" points="331.9849,370.2402,341.9849,374.2402,331.9849,378.2402,335.9849,374.2402" style="stroke:#181818;stroke-width:1.0;"/><line style="stroke:#181818;stroke-width:1.0;" x1="31.2861" x2="337.9849" y1="374.2402" y2="374.2402"/><text fill="#000000" font-family="sans-serif" font-size="13" font-weight="bold" lengthAdjust="spacing" textLength="7.23" x="38.2861" y="368.9775">6</text><text fill="#000000" font-family="sans-serif" font-size="13" lengthAdjust="spacing" textLength="69.3608" x="49.5161" y="368.9775">selects map</text><rect fill="none" height="43.252" style="stroke:#000000;stroke-width:1.5;" width="307.6133" x="292.6851" y="382.2402"/><path d="M292.6851,382.2402 L353.6851,382.2402 L353.6851,391.2402 L343.6851,401.2402 L292.6851,401.2402 L292.6851,382.2402 " fill="#EEEEEE" style="stroke:#000000;stroke-width:2.0;"/><text fill="#000000" font-family="sans-serif" font-size="13" font-weight="bold" lengthAdjust="spacing" textLength="16.6182" x="305.6851" y="398.2686">ref</text><text fill="#000000" font-family="sans-serif" font-size="12" lengthAdjust="spacing" textLength="123.3809" x="384.8013" y="418.1895">Get Industry Types List</text><polygon fill="#181818" points="42.2861,449.7832,32.2861,453.7832,42.2861,457.7832,38.2861,453.7832" style="stroke:#181818;stroke-width:1.0;"/><line style="stroke:#181818;stroke-width:1.0;stroke-dasharray:2.0,2.0;" x1="36.2861" x2="347.9849" y1="453.7832" y2="453.7832"/><text fill="#000000" font-family="sans-serif" font-size="13" font-weight="bold" lengthAdjust="spacing" textLength="7.23" x="48.2861" y="448.5205">7</text><text fill="#000000" font-family="sans-serif" font-size="13" lengthAdjust="spacing" textLength="159.6943" x="59.5161" y="448.5205">shows industry type options</text><polygon fill="#181818" points="331.9849,481.0742,341.9849,485.0742,331.9849,489.0742,335.9849,485.0742" style="stroke:#181818;stroke-width:1.0;"/><line style="stroke:#181818;stroke-width:1.0;" x1="31.2861" x2="337.9849" y1="485.0742" y2="485.0742"/><text fill="#000000" font-family="sans-serif" font-size="13" font-weight="bold" lengthAdjust="spacing" textLength="7.23" x="38.2861" y="479.8115">8</text><text fill="#000000" font-family="sans-serif" font-size="13" lengthAdjust="spacing" textLength="117.7744" x="49.5161" y="479.8115">selects industry type</text><rect fill="none" height="43.252" style="stroke:#000000;stroke-width:1.5;" width="307.6133" x="292.6851" y="493.0742"/><path d="M292.6851,493.0742 L353.6851,493.0742 L353.6851,502.0742 L343.6851,512.0742 L292.6851,512.0742 L292.6851,493.0742 " fill="#EEEEEE" style="stroke:#000000;stroke-width:2.0;"/><text fill="#000000" font-family="sans-serif" font-size="13" font-weight="bold" lengthAdjust="spacing" textLength="16.6182" x="305.6851" y="509.1025">ref</text><text fill="#000000" font-family="sans-serif" font-size="12" lengthAdjust="spacing" textLength="140.7363" x="376.1235" y="529.0234">Get Industry Subtypes List</text><polygon fill="#181818" points="42.2861,560.6172,32.2861,564.6172,42.2861,568.6172,38.2861,564.6172" style="stroke:#181818;stroke-width:1.0;"/><line style="stroke:#181818;stroke-width:1.0;stroke-dasharray:2.0,2.0;" x1="36.2861" x2="347.9849" y1="564.6172" y2="564.6172"/><text fill="#000000" font-family="sans-serif" font-size="13" font-weight="bold" lengthAdjust="spacing" textLength="7.23" x="48.2861" y="559.3545">9</text><text fill="#000000" font-family="sans-serif" font-size="13" lengthAdjust="spacing" textLength="277.4688" x="59.5161" y="559.3545">shows industry subtype options (filtered by type)</text><polygon fill="#181818" points="331.9849,591.9082,341.9849,595.9082,331.9849,599.9082,335.9849,595.9082" style="stroke:#181818;stroke-width:1.0;"/><line style="stroke:#181818;stroke-width:1.0;" x1="31.2861" x2="337.9849" y1="595.9082" y2="595.9082"/><text fill="#000000" font-family="sans-serif" font-size="13" font-weight="bold" lengthAdjust="spacing" textLength="14.46" x="38.2861" y="590.6455">10</text><text fill="#000000" font-family="sans-serif" font-size="13" lengthAdjust="spacing" textLength="138.7344" x="56.7461" y="590.6455">selects industry subtype</text><polygon fill="#181818" points="42.2861,623.1992,32.2861,627.1992,42.2861,631.1992,38.2861,627.1992" style="stroke:#181818;stroke-width:1.0;"/><line style="stroke:#181818;stroke-width:1.0;stroke-dasharray:2.0,2.0;" x1="36.2861" x2="347.9849" y1="627.1992" y2="627.1992"/><text fill="#000000" font-family="sans-serif" font-size="13" font-weight="bold" lengthAdjust="spacing" textLength="14.46" x="48.2861" y="621.9365">11</text><text fill="#000000" font-family="sans-serif" font-size="13" lengthAdjust="spacing" textLength="141.6353" x="66.7461" y="621.9365">requests XY coordinates</text><polygon fill="#181818" points="331.9849,654.4902,341.9849,658.4902,331.9849,662.4902,335.9849,658.4902" style="stroke:#181818;stroke-width:1.0;"/><line style="stroke:#181818;stroke-width:1.0;" x1="31.2861" x2="337.9849" y1="658.4902" y2="658.4902"/><text fill="#000000" font-family="sans-serif" font-size="13" font-weight="bold" lengthAdjust="spacing" textLength="14.46" x="38.2861" y="653.2275">12</text><text fill="#000000" font-family="sans-serif" font-size="13" lengthAdjust="spacing" textLength="155.3779" x="56.7461" y="653.2275">inputs X and Y coordinates</text><line style="stroke:#181818;stroke-width:1.0;" x1="353.9849" x2="395.9849" y1="689.7813" y2="689.7813"/><line style="stroke:#181818;stroke-width:1.0;" x1="395.9849" x2="395.9849" y1="689.7813" y2="702.7813"/><line style="stroke:#181818;stroke-width:1.0;" x1="354.9849" x2="395.9849" y1="702.7813" y2="702.7813"/><polygon fill="#181818" points="364.9849,698.7813,354.9849,702.7813,364.9849,706.7813,360.9849,702.7813" style="stroke:#181818;stroke-width:1.0;"/><text fill="#000000" font-family="sans-serif" font-size="13" font-weight="bold" lengthAdjust="spacing" textLength="14.46" x="360.9849" y="684.5186">13</text><text fill="#000000" font-family="sans-serif" font-size="13" lengthAdjust="spacing" textLength="119.209" x="379.4448" y="684.5186">collectIndustryData()</text><path d="M519.6689,674.9902 L519.6689,701.9902 L734.6689,701.9902 L734.6689,684.9902 L724.6689,674.9902 L519.6689,674.9902 " fill="#FAFAFA" style="stroke:#181818;stroke-width:0.5;"/><path d="M724.6689,674.9902 L724.6689,684.9902 L734.6689,684.9902 L724.6689,674.9902 " fill="#FAFAFA" style="stroke:#181818;stroke-width:0.5;"/><text fill="#000000" font-family="sans-serif" font-size="13" lengthAdjust="spacing" textLength="194.3652" x="525.6689" y="694.0186">Creates AddIndustryRequestDTO</text><rect fill="none" height="43.252" style="stroke:#000000;stroke-width:1.5;" width="568.8262" x="292.6851" y="710.7813"/><path d="M292.6851,710.7813 L353.6851,710.7813 L353.6851,719.7813 L343.6851,729.7813 L292.6851,729.7813 L292.6851,710.7813 " fill="#EEEEEE" style="stroke:#000000;stroke-width:2.0;"/><text fill="#000000" font-family="sans-serif" font-size="13" font-weight="bold" lengthAdjust="spacing" textLength="16.6182" x="305.6851" y="726.8096">ref</text><text fill="#000000" font-family="sans-serif" font-size="12" lengthAdjust="spacing" textLength="82.0371" x="536.0796" y="746.7305">Create Industry</text><polygon fill="#181818" points="37.2861,778.3242,27.2861,782.3242,37.2861,786.3242,33.2861,782.3242" style="stroke:#181818;stroke-width:1.0;"/><line style="stroke:#181818;stroke-width:1.0;stroke-dasharray:2.0,2.0;" x1="31.2861" x2="347.9849" y1="782.3242" y2="782.3242"/><text fill="#000000" font-family="sans-serif" font-size="13" font-weight="bold" lengthAdjust="spacing" textLength="14.46" x="43.2861" y="777.0615">14</text><text fill="#000000" font-family="sans-serif" font-size="13" lengthAdjust="spacing" textLength="162.5698" x="61.7461" y="777.0615">confirms successful addition</text><!--SRC=[hLJ1Zjem4BtdAqQSG0Afwf53fHMiAgJTRaL0wXwDFGGBnqxj2Il-lcE7f661ThVTI8X4Vk_vlHbxmbxRIdXHGkciapllIWJoDMQXMwc4t8i2SpeQ18-IX2rC7n1sGhaNRGlO2XCmoqWJGtFyMQEL27CjYeWRvlCHJ62TV_eCTqh1mgewa3y2ENWK5I_bbT6KPQ8cP-joWvxV9JaFWtkb-Ny08i3zVB5wMcQyDscfAs491bFMQ-NMYmHRBsv3PiwITyPWepXRBH_EmG4D1qN5jgRyIwZ7k-_d87rIcxQo2RRuDb_dg-LpiguFWh1rd04_pJjClh11c39X7s9-mVKG5bh91Etu70LE3vEO6WqpkK2QrTwZfNL0ltG6XwCEsR5JEkWzYJrf7N0TC7Jh2g_pNXb8p8CmMZ4oRTnsQ7H9yRW5Tq3FhF6bcwz8iVi17dIWRWMjYhph-xE1KncdVFZSIu2IZuzXFjTGTJLjcWZEOlOg6XVqMZCQGbAxsO2_X-cEzUfOuV_5qjqDOIbm5Mbdmpl3d6byHAoytj379GkDMXiEXbjj23qgs3IMH_-QzwJynwlKD-RZl0giyECPf7DUQSkCjvQRXs4TkUa4NWhSlik9BUCmajJMU2v8zAwoTKpqkjWHGsSUeohqnjcoSJvVFRtXyetZ81l_7bDdao5fTwr-VtEbirljoy35bn93sDOcZZOTUtkjaBtFqv3y1G00]--></g></svg>