<svg xmlns="http://www.w3.org/2000/svg" xmlns:xlink="http://www.w3.org/1999/xlink" contentStyleType="text/css" data-diagram-type="SEQUENCE" height="423px" preserveAspectRatio="none" style="width:764px;height:423px;background:#1B1B1B;" version="1.1" viewBox="0 0 764 423" width="764px" zoomAndPan="magnify"><title>US02 - Part 5: Industry Addition and Confirmation</title><defs/><g><rect fill="#1B1B1B" height="423" style="stroke:none;stroke-width:1;" width="764" x="0" y="0"/><text fill="#FFFFFF" font-family="sans-serif" font-size="14" font-weight="bold" lengthAdjust="spacing" textLength="394.6797" x="183.71" y="27.9951">US02 - Part 5: Industry Addition and Confirmation</text><g><title>:AddIndustryController</title><rect fill="#000000" height="145.6641" style="stroke:#E7E7E7;stroke-width:1;" width="10" x="443.9873" y="149.7266"/></g><g><title>:MapRepository</title><rect fill="#000000" height="29.1328" style="stroke:#E7E7E7;stroke-width:1;" width="10" x="602.0674" y="237.125"/></g><g><title>map:Map</title><rect fill="#000000" height="29.1328" style="stroke:#E7E7E7;stroke-width:1;" width="10" x="713.417" y="178.8594"/></g><g><title>Editor</title><rect fill="#000000" fill-opacity="0.00000" height="223.9297" width="8" x="24.7163" y="118.5938"/><line style="stroke:#E7E7E7;stroke-width:0.5;stroke-dasharray:5.0,5.0;" x1="28" x2="28" y1="118.5938" y2="342.5234"/></g><g><title>:AddIndustryUI</title><rect fill="#000000" fill-opacity="0.00000" height="223.9297" width="8" x="162.1426" y="118.5938"/><line style="stroke:#E7E7E7;stroke-width:0.5;stroke-dasharray:5.0,5.0;" x1="166.1279" x2="166.1279" y1="118.5938" y2="342.5234"/></g><g><title>:AddIndustryController</title><rect fill="#000000" fill-opacity="0.00000" height="223.9297" width="8" x="444.9873" y="118.5938"/><line style="stroke:#E7E7E7;stroke-width:0.5;stroke-dasharray:5.0,5.0;" x1="448.5742" x2="448.5742" y1="118.5938" y2="342.5234"/></g><g><title>:MapRepository</title><rect fill="#000000" fill-opacity="0.00000" height="223.9297" width="8" x="603.0674" y="118.5938"/><line style="stroke:#E7E7E7;stroke-width:0.5;stroke-dasharray:5.0,5.0;" x1="606.4004" x2="606.4004" y1="118.5938" y2="342.5234"/></g><g><title>map:Map</title><rect fill="#000000" fill-opacity="0.00000" height="223.9297" width="8" x="714.417" y="118.5938"/><line style="stroke:#E7E7E7;stroke-width:0.5;stroke-dasharray:5.0,5.0;" x1="717.7344" x2="717.7344" y1="118.5938" y2="342.5234"/></g><g class="participant participant-head" data-participant="ED"><text fill="#FFFFFF" font-family="sans-serif" font-size="14" lengthAdjust="spacing" textLength="41.4326" x="5" y="115.292">Editor</text><ellipse cx="28.7163" cy="50.7969" fill="#222222" rx="8" ry="8" style="stroke:#E7E7E7;stroke-width:0.5;"/><path d="M28.7163,58.7969 L28.7163,85.7969 M15.7163,66.7969 L41.7163,66.7969 M28.7163,85.7969 L15.7163,100.7969 M28.7163,85.7969 L41.7163,100.7969" fill="none" style="stroke:#E7E7E7;stroke-width:0.5;"/></g><g class="participant participant-tail" data-participant="ED"><text fill="#FFFFFF" font-family="sans-serif" font-size="14" lengthAdjust="spacing" textLength="41.4326" x="5" y="354.5186">Editor</text><ellipse cx="28.7163" cy="366.3203" fill="#222222" rx="8" ry="8" style="stroke:#E7E7E7;stroke-width:0.5;"/><path d="M28.7163,374.3203 L28.7163,401.3203 M15.7163,382.3203 L41.7163,382.3203 M28.7163,401.3203 L15.7163,416.3203 M28.7163,401.3203 L41.7163,416.3203" fill="none" style="stroke:#E7E7E7;stroke-width:0.5;"/></g><g class="participant participant-head" data-participant="UI"><rect fill="#222222" height="30.2969" rx="2.5" ry="2.5" style="stroke:#E7E7E7;stroke-width:0.5;" width="118.0293" x="107.1279" y="87.2969"/><text fill="#FFFFFF" font-family="sans-serif" font-size="14" lengthAdjust="spacing" textLength="104.0293" x="114.1279" y="107.292">:AddIndustryUI</text></g><g class="participant participant-tail" data-participant="UI"><rect fill="#222222" height="30.2969" rx="2.5" ry="2.5" style="stroke:#E7E7E7;stroke-width:0.5;" width="118.0293" x="107.1279" y="341.5234"/><text fill="#FFFFFF" font-family="sans-serif" font-size="14" lengthAdjust="spacing" textLength="104.0293" x="114.1279" y="361.5186">:AddIndustryUI</text></g><g class="participant participant-head" data-participant="CTRL"><rect fill="#222222" height="30.2969" rx="2.5" ry="2.5" style="stroke:#E7E7E7;stroke-width:0.5;" width="172.8262" x="362.5742" y="87.2969"/><text fill="#FFFFFF" font-family="sans-serif" font-size="14" lengthAdjust="spacing" textLength="158.8262" x="369.5742" y="107.292">:AddIndustryController</text></g><g class="participant participant-tail" data-participant="CTRL"><rect fill="#222222" height="30.2969" rx="2.5" ry="2.5" style="stroke:#E7E7E7;stroke-width:0.5;" width="172.8262" x="362.5742" y="341.5234"/><text fill="#FFFFFF" font-family="sans-serif" font-size="14" lengthAdjust="spacing" textLength="158.8262" x="369.5742" y="361.5186">:AddIndustryController</text></g><g class="participant participant-head" data-participant="MAPREPO"><rect fill="#222222" height="30.2969" rx="2.5" ry="2.5" style="stroke:#E7E7E7;stroke-width:0.5;" width="123.334" x="545.4004" y="87.2969"/><text fill="#FFFFFF" font-family="sans-serif" font-size="14" lengthAdjust="spacing" textLength="109.334" x="552.4004" y="107.292">:MapRepository</text></g><g class="participant participant-tail" data-participant="MAPREPO"><rect fill="#222222" height="30.2969" rx="2.5" ry="2.5" style="stroke:#E7E7E7;stroke-width:0.5;" width="123.334" x="545.4004" y="341.5234"/><text fill="#FFFFFF" font-family="sans-serif" font-size="14" lengthAdjust="spacing" textLength="109.334" x="552.4004" y="361.5186">:MapRepository</text></g><g class="participant participant-head" data-participant="MAP"><rect fill="#222222" height="30.2969" rx="2.5" ry="2.5" style="stroke:#E7E7E7;stroke-width:0.5;" width="79.3652" x="678.7344" y="87.2969"/><text fill="#FFFFFF" font-family="sans-serif" font-size="14" lengthAdjust="spacing" textLength="65.3652" x="685.7344" y="107.292">map:Map</text></g><g class="participant participant-tail" data-participant="MAP"><rect fill="#222222" height="30.2969" rx="2.5" ry="2.5" style="stroke:#E7E7E7;stroke-width:0.5;" width="79.3652" x="678.7344" y="341.5234"/><text fill="#FFFFFF" font-family="sans-serif" font-size="14" lengthAdjust="spacing" textLength="65.3652" x="685.7344" y="361.5186">map:Map</text></g><g><title>:AddIndustryController</title><rect fill="#000000" height="145.6641" style="stroke:#E7E7E7;stroke-width:1;" width="10" x="443.9873" y="149.7266"/></g><g><title>:MapRepository</title><rect fill="#000000" height="29.1328" style="stroke:#E7E7E7;stroke-width:1;" width="10" x="602.0674" y="237.125"/></g><g><title>map:Map</title><rect fill="#000000" height="29.1328" style="stroke:#E7E7E7;stroke-width:1;" width="10" x="713.417" y="178.8594"/></g><g class="message" data-participant-1="UI" data-participant-2="CTRL"><polygon fill="#E7E7E7" points="431.9873,145.7266,441.9873,149.7266,431.9873,153.7266,435.9873,149.7266" style="stroke:#E7E7E7;stroke-width:1;"/><line style="stroke:#E7E7E7;stroke-width:2;" x1="166.1426" x2="437.9873" y1="149.7266" y2="149.7266"/><text fill="#FFFFFF" font-family="sans-serif" font-size="13" lengthAdjust="spacing" textLength="258.8447" x="175.6426" y="144.6606">addIndustry(mapId, type, subtype, x, y)</text></g><g class="message" data-participant-1="CTRL" data-participant-2="MAP"><polygon fill="#E7E7E7" points="701.417,174.8594,711.417,178.8594,701.417,182.8594,705.417,178.8594" style="stroke:#E7E7E7;stroke-width:1;"/><line style="stroke:#E7E7E7;stroke-width:2;" x1="453.9873" x2="707.417" y1="178.8594" y2="178.8594"/><text fill="#FFFFFF" font-family="sans-serif" font-size="13" lengthAdjust="spacing" textLength="141.3369" x="513.0337" y="173.7935">addIndustry(industry)</text></g><g class="message" data-participant-1="MAP" data-participant-2="CTRL"><polygon fill="#E7E7E7" points="464.9873,203.9922,454.9873,207.9922,464.9873,211.9922,460.9873,207.9922" style="stroke:#E7E7E7;stroke-width:1;"/><line style="stroke:#E7E7E7;stroke-width:2;stroke-dasharray:2.0,2.0;" x1="458.9873" x2="717.417" y1="207.9922" y2="207.9922"/><text fill="#FFFFFF" font-family="sans-serif" font-size="13" lengthAdjust="spacing" textLength="50.8511" x="560.7766" y="202.9263">success</text></g><g class="message" data-participant-1="CTRL" data-participant-2="MAPREPO"><polygon fill="#E7E7E7" points="590.0674,233.125,600.0674,237.125,590.0674,241.125,594.0674,237.125" style="stroke:#E7E7E7;stroke-width:1;"/><line style="stroke:#E7E7E7;stroke-width:2;" x1="453.9873" x2="596.0674" y1="237.125" y2="237.125"/><text fill="#FFFFFF" font-family="sans-serif" font-size="13" lengthAdjust="spacing" textLength="69.4561" x="493.2993" y="232.0591">save(map)</text></g><g class="message" data-participant-1="MAPREPO" data-participant-2="CTRL"><polygon fill="#E7E7E7" points="464.9873,262.2578,454.9873,266.2578,464.9873,270.2578,460.9873,266.2578" style="stroke:#E7E7E7;stroke-width:1;"/><line style="stroke:#E7E7E7;stroke-width:2;stroke-dasharray:2.0,2.0;" x1="458.9873" x2="606.0674" y1="266.2578" y2="266.2578"/><text fill="#FFFFFF" font-family="sans-serif" font-size="13" lengthAdjust="spacing" textLength="50.8511" x="505.1018" y="261.1919">success</text></g><g class="message" data-participant-1="CTRL" data-participant-2="UI"><polygon fill="#E7E7E7" points="177.1426,291.3906,167.1426,295.3906,177.1426,299.3906,173.1426,295.3906" style="stroke:#E7E7E7;stroke-width:1;"/><line style="stroke:#E7E7E7;stroke-width:2;stroke-dasharray:2.0,2.0;" x1="171.1426" x2="447.9873" y1="295.3906" y2="295.3906"/><text fill="#FFFFFF" font-family="sans-serif" font-size="13" lengthAdjust="spacing" textLength="50.8511" x="282.1394" y="290.3247">success</text></g><g class="message" data-participant-1="UI" data-participant-2="ED"><polygon fill="#E7E7E7" points="39.7163,320.5234,29.7163,324.5234,39.7163,328.5234,35.7163,324.5234" style="stroke:#E7E7E7;stroke-width:1;"/><line style="stroke:#E7E7E7;stroke-width:2;stroke-dasharray:2.0,2.0;" x1="33.7163" x2="165.1426" y1="324.5234" y2="324.5234"/><text fill="#FFFFFF" font-family="sans-serif" font-size="13" lengthAdjust="spacing" textLength="113.4263" x="40.7163" y="319.4575">confirms addition</text></g><!--SRC=[XP7DQiCm48JlUeh5bxQGG0dauaF193u86chI-04KQPEAs98hhTFwxIlPIMltXnw4XFGnCplo9sqQuKGD7bzRD18twBquObRfem69Xj0n_uFAdBDlknSjJoRmi1WXphP6IUiCEbWo9YHP1qckTDWJ41xoDGiaQQaROGYID5EA6zLwSbt9UwJaVoChQyZPgi91RRNRFdw3DwBPOcDzTEnwQ9CLsxnucdArQ29w1HWZJHL2KZxVBs0EHM1XcSBL5q86JTeQ44P1I77GhXRn8c6iv31_wBEa8BwotWOFhcP0NOCpyEr-EBpFeBkBpUYp81n6O3TGE3nhsthmX8q7MsiYL708_UtZ4tMCHJPQXS1J9tqvZ7JZK671_3EQRwKC_yKKJg2nQkmfWEACCVnKhU_mil-hsiCNvO2M_5Tmc3tM5vXydO8SYlLnkBxkCLto3m00]--></g></svg>