<svg xmlns="http://www.w3.org/2000/svg" xmlns:xlink="http://www.w3.org/1999/xlink" contentStyleType="text/css" data-diagram-type="SEQUENCE" height="423px" preserveAspectRatio="none" style="width:576px;height:423px;background:#1B1B1B;" version="1.1" viewBox="0 0 576 423" width="576px" zoomAndPan="magnify"><title>US02 - Part 2: Industry Type Selection</title><defs/><g><rect fill="#1B1B1B" height="423" style="stroke:none;stroke-width:1;" width="576" x="0" y="0"/><text fill="#FFFFFF" font-family="sans-serif" font-size="14" font-weight="bold" lengthAdjust="spacing" textLength="302.292" x="136.3462" y="27.9951">US02 - Part 2: Industry Type Selection</text><g><title>:AddIndustryController</title><rect fill="#000000" height="87.3984" style="stroke:#E7E7E7;stroke-width:1;" width="10" x="340.8438" y="178.8594"/></g><g><title>:IndustryFactory</title><rect fill="#000000" height="29.1328" style="stroke:#E7E7E7;stroke-width:1;" width="10" x="501.6206" y="207.9922"/></g><g><title>Editor</title><rect fill="#000000" fill-opacity="0.00000" height="223.9297" width="8" x="24.7163" y="118.5938"/><line style="stroke:#E7E7E7;stroke-width:0.5;stroke-dasharray:5.0,5.0;" x1="28" x2="28" y1="118.5938" y2="342.5234"/></g><g><title>:AddIndustryUI</title><rect fill="#000000" fill-opacity="0.00000" height="223.9297" width="8" x="186.416" y="118.5938"/><line style="stroke:#E7E7E7;stroke-width:0.5;stroke-dasharray:5.0,5.0;" x1="190.4014" x2="190.4014" y1="118.5938" y2="342.5234"/></g><g><title>:AddIndustryController</title><rect fill="#000000" fill-opacity="0.00000" height="223.9297" width="8" x="341.8438" y="118.5938"/><line style="stroke:#E7E7E7;stroke-width:0.5;stroke-dasharray:5.0,5.0;" x1="345.4307" x2="345.4307" y1="118.5938" y2="342.5234"/></g><g><title>:IndustryFactory</title><rect fill="#000000" fill-opacity="0.00000" height="223.9297" width="8" x="502.6206" y="118.5938"/><line style="stroke:#E7E7E7;stroke-width:0.5;stroke-dasharray:5.0,5.0;" x1="506.2568" x2="506.2568" y1="118.5938" y2="342.5234"/></g><g class="participant participant-head" data-participant="ED"><text fill="#FFFFFF" font-family="sans-serif" font-size="14" lengthAdjust="spacing" textLength="41.4326" x="5" y="115.292">Editor</text><ellipse cx="28.7163" cy="50.7969" fill="#222222" rx="8" ry="8" style="stroke:#E7E7E7;stroke-width:0.5;"/><path d="M28.7163,58.7969 L28.7163,85.7969 M15.7163,66.7969 L41.7163,66.7969 M28.7163,85.7969 L15.7163,100.7969 M28.7163,85.7969 L41.7163,100.7969" fill="none" style="stroke:#E7E7E7;stroke-width:0.5;"/></g><g class="participant participant-tail" data-participant="ED"><text fill="#FFFFFF" font-family="sans-serif" font-size="14" lengthAdjust="spacing" textLength="41.4326" x="5" y="354.5186">Editor</text><ellipse cx="28.7163" cy="366.3203" fill="#222222" rx="8" ry="8" style="stroke:#E7E7E7;stroke-width:0.5;"/><path d="M28.7163,374.3203 L28.7163,401.3203 M15.7163,382.3203 L41.7163,382.3203 M28.7163,401.3203 L15.7163,416.3203 M28.7163,401.3203 L41.7163,416.3203" fill="none" style="stroke:#E7E7E7;stroke-width:0.5;"/></g><g class="participant participant-head" data-participant="UI"><rect fill="#222222" height="30.2969" rx="2.5" ry="2.5" style="stroke:#E7E7E7;stroke-width:0.5;" width="118.0293" x="131.4014" y="87.2969"/><text fill="#FFFFFF" font-family="sans-serif" font-size="14" lengthAdjust="spacing" textLength="104.0293" x="138.4014" y="107.292">:AddIndustryUI</text></g><g class="participant participant-tail" data-participant="UI"><rect fill="#222222" height="30.2969" rx="2.5" ry="2.5" style="stroke:#E7E7E7;stroke-width:0.5;" width="118.0293" x="131.4014" y="341.5234"/><text fill="#FFFFFF" font-family="sans-serif" font-size="14" lengthAdjust="spacing" textLength="104.0293" x="138.4014" y="361.5186">:AddIndustryUI</text></g><g class="participant participant-head" data-participant="CTRL"><rect fill="#222222" height="30.2969" rx="2.5" ry="2.5" style="stroke:#E7E7E7;stroke-width:0.5;" width="172.8262" x="259.4307" y="87.2969"/><text fill="#FFFFFF" font-family="sans-serif" font-size="14" lengthAdjust="spacing" textLength="158.8262" x="266.4307" y="107.292">:AddIndustryController</text></g><g class="participant participant-tail" data-participant="CTRL"><rect fill="#222222" height="30.2969" rx="2.5" ry="2.5" style="stroke:#E7E7E7;stroke-width:0.5;" width="172.8262" x="259.4307" y="341.5234"/><text fill="#FFFFFF" font-family="sans-serif" font-size="14" lengthAdjust="spacing" textLength="158.8262" x="266.4307" y="361.5186">:AddIndustryController</text></g><g class="participant participant-head" data-participant="FACT"><rect fill="#222222" height="30.2969" rx="2.5" ry="2.5" style="stroke:#E7E7E7;stroke-width:0.5;" width="128.7275" x="442.2568" y="87.2969"/><text fill="#FFFFFF" font-family="sans-serif" font-size="14" lengthAdjust="spacing" textLength="114.7275" x="449.2568" y="107.292">:IndustryFactory</text></g><g class="participant participant-tail" data-participant="FACT"><rect fill="#222222" height="30.2969" rx="2.5" ry="2.5" style="stroke:#E7E7E7;stroke-width:0.5;" width="128.7275" x="442.2568" y="341.5234"/><text fill="#FFFFFF" font-family="sans-serif" font-size="14" lengthAdjust="spacing" textLength="114.7275" x="449.2568" y="361.5186">:IndustryFactory</text></g><g><title>:AddIndustryController</title><rect fill="#000000" height="87.3984" style="stroke:#E7E7E7;stroke-width:1;" width="10" x="340.8438" y="178.8594"/></g><g><title>:IndustryFactory</title><rect fill="#000000" height="29.1328" style="stroke:#E7E7E7;stroke-width:1;" width="10" x="501.6206" y="207.9922"/></g><g class="message" data-participant-1="ED" data-participant-2="UI"><polygon fill="#E7E7E7" points="178.416,145.7266,188.416,149.7266,178.416,153.7266,182.416,149.7266" style="stroke:#E7E7E7;stroke-width:1;"/><line style="stroke:#E7E7E7;stroke-width:2;" x1="28.7163" x2="184.416" y1="149.7266" y2="149.7266"/><text fill="#FFFFFF" font-family="sans-serif" font-size="13" lengthAdjust="spacing" textLength="78.4126" x="70.3599" y="144.6606">selects map</text></g><g class="message" data-participant-1="UI" data-participant-2="CTRL"><polygon fill="#E7E7E7" points="328.8438,174.8594,338.8438,178.8594,328.8438,182.8594,332.8438,178.8594" style="stroke:#E7E7E7;stroke-width:1;"/><line style="stroke:#E7E7E7;stroke-width:2;" x1="190.416" x2="334.8438" y1="178.8594" y2="178.8594"/><text fill="#FFFFFF" font-family="sans-serif" font-size="13" lengthAdjust="spacing" textLength="123.6206" x="203.8196" y="173.7935">getIndustryTypes()</text></g><g class="message" data-participant-1="CTRL" data-participant-2="FACT"><polygon fill="#E7E7E7" points="489.6206,203.9922,499.6206,207.9922,489.6206,211.9922,493.6206,207.9922" style="stroke:#E7E7E7;stroke-width:1;"/><line style="stroke:#E7E7E7;stroke-width:2;" x1="350.8438" x2="495.6206" y1="207.9922" y2="207.9922"/><text fill="#FFFFFF" font-family="sans-serif" font-size="13" lengthAdjust="spacing" textLength="123.6206" x="364.4219" y="202.9263">getIndustryTypes()</text></g><g class="message" data-participant-1="FACT" data-participant-2="CTRL"><polygon fill="#E7E7E7" points="361.8438,233.125,351.8438,237.125,361.8438,241.125,357.8438,237.125" style="stroke:#E7E7E7;stroke-width:1;"/><line style="stroke:#E7E7E7;stroke-width:2;stroke-dasharray:2.0,2.0;" x1="355.8438" x2="505.6206" y1="237.125" y2="237.125"/><text fill="#FFFFFF" font-family="sans-serif" font-size="13" lengthAdjust="spacing" textLength="91.9077" x="382.7783" y="232.0591">industryTypes</text></g><g class="message" data-participant-1="CTRL" data-participant-2="UI"><polygon fill="#E7E7E7" points="201.416,262.2578,191.416,266.2578,201.416,270.2578,197.416,266.2578" style="stroke:#E7E7E7;stroke-width:1;"/><line style="stroke:#E7E7E7;stroke-width:2;stroke-dasharray:2.0,2.0;" x1="195.416" x2="344.8438" y1="266.2578" y2="266.2578"/><text fill="#FFFFFF" font-family="sans-serif" font-size="13" lengthAdjust="spacing" textLength="91.9077" x="222.176" y="261.1919">industryTypes</text></g><g class="message" data-participant-1="UI" data-participant-2="ED"><polygon fill="#E7E7E7" points="39.7163,291.3906,29.7163,295.3906,39.7163,299.3906,35.7163,295.3906" style="stroke:#E7E7E7;stroke-width:1;"/><line style="stroke:#E7E7E7;stroke-width:2;stroke-dasharray:2.0,2.0;" x1="33.7163" x2="189.416" y1="295.3906" y2="295.3906"/><text fill="#FFFFFF" font-family="sans-serif" font-size="13" lengthAdjust="spacing" textLength="137.6997" x="40.7163" y="290.3247">shows industry types</text></g><g class="message" data-participant-1="ED" data-participant-2="UI"><polygon fill="#E7E7E7" points="178.416,320.5234,188.416,324.5234,178.416,328.5234,182.416,324.5234" style="stroke:#E7E7E7;stroke-width:1;"/><line style="stroke:#E7E7E7;stroke-width:2;" x1="28.7163" x2="184.416" y1="324.5234" y2="324.5234"/><text fill="#FFFFFF" font-family="sans-serif" font-size="13" lengthAdjust="spacing" textLength="135.9541" x="41.5891" y="319.4575">selects industry type</text></g><!--SRC=[VS_1QiCm30RWkvz2vBGT0YEmImw3aAGGwA2ioGCOMwIcgPtPIalUVhQpb7QbkyXWFac_t57faLj-0eVV4sg1d-WSxx4OLAz1e2Qqp3sembfpQGzA7BNtaDqGQoOjXR4QBRmpnWKP2qajbNyJu0xgYdb9IgYHQu8aBwHij9mSsRbh8kcQvwGqcgmP1bocbUtNzWzUvIRkdYFR56NB62aQ499k_vP12ZlV1LaEguTs7X7sEA0WPNJ2M5r1-k7JvFxmyElWn4V6kYPyXyqvz4XhVsXtBw_XP7NcX4ksK08F2VxdCMCea5x7grlC9DxZPVPlnASqneYXlQmhVyp1NDpL0yM6nrllm0y0]--></g></svg>