<svg xmlns="http://www.w3.org/2000/svg" xmlns:xlink="http://www.w3.org/1999/xlink" contentStyleType="text/css" data-diagram-type="SEQUENCE" height="423px" preserveAspectRatio="none" style="width:686px;height:423px;background:#1B1B1B;" version="1.1" viewBox="0 0 686 423" width="686px" zoomAndPan="magnify"><title>US02 - Part 3: Industry Subtype Selection</title><defs/><g><rect fill="#1B1B1B" height="423" style="stroke:none;stroke-width:1;" width="686" x="0" y="0"/><text fill="#FFFFFF" font-family="sans-serif" font-size="14" font-weight="bold" lengthAdjust="spacing" textLength="329.5059" x="177.3296" y="27.9951">US02 - Part 3: Industry Subtype Selection</text><g><title>:AddIndustryController</title><rect fill="#000000" height="87.3984" style="stroke:#E7E7E7;stroke-width:1;" width="10" x="407.2407" y="178.8594"/></g><g><title>:IndustryFactory</title><rect fill="#000000" height="29.1328" style="stroke:#E7E7E7;stroke-width:1;" width="10" x="610.8013" y="207.9922"/></g><g><title>Editor</title><rect fill="#000000" fill-opacity="0.00000" height="223.9297" width="8" x="24.7163" y="118.5938"/><line style="stroke:#E7E7E7;stroke-width:0.5;stroke-dasharray:5.0,5.0;" x1="28" x2="28" y1="118.5938" y2="342.5234"/></g><g><title>:AddIndustryUI</title><rect fill="#000000" fill-opacity="0.00000" height="223.9297" width="8" x="209.6802" y="118.5938"/><line style="stroke:#E7E7E7;stroke-width:0.5;stroke-dasharray:5.0,5.0;" x1="213.6655" x2="213.6655" y1="118.5938" y2="342.5234"/></g><g><title>:AddIndustryController</title><rect fill="#000000" fill-opacity="0.00000" height="223.9297" width="8" x="408.2407" y="118.5938"/><line style="stroke:#E7E7E7;stroke-width:0.5;stroke-dasharray:5.0,5.0;" x1="411.8276" x2="411.8276" y1="118.5938" y2="342.5234"/></g><g><title>:IndustryFactory</title><rect fill="#000000" fill-opacity="0.00000" height="223.9297" width="8" x="611.8013" y="118.5938"/><line style="stroke:#E7E7E7;stroke-width:0.5;stroke-dasharray:5.0,5.0;" x1="615.4375" x2="615.4375" y1="118.5938" y2="342.5234"/></g><g class="participant participant-head" data-participant="ED"><text fill="#FFFFFF" font-family="sans-serif" font-size="14" lengthAdjust="spacing" textLength="41.4326" x="5" y="115.292">Editor</text><ellipse cx="28.7163" cy="50.7969" fill="#222222" rx="8" ry="8" style="stroke:#E7E7E7;stroke-width:0.5;"/><path d="M28.7163,58.7969 L28.7163,85.7969 M15.7163,66.7969 L41.7163,66.7969 M28.7163,85.7969 L15.7163,100.7969 M28.7163,85.7969 L41.7163,100.7969" fill="none" style="stroke:#E7E7E7;stroke-width:0.5;"/></g><g class="participant participant-tail" data-participant="ED"><text fill="#FFFFFF" font-family="sans-serif" font-size="14" lengthAdjust="spacing" textLength="41.4326" x="5" y="354.5186">Editor</text><ellipse cx="28.7163" cy="366.3203" fill="#222222" rx="8" ry="8" style="stroke:#E7E7E7;stroke-width:0.5;"/><path d="M28.7163,374.3203 L28.7163,401.3203 M15.7163,382.3203 L41.7163,382.3203 M28.7163,401.3203 L15.7163,416.3203 M28.7163,401.3203 L41.7163,416.3203" fill="none" style="stroke:#E7E7E7;stroke-width:0.5;"/></g><g class="participant participant-head" data-participant="UI"><rect fill="#222222" height="30.2969" rx="2.5" ry="2.5" style="stroke:#E7E7E7;stroke-width:0.5;" width="118.0293" x="154.6655" y="87.2969"/><text fill="#FFFFFF" font-family="sans-serif" font-size="14" lengthAdjust="spacing" textLength="104.0293" x="161.6655" y="107.292">:AddIndustryUI</text></g><g class="participant participant-tail" data-participant="UI"><rect fill="#222222" height="30.2969" rx="2.5" ry="2.5" style="stroke:#E7E7E7;stroke-width:0.5;" width="118.0293" x="154.6655" y="341.5234"/><text fill="#FFFFFF" font-family="sans-serif" font-size="14" lengthAdjust="spacing" textLength="104.0293" x="161.6655" y="361.5186">:AddIndustryUI</text></g><g class="participant participant-head" data-participant="CTRL"><rect fill="#222222" height="30.2969" rx="2.5" ry="2.5" style="stroke:#E7E7E7;stroke-width:0.5;" width="172.8262" x="325.8276" y="87.2969"/><text fill="#FFFFFF" font-family="sans-serif" font-size="14" lengthAdjust="spacing" textLength="158.8262" x="332.8276" y="107.292">:AddIndustryController</text></g><g class="participant participant-tail" data-participant="CTRL"><rect fill="#222222" height="30.2969" rx="2.5" ry="2.5" style="stroke:#E7E7E7;stroke-width:0.5;" width="172.8262" x="325.8276" y="341.5234"/><text fill="#FFFFFF" font-family="sans-serif" font-size="14" lengthAdjust="spacing" textLength="158.8262" x="332.8276" y="361.5186">:AddIndustryController</text></g><g class="participant participant-head" data-participant="FACT"><rect fill="#222222" height="30.2969" rx="2.5" ry="2.5" style="stroke:#E7E7E7;stroke-width:0.5;" width="128.7275" x="551.4375" y="87.2969"/><text fill="#FFFFFF" font-family="sans-serif" font-size="14" lengthAdjust="spacing" textLength="114.7275" x="558.4375" y="107.292">:IndustryFactory</text></g><g class="participant participant-tail" data-participant="FACT"><rect fill="#222222" height="30.2969" rx="2.5" ry="2.5" style="stroke:#E7E7E7;stroke-width:0.5;" width="128.7275" x="551.4375" y="341.5234"/><text fill="#FFFFFF" font-family="sans-serif" font-size="14" lengthAdjust="spacing" textLength="114.7275" x="558.4375" y="361.5186">:IndustryFactory</text></g><g><title>:AddIndustryController</title><rect fill="#000000" height="87.3984" style="stroke:#E7E7E7;stroke-width:1;" width="10" x="407.2407" y="178.8594"/></g><g><title>:IndustryFactory</title><rect fill="#000000" height="29.1328" style="stroke:#E7E7E7;stroke-width:1;" width="10" x="610.8013" y="207.9922"/></g><g class="message" data-participant-1="ED" data-participant-2="UI"><polygon fill="#E7E7E7" points="201.6802,145.7266,211.6802,149.7266,201.6802,153.7266,205.6802,149.7266" style="stroke:#E7E7E7;stroke-width:1;"/><line style="stroke:#E7E7E7;stroke-width:2;" x1="28.7163" x2="207.6802" y1="149.7266" y2="149.7266"/><text fill="#FFFFFF" font-family="sans-serif" font-size="13" lengthAdjust="spacing" textLength="135.9541" x="53.2212" y="144.6606">selects industry type</text></g><g class="message" data-participant-1="UI" data-participant-2="CTRL"><polygon fill="#E7E7E7" points="395.2407,174.8594,405.2407,178.8594,395.2407,182.8594,399.2407,178.8594" style="stroke:#E7E7E7;stroke-width:1;"/><line style="stroke:#E7E7E7;stroke-width:2;" x1="213.6802" x2="401.2407" y1="178.8594" y2="178.8594"/><text fill="#FFFFFF" font-family="sans-serif" font-size="13" lengthAdjust="spacing" textLength="174.5605" x="223.1802" y="173.7935">getIndustrySubtypes(type)</text></g><g class="message" data-participant-1="CTRL" data-participant-2="FACT"><polygon fill="#E7E7E7" points="598.8013,203.9922,608.8013,207.9922,598.8013,211.9922,602.8013,207.9922" style="stroke:#E7E7E7;stroke-width:1;"/><line style="stroke:#E7E7E7;stroke-width:2;" x1="417.2407" x2="604.8013" y1="207.9922" y2="207.9922"/><text fill="#FFFFFF" font-family="sans-serif" font-size="13" lengthAdjust="spacing" textLength="174.5605" x="426.7407" y="202.9263">getIndustrySubtypes(type)</text></g><g class="message" data-participant-1="FACT" data-participant-2="CTRL"><polygon fill="#E7E7E7" points="428.2407,233.125,418.2407,237.125,428.2407,241.125,424.2407,237.125" style="stroke:#E7E7E7;stroke-width:1;"/><line style="stroke:#E7E7E7;stroke-width:2;stroke-dasharray:2.0,2.0;" x1="422.2407" x2="614.8013" y1="237.125" y2="237.125"/><text fill="#FFFFFF" font-family="sans-serif" font-size="13" lengthAdjust="spacing" textLength="59.0776" x="486.9822" y="232.0591">subtypes</text></g><g class="message" data-participant-1="CTRL" data-participant-2="UI"><polygon fill="#E7E7E7" points="224.6802,262.2578,214.6802,266.2578,224.6802,270.2578,220.6802,266.2578" style="stroke:#E7E7E7;stroke-width:1;"/><line style="stroke:#E7E7E7;stroke-width:2;stroke-dasharray:2.0,2.0;" x1="218.6802" x2="411.2407" y1="266.2578" y2="266.2578"/><text fill="#FFFFFF" font-family="sans-serif" font-size="13" lengthAdjust="spacing" textLength="59.0776" x="283.4216" y="261.1919">subtypes</text></g><g class="message" data-participant-1="UI" data-participant-2="ED"><polygon fill="#E7E7E7" points="39.7163,291.3906,29.7163,295.3906,39.7163,299.3906,35.7163,295.3906" style="stroke:#E7E7E7;stroke-width:1;"/><line style="stroke:#E7E7E7;stroke-width:2;stroke-dasharray:2.0,2.0;" x1="33.7163" x2="212.6802" y1="295.3906" y2="295.3906"/><text fill="#FFFFFF" font-family="sans-serif" font-size="13" lengthAdjust="spacing" textLength="160.9639" x="40.7163" y="290.3247">shows industry subtypes</text></g><g class="message" data-participant-1="ED" data-participant-2="UI"><polygon fill="#E7E7E7" points="201.6802,320.5234,211.6802,324.5234,201.6802,328.5234,205.6802,324.5234" style="stroke:#E7E7E7;stroke-width:1;"/><line style="stroke:#E7E7E7;stroke-width:2;" x1="28.7163" x2="207.6802" y1="324.5234" y2="324.5234"/><text fill="#FFFFFF" font-family="sans-serif" font-size="13" lengthAdjust="spacing" textLength="159.2183" x="41.5891" y="319.4575">selects industry subtype</text></g><!--SRC=[ZT3DQeGm40VmUvvYyDGUXBAb5my5KHU45ahL1qYJmGrh4vkCNNpx9b6NxIUzJ23yPlAVkAFI8xVy5Ho-JQW5Fg9plCTyKBq6WPhGClTDvTQQKtjGugYzXzq5iMRIKXYhqS8TOroGiP1KKlap0UwWAfcNf8GQkIP8ibpAMil9aPsxEfAk_fqKHfCrmu3BjA9zVlY2DxcFRy-HxVEYPOmK3GX9rzpi88KdtmMt6MmUckc5vX6XmG45AQCJngeIqdiVAFExXri7QkF1CjRL0OGO6VH8sx1rbhiAzJfyWthdX4lUK49NIFMlhXW_54ZFZxdLCecVtJ9zI_s3YXbYS8-gqgE3ELqiTkxvO_dLV000]--></g></svg>