<svg xmlns="http://www.w3.org/2000/svg" xmlns:xlink="http://www.w3.org/1999/xlink" contentStyleType="text/css" data-diagram-type="SEQUENCE" height="651px" preserveAspectRatio="none" style="width:1249px;height:651px;background:#1B1B1B;" version="1.1" viewBox="0 0 1249 651" width="1249px" zoomAndPan="magnify"><title>US02 - Part 4: Location Input and Industry Creation</title><defs/><g><rect fill="#1B1B1B" height="651" style="stroke:none;stroke-width:1;" width="1249" x="0" y="0"/><text fill="#FFFFFF" font-family="sans-serif" font-size="14" font-weight="bold" lengthAdjust="spacing" textLength="406.4512" x="420.6106" y="27.9951">US02 - Part 4: Location Input and Industry Creation</text><g><title>:AddIndustryController</title><rect fill="#000000" height="324.6563" style="stroke:#E7E7E7;stroke-width:1;" width="10" x="489.7793" y="237.125"/></g><g><title>:MapRepository</title><rect fill="#000000" height="29.1328" style="stroke:#E7E7E7;stroke-width:1;" width="10" x="647.8594" y="266.2578"/></g><g><title>:IndustryFactory</title><rect fill="#000000" height="99.5625" style="stroke:#E7E7E7;stroke-width:1;" width="10" x="783.8901" y="453.2188"/></g><g><title>map:Map</title><rect fill="#000000" height="29.1328" style="stroke:#E7E7E7;stroke-width:1;" width="10" x="897.9365" y="394.9531"/></g><g><title>industry:Industry</title><rect fill="#000000" height="31.2969" style="stroke:#E7E7E7;stroke-width:1;" width="10" x="1028.123" y="492.3516"/></g><g><title>location:Location</title><rect fill="#000000" height="31.2969" style="stroke:#E7E7E7;stroke-width:1;" width="10" x="1171.8101" y="334.5234"/></g><g><title>Editor</title><rect fill="#000000" fill-opacity="0.00000" height="452.1875" width="8" x="24.7163" y="118.5938"/><line style="stroke:#E7E7E7;stroke-width:0.5;stroke-dasharray:5.0,5.0;" x1="28" x2="28" y1="118.5938" y2="570.7813"/></g><g><title>:AddIndustryUI</title><rect fill="#000000" fill-opacity="0.00000" height="452.1875" width="8" x="207.9346" y="118.5938"/><line style="stroke:#E7E7E7;stroke-width:0.5;stroke-dasharray:5.0,5.0;" x1="211.9199" x2="211.9199" y1="118.5938" y2="570.7813"/></g><g><title>:AddIndustryController</title><rect fill="#000000" fill-opacity="0.00000" height="452.1875" width="8" x="490.7793" y="118.5938"/><line style="stroke:#E7E7E7;stroke-width:0.5;stroke-dasharray:5.0,5.0;" x1="494.3662" x2="494.3662" y1="118.5938" y2="570.7813"/></g><g><title>:MapRepository</title><rect fill="#000000" fill-opacity="0.00000" height="452.1875" width="8" x="648.8594" y="118.5938"/><line style="stroke:#E7E7E7;stroke-width:0.5;stroke-dasharray:5.0,5.0;" x1="652.1924" x2="652.1924" y1="118.5938" y2="570.7813"/></g><g><title>:IndustryFactory</title><rect fill="#000000" fill-opacity="0.00000" height="452.1875" width="8" x="784.8901" y="118.5938"/><line style="stroke:#E7E7E7;stroke-width:0.5;stroke-dasharray:5.0,5.0;" x1="788.5264" x2="788.5264" y1="118.5938" y2="570.7813"/></g><g><title>map:Map</title><rect fill="#000000" fill-opacity="0.00000" height="452.1875" width="8" x="898.9365" y="118.5938"/><line style="stroke:#E7E7E7;stroke-width:0.5;stroke-dasharray:5.0,5.0;" x1="902.2539" x2="902.2539" y1="118.5938" y2="570.7813"/></g><g><title>industry:Industry</title><rect fill="#000000" fill-opacity="0.00000" height="78.9141" width="8" x="1029.123" y="491.8672"/><line style="stroke:#E7E7E7;stroke-width:0.5;stroke-dasharray:5.0,5.0;" x1="1032.2983" x2="1032.2983" y1="491.8672" y2="570.7813"/></g><g><title>location:Location</title><rect fill="#000000" fill-opacity="0.00000" height="236.7422" width="8" x="1172.8101" y="334.0391"/><line style="stroke:#E7E7E7;stroke-width:0.5;stroke-dasharray:5.0,5.0;" x1="1175.9478" x2="1175.9478" y1="334.0391" y2="570.7813"/></g><g class="participant participant-head" data-participant="ED"><text fill="#FFFFFF" font-family="sans-serif" font-size="14" lengthAdjust="spacing" textLength="41.4326" x="5" y="115.292">Editor</text><ellipse cx="28.7163" cy="50.7969" fill="#222222" rx="8" ry="8" style="stroke:#E7E7E7;stroke-width:0.5;"/><path d="M28.7163,58.7969 L28.7163,85.7969 M15.7163,66.7969 L41.7163,66.7969 M28.7163,85.7969 L15.7163,100.7969 M28.7163,85.7969 L41.7163,100.7969" fill="none" style="stroke:#E7E7E7;stroke-width:0.5;"/></g><g class="participant participant-tail" data-participant="ED"><text fill="#FFFFFF" font-family="sans-serif" font-size="14" lengthAdjust="spacing" textLength="41.4326" x="5" y="582.7764">Editor</text><ellipse cx="28.7163" cy="594.5781" fill="#222222" rx="8" ry="8" style="stroke:#E7E7E7;stroke-width:0.5;"/><path d="M28.7163,602.5781 L28.7163,629.5781 M15.7163,610.5781 L41.7163,610.5781 M28.7163,629.5781 L15.7163,644.5781 M28.7163,629.5781 L41.7163,644.5781" fill="none" style="stroke:#E7E7E7;stroke-width:0.5;"/></g><g class="participant participant-head" data-participant="UI"><rect fill="#222222" height="30.2969" rx="2.5" ry="2.5" style="stroke:#E7E7E7;stroke-width:0.5;" width="118.0293" x="152.9199" y="87.2969"/><text fill="#FFFFFF" font-family="sans-serif" font-size="14" lengthAdjust="spacing" textLength="104.0293" x="159.9199" y="107.292">:AddIndustryUI</text></g><g class="participant participant-tail" data-participant="UI"><rect fill="#222222" height="30.2969" rx="2.5" ry="2.5" style="stroke:#E7E7E7;stroke-width:0.5;" width="118.0293" x="152.9199" y="569.7813"/><text fill="#FFFFFF" font-family="sans-serif" font-size="14" lengthAdjust="spacing" textLength="104.0293" x="159.9199" y="589.7764">:AddIndustryUI</text></g><g class="participant participant-head" data-participant="CTRL"><rect fill="#222222" height="30.2969" rx="2.5" ry="2.5" style="stroke:#E7E7E7;stroke-width:0.5;" width="172.8262" x="408.3662" y="87.2969"/><text fill="#FFFFFF" font-family="sans-serif" font-size="14" lengthAdjust="spacing" textLength="158.8262" x="415.3662" y="107.292">:AddIndustryController</text></g><g class="participant participant-tail" data-participant="CTRL"><rect fill="#222222" height="30.2969" rx="2.5" ry="2.5" style="stroke:#E7E7E7;stroke-width:0.5;" width="172.8262" x="408.3662" y="569.7813"/><text fill="#FFFFFF" font-family="sans-serif" font-size="14" lengthAdjust="spacing" textLength="158.8262" x="415.3662" y="589.7764">:AddIndustryController</text></g><g class="participant participant-head" data-participant="MAPREPO"><rect fill="#222222" height="30.2969" rx="2.5" ry="2.5" style="stroke:#E7E7E7;stroke-width:0.5;" width="123.334" x="591.1924" y="87.2969"/><text fill="#FFFFFF" font-family="sans-serif" font-size="14" lengthAdjust="spacing" textLength="109.334" x="598.1924" y="107.292">:MapRepository</text></g><g class="participant participant-tail" data-participant="MAPREPO"><rect fill="#222222" height="30.2969" rx="2.5" ry="2.5" style="stroke:#E7E7E7;stroke-width:0.5;" width="123.334" x="591.1924" y="569.7813"/><text fill="#FFFFFF" font-family="sans-serif" font-size="14" lengthAdjust="spacing" textLength="109.334" x="598.1924" y="589.7764">:MapRepository</text></g><g class="participant participant-head" data-participant="FACT"><rect fill="#222222" height="30.2969" rx="2.5" ry="2.5" style="stroke:#E7E7E7;stroke-width:0.5;" width="128.7275" x="724.5264" y="87.2969"/><text fill="#FFFFFF" font-family="sans-serif" font-size="14" lengthAdjust="spacing" textLength="114.7275" x="731.5264" y="107.292">:IndustryFactory</text></g><g class="participant participant-tail" data-participant="FACT"><rect fill="#222222" height="30.2969" rx="2.5" ry="2.5" style="stroke:#E7E7E7;stroke-width:0.5;" width="128.7275" x="724.5264" y="569.7813"/><text fill="#FFFFFF" font-family="sans-serif" font-size="14" lengthAdjust="spacing" textLength="114.7275" x="731.5264" y="589.7764">:IndustryFactory</text></g><g class="participant participant-head" data-participant="MAP"><rect fill="#222222" height="30.2969" rx="2.5" ry="2.5" style="stroke:#E7E7E7;stroke-width:0.5;" width="79.3652" x="863.2539" y="87.2969"/><text fill="#FFFFFF" font-family="sans-serif" font-size="14" lengthAdjust="spacing" textLength="65.3652" x="870.2539" y="107.292">map:Map</text></g><g class="participant participant-tail" data-participant="MAP"><rect fill="#222222" height="30.2969" rx="2.5" ry="2.5" style="stroke:#E7E7E7;stroke-width:0.5;" width="79.3652" x="863.2539" y="569.7813"/><text fill="#FFFFFF" font-family="sans-serif" font-size="14" lengthAdjust="spacing" textLength="65.3652" x="870.2539" y="589.7764">map:Map</text></g><g class="participant participant-tail" data-participant="IND"><rect fill="#222222" height="30.2969" rx="2.5" ry="2.5" style="stroke:#E7E7E7;stroke-width:0.5;" width="133.6494" x="966.2983" y="569.7813"/><text fill="#FFFFFF" font-family="sans-serif" font-size="14" lengthAdjust="spacing" textLength="119.6494" x="973.2983" y="589.7764">industry:Industry</text></g><g class="participant participant-tail" data-participant="LOC"><rect fill="#222222" height="30.2969" rx="2.5" ry="2.5" style="stroke:#E7E7E7;stroke-width:0.5;" width="133.7246" x="1109.9478" y="569.7813"/><text fill="#FFFFFF" font-family="sans-serif" font-size="14" lengthAdjust="spacing" textLength="119.7246" x="1116.9478" y="589.7764">location:Location</text></g><g><title>:AddIndustryController</title><rect fill="#000000" height="324.6563" style="stroke:#E7E7E7;stroke-width:1;" width="10" x="489.7793" y="237.125"/></g><g><title>:MapRepository</title><rect fill="#000000" height="29.1328" style="stroke:#E7E7E7;stroke-width:1;" width="10" x="647.8594" y="266.2578"/></g><g><title>:IndustryFactory</title><rect fill="#000000" height="99.5625" style="stroke:#E7E7E7;stroke-width:1;" width="10" x="783.8901" y="453.2188"/></g><g><title>map:Map</title><rect fill="#000000" height="29.1328" style="stroke:#E7E7E7;stroke-width:1;" width="10" x="897.9365" y="394.9531"/></g><g><title>industry:Industry</title><rect fill="#000000" height="31.2969" style="stroke:#E7E7E7;stroke-width:1;" width="10" x="1028.123" y="492.3516"/></g><g><title>location:Location</title><rect fill="#000000" height="31.2969" style="stroke:#E7E7E7;stroke-width:1;" width="10" x="1171.8101" y="334.5234"/></g><g class="message" data-participant-1="ED" data-participant-2="UI"><polygon fill="#E7E7E7" points="199.9346,145.7266,209.9346,149.7266,199.9346,153.7266,203.9346,149.7266" style="stroke:#E7E7E7;stroke-width:1;"/><line style="stroke:#E7E7E7;stroke-width:2;" x1="28.7163" x2="205.9346" y1="149.7266" y2="149.7266"/><text fill="#FFFFFF" font-family="sans-serif" font-size="13" lengthAdjust="spacing" textLength="159.2183" x="40.7163" y="144.6606">selects industry subtype</text></g><g class="message" data-participant-1="UI" data-participant-2="ED"><polygon fill="#E7E7E7" points="39.7163,174.8594,29.7163,178.8594,39.7163,182.8594,35.7163,178.8594" style="stroke:#E7E7E7;stroke-width:1;"/><line style="stroke:#E7E7E7;stroke-width:2;stroke-dasharray:2.0,2.0;" x1="33.7163" x2="210.9346" y1="178.8594" y2="178.8594"/><text fill="#FFFFFF" font-family="sans-serif" font-size="13" lengthAdjust="spacing" textLength="136.9443" x="51.8533" y="173.7935">requests coordinates</text></g><g class="message" data-participant-1="ED" data-participant-2="UI"><polygon fill="#E7E7E7" points="199.9346,203.9922,209.9346,207.9922,199.9346,211.9922,203.9346,207.9922" style="stroke:#E7E7E7;stroke-width:1;"/><line style="stroke:#E7E7E7;stroke-width:2;" x1="28.7163" x2="205.9346" y1="207.9922" y2="207.9922"/><text fill="#FFFFFF" font-family="sans-serif" font-size="13" lengthAdjust="spacing" textLength="145.793" x="47.429" y="202.9263">inputs X,Y coordinates</text></g><g class="message" data-participant-1="UI" data-participant-2="CTRL"><polygon fill="#E7E7E7" points="477.7793,233.125,487.7793,237.125,477.7793,241.125,481.7793,237.125" style="stroke:#E7E7E7;stroke-width:1;"/><line style="stroke:#E7E7E7;stroke-width:2;" x1="211.9346" x2="483.7793" y1="237.125" y2="237.125"/><text fill="#FFFFFF" font-family="sans-serif" font-size="13" lengthAdjust="spacing" textLength="258.8447" x="221.4346" y="232.0591">addIndustry(mapId, type, subtype, x, y)</text></g><g class="message" data-participant-1="CTRL" data-participant-2="MAPREPO"><polygon fill="#E7E7E7" points="635.8594,262.2578,645.8594,266.2578,635.8594,270.2578,639.8594,266.2578" style="stroke:#E7E7E7;stroke-width:1;"/><line style="stroke:#E7E7E7;stroke-width:2;" x1="499.7793" x2="641.8594" y1="266.2578" y2="266.2578"/><text fill="#FFFFFF" font-family="sans-serif" font-size="13" lengthAdjust="spacing" textLength="104.4888" x="521.575" y="261.1919">findById(mapId)</text></g><g class="message" data-participant-1="MAPREPO" data-participant-2="CTRL"><polygon fill="#E7E7E7" points="510.7793,291.3906,500.7793,295.3906,510.7793,299.3906,506.7793,295.3906" style="stroke:#E7E7E7;stroke-width:1;"/><line style="stroke:#E7E7E7;stroke-width:2;stroke-dasharray:2.0,2.0;" x1="504.7793" x2="651.8594" y1="295.3906" y2="295.3906"/><text fill="#FFFFFF" font-family="sans-serif" font-size="13" lengthAdjust="spacing" textLength="28.8818" x="561.8784" y="290.3247">map</text></g><g class="message" data-participant-1="CTRL" data-participant-2="LOC"><polygon fill="#E7E7E7" points="1097.9478,320.5234,1107.9478,324.5234,1097.9478,328.5234,1101.9478,324.5234" style="stroke:#E7E7E7;stroke-width:1;"/><line style="stroke:#E7E7E7;stroke-width:2;" x1="499.7793" x2="1103.9478" y1="324.5234" y2="324.5234"/><text fill="#FFFFFF" font-family="sans-serif" font-size="13" lengthAdjust="spacing" textLength="75.3467" x="767.1902" y="319.4575">create(x, y)</text></g><rect fill="#222222" height="30.2969" rx="2.5" ry="2.5" style="stroke:#E7E7E7;stroke-width:0.5;" width="133.7246" x="1109.9478" y="303.3906"/><text fill="#FFFFFF" font-family="sans-serif" font-size="14" lengthAdjust="spacing" textLength="119.7246" x="1116.9478" y="323.3857">location:Location</text><g class="message" data-participant-1="LOC" data-participant-2="CTRL"><polygon fill="#E7E7E7" points="510.7793,361.8203,500.7793,365.8203,510.7793,369.8203,506.7793,365.8203" style="stroke:#E7E7E7;stroke-width:1;"/><line style="stroke:#E7E7E7;stroke-width:2;stroke-dasharray:2.0,2.0;" x1="504.7793" x2="1175.8101" y1="365.8203" y2="365.8203"/><text fill="#FFFFFF" font-family="sans-serif" font-size="13" lengthAdjust="spacing" textLength="51.5811" x="812.5042" y="360.7544">location</text></g><g class="message" data-participant-1="CTRL" data-participant-2="MAP"><polygon fill="#E7E7E7" points="885.9365,390.9531,895.9365,394.9531,885.9365,398.9531,889.9365,394.9531" style="stroke:#E7E7E7;stroke-width:1;"/><line style="stroke:#E7E7E7;stroke-width:2;" x1="499.7793" x2="891.9365" y1="394.9531" y2="394.9531"/><text fill="#FFFFFF" font-family="sans-serif" font-size="13" lengthAdjust="spacing" textLength="159.6563" x="619.0298" y="389.8872">isValidLocation(location)</text></g><g class="message" data-participant-1="MAP" data-participant-2="CTRL"><polygon fill="#E7E7E7" points="510.7793,420.0859,500.7793,424.0859,510.7793,428.0859,506.7793,424.0859" style="stroke:#E7E7E7;stroke-width:1;"/><line style="stroke:#E7E7E7;stroke-width:2;stroke-dasharray:2.0,2.0;" x1="504.7793" x2="901.9365" y1="424.0859" y2="424.0859"/><text fill="#FFFFFF" font-family="sans-serif" font-size="13" lengthAdjust="spacing" textLength="31.1353" x="685.7903" y="419.02">valid</text></g><g class="message" data-participant-1="CTRL" data-participant-2="FACT"><polygon fill="#E7E7E7" points="771.8901,449.2188,781.8901,453.2188,771.8901,457.2188,775.8901,453.2188" style="stroke:#E7E7E7;stroke-width:1;"/><line style="stroke:#E7E7E7;stroke-width:2;" x1="499.7793" x2="777.8901" y1="453.2188" y2="453.2188"/><text fill="#FFFFFF" font-family="sans-serif" font-size="13" lengthAdjust="spacing" textLength="254.6235" x="514.5229" y="448.1528">createIndustry(type, subtype, location)</text></g><g class="message" data-participant-1="FACT" data-participant-2="IND"><polygon fill="#E7E7E7" points="954.2983,478.3516,964.2983,482.3516,954.2983,486.3516,958.2983,482.3516" style="stroke:#E7E7E7;stroke-width:1;"/><line style="stroke:#E7E7E7;stroke-width:2;" x1="793.8901" x2="960.2983" y1="482.3516" y2="482.3516"/><text fill="#FFFFFF" font-family="sans-serif" font-size="13" lengthAdjust="spacing" textLength="148.4082" x="805.8901" y="477.2856">create(name, location)</text></g><rect fill="#222222" height="30.2969" rx="2.5" ry="2.5" style="stroke:#E7E7E7;stroke-width:0.5;" width="133.6494" x="966.2983" y="461.2188"/><text fill="#FFFFFF" font-family="sans-serif" font-size="14" lengthAdjust="spacing" textLength="119.6494" x="973.2983" y="481.2139">industry:Industry</text><g class="message" data-participant-1="IND" data-participant-2="FACT"><polygon fill="#E7E7E7" points="804.8901,519.6484,794.8901,523.6484,804.8901,527.6484,800.8901,523.6484" style="stroke:#E7E7E7;stroke-width:1;"/><line style="stroke:#E7E7E7;stroke-width:2;stroke-dasharray:2.0,2.0;" x1="798.8901" x2="1032.123" y1="523.6484" y2="523.6484"/><text fill="#FFFFFF" font-family="sans-serif" font-size="13" lengthAdjust="spacing" textLength="53.2505" x="886.8813" y="518.5825">industry</text></g><g class="message" data-participant-1="FACT" data-participant-2="CTRL"><polygon fill="#E7E7E7" points="510.7793,548.7813,500.7793,552.7813,510.7793,556.7813,506.7793,552.7813" style="stroke:#E7E7E7;stroke-width:1;"/><line style="stroke:#E7E7E7;stroke-width:2;stroke-dasharray:2.0,2.0;" x1="504.7793" x2="787.8901" y1="552.7813" y2="552.7813"/><text fill="#FFFFFF" font-family="sans-serif" font-size="13" lengthAdjust="spacing" textLength="53.2505" x="617.7095" y="547.7153">industry</text></g><!--SRC=[TP91J-Cm48Nl_XMZdhfLAY6qN7Aeb4s35AbTgj8YE7fjBrYaTjPsWFnxF4vTtD0zE8cKRzuypnlxAbLB3Js05VywePXO2slfioWQ-Qo02UM48VORLHYZttSlahqgpyDrWXZTASwqKSB03I6KEMrWKd7ftnEW5gebyQIJJBPKEPZa1UUrufrrfj_N0TdN_qTAhPpHJIC6jNAtNOtWDMstejKME_O1MXURRRMv6t5HyJPu7CZRejoTOmVQecBKEVyfZn8dhO3LlqTNR3IZJcgLhuuV0LlTbOGuwHe1a_tzrJNCOUEhu6SEaODQjPq3gZZ43b0QCMWGKYrXll3JodqmZM3EGZG4jllZ-bOGigzXxg5gcOF1zAodcDQ6IqMTi8c6n5uM7hEdCo0eBCAWSw1VGKpzP6gU0RR9OhyCFZBeVs3iyisN3_aGVAB8COWS_dgZl_gQ3o897wCwleFteRKd2HVVm9Es7-TibWF3yOZfo0REsfz4BcQIQeP44gz-9lQ1DfB7FAQnwjmnkasatx1avFLB5rSisZpDSZJ42st2Pk83DVo69NTLz72v1XVHds1jQ1lt8tM7r21yki4b395F]--></g></svg>