<svg xmlns="http://www.w3.org/2000/svg" xmlns:xlink="http://www.w3.org/1999/xlink" contentStyleType="text/css" height="750px" preserveAspectRatio="none" style="width:773px;height:750px;background:#FFFFFF;" version="1.1" viewBox="0 0 773 750" width="773px" zoomAndPan="magnify"><defs/><g><rect fill="#FFFFFF" height="555.8691" style="stroke:#181818;stroke-width:1.0;" width="10" x="22.8413" y="93.6211"/><rect fill="#FFFFFF" height="185.7461" style="stroke:#181818;stroke-width:1.0;" width="10" x="350.6372" y="116.9121"/><rect fill="#FFFFFF" height="142.125" style="stroke:#181818;stroke-width:1.0;" width="10" x="350.6372" y="333.9492"/><rect fill="#FFFFFF" height="142.125" style="stroke:#181818;stroke-width:1.0;" width="10" x="350.6372" y="507.3652"/><rect fill="#FFFFFF" height="79.543" style="stroke:#181818;stroke-width:1.0;" width="10" x="602.6187" y="191.8242"/><rect fill="#FFFFFF" height="79.543" style="stroke:#181818;stroke-width:1.0;" width="10" x="602.6187" y="365.2402"/><rect fill="#FFFFFF" height="79.543" style="stroke:#181818;stroke-width:1.0;" width="10" x="602.6187" y="538.6563"/><line style="stroke:#181818;stroke-width:0.5;stroke-dasharray:5.0,5.0;" x1="27" x2="27" y1="83.6211" y2="667.4902"/><line style="stroke:#181818;stroke-width:0.5;stroke-dasharray:5.0,5.0;" x1="355.0479" x2="355.0479" y1="83.6211" y2="667.4902"/><line style="stroke:#181818;stroke-width:0.5;stroke-dasharray:5.0,5.0;" x1="606.6846" x2="606.6846" y1="156.7227" y2="667.4902"/><line style="stroke:#181818;stroke-width:0.5;stroke-dasharray:5.0,5.0;" x1="735.5527" x2="735.5527" y1="83.6211" y2="667.4902"/><text fill="#000000" font-family="sans-serif" font-size="14" lengthAdjust="spacing" textLength="39.6826" x="5" y="80.1074">Player</text><ellipse cx="27.8413" cy="13.5" fill="#E3E3E3" rx="8" ry="8" style="stroke:#181818;stroke-width:0.5;"/><path d="M27.8413,21.5 L27.8413,48.5 M14.8413,29.5 L40.8413,29.5 M27.8413,48.5 L14.8413,63.5 M27.8413,48.5 L40.8413,63.5 " fill="none" style="stroke:#181818;stroke-width:0.5;"/><text fill="#000000" font-family="sans-serif" font-size="14" lengthAdjust="spacing" textLength="39.6826" x="5" y="681.5977">Player</text><ellipse cx="27.8413" cy="693.6113" fill="#E3E3E3" rx="8" ry="8" style="stroke:#181818;stroke-width:0.5;"/><path d="M27.8413,701.6113 L27.8413,728.6113 M14.8413,709.6113 L40.8413,709.6113 M27.8413,728.6113 L14.8413,743.6113 M27.8413,728.6113 L40.8413,743.6113 " fill="none" style="stroke:#181818;stroke-width:0.5;"/><rect fill="#E3E3E3" height="32.6211" rx="2.5" ry="2.5" style="stroke:#181818;stroke-width:0.5;" width="129.1787" x="291.0479" y="50"/><text fill="#000000" font-family="sans-serif" font-size="14" lengthAdjust="spacing" textLength="115.1787" x="298.0479" y="72.1074">:UpgradeStationUI</text><rect fill="#E3E3E3" height="32.6211" rx="2.5" ry="2.5" style="stroke:#181818;stroke-width:0.5;" width="129.1787" x="291.0479" y="666.4902"/><text fill="#000000" font-family="sans-serif" font-size="14" lengthAdjust="spacing" textLength="115.1787" x="298.0479" y="688.5977">:UpgradeStationUI</text><rect fill="#E3E3E3" height="32.6211" rx="2.5" ry="2.5" style="stroke:#181818;stroke-width:0.5;" width="175.8682" x="519.6846" y="666.4902"/><text fill="#000000" font-family="sans-serif" font-size="14" lengthAdjust="spacing" textLength="161.8682" x="526.6846" y="688.5977">:UpgradeStationController</text><rect fill="#E3E3E3" height="51.2422" rx="2.5" ry="2.5" style="stroke:#181818;stroke-width:0.5;" width="61.4756" x="705.5527" y="31.3789"/><text fill="#000000" font-family="sans-serif" font-size="14" lengthAdjust="spacing" textLength="41.248" x="715.6665" y="53.4863">station</text><text fill="#000000" font-family="sans-serif" font-size="14" lengthAdjust="spacing" textLength="47.4756" x="712.5527" y="72.1074">:Station</text><rect fill="#E3E3E3" height="51.2422" rx="2.5" ry="2.5" style="stroke:#181818;stroke-width:0.5;" width="61.4756" x="705.5527" y="666.4902"/><text fill="#000000" font-family="sans-serif" font-size="14" lengthAdjust="spacing" textLength="41.248" x="715.6665" y="688.5977">station</text><text fill="#000000" font-family="sans-serif" font-size="14" lengthAdjust="spacing" textLength="47.4756" x="712.5527" y="707.2188">:Station</text><rect fill="#FFFFFF" height="555.8691" style="stroke:#181818;stroke-width:1.0;" width="10" x="22.8413" y="93.6211"/><rect fill="#FFFFFF" height="185.7461" style="stroke:#181818;stroke-width:1.0;" width="10" x="350.6372" y="116.9121"/><rect fill="#FFFFFF" height="142.125" style="stroke:#181818;stroke-width:1.0;" width="10" x="350.6372" y="333.9492"/><rect fill="#FFFFFF" height="142.125" style="stroke:#181818;stroke-width:1.0;" width="10" x="350.6372" y="507.3652"/><rect fill="#FFFFFF" height="79.543" style="stroke:#181818;stroke-width:1.0;" width="10" x="602.6187" y="191.8242"/><rect fill="#FFFFFF" height="79.543" style="stroke:#181818;stroke-width:1.0;" width="10" x="602.6187" y="365.2402"/><rect fill="#FFFFFF" height="79.543" style="stroke:#181818;stroke-width:1.0;" width="10" x="602.6187" y="538.6563"/><polygon fill="#181818" points="338.6372,112.9121,348.6372,116.9121,338.6372,120.9121,342.6372,116.9121" style="stroke:#181818;stroke-width:1.0;"/><line style="stroke:#181818;stroke-width:1.0;" x1="32.8413" x2="344.6372" y1="116.9121" y2="116.9121"/><text fill="#000000" font-family="sans-serif" font-size="13" font-weight="bold" lengthAdjust="spacing" textLength="7.23" x="39.8413" y="111.6494">1</text><text fill="#000000" font-family="sans-serif" font-size="13" lengthAdjust="spacing" textLength="145.2598" x="51.0713" y="111.6494">asks to upgrade a station</text><polygon fill="#181818" points="507.6846,144.2031,517.6846,148.2031,507.6846,152.2031,511.6846,148.2031" style="stroke:#181818;stroke-width:1.0;"/><line style="stroke:#181818;stroke-width:1.0;stroke-dasharray:2.0,2.0;" x1="360.6372" x2="513.6846" y1="148.2031" y2="148.2031"/><text fill="#000000" font-family="sans-serif" font-size="13" font-weight="bold" lengthAdjust="spacing" textLength="7.23" x="367.6372" y="142.9404">2</text><text fill="#000000" font-family="sans-serif" font-size="13" lengthAdjust="spacing" textLength="44.7891" x="378.8672" y="142.9404">create()</text><rect fill="#E3E3E3" height="32.6211" rx="2.5" ry="2.5" style="stroke:#181818;stroke-width:0.5;" width="175.8682" x="519.6846" y="124.9121"/><text fill="#000000" font-family="sans-serif" font-size="14" lengthAdjust="spacing" textLength="161.8682" x="526.6846" y="147.0195">:UpgradeStationController</text><polygon fill="#181818" points="590.6187,187.8242,600.6187,191.8242,590.6187,195.8242,594.6187,191.8242" style="stroke:#181818;stroke-width:1.0;"/><line style="stroke:#181818;stroke-width:1.0;" x1="360.6372" x2="596.6187" y1="191.8242" y2="191.8242"/><text fill="#000000" font-family="sans-serif" font-size="13" font-weight="bold" lengthAdjust="spacing" textLength="7.23" x="367.6372" y="186.5615">3</text><text fill="#000000" font-family="sans-serif" font-size="13" lengthAdjust="spacing" textLength="73.7026" x="378.8672" y="186.5615">getStations()</text><rect fill="none" height="43.252" style="stroke:#000000;stroke-width:1.5;" width="181.8682" x="516.6846" y="199.8242"/><path d="M516.6846,199.8242 L577.6846,199.8242 L577.6846,208.8242 L567.6846,218.8242 L516.6846,218.8242 L516.6846,199.8242 " fill="#EEEEEE" style="stroke:#000000;stroke-width:2.0;"/><text fill="#000000" font-family="sans-serif" font-size="13" font-weight="bold" lengthAdjust="spacing" textLength="16.6182" x="529.6846" y="215.8525">ref</text><text fill="#000000" font-family="sans-serif" font-size="12" lengthAdjust="spacing" textLength="88.043" x="563.5972" y="235.7734">Get Stations List</text><polygon fill="#181818" points="371.6372,267.3672,361.6372,271.3672,371.6372,275.3672,367.6372,271.3672" style="stroke:#181818;stroke-width:1.0;"/><line style="stroke:#181818;stroke-width:1.0;stroke-dasharray:2.0,2.0;" x1="365.6372" x2="606.6187" y1="271.3672" y2="271.3672"/><text fill="#000000" font-family="sans-serif" font-size="13" font-weight="bold" lengthAdjust="spacing" textLength="7.23" x="377.6372" y="266.1045">4</text><text fill="#000000" font-family="sans-serif" font-size="13" lengthAdjust="spacing" textLength="65.0317" x="388.8672" y="266.1045">stationsList</text><polygon fill="#181818" points="43.8413,298.6582,33.8413,302.6582,43.8413,306.6582,39.8413,302.6582" style="stroke:#181818;stroke-width:1.0;"/><line style="stroke:#181818;stroke-width:1.0;stroke-dasharray:2.0,2.0;" x1="37.8413" x2="354.6372" y1="302.6582" y2="302.6582"/><text fill="#000000" font-family="sans-serif" font-size="13" font-weight="bold" lengthAdjust="spacing" textLength="7.23" x="49.8413" y="297.3955">5</text><text fill="#000000" font-family="sans-serif" font-size="13" lengthAdjust="spacing" textLength="231.2324" x="61.0713" y="297.3955">shows station list and asks to select one</text><polygon fill="#181818" points="338.6372,329.9492,348.6372,333.9492,338.6372,337.9492,342.6372,333.9492" style="stroke:#181818;stroke-width:1.0;"/><line style="stroke:#181818;stroke-width:1.0;" x1="32.8413" x2="344.6372" y1="333.9492" y2="333.9492"/><text fill="#000000" font-family="sans-serif" font-size="13" font-weight="bold" lengthAdjust="spacing" textLength="7.23" x="39.8413" y="328.6865">6</text><text fill="#000000" font-family="sans-serif" font-size="13" lengthAdjust="spacing" textLength="93.2153" x="51.0713" y="328.6865">selects a station</text><polygon fill="#181818" points="590.6187,361.2402,600.6187,365.2402,590.6187,369.2402,594.6187,365.2402" style="stroke:#181818;stroke-width:1.0;"/><line style="stroke:#181818;stroke-width:1.0;" x1="360.6372" x2="596.6187" y1="365.2402" y2="365.2402"/><text fill="#000000" font-family="sans-serif" font-size="13" font-weight="bold" lengthAdjust="spacing" textLength="7.23" x="367.6372" y="359.9775">7</text><text fill="#000000" font-family="sans-serif" font-size="13" lengthAdjust="spacing" textLength="184.9961" x="378.8672" y="359.9775">getAvailableUpgrades(stationId)</text><rect fill="none" height="43.252" style="stroke:#000000;stroke-width:1.5;" width="181.8682" x="516.6846" y="373.2402"/><path d="M516.6846,373.2402 L577.6846,373.2402 L577.6846,382.2402 L567.6846,392.2402 L516.6846,392.2402 L516.6846,373.2402 " fill="#EEEEEE" style="stroke:#000000;stroke-width:2.0;"/><text fill="#000000" font-family="sans-serif" font-size="13" font-weight="bold" lengthAdjust="spacing" textLength="16.6182" x="529.6846" y="389.2686">ref</text><text fill="#000000" font-family="sans-serif" font-size="12" lengthAdjust="spacing" textLength="126.7383" x="544.2495" y="409.1895">Get Available Upgrades</text><polygon fill="#181818" points="371.6372,440.7832,361.6372,444.7832,371.6372,448.7832,367.6372,444.7832" style="stroke:#181818;stroke-width:1.0;"/><line style="stroke:#181818;stroke-width:1.0;stroke-dasharray:2.0,2.0;" x1="365.6372" x2="606.6187" y1="444.7832" y2="444.7832"/><text fill="#000000" font-family="sans-serif" font-size="13" font-weight="bold" lengthAdjust="spacing" textLength="7.23" x="377.6372" y="439.5205">8</text><text fill="#000000" font-family="sans-serif" font-size="13" lengthAdjust="spacing" textLength="107.6816" x="388.8672" y="439.5205">availableUpgrades</text><polygon fill="#181818" points="43.8413,472.0742,33.8413,476.0742,43.8413,480.0742,39.8413,476.0742" style="stroke:#181818;stroke-width:1.0;"/><line style="stroke:#181818;stroke-width:1.0;stroke-dasharray:2.0,2.0;" x1="37.8413" x2="354.6372" y1="476.0742" y2="476.0742"/><text fill="#000000" font-family="sans-serif" font-size="13" font-weight="bold" lengthAdjust="spacing" textLength="7.23" x="49.8413" y="470.8115">9</text><text fill="#000000" font-family="sans-serif" font-size="13" lengthAdjust="spacing" textLength="282.5659" x="61.0713" y="470.8115">shows available upgrades and asks to select one</text><polygon fill="#181818" points="338.6372,503.3652,348.6372,507.3652,338.6372,511.3652,342.6372,507.3652" style="stroke:#181818;stroke-width:1.0;"/><line style="stroke:#181818;stroke-width:1.0;" x1="32.8413" x2="344.6372" y1="507.3652" y2="507.3652"/><text fill="#000000" font-family="sans-serif" font-size="13" font-weight="bold" lengthAdjust="spacing" textLength="14.46" x="39.8413" y="502.1025">10</text><text fill="#000000" font-family="sans-serif" font-size="13" lengthAdjust="spacing" textLength="109.8525" x="58.3013" y="502.1025">selects an upgrade</text><polygon fill="#181818" points="590.6187,534.6563,600.6187,538.6563,590.6187,542.6563,594.6187,538.6563" style="stroke:#181818;stroke-width:1.0;"/><line style="stroke:#181818;stroke-width:1.0;" x1="360.6372" x2="596.6187" y1="538.6563" y2="538.6563"/><text fill="#000000" font-family="sans-serif" font-size="13" font-weight="bold" lengthAdjust="spacing" textLength="14.46" x="367.6372" y="533.3936">11</text><text fill="#000000" font-family="sans-serif" font-size="13" lengthAdjust="spacing" textLength="204.5215" x="386.0972" y="533.3936">applyUpgrade(stationId, upgradeId)</text><rect fill="none" height="43.252" style="stroke:#000000;stroke-width:1.5;" width="181.8682" x="516.6846" y="546.6563"/><path d="M516.6846,546.6563 L577.6846,546.6563 L577.6846,555.6563 L567.6846,565.6563 L516.6846,565.6563 L516.6846,546.6563 " fill="#EEEEEE" style="stroke:#000000;stroke-width:2.0;"/><text fill="#000000" font-family="sans-serif" font-size="13" font-weight="bold" lengthAdjust="spacing" textLength="16.6182" x="529.6846" y="562.6846">ref</text><text fill="#000000" font-family="sans-serif" font-size="12" lengthAdjust="spacing" textLength="120.0762" x="547.5806" y="582.6055">Apply Station Upgrade</text><polygon fill="#181818" points="371.6372,614.1992,361.6372,618.1992,371.6372,622.1992,367.6372,618.1992" style="stroke:#181818;stroke-width:1.0;"/><line style="stroke:#181818;stroke-width:1.0;stroke-dasharray:2.0,2.0;" x1="365.6372" x2="606.6187" y1="618.1992" y2="618.1992"/><text fill="#000000" font-family="sans-serif" font-size="13" font-weight="bold" lengthAdjust="spacing" textLength="14.46" x="377.6372" y="612.9365">12</text><text fill="#000000" font-family="sans-serif" font-size="13" lengthAdjust="spacing" textLength="46.96" x="396.0972" y="612.9365">success</text><polygon fill="#181818" points="38.8413,645.4902,28.8413,649.4902,38.8413,653.4902,34.8413,649.4902" style="stroke:#181818;stroke-width:1.0;"/><line style="stroke:#181818;stroke-width:1.0;stroke-dasharray:2.0,2.0;" x1="32.8413" x2="354.6372" y1="649.4902" y2="649.4902"/><text fill="#000000" font-family="sans-serif" font-size="13" font-weight="bold" lengthAdjust="spacing" textLength="14.46" x="44.8413" y="644.2275">13</text><text fill="#000000" font-family="sans-serif" font-size="13" lengthAdjust="spacing" textLength="158.9771" x="63.3013" y="644.2275">displays upgrade confirmed</text><!--SRC=[hPJFQkCm4CRlUeeXb_vXym8vB8HIba3ObZOvBFGoaIUEY2mPZPnktdx7jkJ6sRAaItIohM- - -UR7ODuRLsF02YhllDu5Nn74q93YuQP6lSUINkFH4WJI4LrfJmMymyA_6rV25YsJKjX4xvfgGq6fcvqf2BRUnut_hL177s3oRF58OGB8yBoS_tfyKU8KZJOrkWYJsRek0nRI4gFnRhtebEl5FrKFtiNWhKs-3wkNvLZFlUxDpL95ftjTpLUBfv-gZMOE62adKY2dVuRfT-aECz7l6QA7fkyC2Ccq4myEaXJIaRAfLBTfxk_5GGSInUsT6YbwWLoN55Cu5asM3CRTK71o0ct17oZyVTEU7nGXsy7IS1mfo1Lj_UXR5sEQnqt3yQYqe76Syr4JCgdU-NVE7c350r1QPePCLdO9l2DrPYluFeFV5_25q4-HpWzeB6uifOtXs-ImAAu3UMW0kSCNIUDvml_5FHZb7UKhGNVPy3BgMDVsc8RveFqjcrm3_BnjaVSxW__gXZTQ4rz0U-HnZhumNCiVZOV_WlPkQq95nMUKJrvxXpy0]--></g></svg>