<svg xmlns="http://www.w3.org/2000/svg" xmlns:xlink="http://www.w3.org/1999/xlink" contentStyleType="text/css" height="419px" preserveAspectRatio="none" style="width:604px;height:419px;background:#FFFFFF;" version="1.1" viewBox="0 0 604 419" width="604px" zoomAndPan="magnify"><title>US03 - Get Map List - Partial Sequence Diagram</title><defs/><g><text fill="#000000" font-family="sans-serif" font-size="14" font-weight="bold" lengthAdjust="spacing" textLength="316.6475" x="145.6589" y="30.1074">US03 - Get Map List - Partial Sequence Diagram</text><rect fill="#FFFFFF" height="252.3281" style="stroke:#181818;stroke-width:1.0;" width="10" x="154.71" y="111.5332"/><rect fill="#FFFFFF" height="31.291" style="stroke:#181818;stroke-width:1.0;" width="10" x="297.8662" y="169.1152"/><rect fill="#FFFFFF" height="31.291" style="stroke:#181818;stroke-width:1.0;" width="10" x="425.3521" y="231.6973"/><rect fill="#FFFFFF" height="31.291" style="stroke:#181818;stroke-width:1.0;" width="10" x="537.6689" y="294.2793"/><rect fill="none" height="207.0371" style="stroke:#000000;stroke-width:1.5;" width="513.0552" x="85.9102" y="126.5332"/><line style="stroke:#181818;stroke-width:0.5;stroke-dasharray:5.0,5.0;" x1="45" x2="45" y1="78.2422" y2="381.8613"/><line style="stroke:#181818;stroke-width:0.5;stroke-dasharray:5.0,5.0;" x1="158.9102" x2="158.9102" y1="78.2422" y2="381.8613"/><line style="stroke:#181818;stroke-width:0.5;stroke-dasharray:5.0,5.0;" x1="302.4009" x2="302.4009" y1="78.2422" y2="381.8613"/><line style="stroke:#181818;stroke-width:0.5;stroke-dasharray:5.0,5.0;" x1="430.3315" x2="430.3315" y1="78.2422" y2="381.8613"/><line style="stroke:#181818;stroke-width:0.5;stroke-dasharray:5.0,5.0;" x1="542.3726" x2="542.3726" y1="78.2422" y2="381.8613"/><rect fill="#E3E3E3" height="32.6211" rx="2.5" ry="2.5" style="stroke:#181818;stroke-width:0.5;" width="80.9102" x="5" y="44.6211"/><text fill="#000000" font-family="sans-serif" font-size="14" lengthAdjust="spacing" textLength="66.9102" x="12" y="66.7285">:AddCityUI</text><rect fill="#E3E3E3" height="32.6211" rx="2.5" ry="2.5" style="stroke:#181818;stroke-width:0.5;" width="80.9102" x="5" y="380.8613"/><text fill="#000000" font-family="sans-serif" font-size="14" lengthAdjust="spacing" textLength="66.9102" x="12" y="402.9688">:AddCityUI</text><rect fill="#E3E3E3" height="32.6211" rx="2.5" ry="2.5" style="stroke:#181818;stroke-width:0.5;" width="127.5996" x="95.9102" y="44.6211"/><text fill="#000000" font-family="sans-serif" font-size="14" lengthAdjust="spacing" textLength="113.5996" x="102.9102" y="66.7285">:AddCityController</text><rect fill="#E3E3E3" height="32.6211" rx="2.5" ry="2.5" style="stroke:#181818;stroke-width:0.5;" width="127.5996" x="95.9102" y="380.8613"/><text fill="#000000" font-family="sans-serif" font-size="14" lengthAdjust="spacing" textLength="113.5996" x="102.9102" y="402.9688">:AddCityController</text><rect fill="#E3E3E3" height="32.6211" rx="2.5" ry="2.5" style="stroke:#181818;stroke-width:0.5;" width="122.9307" x="241.4009" y="44.6211"/><text fill="#000000" font-family="sans-serif" font-size="14" lengthAdjust="spacing" textLength="108.9307" x="248.4009" y="66.7285">:GameRepository</text><rect fill="#E3E3E3" height="32.6211" rx="2.5" ry="2.5" style="stroke:#181818;stroke-width:0.5;" width="122.9307" x="241.4009" y="380.8613"/><text fill="#000000" font-family="sans-serif" font-size="14" lengthAdjust="spacing" textLength="108.9307" x="248.4009" y="402.9688">:GameRepository</text><rect fill="#E3E3E3" height="32.6211" rx="2.5" ry="2.5" style="stroke:#181818;stroke-width:0.5;" width="112.041" x="374.3315" y="44.6211"/><text fill="#000000" font-family="sans-serif" font-size="14" lengthAdjust="spacing" textLength="98.041" x="381.3315" y="66.7285">:MapRepository</text><rect fill="#E3E3E3" height="32.6211" rx="2.5" ry="2.5" style="stroke:#181818;stroke-width:0.5;" width="112.041" x="374.3315" y="380.8613"/><text fill="#000000" font-family="sans-serif" font-size="14" lengthAdjust="spacing" textLength="98.041" x="381.3315" y="402.9688">:MapRepository</text><rect fill="#E3E3E3" height="32.6211" rx="2.5" ry="2.5" style="stroke:#181818;stroke-width:0.5;" width="92.5928" x="496.3726" y="44.6211"/><text fill="#000000" font-family="sans-serif" font-size="14" lengthAdjust="spacing" textLength="78.5928" x="503.3726" y="66.7285">:MapMapper</text><rect fill="#E3E3E3" height="32.6211" rx="2.5" ry="2.5" style="stroke:#181818;stroke-width:0.5;" width="92.5928" x="496.3726" y="380.8613"/><text fill="#000000" font-family="sans-serif" font-size="14" lengthAdjust="spacing" textLength="78.5928" x="503.3726" y="402.9688">:MapMapper</text><rect fill="#FFFFFF" height="252.3281" style="stroke:#181818;stroke-width:1.0;" width="10" x="154.71" y="111.5332"/><rect fill="#FFFFFF" height="31.291" style="stroke:#181818;stroke-width:1.0;" width="10" x="297.8662" y="169.1152"/><rect fill="#FFFFFF" height="31.291" style="stroke:#181818;stroke-width:1.0;" width="10" x="425.3521" y="231.6973"/><rect fill="#FFFFFF" height="31.291" style="stroke:#181818;stroke-width:1.0;" width="10" x="537.6689" y="294.2793"/><polygon fill="#181818" points="142.71,107.5332,152.71,111.5332,142.71,115.5332,146.71,111.5332" style="stroke:#181818;stroke-width:1.0;"/><line style="stroke:#181818;stroke-width:1.0;" x1="45.4551" x2="148.71" y1="111.5332" y2="111.5332"/><text fill="#000000" font-family="sans-serif" font-size="13" lengthAdjust="spacing" textLength="72.249" x="52.4551" y="106.2705">getMapList()</text><path d="M85.9102,126.5332 L216.1465,126.5332 L216.1465,135.8242 L206.1465,145.8242 L85.9102,145.8242 L85.9102,126.5332 " fill="#EEEEEE" style="stroke:#000000;stroke-width:1.5;"/><rect fill="none" height="207.0371" style="stroke:#000000;stroke-width:1.5;" width="513.0552" x="85.9102" y="126.5332"/><text fill="#000000" font-family="sans-serif" font-size="13" font-weight="bold" lengthAdjust="spacing" textLength="85.2363" x="100.9102" y="141.5615">Get Maps List</text><polygon fill="#181818" points="285.8662,165.1152,295.8662,169.1152,285.8662,173.1152,289.8662,169.1152" style="stroke:#181818;stroke-width:1.0;"/><line style="stroke:#181818;stroke-width:1.0;" x1="164.71" x2="291.8662" y1="169.1152" y2="169.1152"/><text fill="#000000" font-family="sans-serif" font-size="13" lengthAdjust="spacing" textLength="114.1563" x="171.71" y="163.8525">getMapRepository()</text><polygon fill="#181818" points="175.71,196.4063,165.71,200.4063,175.71,204.4063,171.71,200.4063" style="stroke:#181818;stroke-width:1.0;"/><line style="stroke:#181818;stroke-width:1.0;stroke-dasharray:2.0,2.0;" x1="169.71" x2="301.8662" y1="200.4063" y2="200.4063"/><text fill="#000000" font-family="sans-serif" font-size="13" lengthAdjust="spacing" textLength="87.4263" x="181.71" y="195.1436">mapRepository</text><polygon fill="#181818" points="413.3521,227.6973,423.3521,231.6973,413.3521,235.6973,417.3521,231.6973" style="stroke:#181818;stroke-width:1.0;"/><line style="stroke:#181818;stroke-width:1.0;" x1="164.71" x2="419.3521" y1="231.6973" y2="231.6973"/><text fill="#000000" font-family="sans-serif" font-size="13" lengthAdjust="spacing" textLength="72.9663" x="171.71" y="226.4346">getAllMaps()</text><polygon fill="#181818" points="175.71,258.9883,165.71,262.9883,175.71,266.9883,171.71,262.9883" style="stroke:#181818;stroke-width:1.0;"/><line style="stroke:#181818;stroke-width:1.0;stroke-dasharray:2.0,2.0;" x1="169.71" x2="429.3521" y1="262.9883" y2="262.9883"/><text fill="#000000" font-family="sans-serif" font-size="13" lengthAdjust="spacing" textLength="45.519" x="181.71" y="257.7256">mapList</text><polygon fill="#181818" points="525.6689,290.2793,535.6689,294.2793,525.6689,298.2793,529.6689,294.2793" style="stroke:#181818;stroke-width:1.0;"/><line style="stroke:#181818;stroke-width:1.0;" x1="164.71" x2="531.6689" y1="294.2793" y2="294.2793"/><text fill="#000000" font-family="sans-serif" font-size="13" lengthAdjust="spacing" textLength="112.6899" x="171.71" y="289.0166">toDTOList(mapList)</text><polygon fill="#181818" points="175.71,321.5703,165.71,325.5703,175.71,329.5703,171.71,325.5703" style="stroke:#181818;stroke-width:1.0;"/><line style="stroke:#181818;stroke-width:1.0;stroke-dasharray:2.0,2.0;" x1="169.71" x2="541.6689" y1="325.5703" y2="325.5703"/><text fill="#000000" font-family="sans-serif" font-size="13" lengthAdjust="spacing" textLength="72.96" x="181.71" y="320.3076">mapDTOList</text><polygon fill="#181818" points="56.4551,359.8613,46.4551,363.8613,56.4551,367.8613,52.4551,363.8613" style="stroke:#181818;stroke-width:1.0;"/><line style="stroke:#181818;stroke-width:1.0;stroke-dasharray:2.0,2.0;" x1="50.4551" x2="158.71" y1="363.8613" y2="363.8613"/><text fill="#000000" font-family="sans-serif" font-size="13" lengthAdjust="spacing" textLength="72.96" x="62.4551" y="358.5986">mapDTOList</text><!--SRC=[RP5BRi8m48RtFiM8LRj0gjGTYqeH88G48Wha0ADacbeujciFhRXzdITEYkLDukz_UEolKbjqM4Djj2c-dAa9sDr8-F74Od75YivyLmIE2aPTgHZmNrYQNwah-4JbIGYM7D3y_FOEIzWHmn4j7AJdy9cYOuaAplHz8rqGR2HMmKK8svmKqg9cMAoIibnBlkVx1Q27VF_yU6qqEwCKkHPRNxB33DnXJHbPuoKRTs-fNNBSPjlqD2D3oHbuJDBdNDYsZmnCsEas4oBVm_AZxG0hg8W3rLpwvLLWmV87cRg245RbpCqEi_7jSDh_hJgu31r7fqUruDUGe-Tu7UZNg5q-wjInGqkMzDnXKgEVGDSYKQefEyyVfZJ43vff-dZ3A3TMpcExeGOjcytbrCwnT_aVtpz0LA1NJolqFazQH0Qao-vneaB19Rpjn2FIDymV]--></g></svg>