<svg xmlns="http://www.w3.org/2000/svg" xmlns:xlink="http://www.w3.org/1999/xlink" contentStyleType="text/css" height="1816px" preserveAspectRatio="none" style="width:2026px;height:1816px;background:#FFFFFF;" version="1.1" viewBox="0 0 2026 1816" width="2026px" zoomAndPan="magnify"><title>Sequence Diagram (SD) - US03 Add City to Map - Full</title><defs/><g><text fill="#000000" font-family="sans-serif" font-size="14" font-weight="bold" lengthAdjust="spacing" textLength="353.9307" x="835.1199" y="30.1074">Sequence Diagram (SD) - US03 Add City to Map - Full</text><rect fill="#FFFFFF" height="1582.2207" style="stroke:#181818;stroke-width:1.0;" width="10" x="36.2861" y="133.2422"/><rect fill="#FFFFFF" height="513.6563" style="stroke:#181818;stroke-width:1.0;" width="10" x="428.3711" y="156.5332"/><rect fill="#FFFFFF" height="31.291" style="stroke:#181818;stroke-width:1.0;" width="10" x="428.3711" y="701.4805"/><rect fill="#FFFFFF" height="281.6191" style="stroke:#181818;stroke-width:1.0;" width="10" x="428.3711" y="764.0625"/><rect fill="#FFFFFF" height="57.582" style="stroke:#181818;stroke-width:1.0;" width="10" x="428.3711" y="1076.9727"/><rect fill="#FFFFFF" height="549.6172" style="stroke:#181818;stroke-width:1.0;" width="10" x="428.3711" y="1165.8457"/><rect fill="#FFFFFF" height="156.4551" style="stroke:#181818;stroke-width:1.0;" width="10" x="622.5063" y="187.8242"/><rect fill="#FFFFFF" height="219.0371" style="stroke:#181818;stroke-width:1.0;" width="10" x="622.5063" y="419.8613"/><rect fill="#FFFFFF" height="219.0371" style="stroke:#181818;stroke-width:1.0;" width="10" x="622.5063" y="795.3535"/><rect fill="#FFFFFF" height="387.8223" style="stroke:#181818;stroke-width:1.0;" width="10" x="622.5063" y="1296.3496"/><rect fill="#FFFFFF" height="31.291" style="stroke:#181818;stroke-width:1.0;" width="10" x="782.6563" y="576.3164"/><rect fill="#FFFFFF" height="31.291" style="stroke:#181818;stroke-width:1.0;" width="10" x="883.687" y="1621.5898"/><rect fill="#FFFFFF" height="31.291" style="stroke:#181818;stroke-width:1.0;" width="10" x="1015.0728" y="219.1152"/><rect fill="#FFFFFF" height="31.291" style="stroke:#181818;stroke-width:1.0;" width="10" x="1150.3516" y="281.6973"/><rect fill="#FFFFFF" height="31.291" style="stroke:#181818;stroke-width:1.0;" width="10" x="1270.4443" y="451.1523"/><rect fill="#FFFFFF" height="31.291" style="stroke:#181818;stroke-width:1.0;" width="10" x="1397.9302" y="513.7344"/><rect fill="#FFFFFF" height="31.291" style="stroke:#181818;stroke-width:1.0;" width="10" x="1397.9302" y="1327.6406"/><rect fill="#FFFFFF" height="31.291" style="stroke:#181818;stroke-width:1.0;" width="10" x="1518.4092" y="920.5176"/><rect fill="#FFFFFF" height="31.291" style="stroke:#181818;stroke-width:1.0;" width="10" x="1518.4092" y="1527.7168"/><rect fill="#FFFFFF" height="31.291" style="stroke:#181818;stroke-width:1.0;" width="10" x="1614.3677" y="1465.1348"/><rect fill="#FFFFFF" height="93.873" style="stroke:#181818;stroke-width:1.0;" width="10" x="1863.5742" y="889.2266"/><rect fill="#FFFFFF" height="200.0762" style="stroke:#181818;stroke-width:1.0;" width="10" x="1863.5742" y="1390.2227"/><rect fill="#FFFFFF" height="31.291" style="stroke:#181818;stroke-width:1.0;" width="10" x="1966.543" y="826.6445"/><rect fill="none" height="129.7949" style="stroke:#000000;stroke-width:1.5;" width="473.8262" x="10" y="1091.9727"/><line style="stroke:#181818;stroke-width:0.5;stroke-dasharray:5.0,5.0;" x1="41" x2="41" y1="123.2422" y2="1733.4629"/><line style="stroke:#181818;stroke-width:0.5;stroke-dasharray:5.0,5.0;" x1="432.916" x2="432.916" y1="123.2422" y2="1733.4629"/><line style="stroke:#181818;stroke-width:0.5;stroke-dasharray:5.0,5.0;" x1="626.7065" x2="626.7065" y1="123.2422" y2="1733.4629"/><line style="stroke:#181818;stroke-width:0.5;stroke-dasharray:5.0,5.0;" x1="787.3599" x2="787.3599" y1="123.2422" y2="1733.4629"/><line style="stroke:#181818;stroke-width:0.5;stroke-dasharray:5.0,5.0;" x1="887.9526" x2="887.9526" y1="123.2422" y2="1733.4629"/><line style="stroke:#181818;stroke-width:0.5;stroke-dasharray:5.0,5.0;" x1="1019.4214" x2="1019.4214" y1="123.2422" y2="1733.4629"/><line style="stroke:#181818;stroke-width:0.5;stroke-dasharray:5.0,5.0;" x1="1154.7241" x2="1154.7241" y1="123.2422" y2="1733.4629"/><line style="stroke:#181818;stroke-width:0.5;stroke-dasharray:5.0,5.0;" x1="1274.979" x2="1274.979" y1="123.2422" y2="1733.4629"/><line style="stroke:#181818;stroke-width:0.5;stroke-dasharray:5.0,5.0;" x1="1402.9097" x2="1402.9097" y1="123.2422" y2="1733.4629"/><line style="stroke:#181818;stroke-width:0.5;stroke-dasharray:5.0,5.0;" x1="1522.9507" x2="1522.9507" y1="123.2422" y2="1733.4629"/><line style="stroke:#181818;stroke-width:0.5;stroke-dasharray:5.0,5.0;" x1="1618.8677" x2="1618.8677" y1="1430.0332" y2="1733.4629"/><line style="stroke:#181818;stroke-width:0.5;stroke-dasharray:5.0,5.0;" x1="1868.2329" x2="1868.2329" y1="123.2422" y2="1733.4629"/><line style="stroke:#181818;stroke-width:0.5;stroke-dasharray:5.0,5.0;" x1="1970.9155" x2="1970.9155" y1="123.2422" y2="1733.4629"/><text fill="#000000" font-family="sans-serif" font-size="14" lengthAdjust="spacing" textLength="36.5723" x="20" y="119.7285">Editor</text><ellipse cx="41.2861" cy="53.1211" fill="#E3E3E3" rx="8" ry="8" style="stroke:#181818;stroke-width:0.5;"/><path d="M41.2861,61.1211 L41.2861,88.1211 M28.2861,69.1211 L54.2861,69.1211 M41.2861,88.1211 L28.2861,103.1211 M41.2861,88.1211 L54.2861,103.1211 " fill="none" style="stroke:#181818;stroke-width:0.5;"/><text fill="#000000" font-family="sans-serif" font-size="14" lengthAdjust="spacing" textLength="36.5723" x="20" y="1747.5703">Editor</text><ellipse cx="41.2861" cy="1759.584" fill="#E3E3E3" rx="8" ry="8" style="stroke:#181818;stroke-width:0.5;"/><path d="M41.2861,1767.584 L41.2861,1794.584 M28.2861,1775.584 L54.2861,1775.584 M41.2861,1794.584 L28.2861,1809.584 M41.2861,1794.584 L54.2861,1809.584 " fill="none" style="stroke:#181818;stroke-width:0.5;"/><rect fill="#E3E3E3" height="32.6211" rx="2.5" ry="2.5" style="stroke:#181818;stroke-width:0.5;" width="80.9102" x="392.916" y="89.6211"/><text fill="#000000" font-family="sans-serif" font-size="14" lengthAdjust="spacing" textLength="66.9102" x="399.916" y="111.7285">:AddCityUI</text><rect fill="#E3E3E3" height="32.6211" rx="2.5" ry="2.5" style="stroke:#181818;stroke-width:0.5;" width="80.9102" x="392.916" y="1732.4629"/><text fill="#000000" font-family="sans-serif" font-size="14" lengthAdjust="spacing" textLength="66.9102" x="399.916" y="1754.5703">:AddCityUI</text><rect fill="#E3E3E3" height="32.6211" rx="2.5" ry="2.5" style="stroke:#181818;stroke-width:0.5;" width="127.5996" x="563.7065" y="89.6211"/><text fill="#000000" font-family="sans-serif" font-size="14" lengthAdjust="spacing" textLength="113.5996" x="570.7065" y="111.7285">:AddCityController</text><rect fill="#E3E3E3" height="32.6211" rx="2.5" ry="2.5" style="stroke:#181818;stroke-width:0.5;" width="127.5996" x="563.7065" y="1732.4629"/><text fill="#000000" font-family="sans-serif" font-size="14" lengthAdjust="spacing" textLength="113.5996" x="570.7065" y="1754.5703">:AddCityController</text><rect fill="#E3E3E3" height="32.6211" rx="2.5" ry="2.5" style="stroke:#181818;stroke-width:0.5;" width="92.5928" x="741.3599" y="89.6211"/><text fill="#000000" font-family="sans-serif" font-size="14" lengthAdjust="spacing" textLength="78.5928" x="748.3599" y="111.7285">:MapMapper</text><rect fill="#E3E3E3" height="32.6211" rx="2.5" ry="2.5" style="stroke:#181818;stroke-width:0.5;" width="92.5928" x="741.3599" y="1732.4629"/><text fill="#000000" font-family="sans-serif" font-size="14" lengthAdjust="spacing" textLength="78.5928" x="748.3599" y="1754.5703">:MapMapper</text><rect fill="#E3E3E3" height="32.6211" rx="2.5" ry="2.5" style="stroke:#181818;stroke-width:0.5;" width="89.4688" x="843.9526" y="89.6211"/><text fill="#000000" font-family="sans-serif" font-size="14" lengthAdjust="spacing" textLength="75.4688" x="850.9526" y="111.7285">:CityMapper</text><rect fill="#E3E3E3" height="32.6211" rx="2.5" ry="2.5" style="stroke:#181818;stroke-width:0.5;" width="89.4688" x="843.9526" y="1732.4629"/><text fill="#000000" font-family="sans-serif" font-size="14" lengthAdjust="spacing" textLength="75.4688" x="850.9526" y="1754.5703">:CityMapper</text><rect fill="#E3E3E3" height="32.6211" rx="2.5" ry="2.5" style="stroke:#181818;stroke-width:0.5;" width="153.3027" x="943.4214" y="89.6211"/><text fill="#000000" font-family="sans-serif" font-size="14" lengthAdjust="spacing" textLength="139.3027" x="950.4214" y="111.7285">:AuthenticationService</text><rect fill="#E3E3E3" height="32.6211" rx="2.5" ry="2.5" style="stroke:#181818;stroke-width:0.5;" width="153.3027" x="943.4214" y="1732.4629"/><text fill="#000000" font-family="sans-serif" font-size="14" lengthAdjust="spacing" textLength="139.3027" x="950.4214" y="1754.5703">:AuthenticationService</text><rect fill="#E3E3E3" height="32.6211" rx="2.5" ry="2.5" style="stroke:#181818;stroke-width:0.5;" width="97.2549" x="1106.7241" y="89.6211"/><text fill="#000000" font-family="sans-serif" font-size="14" lengthAdjust="spacing" textLength="83.2549" x="1113.7241" y="111.7285">:UserSession</text><rect fill="#E3E3E3" height="32.6211" rx="2.5" ry="2.5" style="stroke:#181818;stroke-width:0.5;" width="97.2549" x="1106.7241" y="1732.4629"/><text fill="#000000" font-family="sans-serif" font-size="14" lengthAdjust="spacing" textLength="83.2549" x="1113.7241" y="1754.5703">:UserSession</text><rect fill="#E3E3E3" height="32.6211" rx="2.5" ry="2.5" style="stroke:#181818;stroke-width:0.5;" width="122.9307" x="1213.979" y="89.6211"/><text fill="#000000" font-family="sans-serif" font-size="14" lengthAdjust="spacing" textLength="108.9307" x="1220.979" y="111.7285">:GameRepository</text><rect fill="#E3E3E3" height="32.6211" rx="2.5" ry="2.5" style="stroke:#181818;stroke-width:0.5;" width="122.9307" x="1213.979" y="1732.4629"/><text fill="#000000" font-family="sans-serif" font-size="14" lengthAdjust="spacing" textLength="108.9307" x="1220.979" y="1754.5703">:GameRepository</text><rect fill="#E3E3E3" height="32.6211" rx="2.5" ry="2.5" style="stroke:#181818;stroke-width:0.5;" width="112.041" x="1346.9097" y="89.6211"/><text fill="#000000" font-family="sans-serif" font-size="14" lengthAdjust="spacing" textLength="98.041" x="1353.9097" y="111.7285">:MapRepository</text><rect fill="#E3E3E3" height="32.6211" rx="2.5" ry="2.5" style="stroke:#181818;stroke-width:0.5;" width="112.041" x="1346.9097" y="1732.4629"/><text fill="#000000" font-family="sans-serif" font-size="14" lengthAdjust="spacing" textLength="98.041" x="1353.9097" y="1754.5703">:MapRepository</text><rect fill="#E3E3E3" height="32.6211" rx="2.5" ry="2.5" style="stroke:#181818;stroke-width:0.5;" width="108.917" x="1468.9507" y="89.6211"/><text fill="#000000" font-family="sans-serif" font-size="14" lengthAdjust="spacing" textLength="94.917" x="1475.9507" y="111.7285">:CityRepository</text><rect fill="#E3E3E3" height="32.6211" rx="2.5" ry="2.5" style="stroke:#181818;stroke-width:0.5;" width="108.917" x="1468.9507" y="1732.4629"/><text fill="#000000" font-family="sans-serif" font-size="14" lengthAdjust="spacing" textLength="94.917" x="1475.9507" y="1754.5703">:CityRepository</text><rect fill="#E3E3E3" height="32.6211" rx="2.5" ry="2.5" style="stroke:#181818;stroke-width:0.5;" width="63" x="1587.8677" y="1732.4629"/><text fill="#000000" font-family="sans-serif" font-size="14" lengthAdjust="spacing" textLength="49" x="1594.8677" y="1754.5703">city:City</text><rect fill="#E3E3E3" height="32.6211" rx="2.5" ry="2.5" style="stroke:#181818;stroke-width:0.5;" width="88.6826" x="1824.2329" y="89.6211"/><text fill="#000000" font-family="sans-serif" font-size="14" lengthAdjust="spacing" textLength="74.6826" x="1831.2329" y="111.7285">:CityService</text><rect fill="#E3E3E3" height="32.6211" rx="2.5" ry="2.5" style="stroke:#181818;stroke-width:0.5;" width="88.6826" x="1824.2329" y="1732.4629"/><text fill="#000000" font-family="sans-serif" font-size="14" lengthAdjust="spacing" textLength="74.6826" x="1831.2329" y="1754.5703">:CityService</text><rect fill="#E3E3E3" height="32.6211" rx="2.5" ry="2.5" style="stroke:#181818;stroke-width:0.5;" width="97.2549" x="1922.9155" y="89.6211"/><text fill="#000000" font-family="sans-serif" font-size="14" lengthAdjust="spacing" textLength="83.2549" x="1929.9155" y="111.7285">:CityValidator</text><rect fill="#E3E3E3" height="32.6211" rx="2.5" ry="2.5" style="stroke:#181818;stroke-width:0.5;" width="97.2549" x="1922.9155" y="1732.4629"/><text fill="#000000" font-family="sans-serif" font-size="14" lengthAdjust="spacing" textLength="83.2549" x="1929.9155" y="1754.5703">:CityValidator</text><rect fill="#FFFFFF" height="1582.2207" style="stroke:#181818;stroke-width:1.0;" width="10" x="36.2861" y="133.2422"/><rect fill="#FFFFFF" height="513.6563" style="stroke:#181818;stroke-width:1.0;" width="10" x="428.3711" y="156.5332"/><rect fill="#FFFFFF" height="31.291" style="stroke:#181818;stroke-width:1.0;" width="10" x="428.3711" y="701.4805"/><rect fill="#FFFFFF" height="281.6191" style="stroke:#181818;stroke-width:1.0;" width="10" x="428.3711" y="764.0625"/><rect fill="#FFFFFF" height="57.582" style="stroke:#181818;stroke-width:1.0;" width="10" x="428.3711" y="1076.9727"/><rect fill="#FFFFFF" height="549.6172" style="stroke:#181818;stroke-width:1.0;" width="10" x="428.3711" y="1165.8457"/><rect fill="#FFFFFF" height="156.4551" style="stroke:#181818;stroke-width:1.0;" width="10" x="622.5063" y="187.8242"/><rect fill="#FFFFFF" height="219.0371" style="stroke:#181818;stroke-width:1.0;" width="10" x="622.5063" y="419.8613"/><rect fill="#FFFFFF" height="219.0371" style="stroke:#181818;stroke-width:1.0;" width="10" x="622.5063" y="795.3535"/><rect fill="#FFFFFF" height="387.8223" style="stroke:#181818;stroke-width:1.0;" width="10" x="622.5063" y="1296.3496"/><rect fill="#FFFFFF" height="31.291" style="stroke:#181818;stroke-width:1.0;" width="10" x="782.6563" y="576.3164"/><rect fill="#FFFFFF" height="31.291" style="stroke:#181818;stroke-width:1.0;" width="10" x="883.687" y="1621.5898"/><rect fill="#FFFFFF" height="31.291" style="stroke:#181818;stroke-width:1.0;" width="10" x="1015.0728" y="219.1152"/><rect fill="#FFFFFF" height="31.291" style="stroke:#181818;stroke-width:1.0;" width="10" x="1150.3516" y="281.6973"/><rect fill="#FFFFFF" height="31.291" style="stroke:#181818;stroke-width:1.0;" width="10" x="1270.4443" y="451.1523"/><rect fill="#FFFFFF" height="31.291" style="stroke:#181818;stroke-width:1.0;" width="10" x="1397.9302" y="513.7344"/><rect fill="#FFFFFF" height="31.291" style="stroke:#181818;stroke-width:1.0;" width="10" x="1397.9302" y="1327.6406"/><rect fill="#FFFFFF" height="31.291" style="stroke:#181818;stroke-width:1.0;" width="10" x="1518.4092" y="920.5176"/><rect fill="#FFFFFF" height="31.291" style="stroke:#181818;stroke-width:1.0;" width="10" x="1518.4092" y="1527.7168"/><rect fill="#FFFFFF" height="31.291" style="stroke:#181818;stroke-width:1.0;" width="10" x="1614.3677" y="1465.1348"/><rect fill="#FFFFFF" height="93.873" style="stroke:#181818;stroke-width:1.0;" width="10" x="1863.5742" y="889.2266"/><rect fill="#FFFFFF" height="200.0762" style="stroke:#181818;stroke-width:1.0;" width="10" x="1863.5742" y="1390.2227"/><rect fill="#FFFFFF" height="31.291" style="stroke:#181818;stroke-width:1.0;" width="10" x="1966.543" y="826.6445"/><polygon fill="#181818" points="416.3711,152.5332,426.3711,156.5332,416.3711,160.5332,420.3711,156.5332" style="stroke:#181818;stroke-width:1.0;"/><line style="stroke:#181818;stroke-width:1.0;" x1="46.2861" x2="422.3711" y1="156.5332" y2="156.5332"/><text fill="#000000" font-family="sans-serif" font-size="13" font-weight="bold" lengthAdjust="spacing" textLength="7.23" x="53.2861" y="151.2705">1</text><text fill="#000000" font-family="sans-serif" font-size="13" lengthAdjust="spacing" textLength="100.439" x="64.5161" y="151.2705">asks to add a city</text><polygon fill="#181818" points="610.5063,183.8242,620.5063,187.8242,610.5063,191.8242,614.5063,187.8242" style="stroke:#181818;stroke-width:1.0;"/><line style="stroke:#181818;stroke-width:1.0;" x1="438.3711" x2="616.5063" y1="187.8242" y2="187.8242"/><text fill="#000000" font-family="sans-serif" font-size="13" font-weight="bold" lengthAdjust="spacing" textLength="7.23" x="445.3711" y="182.5615">2</text><text fill="#000000" font-family="sans-serif" font-size="13" lengthAdjust="spacing" textLength="124.2617" x="456.6011" y="182.5615">getCurrentUserRole()</text><polygon fill="#181818" points="1003.0728,215.1152,1013.0728,219.1152,1003.0728,223.1152,1007.0728,219.1152" style="stroke:#181818;stroke-width:1.0;"/><line style="stroke:#181818;stroke-width:1.0;" x1="632.5063" x2="1009.0728" y1="219.1152" y2="219.1152"/><text fill="#000000" font-family="sans-serif" font-size="13" font-weight="bold" lengthAdjust="spacing" textLength="7.23" x="639.5063" y="213.8525">3</text><text fill="#000000" font-family="sans-serif" font-size="13" lengthAdjust="spacing" textLength="143.7744" x="650.7363" y="213.8525">getCurrentUserSession()</text><polygon fill="#181818" points="643.5063,246.4063,633.5063,250.4063,643.5063,254.4063,639.5063,250.4063" style="stroke:#181818;stroke-width:1.0;"/><line style="stroke:#181818;stroke-width:1.0;stroke-dasharray:2.0,2.0;" x1="637.5063" x2="1019.0728" y1="250.4063" y2="250.4063"/><text fill="#000000" font-family="sans-serif" font-size="13" font-weight="bold" lengthAdjust="spacing" textLength="7.23" x="649.5063" y="245.1436">4</text><text fill="#000000" font-family="sans-serif" font-size="13" lengthAdjust="spacing" textLength="71.5381" x="660.7363" y="245.1436">userSession</text><polygon fill="#181818" points="1138.3516,277.6973,1148.3516,281.6973,1138.3516,285.6973,1142.3516,281.6973" style="stroke:#181818;stroke-width:1.0;"/><line style="stroke:#181818;stroke-width:1.0;" x1="632.5063" x2="1144.3516" y1="281.6973" y2="281.6973"/><text fill="#000000" font-family="sans-serif" font-size="13" font-weight="bold" lengthAdjust="spacing" textLength="7.23" x="639.5063" y="276.4346">5</text><text fill="#000000" font-family="sans-serif" font-size="13" lengthAdjust="spacing" textLength="87.4136" x="650.7363" y="276.4346">getUserRoles()</text><polygon fill="#181818" points="643.5063,308.9883,633.5063,312.9883,643.5063,316.9883,639.5063,312.9883" style="stroke:#181818;stroke-width:1.0;"/><line style="stroke:#181818;stroke-width:1.0;stroke-dasharray:2.0,2.0;" x1="637.5063" x2="1154.3516" y1="312.9883" y2="312.9883"/><text fill="#000000" font-family="sans-serif" font-size="13" font-weight="bold" lengthAdjust="spacing" textLength="7.23" x="649.5063" y="307.7256">6</text><text fill="#000000" font-family="sans-serif" font-size="13" lengthAdjust="spacing" textLength="28.1772" x="660.7363" y="307.7256">roles</text><polygon fill="#181818" points="449.3711,340.2793,439.3711,344.2793,449.3711,348.2793,445.3711,344.2793" style="stroke:#181818;stroke-width:1.0;"/><line style="stroke:#181818;stroke-width:1.0;stroke-dasharray:2.0,2.0;" x1="443.3711" x2="626.5063" y1="344.2793" y2="344.2793"/><text fill="#000000" font-family="sans-serif" font-size="13" font-weight="bold" lengthAdjust="spacing" textLength="7.23" x="455.3711" y="339.0166">7</text><text fill="#000000" font-family="sans-serif" font-size="13" lengthAdjust="spacing" textLength="28.1772" x="466.6011" y="339.0166">roles</text><line style="stroke:#181818;stroke-width:1.0;" x1="438.3711" x2="480.3711" y1="375.5703" y2="375.5703"/><line style="stroke:#181818;stroke-width:1.0;" x1="480.3711" x2="480.3711" y1="375.5703" y2="388.5703"/><line style="stroke:#181818;stroke-width:1.0;" x1="439.3711" x2="480.3711" y1="388.5703" y2="388.5703"/><polygon fill="#181818" points="449.3711,384.5703,439.3711,388.5703,449.3711,392.5703,445.3711,388.5703" style="stroke:#181818;stroke-width:1.0;"/><text fill="#000000" font-family="sans-serif" font-size="13" font-weight="bold" lengthAdjust="spacing" textLength="7.23" x="445.3711" y="370.3076">8</text><text fill="#000000" font-family="sans-serif" font-size="13" lengthAdjust="spacing" textLength="123.3921" x="456.6011" y="370.3076">validateRole("Editor")</text><polygon fill="#181818" points="610.5063,415.8613,620.5063,419.8613,610.5063,423.8613,614.5063,419.8613" style="stroke:#181818;stroke-width:1.0;"/><line style="stroke:#181818;stroke-width:1.0;" x1="438.3711" x2="616.5063" y1="419.8613" y2="419.8613"/><text fill="#000000" font-family="sans-serif" font-size="13" font-weight="bold" lengthAdjust="spacing" textLength="7.23" x="445.3711" y="414.5986">9</text><text fill="#000000" font-family="sans-serif" font-size="13" lengthAdjust="spacing" textLength="72.249" x="456.6011" y="414.5986">getMapList()</text><polygon fill="#181818" points="1258.4443,447.1523,1268.4443,451.1523,1258.4443,455.1523,1262.4443,451.1523" style="stroke:#181818;stroke-width:1.0;"/><line style="stroke:#181818;stroke-width:1.0;" x1="632.5063" x2="1264.4443" y1="451.1523" y2="451.1523"/><text fill="#000000" font-family="sans-serif" font-size="13" font-weight="bold" lengthAdjust="spacing" textLength="14.46" x="639.5063" y="445.8896">10</text><text fill="#000000" font-family="sans-serif" font-size="13" lengthAdjust="spacing" textLength="114.1563" x="657.9663" y="445.8896">getMapRepository()</text><polygon fill="#181818" points="643.5063,478.4434,633.5063,482.4434,643.5063,486.4434,639.5063,482.4434" style="stroke:#181818;stroke-width:1.0;"/><line style="stroke:#181818;stroke-width:1.0;stroke-dasharray:2.0,2.0;" x1="637.5063" x2="1274.4443" y1="482.4434" y2="482.4434"/><text fill="#000000" font-family="sans-serif" font-size="13" font-weight="bold" lengthAdjust="spacing" textLength="14.46" x="649.5063" y="477.1807">11</text><text fill="#000000" font-family="sans-serif" font-size="13" lengthAdjust="spacing" textLength="87.4263" x="667.9663" y="477.1807">mapRepository</text><polygon fill="#181818" points="1385.9302,509.7344,1395.9302,513.7344,1385.9302,517.7344,1389.9302,513.7344" style="stroke:#181818;stroke-width:1.0;"/><line style="stroke:#181818;stroke-width:1.0;" x1="632.5063" x2="1391.9302" y1="513.7344" y2="513.7344"/><text fill="#000000" font-family="sans-serif" font-size="13" font-weight="bold" lengthAdjust="spacing" textLength="14.46" x="639.5063" y="508.4717">12</text><text fill="#000000" font-family="sans-serif" font-size="13" lengthAdjust="spacing" textLength="72.9663" x="657.9663" y="508.4717">getAllMaps()</text><polygon fill="#181818" points="643.5063,541.0254,633.5063,545.0254,643.5063,549.0254,639.5063,545.0254" style="stroke:#181818;stroke-width:1.0;"/><line style="stroke:#181818;stroke-width:1.0;stroke-dasharray:2.0,2.0;" x1="637.5063" x2="1401.9302" y1="545.0254" y2="545.0254"/><text fill="#000000" font-family="sans-serif" font-size="13" font-weight="bold" lengthAdjust="spacing" textLength="14.46" x="649.5063" y="539.7627">13</text><text fill="#000000" font-family="sans-serif" font-size="13" lengthAdjust="spacing" textLength="45.519" x="667.9663" y="539.7627">mapList</text><polygon fill="#181818" points="770.6563,572.3164,780.6563,576.3164,770.6563,580.3164,774.6563,576.3164" style="stroke:#181818;stroke-width:1.0;"/><line style="stroke:#181818;stroke-width:1.0;" x1="632.5063" x2="776.6563" y1="576.3164" y2="576.3164"/><text fill="#000000" font-family="sans-serif" font-size="13" font-weight="bold" lengthAdjust="spacing" textLength="14.46" x="639.5063" y="571.0537">14</text><text fill="#000000" font-family="sans-serif" font-size="13" lengthAdjust="spacing" textLength="112.6899" x="657.9663" y="571.0537">toDTOList(mapList)</text><polygon fill="#181818" points="643.5063,603.6074,633.5063,607.6074,643.5063,611.6074,639.5063,607.6074" style="stroke:#181818;stroke-width:1.0;"/><line style="stroke:#181818;stroke-width:1.0;stroke-dasharray:2.0,2.0;" x1="637.5063" x2="786.6563" y1="607.6074" y2="607.6074"/><text fill="#000000" font-family="sans-serif" font-size="13" font-weight="bold" lengthAdjust="spacing" textLength="14.46" x="649.5063" y="602.3447">15</text><text fill="#000000" font-family="sans-serif" font-size="13" lengthAdjust="spacing" textLength="72.96" x="667.9663" y="602.3447">mapDTOList</text><polygon fill="#181818" points="449.3711,634.8984,439.3711,638.8984,449.3711,642.8984,445.3711,638.8984" style="stroke:#181818;stroke-width:1.0;"/><line style="stroke:#181818;stroke-width:1.0;stroke-dasharray:2.0,2.0;" x1="443.3711" x2="626.5063" y1="638.8984" y2="638.8984"/><text fill="#000000" font-family="sans-serif" font-size="13" font-weight="bold" lengthAdjust="spacing" textLength="14.46" x="455.3711" y="633.6357">16</text><text fill="#000000" font-family="sans-serif" font-size="13" lengthAdjust="spacing" textLength="72.96" x="473.8311" y="633.6357">mapDTOList</text><polygon fill="#181818" points="57.2861,666.1895,47.2861,670.1895,57.2861,674.1895,53.2861,670.1895" style="stroke:#181818;stroke-width:1.0;"/><line style="stroke:#181818;stroke-width:1.0;stroke-dasharray:2.0,2.0;" x1="51.2861" x2="432.3711" y1="670.1895" y2="670.1895"/><text fill="#000000" font-family="sans-serif" font-size="13" font-weight="bold" lengthAdjust="spacing" textLength="14.46" x="63.2861" y="664.9268">17</text><text fill="#000000" font-family="sans-serif" font-size="13" lengthAdjust="spacing" textLength="218.2197" x="81.7461" y="664.9268">shows map list and asks to select one</text><polygon fill="#181818" points="416.3711,697.4805,426.3711,701.4805,416.3711,705.4805,420.3711,701.4805" style="stroke:#181818;stroke-width:1.0;"/><line style="stroke:#181818;stroke-width:1.0;" x1="46.2861" x2="422.3711" y1="701.4805" y2="701.4805"/><text fill="#000000" font-family="sans-serif" font-size="13" font-weight="bold" lengthAdjust="spacing" textLength="14.46" x="53.2861" y="696.2178">18</text><text fill="#000000" font-family="sans-serif" font-size="13" lengthAdjust="spacing" textLength="69.3608" x="71.7461" y="696.2178">selects map</text><polygon fill="#181818" points="57.2861,728.7715,47.2861,732.7715,57.2861,736.7715,53.2861,732.7715" style="stroke:#181818;stroke-width:1.0;"/><line style="stroke:#181818;stroke-width:1.0;stroke-dasharray:2.0,2.0;" x1="51.2861" x2="432.3711" y1="732.7715" y2="732.7715"/><text fill="#000000" font-family="sans-serif" font-size="13" font-weight="bold" lengthAdjust="spacing" textLength="14.46" x="63.2861" y="727.5088">19</text><text fill="#000000" font-family="sans-serif" font-size="13" lengthAdjust="spacing" textLength="339.625" x="81.7461" y="727.5088">requests city data (name, coordinates, house blocks count)</text><polygon fill="#181818" points="416.3711,760.0625,426.3711,764.0625,416.3711,768.0625,420.3711,764.0625" style="stroke:#181818;stroke-width:1.0;"/><line style="stroke:#181818;stroke-width:1.0;" x1="46.2861" x2="422.3711" y1="764.0625" y2="764.0625"/><text fill="#000000" font-family="sans-serif" font-size="13" font-weight="bold" lengthAdjust="spacing" textLength="14.46" x="53.2861" y="758.7998">20</text><text fill="#000000" font-family="sans-serif" font-size="13" lengthAdjust="spacing" textLength="101.1626" x="71.7461" y="758.7998">provides city data</text><polygon fill="#181818" points="610.5063,791.3535,620.5063,795.3535,610.5063,799.3535,614.5063,795.3535" style="stroke:#181818;stroke-width:1.0;"/><line style="stroke:#181818;stroke-width:1.0;" x1="438.3711" x2="616.5063" y1="795.3535" y2="795.3535"/><text fill="#000000" font-family="sans-serif" font-size="13" font-weight="bold" lengthAdjust="spacing" textLength="14.46" x="445.3711" y="790.0908">21</text><text fill="#000000" font-family="sans-serif" font-size="13" lengthAdjust="spacing" textLength="146.6753" x="463.8311" y="790.0908">validateCityData(request)</text><polygon fill="#181818" points="1954.543,822.6445,1964.543,826.6445,1954.543,830.6445,1958.543,826.6445" style="stroke:#181818;stroke-width:1.0;"/><line style="stroke:#181818;stroke-width:1.0;" x1="632.5063" x2="1960.543" y1="826.6445" y2="826.6445"/><text fill="#000000" font-family="sans-serif" font-size="13" font-weight="bold" lengthAdjust="spacing" textLength="14.46" x="639.5063" y="821.3818">22</text><text fill="#000000" font-family="sans-serif" font-size="13" lengthAdjust="spacing" textLength="146.6753" x="657.9663" y="821.3818">validateCityData(request)</text><polygon fill="#181818" points="643.5063,853.9355,633.5063,857.9355,643.5063,861.9355,639.5063,857.9355" style="stroke:#181818;stroke-width:1.0;"/><line style="stroke:#181818;stroke-width:1.0;stroke-dasharray:2.0,2.0;" x1="637.5063" x2="1970.543" y1="857.9355" y2="857.9355"/><text fill="#000000" font-family="sans-serif" font-size="13" font-weight="bold" lengthAdjust="spacing" textLength="14.46" x="649.5063" y="852.6729">23</text><text fill="#000000" font-family="sans-serif" font-size="13" lengthAdjust="spacing" textLength="91.7744" x="667.9663" y="852.6729">validationResult</text><polygon fill="#181818" points="1851.5742,885.2266,1861.5742,889.2266,1851.5742,893.2266,1855.5742,889.2266" style="stroke:#181818;stroke-width:1.0;"/><line style="stroke:#181818;stroke-width:1.0;" x1="632.5063" x2="1857.5742" y1="889.2266" y2="889.2266"/><text fill="#000000" font-family="sans-serif" font-size="13" font-weight="bold" lengthAdjust="spacing" textLength="14.46" x="639.5063" y="883.9639">24</text><text fill="#000000" font-family="sans-serif" font-size="13" lengthAdjust="spacing" textLength="299.8696" x="657.9663" y="883.9639">isNameUniqueInMap(request.name, request.mapId)</text><polygon fill="#181818" points="1539.4092,916.5176,1529.4092,920.5176,1539.4092,924.5176,1535.4092,920.5176" style="stroke:#181818;stroke-width:1.0;"/><line style="stroke:#181818;stroke-width:1.0;" x1="1533.4092" x2="1862.5742" y1="920.5176" y2="920.5176"/><text fill="#000000" font-family="sans-serif" font-size="13" font-weight="bold" lengthAdjust="spacing" textLength="14.46" x="1545.4092" y="915.2549">25</text><text fill="#000000" font-family="sans-serif" font-size="13" lengthAdjust="spacing" textLength="297.7051" x="1563.8691" y="915.2549">findByNameAndMap(request.name, request.mapId)</text><polygon fill="#181818" points="1851.5742,947.8086,1861.5742,951.8086,1851.5742,955.8086,1855.5742,951.8086" style="stroke:#181818;stroke-width:1.0;"/><line style="stroke:#181818;stroke-width:1.0;stroke-dasharray:2.0,2.0;" x1="1523.4092" x2="1857.5742" y1="951.8086" y2="951.8086"/><text fill="#000000" font-family="sans-serif" font-size="13" font-weight="bold" lengthAdjust="spacing" textLength="14.46" x="1530.4092" y="946.5459">26</text><text fill="#000000" font-family="sans-serif" font-size="13" lengthAdjust="spacing" textLength="66.4663" x="1548.8691" y="946.5459">existingCity</text><polygon fill="#181818" points="643.5063,979.0996,633.5063,983.0996,643.5063,987.0996,639.5063,983.0996" style="stroke:#181818;stroke-width:1.0;"/><line style="stroke:#181818;stroke-width:1.0;stroke-dasharray:2.0,2.0;" x1="637.5063" x2="1867.5742" y1="983.0996" y2="983.0996"/><text fill="#000000" font-family="sans-serif" font-size="13" font-weight="bold" lengthAdjust="spacing" textLength="14.46" x="649.5063" y="977.8369">27</text><text fill="#000000" font-family="sans-serif" font-size="13" lengthAdjust="spacing" textLength="50.5845" x="667.9663" y="977.8369">isUnique</text><polygon fill="#181818" points="449.3711,1010.3906,439.3711,1014.3906,449.3711,1018.3906,445.3711,1014.3906" style="stroke:#181818;stroke-width:1.0;"/><line style="stroke:#181818;stroke-width:1.0;stroke-dasharray:2.0,2.0;" x1="443.3711" x2="626.5063" y1="1014.3906" y2="1014.3906"/><text fill="#000000" font-family="sans-serif" font-size="13" font-weight="bold" lengthAdjust="spacing" textLength="14.46" x="455.3711" y="1009.1279">28</text><text fill="#000000" font-family="sans-serif" font-size="13" lengthAdjust="spacing" textLength="91.7744" x="473.8311" y="1009.1279">validationResult</text><polygon fill="#181818" points="57.2861,1041.6816,47.2861,1045.6816,57.2861,1049.6816,53.2861,1045.6816" style="stroke:#181818;stroke-width:1.0;"/><line style="stroke:#181818;stroke-width:1.0;stroke-dasharray:2.0,2.0;" x1="51.2861" x2="432.3711" y1="1045.6816" y2="1045.6816"/><text fill="#000000" font-family="sans-serif" font-size="13" font-weight="bold" lengthAdjust="spacing" textLength="14.46" x="63.2861" y="1040.4189">29</text><text fill="#000000" font-family="sans-serif" font-size="13" lengthAdjust="spacing" textLength="315.7642" x="81.7461" y="1040.4189">requests block assignment method (manual/automatic)</text><polygon fill="#181818" points="416.3711,1072.9727,426.3711,1076.9727,416.3711,1080.9727,420.3711,1076.9727" style="stroke:#181818;stroke-width:1.0;"/><line style="stroke:#181818;stroke-width:1.0;" x1="46.2861" x2="422.3711" y1="1076.9727" y2="1076.9727"/><text fill="#000000" font-family="sans-serif" font-size="13" font-weight="bold" lengthAdjust="spacing" textLength="14.46" x="53.2861" y="1071.71">30</text><text fill="#000000" font-family="sans-serif" font-size="13" lengthAdjust="spacing" textLength="191.4834" x="71.7461" y="1071.71">selects block assignment method</text><path d="M10,1091.9727 L70.1709,1091.9727 L70.1709,1101.2637 L60.1709,1111.2637 L10,1111.2637 L10,1091.9727 " fill="#EEEEEE" style="stroke:#000000;stroke-width:1.5;"/><rect fill="none" height="129.7949" style="stroke:#000000;stroke-width:1.5;" width="473.8262" x="10" y="1091.9727"/><text fill="#000000" font-family="sans-serif" font-size="13" font-weight="bold" lengthAdjust="spacing" textLength="15.1709" x="25" y="1107.001">alt</text><text fill="#000000" font-family="sans-serif" font-size="11" font-weight="bold" lengthAdjust="spacing" textLength="103.3022" x="85.1709" y="1105.8428">[manual placement]</text><polygon fill="#181818" points="57.2861,1130.5547,47.2861,1134.5547,57.2861,1138.5547,53.2861,1134.5547" style="stroke:#181818;stroke-width:1.0;"/><line style="stroke:#181818;stroke-width:1.0;stroke-dasharray:2.0,2.0;" x1="51.2861" x2="432.3711" y1="1134.5547" y2="1134.5547"/><text fill="#000000" font-family="sans-serif" font-size="13" font-weight="bold" lengthAdjust="spacing" textLength="14.46" x="63.2861" y="1129.292">31</text><text fill="#000000" font-family="sans-serif" font-size="13" lengthAdjust="spacing" textLength="244.2578" x="81.7461" y="1129.292">requests coordinates for each house block</text><polygon fill="#181818" points="416.3711,1161.8457,426.3711,1165.8457,416.3711,1169.8457,420.3711,1165.8457" style="stroke:#181818;stroke-width:1.0;"/><line style="stroke:#181818;stroke-width:1.0;" x1="46.2861" x2="422.3711" y1="1165.8457" y2="1165.8457"/><text fill="#000000" font-family="sans-serif" font-size="13" font-weight="bold" lengthAdjust="spacing" textLength="14.46" x="53.2861" y="1160.583">32</text><text fill="#000000" font-family="sans-serif" font-size="13" lengthAdjust="spacing" textLength="204.5024" x="71.7461" y="1160.583">provides coordinates for each block</text><line style="stroke:#000000;stroke-width:1.0;stroke-dasharray:2.0,2.0;" x1="10" x2="483.8262" y1="1174.8457" y2="1174.8457"/><text fill="#000000" font-family="sans-serif" font-size="11" font-weight="bold" lengthAdjust="spacing" textLength="116.7461" x="15" y="1186.7158">[automatic placement]</text><polygon fill="#181818" points="57.2861,1209.7676,47.2861,1213.7676,57.2861,1217.7676,53.2861,1213.7676" style="stroke:#181818;stroke-width:1.0;"/><line style="stroke:#181818;stroke-width:1.0;stroke-dasharray:2.0,2.0;" x1="51.2861" x2="427.3711" y1="1213.7676" y2="1213.7676"/><text fill="#000000" font-family="sans-serif" font-size="13" font-weight="bold" lengthAdjust="spacing" textLength="14.46" x="63.2861" y="1208.5049">33</text><text fill="#000000" font-family="sans-serif" font-size="13" lengthAdjust="spacing" textLength="317.1987" x="81.7461" y="1208.5049">confirms automatic placement using normal distribution</text><line style="stroke:#181818;stroke-width:1.0;" x1="438.3711" x2="480.3711" y1="1252.0586" y2="1252.0586"/><line style="stroke:#181818;stroke-width:1.0;" x1="480.3711" x2="480.3711" y1="1252.0586" y2="1265.0586"/><line style="stroke:#181818;stroke-width:1.0;" x1="439.3711" x2="480.3711" y1="1265.0586" y2="1265.0586"/><polygon fill="#181818" points="449.3711,1261.0586,439.3711,1265.0586,449.3711,1269.0586,445.3711,1265.0586" style="stroke:#181818;stroke-width:1.0;"/><text fill="#000000" font-family="sans-serif" font-size="13" font-weight="bold" lengthAdjust="spacing" textLength="14.46" x="445.3711" y="1246.7959">34</text><text fill="#000000" font-family="sans-serif" font-size="13" lengthAdjust="spacing" textLength="95.3545" x="463.8311" y="1246.7959">collectCityData()</text><polygon fill="#181818" points="610.5063,1292.3496,620.5063,1296.3496,610.5063,1300.3496,614.5063,1296.3496" style="stroke:#181818;stroke-width:1.0;"/><line style="stroke:#181818;stroke-width:1.0;" x1="438.3711" x2="616.5063" y1="1296.3496" y2="1296.3496"/><text fill="#000000" font-family="sans-serif" font-size="13" font-weight="bold" lengthAdjust="spacing" textLength="14.46" x="445.3711" y="1291.0869">35</text><text fill="#000000" font-family="sans-serif" font-size="13" lengthAdjust="spacing" textLength="96.0972" x="463.8311" y="1291.0869">addCity(request)</text><polygon fill="#181818" points="1385.9302,1323.6406,1395.9302,1327.6406,1385.9302,1331.6406,1389.9302,1327.6406" style="stroke:#181818;stroke-width:1.0;"/><line style="stroke:#181818;stroke-width:1.0;" x1="632.5063" x2="1391.9302" y1="1327.6406" y2="1327.6406"/><text fill="#000000" font-family="sans-serif" font-size="13" font-weight="bold" lengthAdjust="spacing" textLength="14.46" x="639.5063" y="1322.3779">36</text><text fill="#000000" font-family="sans-serif" font-size="13" lengthAdjust="spacing" textLength="138.7344" x="657.9663" y="1322.3779">findById(request.mapId)</text><polygon fill="#181818" points="643.5063,1354.9316,633.5063,1358.9316,643.5063,1362.9316,639.5063,1358.9316" style="stroke:#181818;stroke-width:1.0;"/><line style="stroke:#181818;stroke-width:1.0;stroke-dasharray:2.0,2.0;" x1="637.5063" x2="1401.9302" y1="1358.9316" y2="1358.9316"/><text fill="#000000" font-family="sans-serif" font-size="13" font-weight="bold" lengthAdjust="spacing" textLength="14.46" x="649.5063" y="1353.6689">37</text><text fill="#000000" font-family="sans-serif" font-size="13" lengthAdjust="spacing" textLength="73.709" x="667.9663" y="1353.6689">selectedMap</text><polygon fill="#181818" points="1851.5742,1386.2227,1861.5742,1390.2227,1851.5742,1394.2227,1855.5742,1390.2227" style="stroke:#181818;stroke-width:1.0;"/><line style="stroke:#181818;stroke-width:1.0;" x1="632.5063" x2="1857.5742" y1="1390.2227" y2="1390.2227"/><text fill="#000000" font-family="sans-serif" font-size="13" font-weight="bold" lengthAdjust="spacing" textLength="14.46" x="639.5063" y="1384.96">38</text><text fill="#000000" font-family="sans-serif" font-size="13" lengthAdjust="spacing" textLength="191.4707" x="657.9663" y="1384.96">createCity(request, selectedMap)</text><polygon fill="#181818" points="1661.8677,1417.5137,1651.8677,1421.5137,1661.8677,1425.5137,1657.8677,1421.5137" style="stroke:#181818;stroke-width:1.0;"/><line style="stroke:#181818;stroke-width:1.0;stroke-dasharray:2.0,2.0;" x1="1655.8677" x2="1862.5742" y1="1421.5137" y2="1421.5137"/><text fill="#000000" font-family="sans-serif" font-size="13" font-weight="bold" lengthAdjust="spacing" textLength="14.46" x="1667.8677" y="1416.251">39</text><text fill="#000000" font-family="sans-serif" font-size="13" lengthAdjust="spacing" textLength="164.7407" x="1686.3276" y="1416.251">create city from request data</text><rect fill="#E3E3E3" height="32.6211" rx="2.5" ry="2.5" style="stroke:#181818;stroke-width:0.5;" width="63" x="1587.8677" y="1398.2227"/><text fill="#000000" font-family="sans-serif" font-size="14" lengthAdjust="spacing" textLength="49" x="1594.8677" y="1420.3301">city:City</text><polygon fill="#181818" points="1635.3677,1461.1348,1625.3677,1465.1348,1635.3677,1469.1348,1631.3677,1465.1348" style="stroke:#181818;stroke-width:1.0;"/><line style="stroke:#181818;stroke-width:1.0;" x1="1629.3677" x2="1862.5742" y1="1465.1348" y2="1465.1348"/><text fill="#000000" font-family="sans-serif" font-size="13" font-weight="bold" lengthAdjust="spacing" textLength="14.46" x="1641.3677" y="1459.8721">40</text><text fill="#000000" font-family="sans-serif" font-size="13" lengthAdjust="spacing" textLength="80.9263" x="1659.8276" y="1459.8721">validateData()</text><polygon fill="#181818" points="1851.5742,1492.4258,1861.5742,1496.4258,1851.5742,1500.4258,1855.5742,1496.4258" style="stroke:#181818;stroke-width:1.0;"/><line style="stroke:#181818;stroke-width:1.0;stroke-dasharray:2.0,2.0;" x1="1619.3677" x2="1857.5742" y1="1496.4258" y2="1496.4258"/><text fill="#000000" font-family="sans-serif" font-size="13" font-weight="bold" lengthAdjust="spacing" textLength="14.46" x="1626.3677" y="1491.1631">41</text><text fill="#000000" font-family="sans-serif" font-size="13" lengthAdjust="spacing" textLength="91.7744" x="1644.8276" y="1491.1631">validationResult</text><polygon fill="#181818" points="1539.4092,1523.7168,1529.4092,1527.7168,1539.4092,1531.7168,1535.4092,1527.7168" style="stroke:#181818;stroke-width:1.0;"/><line style="stroke:#181818;stroke-width:1.0;" x1="1533.4092" x2="1862.5742" y1="1527.7168" y2="1527.7168"/><text fill="#000000" font-family="sans-serif" font-size="13" font-weight="bold" lengthAdjust="spacing" textLength="14.46" x="1545.4092" y="1522.4541">42</text><text fill="#000000" font-family="sans-serif" font-size="13" lengthAdjust="spacing" textLength="78.0063" x="1563.8691" y="1522.4541">saveCity(city)</text><polygon fill="#181818" points="1851.5742,1555.0078,1861.5742,1559.0078,1851.5742,1563.0078,1855.5742,1559.0078" style="stroke:#181818;stroke-width:1.0;"/><line style="stroke:#181818;stroke-width:1.0;stroke-dasharray:2.0,2.0;" x1="1523.4092" x2="1857.5742" y1="1559.0078" y2="1559.0078"/><text fill="#000000" font-family="sans-serif" font-size="13" font-weight="bold" lengthAdjust="spacing" textLength="14.46" x="1530.4092" y="1553.7451">43</text><text fill="#000000" font-family="sans-serif" font-size="13" lengthAdjust="spacing" textLength="46.96" x="1548.8691" y="1553.7451">success</text><polygon fill="#181818" points="643.5063,1586.2988,633.5063,1590.2988,643.5063,1594.2988,639.5063,1590.2988" style="stroke:#181818;stroke-width:1.0;"/><line style="stroke:#181818;stroke-width:1.0;stroke-dasharray:2.0,2.0;" x1="637.5063" x2="1867.5742" y1="1590.2988" y2="1590.2988"/><text fill="#000000" font-family="sans-serif" font-size="13" font-weight="bold" lengthAdjust="spacing" textLength="14.46" x="649.5063" y="1585.0361">44</text><text fill="#000000" font-family="sans-serif" font-size="13" lengthAdjust="spacing" textLength="19.5" x="667.9663" y="1585.0361">city</text><polygon fill="#181818" points="871.687,1617.5898,881.687,1621.5898,871.687,1625.5898,875.687,1621.5898" style="stroke:#181818;stroke-width:1.0;"/><line style="stroke:#181818;stroke-width:1.0;" x1="632.5063" x2="877.687" y1="1621.5898" y2="1621.5898"/><text fill="#000000" font-family="sans-serif" font-size="13" font-weight="bold" lengthAdjust="spacing" textLength="14.46" x="639.5063" y="1616.3271">45</text><text fill="#000000" font-family="sans-serif" font-size="13" lengthAdjust="spacing" textLength="66.4409" x="657.9663" y="1616.3271">toDTO(city)</text><polygon fill="#181818" points="643.5063,1648.8809,633.5063,1652.8809,643.5063,1656.8809,639.5063,1652.8809" style="stroke:#181818;stroke-width:1.0;"/><line style="stroke:#181818;stroke-width:1.0;stroke-dasharray:2.0,2.0;" x1="637.5063" x2="887.687" y1="1652.8809" y2="1652.8809"/><text fill="#000000" font-family="sans-serif" font-size="13" font-weight="bold" lengthAdjust="spacing" textLength="14.46" x="649.5063" y="1647.6182">46</text><text fill="#000000" font-family="sans-serif" font-size="13" lengthAdjust="spacing" textLength="46.9409" x="667.9663" y="1647.6182">cityDTO</text><polygon fill="#181818" points="449.3711,1680.1719,439.3711,1684.1719,449.3711,1688.1719,445.3711,1684.1719" style="stroke:#181818;stroke-width:1.0;"/><line style="stroke:#181818;stroke-width:1.0;stroke-dasharray:2.0,2.0;" x1="443.3711" x2="626.5063" y1="1684.1719" y2="1684.1719"/><text fill="#000000" font-family="sans-serif" font-size="13" font-weight="bold" lengthAdjust="spacing" textLength="14.46" x="455.3711" y="1678.9092">47</text><text fill="#000000" font-family="sans-serif" font-size="13" lengthAdjust="spacing" textLength="46.9409" x="473.8311" y="1678.9092">cityDTO</text><polygon fill="#181818" points="52.2861,1711.4629,42.2861,1715.4629,52.2861,1719.4629,48.2861,1715.4629" style="stroke:#181818;stroke-width:1.0;"/><line style="stroke:#181818;stroke-width:1.0;stroke-dasharray:2.0,2.0;" x1="46.2861" x2="432.3711" y1="1715.4629" y2="1715.4629"/><text fill="#000000" font-family="sans-serif" font-size="13" font-weight="bold" lengthAdjust="spacing" textLength="14.46" x="58.2861" y="1710.2002">48</text><text fill="#000000" font-family="sans-serif" font-size="13" lengthAdjust="spacing" textLength="309.9688" x="76.7461" y="1710.2002">confirms successful addition with population summary</text><!--SRC=[bLTRR-Ce57xthq1zIaVjxaZxreUHiabsrb8xhUAaqZvIJ19K31x0wVRVpy5NZC6JM95oE-VZuro-0_gTYH8hNA122abEIXOK6LNHHFV_b9YyuoFDp2UdI55Yi3Xorq2VS2u_c3YY0-QQ9ebX1amp-hEYWb2qPlXexHRP-XRTettszI-qp7EqOkOJ6OcUS0a__rDndYIuCb9KnHjLy9aOgT3D9cVmVeEmHfjrkdlU9h2iOOILM1Xqym1G5ccVrYRxDFptIWgZ9EUqGLhjje-U8T20LzaQF2rVuFMoyLUpM8xPAjtz5xHRLkP41Vo03PCYe-hC2ArTbllTlvxnNbELKQt1ijb4jicozFc7P_OT5tHBIwbjG3vho-_Bfyrsy_8ytOjd22G3TdOtdg7TqTIIW65jtTi4aDnTMfDiitrDLvk0vIlcBCTTMb-NZ-bwQJDhSyxEsD0krGc2f_cCxhz1Tj43UBnhMpSOQWWZowoswbsX153xW3rusMI3tv6QLQKKPCN6UoivNTpsbhrtNHd8UMflGB5vcw2qMNE0Hc1rhf7tr43t0wzgm1dPvZIE4sJObKt3ijkaZf7hgymdsECu99L5Yj4B8WKeTXaSWpb0e-1xMQmzpqtXq3fxdJJSnbo6n4D3F39jhafurrizmj0fiP3sxUY7jCToGbguYB7G1X63TDiERzWkEGV2qTHtQk3Jx336B6taOln2I35wZL02ff7htNETZnOzJhCLrm3H5crCjSMTOHi0dAdK0EH5vGh-hMezm7oK7zeY8Guu28kybp1DEGnK90LD_9PAWzhNEDHeiwBdhg_i8DRWPAKIGVTWj10mIkuGaLBbJ82_laCd2KA4thWam8t8IhHP-JsfKiapowcpm6M2t3MpdGXhy5gqJAzfqdvsN8GtmXp6ZbzT0-ZzX2sez9RgYaThB0mR9EyCILY0wH-GbRrWG3eLqBuT_p-QR7NV8FTf7jcJEtRzNRchjOktWd5W8l_xqww-5FbL2qyM3yfAj_gWBQEDq_-XB-3ykEf6UIIoKVpHpeQCCTq4Cvd12mLhHW-YHN2rAlHTMNSSA89cHr70iG8Lr9naZa0RHONvd_P8NC2IvFPAZOW0Jtgp-O73__M2gEIOKEjmWQ8C0e8ES5W7RYTNI4BXSTGWgYCXs36W3qVXve7wK5sm1oB5WQb2XvpWI6QlCqAg0kAHGtKgzbQPxe16HTu4pJcO47kt8AQNdYPPoKJpS7CT6KjJk7IcWxtfqpHVH3foTYe7PdjJATIsV7B1R4_czOiesefln-_ENI6awf46dFGpVF_ofL-YcJC7kAnsbJWCdN0FJvNF6HTEle8CWt8JaB5B1yG4CxbCfJK-Dz6rsv_X6vN8YFpgYX2uVYJNg6voWVmILyv_8xl1qXgV5xrjZ-02Xpe7mEC4M35Q7auI7W8kI4ZtarczQSDzgBWL0sRh1NqmSqAbB2jUrm_O50LkBmMUu3jVsploBm00]--></g></svg>