<svg xmlns="http://www.w3.org/2000/svg" xmlns:xlink="http://www.w3.org/1999/xlink" contentStyleType="text/css" height="588px" preserveAspectRatio="none" style="width:934px;height:588px;background:#FFFFFF;" version="1.1" viewBox="0 0 934 588" width="934px" zoomAndPan="magnify"><title>US03 - Create City - Partial Sequence Diagram</title><defs/><g><text fill="#000000" font-family="sans-serif" font-size="14" font-weight="bold" lengthAdjust="spacing" textLength="306.5576" x="315.6086" y="30.1074">US03 - Create City - Partial Sequence Diagram</text><rect fill="#FFFFFF" height="421.1133" style="stroke:#181818;stroke-width:1.0;" width="10" x="160.5522" y="111.5332"/><rect fill="#FFFFFF" height="31.291" style="stroke:#181818;stroke-width:1.0;" width="10" x="328.2866" y="169.1152"/><rect fill="#FFFFFF" height="31.291" style="stroke:#181818;stroke-width:1.0;" width="10" x="439.0415" y="463.0645"/><rect fill="#FFFFFF" height="31.291" style="stroke:#181818;stroke-width:1.0;" width="10" x="525.2759" y="306.6094"/><rect fill="#FFFFFF" height="200.0762" style="stroke:#181818;stroke-width:1.0;" width="10" x="750.5166" y="231.6973"/><rect fill="#FFFFFF" height="31.291" style="stroke:#181818;stroke-width:1.0;" width="10" x="859.3164" y="369.1914"/><rect fill="none" height="375.8223" style="stroke:#000000;stroke-width:1.5;" width="837.0225" x="91.7524" y="126.5332"/><line style="stroke:#181818;stroke-width:0.5;stroke-dasharray:5.0,5.0;" x1="45" x2="45" y1="78.2422" y2="550.6465"/><line style="stroke:#181818;stroke-width:0.5;stroke-dasharray:5.0,5.0;" x1="164.7524" x2="164.7524" y1="78.2422" y2="550.6465"/><line style="stroke:#181818;stroke-width:0.5;stroke-dasharray:5.0,5.0;" x1="333.2661" x2="333.2661" y1="78.2422" y2="550.6465"/><line style="stroke:#181818;stroke-width:0.5;stroke-dasharray:5.0,5.0;" x1="443.3071" x2="443.3071" y1="78.2422" y2="550.6465"/><line style="stroke:#181818;stroke-width:0.5;stroke-dasharray:5.0,5.0;" x1="529.7759" x2="529.7759" y1="271.5078" y2="550.6465"/><line style="stroke:#181818;stroke-width:0.5;stroke-dasharray:5.0,5.0;" x1="755.1753" x2="755.1753" y1="78.2422" y2="550.6465"/><line style="stroke:#181818;stroke-width:0.5;stroke-dasharray:5.0,5.0;" x1="863.8579" x2="863.8579" y1="78.2422" y2="550.6465"/><rect fill="#E3E3E3" height="32.6211" rx="2.5" ry="2.5" style="stroke:#181818;stroke-width:0.5;" width="80.9102" x="5" y="44.6211"/><text fill="#000000" font-family="sans-serif" font-size="14" lengthAdjust="spacing" textLength="66.9102" x="12" y="66.7285">:AddCityUI</text><rect fill="#E3E3E3" height="32.6211" rx="2.5" ry="2.5" style="stroke:#181818;stroke-width:0.5;" width="80.9102" x="5" y="549.6465"/><text fill="#000000" font-family="sans-serif" font-size="14" lengthAdjust="spacing" textLength="66.9102" x="12" y="571.7539">:AddCityUI</text><rect fill="#E3E3E3" height="32.6211" rx="2.5" ry="2.5" style="stroke:#181818;stroke-width:0.5;" width="127.5996" x="101.7524" y="44.6211"/><text fill="#000000" font-family="sans-serif" font-size="14" lengthAdjust="spacing" textLength="113.5996" x="108.7524" y="66.7285">:AddCityController</text><rect fill="#E3E3E3" height="32.6211" rx="2.5" ry="2.5" style="stroke:#181818;stroke-width:0.5;" width="127.5996" x="101.7524" y="549.6465"/><text fill="#000000" font-family="sans-serif" font-size="14" lengthAdjust="spacing" textLength="113.5996" x="108.7524" y="571.7539">:AddCityController</text><rect fill="#E3E3E3" height="32.6211" rx="2.5" ry="2.5" style="stroke:#181818;stroke-width:0.5;" width="112.041" x="277.2661" y="44.6211"/><text fill="#000000" font-family="sans-serif" font-size="14" lengthAdjust="spacing" textLength="98.041" x="284.2661" y="66.7285">:MapRepository</text><rect fill="#E3E3E3" height="32.6211" rx="2.5" ry="2.5" style="stroke:#181818;stroke-width:0.5;" width="112.041" x="277.2661" y="549.6465"/><text fill="#000000" font-family="sans-serif" font-size="14" lengthAdjust="spacing" textLength="98.041" x="284.2661" y="571.7539">:MapRepository</text><rect fill="#E3E3E3" height="32.6211" rx="2.5" ry="2.5" style="stroke:#181818;stroke-width:0.5;" width="89.4688" x="399.3071" y="44.6211"/><text fill="#000000" font-family="sans-serif" font-size="14" lengthAdjust="spacing" textLength="75.4688" x="406.3071" y="66.7285">:CityMapper</text><rect fill="#E3E3E3" height="32.6211" rx="2.5" ry="2.5" style="stroke:#181818;stroke-width:0.5;" width="89.4688" x="399.3071" y="549.6465"/><text fill="#000000" font-family="sans-serif" font-size="14" lengthAdjust="spacing" textLength="75.4688" x="406.3071" y="571.7539">:CityMapper</text><rect fill="#E3E3E3" height="32.6211" rx="2.5" ry="2.5" style="stroke:#181818;stroke-width:0.5;" width="63" x="498.7759" y="549.6465"/><text fill="#000000" font-family="sans-serif" font-size="14" lengthAdjust="spacing" textLength="49" x="505.7759" y="571.7539">city:City</text><rect fill="#E3E3E3" height="32.6211" rx="2.5" ry="2.5" style="stroke:#181818;stroke-width:0.5;" width="88.6826" x="711.1753" y="44.6211"/><text fill="#000000" font-family="sans-serif" font-size="14" lengthAdjust="spacing" textLength="74.6826" x="718.1753" y="66.7285">:CityService</text><rect fill="#E3E3E3" height="32.6211" rx="2.5" ry="2.5" style="stroke:#181818;stroke-width:0.5;" width="88.6826" x="711.1753" y="549.6465"/><text fill="#000000" font-family="sans-serif" font-size="14" lengthAdjust="spacing" textLength="74.6826" x="718.1753" y="571.7539">:CityService</text><rect fill="#E3E3E3" height="32.6211" rx="2.5" ry="2.5" style="stroke:#181818;stroke-width:0.5;" width="108.917" x="809.8579" y="44.6211"/><text fill="#000000" font-family="sans-serif" font-size="14" lengthAdjust="spacing" textLength="94.917" x="816.8579" y="66.7285">:CityRepository</text><rect fill="#E3E3E3" height="32.6211" rx="2.5" ry="2.5" style="stroke:#181818;stroke-width:0.5;" width="108.917" x="809.8579" y="549.6465"/><text fill="#000000" font-family="sans-serif" font-size="14" lengthAdjust="spacing" textLength="94.917" x="816.8579" y="571.7539">:CityRepository</text><rect fill="#FFFFFF" height="421.1133" style="stroke:#181818;stroke-width:1.0;" width="10" x="160.5522" y="111.5332"/><rect fill="#FFFFFF" height="31.291" style="stroke:#181818;stroke-width:1.0;" width="10" x="328.2866" y="169.1152"/><rect fill="#FFFFFF" height="31.291" style="stroke:#181818;stroke-width:1.0;" width="10" x="439.0415" y="463.0645"/><rect fill="#FFFFFF" height="31.291" style="stroke:#181818;stroke-width:1.0;" width="10" x="525.2759" y="306.6094"/><rect fill="#FFFFFF" height="200.0762" style="stroke:#181818;stroke-width:1.0;" width="10" x="750.5166" y="231.6973"/><rect fill="#FFFFFF" height="31.291" style="stroke:#181818;stroke-width:1.0;" width="10" x="859.3164" y="369.1914"/><polygon fill="#181818" points="148.5522,107.5332,158.5522,111.5332,148.5522,115.5332,152.5522,111.5332" style="stroke:#181818;stroke-width:1.0;"/><line style="stroke:#181818;stroke-width:1.0;" x1="45.4551" x2="154.5522" y1="111.5332" y2="111.5332"/><text fill="#000000" font-family="sans-serif" font-size="13" lengthAdjust="spacing" textLength="96.0972" x="52.4551" y="106.2705">addCity(request)</text><path d="M91.7524,126.5332 L205.3896,126.5332 L205.3896,135.8242 L195.3896,145.8242 L91.7524,145.8242 L91.7524,126.5332 " fill="#EEEEEE" style="stroke:#000000;stroke-width:1.5;"/><rect fill="none" height="375.8223" style="stroke:#000000;stroke-width:1.5;" width="837.0225" x="91.7524" y="126.5332"/><text fill="#000000" font-family="sans-serif" font-size="13" font-weight="bold" lengthAdjust="spacing" textLength="68.6372" x="106.7524" y="141.5615">Create City</text><polygon fill="#181818" points="316.2866,165.1152,326.2866,169.1152,316.2866,173.1152,320.2866,169.1152" style="stroke:#181818;stroke-width:1.0;"/><line style="stroke:#181818;stroke-width:1.0;" x1="170.5522" x2="322.2866" y1="169.1152" y2="169.1152"/><text fill="#000000" font-family="sans-serif" font-size="13" lengthAdjust="spacing" textLength="138.7344" x="177.5522" y="163.8525">findById(request.mapId)</text><polygon fill="#181818" points="181.5522,196.4063,171.5522,200.4063,181.5522,204.4063,177.5522,200.4063" style="stroke:#181818;stroke-width:1.0;"/><line style="stroke:#181818;stroke-width:1.0;stroke-dasharray:2.0,2.0;" x1="175.5522" x2="332.2866" y1="200.4063" y2="200.4063"/><text fill="#000000" font-family="sans-serif" font-size="13" lengthAdjust="spacing" textLength="73.709" x="187.5522" y="195.1436">selectedMap</text><polygon fill="#181818" points="738.5166,227.6973,748.5166,231.6973,738.5166,235.6973,742.5166,231.6973" style="stroke:#181818;stroke-width:1.0;"/><line style="stroke:#181818;stroke-width:1.0;" x1="170.5522" x2="744.5166" y1="231.6973" y2="231.6973"/><text fill="#000000" font-family="sans-serif" font-size="13" lengthAdjust="spacing" textLength="191.4707" x="177.5522" y="226.4346">createCity(request, selectedMap)</text><polygon fill="#181818" points="572.7759,258.9883,562.7759,262.9883,572.7759,266.9883,568.7759,262.9883" style="stroke:#181818;stroke-width:1.0;"/><line style="stroke:#181818;stroke-width:1.0;stroke-dasharray:2.0,2.0;" x1="566.7759" x2="749.5166" y1="262.9883" y2="262.9883"/><text fill="#000000" font-family="sans-serif" font-size="13" lengthAdjust="spacing" textLength="164.7407" x="578.7759" y="257.7256">create city from request data</text><rect fill="#E3E3E3" height="32.6211" rx="2.5" ry="2.5" style="stroke:#181818;stroke-width:0.5;" width="63" x="498.7759" y="239.6973"/><text fill="#000000" font-family="sans-serif" font-size="14" lengthAdjust="spacing" textLength="49" x="505.7759" y="261.8047">city:City</text><polygon fill="#181818" points="546.2759,302.6094,536.2759,306.6094,546.2759,310.6094,542.2759,306.6094" style="stroke:#181818;stroke-width:1.0;"/><line style="stroke:#181818;stroke-width:1.0;" x1="540.2759" x2="749.5166" y1="306.6094" y2="306.6094"/><text fill="#000000" font-family="sans-serif" font-size="13" lengthAdjust="spacing" textLength="80.9263" x="552.2759" y="301.3467">validateData()</text><polygon fill="#181818" points="738.5166,333.9004,748.5166,337.9004,738.5166,341.9004,742.5166,337.9004" style="stroke:#181818;stroke-width:1.0;"/><line style="stroke:#181818;stroke-width:1.0;stroke-dasharray:2.0,2.0;" x1="530.2759" x2="744.5166" y1="337.9004" y2="337.9004"/><text fill="#000000" font-family="sans-serif" font-size="13" lengthAdjust="spacing" textLength="91.7744" x="537.2759" y="332.6377">validationResult</text><polygon fill="#181818" points="847.3164,365.1914,857.3164,369.1914,847.3164,373.1914,851.3164,369.1914" style="stroke:#181818;stroke-width:1.0;"/><line style="stroke:#181818;stroke-width:1.0;" x1="760.5166" x2="853.3164" y1="369.1914" y2="369.1914"/><text fill="#000000" font-family="sans-serif" font-size="13" lengthAdjust="spacing" textLength="78.0063" x="767.5166" y="363.9287">saveCity(city)</text><polygon fill="#181818" points="771.5166,396.4824,761.5166,400.4824,771.5166,404.4824,767.5166,400.4824" style="stroke:#181818;stroke-width:1.0;"/><line style="stroke:#181818;stroke-width:1.0;stroke-dasharray:2.0,2.0;" x1="765.5166" x2="863.3164" y1="400.4824" y2="400.4824"/><text fill="#000000" font-family="sans-serif" font-size="13" lengthAdjust="spacing" textLength="46.96" x="777.5166" y="395.2197">success</text><polygon fill="#181818" points="181.5522,427.7734,171.5522,431.7734,181.5522,435.7734,177.5522,431.7734" style="stroke:#181818;stroke-width:1.0;"/><line style="stroke:#181818;stroke-width:1.0;stroke-dasharray:2.0,2.0;" x1="175.5522" x2="754.5166" y1="431.7734" y2="431.7734"/><text fill="#000000" font-family="sans-serif" font-size="13" lengthAdjust="spacing" textLength="19.5" x="187.5522" y="426.5107">city</text><polygon fill="#181818" points="427.0415,459.0645,437.0415,463.0645,427.0415,467.0645,431.0415,463.0645" style="stroke:#181818;stroke-width:1.0;"/><line style="stroke:#181818;stroke-width:1.0;" x1="170.5522" x2="433.0415" y1="463.0645" y2="463.0645"/><text fill="#000000" font-family="sans-serif" font-size="13" lengthAdjust="spacing" textLength="66.4409" x="177.5522" y="457.8018">toDTO(city)</text><polygon fill="#181818" points="181.5522,490.3555,171.5522,494.3555,181.5522,498.3555,177.5522,494.3555" style="stroke:#181818;stroke-width:1.0;"/><line style="stroke:#181818;stroke-width:1.0;stroke-dasharray:2.0,2.0;" x1="175.5522" x2="443.0415" y1="494.3555" y2="494.3555"/><text fill="#000000" font-family="sans-serif" font-size="13" lengthAdjust="spacing" textLength="46.9409" x="187.5522" y="489.0928">cityDTO</text><polygon fill="#181818" points="56.4551,528.6465,46.4551,532.6465,56.4551,536.6465,52.4551,532.6465" style="stroke:#181818;stroke-width:1.0;"/><line style="stroke:#181818;stroke-width:1.0;stroke-dasharray:2.0,2.0;" x1="50.4551" x2="164.5522" y1="532.6465" y2="532.6465"/><text fill="#000000" font-family="sans-serif" font-size="13" lengthAdjust="spacing" textLength="46.9409" x="62.4551" y="527.3838">cityDTO</text><!--SRC=[VPDFZvim4CNlV8hHdZQhfghKsnugRPCSaBhQ299AFOxi2MijiQbjKkNRTp3W64hA3VpUZpT_x3wKRj3Y6Sv66_5kpPd0svOo5qyQ51zOKUclDO4buL5NTIfmxoZD7wKhE67jACkyyYmzbb- -mXesbj0JR9I_yjiUhLTOGqc_MzA2OAkmOaYMDTs9K0rg3m_FBr9sZcF-0EZWc2yVRupsrjGrsI3R78eVC-4hDWKrnYblx3M8Nb_snMx_DjDrDDOs8oa__6BXVbTCTO9bGHjL2voIx4K9Yf9oL_pCDxi5vInQ9mxPicCEws-X7dW6x8jzj5tFd5zbABowXAPs1GC_bJLjaxOwV0r-vWmbC-gajFn-pUN8-dp69fUhe8xKiKCmFADzVOlagEP58Caj2p99Y-v9YgGLJ10XQrhNfvGwYvIsSOoLyjO3_-afeg6R5Pnues7u0KZq6EtBd1x3a0lMYlMqPS_ZAeedYUBN4HDptEeSECheWbnR- -X9MZPX_I_NC4M7bxvpNObtiaqcEE9kOvnaTAqGvDozQ1FK_VRtco76vPj1qkdzinRzLMEtDzl3MrBM135So3J0O9pzdnbB4H8_QTdVcIGAC_ZQtGYfcmL_0G00]--></g></svg>