<svg xmlns="http://www.w3.org/2000/svg" xmlns:xlink="http://www.w3.org/1999/xlink" contentStyleType="text/css" height="916px" preserveAspectRatio="none" style="width:875px;height:916px;background:#FFFFFF;" version="1.1" viewBox="0 0 875 916" width="875px" zoomAndPan="magnify"><title>Sequence Diagram (SD) - US03 Add City to Map - Split</title><defs/><g><text fill="#000000" font-family="sans-serif" font-size="14" font-weight="bold" lengthAdjust="spacing" textLength="359.3789" x="255.3435" y="30.1074">Sequence Diagram (SD) - US03 Add City to Map - Split</text><rect fill="#FFFFFF" height="682.043" style="stroke:#181818;stroke-width:1.0;" width="10" x="36.2861" y="133.2422"/><rect fill="#FFFFFF" height="186.416" style="stroke:#181818;stroke-width:1.0;" width="10" x="421.1411" y="156.5332"/><rect fill="#FFFFFF" height="31.291" style="stroke:#181818;stroke-width:1.0;" width="10" x="421.1411" y="374.2402"/><rect fill="#FFFFFF" height="79.543" style="stroke:#181818;stroke-width:1.0;" width="10" x="421.1411" y="436.8223"/><rect fill="#FFFFFF" height="57.582" style="stroke:#181818;stroke-width:1.0;" width="10" x="421.1411" y="547.6563"/><rect fill="#FFFFFF" height="178.7559" style="stroke:#181818;stroke-width:1.0;" width="10" x="421.1411" y="636.5293"/><rect fill="#FFFFFF" height="31.291" style="stroke:#181818;stroke-width:1.0;" width="10" x="589.7632" y="187.8242"/><rect fill="none" height="129.7949" style="stroke:#000000;stroke-width:1.5;" width="466.5962" x="10" y="562.6563"/><line style="stroke:#181818;stroke-width:0.5;stroke-dasharray:5.0,5.0;" x1="41" x2="41" y1="123.2422" y2="833.2852"/><line style="stroke:#181818;stroke-width:0.5;stroke-dasharray:5.0,5.0;" x1="425.686" x2="425.686" y1="123.2422" y2="833.2852"/><line style="stroke:#181818;stroke-width:0.5;stroke-dasharray:5.0,5.0;" x1="593.9634" x2="593.9634" y1="123.2422" y2="833.2852"/><line style="stroke:#181818;stroke-width:0.5;stroke-dasharray:5.0,5.0;" x1="730.563" x2="730.563" y1="123.2422" y2="833.2852"/><line style="stroke:#181818;stroke-width:0.5;stroke-dasharray:5.0,5.0;" x1="834.0659" x2="834.0659" y1="123.2422" y2="833.2852"/><text fill="#000000" font-family="sans-serif" font-size="14" lengthAdjust="spacing" textLength="36.5723" x="20" y="119.7285">Editor</text><ellipse cx="41.2861" cy="53.1211" fill="#E3E3E3" rx="8" ry="8" style="stroke:#181818;stroke-width:0.5;"/><path d="M41.2861,61.1211 L41.2861,88.1211 M28.2861,69.1211 L54.2861,69.1211 M41.2861,88.1211 L28.2861,103.1211 M41.2861,88.1211 L54.2861,103.1211 " fill="none" style="stroke:#181818;stroke-width:0.5;"/><text fill="#000000" font-family="sans-serif" font-size="14" lengthAdjust="spacing" textLength="36.5723" x="20" y="847.3926">Editor</text><ellipse cx="41.2861" cy="859.4063" fill="#E3E3E3" rx="8" ry="8" style="stroke:#181818;stroke-width:0.5;"/><path d="M41.2861,867.4063 L41.2861,894.4063 M28.2861,875.4063 L54.2861,875.4063 M41.2861,894.4063 L28.2861,909.4063 M41.2861,894.4063 L54.2861,909.4063 " fill="none" style="stroke:#181818;stroke-width:0.5;"/><rect fill="#E3E3E3" height="32.6211" rx="2.5" ry="2.5" style="stroke:#181818;stroke-width:0.5;" width="80.9102" x="385.686" y="89.6211"/><text fill="#000000" font-family="sans-serif" font-size="14" lengthAdjust="spacing" textLength="66.9102" x="392.686" y="111.7285">:AddCityUI</text><rect fill="#E3E3E3" height="32.6211" rx="2.5" ry="2.5" style="stroke:#181818;stroke-width:0.5;" width="80.9102" x="385.686" y="832.2852"/><text fill="#000000" font-family="sans-serif" font-size="14" lengthAdjust="spacing" textLength="66.9102" x="392.686" y="854.3926">:AddCityUI</text><rect fill="#E3E3E3" height="32.6211" rx="2.5" ry="2.5" style="stroke:#181818;stroke-width:0.5;" width="127.5996" x="530.9634" y="89.6211"/><text fill="#000000" font-family="sans-serif" font-size="14" lengthAdjust="spacing" textLength="113.5996" x="537.9634" y="111.7285">:AddCityController</text><rect fill="#E3E3E3" height="32.6211" rx="2.5" ry="2.5" style="stroke:#181818;stroke-width:0.5;" width="127.5996" x="530.9634" y="832.2852"/><text fill="#000000" font-family="sans-serif" font-size="14" lengthAdjust="spacing" textLength="113.5996" x="537.9634" y="854.3926">:AddCityController</text><rect fill="#E3E3E3" height="32.6211" rx="2.5" ry="2.5" style="stroke:#181818;stroke-width:0.5;" width="124.5029" x="668.563" y="89.6211"/><text fill="#000000" font-family="sans-serif" font-size="14" lengthAdjust="spacing" textLength="110.5029" x="675.563" y="111.7285">selectedMap:Map</text><rect fill="#E3E3E3" height="32.6211" rx="2.5" ry="2.5" style="stroke:#181818;stroke-width:0.5;" width="124.5029" x="668.563" y="832.2852"/><text fill="#000000" font-family="sans-serif" font-size="14" lengthAdjust="spacing" textLength="110.5029" x="675.563" y="854.3926">selectedMap:Map</text><rect fill="#E3E3E3" height="32.6211" rx="2.5" ry="2.5" style="stroke:#181818;stroke-width:0.5;" width="63" x="803.0659" y="89.6211"/><text fill="#000000" font-family="sans-serif" font-size="14" lengthAdjust="spacing" textLength="49" x="810.0659" y="111.7285">city:City</text><rect fill="#E3E3E3" height="32.6211" rx="2.5" ry="2.5" style="stroke:#181818;stroke-width:0.5;" width="63" x="803.0659" y="832.2852"/><text fill="#000000" font-family="sans-serif" font-size="14" lengthAdjust="spacing" textLength="49" x="810.0659" y="854.3926">city:City</text><rect fill="#FFFFFF" height="682.043" style="stroke:#181818;stroke-width:1.0;" width="10" x="36.2861" y="133.2422"/><rect fill="#FFFFFF" height="186.416" style="stroke:#181818;stroke-width:1.0;" width="10" x="421.1411" y="156.5332"/><rect fill="#FFFFFF" height="31.291" style="stroke:#181818;stroke-width:1.0;" width="10" x="421.1411" y="374.2402"/><rect fill="#FFFFFF" height="79.543" style="stroke:#181818;stroke-width:1.0;" width="10" x="421.1411" y="436.8223"/><rect fill="#FFFFFF" height="57.582" style="stroke:#181818;stroke-width:1.0;" width="10" x="421.1411" y="547.6563"/><rect fill="#FFFFFF" height="178.7559" style="stroke:#181818;stroke-width:1.0;" width="10" x="421.1411" y="636.5293"/><rect fill="#FFFFFF" height="31.291" style="stroke:#181818;stroke-width:1.0;" width="10" x="589.7632" y="187.8242"/><polygon fill="#181818" points="409.1411,152.5332,419.1411,156.5332,409.1411,160.5332,413.1411,156.5332" style="stroke:#181818;stroke-width:1.0;"/><line style="stroke:#181818;stroke-width:1.0;" x1="46.2861" x2="415.1411" y1="156.5332" y2="156.5332"/><text fill="#000000" font-family="sans-serif" font-size="13" font-weight="bold" lengthAdjust="spacing" textLength="7.23" x="53.2861" y="151.2705">1</text><text fill="#000000" font-family="sans-serif" font-size="13" lengthAdjust="spacing" textLength="100.439" x="64.5161" y="151.2705">asks to add a city</text><polygon fill="#181818" points="577.7632,183.8242,587.7632,187.8242,577.7632,191.8242,581.7632,187.8242" style="stroke:#181818;stroke-width:1.0;"/><line style="stroke:#181818;stroke-width:1.0;" x1="431.1411" x2="583.7632" y1="187.8242" y2="187.8242"/><text fill="#000000" font-family="sans-serif" font-size="13" font-weight="bold" lengthAdjust="spacing" textLength="7.23" x="438.1411" y="182.5615">2</text><text fill="#000000" font-family="sans-serif" font-size="13" lengthAdjust="spacing" textLength="124.2617" x="449.3711" y="182.5615">getCurrentUserRole()</text><polygon fill="#181818" points="442.1411,215.1152,432.1411,219.1152,442.1411,223.1152,438.1411,219.1152" style="stroke:#181818;stroke-width:1.0;"/><line style="stroke:#181818;stroke-width:1.0;stroke-dasharray:2.0,2.0;" x1="436.1411" x2="593.7632" y1="219.1152" y2="219.1152"/><text fill="#000000" font-family="sans-serif" font-size="13" font-weight="bold" lengthAdjust="spacing" textLength="7.23" x="448.1411" y="213.8525">3</text><text fill="#000000" font-family="sans-serif" font-size="13" lengthAdjust="spacing" textLength="28.1772" x="459.3711" y="213.8525">roles</text><line style="stroke:#181818;stroke-width:1.0;" x1="431.1411" x2="473.1411" y1="250.4063" y2="250.4063"/><line style="stroke:#181818;stroke-width:1.0;" x1="473.1411" x2="473.1411" y1="250.4063" y2="263.4063"/><line style="stroke:#181818;stroke-width:1.0;" x1="432.1411" x2="473.1411" y1="263.4063" y2="263.4063"/><polygon fill="#181818" points="442.1411,259.4063,432.1411,263.4063,442.1411,267.4063,438.1411,263.4063" style="stroke:#181818;stroke-width:1.0;"/><text fill="#000000" font-family="sans-serif" font-size="13" font-weight="bold" lengthAdjust="spacing" textLength="7.23" x="438.1411" y="245.1436">4</text><text fill="#000000" font-family="sans-serif" font-size="13" lengthAdjust="spacing" textLength="123.3921" x="449.3711" y="245.1436">validateRole("Editor")</text><rect fill="none" height="43.252" style="stroke:#000000;stroke-width:1.5;" width="278.877" x="382.686" y="271.4063"/><path d="M382.686,271.4063 L443.686,271.4063 L443.686,280.4063 L433.686,290.4063 L382.686,290.4063 L382.686,271.4063 " fill="#EEEEEE" style="stroke:#000000;stroke-width:2.0;"/><text fill="#000000" font-family="sans-serif" font-size="13" font-weight="bold" lengthAdjust="spacing" textLength="16.6182" x="395.686" y="287.4346">ref</text><text fill="#000000" font-family="sans-serif" font-size="12" lengthAdjust="spacing" textLength="74.0273" x="485.1108" y="307.3555">Get Maps List</text><polygon fill="#181818" points="57.2861,338.9492,47.2861,342.9492,57.2861,346.9492,53.2861,342.9492" style="stroke:#181818;stroke-width:1.0;"/><line style="stroke:#181818;stroke-width:1.0;stroke-dasharray:2.0,2.0;" x1="51.2861" x2="425.1411" y1="342.9492" y2="342.9492"/><text fill="#000000" font-family="sans-serif" font-size="13" font-weight="bold" lengthAdjust="spacing" textLength="7.23" x="63.2861" y="337.6865">5</text><text fill="#000000" font-family="sans-serif" font-size="13" lengthAdjust="spacing" textLength="218.2197" x="74.5161" y="337.6865">shows map list and asks to select one</text><polygon fill="#181818" points="409.1411,370.2402,419.1411,374.2402,409.1411,378.2402,413.1411,374.2402" style="stroke:#181818;stroke-width:1.0;"/><line style="stroke:#181818;stroke-width:1.0;" x1="46.2861" x2="415.1411" y1="374.2402" y2="374.2402"/><text fill="#000000" font-family="sans-serif" font-size="13" font-weight="bold" lengthAdjust="spacing" textLength="7.23" x="53.2861" y="368.9775">6</text><text fill="#000000" font-family="sans-serif" font-size="13" lengthAdjust="spacing" textLength="69.3608" x="64.5161" y="368.9775">selects map</text><polygon fill="#181818" points="57.2861,401.5313,47.2861,405.5313,57.2861,409.5313,53.2861,405.5313" style="stroke:#181818;stroke-width:1.0;"/><line style="stroke:#181818;stroke-width:1.0;stroke-dasharray:2.0,2.0;" x1="51.2861" x2="425.1411" y1="405.5313" y2="405.5313"/><text fill="#000000" font-family="sans-serif" font-size="13" font-weight="bold" lengthAdjust="spacing" textLength="7.23" x="63.2861" y="400.2686">7</text><text fill="#000000" font-family="sans-serif" font-size="13" lengthAdjust="spacing" textLength="339.625" x="74.5161" y="400.2686">requests city data (name, coordinates, house blocks count)</text><polygon fill="#181818" points="409.1411,432.8223,419.1411,436.8223,409.1411,440.8223,413.1411,436.8223" style="stroke:#181818;stroke-width:1.0;"/><line style="stroke:#181818;stroke-width:1.0;" x1="46.2861" x2="415.1411" y1="436.8223" y2="436.8223"/><text fill="#000000" font-family="sans-serif" font-size="13" font-weight="bold" lengthAdjust="spacing" textLength="7.23" x="53.2861" y="431.5596">8</text><text fill="#000000" font-family="sans-serif" font-size="13" lengthAdjust="spacing" textLength="101.1626" x="64.5161" y="431.5596">provides city data</text><rect fill="none" height="43.252" style="stroke:#000000;stroke-width:1.5;" width="278.877" x="382.686" y="444.8223"/><path d="M382.686,444.8223 L443.686,444.8223 L443.686,453.8223 L433.686,463.8223 L382.686,463.8223 L382.686,444.8223 " fill="#EEEEEE" style="stroke:#000000;stroke-width:2.0;"/><text fill="#000000" font-family="sans-serif" font-size="13" font-weight="bold" lengthAdjust="spacing" textLength="16.6182" x="395.686" y="460.8506">ref</text><text fill="#000000" font-family="sans-serif" font-size="12" lengthAdjust="spacing" textLength="96.0469" x="474.1011" y="480.7715">Validate City Data</text><polygon fill="#181818" points="57.2861,512.3652,47.2861,516.3652,57.2861,520.3652,53.2861,516.3652" style="stroke:#181818;stroke-width:1.0;"/><line style="stroke:#181818;stroke-width:1.0;stroke-dasharray:2.0,2.0;" x1="51.2861" x2="425.1411" y1="516.3652" y2="516.3652"/><text fill="#000000" font-family="sans-serif" font-size="13" font-weight="bold" lengthAdjust="spacing" textLength="7.23" x="63.2861" y="511.1025">9</text><text fill="#000000" font-family="sans-serif" font-size="13" lengthAdjust="spacing" textLength="315.7642" x="74.5161" y="511.1025">requests block assignment method (manual/automatic)</text><polygon fill="#181818" points="409.1411,543.6563,419.1411,547.6563,409.1411,551.6563,413.1411,547.6563" style="stroke:#181818;stroke-width:1.0;"/><line style="stroke:#181818;stroke-width:1.0;" x1="46.2861" x2="415.1411" y1="547.6563" y2="547.6563"/><text fill="#000000" font-family="sans-serif" font-size="13" font-weight="bold" lengthAdjust="spacing" textLength="14.46" x="53.2861" y="542.3936">10</text><text fill="#000000" font-family="sans-serif" font-size="13" lengthAdjust="spacing" textLength="191.4834" x="71.7461" y="542.3936">selects block assignment method</text><path d="M10,562.6563 L70.1709,562.6563 L70.1709,571.9473 L60.1709,581.9473 L10,581.9473 L10,562.6563 " fill="#EEEEEE" style="stroke:#000000;stroke-width:1.5;"/><rect fill="none" height="129.7949" style="stroke:#000000;stroke-width:1.5;" width="466.5962" x="10" y="562.6563"/><text fill="#000000" font-family="sans-serif" font-size="13" font-weight="bold" lengthAdjust="spacing" textLength="15.1709" x="25" y="577.6846">alt</text><text fill="#000000" font-family="sans-serif" font-size="11" font-weight="bold" lengthAdjust="spacing" textLength="103.3022" x="85.1709" y="576.5264">[manual placement]</text><polygon fill="#181818" points="57.2861,601.2383,47.2861,605.2383,57.2861,609.2383,53.2861,605.2383" style="stroke:#181818;stroke-width:1.0;"/><line style="stroke:#181818;stroke-width:1.0;stroke-dasharray:2.0,2.0;" x1="51.2861" x2="425.1411" y1="605.2383" y2="605.2383"/><text fill="#000000" font-family="sans-serif" font-size="13" font-weight="bold" lengthAdjust="spacing" textLength="14.46" x="63.2861" y="599.9756">11</text><text fill="#000000" font-family="sans-serif" font-size="13" lengthAdjust="spacing" textLength="244.2578" x="81.7461" y="599.9756">requests coordinates for each house block</text><polygon fill="#181818" points="409.1411,632.5293,419.1411,636.5293,409.1411,640.5293,413.1411,636.5293" style="stroke:#181818;stroke-width:1.0;"/><line style="stroke:#181818;stroke-width:1.0;" x1="46.2861" x2="415.1411" y1="636.5293" y2="636.5293"/><text fill="#000000" font-family="sans-serif" font-size="13" font-weight="bold" lengthAdjust="spacing" textLength="14.46" x="53.2861" y="631.2666">12</text><text fill="#000000" font-family="sans-serif" font-size="13" lengthAdjust="spacing" textLength="204.5024" x="71.7461" y="631.2666">provides coordinates for each block</text><line style="stroke:#000000;stroke-width:1.0;stroke-dasharray:2.0,2.0;" x1="10" x2="476.5962" y1="645.5293" y2="645.5293"/><text fill="#000000" font-family="sans-serif" font-size="11" font-weight="bold" lengthAdjust="spacing" textLength="116.7461" x="15" y="657.3994">[automatic placement]</text><polygon fill="#181818" points="57.2861,680.4512,47.2861,684.4512,57.2861,688.4512,53.2861,684.4512" style="stroke:#181818;stroke-width:1.0;"/><line style="stroke:#181818;stroke-width:1.0;stroke-dasharray:2.0,2.0;" x1="51.2861" x2="420.1411" y1="684.4512" y2="684.4512"/><text fill="#000000" font-family="sans-serif" font-size="13" font-weight="bold" lengthAdjust="spacing" textLength="14.46" x="63.2861" y="679.1885">13</text><text fill="#000000" font-family="sans-serif" font-size="13" lengthAdjust="spacing" textLength="317.1987" x="81.7461" y="679.1885">confirms automatic placement using normal distribution</text><line style="stroke:#181818;stroke-width:1.0;" x1="431.1411" x2="473.1411" y1="722.7422" y2="722.7422"/><line style="stroke:#181818;stroke-width:1.0;" x1="473.1411" x2="473.1411" y1="722.7422" y2="735.7422"/><line style="stroke:#181818;stroke-width:1.0;" x1="432.1411" x2="473.1411" y1="735.7422" y2="735.7422"/><polygon fill="#181818" points="442.1411,731.7422,432.1411,735.7422,442.1411,739.7422,438.1411,735.7422" style="stroke:#181818;stroke-width:1.0;"/><text fill="#000000" font-family="sans-serif" font-size="13" font-weight="bold" lengthAdjust="spacing" textLength="14.46" x="438.1411" y="717.4795">14</text><text fill="#000000" font-family="sans-serif" font-size="13" lengthAdjust="spacing" textLength="95.3545" x="456.6011" y="717.4795">collectCityData()</text><path d="M573.8145,707.9512 L573.8145,734.9512 L764.8145,734.9512 L764.8145,717.9512 L754.8145,707.9512 L573.8145,707.9512 " fill="#FAFAFA" style="stroke:#181818;stroke-width:0.5;"/><path d="M754.8145,707.9512 L754.8145,717.9512 L764.8145,717.9512 L754.8145,707.9512 " fill="#FAFAFA" style="stroke:#181818;stroke-width:0.5;"/><text fill="#000000" font-family="sans-serif" font-size="13" lengthAdjust="spacing" textLength="170.5107" x="579.8145" y="726.9795">Creates AddCityRequestDTO</text><rect fill="none" height="43.252" style="stroke:#000000;stroke-width:1.5;" width="486.3799" x="382.686" y="743.7422"/><path d="M382.686,743.7422 L443.686,743.7422 L443.686,752.7422 L433.686,762.7422 L382.686,762.7422 L382.686,743.7422 " fill="#EEEEEE" style="stroke:#000000;stroke-width:2.0;"/><text fill="#000000" font-family="sans-serif" font-size="13" font-weight="bold" lengthAdjust="spacing" textLength="16.6182" x="395.686" y="759.7705">ref</text><text fill="#000000" font-family="sans-serif" font-size="12" lengthAdjust="spacing" textLength="60.0176" x="595.8672" y="779.6914">Create City</text><polygon fill="#181818" points="52.2861,811.2852,42.2861,815.2852,52.2861,819.2852,48.2861,815.2852" style="stroke:#181818;stroke-width:1.0;"/><line style="stroke:#181818;stroke-width:1.0;stroke-dasharray:2.0,2.0;" x1="46.2861" x2="425.1411" y1="815.2852" y2="815.2852"/><text fill="#000000" font-family="sans-serif" font-size="13" font-weight="bold" lengthAdjust="spacing" textLength="14.46" x="58.2861" y="810.0225">15</text><text fill="#000000" font-family="sans-serif" font-size="13" lengthAdjust="spacing" textLength="309.9688" x="76.7461" y="810.0225">confirms successful addition with population summary</text><!--SRC=[bLJRQjj047tNLmnvii6XXRxveH3i40m9ARuK-ZXPZQN5Ur7tOfE_x-nALXLR2Sc2iQITS-RCrH-aQT2X1csD5RMpcY2uI8NlRneK1wne4ruLWICHq5HgQE1hBEr9cWhsg3mLHP21JJVqDv8H14k9LRARR9PJk8NTvliFk2jBMCZm2i724pRyUTCe6Oe2Ox0cwXTo_2o2TN1pNqh-lm7qSBzSRP_N1ViDKiW6JO2RENCbgjqgc-nMuzSBQuApIb7BjDYk7zyQUb8S79KiPyw_RFLqz-kjaM2cUQ9hILRRFrccF6AWixe2-BJFSFkJ1S6SZGy-nOeSDq9YoLOzb5L3TzYUKKaVuoeAY-WScR3pvDPMqMJQM_Re70mCJaRVdfrpsEJx-vB6SHS2ClA8IfPicHsV2p6zXZZQWpsIOzJiMiq3XLHa3u_IX_w6J9bmu_vPG9V1EVUNFNdGt2MAyO2CEwUphHbOGyL5Q9pGiJgqWCpsOG66_brgPC-WL3RWT21C36gQWR3MbT8mti-Wjj4Jl2WhM9kmqOJf9qKrpXvbIGC7xshxED6_ktArexKy4tqfstsqEHBEj9ULqTo0e2dKjeI9HXDHVKkJgf57O_h5tBz3V1Lp-q7nVNO8ZK912V29Ilql3EnvXx2sUbYWiM4OPFdT-epHlYMyf2FUYD2dwXCn26lsqca_1eBeqverrcdEHydJuEHB3DAQegjncxJ118kqyaH83P7weTiUnh929wiwiCd2KOweMvJhDedBxNFHDyfLsytIQfor2x1VEfadzrvnsNB5Xw7wA0HvluygBKYP0eAJ33KqjeaAyxkFMgDx7UkrmMktWly1]--></g></svg>