<svg xmlns="http://www.w3.org/2000/svg" xmlns:xlink="http://www.w3.org/1999/xlink" contentStyleType="text/css" height="1681px" preserveAspectRatio="none" style="width:3432px;height:1681px;background:#FFFFFF;" version="1.1" viewBox="0 0 3432 1681" width="3432px" zoomAndPan="magnify"><title>US03 - Class Diagram - Add City to Map</title><defs/><g><text fill="#000000" font-family="sans-serif" font-size="14" font-weight="bold" lengthAdjust="spacing" textLength="263.7168" x="1577.2202" y="25.1074">US03 - Class Diagram - Add City to Map</text><!--class AddCityUI--><g id="elem_AddCityUI"><rect codeLine="9" fill="#F1F1F1" height="48" id="AddCityUI" rx="2.5" ry="2.5" style="stroke:#181818;stroke-width:0.5;" width="95.0205" x="7" y="430.1211"/><ellipse cx="22" cy="446.1211" fill="#C2C2C2" rx="11" ry="11" style="stroke:#181818;stroke-width:1.0;"/><path d="M24.7656,441.9961 Q24.9219,441.7773 25.1094,441.668 Q25.2969,441.5586 25.5156,441.5586 Q25.8906,441.5586 26.125,441.8242 Q26.3594,442.0742 26.3594,442.6836 L26.3594,444.1367 Q26.3594,444.7461 26.125,445.0117 Q25.8906,445.2773 25.5156,445.2773 Q25.1719,445.2773 24.9688,445.0742 Q24.7656,444.8867 24.6563,444.3711 Q24.6094,444.0117 24.4219,443.8242 Q24.0938,443.4492 23.4844,443.2305 Q22.875,443.0117 22.25,443.0117 Q21.4844,443.0117 20.8438,443.3398 Q20.2188,443.668 19.7188,444.418 Q19.2344,445.168 19.2344,446.1992 L19.2344,447.293 Q19.2344,448.5273 20.125,449.3555 Q21.0156,450.168 22.6094,450.168 Q23.5469,450.168 24.2031,449.918 Q24.5938,449.7617 25.0156,449.3242 Q25.2813,449.0586 25.4219,448.9805 Q25.5781,448.9023 25.7813,448.9023 Q26.1094,448.9023 26.3594,449.168 Q26.625,449.418 26.625,449.7617 Q26.625,450.1055 26.2813,450.5117 Q25.7813,451.0898 24.9844,451.418 Q23.9063,451.8711 22.6094,451.8711 Q21.0938,451.8711 19.8906,451.2461 Q18.9063,450.7461 18.2188,449.6836 Q17.5313,448.6055 17.5313,447.3242 L17.5313,446.168 Q17.5313,444.8398 18.1406,443.6992 Q18.7656,442.543 19.8594,441.9336 Q20.9531,441.3086 22.1875,441.3086 Q22.9219,441.3086 23.5625,441.4805 Q24.2188,441.6367 24.7656,441.9961 Z " fill="#000000"/><text fill="#000000" font-family="sans-serif" font-size="14" lengthAdjust="spacing" textLength="63.0205" x="36" y="451.918">AddCityUI</text><line style="stroke:#181818;stroke-width:0.5;" x1="8" x2="101.0205" y1="462.1211" y2="462.1211"/><line style="stroke:#181818;stroke-width:0.5;" x1="8" x2="101.0205" y1="470.1211" y2="470.1211"/></g><!--class AddCityController--><g id="elem_AddCityController"><rect codeLine="12" fill="#F1F1F1" height="215.5898" id="AddCityController" rx="2.5" ry="2.5" style="stroke:#181818;stroke-width:0.5;" width="380.0605" x="206" y="698.1211"/><ellipse cx="336.9253" cy="714.1211" fill="#C2C2C2" rx="11" ry="11" style="stroke:#181818;stroke-width:1.0;"/><path d="M339.6909,709.9961 Q339.8472,709.7773 340.0347,709.668 Q340.2222,709.5586 340.4409,709.5586 Q340.8159,709.5586 341.0503,709.8242 Q341.2847,710.0742 341.2847,710.6836 L341.2847,712.1367 Q341.2847,712.7461 341.0503,713.0117 Q340.8159,713.2773 340.4409,713.2773 Q340.0972,713.2773 339.894,713.0742 Q339.6909,712.8867 339.5815,712.3711 Q339.5347,712.0117 339.3472,711.8242 Q339.019,711.4492 338.4097,711.2305 Q337.8003,711.0117 337.1753,711.0117 Q336.4097,711.0117 335.769,711.3398 Q335.144,711.668 334.644,712.418 Q334.1597,713.168 334.1597,714.1992 L334.1597,715.293 Q334.1597,716.5273 335.0503,717.3555 Q335.9409,718.168 337.5347,718.168 Q338.4722,718.168 339.1284,717.918 Q339.519,717.7617 339.9409,717.3242 Q340.2065,717.0586 340.3472,716.9805 Q340.5034,716.9023 340.7065,716.9023 Q341.0347,716.9023 341.2847,717.168 Q341.5503,717.418 341.5503,717.7617 Q341.5503,718.1055 341.2065,718.5117 Q340.7065,719.0898 339.9097,719.418 Q338.8315,719.8711 337.5347,719.8711 Q336.019,719.8711 334.8159,719.2461 Q333.8315,718.7461 333.144,717.6836 Q332.4565,716.6055 332.4565,715.3242 L332.4565,714.168 Q332.4565,712.8398 333.0659,711.6992 Q333.6909,710.543 334.7847,709.9336 Q335.8784,709.3086 337.1128,709.3086 Q337.8472,709.3086 338.4878,709.4805 Q339.144,709.6367 339.6909,709.9961 Z " fill="#000000"/><text fill="#000000" font-family="sans-serif" font-size="14" lengthAdjust="spacing" textLength="109.71" x="357.4253" y="719.918">AddCityController</text><line style="stroke:#181818;stroke-width:0.5;" x1="207" x2="585.0605" y1="730.1211" y2="730.1211"/><rect fill="none" height="6" style="stroke:#595959;stroke-width:1.0;" width="6" x="214" y="741.9316"/><text fill="#000000" font-family="sans-serif" font-size="14" lengthAdjust="spacing" textLength="217.123" x="226" y="749.2285">authService: AuthenticationService</text><rect fill="none" height="6" style="stroke:#595959;stroke-width:1.0;" width="6" x="214" y="760.5527"/><text fill="#000000" font-family="sans-serif" font-size="14" lengthAdjust="spacing" textLength="214.7578" x="226" y="767.8496">gameRepository: GameRepository</text><rect fill="none" height="6" style="stroke:#595959;stroke-width:1.0;" width="6" x="214" y="779.1738"/><text fill="#000000" font-family="sans-serif" font-size="14" lengthAdjust="spacing" textLength="146.2549" x="226" y="786.4707">cityService: CityService</text><rect fill="none" height="6" style="stroke:#595959;stroke-width:1.0;" width="6" x="214" y="797.7949"/><text fill="#000000" font-family="sans-serif" font-size="14" lengthAdjust="spacing" textLength="157.1855" x="226" y="805.0918">mapMapper: MapMapper</text><rect fill="none" height="6" style="stroke:#595959;stroke-width:1.0;" width="6" x="214" y="816.416"/><text fill="#000000" font-family="sans-serif" font-size="14" lengthAdjust="spacing" textLength="147.8271" x="226" y="823.7129">cityMapper: CityMapper</text><line style="stroke:#181818;stroke-width:0.5;" x1="207" x2="585.0605" y1="831.2266" y2="831.2266"/><ellipse cx="217" cy="846.0371" fill="#A6A6A6" rx="3" ry="3" style="stroke:#545454;stroke-width:1.0;"/><text fill="#000000" font-family="sans-serif" font-size="14" lengthAdjust="spacing" textLength="178.1719" x="226" y="850.334">getCurrentUserRole(): String</text><ellipse cx="217" cy="864.6582" fill="#A6A6A6" rx="3" ry="3" style="stroke:#545454;stroke-width:1.0;"/><text fill="#000000" font-family="sans-serif" font-size="14" lengthAdjust="spacing" textLength="180.5098" x="226" y="868.9551">getMapList(): List&lt;MapDTO&gt;</text><ellipse cx="217" cy="883.2793" fill="#A6A6A6" rx="3" ry="3" style="stroke:#545454;stroke-width:1.0;"/><text fill="#000000" font-family="sans-serif" font-size="14" lengthAdjust="spacing" textLength="354.0605" x="226" y="887.5762">validateCityData(request: AddCityRequestDTO): boolean</text><ellipse cx="217" cy="901.9004" fill="#A6A6A6" rx="3" ry="3" style="stroke:#545454;stroke-width:1.0;"/><text fill="#000000" font-family="sans-serif" font-size="14" lengthAdjust="spacing" textLength="275.4473" x="226" y="906.1973">addCity(request: AddCityRequestDTO): void</text></g><!--class MapDTO--><g id="elem_MapDTO"><rect codeLine="25" fill="#F1F1F1" height="141.1055" id="MapDTO" rx="2.5" ry="2.5" style="stroke:#181818;stroke-width:0.5;" width="224.4131" x="1538.5" y="46.6211"/><ellipse cx="1618.0635" cy="62.6211" fill="#C2C2C2" rx="11" ry="11" style="stroke:#181818;stroke-width:1.0;"/><path d="M1620.8291,58.4961 Q1620.9854,58.2773 1621.1729,58.168 Q1621.3604,58.0586 1621.5791,58.0586 Q1621.9541,58.0586 1622.1885,58.3242 Q1622.4229,58.5742 1622.4229,59.1836 L1622.4229,60.6367 Q1622.4229,61.2461 1622.1885,61.5117 Q1621.9541,61.7773 1621.5791,61.7773 Q1621.2354,61.7773 1621.0322,61.5742 Q1620.8291,61.3867 1620.7197,60.8711 Q1620.6729,60.5117 1620.4854,60.3242 Q1620.1572,59.9492 1619.5479,59.7305 Q1618.9385,59.5117 1618.3135,59.5117 Q1617.5479,59.5117 1616.9072,59.8398 Q1616.2822,60.168 1615.7822,60.918 Q1615.2979,61.668 1615.2979,62.6992 L1615.2979,63.793 Q1615.2979,65.0273 1616.1885,65.8555 Q1617.0791,66.668 1618.6729,66.668 Q1619.6104,66.668 1620.2666,66.418 Q1620.6572,66.2617 1621.0791,65.8242 Q1621.3447,65.5586 1621.4854,65.4805 Q1621.6416,65.4023 1621.8447,65.4023 Q1622.1729,65.4023 1622.4229,65.668 Q1622.6885,65.918 1622.6885,66.2617 Q1622.6885,66.6055 1622.3447,67.0117 Q1621.8447,67.5898 1621.0479,67.918 Q1619.9697,68.3711 1618.6729,68.3711 Q1617.1572,68.3711 1615.9541,67.7461 Q1614.9697,67.2461 1614.2822,66.1836 Q1613.5947,65.1055 1613.5947,63.8242 L1613.5947,62.668 Q1613.5947,61.3398 1614.2041,60.1992 Q1614.8291,59.043 1615.9229,58.4336 Q1617.0166,57.8086 1618.251,57.8086 Q1618.9854,57.8086 1619.626,57.9805 Q1620.2822,58.1367 1620.8291,58.4961 Z " fill="#000000"/><text fill="#000000" font-family="sans-serif" font-size="14" lengthAdjust="spacing" textLength="56.7861" x="1638.5635" y="68.418">MapDTO</text><line style="stroke:#181818;stroke-width:0.5;" x1="1539.5" x2="1761.9131" y1="78.6211" y2="78.6211"/><ellipse cx="1549.5" cy="93.4316" fill="none" rx="3" ry="3" style="stroke:#545454;stroke-width:1.0;"/><text fill="#000000" font-family="sans-serif" font-size="14" lengthAdjust="spacing" textLength="49.8203" x="1558.5" y="97.7285">id: Long</text><ellipse cx="1549.5" cy="112.0527" fill="none" rx="3" ry="3" style="stroke:#545454;stroke-width:1.0;"/><text fill="#000000" font-family="sans-serif" font-size="14" lengthAdjust="spacing" textLength="79.3721" x="1558.5" y="116.3496">name: String</text><ellipse cx="1549.5" cy="130.6738" fill="none" rx="3" ry="3" style="stroke:#545454;stroke-width:1.0;"/><text fill="#000000" font-family="sans-serif" font-size="14" lengthAdjust="spacing" textLength="55.248" x="1558.5" y="134.9707">width: int</text><ellipse cx="1549.5" cy="149.2949" fill="none" rx="3" ry="3" style="stroke:#545454;stroke-width:1.0;"/><text fill="#000000" font-family="sans-serif" font-size="14" lengthAdjust="spacing" textLength="60.71" x="1558.5" y="153.5918">height: int</text><ellipse cx="1549.5" cy="167.916" fill="none" rx="3" ry="3" style="stroke:#545454;stroke-width:1.0;"/><text fill="#000000" font-family="sans-serif" font-size="14" lengthAdjust="spacing" textLength="198.4131" x="1558.5" y="172.2129">existingCityNames: List&lt;String&gt;</text><line style="stroke:#181818;stroke-width:0.5;" x1="1539.5" x2="1761.9131" y1="179.7266" y2="179.7266"/></g><!--class CityDTO--><g id="elem_CityDTO"><rect codeLine="33" fill="#F1F1F1" height="141.1055" id="CityDTO" rx="2.5" ry="2.5" style="stroke:#181818;stroke-width:0.5;" width="165.3027" x="1568" y="222.6211"/><ellipse cx="1619.5703" cy="238.6211" fill="#C2C2C2" rx="11" ry="11" style="stroke:#181818;stroke-width:1.0;"/><path d="M1622.3359,234.4961 Q1622.4922,234.2773 1622.6797,234.168 Q1622.8672,234.0586 1623.0859,234.0586 Q1623.4609,234.0586 1623.6953,234.3242 Q1623.9297,234.5742 1623.9297,235.1836 L1623.9297,236.6367 Q1623.9297,237.2461 1623.6953,237.5117 Q1623.4609,237.7773 1623.0859,237.7773 Q1622.7422,237.7773 1622.5391,237.5742 Q1622.3359,237.3867 1622.2266,236.8711 Q1622.1797,236.5117 1621.9922,236.3242 Q1621.6641,235.9492 1621.0547,235.7305 Q1620.4453,235.5117 1619.8203,235.5117 Q1619.0547,235.5117 1618.4141,235.8398 Q1617.7891,236.168 1617.2891,236.918 Q1616.8047,237.668 1616.8047,238.6992 L1616.8047,239.793 Q1616.8047,241.0273 1617.6953,241.8555 Q1618.5859,242.668 1620.1797,242.668 Q1621.1172,242.668 1621.7734,242.418 Q1622.1641,242.2617 1622.5859,241.8242 Q1622.8516,241.5586 1622.9922,241.4805 Q1623.1484,241.4023 1623.3516,241.4023 Q1623.6797,241.4023 1623.9297,241.668 Q1624.1953,241.918 1624.1953,242.2617 Q1624.1953,242.6055 1623.8516,243.0117 Q1623.3516,243.5898 1622.5547,243.918 Q1621.4766,244.3711 1620.1797,244.3711 Q1618.6641,244.3711 1617.4609,243.7461 Q1616.4766,243.2461 1615.7891,242.1836 Q1615.1016,241.1055 1615.1016,239.8242 L1615.1016,238.668 Q1615.1016,237.3398 1615.7109,236.1992 Q1616.3359,235.043 1617.4297,234.4336 Q1618.5234,233.8086 1619.7578,233.8086 Q1620.4922,233.8086 1621.1328,233.9805 Q1621.7891,234.1367 1622.3359,234.4961 Z " fill="#000000"/><text fill="#000000" font-family="sans-serif" font-size="14" lengthAdjust="spacing" textLength="53.6621" x="1640.0703" y="244.418">CityDTO</text><line style="stroke:#181818;stroke-width:0.5;" x1="1569" x2="1732.3027" y1="254.6211" y2="254.6211"/><ellipse cx="1579" cy="269.4316" fill="none" rx="3" ry="3" style="stroke:#545454;stroke-width:1.0;"/><text fill="#000000" font-family="sans-serif" font-size="14" lengthAdjust="spacing" textLength="49.8203" x="1588" y="273.7285">id: Long</text><ellipse cx="1579" cy="288.0527" fill="none" rx="3" ry="3" style="stroke:#545454;stroke-width:1.0;"/><text fill="#000000" font-family="sans-serif" font-size="14" lengthAdjust="spacing" textLength="79.3721" x="1588" y="292.3496">name: String</text><ellipse cx="1579" cy="306.6738" fill="none" rx="3" ry="3" style="stroke:#545454;stroke-width:1.0;"/><text fill="#000000" font-family="sans-serif" font-size="14" lengthAdjust="spacing" textLength="138.5166" x="1588" y="310.9707">location: LocationDTO</text><ellipse cx="1579" cy="325.2949" fill="none" rx="3" ry="3" style="stroke:#545454;stroke-width:1.0;"/><text fill="#000000" font-family="sans-serif" font-size="14" lengthAdjust="spacing" textLength="139.3027" x="1588" y="329.5918">houseBlocksCount: int</text><ellipse cx="1579" cy="343.916" fill="none" rx="3" ry="3" style="stroke:#545454;stroke-width:1.0;"/><text fill="#000000" font-family="sans-serif" font-size="14" lengthAdjust="spacing" textLength="87.1787" x="1588" y="348.2129">population: int</text><line style="stroke:#181818;stroke-width:0.5;" x1="1569" x2="1732.3027" y1="355.7266" y2="355.7266"/></g><!--class LocationDTO--><g id="elem_LocationDTO"><rect codeLine="41" fill="#F1F1F1" height="85.2422" id="LocationDTO" rx="2.5" ry="2.5" style="stroke:#181818;stroke-width:0.5;" width="114.4824" x="1593.5" y="878.6211"/><ellipse cx="1608.5" cy="894.6211" fill="#C2C2C2" rx="11" ry="11" style="stroke:#181818;stroke-width:1.0;"/><path d="M1611.2656,890.4961 Q1611.4219,890.2773 1611.6094,890.168 Q1611.7969,890.0586 1612.0156,890.0586 Q1612.3906,890.0586 1612.625,890.3242 Q1612.8594,890.5742 1612.8594,891.1836 L1612.8594,892.6367 Q1612.8594,893.2461 1612.625,893.5117 Q1612.3906,893.7773 1612.0156,893.7773 Q1611.6719,893.7773 1611.4688,893.5742 Q1611.2656,893.3867 1611.1563,892.8711 Q1611.1094,892.5117 1610.9219,892.3242 Q1610.5938,891.9492 1609.9844,891.7305 Q1609.375,891.5117 1608.75,891.5117 Q1607.9844,891.5117 1607.3438,891.8398 Q1606.7188,892.168 1606.2188,892.918 Q1605.7344,893.668 1605.7344,894.6992 L1605.7344,895.793 Q1605.7344,897.0273 1606.625,897.8555 Q1607.5156,898.668 1609.1094,898.668 Q1610.0469,898.668 1610.7031,898.418 Q1611.0938,898.2617 1611.5156,897.8242 Q1611.7813,897.5586 1611.9219,897.4805 Q1612.0781,897.4023 1612.2813,897.4023 Q1612.6094,897.4023 1612.8594,897.668 Q1613.125,897.918 1613.125,898.2617 Q1613.125,898.6055 1612.7813,899.0117 Q1612.2813,899.5898 1611.4844,899.918 Q1610.4063,900.3711 1609.1094,900.3711 Q1607.5938,900.3711 1606.3906,899.7461 Q1605.4063,899.2461 1604.7188,898.1836 Q1604.0313,897.1055 1604.0313,895.8242 L1604.0313,894.668 Q1604.0313,893.3398 1604.6406,892.1992 Q1605.2656,891.043 1606.3594,890.4336 Q1607.4531,889.8086 1608.6875,889.8086 Q1609.4219,889.8086 1610.0625,889.9805 Q1610.7188,890.1367 1611.2656,890.4961 Z " fill="#000000"/><text fill="#000000" font-family="sans-serif" font-size="14" lengthAdjust="spacing" textLength="82.4824" x="1622.5" y="900.418">LocationDTO</text><line style="stroke:#181818;stroke-width:0.5;" x1="1594.5" x2="1706.9824" y1="910.6211" y2="910.6211"/><ellipse cx="1604.5" cy="925.4316" fill="none" rx="3" ry="3" style="stroke:#545454;stroke-width:1.0;"/><text fill="#000000" font-family="sans-serif" font-size="14" lengthAdjust="spacing" textLength="29.5654" x="1613.5" y="929.7285">x: int</text><ellipse cx="1604.5" cy="944.0527" fill="none" rx="3" ry="3" style="stroke:#545454;stroke-width:1.0;"/><text fill="#000000" font-family="sans-serif" font-size="14" lengthAdjust="spacing" textLength="29.5654" x="1613.5" y="948.3496">y: int</text><line style="stroke:#181818;stroke-width:0.5;" x1="1594.5" x2="1706.9824" y1="955.8633" y2="955.8633"/></g><!--class AddCityRequestDTO--><g id="elem_AddCityRequestDTO"><rect codeLine="47" fill="#F1F1F1" height="178.3477" id="AddCityRequestDTO" rx="2.5" ry="2.5" style="stroke:#181818;stroke-width:0.5;" width="294.4814" x="249" y="949.1211"/><ellipse cx="326.6323" cy="965.1211" fill="#C2C2C2" rx="11" ry="11" style="stroke:#181818;stroke-width:1.0;"/><path d="M329.3979,960.9961 Q329.5542,960.7773 329.7417,960.668 Q329.9292,960.5586 330.1479,960.5586 Q330.5229,960.5586 330.7573,960.8242 Q330.9917,961.0742 330.9917,961.6836 L330.9917,963.1367 Q330.9917,963.7461 330.7573,964.0117 Q330.5229,964.2773 330.1479,964.2773 Q329.8042,964.2773 329.6011,964.0742 Q329.3979,963.8867 329.2886,963.3711 Q329.2417,963.0117 329.0542,962.8242 Q328.7261,962.4492 328.1167,962.2305 Q327.5073,962.0117 326.8823,962.0117 Q326.1167,962.0117 325.4761,962.3398 Q324.8511,962.668 324.3511,963.418 Q323.8667,964.168 323.8667,965.1992 L323.8667,966.293 Q323.8667,967.5273 324.7573,968.3555 Q325.6479,969.168 327.2417,969.168 Q328.1792,969.168 328.8354,968.918 Q329.2261,968.7617 329.6479,968.3242 Q329.9136,968.0586 330.0542,967.9805 Q330.2104,967.9023 330.4136,967.9023 Q330.7417,967.9023 330.9917,968.168 Q331.2573,968.418 331.2573,968.7617 Q331.2573,969.1055 330.9136,969.5117 Q330.4136,970.0898 329.6167,970.418 Q328.5386,970.8711 327.2417,970.8711 Q325.7261,970.8711 324.5229,970.2461 Q323.5386,969.7461 322.8511,968.6836 Q322.1636,967.6055 322.1636,966.3242 L322.1636,965.168 Q322.1636,963.8398 322.7729,962.6992 Q323.3979,961.543 324.4917,960.9336 Q325.5854,960.3086 326.8198,960.3086 Q327.5542,960.3086 328.1948,960.4805 Q328.8511,960.6367 329.3979,960.9961 Z " fill="#000000"/><text fill="#000000" font-family="sans-serif" font-size="14" lengthAdjust="spacing" textLength="130.7168" x="347.1323" y="970.918">AddCityRequestDTO</text><line style="stroke:#181818;stroke-width:0.5;" x1="250" x2="542.4814" y1="981.1211" y2="981.1211"/><ellipse cx="260" cy="995.9316" fill="none" rx="3" ry="3" style="stroke:#545454;stroke-width:1.0;"/><text fill="#000000" font-family="sans-serif" font-size="14" lengthAdjust="spacing" textLength="77.834" x="269" y="1000.2285">mapId: Long</text><ellipse cx="260" cy="1014.5527" fill="none" rx="3" ry="3" style="stroke:#545454;stroke-width:1.0;"/><text fill="#000000" font-family="sans-serif" font-size="14" lengthAdjust="spacing" textLength="79.3721" x="269" y="1018.8496">name: String</text><ellipse cx="260" cy="1033.1738" fill="none" rx="3" ry="3" style="stroke:#545454;stroke-width:1.0;"/><text fill="#000000" font-family="sans-serif" font-size="14" lengthAdjust="spacing" textLength="29.5654" x="269" y="1037.4707">x: int</text><ellipse cx="260" cy="1051.7949" fill="none" rx="3" ry="3" style="stroke:#545454;stroke-width:1.0;"/><text fill="#000000" font-family="sans-serif" font-size="14" lengthAdjust="spacing" textLength="29.5654" x="269" y="1056.0918">y: int</text><ellipse cx="260" cy="1070.416" fill="none" rx="3" ry="3" style="stroke:#545454;stroke-width:1.0;"/><text fill="#000000" font-family="sans-serif" font-size="14" lengthAdjust="spacing" textLength="139.3027" x="269" y="1074.7129">houseBlocksCount: int</text><ellipse cx="260" cy="1089.0371" fill="none" rx="3" ry="3" style="stroke:#545454;stroke-width:1.0;"/><text fill="#000000" font-family="sans-serif" font-size="14" lengthAdjust="spacing" textLength="155.6406" x="269" y="1093.334">placementMethod: String</text><ellipse cx="260" cy="1107.6582" fill="none" rx="3" ry="3" style="stroke:#545454;stroke-width:1.0;"/><text fill="#000000" font-family="sans-serif" font-size="14" lengthAdjust="spacing" textLength="268.4814" x="269" y="1111.9551">manualBlockLocations: List&lt;LocationDTO&gt;</text><line style="stroke:#181818;stroke-width:0.5;" x1="250" x2="542.4814" y1="1119.4688" y2="1119.4688"/></g><!--class Mapper--><g id="elem_Mapper"><rect codeLine="57" fill="#F1F1F1" height="85.2422" id="Mapper" rx="2.5" ry="2.5" style="stroke:#181818;stroke-width:0.5;" width="233.7373" x="1533.5" y="668.6211"/><ellipse cx="1622.3843" cy="684.6211" fill="#B1B1B1" rx="11" ry="11" style="stroke:#181818;stroke-width:1.0;"/><path d="M1623.3374,681.2617 L1623.3374,687.918 L1625.0562,687.918 Q1625.6655,687.918 1625.9312,688.1523 Q1626.1968,688.3867 1626.1968,688.7773 Q1626.1968,689.1523 1625.9312,689.3867 Q1625.6655,689.6211 1625.0562,689.6211 L1619.9155,689.6211 Q1619.3062,689.6211 1619.0405,689.3867 Q1618.7749,689.1523 1618.7749,688.7617 Q1618.7749,688.3867 1619.0405,688.1523 Q1619.3062,687.918 1619.9155,687.918 L1621.6343,687.918 L1621.6343,681.2617 L1619.9155,681.2617 Q1619.3062,681.2617 1619.0405,681.0273 Q1618.7749,680.793 1618.7749,680.4023 Q1618.7749,680.0273 1619.0405,679.793 Q1619.3062,679.5586 1619.9155,679.5586 L1625.0562,679.5586 Q1625.6655,679.5586 1625.9312,679.793 Q1626.1968,680.0273 1626.1968,680.4023 Q1626.1968,680.793 1625.9312,681.0273 Q1625.6655,681.2617 1625.0562,681.2617 L1623.3374,681.2617 Z " fill="#000000"/><text fill="#000000" font-family="sans-serif" font-size="14" font-style="italic" lengthAdjust="spacing" textLength="47.4688" x="1642.8843" y="690.418">Mapper</text><line style="stroke:#181818;stroke-width:0.5;" x1="1534.5" x2="1766.2373" y1="700.6211" y2="700.6211"/><line style="stroke:#181818;stroke-width:0.5;" x1="1534.5" x2="1766.2373" y1="708.6211" y2="708.6211"/><ellipse cx="1544.5" cy="723.4316" fill="#A6A6A6" rx="3" ry="3" style="stroke:#545454;stroke-width:1.0;"/><text fill="#000000" font-family="sans-serif" font-size="14" lengthAdjust="spacing" textLength="109.6758" x="1553.5" y="727.7285">toDTO(type: T): T</text><ellipse cx="1544.5" cy="742.0527" fill="#A6A6A6" rx="3" ry="3" style="stroke:#545454;stroke-width:1.0;"/><text fill="#000000" font-family="sans-serif" font-size="14" lengthAdjust="spacing" textLength="207.7373" x="1553.5" y="746.3496">toDTOList(type: List&lt;T&gt;): List&lt;T&gt;</text></g><!--class MapMapper--><g id="elem_MapMapper"><rect codeLine="63" fill="#F1F1F1" height="85.2422" id="MapMapper" rx="2.5" ry="2.5" style="stroke:#181818;stroke-width:0.5;" width="308.4268" x="785.5" y="495.6211"/><ellipse cx="898.1118" cy="511.6211" fill="#C2C2C2" rx="11" ry="11" style="stroke:#181818;stroke-width:1.0;"/><path d="M900.8774,507.4961 Q901.0337,507.2773 901.2212,507.168 Q901.4087,507.0586 901.6274,507.0586 Q902.0024,507.0586 902.2368,507.3242 Q902.4712,507.5742 902.4712,508.1836 L902.4712,509.6367 Q902.4712,510.2461 902.2368,510.5117 Q902.0024,510.7773 901.6274,510.7773 Q901.2837,510.7773 901.0806,510.5742 Q900.8774,510.3867 900.7681,509.8711 Q900.7212,509.5117 900.5337,509.3242 Q900.2056,508.9492 899.5962,508.7305 Q898.9868,508.5117 898.3618,508.5117 Q897.5962,508.5117 896.9556,508.8398 Q896.3306,509.168 895.8306,509.918 Q895.3462,510.668 895.3462,511.6992 L895.3462,512.793 Q895.3462,514.0273 896.2368,514.8555 Q897.1274,515.668 898.7212,515.668 Q899.6587,515.668 900.3149,515.418 Q900.7056,515.2617 901.1274,514.8242 Q901.3931,514.5586 901.5337,514.4805 Q901.6899,514.4023 901.8931,514.4023 Q902.2212,514.4023 902.4712,514.668 Q902.7368,514.918 902.7368,515.2617 Q902.7368,515.6055 902.3931,516.0117 Q901.8931,516.5898 901.0962,516.918 Q900.0181,517.3711 898.7212,517.3711 Q897.2056,517.3711 896.0024,516.7461 Q895.0181,516.2461 894.3306,515.1836 Q893.6431,514.1055 893.6431,512.8242 L893.6431,511.668 Q893.6431,510.3398 894.2524,509.1992 Q894.8774,508.043 895.9712,507.4336 Q897.0649,506.8086 898.2993,506.8086 Q899.0337,506.8086 899.6743,506.9805 Q900.3306,507.1367 900.8774,507.4961 Z " fill="#000000"/><text fill="#000000" font-family="sans-serif" font-size="14" lengthAdjust="spacing" textLength="74.7031" x="918.6118" y="517.418">MapMapper</text><line style="stroke:#181818;stroke-width:0.5;" x1="786.5" x2="1092.9268" y1="527.6211" y2="527.6211"/><line style="stroke:#181818;stroke-width:0.5;" x1="786.5" x2="1092.9268" y1="535.6211" y2="535.6211"/><ellipse cx="796.5" cy="550.4316" fill="#A6A6A6" rx="3" ry="3" style="stroke:#545454;stroke-width:1.0;"/><text fill="#000000" font-family="sans-serif" font-size="14" lengthAdjust="spacing" textLength="177.3652" x="805.5" y="554.7285">toDTO(map: Map): MapDTO</text><ellipse cx="796.5" cy="569.0527" fill="#A6A6A6" rx="3" ry="3" style="stroke:#545454;stroke-width:1.0;"/><text fill="#000000" font-family="sans-serif" font-size="14" lengthAdjust="spacing" textLength="282.4268" x="805.5" y="573.3496">toDTOList(maps: List&lt;Map&gt;): List&lt;MapDTO&gt;</text></g><!--class CityMapper--><g id="elem_CityMapper"><rect codeLine="68" fill="#F1F1F1" height="103.8633" id="CityMapper" rx="2.5" ry="2.5" style="stroke:#181818;stroke-width:0.5;" width="328.6953" x="775" y="834.1211"/><ellipse cx="899.3081" cy="850.1211" fill="#C2C2C2" rx="11" ry="11" style="stroke:#181818;stroke-width:1.0;"/><path d="M902.0737,845.9961 Q902.23,845.7773 902.4175,845.668 Q902.605,845.5586 902.8237,845.5586 Q903.1987,845.5586 903.4331,845.8242 Q903.6675,846.0742 903.6675,846.6836 L903.6675,848.1367 Q903.6675,848.7461 903.4331,849.0117 Q903.1987,849.2773 902.8237,849.2773 Q902.48,849.2773 902.2769,849.0742 Q902.0737,848.8867 901.9644,848.3711 Q901.9175,848.0117 901.73,847.8242 Q901.4019,847.4492 900.7925,847.2305 Q900.1831,847.0117 899.5581,847.0117 Q898.7925,847.0117 898.1519,847.3398 Q897.5269,847.668 897.0269,848.418 Q896.5425,849.168 896.5425,850.1992 L896.5425,851.293 Q896.5425,852.5273 897.4331,853.3555 Q898.3237,854.168 899.9175,854.168 Q900.855,854.168 901.5112,853.918 Q901.9019,853.7617 902.3237,853.3242 Q902.5894,853.0586 902.73,852.9805 Q902.8862,852.9023 903.0894,852.9023 Q903.4175,852.9023 903.6675,853.168 Q903.9331,853.418 903.9331,853.7617 Q903.9331,854.1055 903.5894,854.5117 Q903.0894,855.0898 902.2925,855.418 Q901.2144,855.8711 899.9175,855.8711 Q898.4019,855.8711 897.1987,855.2461 Q896.2144,854.7461 895.5269,853.6836 Q894.8394,852.6055 894.8394,851.3242 L894.8394,850.168 Q894.8394,848.8398 895.4487,847.6992 Q896.0737,846.543 897.1675,845.9336 Q898.2612,845.3086 899.4956,845.3086 Q900.23,845.3086 900.8706,845.4805 Q901.5269,845.6367 902.0737,845.9961 Z " fill="#000000"/><text fill="#000000" font-family="sans-serif" font-size="14" lengthAdjust="spacing" textLength="71.5791" x="919.8081" y="855.918">CityMapper</text><line style="stroke:#181818;stroke-width:0.5;" x1="776" x2="1102.6953" y1="866.1211" y2="866.1211"/><line style="stroke:#181818;stroke-width:0.5;" x1="776" x2="1102.6953" y1="874.1211" y2="874.1211"/><ellipse cx="786" cy="888.9316" fill="#A6A6A6" rx="3" ry="3" style="stroke:#545454;stroke-width:1.0;"/><text fill="#000000" font-family="sans-serif" font-size="14" lengthAdjust="spacing" textLength="164.8828" x="795" y="893.2285">toDTO(city: City): CityDTO</text><ellipse cx="786" cy="907.5527" fill="#A6A6A6" rx="3" ry="3" style="stroke:#545454;stroke-width:1.0;"/><text fill="#000000" font-family="sans-serif" font-size="14" lengthAdjust="spacing" textLength="302.6953" x="795" y="911.8496">locationToDTO(location: Location): LocationDTO</text><ellipse cx="786" cy="926.1738" fill="#A6A6A6" rx="3" ry="3" style="stroke:#545454;stroke-width:1.0;"/><text fill="#000000" font-family="sans-serif" font-size="14" lengthAdjust="spacing" textLength="290.2266" x="795" y="930.4707">locationFromDTO(dto: LocationDTO): Location</text></g><!--class MapRepository--><g id="elem_MapRepository"><rect codeLine="74" fill="#F1F1F1" height="103.8633" id="MapRepository" rx="2.5" ry="2.5" style="stroke:#181818;stroke-width:0.5;" width="177.7305" x="1561.5" y="1209.1211"/><ellipse cx="1599.7106" cy="1225.1211" fill="#C2C2C2" rx="11" ry="11" style="stroke:#181818;stroke-width:1.0;"/><path d="M1602.4762,1220.9961 Q1602.6325,1220.7773 1602.82,1220.668 Q1603.0075,1220.5586 1603.2262,1220.5586 Q1603.6012,1220.5586 1603.8356,1220.8242 Q1604.07,1221.0742 1604.07,1221.6836 L1604.07,1223.1367 Q1604.07,1223.7461 1603.8356,1224.0117 Q1603.6012,1224.2773 1603.2262,1224.2773 Q1602.8825,1224.2773 1602.6793,1224.0742 Q1602.4762,1223.8867 1602.3668,1223.3711 Q1602.32,1223.0117 1602.1325,1222.8242 Q1601.8043,1222.4492 1601.195,1222.2305 Q1600.5856,1222.0117 1599.9606,1222.0117 Q1599.195,1222.0117 1598.5543,1222.3398 Q1597.9293,1222.668 1597.4293,1223.418 Q1596.945,1224.168 1596.945,1225.1992 L1596.945,1226.293 Q1596.945,1227.5273 1597.8356,1228.3555 Q1598.7262,1229.168 1600.32,1229.168 Q1601.2575,1229.168 1601.9137,1228.918 Q1602.3043,1228.7617 1602.7262,1228.3242 Q1602.9918,1228.0586 1603.1325,1227.9805 Q1603.2887,1227.9023 1603.4918,1227.9023 Q1603.82,1227.9023 1604.07,1228.168 Q1604.3356,1228.418 1604.3356,1228.7617 Q1604.3356,1229.1055 1603.9918,1229.5117 Q1603.4918,1230.0898 1602.695,1230.418 Q1601.6168,1230.8711 1600.32,1230.8711 Q1598.8043,1230.8711 1597.6012,1230.2461 Q1596.6168,1229.7461 1595.9293,1228.6836 Q1595.2418,1227.6055 1595.2418,1226.3242 L1595.2418,1225.168 Q1595.2418,1223.8398 1595.8512,1222.6992 Q1596.4762,1221.543 1597.57,1220.9336 Q1598.6637,1220.3086 1599.8981,1220.3086 Q1600.6325,1220.3086 1601.2731,1220.4805 Q1601.9293,1220.6367 1602.4762,1220.9961 Z " fill="#000000"/><text fill="#000000" font-family="sans-serif" font-size="14" lengthAdjust="spacing" textLength="94.1514" x="1618.8685" y="1230.918">MapRepository</text><line style="stroke:#181818;stroke-width:0.5;" x1="1562.5" x2="1738.2305" y1="1241.1211" y2="1241.1211"/><line style="stroke:#181818;stroke-width:0.5;" x1="1562.5" x2="1738.2305" y1="1249.1211" y2="1249.1211"/><ellipse cx="1572.5" cy="1263.9316" fill="#A6A6A6" rx="3" ry="3" style="stroke:#545454;stroke-width:1.0;"/><text fill="#000000" font-family="sans-serif" font-size="14" lengthAdjust="spacing" textLength="151.7305" x="1581.5" y="1268.2285">getAllMaps(): List&lt;Map&gt;</text><ellipse cx="1572.5" cy="1282.5527" fill="#A6A6A6" rx="3" ry="3" style="stroke:#545454;stroke-width:1.0;"/><text fill="#000000" font-family="sans-serif" font-size="14" lengthAdjust="spacing" textLength="144.7441" x="1581.5" y="1286.8496">findById(id: Long): Map</text><ellipse cx="1572.5" cy="1301.1738" fill="#A6A6A6" rx="3" ry="3" style="stroke:#545454;stroke-width:1.0;"/><text fill="#000000" font-family="sans-serif" font-size="14" lengthAdjust="spacing" textLength="134.6064" x="1581.5" y="1305.4707">save(map: Map): void</text></g><!--class CityRepository--><g id="elem_CityRepository"><rect codeLine="80" fill="#F1F1F1" height="85.2422" id="CityRepository" rx="2.5" ry="2.5" style="stroke:#181818;stroke-width:0.5;" width="360.5986" x="1470" y="1348.6211"/><ellipse cx="1600.5356" cy="1364.6211" fill="#C2C2C2" rx="11" ry="11" style="stroke:#181818;stroke-width:1.0;"/><path d="M1603.3013,1360.4961 Q1603.4575,1360.2773 1603.645,1360.168 Q1603.8325,1360.0586 1604.0513,1360.0586 Q1604.4263,1360.0586 1604.6606,1360.3242 Q1604.895,1360.5742 1604.895,1361.1836 L1604.895,1362.6367 Q1604.895,1363.2461 1604.6606,1363.5117 Q1604.4263,1363.7773 1604.0513,1363.7773 Q1603.7075,1363.7773 1603.5044,1363.5742 Q1603.3013,1363.3867 1603.1919,1362.8711 Q1603.145,1362.5117 1602.9575,1362.3242 Q1602.6294,1361.9492 1602.02,1361.7305 Q1601.4106,1361.5117 1600.7856,1361.5117 Q1600.02,1361.5117 1599.3794,1361.8398 Q1598.7544,1362.168 1598.2544,1362.918 Q1597.77,1363.668 1597.77,1364.6992 L1597.77,1365.793 Q1597.77,1367.0273 1598.6606,1367.8555 Q1599.5513,1368.668 1601.145,1368.668 Q1602.0825,1368.668 1602.7388,1368.418 Q1603.1294,1368.2617 1603.5513,1367.8242 Q1603.8169,1367.5586 1603.9575,1367.4805 Q1604.1138,1367.4023 1604.3169,1367.4023 Q1604.645,1367.4023 1604.895,1367.668 Q1605.1606,1367.918 1605.1606,1368.2617 Q1605.1606,1368.6055 1604.8169,1369.0117 Q1604.3169,1369.5898 1603.52,1369.918 Q1602.4419,1370.3711 1601.145,1370.3711 Q1599.6294,1370.3711 1598.4263,1369.7461 Q1597.4419,1369.2461 1596.7544,1368.1836 Q1596.0669,1367.1055 1596.0669,1365.8242 L1596.0669,1364.668 Q1596.0669,1363.3398 1596.6763,1362.1992 Q1597.3013,1361.043 1598.395,1360.4336 Q1599.4888,1359.8086 1600.7231,1359.8086 Q1601.4575,1359.8086 1602.0981,1359.9805 Q1602.7544,1360.1367 1603.3013,1360.4961 Z " fill="#000000"/><text fill="#000000" font-family="sans-serif" font-size="14" lengthAdjust="spacing" textLength="91.0273" x="1621.0356" y="1370.418">CityRepository</text><line style="stroke:#181818;stroke-width:0.5;" x1="1471" x2="1829.5986" y1="1380.6211" y2="1380.6211"/><line style="stroke:#181818;stroke-width:0.5;" x1="1471" x2="1829.5986" y1="1388.6211" y2="1388.6211"/><ellipse cx="1481" cy="1403.4316" fill="#A6A6A6" rx="3" ry="3" style="stroke:#545454;stroke-width:1.0;"/><text fill="#000000" font-family="sans-serif" font-size="14" lengthAdjust="spacing" textLength="149.3584" x="1490" y="1407.7285">saveCity(city: City): void</text><ellipse cx="1481" cy="1422.0527" fill="#A6A6A6" rx="3" ry="3" style="stroke:#545454;stroke-width:1.0;"/><text fill="#000000" font-family="sans-serif" font-size="14" lengthAdjust="spacing" textLength="334.5986" x="1490" y="1426.3496">findByNameAndMap(name: String, mapId: Long): City</text></g><!--class CityService--><g id="elem_CityService"><rect codeLine="85" fill="#F1F1F1" height="141.1055" id="CityService" rx="2.5" ry="2.5" style="stroke:#181818;stroke-width:0.5;" width="490.5361" x="694" y="1429.6211"/><ellipse cx="899.6216" cy="1445.6211" fill="#C2C2C2" rx="11" ry="11" style="stroke:#181818;stroke-width:1.0;"/><path d="M902.3872,1441.4961 Q902.5435,1441.2773 902.731,1441.168 Q902.9185,1441.0586 903.1372,1441.0586 Q903.5122,1441.0586 903.7466,1441.3242 Q903.981,1441.5742 903.981,1442.1836 L903.981,1443.6367 Q903.981,1444.2461 903.7466,1444.5117 Q903.5122,1444.7773 903.1372,1444.7773 Q902.7935,1444.7773 902.5903,1444.5742 Q902.3872,1444.3867 902.2778,1443.8711 Q902.231,1443.5117 902.0435,1443.3242 Q901.7153,1442.9492 901.106,1442.7305 Q900.4966,1442.5117 899.8716,1442.5117 Q899.106,1442.5117 898.4653,1442.8398 Q897.8403,1443.168 897.3403,1443.918 Q896.856,1444.668 896.856,1445.6992 L896.856,1446.793 Q896.856,1448.0273 897.7466,1448.8555 Q898.6372,1449.668 900.231,1449.668 Q901.1685,1449.668 901.8247,1449.418 Q902.2153,1449.2617 902.6372,1448.8242 Q902.9028,1448.5586 903.0435,1448.4805 Q903.1997,1448.4023 903.4028,1448.4023 Q903.731,1448.4023 903.981,1448.668 Q904.2466,1448.918 904.2466,1449.2617 Q904.2466,1449.6055 903.9028,1450.0117 Q903.4028,1450.5898 902.606,1450.918 Q901.5278,1451.3711 900.231,1451.3711 Q898.7153,1451.3711 897.5122,1450.7461 Q896.5278,1450.2461 895.8403,1449.1836 Q895.1528,1448.1055 895.1528,1446.8242 L895.1528,1445.668 Q895.1528,1444.3398 895.7622,1443.1992 Q896.3872,1442.043 897.481,1441.4336 Q898.5747,1440.8086 899.8091,1440.8086 Q900.5435,1440.8086 901.1841,1440.9805 Q901.8403,1441.1367 902.3872,1441.4961 Z " fill="#000000"/><text fill="#000000" font-family="sans-serif" font-size="14" lengthAdjust="spacing" textLength="70.793" x="920.1216" y="1451.418">CityService</text><line style="stroke:#181818;stroke-width:0.5;" x1="695" x2="1183.5361" y1="1461.6211" y2="1461.6211"/><rect fill="none" height="6" style="stroke:#595959;stroke-width:1.0;" width="6" x="702" y="1473.4316"/><text fill="#000000" font-family="sans-serif" font-size="14" lengthAdjust="spacing" textLength="186.7236" x="714" y="1480.7285">cityRepository: CityRepository</text><rect fill="none" height="6" style="stroke:#595959;stroke-width:1.0;" width="6" x="702" y="1492.0527"/><text fill="#000000" font-family="sans-serif" font-size="14" lengthAdjust="spacing" textLength="163.3994" x="714" y="1499.3496">cityValidator: CityValidator</text><line style="stroke:#181818;stroke-width:0.5;" x1="695" x2="1183.5361" y1="1506.8633" y2="1506.8633"/><ellipse cx="705" cy="1521.6738" fill="#A6A6A6" rx="3" ry="3" style="stroke:#545454;stroke-width:1.0;"/><text fill="#000000" font-family="sans-serif" font-size="14" lengthAdjust="spacing" textLength="464.5361" x="714" y="1525.9707">validateCityPlacement(map: Map, cityData: AddCityRequestDTO): boolean</text><ellipse cx="705" cy="1540.2949" fill="#A6A6A6" rx="3" ry="3" style="stroke:#545454;stroke-width:1.0;"/><text fill="#000000" font-family="sans-serif" font-size="14" lengthAdjust="spacing" textLength="359.4541" x="714" y="1544.5918">createCity(request: AddCityRequestDTO, map: Map): City</text><ellipse cx="705" cy="1558.916" fill="#A6A6A6" rx="3" ry="3" style="stroke:#545454;stroke-width:1.0;"/><text fill="#000000" font-family="sans-serif" font-size="14" lengthAdjust="spacing" textLength="362.6465" x="714" y="1563.2129">isNameUniqueInMap(name: String, mapId: Long): boolean</text></g><!--class CityValidator--><g id="elem_CityValidator"><rect codeLine="93" fill="#F1F1F1" height="103.8633" id="CityValidator" rx="2.5" ry="2.5" style="stroke:#181818;stroke-width:0.5;" width="355.916" x="1472.5" y="1571.1211"/><ellipse cx="1606.5254" cy="1587.1211" fill="#C2C2C2" rx="11" ry="11" style="stroke:#181818;stroke-width:1.0;"/><path d="M1609.291,1582.9961 Q1609.4473,1582.7773 1609.6348,1582.668 Q1609.8223,1582.5586 1610.041,1582.5586 Q1610.416,1582.5586 1610.6504,1582.8242 Q1610.8848,1583.0742 1610.8848,1583.6836 L1610.8848,1585.1367 Q1610.8848,1585.7461 1610.6504,1586.0117 Q1610.416,1586.2773 1610.041,1586.2773 Q1609.6973,1586.2773 1609.4941,1586.0742 Q1609.291,1585.8867 1609.1816,1585.3711 Q1609.1348,1585.0117 1608.9473,1584.8242 Q1608.6191,1584.4492 1608.0098,1584.2305 Q1607.4004,1584.0117 1606.7754,1584.0117 Q1606.0098,1584.0117 1605.3691,1584.3398 Q1604.7441,1584.668 1604.2441,1585.418 Q1603.7598,1586.168 1603.7598,1587.1992 L1603.7598,1588.293 Q1603.7598,1589.5273 1604.6504,1590.3555 Q1605.541,1591.168 1607.1348,1591.168 Q1608.0723,1591.168 1608.7285,1590.918 Q1609.1191,1590.7617 1609.541,1590.3242 Q1609.8066,1590.0586 1609.9473,1589.9805 Q1610.1035,1589.9023 1610.3066,1589.9023 Q1610.6348,1589.9023 1610.8848,1590.168 Q1611.1504,1590.418 1611.1504,1590.7617 Q1611.1504,1591.1055 1610.8066,1591.5117 Q1610.3066,1592.0898 1609.5098,1592.418 Q1608.4316,1592.8711 1607.1348,1592.8711 Q1605.6191,1592.8711 1604.416,1592.2461 Q1603.4316,1591.7461 1602.7441,1590.6836 Q1602.0566,1589.6055 1602.0566,1588.3242 L1602.0566,1587.168 Q1602.0566,1585.8398 1602.666,1584.6992 Q1603.291,1583.543 1604.3848,1582.9336 Q1605.4785,1582.3086 1606.7129,1582.3086 Q1607.4473,1582.3086 1608.0879,1582.4805 Q1608.7441,1582.6367 1609.291,1582.9961 Z " fill="#000000"/><text fill="#000000" font-family="sans-serif" font-size="14" lengthAdjust="spacing" textLength="79.3652" x="1627.0254" y="1592.918">CityValidator</text><line style="stroke:#181818;stroke-width:0.5;" x1="1473.5" x2="1827.416" y1="1603.1211" y2="1603.1211"/><line style="stroke:#181818;stroke-width:0.5;" x1="1473.5" x2="1827.416" y1="1611.1211" y2="1611.1211"/><ellipse cx="1483.5" cy="1625.9316" fill="#A6A6A6" rx="3" ry="3" style="stroke:#545454;stroke-width:1.0;"/><text fill="#000000" font-family="sans-serif" font-size="14" lengthAdjust="spacing" text-decoration="underline" textLength="224.8887" x="1492.5" y="1630.2285">isValidName(name: String): boolean</text><ellipse cx="1483.5" cy="1644.5527" fill="#A6A6A6" rx="3" ry="3" style="stroke:#545454;stroke-width:1.0;"/><text fill="#000000" font-family="sans-serif" font-size="14" lengthAdjust="spacing" text-decoration="underline" textLength="284.0469" x="1492.5" y="1648.8496">isValidHouseBlocksCount(count: int): boolean</text><ellipse cx="1483.5" cy="1663.1738" fill="#A6A6A6" rx="3" ry="3" style="stroke:#545454;stroke-width:1.0;"/><text fill="#000000" font-family="sans-serif" font-size="14" lengthAdjust="spacing" text-decoration="underline" textLength="329.916" x="1492.5" y="1667.4707">validateCityData(request: AddCityRequestDTO): void</text></g><!--class BlockPlacementStrategy--><g id="elem_BlockPlacementStrategy"><rect codeLine="99" fill="#F1F1F1" height="66.6211" id="BlockPlacementStrategy" rx="2.5" ry="2.5" style="stroke:#181818;stroke-width:0.5;" width="621.2939" x="1340" y="1468.6211"/><ellipse cx="1570.1387" cy="1484.6211" fill="#B1B1B1" rx="11" ry="11" style="stroke:#181818;stroke-width:1.0;"/><path d="M1571.0918,1481.2617 L1571.0918,1487.918 L1572.8105,1487.918 Q1573.4199,1487.918 1573.6855,1488.1523 Q1573.9512,1488.3867 1573.9512,1488.7773 Q1573.9512,1489.1523 1573.6855,1489.3867 Q1573.4199,1489.6211 1572.8105,1489.6211 L1567.6699,1489.6211 Q1567.0605,1489.6211 1566.7949,1489.3867 Q1566.5293,1489.1523 1566.5293,1488.7617 Q1566.5293,1488.3867 1566.7949,1488.1523 Q1567.0605,1487.918 1567.6699,1487.918 L1569.3887,1487.918 L1569.3887,1481.2617 L1567.6699,1481.2617 Q1567.0605,1481.2617 1566.7949,1481.0273 Q1566.5293,1480.793 1566.5293,1480.4023 Q1566.5293,1480.0273 1566.7949,1479.793 Q1567.0605,1479.5586 1567.6699,1479.5586 L1572.8105,1479.5586 Q1573.4199,1479.5586 1573.6855,1479.793 Q1573.9512,1480.0273 1573.9512,1480.4023 Q1573.9512,1480.793 1573.6855,1481.0273 Q1573.4199,1481.2617 1572.8105,1481.2617 L1571.0918,1481.2617 Z " fill="#000000"/><text fill="#000000" font-family="sans-serif" font-size="14" font-style="italic" lengthAdjust="spacing" textLength="152.5166" x="1590.6387" y="1490.418">BlockPlacementStrategy</text><line style="stroke:#181818;stroke-width:0.5;" x1="1341" x2="1960.2939" y1="1500.6211" y2="1500.6211"/><line style="stroke:#181818;stroke-width:0.5;" x1="1341" x2="1960.2939" y1="1508.6211" y2="1508.6211"/><ellipse cx="1351" cy="1523.4316" fill="#A6A6A6" rx="3" ry="3" style="stroke:#545454;stroke-width:1.0;"/><text fill="#000000" font-family="sans-serif" font-size="14" lengthAdjust="spacing" textLength="595.2939" x="1360" y="1527.7285">placeBlocks(cityLocation: Location, count: int, mapWidth: int, mapHeight: int): List&lt;HouseBlock&gt;</text></g><!--class AutomaticBlockPlacement--><g id="elem_AutomaticBlockPlacement"><rect codeLine="103" fill="#F1F1F1" height="103.8633" id="AutomaticBlockPlacement" rx="2.5" ry="2.5" style="stroke:#181818;stroke-width:0.5;" width="621.2939" x="2071" y="1385.1211"/><ellipse cx="2296.0835" cy="1401.1211" fill="#C2C2C2" rx="11" ry="11" style="stroke:#181818;stroke-width:1.0;"/><path d="M2298.8491,1396.9961 Q2299.0054,1396.7773 2299.1929,1396.668 Q2299.3804,1396.5586 2299.5991,1396.5586 Q2299.9741,1396.5586 2300.2085,1396.8242 Q2300.4429,1397.0742 2300.4429,1397.6836 L2300.4429,1399.1367 Q2300.4429,1399.7461 2300.2085,1400.0117 Q2299.9741,1400.2773 2299.5991,1400.2773 Q2299.2554,1400.2773 2299.0522,1400.0742 Q2298.8491,1399.8867 2298.7397,1399.3711 Q2298.6929,1399.0117 2298.5054,1398.8242 Q2298.1772,1398.4492 2297.5679,1398.2305 Q2296.9585,1398.0117 2296.3335,1398.0117 Q2295.5679,1398.0117 2294.9272,1398.3398 Q2294.3022,1398.668 2293.8022,1399.418 Q2293.3179,1400.168 2293.3179,1401.1992 L2293.3179,1402.293 Q2293.3179,1403.5273 2294.2085,1404.3555 Q2295.0991,1405.168 2296.6929,1405.168 Q2297.6304,1405.168 2298.2866,1404.918 Q2298.6772,1404.7617 2299.0991,1404.3242 Q2299.3647,1404.0586 2299.5054,1403.9805 Q2299.6616,1403.9023 2299.8647,1403.9023 Q2300.1929,1403.9023 2300.4429,1404.168 Q2300.7085,1404.418 2300.7085,1404.7617 Q2300.7085,1405.1055 2300.3647,1405.5117 Q2299.8647,1406.0898 2299.0679,1406.418 Q2297.9897,1406.8711 2296.6929,1406.8711 Q2295.1772,1406.8711 2293.9741,1406.2461 Q2292.9897,1405.7461 2292.3022,1404.6836 Q2291.6147,1403.6055 2291.6147,1402.3242 L2291.6147,1401.168 Q2291.6147,1399.8398 2292.2241,1398.6992 Q2292.8491,1397.543 2293.9429,1396.9336 Q2295.0366,1396.3086 2296.271,1396.3086 Q2297.0054,1396.3086 2297.646,1396.4805 Q2298.3022,1396.6367 2298.8491,1396.9961 Z " fill="#000000"/><text fill="#000000" font-family="sans-serif" font-size="14" lengthAdjust="spacing" textLength="162.627" x="2316.5835" y="1406.918">AutomaticBlockPlacement</text><line style="stroke:#181818;stroke-width:0.5;" x1="2072" x2="2691.2939" y1="1417.1211" y2="1417.1211"/><rect fill="none" height="6" style="stroke:#595959;stroke-width:1.0;" width="6" x="2079" y="1428.9316"/><text fill="#000000" font-family="sans-serif" font-size="14" lengthAdjust="spacing" textLength="108.165" x="2091" y="1436.2285">random: Random</text><line style="stroke:#181818;stroke-width:0.5;" x1="2072" x2="2691.2939" y1="1443.7422" y2="1443.7422"/><ellipse cx="2082" cy="1458.5527" fill="#A6A6A6" rx="3" ry="3" style="stroke:#545454;stroke-width:1.0;"/><text fill="#000000" font-family="sans-serif" font-size="14" lengthAdjust="spacing" textLength="595.2939" x="2091" y="1462.8496">placeBlocks(cityLocation: Location, count: int, mapWidth: int, mapHeight: int): List&lt;HouseBlock&gt;</text><rect fill="#808080" height="6" style="stroke:#595959;stroke-width:1.0;" width="6" x="2079" y="1474.1738"/><text fill="#000000" font-family="sans-serif" font-size="14" lengthAdjust="spacing" textLength="584.4111" x="2091" y="1481.4707">generateNormalDistributionLocation(center: Location, mapWidth: int, mapHeight: int): Location</text></g><!--class ManualBlockPlacement--><g id="elem_ManualBlockPlacement"><rect codeLine="109" fill="#F1F1F1" height="85.2422" id="ManualBlockPlacement" rx="2.5" ry="2.5" style="stroke:#181818;stroke-width:0.5;" width="621.2939" x="2071" y="1524.6211"/><ellipse cx="2304.249" cy="1540.6211" fill="#C2C2C2" rx="11" ry="11" style="stroke:#181818;stroke-width:1.0;"/><path d="M2307.0146,1536.4961 Q2307.1709,1536.2773 2307.3584,1536.168 Q2307.5459,1536.0586 2307.7646,1536.0586 Q2308.1396,1536.0586 2308.374,1536.3242 Q2308.6084,1536.5742 2308.6084,1537.1836 L2308.6084,1538.6367 Q2308.6084,1539.2461 2308.374,1539.5117 Q2308.1396,1539.7773 2307.7646,1539.7773 Q2307.4209,1539.7773 2307.2178,1539.5742 Q2307.0146,1539.3867 2306.9053,1538.8711 Q2306.8584,1538.5117 2306.6709,1538.3242 Q2306.3428,1537.9492 2305.7334,1537.7305 Q2305.124,1537.5117 2304.499,1537.5117 Q2303.7334,1537.5117 2303.0928,1537.8398 Q2302.4678,1538.168 2301.9678,1538.918 Q2301.4834,1539.668 2301.4834,1540.6992 L2301.4834,1541.793 Q2301.4834,1543.0273 2302.374,1543.8555 Q2303.2646,1544.668 2304.8584,1544.668 Q2305.7959,1544.668 2306.4521,1544.418 Q2306.8428,1544.2617 2307.2646,1543.8242 Q2307.5303,1543.5586 2307.6709,1543.4805 Q2307.8271,1543.4023 2308.0303,1543.4023 Q2308.3584,1543.4023 2308.6084,1543.668 Q2308.874,1543.918 2308.874,1544.2617 Q2308.874,1544.6055 2308.5303,1545.0117 Q2308.0303,1545.5898 2307.2334,1545.918 Q2306.1553,1546.3711 2304.8584,1546.3711 Q2303.3428,1546.3711 2302.1396,1545.7461 Q2301.1553,1545.2461 2300.4678,1544.1836 Q2299.7803,1543.1055 2299.7803,1541.8242 L2299.7803,1540.668 Q2299.7803,1539.3398 2300.3896,1538.1992 Q2301.0146,1537.043 2302.1084,1536.4336 Q2303.2021,1535.8086 2304.4365,1535.8086 Q2305.1709,1535.8086 2305.8115,1535.9805 Q2306.4678,1536.1367 2307.0146,1536.4961 Z " fill="#000000"/><text fill="#000000" font-family="sans-serif" font-size="14" lengthAdjust="spacing" textLength="146.2959" x="2324.749" y="1546.418">ManualBlockPlacement</text><line style="stroke:#181818;stroke-width:0.5;" x1="2072" x2="2691.2939" y1="1556.6211" y2="1556.6211"/><rect fill="none" height="6" style="stroke:#595959;stroke-width:1.0;" width="6" x="2079" y="1568.4316"/><text fill="#000000" font-family="sans-serif" font-size="14" lengthAdjust="spacing" textLength="191.4609" x="2091" y="1575.7285">blockLocations: List&lt;Location&gt;</text><line style="stroke:#181818;stroke-width:0.5;" x1="2072" x2="2691.2939" y1="1583.2422" y2="1583.2422"/><ellipse cx="2082" cy="1598.0527" fill="#A6A6A6" rx="3" ry="3" style="stroke:#545454;stroke-width:1.0;"/><text fill="#000000" font-family="sans-serif" font-size="14" lengthAdjust="spacing" textLength="595.2939" x="2091" y="1602.3496">placeBlocks(cityLocation: Location, count: int, mapWidth: int, mapHeight: int): List&lt;HouseBlock&gt;</text></g><!--class GameRepository--><g id="elem_GameRepository"><rect codeLine="114" fill="#F1F1F1" height="66.6211" id="GameRepository" rx="2.5" ry="2.5" style="stroke:#181818;stroke-width:0.5;" width="250.8682" x="814" y="1250.6211"/><ellipse cx="882.6636" cy="1266.6211" fill="#C2C2C2" rx="11" ry="11" style="stroke:#181818;stroke-width:1.0;"/><path d="M885.4292,1262.4961 Q885.5854,1262.2773 885.7729,1262.168 Q885.9604,1262.0586 886.1792,1262.0586 Q886.5542,1262.0586 886.7886,1262.3242 Q887.0229,1262.5742 887.0229,1263.1836 L887.0229,1264.6367 Q887.0229,1265.2461 886.7886,1265.5117 Q886.5542,1265.7773 886.1792,1265.7773 Q885.8354,1265.7773 885.6323,1265.5742 Q885.4292,1265.3867 885.3198,1264.8711 Q885.2729,1264.5117 885.0854,1264.3242 Q884.7573,1263.9492 884.1479,1263.7305 Q883.5386,1263.5117 882.9136,1263.5117 Q882.1479,1263.5117 881.5073,1263.8398 Q880.8823,1264.168 880.3823,1264.918 Q879.8979,1265.668 879.8979,1266.6992 L879.8979,1267.793 Q879.8979,1269.0273 880.7886,1269.8555 Q881.6792,1270.668 883.2729,1270.668 Q884.2104,1270.668 884.8667,1270.418 Q885.2573,1270.2617 885.6792,1269.8242 Q885.9448,1269.5586 886.0854,1269.4805 Q886.2417,1269.4023 886.4448,1269.4023 Q886.7729,1269.4023 887.0229,1269.668 Q887.2886,1269.918 887.2886,1270.2617 Q887.2886,1270.6055 886.9448,1271.0117 Q886.4448,1271.5898 885.6479,1271.918 Q884.5698,1272.3711 883.2729,1272.3711 Q881.7573,1272.3711 880.5542,1271.7461 Q879.5698,1271.2461 878.8823,1270.1836 Q878.1948,1269.1055 878.1948,1267.8242 L878.1948,1266.668 Q878.1948,1265.3398 878.8042,1264.1992 Q879.4292,1263.043 880.5229,1262.4336 Q881.6167,1261.8086 882.8511,1261.8086 Q883.5854,1261.8086 884.2261,1261.9805 Q884.8823,1262.1367 885.4292,1262.4961 Z " fill="#000000"/><text fill="#000000" font-family="sans-serif" font-size="14" lengthAdjust="spacing" textLength="105.041" x="903.1636" y="1272.418">GameRepository</text><line style="stroke:#181818;stroke-width:0.5;" x1="815" x2="1063.8682" y1="1282.6211" y2="1282.6211"/><line style="stroke:#181818;stroke-width:0.5;" x1="815" x2="1063.8682" y1="1290.6211" y2="1290.6211"/><ellipse cx="825" cy="1305.4316" fill="#A6A6A6" rx="3" ry="3" style="stroke:#545454;stroke-width:1.0;"/><text fill="#000000" font-family="sans-serif" font-size="14" lengthAdjust="spacing" textLength="224.8682" x="834" y="1309.7285">getMapRepository(): MapRepository</text></g><!--class AuthenticationService--><g id="elem_AuthenticationService"><rect codeLine="118" fill="#F1F1F1" height="66.6211" id="AuthenticationService" rx="2.5" ry="2.5" style="stroke:#181818;stroke-width:0.5;" width="267.9785" x="805.5" y="629.6211"/><ellipse cx="867.5327" cy="645.6211" fill="#C2C2C2" rx="11" ry="11" style="stroke:#181818;stroke-width:1.0;"/><path d="M870.2983,641.4961 Q870.4546,641.2773 870.6421,641.168 Q870.8296,641.0586 871.0483,641.0586 Q871.4233,641.0586 871.6577,641.3242 Q871.8921,641.5742 871.8921,642.1836 L871.8921,643.6367 Q871.8921,644.2461 871.6577,644.5117 Q871.4233,644.7773 871.0483,644.7773 Q870.7046,644.7773 870.5015,644.5742 Q870.2983,644.3867 870.189,643.8711 Q870.1421,643.5117 869.9546,643.3242 Q869.6265,642.9492 869.0171,642.7305 Q868.4077,642.5117 867.7827,642.5117 Q867.0171,642.5117 866.3765,642.8398 Q865.7515,643.168 865.2515,643.918 Q864.7671,644.668 864.7671,645.6992 L864.7671,646.793 Q864.7671,648.0273 865.6577,648.8555 Q866.5483,649.668 868.1421,649.668 Q869.0796,649.668 869.7358,649.418 Q870.1265,649.2617 870.5483,648.8242 Q870.814,648.5586 870.9546,648.4805 Q871.1108,648.4023 871.314,648.4023 Q871.6421,648.4023 871.8921,648.668 Q872.1577,648.918 872.1577,649.2617 Q872.1577,649.6055 871.814,650.0117 Q871.314,650.5898 870.5171,650.918 Q869.439,651.3711 868.1421,651.3711 Q866.6265,651.3711 865.4233,650.7461 Q864.439,650.2461 863.7515,649.1836 Q863.064,648.1055 863.064,646.8242 L863.064,645.668 Q863.064,644.3398 863.6733,643.1992 Q864.2983,642.043 865.3921,641.4336 Q866.4858,640.8086 867.7202,640.8086 Q868.4546,640.8086 869.0952,640.9805 Q869.7515,641.1367 870.2983,641.4961 Z " fill="#000000"/><text fill="#000000" font-family="sans-serif" font-size="14" lengthAdjust="spacing" textLength="135.4131" x="888.0327" y="651.418">AuthenticationService</text><line style="stroke:#181818;stroke-width:0.5;" x1="806.5" x2="1072.4785" y1="661.6211" y2="661.6211"/><line style="stroke:#181818;stroke-width:0.5;" x1="806.5" x2="1072.4785" y1="669.6211" y2="669.6211"/><ellipse cx="816.5" cy="684.4316" fill="#A6A6A6" rx="3" ry="3" style="stroke:#545454;stroke-width:1.0;"/><text fill="#000000" font-family="sans-serif" font-size="14" lengthAdjust="spacing" textLength="241.9785" x="825.5" y="688.7285">getCurrentUserSession(): UserSession</text></g><!--class UserSession--><g id="elem_UserSession"><rect codeLine="122" fill="#F1F1F1" height="66.6211" id="UserSession" rx="2.5" ry="2.5" style="stroke:#181818;stroke-width:0.5;" width="202.627" x="838" y="731.6211"/><ellipse cx="895.3809" cy="747.6211" fill="#C2C2C2" rx="11" ry="11" style="stroke:#181818;stroke-width:1.0;"/><path d="M898.1465,743.4961 Q898.3027,743.2773 898.4902,743.168 Q898.6777,743.0586 898.8965,743.0586 Q899.2715,743.0586 899.5059,743.3242 Q899.7402,743.5742 899.7402,744.1836 L899.7402,745.6367 Q899.7402,746.2461 899.5059,746.5117 Q899.2715,746.7773 898.8965,746.7773 Q898.5527,746.7773 898.3496,746.5742 Q898.1465,746.3867 898.0371,745.8711 Q897.9902,745.5117 897.8027,745.3242 Q897.4746,744.9492 896.8652,744.7305 Q896.2559,744.5117 895.6309,744.5117 Q894.8652,744.5117 894.2246,744.8398 Q893.5996,745.168 893.0996,745.918 Q892.6152,746.668 892.6152,747.6992 L892.6152,748.793 Q892.6152,750.0273 893.5059,750.8555 Q894.3965,751.668 895.9902,751.668 Q896.9277,751.668 897.584,751.418 Q897.9746,751.2617 898.3965,750.8242 Q898.6621,750.5586 898.8027,750.4805 Q898.959,750.4023 899.1621,750.4023 Q899.4902,750.4023 899.7402,750.668 Q900.0059,750.918 900.0059,751.2617 Q900.0059,751.6055 899.6621,752.0117 Q899.1621,752.5898 898.3652,752.918 Q897.2871,753.3711 895.9902,753.3711 Q894.4746,753.3711 893.2715,752.7461 Q892.2871,752.2461 891.5996,751.1836 Q890.9121,750.1055 890.9121,748.8242 L890.9121,747.668 Q890.9121,746.3398 891.5215,745.1992 Q892.1465,744.043 893.2402,743.4336 Q894.334,742.8086 895.5684,742.8086 Q896.3027,742.8086 896.9434,742.9805 Q897.5996,743.1367 898.1465,743.4961 Z " fill="#000000"/><text fill="#000000" font-family="sans-serif" font-size="14" lengthAdjust="spacing" textLength="79.3652" x="915.8809" y="753.418">UserSession</text><line style="stroke:#181818;stroke-width:0.5;" x1="839" x2="1039.627" y1="763.6211" y2="763.6211"/><line style="stroke:#181818;stroke-width:0.5;" x1="839" x2="1039.627" y1="771.6211" y2="771.6211"/><ellipse cx="849" cy="786.4316" fill="#A6A6A6" rx="3" ry="3" style="stroke:#545454;stroke-width:1.0;"/><text fill="#000000" font-family="sans-serif" font-size="14" lengthAdjust="spacing" textLength="176.627" x="858" y="790.7285">getUserRoles(): List&lt;String&gt;</text></g><!--class Map--><g id="elem_Map"><rect codeLine="126" fill="#F1F1F1" height="234.2109" id="Map" rx="2.5" ry="2.5" style="stroke:#181818;stroke-width:0.5;" width="296.0674" x="1502.5" y="399.1211"/><ellipse cx="1632.6665" cy="415.1211" fill="#C2C2C2" rx="11" ry="11" style="stroke:#181818;stroke-width:1.0;"/><path d="M1635.4321,410.9961 Q1635.5884,410.7773 1635.7759,410.668 Q1635.9634,410.5586 1636.1821,410.5586 Q1636.5571,410.5586 1636.7915,410.8242 Q1637.0259,411.0742 1637.0259,411.6836 L1637.0259,413.1367 Q1637.0259,413.7461 1636.7915,414.0117 Q1636.5571,414.2773 1636.1821,414.2773 Q1635.8384,414.2773 1635.6353,414.0742 Q1635.4321,413.8867 1635.3228,413.3711 Q1635.2759,413.0117 1635.0884,412.8242 Q1634.7603,412.4492 1634.1509,412.2305 Q1633.5415,412.0117 1632.9165,412.0117 Q1632.1509,412.0117 1631.5103,412.3398 Q1630.8853,412.668 1630.3853,413.418 Q1629.9009,414.168 1629.9009,415.1992 L1629.9009,416.293 Q1629.9009,417.5273 1630.7915,418.3555 Q1631.6821,419.168 1633.2759,419.168 Q1634.2134,419.168 1634.8696,418.918 Q1635.2603,418.7617 1635.6821,418.3242 Q1635.9478,418.0586 1636.0884,417.9805 Q1636.2446,417.9023 1636.4478,417.9023 Q1636.7759,417.9023 1637.0259,418.168 Q1637.2915,418.418 1637.2915,418.7617 Q1637.2915,419.1055 1636.9478,419.5117 Q1636.4478,420.0898 1635.6509,420.418 Q1634.5728,420.8711 1633.2759,420.8711 Q1631.7603,420.8711 1630.5571,420.2461 Q1629.5728,419.7461 1628.8853,418.6836 Q1628.1978,417.6055 1628.1978,416.3242 L1628.1978,415.168 Q1628.1978,413.8398 1628.8071,412.6992 Q1629.4321,411.543 1630.5259,410.9336 Q1631.6196,410.3086 1632.854,410.3086 Q1633.5884,410.3086 1634.229,410.4805 Q1634.8853,410.6367 1635.4321,410.9961 Z " fill="#000000"/><text fill="#000000" font-family="sans-serif" font-size="14" lengthAdjust="spacing" textLength="27.2344" x="1653.1665" y="420.918">Map</text><line style="stroke:#181818;stroke-width:0.5;" x1="1503.5" x2="1797.5674" y1="431.1211" y2="431.1211"/><rect fill="none" height="6" style="stroke:#595959;stroke-width:1.0;" width="6" x="1510.5" y="442.9316"/><text fill="#000000" font-family="sans-serif" font-size="14" lengthAdjust="spacing" textLength="49.8203" x="1522.5" y="450.2285">id: Long</text><rect fill="none" height="6" style="stroke:#595959;stroke-width:1.0;" width="6" x="1510.5" y="461.5527"/><text fill="#000000" font-family="sans-serif" font-size="14" lengthAdjust="spacing" textLength="79.3721" x="1522.5" y="468.8496">name: String</text><rect fill="none" height="6" style="stroke:#595959;stroke-width:1.0;" width="6" x="1510.5" y="480.1738"/><text fill="#000000" font-family="sans-serif" font-size="14" lengthAdjust="spacing" textLength="55.248" x="1522.5" y="487.4707">width: int</text><rect fill="none" height="6" style="stroke:#595959;stroke-width:1.0;" width="6" x="1510.5" y="498.7949"/><text fill="#000000" font-family="sans-serif" font-size="14" lengthAdjust="spacing" textLength="60.71" x="1522.5" y="506.0918">height: int</text><rect fill="none" height="6" style="stroke:#595959;stroke-width:1.0;" width="6" x="1510.5" y="517.416"/><text fill="#000000" font-family="sans-serif" font-size="14" lengthAdjust="spacing" textLength="101.9238" x="1522.5" y="524.7129">cities: List&lt;City&gt;</text><rect fill="none" height="6" style="stroke:#595959;stroke-width:1.0;" width="6" x="1510.5" y="536.0371"/><text fill="#000000" font-family="sans-serif" font-size="14" lengthAdjust="spacing" textLength="155.6338" x="1522.5" y="543.334">industries: List&lt;Industry&gt;</text><line style="stroke:#181818;stroke-width:0.5;" x1="1503.5" x2="1797.5674" y1="550.8477" y2="550.8477"/><ellipse cx="1513.5" cy="565.6582" fill="#A6A6A6" rx="3" ry="3" style="stroke:#545454;stroke-width:1.0;"/><text fill="#000000" font-family="sans-serif" font-size="14" lengthAdjust="spacing" textLength="167.2891" x="1522.5" y="569.9551">addCity(city: City): boolean</text><ellipse cx="1513.5" cy="584.2793" fill="#A6A6A6" rx="3" ry="3" style="stroke:#545454;stroke-width:1.0;"/><text fill="#000000" font-family="sans-serif" font-size="14" lengthAdjust="spacing" textLength="270.0674" x="1522.5" y="588.5762">isValidLocation(location: Location): boolean</text><ellipse cx="1513.5" cy="602.9004" fill="#A6A6A6" rx="3" ry="3" style="stroke:#545454;stroke-width:1.0;"/><text fill="#000000" font-family="sans-serif" font-size="14" lengthAdjust="spacing" textLength="263.0537" x="1522.5" y="607.1973">hasElementAt(location: Location): boolean</text><ellipse cx="1513.5" cy="621.5215" fill="#A6A6A6" rx="3" ry="3" style="stroke:#545454;stroke-width:1.0;"/><text fill="#000000" font-family="sans-serif" font-size="14" lengthAdjust="spacing" textLength="179.7305" x="1522.5" y="625.8184">getCityNames(): List&lt;String&gt;</text></g><!--class City--><g id="elem_City"><rect codeLine="139" fill="#F1F1F1" height="252.832" id="City" rx="2.5" ry="2.5" style="stroke:#181818;stroke-width:0.5;" width="334.1504" x="2214.5" y="749.6211"/><ellipse cx="2365.27" cy="765.6211" fill="#C2C2C2" rx="11" ry="11" style="stroke:#181818;stroke-width:1.0;"/><path d="M2368.0356,761.4961 Q2368.1919,761.2773 2368.3794,761.168 Q2368.5669,761.0586 2368.7856,761.0586 Q2369.1606,761.0586 2369.395,761.3242 Q2369.6294,761.5742 2369.6294,762.1836 L2369.6294,763.6367 Q2369.6294,764.2461 2369.395,764.5117 Q2369.1606,764.7773 2368.7856,764.7773 Q2368.4419,764.7773 2368.2388,764.5742 Q2368.0356,764.3867 2367.9263,763.8711 Q2367.8794,763.5117 2367.6919,763.3242 Q2367.3638,762.9492 2366.7544,762.7305 Q2366.145,762.5117 2365.52,762.5117 Q2364.7544,762.5117 2364.1138,762.8398 Q2363.4888,763.168 2362.9888,763.918 Q2362.5044,764.668 2362.5044,765.6992 L2362.5044,766.793 Q2362.5044,768.0273 2363.395,768.8555 Q2364.2856,769.668 2365.8794,769.668 Q2366.8169,769.668 2367.4731,769.418 Q2367.8638,769.2617 2368.2856,768.8242 Q2368.5513,768.5586 2368.6919,768.4805 Q2368.8481,768.4023 2369.0513,768.4023 Q2369.3794,768.4023 2369.6294,768.668 Q2369.895,768.918 2369.895,769.2617 Q2369.895,769.6055 2369.5513,770.0117 Q2369.0513,770.5898 2368.2544,770.918 Q2367.1763,771.3711 2365.8794,771.3711 Q2364.3638,771.3711 2363.1606,770.7461 Q2362.1763,770.2461 2361.4888,769.1836 Q2360.8013,768.1055 2360.8013,766.8242 L2360.8013,765.668 Q2360.8013,764.3398 2361.4106,763.1992 Q2362.0356,762.043 2363.1294,761.4336 Q2364.2231,760.8086 2365.4575,760.8086 Q2366.1919,760.8086 2366.8325,760.9805 Q2367.4888,761.1367 2368.0356,761.4961 Z " fill="#000000"/><text fill="#000000" font-family="sans-serif" font-size="14" lengthAdjust="spacing" textLength="24.1104" x="2385.77" y="771.418">City</text><line style="stroke:#181818;stroke-width:0.5;" x1="2215.5" x2="2547.6504" y1="781.6211" y2="781.6211"/><rect fill="none" height="6" style="stroke:#595959;stroke-width:1.0;" width="6" x="2222.5" y="793.4316"/><text fill="#000000" font-family="sans-serif" font-size="14" lengthAdjust="spacing" textLength="49.8203" x="2234.5" y="800.7285">id: Long</text><rect fill="none" height="6" style="stroke:#595959;stroke-width:1.0;" width="6" x="2222.5" y="812.0527"/><text fill="#000000" font-family="sans-serif" font-size="14" lengthAdjust="spacing" textLength="79.3721" x="2234.5" y="819.3496">name: String</text><rect fill="none" height="6" style="stroke:#595959;stroke-width:1.0;" width="6" x="2222.5" y="830.6738"/><text fill="#000000" font-family="sans-serif" font-size="14" lengthAdjust="spacing" textLength="108.9648" x="2234.5" y="837.9707">location: Location</text><rect fill="none" height="6" style="stroke:#595959;stroke-width:1.0;" width="6" x="2222.5" y="849.2949"/><text fill="#000000" font-family="sans-serif" font-size="14" lengthAdjust="spacing" textLength="199.999" x="2234.5" y="856.5918">houseBlocks: List&lt;HouseBlock&gt;</text><line style="stroke:#181818;stroke-width:0.5;" x1="2215.5" x2="2547.6504" y1="864.1055" y2="864.1055"/><ellipse cx="2225.5" cy="878.916" fill="#A6A6A6" rx="3" ry="3" style="stroke:#545454;stroke-width:1.0;"/><text fill="#000000" font-family="sans-serif" font-size="14" lengthAdjust="spacing" textLength="110.4824" x="2234.5" y="883.2129">getName(): String</text><ellipse cx="2225.5" cy="897.5371" fill="#A6A6A6" rx="3" ry="3" style="stroke:#545454;stroke-width:1.0;"/><text fill="#000000" font-family="sans-serif" font-size="14" lengthAdjust="spacing" textLength="142.4268" x="2234.5" y="901.834">getLocation(): Location</text><ellipse cx="2225.5" cy="916.1582" fill="#A6A6A6" rx="3" ry="3" style="stroke:#545454;stroke-width:1.0;"/><text fill="#000000" font-family="sans-serif" font-size="14" lengthAdjust="spacing" textLength="256.0127" x="2234.5" y="920.4551">addHouseBlock(block: HouseBlock): void</text><ellipse cx="2225.5" cy="934.7793" fill="#A6A6A6" rx="3" ry="3" style="stroke:#545454;stroke-width:1.0;"/><text fill="#000000" font-family="sans-serif" font-size="14" lengthAdjust="spacing" textLength="308.1504" x="2234.5" y="939.0762">addHouseBlocks(blocks: List&lt;HouseBlock&gt;): void</text><ellipse cx="2225.5" cy="953.4004" fill="#A6A6A6" rx="3" ry="3" style="stroke:#545454;stroke-width:1.0;"/><text fill="#000000" font-family="sans-serif" font-size="14" lengthAdjust="spacing" textLength="231.1094" x="2234.5" y="957.6973">getHouseBlocks(): List&lt;HouseBlock&gt;</text><ellipse cx="2225.5" cy="972.0215" fill="#A6A6A6" rx="3" ry="3" style="stroke:#545454;stroke-width:1.0;"/><text fill="#000000" font-family="sans-serif" font-size="14" lengthAdjust="spacing" textLength="117.5166" x="2234.5" y="976.3184">getPopulation(): int</text><ellipse cx="2225.5" cy="990.6426" fill="#A6A6A6" rx="3" ry="3" style="stroke:#545454;stroke-width:1.0;"/><text fill="#000000" font-family="sans-serif" font-size="14" lengthAdjust="spacing" textLength="144.7578" x="2234.5" y="994.9395">validateData(): boolean</text></g><!--class HouseBlock--><g id="elem_HouseBlock"><rect codeLine="153" fill="#F1F1F1" height="141.1055" id="HouseBlock" rx="2.5" ry="2.5" style="stroke:#181818;stroke-width:0.5;" width="179.3232" x="2802" y="805.6211"/><ellipse cx="2850.0601" cy="821.6211" fill="#C2C2C2" rx="11" ry="11" style="stroke:#181818;stroke-width:1.0;"/><path d="M2852.8257,817.4961 Q2852.9819,817.2773 2853.1694,817.168 Q2853.3569,817.0586 2853.5757,817.0586 Q2853.9507,817.0586 2854.1851,817.3242 Q2854.4194,817.5742 2854.4194,818.1836 L2854.4194,819.6367 Q2854.4194,820.2461 2854.1851,820.5117 Q2853.9507,820.7773 2853.5757,820.7773 Q2853.2319,820.7773 2853.0288,820.5742 Q2852.8257,820.3867 2852.7163,819.8711 Q2852.6694,819.5117 2852.4819,819.3242 Q2852.1538,818.9492 2851.5444,818.7305 Q2850.9351,818.5117 2850.3101,818.5117 Q2849.5444,818.5117 2848.9038,818.8398 Q2848.2788,819.168 2847.7788,819.918 Q2847.2944,820.668 2847.2944,821.6992 L2847.2944,822.793 Q2847.2944,824.0273 2848.1851,824.8555 Q2849.0757,825.668 2850.6694,825.668 Q2851.6069,825.668 2852.2632,825.418 Q2852.6538,825.2617 2853.0757,824.8242 Q2853.3413,824.5586 2853.4819,824.4805 Q2853.6382,824.4023 2853.8413,824.4023 Q2854.1694,824.4023 2854.4194,824.668 Q2854.6851,824.918 2854.6851,825.2617 Q2854.6851,825.6055 2854.3413,826.0117 Q2853.8413,826.5898 2853.0444,826.918 Q2851.9663,827.3711 2850.6694,827.3711 Q2849.1538,827.3711 2847.9507,826.7461 Q2846.9663,826.2461 2846.2788,825.1836 Q2845.5913,824.1055 2845.5913,822.8242 L2845.5913,821.668 Q2845.5913,820.3398 2846.2007,819.1992 Q2846.8257,818.043 2847.9194,817.4336 Q2849.0132,816.8086 2850.2476,816.8086 Q2850.9819,816.8086 2851.6226,816.9805 Q2852.2788,817.1367 2852.8257,817.4961 Z " fill="#000000"/><text fill="#000000" font-family="sans-serif" font-size="14" lengthAdjust="spacing" textLength="74.7031" x="2870.5601" y="827.418">HouseBlock</text><line style="stroke:#181818;stroke-width:0.5;" x1="2803" x2="2980.3232" y1="837.6211" y2="837.6211"/><rect fill="none" height="6" style="stroke:#595959;stroke-width:1.0;" width="6" x="2810" y="849.4316"/><text fill="#000000" font-family="sans-serif" font-size="14" lengthAdjust="spacing" textLength="49.8203" x="2822" y="856.7285">id: Long</text><rect fill="none" height="6" style="stroke:#595959;stroke-width:1.0;" width="6" x="2810" y="868.0527"/><text fill="#000000" font-family="sans-serif" font-size="14" lengthAdjust="spacing" textLength="108.9648" x="2822" y="875.3496">location: Location</text><rect fill="none" height="6" style="stroke:#595959;stroke-width:1.0;" width="6" x="2810" y="886.6738"/><text fill="#000000" font-family="sans-serif" font-size="14" lengthAdjust="spacing" textLength="122.9854" x="2822" y="893.9707">populationValue: int</text><line style="stroke:#181818;stroke-width:0.5;" x1="2803" x2="2980.3232" y1="901.4844" y2="901.4844"/><ellipse cx="2813" cy="916.2949" fill="#A6A6A6" rx="3" ry="3" style="stroke:#545454;stroke-width:1.0;"/><text fill="#000000" font-family="sans-serif" font-size="14" lengthAdjust="spacing" textLength="142.4268" x="2822" y="920.5918">getLocation(): Location</text><ellipse cx="2813" cy="934.916" fill="#A6A6A6" rx="3" ry="3" style="stroke:#545454;stroke-width:1.0;"/><text fill="#000000" font-family="sans-serif" font-size="14" lengthAdjust="spacing" textLength="153.3232" x="2822" y="939.2129">getPopulationValue(): int</text></g><!--class Location--><g id="elem_Location"><rect codeLine="161" fill="#F1F1F1" height="159.7266" id="Location" rx="2.5" ry="2.5" style="stroke:#181818;stroke-width:0.5;" width="313.1572" x="3112" y="921.1211"/><ellipse cx="3237.8633" cy="937.1211" fill="#C2C2C2" rx="11" ry="11" style="stroke:#181818;stroke-width:1.0;"/><path d="M3240.6289,932.9961 Q3240.7852,932.7773 3240.9727,932.668 Q3241.1602,932.5586 3241.3789,932.5586 Q3241.7539,932.5586 3241.9883,932.8242 Q3242.2227,933.0742 3242.2227,933.6836 L3242.2227,935.1367 Q3242.2227,935.7461 3241.9883,936.0117 Q3241.7539,936.2773 3241.3789,936.2773 Q3241.0352,936.2773 3240.832,936.0742 Q3240.6289,935.8867 3240.5195,935.3711 Q3240.4727,935.0117 3240.2852,934.8242 Q3239.957,934.4492 3239.3477,934.2305 Q3238.7383,934.0117 3238.1133,934.0117 Q3237.3477,934.0117 3236.707,934.3398 Q3236.082,934.668 3235.582,935.418 Q3235.0977,936.168 3235.0977,937.1992 L3235.0977,938.293 Q3235.0977,939.5273 3235.9883,940.3555 Q3236.8789,941.168 3238.4727,941.168 Q3239.4102,941.168 3240.0664,940.918 Q3240.457,940.7617 3240.8789,940.3242 Q3241.1445,940.0586 3241.2852,939.9805 Q3241.4414,939.9023 3241.6445,939.9023 Q3241.9727,939.9023 3242.2227,940.168 Q3242.4883,940.418 3242.4883,940.7617 Q3242.4883,941.1055 3242.1445,941.5117 Q3241.6445,942.0898 3240.8477,942.418 Q3239.7695,942.8711 3238.4727,942.8711 Q3236.957,942.8711 3235.7539,942.2461 Q3234.7695,941.7461 3234.082,940.6836 Q3233.3945,939.6055 3233.3945,938.3242 L3233.3945,937.168 Q3233.3945,935.8398 3234.0039,934.6992 Q3234.6289,933.543 3235.7227,932.9336 Q3236.8164,932.3086 3238.0508,932.3086 Q3238.7852,932.3086 3239.4258,932.4805 Q3240.082,932.6367 3240.6289,932.9961 Z " fill="#000000"/><text fill="#000000" font-family="sans-serif" font-size="14" lengthAdjust="spacing" textLength="52.9307" x="3258.3633" y="942.918">Location</text><line style="stroke:#181818;stroke-width:0.5;" x1="3113" x2="3424.1572" y1="953.1211" y2="953.1211"/><rect fill="none" height="6" style="stroke:#595959;stroke-width:1.0;" width="6" x="3120" y="964.9316"/><text fill="#000000" font-family="sans-serif" font-size="14" lengthAdjust="spacing" textLength="29.5654" x="3132" y="972.2285">x: int</text><rect fill="none" height="6" style="stroke:#595959;stroke-width:1.0;" width="6" x="3120" y="983.5527"/><text fill="#000000" font-family="sans-serif" font-size="14" lengthAdjust="spacing" textLength="29.5654" x="3132" y="990.8496">y: int</text><line style="stroke:#181818;stroke-width:0.5;" x1="3113" x2="3424.1572" y1="998.3633" y2="998.3633"/><ellipse cx="3123" cy="1013.1738" fill="#A6A6A6" rx="3" ry="3" style="stroke:#545454;stroke-width:1.0;"/><text fill="#000000" font-family="sans-serif" font-size="14" lengthAdjust="spacing" textLength="60.6895" x="3132" y="1017.4707">getX(): int</text><ellipse cx="3123" cy="1031.7949" fill="#A6A6A6" rx="3" ry="3" style="stroke:#545454;stroke-width:1.0;"/><text fill="#000000" font-family="sans-serif" font-size="14" lengthAdjust="spacing" textLength="60.6895" x="3132" y="1036.0918">getY(): int</text><ellipse cx="3123" cy="1050.416" fill="#A6A6A6" rx="3" ry="3" style="stroke:#545454;stroke-width:1.0;"/><text fill="#000000" font-family="sans-serif" font-size="14" lengthAdjust="spacing" textLength="287.1572" x="3132" y="1054.7129">isWithinBounds(width: int, height: int): boolean</text><ellipse cx="3123" cy="1069.0371" fill="#A6A6A6" rx="3" ry="3" style="stroke:#545454;stroke-width:1.0;"/><text fill="#000000" font-family="sans-serif" font-size="14" lengthAdjust="spacing" textLength="220.2471" x="3132" y="1073.334">distanceTo(other: Location): double</text></g><!--class Editor--><g id="elem_Editor"><rect codeLine="170" fill="#F1F1F1" height="103.8633" id="Editor" rx="2.5" ry="2.5" style="stroke:#181818;stroke-width:0.5;" width="105.3721" x="1598" y="999.1211"/><ellipse cx="1629.5599" cy="1015.1211" fill="#C2C2C2" rx="11" ry="11" style="stroke:#181818;stroke-width:1.0;"/><path d="M1632.3255,1010.9961 Q1632.4818,1010.7773 1632.6693,1010.668 Q1632.8568,1010.5586 1633.0755,1010.5586 Q1633.4505,1010.5586 1633.6849,1010.8242 Q1633.9193,1011.0742 1633.9193,1011.6836 L1633.9193,1013.1367 Q1633.9193,1013.7461 1633.6849,1014.0117 Q1633.4505,1014.2773 1633.0755,1014.2773 Q1632.7318,1014.2773 1632.5287,1014.0742 Q1632.3255,1013.8867 1632.2162,1013.3711 Q1632.1693,1013.0117 1631.9818,1012.8242 Q1631.6537,1012.4492 1631.0443,1012.2305 Q1630.4349,1012.0117 1629.8099,1012.0117 Q1629.0443,1012.0117 1628.4037,1012.3398 Q1627.7787,1012.668 1627.2787,1013.418 Q1626.7943,1014.168 1626.7943,1015.1992 L1626.7943,1016.293 Q1626.7943,1017.5273 1627.6849,1018.3555 Q1628.5755,1019.168 1630.1693,1019.168 Q1631.1068,1019.168 1631.763,1018.918 Q1632.1537,1018.7617 1632.5755,1018.3242 Q1632.8412,1018.0586 1632.9818,1017.9805 Q1633.138,1017.9023 1633.3412,1017.9023 Q1633.6693,1017.9023 1633.9193,1018.168 Q1634.1849,1018.418 1634.1849,1018.7617 Q1634.1849,1019.1055 1633.8412,1019.5117 Q1633.3412,1020.0898 1632.5443,1020.418 Q1631.4662,1020.8711 1630.1693,1020.8711 Q1628.6537,1020.8711 1627.4505,1020.2461 Q1626.4662,1019.7461 1625.7787,1018.6836 Q1625.0912,1017.6055 1625.0912,1016.3242 L1625.0912,1015.168 Q1625.0912,1013.8398 1625.7005,1012.6992 Q1626.3255,1011.543 1627.4193,1010.9336 Q1628.513,1010.3086 1629.7474,1010.3086 Q1630.4818,1010.3086 1631.1224,1010.4805 Q1631.7787,1010.6367 1632.3255,1010.9961 Z " fill="#000000"/><text fill="#000000" font-family="sans-serif" font-size="14" lengthAdjust="spacing" textLength="36.5723" x="1647.2399" y="1020.918">Editor</text><line style="stroke:#181818;stroke-width:0.5;" x1="1599" x2="1702.3721" y1="1031.1211" y2="1031.1211"/><rect fill="none" height="6" style="stroke:#595959;stroke-width:1.0;" width="6" x="1606" y="1042.9316"/><text fill="#000000" font-family="sans-serif" font-size="14" lengthAdjust="spacing" textLength="55.248" x="1618" y="1050.2285">id: String</text><rect fill="none" height="6" style="stroke:#595959;stroke-width:1.0;" width="6" x="1606" y="1061.5527"/><text fill="#000000" font-family="sans-serif" font-size="14" lengthAdjust="spacing" textLength="79.3721" x="1618" y="1068.8496">name: String</text><rect fill="none" height="6" style="stroke:#595959;stroke-width:1.0;" width="6" x="1606" y="1080.1738"/><text fill="#000000" font-family="sans-serif" font-size="14" lengthAdjust="spacing" textLength="67.6963" x="1618" y="1087.4707">role: String</text><line style="stroke:#181818;stroke-width:0.5;" x1="1599" x2="1702.3721" y1="1094.9844" y2="1094.9844"/></g><!--link AddCityUI to AddCityController--><g id="link_AddCityUI_AddCityController"><path codeLine="177" d="M78.84,478.3111 C121.91,522.9711 212.1347,616.5225 286.6247,693.7525 " fill="none" id="AddCityUI-to-AddCityController" style="stroke:#181818;stroke-width:1.0;"/><polygon fill="#181818" points="290.79,698.0711,287.421,688.8164,287.3189,694.4723,281.663,694.3702,290.79,698.0711" style="stroke:#181818;stroke-width:1.0;"/></g><!--link AddCityUI to MapDTO--><g id="link_AddCityUI_MapDTO"><path codeLine="178" d="M102.1,431.8711 C111.9,427.4611 122.22,423.0011 132,419.1211 C164.27,406.3311 172.44,402.9911 206,394.1211 C647.58,277.4311 766.37,284.8011 1215,199.1211 C1324.9,178.1311 1444.6031,155.5686 1532.4031,139.0786 " fill="none" id="AddCityUI-to-MapDTO" style="stroke:#181818;stroke-width:1.0;stroke-dasharray:7.0,7.0;"/><polygon fill="#181818" points="1538.3,137.9711,1528.7163,135.7011,1533.3859,138.894,1530.193,143.5636,1538.3,137.9711" style="stroke:#181818;stroke-width:1.0;"/><text fill="#000000" font-family="sans-serif" font-size="13" lengthAdjust="spacing" textLength="46.9663" x="617" y="289.1494">displays</text></g><!--link AddCityUI to CityDTO--><g id="link_AddCityUI_CityDTO"><path codeLine="179" d="M102.34,449.3911 C325.4,426.8611 1274.9404,330.954 1561.7904,301.984 " fill="none" id="AddCityUI-to-CityDTO" style="stroke:#181818;stroke-width:1.0;stroke-dasharray:7.0,7.0;"/><polygon fill="#181818" points="1567.76,301.3811,1558.4036,298.3057,1562.7853,301.8835,1559.2075,306.2652,1567.76,301.3811" style="stroke:#181818;stroke-width:1.0;"/><text fill="#000000" font-family="sans-serif" font-size="13" lengthAdjust="spacing" textLength="46.9663" x="617" y="390.1494">displays</text></g><!--link AddCityUI to AddCityRequestDTO--><g id="link_AddCityUI_AddCityRequestDTO"><path codeLine="180" d="M56.94,478.1411 C62.62,553.4511 89.27,788.4711 206,932.1211 C218.1,947.0111 228.0216,956.6602 243.9316,968.1902 " fill="none" id="AddCityUI-to-AddCityRequestDTO" style="stroke:#181818;stroke-width:1.0;stroke-dasharray:7.0,7.0;"/><polygon fill="#181818" points="248.79,971.7111,243.8497,963.1909,244.7414,968.777,239.1552,969.6687,248.79,971.7111" style="stroke:#181818;stroke-width:1.0;"/><text fill="#000000" font-family="sans-serif" font-size="13" lengthAdjust="spacing" textLength="42.6309" x="133" y="811.1494">creates</text></g><!--link AddCityController to MapMapper--><g id="link_AddCityController_MapMapper"><path codeLine="183" d="M544.41,698.0011 C590.71,667.3311 643.06,635.8711 694,612.1211 C722.74,598.7211 748.7859,588.8611 779.6359,578.9811 " fill="none" id="AddCityController-to-MapMapper" style="stroke:#181818;stroke-width:1.0;"/><polygon fill="#181818" points="785.35,577.1511,775.5588,576.0867,780.5882,578.6761,777.9988,583.7055,785.35,577.1511" style="stroke:#181818;stroke-width:1.0;"/></g><!--link AddCityController to CityMapper--><g id="link_AddCityController_CityMapper"><path codeLine="184" d="M586.01,834.0411 C647.49,843.1311 709.2343,852.2551 768.7243,861.0351 " fill="none" id="AddCityController-to-CityMapper" style="stroke:#181818;stroke-width:1.0;"/><polygon fill="#181818" points="774.66,861.9111,766.3405,856.6399,769.7136,861.1811,765.1724,864.5542,774.66,861.9111" style="stroke:#181818;stroke-width:1.0;"/></g><!--link AddCityController to AuthenticationService--><g id="link_AddCityController_AuthenticationService"><path codeLine="185" d="M586.36,744.5311 C621.95,733.7911 658.99,723.1711 694,714.1211 C729.89,704.8411 763.2064,697.2963 799.4964,689.7263 " fill="none" id="AddCityController-to-AuthenticationService" style="stroke:#181818;stroke-width:1.0;"/><polygon fill="#181818" points="805.37,688.5011,795.7428,686.4232,800.4754,689.5221,797.3764,694.2546,805.37,688.5011" style="stroke:#181818;stroke-width:1.0;"/></g><!--link AddCityController to UserSession--><g id="link_AddCityController_UserSession"><path codeLine="186" d="M586.01,791.8111 C670.68,785.4011 761.1272,778.5546 831.7072,773.2046 " fill="none" id="AddCityController-to-UserSession" style="stroke:#181818;stroke-width:1.0;"/><polygon fill="#181818" points="837.69,772.7511,828.4134,769.4428,832.7043,773.129,829.0181,777.4199,837.69,772.7511" style="stroke:#181818;stroke-width:1.0;"/></g><!--link AddCityController to GameRepository--><g id="link_AddCityController_GameRepository"><path codeLine="187" d="M573.82,914.5811 C578.25,920.2011 582.33,926.0411 586,932.1211 C619.58,987.7911 572.01,1175.2611 616,1223.1211 C665.26,1276.7111 739.6723,1291.8466 807.8723,1293.7166 " fill="none" id="AddCityController-to-GameRepository" style="stroke:#181818;stroke-width:1.0;"/><polygon fill="#181818" points="813.87,1293.8811,804.983,1289.6359,808.8719,1293.744,804.7637,1297.6329,813.87,1293.8811" style="stroke:#181818;stroke-width:1.0;"/></g><!--link AddCityController to CityService--><g id="link_AddCityController_CityService"><path codeLine="188" d="M574.13,914.4011 C578.47,920.0711 582.45,925.9711 586,932.1211 C637.98,1022.1911 551.77,1317.3311 616,1399.1211 C636.56,1425.3111 658.4604,1442.2349 688.4904,1456.7849 " fill="none" id="AddCityController-to-CityService" style="stroke:#181818;stroke-width:1.0;"/><polygon fill="#181818" points="693.89,1459.4011,687.5347,1451.8771,689.3903,1457.2209,684.0465,1459.0765,693.89,1459.4011" style="stroke:#181818;stroke-width:1.0;"/></g><!--link MapMapper to Mapper--><g id="link_MapMapper_Mapper"><path codeLine="190" d="M1081.7,580.6311 C1157.84,602.8111 1253.64,629.5411 1340,650.1211 C1403.53,665.2611 1457.3386,676.2121 1515.5986,687.1421 " fill="none" id="MapMapper-to-Mapper" style="stroke:#181818;stroke-width:1.0;stroke-dasharray:7.0,7.0;"/><polygon fill="none" points="1533.29,690.4611,1516.705,681.2449,1514.4923,693.0392,1533.29,690.4611" style="stroke:#181818;stroke-width:1.0;"/><text fill="#000000" font-family="sans-serif" font-size="13" lengthAdjust="spacing" textLength="66.4663" x="1229.5" y="615.1494">implements</text></g><!--link CityMapper to Mapper--><g id="link_CityMapper_Mapper"><path codeLine="191" d="M1104.23,853.2911 C1132.39,843.7811 1160.45,831.6211 1185,816.1211 C1202.04,805.3611 1197.36,791.8711 1215,782.1211 C1313.17,727.8611 1423.5813,713.1186 1515.2913,709.8686 " fill="none" id="CityMapper-to-Mapper" style="stroke:#181818;stroke-width:1.0;stroke-dasharray:7.0,7.0;"/><polygon fill="none" points="1533.28,709.2311,1515.0788,703.8723,1515.5038,715.8648,1533.28,709.2311" style="stroke:#181818;stroke-width:1.0;"/><text fill="#000000" font-family="sans-serif" font-size="13" lengthAdjust="spacing" textLength="66.4663" x="1229.5" y="742.1494">implements</text></g><!--link MapMapper to Map--><g id="link_MapMapper_Map"><path codeLine="194" d="M1093.91,533.3611 C1215.04,529.6011 1376.9929,524.5774 1496.4429,520.8674 " fill="none" id="MapMapper-to-Map" style="stroke:#181818;stroke-width:1.0;stroke-dasharray:7.0,7.0;"/><polygon fill="#181818" points="1502.44,520.6811,1493.3202,516.9624,1497.4424,520.8363,1493.5685,524.9586,1502.44,520.6811" style="stroke:#181818;stroke-width:1.0;"/><text fill="#000000" font-family="sans-serif" font-size="13" lengthAdjust="spacing" textLength="78.7427" x="1223.5" y="523.1494">converts from</text></g><!--link MapMapper to MapDTO--><g id="link_MapMapper_MapDTO"><path codeLine="195" d="M979.65,495.4911 C1046.74,424.9411 1190.9,283.8711 1340,205.1211 C1401.87,172.4411 1471.4265,151.9989 1532.3265,138.2889 " fill="none" id="MapMapper-to-MapDTO" style="stroke:#181818;stroke-width:1.0;stroke-dasharray:7.0,7.0;"/><polygon fill="#181818" points="1538.18,136.9711,1528.5212,135.0454,1533.3021,138.0692,1530.2783,142.8501,1538.18,136.9711" style="stroke:#181818;stroke-width:1.0;"/><text fill="#000000" font-family="sans-serif" font-size="13" lengthAdjust="spacing" textLength="63.5845" x="1231" y="222.1494">converts to</text></g><!--link CityMapper to City--><g id="link_CityMapper_City"><path codeLine="196" d="M1104.15,873.5611 C1176.4,868.6211 1262.38,863.5511 1340,861.1211 C1615.87,852.5011 1685.04,856.1911 1961,861.1211 C2044.52,862.6111 2131.3546,865.5454 2208.4146,868.5754 " fill="none" id="CityMapper-to-City" style="stroke:#181818;stroke-width:1.0;stroke-dasharray:7.0,7.0;"/><polygon fill="#181818" points="2214.41,868.8111,2205.5741,864.4606,2209.4139,868.6146,2205.2598,872.4544,2214.41,868.8111" style="stroke:#181818;stroke-width:1.0;"/><text fill="#000000" font-family="sans-serif" font-size="13" lengthAdjust="spacing" textLength="78.7427" x="1611.5" y="851.1494">converts from</text></g><!--link CityMapper to CityDTO--><g id="link_CityMapper_CityDTO"><path codeLine="197" d="M1104.17,868.2811 C1135.08,857.5911 1164.19,841.1711 1185,816.1211 C1230.08,761.8711 1184.17,563.5611 1215,500.1211 C1248.52,431.1311 1273.39,419.1611 1340,381.1211 C1411.31,340.3911 1496.8726,318.5259 1561.8326,306.3559 " fill="none" id="CityMapper-to-CityDTO" style="stroke:#181818;stroke-width:1.0;stroke-dasharray:7.0,7.0;"/><polygon fill="#181818" points="1567.73,305.2511,1558.1473,302.9768,1562.8155,306.1718,1559.6205,310.84,1567.73,305.2511" style="stroke:#181818;stroke-width:1.0;"/><text fill="#000000" font-family="sans-serif" font-size="13" lengthAdjust="spacing" textLength="63.5845" x="1231" y="396.1494">converts to</text></g><!--link CityMapper to Location--><g id="link_CityMapper_Location"><path codeLine="198" d="M1026.8,938.1211 C1139.12,1005.6111 1323.14,1115.4911 1340,1121.1211 C1471.31,1164.9511 1511.07,1156.1211 1649.5,1156.1211 C1649.5,1156.1211 1649.5,1156.1211 2892.5,1156.1211 C2980.56,1156.1211 3066.7422,1122.0065 3137.2922,1084.1765 " fill="none" id="CityMapper-to-Location" style="stroke:#181818;stroke-width:1.0;stroke-dasharray:7.0,7.0;"/><polygon fill="#181818" points="3142.58,1081.3411,3132.7581,1082.069,3138.1735,1083.7039,3136.5386,1089.1194,3142.58,1081.3411" style="stroke:#181818;stroke-width:1.0;"/><text fill="#000000" font-family="sans-serif" font-size="13" lengthAdjust="spacing" textLength="93.1963" x="2335" y="1152.1494">converts from/to</text></g><!--link CityMapper to LocationDTO--><g id="link_CityMapper_LocationDTO"><path codeLine="199" d="M1104.05,894.1911 C1260.88,901.9411 1482.7973,912.8952 1587.3173,918.0552 " fill="none" id="CityMapper-to-LocationDTO" style="stroke:#181818;stroke-width:1.0;stroke-dasharray:7.0,7.0;"/><polygon fill="#181818" points="1593.31,918.3511,1584.5182,913.9122,1588.3161,918.1046,1584.1237,921.9025,1593.31,918.3511" style="stroke:#181818;stroke-width:1.0;"/><text fill="#000000" font-family="sans-serif" font-size="13" lengthAdjust="spacing" textLength="93.1963" x="1216" y="896.1494">converts from/to</text></g><!--link GameRepository to MapRepository--><g id="link_GameRepository_MapRepository"><path codeLine="201" d="M1065.22,1280.0711 C1207.46,1275.4611 1430.4532,1268.2256 1555.3332,1264.1756 " fill="none" id="GameRepository-to-MapRepository" style="stroke:#181818;stroke-width:1.0;"/><polygon fill="#181818" points="1561.33,1263.9811,1552.2051,1260.2749,1556.3326,1264.1432,1552.4644,1268.2707,1561.33,1263.9811" style="stroke:#181818;stroke-width:1.0;"/></g><!--link AddCityController to MapRepository--><g id="link_AddCityController_MapRepository"><path codeLine="202" d="M586.17,904.1311 C621.78,921.8811 658.87,939.8911 694,956.1211 C922.02,1061.4711 974.79,1101.6911 1215,1175.1211 C1332.48,1211.0311 1466.5974,1234.7143 1555.3074,1248.1243 " fill="none" id="AddCityController-to-MapRepository" style="stroke:#181818;stroke-width:1.0;"/><polygon fill="#181818" points="1561.24,1249.0211,1552.939,1243.7208,1556.2962,1248.2738,1551.7432,1251.6309,1561.24,1249.0211" style="stroke:#181818;stroke-width:1.0;"/></g><!--link AddCityController to CityRepository--><g id="link_AddCityController_CityRepository"><path codeLine="203" d="M573.93,914.5111 C578.32,920.1511 582.37,926.0211 586,932.1211 C662.35,1060.6411 548.09,1133.9511 616,1267.1211 C636.89,1308.0911 651.42,1317.7311 694,1335.1211 C829.81,1390.5911 1226.8002,1396.2284 1463.8202,1394.3584 " fill="none" id="AddCityController-to-CityRepository" style="stroke:#181818;stroke-width:1.0;"/><polygon fill="#181818" points="1469.82,1394.3111,1460.7887,1390.3822,1464.8202,1394.3505,1460.8518,1398.382,1469.82,1394.3111" style="stroke:#181818;stroke-width:1.0;"/></g><!--link CityService to CityRepository--><g id="link_CityService_CityRepository"><path codeLine="204" d="M1185.49,1462.4611 C1278.95,1448.0911 1377.7397,1432.9032 1464.0197,1419.6332 " fill="none" id="CityService-to-CityRepository" style="stroke:#181818;stroke-width:1.0;"/><polygon fill="#181818" points="1469.95,1418.7211,1460.4465,1416.1357,1465.0081,1419.4812,1461.6627,1424.0427,1469.95,1418.7211" style="stroke:#181818;stroke-width:1.0;"/></g><!--link CityService to CityValidator--><g id="link_CityService_CityValidator"><path codeLine="205" d="M1185.49,1542.6211 C1279.85,1558.9911 1379.7783,1576.3254 1466.5183,1591.3754 " fill="none" id="CityService-to-CityValidator" style="stroke:#181818;stroke-width:1.0;"/><polygon fill="#181818" points="1472.43,1592.4011,1464.2463,1586.9214,1467.5036,1591.5463,1462.8787,1594.8036,1472.43,1592.4011" style="stroke:#181818;stroke-width:1.0;"/></g><!--link CityService to BlockPlacementStrategy--><g id="link_CityService_BlockPlacementStrategy"><path codeLine="206" d="M1185.49,1500.8111 C1235.22,1500.9511 1282.14,1501.0837 1333.78,1501.2337 " fill="none" id="CityService-to-BlockPlacementStrategy" style="stroke:#181818;stroke-width:1.0;stroke-dasharray:7.0,7.0;"/><polygon fill="#181818" points="1339.78,1501.2511,1330.7917,1497.225,1334.78,1501.2366,1330.7684,1505.2249,1339.78,1501.2511" style="stroke:#181818;stroke-width:1.0;"/><text fill="#000000" font-family="sans-serif" font-size="13" lengthAdjust="spacing" textLength="27.46" x="1249" y="1496.1494">uses</text></g><!--reverse link BlockPlacementStrategy to AutomaticBlockPlacement--><g id="link_BlockPlacementStrategy_AutomaticBlockPlacement"><path codeLine="208" d="M1979.1186,1472.9091 C2015.3786,1469.6691 2034.45,1467.9811 2070.71,1464.7411 " fill="none" id="BlockPlacementStrategy-backto-AutomaticBlockPlacement" style="stroke:#181818;stroke-width:1.0;"/><polygon fill="none" points="1961.19,1474.5111,1979.6526,1478.8853,1978.5846,1466.9329,1961.19,1474.5111" style="stroke:#181818;stroke-width:1.0;"/></g><!--reverse link BlockPlacementStrategy to ManualBlockPlacement--><g id="link_BlockPlacementStrategy_ManualBlockPlacement"><path codeLine="209" d="M1979.1186,1531.3331 C2015.3786,1534.5731 2034.45,1536.2611 2070.71,1539.5011 " fill="none" id="BlockPlacementStrategy-backto-ManualBlockPlacement" style="stroke:#181818;stroke-width:1.0;"/><polygon fill="none" points="1961.19,1529.7311,1978.5846,1537.3093,1979.6526,1525.3569,1961.19,1529.7311" style="stroke:#181818;stroke-width:1.0;"/></g><!--reverse link Map to City--><g id="link_Map_City"><path codeLine="211" d="M1809.6592,582.1625 C1861.3992,604.4725 1908.66,625.7211 1961,651.1211 C2045.67,692.2111 2138.02,741.2611 2214.46,783.0711 " fill="none" id="Map-backto-City" style="stroke:#181818;stroke-width:1.0;"/><polygon fill="#181818" points="1798.64,577.4111,1802.5658,583.4599,1809.6592,582.1625,1805.7334,576.1137,1798.64,577.4111" style="stroke:#181818;stroke-width:1.0;"/><text fill="#000000" font-family="sans-serif" font-size="13" lengthAdjust="spacing" textLength="48.4199" x="1992" y="665.1494">contains</text><text fill="#000000" font-family="sans-serif" font-size="13" lengthAdjust="spacing" textLength="7.23" x="1806.4631" y="595.04">1</text><text fill="#000000" font-family="sans-serif" font-size="13" lengthAdjust="spacing" textLength="5.0591" x="2201.2457" y="793.0151">*</text></g><!--reverse link City to Location--><g id="link_City_Location"><path codeLine="212" d="M2560.0727,930.2809 C2636.5127,951.5009 2717.3,970.8211 2802,983.1211 C2904.55,998.0111 3021.05,1002.5011 3111.85,1003.2811 " fill="none" id="City-backto-Location" style="stroke:#181818;stroke-width:1.0;"/><polygon fill="#181818" points="2548.51,927.0711,2553.2214,932.5303,2560.0727,930.2809,2555.3613,924.8218,2548.51,927.0711" style="stroke:#181818;stroke-width:1.0;"/><text fill="#000000" font-family="sans-serif" font-size="13" lengthAdjust="spacing" textLength="112.0107" x="2835.5" y="979.1494">has central position</text><text fill="#000000" font-family="sans-serif" font-size="13" lengthAdjust="spacing" textLength="7.23" x="2556.771" y="943.9901">1</text><text fill="#000000" font-family="sans-serif" font-size="13" lengthAdjust="spacing" textLength="7.23" x="3096.5941" y="1017.8736">1</text></g><!--reverse link City to HouseBlock--><g id="link_City_HouseBlock"><path codeLine="213" d="M2560.84,876.1211 C2645.19,876.1211 2732.24,876.1211 2801.91,876.1211 " fill="none" id="City-backto-HouseBlock" style="stroke:#181818;stroke-width:1.0;"/><polygon fill="#181818" points="2548.84,876.1211,2554.84,880.1211,2560.84,876.1211,2554.84,872.1211,2548.84,876.1211" style="stroke:#181818;stroke-width:1.0;"/><text fill="#000000" font-family="sans-serif" font-size="13" lengthAdjust="spacing" textLength="48.4199" x="2723" y="872.1494">contains</text><text fill="#000000" font-family="sans-serif" font-size="13" lengthAdjust="spacing" textLength="7.23" x="2556.583" y="890.545">1</text><text fill="#000000" font-family="sans-serif" font-size="13" lengthAdjust="spacing" textLength="19.5127" x="2774.4026" y="890.8879">1..*</text></g><!--reverse link HouseBlock to Location--><g id="link_HouseBlock_Location"><path codeLine="214" d="M2992.7539,909.5367 C3031.7439,922.5367 3067.29,934.3811 3111.77,949.2111 " fill="none" id="HouseBlock-backto-Location" style="stroke:#181818;stroke-width:1.0;"/><polygon fill="#181818" points="2981.37,905.7411,2985.7968,911.4335,2992.7539,909.5367,2988.3272,903.8443,2981.37,905.7411" style="stroke:#181818;stroke-width:1.0;"/><text fill="#000000" font-family="sans-serif" font-size="13" lengthAdjust="spacing" textLength="69.3799" x="3012" y="912.1494">has position</text><text fill="#000000" font-family="sans-serif" font-size="13" lengthAdjust="spacing" textLength="7.23" x="2989.39" y="923.0533">1</text><text fill="#000000" font-family="sans-serif" font-size="13" lengthAdjust="spacing" textLength="7.23" x="3097.0106" y="961.1504">1</text></g><!--reverse link Editor to City--><g id="link_Editor_City"><path codeLine="215" d="M1714.7789,1037.2591 C1776.2789,1023.7091 1870.43,1002.6911 1961,981.1211 C2044.62,961.2011 2137.36,938.1011 2214.33,918.6411 " fill="none" id="Editor-backto-City" style="stroke:#181818;stroke-width:1.0;"/><polygon fill="#181818" points="1703.06,1039.8411,1709.7801,1042.4564,1714.7789,1037.2591,1708.0588,1034.6438,1703.06,1039.8411" style="stroke:#181818;stroke-width:1.0;"/><text fill="#000000" font-family="sans-serif" font-size="13" lengthAdjust="spacing" textLength="42.6309" x="1995" y="960.1494">creates</text><text fill="#000000" font-family="sans-serif" font-size="13" lengthAdjust="spacing" textLength="7.23" x="1711.2834" y="1053.4925">1</text><text fill="#000000" font-family="sans-serif" font-size="13" lengthAdjust="spacing" textLength="5.0591" x="2201.6398" y="934.9917">*</text></g><!--SRC=[lLTBSzis4BxpLs1yAPLOQZkzSJoQiUMqyKoIPcovQOyG2KjeI4058DkQ9FyzYpT0Kf9xoKa2zuaFYm-xyZDbMonmXphEUBqHl2D8YHqfP91iSVqPhycTshS42L8hpDPjgY0tkE5FbAtH0subAOgMF2YaE19qlL6eeTg8SbOKYYhmSN_toszeYXOjbX9TKxpMJgReicdGWggzjdoFjqLH6mNuhB_Utw0lnRVUnmLdIl2s9GA427pWdThS4V58QrAXIrWGfcYDTNJtsQYjSKTkoPPBghZOL-YFR6rKQd0VF2tYmWWxl8KCjqHKEbFxDrXvoIBy1z5hj2PgiHC24hgNHDpobfIJ2jqf0S1v1L1_HwNI0lrx0UlhvPzp8tx4BMsm8jhjDLQu5EI_7P6gyc3SsZKOWFcAGm3CZ2MsykC6Zvms6j-V4AmbUk020UGNKtJDEqmPAhU2Fz96dt8BgSc9EmcRee7_DQ8D9CxTVXY0cctmYJPgKo7Ab5bkY2wFk2RFu1TqTMeVm5Ow4Ao7UJnyWy0BOxRSdhxMiV_0qeRdEqckGFvPBlYE9Obi-NRNEYlzBGHENBZWpz5g7vGDX1x1wJmWA0ap-C4fuabUoF4ed6Eei9kZ6nj6Fh6f5jUaW-fxJzI6Dvcl3hCTResPtw87FzcoEG5mHyG3k4Asj5swYeD2gVPRI789rRICNqr1Mudnk9nFmZ-BblKaOq6Dk0Oyp5sRLAxYUW50BkEbcVSlK5Ox8-xrlRKtTbBv-ihgPsdKXjKq6HQML_eTo5GRDOfdIeb9p0joYWJaKWD2k6nRaCYK42mRF53MNErlcjANlmN6o2H-92bW_cf710QXj8dXY0m8OnYZwKjvoHfmMgRbU9uMguCl3-Ueqt5qdILGzH8AAdzPlkEEISDoG8OVVMM7FPyR1veaJvDZBOZpSuGVpHOzd6P_XdcaHkIUKL2xOQTWyK4pPCAkt3byaGeAe_v6fP5e_vdJNl8zzRUzsr_MWGCE6Fw_HyKNKYG14omS0EG8ljQ-g0pbs7HCNRqRt1uug92XmUjJU2BCycry8lmDY7jCRZMyzC2niA4y7rTm0hE6TnMwDRy_9ZNJPH16D20VkEXmUmqgWgvsshaFKjP4Gvb6FHbfX3e2U_TtlZf6wVCVV4XvanKvBgE-ql9OmWVf8G_RkUWcQQxkY9GQNV2LBAEdv6EqzrrP9Dj1um69EM2JfcFQVvkdUQCpxJKwXjrew6xq9RFb0XoxqoKIH3VsmtwUTN4PGwTtsf50gAtHnoers63vfZNbSgbEQsk8VMTs62BJmBy4es4yYrMaiD5RPV8mj3XediF69vbFWrnqKfexKQ7u9NteCbLfTKSIIKqWSceoEPpsnz1NQYtVc7aADlGxzav4JsF07i0nzh1G53iImnq3AilHsFb41osmI-KvLlK-Y_5tkaLO_vEkgVn4rOQoA-2LHfPF2PziCZ99wwy1L36hoPAN78X0P8NQyDqAPjAGvfk6-aVLufLKtg0KOOAC7qn72dqxO2xDA7IE68SXrlRmVFKlpBAoY4Ff51hymJIQo6UpkP-HAhq7uDkzxCdzG7DGOJWbLAvnaJhTP0msQNUseTQ3TCtP8n4XV_YYzrGCvsUzZpZBZikJYNPSONpY7jTDcNbSepUL7yx91ohYx32RVPtx4GMggTjQefD5CW0Sr8apIS1lHTGJ8SpZ29s41JADQ9pfax4sC4J3133KSCVdbHJFSx9R6hWPqJdfA5pMdhEV3wlsV7hjelTuksevUJelqUdr_-d0y49nd0rIgTxMWVwqClUaA0w8BxvEfuTwogCsOwsOgKfqzkiPUWKQPw_EalDLK4ks9AC2_2Rd1cyqqasYm2qo6EZhqZEOpS1fyaeahfElHm84nuusnv9rRFCT]--></g></svg>