<svg xmlns="http://www.w3.org/2000/svg" xmlns:xlink="http://www.w3.org/1999/xlink" contentStyleType="text/css" height="539px" preserveAspectRatio="none" style="width:803px;height:539px;background:#FFFFFF;" version="1.1" viewBox="0 0 803 539" width="803px" zoomAndPan="magnify"><title>System Sequence Diagram (SSD) - US02 As an Editor, I want to add an industry in a position XY of the selected map.</title><defs/><g><text fill="#000000" font-family="sans-serif" font-size="14" font-weight="bold" lengthAdjust="spacing" textLength="775.6055" x="10" y="30.1074">System Sequence Diagram (SSD) - US02 As an Editor, I want to add an industry in a position XY of the selected map.</text><rect fill="#FFFFFF" height="304.9102" style="stroke:#181818;stroke-width:1.0;" width="10" x="268.356" y="133.2422"/><rect fill="#FFFFFF" height="31.291" style="stroke:#181818;stroke-width:1.0;" width="10" x="507.2529" y="156.5332"/><rect fill="#FFFFFF" height="31.291" style="stroke:#181818;stroke-width:1.0;" width="10" x="507.2529" y="219.1152"/><rect fill="#FFFFFF" height="31.291" style="stroke:#181818;stroke-width:1.0;" width="10" x="507.2529" y="281.6973"/><rect fill="#FFFFFF" height="31.291" style="stroke:#181818;stroke-width:1.0;" width="10" x="507.2529" y="344.2793"/><rect fill="#FFFFFF" height="31.291" style="stroke:#181818;stroke-width:1.0;" width="10" x="507.2529" y="406.8613"/><line style="stroke:#181818;stroke-width:0.5;stroke-dasharray:5.0,5.0;" x1="273.0698" x2="273.0698" y1="123.2422" y2="456.1523"/><line style="stroke:#181818;stroke-width:0.5;stroke-dasharray:5.0,5.0;" x1="511.9702" x2="511.9702" y1="123.2422" y2="456.1523"/><text fill="#000000" font-family="sans-serif" font-size="14" lengthAdjust="spacing" textLength="36.5723" x="252.0698" y="119.7285">Editor</text><ellipse cx="273.356" cy="53.1211" fill="#E3E3E3" rx="8" ry="8" style="stroke:#181818;stroke-width:0.5;"/><path d="M273.356,61.1211 L273.356,88.1211 M260.356,69.1211 L286.356,69.1211 M273.356,88.1211 L260.356,103.1211 M273.356,88.1211 L286.356,103.1211 " fill="none" style="stroke:#181818;stroke-width:0.5;"/><text fill="#000000" font-family="sans-serif" font-size="14" lengthAdjust="spacing" textLength="36.5723" x="252.0698" y="470.2598">Editor</text><ellipse cx="273.356" cy="482.2734" fill="#E3E3E3" rx="8" ry="8" style="stroke:#181818;stroke-width:0.5;"/><path d="M273.356,490.2734 L273.356,517.2734 M260.356,498.2734 L286.356,498.2734 M273.356,517.2734 L260.356,532.2734 M273.356,517.2734 L286.356,532.2734 " fill="none" style="stroke:#181818;stroke-width:0.5;"/><rect fill="#E3E3E3" height="32.6211" rx="2.5" ry="2.5" style="stroke:#181818;stroke-width:0.5;" width="64.5654" x="479.9702" y="89.6211"/><text fill="#000000" font-family="sans-serif" font-size="14" lengthAdjust="spacing" textLength="50.5654" x="486.9702" y="111.7285">:System</text><rect fill="#E3E3E3" height="32.6211" rx="2.5" ry="2.5" style="stroke:#181818;stroke-width:0.5;" width="64.5654" x="479.9702" y="455.1523"/><text fill="#000000" font-family="sans-serif" font-size="14" lengthAdjust="spacing" textLength="50.5654" x="486.9702" y="477.2598">:System</text><rect fill="#FFFFFF" height="304.9102" style="stroke:#181818;stroke-width:1.0;" width="10" x="268.356" y="133.2422"/><rect fill="#FFFFFF" height="31.291" style="stroke:#181818;stroke-width:1.0;" width="10" x="507.2529" y="156.5332"/><rect fill="#FFFFFF" height="31.291" style="stroke:#181818;stroke-width:1.0;" width="10" x="507.2529" y="219.1152"/><rect fill="#FFFFFF" height="31.291" style="stroke:#181818;stroke-width:1.0;" width="10" x="507.2529" y="281.6973"/><rect fill="#FFFFFF" height="31.291" style="stroke:#181818;stroke-width:1.0;" width="10" x="507.2529" y="344.2793"/><rect fill="#FFFFFF" height="31.291" style="stroke:#181818;stroke-width:1.0;" width="10" x="507.2529" y="406.8613"/><polygon fill="#181818" points="495.2529,152.5332,505.2529,156.5332,495.2529,160.5332,499.2529,156.5332" style="stroke:#181818;stroke-width:1.0;"/><line style="stroke:#181818;stroke-width:1.0;" x1="278.356" x2="501.2529" y1="156.5332" y2="156.5332"/><text fill="#000000" font-family="sans-serif" font-size="13" font-weight="bold" lengthAdjust="spacing" textLength="7.23" x="285.356" y="151.2705">1</text><text fill="#000000" font-family="sans-serif" font-size="13" lengthAdjust="spacing" textLength="156.8188" x="296.5859" y="151.2705">requests to add an industry</text><polygon fill="#181818" points="289.356,183.8242,279.356,187.8242,289.356,191.8242,285.356,187.8242" style="stroke:#181818;stroke-width:1.0;"/><line style="stroke:#181818;stroke-width:1.0;stroke-dasharray:2.0,2.0;" x1="283.356" x2="511.2529" y1="187.8242" y2="187.8242"/><text fill="#000000" font-family="sans-serif" font-size="13" font-weight="bold" lengthAdjust="spacing" textLength="7.23" x="295.356" y="182.5615">2</text><text fill="#000000" font-family="sans-serif" font-size="13" lengthAdjust="spacing" textLength="133.6816" x="306.5859" y="182.5615">requests map selection</text><polygon fill="#181818" points="495.2529,215.1152,505.2529,219.1152,495.2529,223.1152,499.2529,219.1152" style="stroke:#181818;stroke-width:1.0;"/><line style="stroke:#181818;stroke-width:1.0;" x1="278.356" x2="501.2529" y1="219.1152" y2="219.1152"/><text fill="#000000" font-family="sans-serif" font-size="13" font-weight="bold" lengthAdjust="spacing" textLength="7.23" x="285.356" y="213.8525">3</text><text fill="#000000" font-family="sans-serif" font-size="13" lengthAdjust="spacing" textLength="69.3608" x="296.5859" y="213.8525">selects map</text><polygon fill="#181818" points="289.356,246.4063,279.356,250.4063,289.356,254.4063,285.356,250.4063" style="stroke:#181818;stroke-width:1.0;"/><line style="stroke:#181818;stroke-width:1.0;stroke-dasharray:2.0,2.0;" x1="283.356" x2="511.2529" y1="250.4063" y2="250.4063"/><text fill="#000000" font-family="sans-serif" font-size="13" font-weight="bold" lengthAdjust="spacing" textLength="7.23" x="295.356" y="245.1436">4</text><text fill="#000000" font-family="sans-serif" font-size="13" lengthAdjust="spacing" textLength="172.707" x="306.5859" y="245.1436">presents industry type options</text><polygon fill="#181818" points="495.2529,277.6973,505.2529,281.6973,495.2529,285.6973,499.2529,281.6973" style="stroke:#181818;stroke-width:1.0;"/><line style="stroke:#181818;stroke-width:1.0;" x1="278.356" x2="501.2529" y1="281.6973" y2="281.6973"/><text fill="#000000" font-family="sans-serif" font-size="13" font-weight="bold" lengthAdjust="spacing" textLength="7.23" x="285.356" y="276.4346">5</text><text fill="#000000" font-family="sans-serif" font-size="13" lengthAdjust="spacing" textLength="117.7744" x="296.5859" y="276.4346">selects industry type</text><polygon fill="#181818" points="289.356,308.9883,279.356,312.9883,289.356,316.9883,285.356,312.9883" style="stroke:#181818;stroke-width:1.0;"/><line style="stroke:#181818;stroke-width:1.0;stroke-dasharray:2.0,2.0;" x1="283.356" x2="511.2529" y1="312.9883" y2="312.9883"/><text fill="#000000" font-family="sans-serif" font-size="13" font-weight="bold" lengthAdjust="spacing" textLength="7.23" x="295.356" y="307.7256">6</text><text fill="#000000" font-family="sans-serif" font-size="13" lengthAdjust="spacing" textLength="193.667" x="306.5859" y="307.7256">presents industry subtype options</text><polygon fill="#181818" points="495.2529,340.2793,505.2529,344.2793,495.2529,348.2793,499.2529,344.2793" style="stroke:#181818;stroke-width:1.0;"/><line style="stroke:#181818;stroke-width:1.0;" x1="278.356" x2="501.2529" y1="344.2793" y2="344.2793"/><text fill="#000000" font-family="sans-serif" font-size="13" font-weight="bold" lengthAdjust="spacing" textLength="7.23" x="285.356" y="339.0166">7</text><text fill="#000000" font-family="sans-serif" font-size="13" lengthAdjust="spacing" textLength="138.7344" x="296.5859" y="339.0166">selects industry subtype</text><polygon fill="#181818" points="289.356,371.5703,279.356,375.5703,289.356,379.5703,285.356,375.5703" style="stroke:#181818;stroke-width:1.0;"/><line style="stroke:#181818;stroke-width:1.0;stroke-dasharray:2.0,2.0;" x1="283.356" x2="511.2529" y1="375.5703" y2="375.5703"/><text fill="#000000" font-family="sans-serif" font-size="13" font-weight="bold" lengthAdjust="spacing" textLength="7.23" x="295.356" y="370.3076">8</text><text fill="#000000" font-family="sans-serif" font-size="13" lengthAdjust="spacing" textLength="141.6353" x="306.5859" y="370.3076">requests XY coordinates</text><polygon fill="#181818" points="495.2529,402.8613,505.2529,406.8613,495.2529,410.8613,499.2529,406.8613" style="stroke:#181818;stroke-width:1.0;"/><line style="stroke:#181818;stroke-width:1.0;" x1="278.356" x2="501.2529" y1="406.8613" y2="406.8613"/><text fill="#000000" font-family="sans-serif" font-size="13" font-weight="bold" lengthAdjust="spacing" textLength="7.23" x="285.356" y="401.5986">9</text><text fill="#000000" font-family="sans-serif" font-size="13" lengthAdjust="spacing" textLength="155.3779" x="296.5859" y="401.5986">inputs X and Y coordinates</text><polygon fill="#181818" points="284.356,434.1523,274.356,438.1523,284.356,442.1523,280.356,438.1523" style="stroke:#181818;stroke-width:1.0;"/><line style="stroke:#181818;stroke-width:1.0;stroke-dasharray:2.0,2.0;" x1="278.356" x2="511.2529" y1="438.1523" y2="438.1523"/><text fill="#000000" font-family="sans-serif" font-size="13" font-weight="bold" lengthAdjust="spacing" textLength="14.46" x="290.356" y="432.8896">10</text><text fill="#000000" font-family="sans-serif" font-size="13" lengthAdjust="spacing" textLength="162.5698" x="308.8159" y="432.8896">confirms successful addition</text><!--SRC=[hPDDQyCm38Rl-HMYfmtMCNRiOJ1e3psCmTp1UdHj9JLDRC-IL_BlftoiT9_GKPzChFV98qUXdVDH9zr04tmmsnGQ14uP2pgSH6rskaB5ROsGqB3sLNrSG5jjmzxv2afT4nO5EvPIrH9Z0mfVCtg3C7Uwwielb9fVmXIUrSqjt1De3mlhEAGhMC9UUmOEeAtj3fotcJYriW4DCP1Z5poyh26Km5i4mbgCq4AZutLHwCp1vsQ3IVP6c30Ps1FG18lvSlNuL8WrE-DYzwh9RD3ipzLQhHOFVTAzQSQFG06oXZrCxyOocCbbI6l4z8Dm7pbmHZ2CQmHCXJLIZrZIoDYLTDf7B7u5_IOqv7h6oG8n8Q6NyE7EkOq88NOUz4-HJwmpA57UdDDgnFt_OyaWcX2ITLwIf-h8_vCxXioDXU-WKuHCyALB3Kb7nY1HcUjk8jrVCtJqQE2y0m00]--></g></svg>