<svg xmlns="http://www.w3.org/2000/svg" xmlns:xlink="http://www.w3.org/1999/xlink" contentStyleType="text/css" data-diagram-type="SEQUENCE" height="478px" preserveAspectRatio="none" style="width:467px;height:478px;background:#FFFFFF;" version="1.1" viewBox="0 0 467 478" width="467px" zoomAndPan="magnify"><title>System Sequence Diagram for Map Creation</title><defs/><g><text fill="#000000" font-family="sans-serif" font-size="14" font-weight="bold" lengthAdjust="spacing" textLength="349.5488" x="58.53" y="27.9951">System Sequence Diagram for Map Creation</text><g><title>Editor</title><rect fill="#000000" fill-opacity="0.00000" height="279.0625" width="8" x="24.7163" y="118.5938"/><line style="stroke:#181818;stroke-width:0.5;stroke-dasharray:5.0,5.0;" x1="28" x2="28" y1="118.5938" y2="397.6563"/></g><g><title>System</title><rect fill="#000000" fill-opacity="0.00000" height="279.0625" width="8" x="264.27" y="118.5938"/><line style="stroke:#181818;stroke-width:0.5;stroke-dasharray:5.0,5.0;" x1="268.167" x2="268.167" y1="118.5938" y2="397.6563"/></g><g class="participant participant-head" data-participant="Editor"><text fill="#000000" font-family="sans-serif" font-size="14" lengthAdjust="spacing" textLength="41.4326" x="5" y="115.292">Editor</text><ellipse cx="28.7163" cy="50.7969" fill="#E2E2F0" rx="8" ry="8" style="stroke:#181818;stroke-width:0.5;"/><path d="M28.7163,58.7969 L28.7163,85.7969 M15.7163,66.7969 L41.7163,66.7969 M28.7163,85.7969 L15.7163,100.7969 M28.7163,85.7969 L41.7163,100.7969" fill="none" style="stroke:#181818;stroke-width:0.5;"/></g><g class="participant participant-tail" data-participant="Editor"><text fill="#000000" font-family="sans-serif" font-size="14" lengthAdjust="spacing" textLength="41.4326" x="5" y="409.6514">Editor</text><ellipse cx="28.7163" cy="421.4531" fill="#E2E2F0" rx="8" ry="8" style="stroke:#181818;stroke-width:0.5;"/><path d="M28.7163,429.4531 L28.7163,456.4531 M15.7163,437.4531 L41.7163,437.4531 M28.7163,456.4531 L15.7163,471.4531 M28.7163,456.4531 L41.7163,471.4531" fill="none" style="stroke:#181818;stroke-width:0.5;"/></g><g class="participant participant-head" data-participant="System"><rect fill="#E2E2F0" height="30.2969" rx="2.5" ry="2.5" style="stroke:#181818;stroke-width:0.5;" width="66.2061" x="235.167" y="87.2969"/><text fill="#000000" font-family="sans-serif" font-size="14" lengthAdjust="spacing" textLength="52.2061" x="242.167" y="107.292">System</text></g><g class="participant participant-tail" data-participant="System"><rect fill="#E2E2F0" height="30.2969" rx="2.5" ry="2.5" style="stroke:#181818;stroke-width:0.5;" width="66.2061" x="235.167" y="396.6563"/><text fill="#000000" font-family="sans-serif" font-size="14" lengthAdjust="spacing" textLength="52.2061" x="242.167" y="416.6514">System</text></g><g class="message" data-participant-1="Editor" data-participant-2="System"><polygon fill="#181818" points="256.27,145.7266,266.27,149.7266,256.27,153.7266,260.27,149.7266" style="stroke:#181818;stroke-width:1;"/><line style="stroke:#181818;stroke-width:1;" x1="28.7163" x2="262.27" y1="149.7266" y2="149.7266"/><text fill="#000000" font-family="sans-serif" font-size="13" lengthAdjust="spacing" textLength="161.3701" x="35.7163" y="144.6606">Request to create a map</text></g><g class="message" data-participant-1="System" data-participant-2="Editor"><polygon fill="#181818" points="39.7163,174.8594,29.7163,178.8594,39.7163,182.8594,35.7163,178.8594" style="stroke:#181818;stroke-width:1;"/><line style="stroke:#181818;stroke-width:1;" x1="33.7163" x2="267.27" y1="178.8594" y2="178.8594"/><text fill="#000000" font-family="sans-serif" font-size="13" lengthAdjust="spacing" textLength="127.4038" x="45.7163" y="173.7935">Request map name</text></g><g class="message" data-participant-1="Editor" data-participant-2="System"><polygon fill="#181818" points="256.27,203.9922,266.27,207.9922,256.27,211.9922,260.27,207.9922" style="stroke:#181818;stroke-width:1;"/><line style="stroke:#181818;stroke-width:1;" x1="28.7163" x2="262.27" y1="207.9922" y2="207.9922"/><text fill="#000000" font-family="sans-serif" font-size="13" lengthAdjust="spacing" textLength="122.7065" x="35.7163" y="202.9263">Provide map name</text></g><g class="message" data-participant-1="System" data-participant-2="Editor"><polygon fill="#181818" points="39.7163,233.125,29.7163,237.125,39.7163,241.125,35.7163,237.125" style="stroke:#181818;stroke-width:1;"/><line style="stroke:#181818;stroke-width:1;" x1="33.7163" x2="267.27" y1="237.125" y2="237.125"/><text fill="#000000" font-family="sans-serif" font-size="13" lengthAdjust="spacing" textLength="215.5537" x="45.7163" y="232.0591">Request map size (width, height)</text></g><g class="message" data-participant-1="Editor" data-participant-2="System"><polygon fill="#181818" points="256.27,262.2578,266.27,266.2578,256.27,270.2578,260.27,266.2578" style="stroke:#181818;stroke-width:1;"/><line style="stroke:#181818;stroke-width:1;" x1="28.7163" x2="262.27" y1="266.2578" y2="266.2578"/><text fill="#000000" font-family="sans-serif" font-size="13" lengthAdjust="spacing" textLength="111.0459" x="35.7163" y="261.1919">Provide map size</text></g><g class="message" data-participant-1="System" data-participant-2="System"><line style="stroke:#181818;stroke-width:1;" x1="268.27" x2="310.27" y1="295.3906" y2="295.3906"/><line style="stroke:#181818;stroke-width:1;" x1="310.27" x2="310.27" y1="295.3906" y2="308.3906"/><line style="stroke:#181818;stroke-width:1;" x1="269.27" x2="310.27" y1="308.3906" y2="308.3906"/><polygon fill="#181818" points="279.27,304.3906,269.27,308.3906,279.27,312.3906,275.27,308.3906" style="stroke:#181818;stroke-width:1;"/><text fill="#000000" font-family="sans-serif" font-size="13" lengthAdjust="spacing" textLength="185.3389" x="275.27" y="290.3247">Validate map name and size</text></g><g class="message" data-participant-1="System" data-participant-2="System"><line style="stroke:#181818;stroke-width:1;" x1="268.27" x2="310.27" y1="337.5234" y2="337.5234"/><line style="stroke:#181818;stroke-width:1;" x1="310.27" x2="310.27" y1="337.5234" y2="350.5234"/><line style="stroke:#181818;stroke-width:1;" x1="269.27" x2="310.27" y1="350.5234" y2="350.5234"/><polygon fill="#181818" points="279.27,346.5234,269.27,350.5234,279.27,354.5234,275.27,350.5234" style="stroke:#181818;stroke-width:1;"/><text fill="#000000" font-family="sans-serif" font-size="13" lengthAdjust="spacing" textLength="139.6484" x="275.27" y="332.4575">Create and save map</text></g><g class="message" data-participant-1="System" data-participant-2="Editor"><polygon fill="#181818" points="39.7163,375.6563,29.7163,379.6563,39.7163,383.6563,35.7163,379.6563" style="stroke:#181818;stroke-width:1;"/><line style="stroke:#181818;stroke-width:1;" x1="33.7163" x2="267.27" y1="379.6563" y2="379.6563"/><text fill="#000000" font-family="sans-serif" font-size="13" lengthAdjust="spacing" textLength="196.9551" x="45.7163" y="374.5903">Confirm map creation success</text></g><!--SRC=[XP3FJiCm38VlUOgVUW89Ne33BeKZqaGbxbRYjPQQf4lS8VRqD3HJEMpZPCd-_FcFYewCxZihUtHyd3bOngjGdyZZ41FUQKARc5HYC8QiBhat9qim4oKLAnC5HRCw6b2kEcDM3C-xcdd1HvcG5HfXYvD1y3IPki12hZqRkLGHoFCLsJx5apZUaFkMB6V6mvSu7PumiFI3FlvZBIr_h1VaaqPnPVdBP51mj-2stba8El6DSziO3fByhz7MRoFFrdBEFm00]--></g></svg>