<svg xmlns="http://www.w3.org/2000/svg" xmlns:xlink="http://www.w3.org/1999/xlink" contentStyleType="text/css" data-diagram-type="CLASS" height="836px" preserveAspectRatio="none" style="width:462px;height:836px;background:#FFFFFF;" version="1.1" viewBox="0 0 462 836" width="462px" zoomAndPan="magnify"><defs/><g><!--class Player--><g class="entity" data-entity="Player" data-source-line="6" data-uid="ent0002" id="entity_Player"><rect fill="#F1F1F1" height="96.8906" rx="2.5" ry="2.5" style="stroke:#181818;stroke-width:0.5;" width="386.3359" x="45.62" y="7"/><ellipse cx="212.7553" cy="23" fill="#ADD1B2" rx="11" ry="11" style="stroke:#181818;stroke-width:1;"/><path d="M215.724,28.6406 Q215.1459,28.9375 214.5053,29.0781 Q213.8646,29.2344 213.1615,29.2344 Q210.6615,29.2344 209.3334,27.5938 Q208.0209,25.9375 208.0209,22.8125 Q208.0209,19.6875 209.3334,18.0313 Q210.6615,16.375 213.1615,16.375 Q213.8646,16.375 214.5053,16.5313 Q215.1615,16.6875 215.724,16.9844 L215.724,19.7031 Q215.099,19.125 214.5053,18.8594 Q213.9115,18.5781 213.2865,18.5781 Q211.9428,18.5781 211.2553,19.6563 Q210.5678,20.7188 210.5678,22.8125 Q210.5678,24.9063 211.2553,25.9844 Q211.9428,27.0469 213.2865,27.0469 Q213.9115,27.0469 214.5053,26.7813 Q215.099,26.5 215.724,25.9219 L215.724,28.6406 Z " fill="#000000"/><text fill="#000000" font-family="sans-serif" font-size="14" lengthAdjust="spacing" textLength="43.5654" x="233.2553" y="27.8467">Player</text><line style="stroke:#181818;stroke-width:0.5;" x1="46.62" x2="430.9559" y1="39" y2="39"/><text fill="#000000" font-family="sans-serif" font-size="14" lengthAdjust="spacing" textLength="45.2471" x="51.62" y="55.9951">-id: int</text><text fill="#000000" font-family="sans-serif" font-size="14" lengthAdjust="spacing" textLength="95.7031" x="51.62" y="72.292">-name: String</text><line style="stroke:#181818;stroke-width:0.5;" x1="46.62" x2="430.9559" y1="79.5938" y2="79.5938"/><text fill="#000000" font-family="sans-serif" font-size="14" lengthAdjust="spacing" textLength="374.3359" x="51.62" y="96.5889">+assignTrainToRoute(train: Train, route: Route): void</text></g><!--class Train--><g class="entity" data-entity="Train" data-source-line="13" data-uid="ent0003" id="entity_Train"><rect fill="#F1F1F1" height="145.7813" rx="2.5" ry="2.5" style="stroke:#181818;stroke-width:0.5;" width="375.6924" x="50.95" y="163.89"/><ellipse cx="216.7215" cy="179.89" fill="#ADD1B2" rx="11" ry="11" style="stroke:#181818;stroke-width:1;"/><path d="M219.6902,185.5306 Q219.1121,185.8275 218.4715,185.9681 Q217.8309,186.1244 217.1277,186.1244 Q214.6277,186.1244 213.2996,184.4838 Q211.9871,182.8275 211.9871,179.7025 Q211.9871,176.5775 213.2996,174.9213 Q214.6277,173.265 217.1277,173.265 Q217.8309,173.265 218.4715,173.4213 Q219.1277,173.5775 219.6902,173.8744 L219.6902,176.5931 Q219.0652,176.015 218.4715,175.7494 Q217.8777,175.4681 217.2527,175.4681 Q215.909,175.4681 215.2215,176.5463 Q214.534,177.6088 214.534,179.7025 Q214.534,181.7963 215.2215,182.8744 Q215.909,183.9369 217.2527,183.9369 Q217.8777,183.9369 218.4715,183.6713 Q219.0652,183.39 219.6902,182.8119 L219.6902,185.5306 Z " fill="#000000"/><text fill="#000000" font-family="sans-serif" font-size="14" lengthAdjust="spacing" textLength="35.6494" x="237.2215" y="184.7367">Train</text><line style="stroke:#181818;stroke-width:0.5;" x1="51.95" x2="425.6424" y1="195.89" y2="195.89"/><text fill="#000000" font-family="sans-serif" font-size="14" lengthAdjust="spacing" textLength="45.2471" x="56.95" y="212.8851">-id: int</text><text fill="#000000" font-family="sans-serif" font-size="14" lengthAdjust="spacing" textLength="95.7031" x="56.95" y="229.182">-name: String</text><text fill="#000000" font-family="sans-serif" font-size="14" lengthAdjust="spacing" textLength="91.5742" x="56.95" y="245.4789">-capacity: int</text><text fill="#000000" font-family="sans-serif" font-size="14" lengthAdjust="spacing" textLength="350.998" x="56.95" y="261.7757">-cargoAssignments: List&lt;TrainCargoAssignment&gt;</text><line style="stroke:#181818;stroke-width:0.5;" x1="51.95" x2="425.6424" y1="269.0775" y2="269.0775"/><text fill="#000000" font-family="sans-serif" font-size="14" lengthAdjust="spacing" textLength="200.6621" x="56.95" y="286.0726">+getAssignedRoute(): Route</text><text fill="#000000" font-family="sans-serif" font-size="14" lengthAdjust="spacing" textLength="363.6924" x="56.95" y="302.3695">+getCargoManifest(): List&lt;TrainCargoAssignment&gt;</text></g><!--class Route--><g class="entity" data-entity="Route" data-source-line="23" data-uid="ent0004" id="entity_Route"><rect fill="#F1F1F1" height="113.1875" rx="2.5" ry="2.5" style="stroke:#181818;stroke-width:0.5;" width="221.583" x="7" y="369.67"/><ellipse cx="92.9072" cy="385.67" fill="#ADD1B2" rx="11" ry="11" style="stroke:#181818;stroke-width:1;"/><path d="M95.876,391.3106 Q95.2979,391.6075 94.6572,391.7481 Q94.0166,391.9044 93.3135,391.9044 Q90.8135,391.9044 89.4854,390.2638 Q88.1729,388.6075 88.1729,385.4825 Q88.1729,382.3575 89.4854,380.7013 Q90.8135,379.045 93.3135,379.045 Q94.0166,379.045 94.6572,379.2013 Q95.3135,379.3575 95.876,379.6544 L95.876,382.3731 Q95.251,381.795 94.6572,381.5294 Q94.0635,381.2481 93.4385,381.2481 Q92.0947,381.2481 91.4072,382.3263 Q90.7197,383.3888 90.7197,385.4825 Q90.7197,387.5763 91.4072,388.6544 Q92.0947,389.7169 93.4385,389.7169 Q94.0635,389.7169 94.6572,389.4513 Q95.251,389.17 95.876,388.5919 L95.876,391.3106 Z " fill="#000000"/><text fill="#000000" font-family="sans-serif" font-size="14" lengthAdjust="spacing" textLength="41.2686" x="113.4072" y="390.5167">Route</text><line style="stroke:#181818;stroke-width:0.5;" x1="8" x2="227.583" y1="401.67" y2="401.67"/><text fill="#000000" font-family="sans-serif" font-size="14" lengthAdjust="spacing" textLength="45.2471" x="13" y="418.6651">-id: int</text><text fill="#000000" font-family="sans-serif" font-size="14" lengthAdjust="spacing" textLength="95.7031" x="13" y="434.962">-name: String</text><text fill="#000000" font-family="sans-serif" font-size="14" lengthAdjust="spacing" textLength="167.3984" x="13" y="451.2589">-stations: List&lt;Station&gt;</text><line style="stroke:#181818;stroke-width:0.5;" x1="8" x2="227.583" y1="458.5606" y2="458.5606"/><text fill="#000000" font-family="sans-serif" font-size="14" lengthAdjust="spacing" textLength="209.583" x="13" y="475.5557">+getStations(): List&lt;Station&gt;</text></g><!--class Station--><g class="entity" data-entity="Station" data-source-line="31" data-uid="ent0005" id="entity_Station"><rect fill="#F1F1F1" height="129.4844" rx="2.5" ry="2.5" style="stroke:#181818;stroke-width:0.5;" width="262.0586" x="44.76" y="542.86"/><ellipse cx="146.6531" cy="558.86" fill="#ADD1B2" rx="11" ry="11" style="stroke:#181818;stroke-width:1;"/><path d="M149.6218,564.5006 Q149.0437,564.7975 148.4031,564.9381 Q147.7624,565.0944 147.0593,565.0944 Q144.5593,565.0944 143.2312,563.4538 Q141.9187,561.7975 141.9187,558.6725 Q141.9187,555.5475 143.2312,553.8913 Q144.5593,552.235 147.0593,552.235 Q147.7624,552.235 148.4031,552.3913 Q149.0593,552.5475 149.6218,552.8444 L149.6218,555.5631 Q148.9968,554.985 148.4031,554.7194 Q147.8093,554.4381 147.1843,554.4381 Q145.8406,554.4381 145.1531,555.5163 Q144.4656,556.5788 144.4656,558.6725 Q144.4656,560.7663 145.1531,561.8444 Q145.8406,562.9069 147.1843,562.9069 Q147.8093,562.9069 148.4031,562.6413 Q148.9968,562.36 149.6218,561.7819 L149.6218,564.5006 Z " fill="#000000"/><text fill="#000000" font-family="sans-serif" font-size="14" lengthAdjust="spacing" textLength="49.7725" x="167.1531" y="563.7067">Station</text><line style="stroke:#181818;stroke-width:0.5;" x1="45.76" x2="305.8186" y1="574.86" y2="574.86"/><text fill="#000000" font-family="sans-serif" font-size="14" lengthAdjust="spacing" textLength="45.2471" x="50.76" y="591.8551">-id: int</text><text fill="#000000" font-family="sans-serif" font-size="14" lengthAdjust="spacing" textLength="95.7031" x="50.76" y="608.152">-name: String</text><text fill="#000000" font-family="sans-serif" font-size="14" lengthAdjust="spacing" textLength="111.5488" x="50.76" y="624.4489">-location: String</text><text fill="#000000" font-family="sans-serif" font-size="14" lengthAdjust="spacing" textLength="159.1064" x="50.76" y="640.7457">-cargoes: List&lt;Cargo&gt;</text><line style="stroke:#181818;stroke-width:0.5;" x1="45.76" x2="305.8186" y1="648.0475" y2="648.0475"/><text fill="#000000" font-family="sans-serif" font-size="14" lengthAdjust="spacing" textLength="250.0586" x="50.76" y="665.0426">+getAvailableCargo(): List&lt;Cargo&gt;</text></g><!--class Cargo--><g class="entity" data-entity="Cargo" data-source-line="40" data-uid="ent0006" id="entity_Cargo"><rect fill="#F1F1F1" height="96.8906" rx="2.5" ry="2.5" style="stroke:#181818;stroke-width:0.5;" width="104.873" x="215.35" y="732.34"/><ellipse cx="244.4397" cy="748.34" fill="#ADD1B2" rx="11" ry="11" style="stroke:#181818;stroke-width:1;"/><path d="M247.4085,753.9806 Q246.8304,754.2775 246.1897,754.4181 Q245.5491,754.5744 244.846,754.5744 Q242.346,754.5744 241.0179,752.9338 Q239.7054,751.2775 239.7054,748.1525 Q239.7054,745.0275 241.0179,743.3713 Q242.346,741.715 244.846,741.715 Q245.5491,741.715 246.1897,741.8713 Q246.846,742.0275 247.4085,742.3244 L247.4085,745.0431 Q246.7835,744.465 246.1897,744.1994 Q245.596,743.9181 244.971,743.9181 Q243.6272,743.9181 242.9397,744.9963 Q242.2522,746.0588 242.2522,748.1525 Q242.2522,750.2463 242.9397,751.3244 Q243.6272,752.3869 244.971,752.3869 Q245.596,752.3869 246.1897,752.1213 Q246.7835,751.84 247.4085,751.2619 L247.4085,753.9806 Z " fill="#000000"/><text fill="#000000" font-family="sans-serif" font-size="14" lengthAdjust="spacing" textLength="41.5625" x="261.5708" y="753.1867">Cargo</text><line style="stroke:#181818;stroke-width:0.5;" x1="216.35" x2="319.223" y1="764.34" y2="764.34"/><text fill="#000000" font-family="sans-serif" font-size="14" lengthAdjust="spacing" textLength="45.2471" x="221.35" y="781.3351">-id: int</text><text fill="#000000" font-family="sans-serif" font-size="14" lengthAdjust="spacing" textLength="87.2744" x="221.35" y="797.632">-type: String</text><text fill="#000000" font-family="sans-serif" font-size="14" lengthAdjust="spacing" textLength="92.873" x="221.35" y="813.9289">-weight: float</text><line style="stroke:#181818;stroke-width:0.5;" x1="216.35" x2="319.223" y1="821.2306" y2="821.2306"/></g><!--class TrainCargoAssignment--><g class="entity" data-entity="TrainCargoAssignment" data-source-line="47" data-uid="ent0007" id="entity_TrainCargoAssignment"><rect fill="#F1F1F1" height="113.1875" rx="2.5" ry="2.5" style="stroke:#181818;stroke-width:0.5;" width="191.6396" x="263.97" y="369.67"/><ellipse cx="278.97" cy="385.67" fill="#ADD1B2" rx="11" ry="11" style="stroke:#181818;stroke-width:1;"/><path d="M281.9388,391.3106 Q281.3606,391.6075 280.72,391.7481 Q280.0794,391.9044 279.3763,391.9044 Q276.8763,391.9044 275.5481,390.2638 Q274.2356,388.6075 274.2356,385.4825 Q274.2356,382.3575 275.5481,380.7013 Q276.8763,379.045 279.3763,379.045 Q280.0794,379.045 280.72,379.2013 Q281.3763,379.3575 281.9388,379.6544 L281.9388,382.3731 Q281.3138,381.795 280.72,381.5294 Q280.1263,381.2481 279.5013,381.2481 Q278.1575,381.2481 277.47,382.3263 Q276.7825,383.3888 276.7825,385.4825 Q276.7825,387.5763 277.47,388.6544 Q278.1575,389.7169 279.5013,389.7169 Q280.1263,389.7169 280.72,389.4513 Q281.3138,389.17 281.9388,388.5919 L281.9388,391.3106 Z " fill="#000000"/><text fill="#000000" font-family="sans-serif" font-size="14" lengthAdjust="spacing" textLength="159.6396" x="292.97" y="390.5167">TrainCargoAssignment</text><line style="stroke:#181818;stroke-width:0.5;" x1="264.97" x2="454.6096" y1="401.67" y2="401.67"/><text fill="#000000" font-family="sans-serif" font-size="14" lengthAdjust="spacing" textLength="95.2656" x="269.97" y="418.6651">-cargo: Cargo</text><text fill="#000000" font-family="sans-serif" font-size="14" lengthAdjust="spacing" textLength="112.1709" x="269.97" y="434.962">-station: Station</text><text fill="#000000" font-family="sans-serif" font-size="14" lengthAdjust="spacing" textLength="90.8359" x="269.97" y="451.2589">-quantity: int</text><line style="stroke:#181818;stroke-width:0.5;" x1="264.97" x2="454.6096" y1="458.5606" y2="458.5606"/><text fill="#000000" font-family="sans-serif" font-size="14" lengthAdjust="spacing" textLength="176.3262" x="269.97" y="475.5557">+getDescription(): String</text></g><!--link Player to Train--><g class="link" data-entity-1="Player" data-entity-2="Train" data-source-line="55" data-uid="lnk8" id="link_Player_Train"><path codeLine="55" d="M238.79,104.04 C238.79,122.29 238.79,137.47 238.79,157.47" fill="none" id="Player-to-Train" style="stroke:#181818;stroke-width:1;"/><polygon fill="#181818" points="238.79,163.47,242.79,154.47,238.79,158.47,234.79,154.47,238.79,163.47" style="stroke:#181818;stroke-width:1;"/><text fill="#000000" font-family="sans-serif" font-size="13" lengthAdjust="spacing" textLength="33.5981" x="204.79" y="129.8169">owns</text><text fill="#000000" font-family="sans-serif" font-size="13" lengthAdjust="spacing" textLength="6.5" x="232.5273" y="152.841">*</text></g><!--link Train to Route--><g class="link" data-entity-1="Train" data-entity-2="Route" data-source-line="56" data-uid="lnk9" id="link_Train_Route"><path codeLine="56" d="M139.76,310.04 C139.76,329.72 139.76,344.71 139.76,363.36" fill="none" id="Train-to-Route" style="stroke:#181818;stroke-width:1;"/><polygon fill="#181818" points="139.76,369.36,143.76,360.36,139.76,364.36,135.76,360.36,139.76,369.36" style="stroke:#181818;stroke-width:1;"/><text fill="#000000" font-family="sans-serif" font-size="13" lengthAdjust="spacing" textLength="75.0483" x="63.76" y="335.7669">assigned to</text><text fill="#000000" font-family="sans-serif" font-size="13" lengthAdjust="spacing" textLength="8.271" x="133.9664" y="358.5858">1</text></g><!--reverse link Route to Station--><g class="link" data-entity-1="Route" data-entity-2="Station" data-source-line="57" data-uid="lnk10" id="link_Route_Station"><path codeLine="57" d="M136.67,495.14 C136.67,513.94 136.67,523 136.67,542.38" fill="none" id="Route-backto-Station" style="stroke:#181818;stroke-width:1;"/><polygon fill="#181818" points="136.67,483.14,132.67,489.14,136.67,495.14,140.67,489.14,136.67,483.14" style="stroke:#181818;stroke-width:1;"/><text fill="#000000" font-family="sans-serif" font-size="13" lengthAdjust="spacing" textLength="53.8726" x="137.67" y="508.8269">includes</text><text fill="#000000" font-family="sans-serif" font-size="13" lengthAdjust="spacing" textLength="8.271" x="130.4998" y="503.0608">1</text><text fill="#000000" font-family="sans-serif" font-size="13" lengthAdjust="spacing" textLength="23.0356" x="108.4517" y="531.9543">1..*</text></g><!--reverse link Station to Cargo--><g class="link" data-entity-1="Station" data-entity-2="Cargo" data-source-line="58" data-uid="lnk11" id="link_Station_Cargo"><path codeLine="58" d="M261.09,684.58 C261.09,704.25 261.09,713.52 261.09,731.95" fill="none" id="Station-backto-Cargo" style="stroke:#181818;stroke-width:1;"/><polygon fill="#181818" points="261.09,672.58,257.09,678.58,261.09,684.58,265.09,678.58,261.09,672.58" style="stroke:#181818;stroke-width:1;"/><text fill="#000000" font-family="sans-serif" font-size="13" lengthAdjust="spacing" textLength="39.9395" x="262.09" y="698.3269">stores</text><text fill="#000000" font-family="sans-serif" font-size="13" lengthAdjust="spacing" textLength="8.271" x="261.9971" y="692.5814">1</text><text fill="#000000" font-family="sans-serif" font-size="13" lengthAdjust="spacing" textLength="23.0356" x="235.5336" y="721.1041">0..*</text></g><!--link Train to TrainCargoAssignment--><g class="link" data-entity-1="Train" data-entity-2="TrainCargoAssignment" data-source-line="59" data-uid="lnk12" id="link_Train_TrainCargoAssignment"><path codeLine="59" d="M345.3,310.04 C345.3,329.72 345.3,344.71 345.3,363.36" fill="none" id="Train-to-TrainCargoAssignment" style="stroke:#181818;stroke-width:1;"/><polygon fill="#181818" points="345.3,369.36,349.3,360.36,345.3,364.36,341.3,360.36,345.3,369.36" style="stroke:#181818;stroke-width:1;"/><text fill="#000000" font-family="sans-serif" font-size="13" lengthAdjust="spacing" textLength="44.186" x="300.3" y="335.7669">carries</text><text fill="#000000" font-family="sans-serif" font-size="13" lengthAdjust="spacing" textLength="6.5" x="337.1989" y="358.5858">*</text></g><!--link TrainCargoAssignment to Cargo--><g class="link" data-entity-1="TrainCargoAssignment" data-entity-2="Cargo" data-source-line="60" data-uid="lnk13" id="link_TrainCargoAssignment_Cargo"><path codeLine="60" d="M313.52,483.22 C313.52,552.12 313.52,660.93 313.52,725.95" fill="none" id="TrainCargoAssignment-to-Cargo" style="stroke:#181818;stroke-width:1;"/><polygon fill="#181818" points="313.52,731.95,317.52,722.95,313.52,726.95,309.52,722.95,313.52,731.95" style="stroke:#181818;stroke-width:1;"/><text fill="#000000" font-family="sans-serif" font-size="13" lengthAdjust="spacing" textLength="55.2183" x="314.52" y="603.6569">refers to</text><text fill="#000000" font-family="sans-serif" font-size="13" lengthAdjust="spacing" textLength="8.271" x="311.4078" y="721.1041">1</text></g><!--link TrainCargoAssignment to Station--><g class="link" data-entity-1="TrainCargoAssignment" data-entity-2="Station" data-source-line="61" data-uid="lnk14" id="link_TrainCargoAssignment_Station"><path codeLine="61" d="M285.4,483.14 C285.4,501.94 285.4,517 285.4,536.38" fill="none" id="TrainCargoAssignment-to-Station" style="stroke:#181818;stroke-width:1;"/><polygon fill="#181818" points="285.4,542.38,289.4,533.38,285.4,537.38,281.4,533.38,285.4,542.38" style="stroke:#181818;stroke-width:1;"/><text fill="#000000" font-family="sans-serif" font-size="13" lengthAdjust="spacing" textLength="77.4604" x="207.4" y="508.8269">picked from</text><text fill="#000000" font-family="sans-serif" font-size="13" lengthAdjust="spacing" textLength="8.271" x="288.3051" y="531.9543">1</text></g><!--SRC=[ZPFFRjim3CRlUWeYbwvTNNHNOIXGR9S16p0iVG5LOHmYYkH9J8kisBjFVopNSeSYFiJHnq_YZnGTzcG7vTK1j54Xt3DxUZmoVjFEhkaFmgq8asLGUgzwNFF987ZKh6nlS6OmP95F0uBpl7D2NC1Feqxeo-4Y_rRfHK1yEjf88CjbOTK19QmZW-spyZ5keDu-U4NsmVroaUm3fuM4h5s3Jvg47BgKyEHe8_wcp3dU92xAMNaxhMAnnAUPIIlVk_lCSq3BGS9t2lmvd_gbZTqL-1wvQBWfw9SZw1JE-tueIriCdCBl79chojkRgefoNbM15PEp5NrTbg-qen0caicHau-h9dtLpWCmJcVxijcnLAnKkV1P1vyK6VLeCEiJsUZANFb_GrMK_p6byMopFoFrEvQmDKxnR7OM5_1sb9Q6brariY0qRPUrMKNzVLIMcn5BvNx5e3qDoPPg7K7BtQCfrxEZ8OZnC-gwErXThSRXbk2URH1baKEVLkE4I53ZB08xKRGKlUgw-BwvYMVKkqn4sXmt64IL9kTjTfR-IWZiF3RvAigoEH9YNpnLyp9SMUl17hVeGo9zr_vAF93UnzAstXt-0G00]--></g></svg>