<svg xmlns="http://www.w3.org/2000/svg" xmlns:xlink="http://www.w3.org/1999/xlink" contentStyleType="text/css" height="1966px" preserveAspectRatio="none" style="width:1781px;height:1966px;background:#FFFFFF;" version="1.1" viewBox="0 0 1781 1966" width="1781px" zoomAndPan="magnify"><title>Domain Model (DM) - General Domain Model</title><defs/><g><text fill="#000000" font-family="sans-serif" font-size="14" font-weight="bold" lengthAdjust="spacing" textLength="294.793" x="736.2439" y="29.1074">Domain Model (DM) - General Domain Model</text><!--class Editor--><g id="elem_Editor"><rect codeLine="20" fill="#F1F1F1" height="97.8633" id="Editor" rx="2.5" ry="2.5" style="stroke:#181818;stroke-width:0.5;" width="55.0205" x="389.5" y="67.6211"/><text fill="#000000" font-family="sans-serif" font-size="14" font-weight="bold" lengthAdjust="spacing" textLength="40.4414" x="396.7896" y="91.7285">Editor</text><line style="stroke:#181818;stroke-width:0.5;" x1="390.5" x2="443.5205" y1="104.2422" y2="104.2422"/><text fill="#000000" font-family="sans-serif" font-size="14" lengthAdjust="spacing" textLength="35.0205" x="399.5" y="127.3496">name</text><text fill="#000000" font-family="sans-serif" font-size="14" lengthAdjust="spacing" textLength="33.4551" x="399.5" y="153.9707">email</text></g><!--class Player--><g id="elem_Player"><rect codeLine="25" fill="#F1F1F1" height="124.4844" id="Player" rx="2.5" ry="2.5" style="stroke:#181818;stroke-width:0.5;" width="56.0342" x="1612" y="54.6211"/><text fill="#000000" font-family="sans-serif" font-size="14" font-weight="bold" lengthAdjust="spacing" textLength="42.0342" x="1619" y="78.7285">Player</text><line style="stroke:#181818;stroke-width:0.5;" x1="1613" x2="1667.0342" y1="91.2422" y2="91.2422"/><text fill="#000000" font-family="sans-serif" font-size="14" lengthAdjust="spacing" textLength="10.8965" x="1622" y="114.3496">id</text><text fill="#000000" font-family="sans-serif" font-size="14" lengthAdjust="spacing" textLength="35.0205" x="1622" y="140.9707">name</text><text fill="#000000" font-family="sans-serif" font-size="14" lengthAdjust="spacing" textLength="34.248" x="1622" y="167.5918">funds</text></g><!--class Map--><g id="elem_Map"><rect codeLine="33" fill="#F1F1F1" height="124.4844" id="Map" rx="2.5" ry="2.5" style="stroke:#181818;stroke-width:0.5;" width="58.1445" x="388" y="610.1211"/><text fill="#000000" font-family="sans-serif" font-size="14" font-weight="bold" lengthAdjust="spacing" textLength="28" x="403.0723" y="634.2285">Map</text><line style="stroke:#181818;stroke-width:0.5;" x1="389" x2="445.1445" y1="646.7422" y2="646.7422"/><text fill="#000000" font-family="sans-serif" font-size="14" lengthAdjust="spacing" textLength="35.0205" x="398" y="669.8496">name</text><text fill="#000000" font-family="sans-serif" font-size="14" lengthAdjust="spacing" textLength="32.6826" x="398" y="696.4707">width</text><text fill="#000000" font-family="sans-serif" font-size="14" lengthAdjust="spacing" textLength="38.1445" x="398" y="723.0918">height</text></g><!--class Scenario--><g id="elem_Scenario"><rect codeLine="39" fill="#F1F1F1" height="124.4844" id="Scenario" rx="2.5" ry="2.5" style="stroke:#181818;stroke-width:0.5;" width="78.3379" x="378" y="305.6211"/><text fill="#000000" font-family="sans-serif" font-size="14" font-weight="bold" lengthAdjust="spacing" textLength="59.1377" x="387.6001" y="329.7285">Scenario</text><line style="stroke:#181818;stroke-width:0.5;" x1="379" x2="455.3379" y1="342.2422" y2="342.2422"/><text fill="#000000" font-family="sans-serif" font-size="14" lengthAdjust="spacing" textLength="35.0205" x="388" y="365.3496">name</text><text fill="#000000" font-family="sans-serif" font-size="14" lengthAdjust="spacing" textLength="58.3379" x="388" y="391.9707">startTime</text><text fill="#000000" font-family="sans-serif" font-size="14" lengthAdjust="spacing" textLength="54.4688" x="388" y="418.5918">endTime</text></g><!--class Location--><g id="elem_Location"><rect codeLine="45" fill="#F1F1F1" height="97.8633" id="Location" rx="2.5" ry="2.5" style="stroke:#181818;stroke-width:0.5;" width="72.3311" x="398" y="1357.1211"/><text fill="#000000" font-family="sans-serif" font-size="14" font-weight="bold" lengthAdjust="spacing" textLength="58.3311" x="405" y="1381.2285">Location</text><line style="stroke:#181818;stroke-width:0.5;" x1="399" x2="469.3311" y1="1393.7422" y2="1393.7422"/><text fill="#000000" font-family="sans-serif" font-size="14" lengthAdjust="spacing" textLength="7" x="408" y="1416.8496">x</text><text fill="#000000" font-family="sans-serif" font-size="14" lengthAdjust="spacing" textLength="7" x="408" y="1443.4707">y</text></g><!--class City--><g id="elem_City"><rect codeLine="52" fill="#F1F1F1" height="124.4844" id="City" rx="2.5" ry="2.5" style="stroke:#181818;stroke-width:0.5;" width="163.9512" x="368" y="1012.6211"/><text fill="#000000" font-family="sans-serif" font-size="14" font-weight="bold" lengthAdjust="spacing" textLength="26.4482" x="436.7515" y="1036.7285">City</text><line style="stroke:#181818;stroke-width:0.5;" x1="369" x2="530.9512" y1="1049.2422" y2="1049.2422"/><text fill="#000000" font-family="sans-serif" font-size="14" lengthAdjust="spacing" textLength="35.0205" x="378" y="1072.3496">name</text><text fill="#000000" font-family="sans-serif" font-size="14" lengthAdjust="spacing" textLength="64.6133" x="378" y="1098.9707">population</text><text fill="#000000" font-family="sans-serif" font-size="14" lengthAdjust="spacing" textLength="143.9512" x="378" y="1125.5918">numberOfHouseBlocks</text></g><!--class Industry--><g id="elem_Industry"><rect codeLine="58" fill="#F1F1F1" height="71.2422" id="Industry" rx="2.5" ry="2.5" style="stroke:#181818;stroke-width:0.5;" width="69.2275" x="218.5" y="1039.1211"/><text fill="#000000" font-family="sans-serif" font-size="14" font-weight="bold" lengthAdjust="spacing" textLength="55.2275" x="225.5" y="1063.2285">Industry</text><line style="stroke:#181818;stroke-width:0.5;" x1="219.5" x2="286.7275" y1="1075.7422" y2="1075.7422"/><text fill="#000000" font-family="sans-serif" font-size="14" lengthAdjust="spacing" textLength="35.0205" x="228.5" y="1098.8496">name</text></g><!--class IndustryType--><g id="elem_IndustryType"><rect codeLine="62" fill="#F1F1F1" height="230.9688" id="IndustryType" rx="2.5" ry="2.5" style="stroke:#181818;stroke-width:0.5;" width="111.793" x="7" y="1290.6211"/><text fill="#000000" font-family="sans-serif" font-size="14" font-weight="bold" lengthAdjust="spacing" textLength="87.9033" x="18.9448" y="1314.7285">IndustryType</text><line style="stroke:#181818;stroke-width:0.5;" x1="8" x2="117.793" y1="1327.2422" y2="1327.2422"/><text fill="#000000" font-family="sans-serif" font-size="14" lengthAdjust="spacing" textLength="35" x="17" y="1350.3496">MINE</text><text fill="#000000" font-family="sans-serif" font-size="14" lengthAdjust="spacing" textLength="39.6621" x="17" y="1376.9707">FARM</text><text fill="#000000" font-family="sans-serif" font-size="14" lengthAdjust="spacing" textLength="56.7998" x="17" y="1403.5918">BAKERY</text><text fill="#000000" font-family="sans-serif" font-size="14" lengthAdjust="spacing" textLength="56.793" x="17" y="1430.2129">TEXTILE</text><text fill="#000000" font-family="sans-serif" font-size="14" lengthAdjust="spacing" textLength="91.793" x="17" y="1456.834">AUTOMOBILE</text><text fill="#000000" font-family="sans-serif" font-size="14" lengthAdjust="spacing" textLength="83.2617" x="17" y="1483.4551">STEEL_MILL</text><text fill="#000000" font-family="sans-serif" font-size="14" lengthAdjust="spacing" textLength="38.8896" x="17" y="1510.0762">PORT</text></g><!--class RailwayNetwork--><g id="elem_RailwayNetwork"><rect codeLine="73" fill="#F1F1F1" height="71.2422" id="RailwayNetwork" rx="2.5" ry="2.5" style="stroke:#181818;stroke-width:0.5;" width="121.3721" x="1262.5" y="81.1211"/><text fill="#000000" font-family="sans-serif" font-size="14" font-weight="bold" lengthAdjust="spacing" textLength="107.3721" x="1269.5" y="105.2285">RailwayNetwork</text><line style="stroke:#181818;stroke-width:0.5;" x1="1263.5" x2="1382.8721" y1="117.7422" y2="117.7422"/><text fill="#000000" font-family="sans-serif" font-size="14" lengthAdjust="spacing" textLength="48.248" x="1272.5" y="140.8496">stations</text></g><!--class Station--><g id="elem_Station"><rect codeLine="77" fill="#F1F1F1" height="177.7266" id="Station" rx="2.5" ry="2.5" style="stroke:#181818;stroke-width:0.5;" width="75.2617" x="1388.5" y="985.6211"/><text fill="#000000" font-family="sans-serif" font-size="14" font-weight="bold" lengthAdjust="spacing" textLength="47.4414" x="1402.4102" y="1009.7285">Station</text><line style="stroke:#181818;stroke-width:0.5;" x1="1389.5" x2="1462.7617" y1="1022.2422" y2="1022.2422"/><text fill="#000000" font-family="sans-serif" font-size="14" lengthAdjust="spacing" textLength="35.0205" x="1398.5" y="1045.3496">name</text><text fill="#000000" font-family="sans-serif" font-size="14" lengthAdjust="spacing" textLength="26.4619" x="1398.5" y="1071.9707">type</text><text fill="#000000" font-family="sans-serif" font-size="14" lengthAdjust="spacing" textLength="38.1309" x="1398.5" y="1098.5918">radius</text><text fill="#000000" font-family="sans-serif" font-size="14" lengthAdjust="spacing" textLength="25.6758" x="1398.5" y="1125.2129">cost</text><text fill="#000000" font-family="sans-serif" font-size="14" lengthAdjust="spacing" textLength="55.2617" x="1398.5" y="1151.834">buildings</text></g><!--class StationType--><g id="elem_StationType"><rect codeLine="85" fill="#F1F1F1" height="124.4844" id="StationType" rx="2.5" ry="2.5" style="stroke:#181818;stroke-width:0.5;" width="94.1172" x="1436" y="1344.1211"/><text fill="#000000" font-family="sans-serif" font-size="14" font-weight="bold" lengthAdjust="spacing" textLength="80.1172" x="1443" y="1368.2285">StationType</text><line style="stroke:#181818;stroke-width:0.5;" x1="1437" x2="1529.1172" y1="1380.7422" y2="1380.7422"/><text fill="#000000" font-family="sans-serif" font-size="14" lengthAdjust="spacing" textLength="48.2275" x="1446" y="1403.8496">DEPOT</text><text fill="#000000" font-family="sans-serif" font-size="14" lengthAdjust="spacing" textLength="60.6689" x="1446" y="1430.4707">STATION</text><text fill="#000000" font-family="sans-serif" font-size="14" lengthAdjust="spacing" textLength="70.7861" x="1446" y="1457.0918">TERMINAL</text></g><!--class Building--><g id="elem_Building"><rect codeLine="91" fill="#F1F1F1" height="71.2422" id="Building" rx="2.5" ry="2.5" style="stroke:#181818;stroke-width:0.5;" width="69.9863" x="1286" y="1370.6211"/><text fill="#000000" font-family="sans-serif" font-size="14" font-weight="bold" lengthAdjust="spacing" textLength="55.9863" x="1293" y="1394.7285">Building</text><line style="stroke:#181818;stroke-width:0.5;" x1="1287" x2="1354.9863" y1="1407.2422" y2="1407.2422"/><text fill="#000000" font-family="sans-serif" font-size="14" lengthAdjust="spacing" textLength="35.0205" x="1296" y="1430.3496">name</text></g><!--class Path--><g id="elem_Path"><rect codeLine="95" fill="#F1F1F1" height="71.2422" id="Path" rx="2.5" ry="2.5" style="stroke:#181818;stroke-width:0.5;" width="80.6963" x="1078.5" y="1039.1211"/><text fill="#000000" font-family="sans-serif" font-size="14" font-weight="bold" lengthAdjust="spacing" textLength="30.3379" x="1103.6792" y="1063.2285">Path</text><line style="stroke:#181818;stroke-width:0.5;" x1="1079.5" x2="1158.1963" y1="1075.7422" y2="1075.7422"/><text fill="#000000" font-family="sans-serif" font-size="14" lengthAdjust="spacing" textLength="60.6963" x="1088.5" y="1098.8496">segments</text></g><!--class Train--><g id="elem_Train"><rect codeLine="101" fill="#F1F1F1" height="71.2422" id="Train" rx="2.5" ry="2.5" style="stroke:#181818;stroke-width:0.5;" width="48.2275" x="1163" y="332.1211"/><text fill="#000000" font-family="sans-serif" font-size="14" font-weight="bold" lengthAdjust="spacing" textLength="34.2275" x="1170" y="356.2285">Train</text><line style="stroke:#181818;stroke-width:0.5;" x1="1164" x2="1210.2275" y1="368.7422" y2="368.7422"/><text fill="#000000" font-family="sans-serif" font-size="14" lengthAdjust="spacing" textLength="10.8965" x="1173" y="391.8496">id</text></g><!--class Locomotive--><g id="elem_Locomotive"><rect codeLine="105" fill="#F1F1F1" height="230.9688" id="Locomotive" rx="2.5" ry="2.5" style="stroke:#181818;stroke-width:0.5;" width="107.9238" x="789" y="556.6211"/><text fill="#000000" font-family="sans-serif" font-size="14" font-weight="bold" lengthAdjust="spacing" textLength="78.5654" x="803.6792" y="580.7285">Locomotive</text><line style="stroke:#181818;stroke-width:0.5;" x1="790" x2="895.9238" y1="593.2422" y2="593.2422"/><text fill="#000000" font-family="sans-serif" font-size="14" lengthAdjust="spacing" textLength="10.8965" x="799" y="616.3496">id</text><text fill="#000000" font-family="sans-serif" font-size="14" lengthAdjust="spacing" textLength="26.4619" x="799" y="642.9707">type</text><text fill="#000000" font-family="sans-serif" font-size="14" lengthAdjust="spacing" textLength="38.1309" x="799" y="669.5918">power</text><text fill="#000000" font-family="sans-serif" font-size="14" lengthAdjust="spacing" textLength="38.1445" x="799" y="696.2129">speed</text><text fill="#000000" font-family="sans-serif" font-size="14" lengthAdjust="spacing" textLength="25.6758" x="799" y="722.834">cost</text><text fill="#000000" font-family="sans-serif" font-size="14" lengthAdjust="spacing" textLength="87.9238" x="799" y="749.4551">availableFrom</text><text fill="#000000" font-family="sans-serif" font-size="14" lengthAdjust="spacing" textLength="83.2686" x="799" y="776.0762">availableUntil</text></g><!--class LocomotiveType--><g id="elem_LocomotiveType"><rect codeLine="115" fill="#F1F1F1" height="124.4844" id="LocomotiveType" rx="2.5" ry="2.5" style="stroke:#181818;stroke-width:0.5;" width="125.2412" x="630.5" y="1012.6211"/><text fill="#000000" font-family="sans-serif" font-size="14" font-weight="bold" lengthAdjust="spacing" textLength="111.2412" x="637.5" y="1036.7285">LocomotiveType</text><line style="stroke:#181818;stroke-width:0.5;" x1="631.5" x2="754.7412" y1="1049.2422" y2="1049.2422"/><text fill="#000000" font-family="sans-serif" font-size="14" lengthAdjust="spacing" textLength="48.2275" x="640.5" y="1072.3496">STEAM</text><text fill="#000000" font-family="sans-serif" font-size="14" lengthAdjust="spacing" textLength="49.7998" x="640.5" y="1098.9707">DIESEL</text><text fill="#000000" font-family="sans-serif" font-size="14" lengthAdjust="spacing" textLength="69.2344" x="640.5" y="1125.5918">ELECTRIC</text></g><!--class Carriage--><g id="elem_Carriage"><rect codeLine="121" fill="#F1F1F1" height="97.8633" id="Carriage" rx="2.5" ry="2.5" style="stroke:#181818;stroke-width:0.5;" width="86.1445" x="906" y="837.6211"/><text fill="#000000" font-family="sans-serif" font-size="14" font-weight="bold" lengthAdjust="spacing" textLength="56.8066" x="920.6689" y="861.7285">Carriage</text><line style="stroke:#181818;stroke-width:0.5;" x1="907" x2="991.1445" y1="874.2422" y2="874.2422"/><text fill="#000000" font-family="sans-serif" font-size="14" lengthAdjust="spacing" textLength="10.8965" x="916" y="897.3496">id</text><text fill="#000000" font-family="sans-serif" font-size="14" lengthAdjust="spacing" textLength="66.1445" x="916" y="923.9707">cargoType</text></g><!--class Cargo--><g id="elem_Cargo"><rect codeLine="126" fill="#F1F1F1" height="124.4844" id="Cargo" rx="2.5" ry="2.5" style="stroke:#181818;stroke-width:0.5;" width="69.0342" x="1139.5" y="610.1211"/><text fill="#000000" font-family="sans-serif" font-size="14" font-weight="bold" lengthAdjust="spacing" textLength="40.4482" x="1153.793" y="634.2285">Cargo</text><line style="stroke:#181818;stroke-width:0.5;" x1="1140.5" x2="1207.5342" y1="646.7422" y2="646.7422"/><text fill="#000000" font-family="sans-serif" font-size="14" lengthAdjust="spacing" textLength="26.4619" x="1149.5" y="669.8496">type</text><text fill="#000000" font-family="sans-serif" font-size="14" lengthAdjust="spacing" textLength="49.0342" x="1149.5" y="696.4707">quantity</text><text fill="#000000" font-family="sans-serif" font-size="14" lengthAdjust="spacing" textLength="37.3516" x="1149.5" y="723.0918">status</text></g><!--class CargoType--><g id="elem_CargoType"><rect codeLine="132" fill="#F1F1F1" height="230.9688" id="CargoType" rx="2.5" ry="2.5" style="stroke:#181818;stroke-width:0.5;" width="116.4756" x="737" y="1290.6211"/><text fill="#000000" font-family="sans-serif" font-size="14" font-weight="bold" lengthAdjust="spacing" textLength="73.124" x="758.6758" y="1314.7285">CargoType</text><line style="stroke:#181818;stroke-width:0.5;" x1="738" x2="852.4756" y1="1327.2422" y2="1327.2422"/><text fill="#000000" font-family="sans-serif" font-size="14" lengthAdjust="spacing" textLength="22.5723" x="747" y="1350.3496">unit</text><text fill="#000000" font-family="sans-serif" font-size="14" lengthAdjust="spacing" textLength="96.4756" x="747" y="1376.9707">PASSENGERS</text><text fill="#000000" font-family="sans-serif" font-size="14" lengthAdjust="spacing" textLength="32.6758" x="747" y="1403.5918">MAIL</text><text fill="#000000" font-family="sans-serif" font-size="14" lengthAdjust="spacing" textLength="38.124" x="747" y="1430.2129">COAL</text><text fill="#000000" font-family="sans-serif" font-size="14" lengthAdjust="spacing" textLength="73.124" x="747" y="1456.834">IRON_ORE</text><text fill="#000000" font-family="sans-serif" font-size="14" lengthAdjust="spacing" textLength="44.3516" x="747" y="1483.4551">STEEL</text><text fill="#000000" font-family="sans-serif" font-size="14" lengthAdjust="spacing" textLength="38.8965" x="747" y="1510.0762">CARS</text></g><!--class Route--><g id="elem_Route"><rect codeLine="142" fill="#F1F1F1" height="97.8633" id="Route" rx="2.5" ry="2.5" style="stroke:#181818;stroke-width:0.5;" width="68.248" x="1289" y="623.1211"/><text fill="#000000" font-family="sans-serif" font-size="14" font-weight="bold" lengthAdjust="spacing" textLength="39.6621" x="1303.293" y="647.2285">Route</text><line style="stroke:#181818;stroke-width:0.5;" x1="1290" x2="1356.248" y1="659.7422" y2="659.7422"/><text fill="#000000" font-family="sans-serif" font-size="14" lengthAdjust="spacing" textLength="48.248" x="1299" y="682.8496">stations</text><text fill="#000000" font-family="sans-serif" font-size="14" lengthAdjust="spacing" textLength="27.248" x="1299" y="709.4707">path</text></g><!--class BuildingType--><g id="elem_BuildingType"><rect codeLine="147" fill="#F1F1F1" height="310.832" id="BuildingType" rx="2.5" ry="2.5" style="stroke:#181818;stroke-width:0.5;" width="142.917" x="1249.5" y="1648.6211"/><text fill="#000000" font-family="sans-serif" font-size="14" font-weight="bold" lengthAdjust="spacing" textLength="88.6621" x="1276.6274" y="1672.7285">BuildingType</text><line style="stroke:#181818;stroke-width:0.5;" x1="1250.5" x2="1391.417" y1="1685.2422" y2="1685.2422"/><text fill="#000000" font-family="sans-serif" font-size="14" lengthAdjust="spacing" textLength="84.7998" x="1259.5" y="1708.3496">TELEGRAPH</text><text fill="#000000" font-family="sans-serif" font-size="14" lengthAdjust="spacing" textLength="84.7998" x="1259.5" y="1734.9707">TELEPHONE</text><text fill="#000000" font-family="sans-serif" font-size="14" lengthAdjust="spacing" textLength="91.0342" x="1259.5" y="1761.5918">SMALL_CAFE</text><text fill="#000000" font-family="sans-serif" font-size="14" lengthAdjust="spacing" textLength="92.5859" x="1259.5" y="1788.2129">LARGE_CAFE</text><text fill="#000000" font-family="sans-serif" font-size="14" lengthAdjust="spacing" textLength="70" x="1259.5" y="1814.834">CUSTOMS</text><text fill="#000000" font-family="sans-serif" font-size="14" lengthAdjust="spacing" textLength="97.2344" x="1259.5" y="1841.4551">POST_OFFICE</text><text fill="#000000" font-family="sans-serif" font-size="14" lengthAdjust="spacing" textLength="100.3721" x="1259.5" y="1868.0762">SMALL_HOTEL</text><text fill="#000000" font-family="sans-serif" font-size="14" lengthAdjust="spacing" textLength="101.9238" x="1259.5" y="1894.6973">LARGE_HOTEL</text><text fill="#000000" font-family="sans-serif" font-size="14" lengthAdjust="spacing" textLength="31.9033" x="1259.5" y="1921.3184">SILO</text><text fill="#000000" font-family="sans-serif" font-size="14" lengthAdjust="spacing" textLength="122.917" x="1259.5" y="1947.9395">LIQUID_STORAGE</text></g><!--link Editor to Scenario--><g id="link_Editor_Scenario"><path codeLine="161" d="M417,165.6311 C417,205.4811 417,256.4111 417,299.5111 " fill="none" id="Editor-to-Scenario" style="stroke:#181818;stroke-width:1.0;"/><polygon fill="#181818" points="417,305.5111,421,296.5111,417,300.5111,413,296.5111,417,305.5111" style="stroke:#181818;stroke-width:1.0;"/><text fill="#000000" font-family="sans-serif" font-size="13" font-style="italic" lengthAdjust="spacing" textLength="42.6309" x="422" y="247.6494">creates</text><text fill="#000000" font-family="sans-serif" font-size="13" font-style="italic" lengthAdjust="spacing" textLength="7.23" x="405.0525" y="191.5678">1</text><text fill="#000000" font-family="sans-serif" font-size="13" font-style="italic" lengthAdjust="spacing" textLength="5.0591" x="407.2738" y="290.3684">*</text></g><!--link Scenario to Map--><g id="link_Scenario_Map"><path codeLine="162" d="M417,429.8411 C417,482.3211 417,551.5411 417,604.0011 " fill="none" id="Scenario-to-Map" style="stroke:#181818;stroke-width:1.0;"/><polygon fill="#181818" points="417,610.0011,421,601.0011,417,605.0011,413,601.0011,417,610.0011" style="stroke:#181818;stroke-width:1.0;"/><text fill="#000000" font-family="sans-serif" font-size="13" font-style="italic" lengthAdjust="spacing" textLength="74.4326" x="422" y="498.6494">is defined for</text><text fill="#000000" font-family="sans-serif" font-size="13" font-style="italic" lengthAdjust="spacing" textLength="7.23" x="405.1738" y="456.0313">1</text><text fill="#000000" font-family="sans-serif" font-size="13" font-style="italic" lengthAdjust="spacing" textLength="7.23" x="405.1844" y="594.8573">1</text></g><!--link Scenario to LocomotiveType--><g id="link_Scenario_LocomotiveType"><path codeLine="163" d="M456.21,401.8511 C478.08,422.2711 504.22,450.1311 521,479.6211 C622.29,657.6111 667.2415,894.2072 684.0215,1006.2772 " fill="none" id="Scenario-to-LocomotiveType" style="stroke:#181818;stroke-width:1.0;"/><polygon fill="#181818" points="684.91,1012.2111,687.5332,1002.718,684.1696,1007.2662,679.6214,1003.9026,684.91,1012.2111" style="stroke:#181818;stroke-width:1.0;"/><text fill="#000000" font-family="sans-serif" font-size="13" font-style="italic" lengthAdjust="spacing" textLength="93.2153" x="644" y="677.6494">makes available</text><text fill="#000000" font-family="sans-serif" font-size="13" font-style="italic" lengthAdjust="spacing" textLength="5.0591" x="468.3273" y="398.7328">*</text><text fill="#000000" font-family="sans-serif" font-size="13" font-style="italic" lengthAdjust="spacing" textLength="5.0591" x="674.396" y="997.5044">*</text></g><!--link Scenario to IndustryType--><g id="link_Scenario_IndustryType"><path codeLine="164" d="M381.18,429.9211 C331.33,517.6011 241.18,685.1111 188,837.6211 C134.77,990.2811 100.1761,1168.271 81.0161,1284.481 " fill="none" id="Scenario-to-IndustryType" style="stroke:#181818;stroke-width:1.0;"/><polygon fill="#181818" points="80.04,1290.4011,85.4508,1282.1717,80.8534,1285.4677,77.5574,1280.8703,80.04,1290.4011" style="stroke:#181818;stroke-width:1.0;"/><text fill="#000000" font-family="sans-serif" font-size="13" font-style="italic" lengthAdjust="spacing" textLength="93.2153" x="193" y="892.1494">makes available</text><text fill="#000000" font-family="sans-serif" font-size="13" font-style="italic" lengthAdjust="spacing" textLength="5.0591" x="367.536" y="456.1201">*</text><text fill="#000000" font-family="sans-serif" font-size="13" font-style="italic" lengthAdjust="spacing" textLength="5.0591" x="71.7237" y="1275.2256">*</text></g><!--link Map to Industry--><g id="link_Map_Industry"><path codeLine="166" d="M391.91,734.3811 C357.01,819.6211 297.2337,965.6086 269.4337,1033.4986 " fill="none" id="Map-to-Industry" style="stroke:#181818;stroke-width:1.0;"/><polygon fill="#181818" points="267.16,1039.0511,274.2722,1032.2381,269.0547,1034.424,266.8688,1029.2065,267.16,1039.0511" style="stroke:#181818;stroke-width:1.0;"/><text fill="#000000" font-family="sans-serif" font-size="13" font-style="italic" lengthAdjust="spacing" textLength="48.4199" x="350" y="892.1494">contains</text><text fill="#000000" font-family="sans-serif" font-size="13" font-style="italic" lengthAdjust="spacing" textLength="7.23" x="377.3501" y="760.5757">1</text><text fill="#000000" font-family="sans-serif" font-size="13" font-style="italic" lengthAdjust="spacing" textLength="5.0591" x="259.4621" y="1023.8216">*</text></g><!--link Map to City--><g id="link_Map_City"><path codeLine="167" d="M422.05,734.3811 C428.26,809.7611 438.2473,931.0114 444.4573,1006.3814 " fill="none" id="Map-to-City" style="stroke:#181818;stroke-width:1.0;"/><polygon fill="#181818" points="444.95,1012.3611,448.1975,1003.063,444.5394,1007.378,440.2245,1003.7199,444.95,1012.3611" style="stroke:#181818;stroke-width:1.0;"/><text fill="#000000" font-family="sans-serif" font-size="13" font-style="italic" lengthAdjust="spacing" textLength="48.4199" x="444" y="892.1494">contains</text><text fill="#000000" font-family="sans-serif" font-size="13" font-style="italic" lengthAdjust="spacing" textLength="7.23" x="410.7867" y="760.5757">1</text><text fill="#000000" font-family="sans-serif" font-size="13" font-style="italic" lengthAdjust="spacing" textLength="5.0591" x="434.6926" y="997.202">*</text></g><!--link Map to Station--><g id="link_Map_Station"><path codeLine="168" d="M446.04,728.0611 C460.85,750.4511 481.06,774.1911 506,787.6211 C757.6,923.1011 883.37,727.3611 1147,837.6211 C1208.33,863.2711 1209.33,892.5911 1260,935.6211 C1303.71,972.7311 1349.8396,1010.9654 1383.5996,1038.7854 " fill="none" id="Map-to-Station" style="stroke:#181818;stroke-width:1.0;"/><polygon fill="#181818" points="1388.23,1042.6011,1383.8282,1033.7906,1384.3713,1039.4214,1378.7406,1039.9645,1388.23,1042.6011" style="stroke:#181818;stroke-width:1.0;"/><text fill="#000000" font-family="sans-serif" font-size="13" font-style="italic" lengthAdjust="spacing" textLength="48.4199" x="1265" y="892.1494">contains</text><text fill="#000000" font-family="sans-serif" font-size="13" font-style="italic" lengthAdjust="spacing" textLength="7.23" x="458.0425" y="730.5708">1</text><text fill="#000000" font-family="sans-serif" font-size="13" font-style="italic" lengthAdjust="spacing" textLength="19.5127" x="1357.0788" y="1028.579">0..*</text></g><!--link Industry to Location--><g id="link_Industry_Location"><path codeLine="171" d="M264.2,1110.1511 C275.87,1144.2611 295.68,1197.4611 319,1240.6211 C341.86,1282.9311 369.8643,1322.6405 394.1643,1354.6805 " fill="none" id="Industry-to-Location" style="stroke:#181818;stroke-width:1.0;"/><polygon fill="#181818" points="397.79,1359.4611,395.5385,1349.873,394.7686,1355.4773,389.1643,1354.7074,397.79,1359.4611" style="stroke:#181818;stroke-width:1.0;"/><text fill="#000000" font-family="sans-serif" font-size="13" font-style="italic" lengthAdjust="spacing" textLength="69.3799" x="324" y="1232.6494">has position</text><text fill="#000000" font-family="sans-serif" font-size="13" font-style="italic" lengthAdjust="spacing" textLength="7.23" x="253.8361" y="1136.4388">1</text><text fill="#000000" font-family="sans-serif" font-size="13" font-style="italic" lengthAdjust="spacing" textLength="7.23" x="378.9952" y="1341.9896">1</text></g><!--link Industry to IndustryType--><g id="link_Industry_IndustryType"><path codeLine="172" d="M233.03,1110.2611 C206.21,1156.7711 160.4767,1236.073 122.0467,1302.733 " fill="none" id="Industry-to-IndustryType" style="stroke:#181818;stroke-width:1.0;"/><polygon fill="#181818" points="119.05,1307.9311,127.0104,1302.1318,121.5473,1303.5994,120.0797,1298.1362,119.05,1307.9311" style="stroke:#181818;stroke-width:1.0;"/><text fill="#000000" font-family="sans-serif" font-size="13" font-style="italic" lengthAdjust="spacing" textLength="49.1436" x="175" y="1232.6494">has type</text><text fill="#000000" font-family="sans-serif" font-size="13" font-style="italic" lengthAdjust="spacing" textLength="5.0591" x="219.632" y="1136.2666">*</text><text fill="#000000" font-family="sans-serif" font-size="13" font-style="italic" lengthAdjust="spacing" textLength="7.23" x="130.8218" y="1287.4887">1</text></g><!--link Industry to CargoType--><g id="link_Industry_CargoType"><path codeLine="173" d="M274.28,1110.1511 C287.5,1128.7511 306.13,1150.5111 328,1163.6211 C417.35,1217.1811 463.03,1168.6611 557,1213.6211 C625.41,1246.3511 687.3147,1298.1337 732.4647,1341.1237 " fill="none" id="Industry-to-CargoType" style="stroke:#181818;stroke-width:1.0;"/><polygon fill="#181818" points="736.81,1345.2611,733.0503,1336.1581,733.1889,1341.8132,727.5338,1341.9518,736.81,1345.2611" style="stroke:#181818;stroke-width:1.0;"/><text fill="#000000" font-family="sans-serif" font-size="13" font-style="italic" lengthAdjust="spacing" textLength="88.8799" x="606" y="1232.6494">associated with</text><text fill="#000000" font-family="sans-serif" font-size="13" font-style="italic" lengthAdjust="spacing" textLength="7.23" x="283.2268" y="1136.4388">1</text><text fill="#000000" font-family="sans-serif" font-size="13" font-style="italic" lengthAdjust="spacing" textLength="5.0591" x="719.9005" y="1329.3683">*</text></g><!--link City to Location--><g id="link_City_Location"><path codeLine="175" d="M433.17,1136.9511 C427.46,1160.7011 421.82,1188.2411 419,1213.6211 C413.59,1262.3411 418.4405,1312.3189 424.3205,1351.0989 " fill="none" id="City-to-Location" style="stroke:#181818;stroke-width:1.0;"/><polygon fill="#181818" points="425.22,1357.0311,427.8256,1347.5332,424.4704,1352.0876,419.916,1348.7324,425.22,1357.0311" style="stroke:#181818;stroke-width:1.0;"/><text fill="#000000" font-family="sans-serif" font-size="13" font-style="italic" lengthAdjust="spacing" textLength="112.0107" x="424" y="1232.6494">has central position</text><text fill="#000000" font-family="sans-serif" font-size="13" font-style="italic" lengthAdjust="spacing" textLength="7.23" x="419.5242" y="1163.1534">1</text><text fill="#000000" font-family="sans-serif" font-size="13" font-style="italic" lengthAdjust="spacing" textLength="7.23" x="412.0256" y="1341.812">1</text></g><!--link Station to Location--><g id="link_Station_Location"><path codeLine="178" d="M1388.13,1092.0311 C1343.65,1110.9211 1267.38,1142.0911 1200,1163.6211 C980.37,1233.8111 915.21,1216.1311 697,1290.6211 C613.82,1319.0211 525.7137,1360.0527 475.6637,1384.4427 " fill="none" id="Station-to-Location" style="stroke:#181818;stroke-width:1.0;"/><polygon fill="#181818" points="470.27,1387.0711,480.1127,1386.7243,474.7647,1384.8808,476.6082,1379.5327,470.27,1387.0711" style="stroke:#181818;stroke-width:1.0;"/><text fill="#000000" font-family="sans-serif" font-size="13" font-style="italic" lengthAdjust="spacing" textLength="69.3799" x="1013" y="1232.6494">has position</text><text fill="#000000" font-family="sans-serif" font-size="13" font-style="italic" lengthAdjust="spacing" textLength="7.23" x="1369.3293" y="1085.9518">1</text><text fill="#000000" font-family="sans-serif" font-size="13" font-style="italic" lengthAdjust="spacing" textLength="7.23" x="482.3308" y="1374.3218">1</text></g><!--link Station to Building--><g id="link_Station_Building"><path codeLine="179" d="M1397.86,1163.9211 C1376.24,1231.7811 1349.3406,1316.164 1333.8606,1364.774 " fill="none" id="Station-to-Building" style="stroke:#181818;stroke-width:1.0;"/><polygon fill="#181818" points="1332.04,1370.4911,1338.5823,1363.1292,1333.5572,1365.7268,1330.9595,1360.7017,1332.04,1370.4911" style="stroke:#181818;stroke-width:1.0;"/><text fill="#000000" font-family="sans-serif" font-size="13" font-style="italic" lengthAdjust="spacing" textLength="20.96" x="1384" y="1232.6494">has</text><text fill="#000000" font-family="sans-serif" font-size="13" font-style="italic" lengthAdjust="spacing" textLength="7.23" x="1384.2415" y="1189.4461">1</text><text fill="#000000" font-family="sans-serif" font-size="13" font-style="italic" lengthAdjust="spacing" textLength="19.5127" x="1308.6624" y="1355.2513">0..*</text></g><!--link Station to StationType--><g id="link_Station_StationType"><path codeLine="180" d="M1441.27,1163.9211 C1451.12,1220.8211 1462.6476,1287.4488 1471.3976,1338.0488 " fill="none" id="Station-to-StationType" style="stroke:#181818;stroke-width:1.0;"/><polygon fill="#181818" points="1472.42,1343.9611,1474.8279,1334.4111,1471.568,1339.0342,1466.9449,1335.7743,1472.42,1343.9611" style="stroke:#181818;stroke-width:1.0;"/><text fill="#000000" font-family="sans-serif" font-size="13" font-style="italic" lengthAdjust="spacing" textLength="49.1436" x="1459" y="1232.6494">has type</text><text fill="#000000" font-family="sans-serif" font-size="13" font-style="italic" lengthAdjust="spacing" textLength="5.0591" x="1432.9066" y="1189.4461">*</text><text fill="#000000" font-family="sans-serif" font-size="13" font-style="italic" lengthAdjust="spacing" textLength="7.23" x="1459.4487" y="1328.8129">1</text></g><!--link Player to Station--><g id="link_Player_Station"><path codeLine="183" d="M1637.31,178.7311 C1629.64,317.2611 1601.53,664.2311 1505,935.6211 C1494.78,964.3611 1481.8044,988.891 1466.7844,1013.301 " fill="none" id="Player-to-Station" style="stroke:#181818;stroke-width:1.0;"/><polygon fill="#181818" points="1463.64,1018.4111,1471.7633,1012.8422,1466.2603,1014.1527,1464.9498,1008.6497,1463.64,1018.4111" style="stroke:#181818;stroke-width:1.0;"/><text fill="#000000" font-family="sans-serif" font-size="13" font-style="italic" lengthAdjust="spacing" textLength="52.0381" x="1613" y="498.6494">can build</text><text fill="#000000" font-family="sans-serif" font-size="13" font-style="italic" lengthAdjust="spacing" textLength="7.23" x="1625.2062" y="204.9093">1</text><text fill="#000000" font-family="sans-serif" font-size="13" font-style="italic" lengthAdjust="spacing" textLength="19.5127" x="1475.8104" y="1000.5337">0..*</text></g><!--link Player to Station--><g id="link_Player_Station"><path codeLine="184" d="M1668.07,163.4111 C1678.38,182.7911 1688.8,206.0711 1694,228.6211 C1696.69,240.3111 1694.1,243.6211 1694,255.6211 C1693.11,367.1911 1702.03,395.7011 1690,506.6211 C1676.26,633.3111 1667.24,664.8711 1633,787.6211 C1614.23,854.9211 1618.99,877.6411 1580,935.6211 C1548.75,982.0911 1503.2619,1019.6551 1468.6919,1044.6551 " fill="none" id="Player-to-Station-1" style="stroke:#181818;stroke-width:1.0;"/><polygon fill="#181818" points="1463.83,1048.1711,1473.4668,1046.1384,1467.8816,1045.2411,1468.7788,1039.6559,1463.83,1048.1711" style="stroke:#181818;stroke-width:1.0;"/><text fill="#000000" font-family="sans-serif" font-size="13" font-style="italic" lengthAdjust="spacing" textLength="72.2808" x="1697" y="498.6494">can upgrade</text><text fill="#000000" font-family="sans-serif" font-size="13" font-style="italic" lengthAdjust="spacing" textLength="7.23" x="1679.8724" y="163.9192">1</text><text fill="#000000" font-family="sans-serif" font-size="13" font-style="italic" lengthAdjust="spacing" textLength="19.5127" x="1475.7091" y="1035.2784">0..*</text></g><!--link Player to Train--><g id="link_Player_Train"><path codeLine="185" d="M1611.66,133.2011 C1528.86,178.7111 1293.5279,308.0608 1216.3779,350.4708 " fill="none" id="Player-to-Train" style="stroke:#181818;stroke-width:1.0;"/><polygon fill="#181818" points="1211.12,353.3611,1220.9338,352.5309,1215.5016,350.9525,1217.08,345.5203,1211.12,353.3611" style="stroke:#181818;stroke-width:1.0;"/><text fill="#000000" font-family="sans-serif" font-size="13" font-style="italic" lengthAdjust="spacing" textLength="48.4199" x="1432" y="247.6494">can own</text><text fill="#000000" font-family="sans-serif" font-size="13" font-style="italic" lengthAdjust="spacing" textLength="7.23" x="1592.8414" y="127.1008">1</text><text fill="#000000" font-family="sans-serif" font-size="13" font-style="italic" lengthAdjust="spacing" textLength="19.5127" x="1223.3806" y="340.541">0..*</text></g><!--link RailwayNetwork to Station--><g id="link_RailwayNetwork_Station"><path codeLine="188" d="M1372.08,152.3411 C1395.25,171.8011 1420.51,198.2611 1433,228.6211 C1488.45,363.3511 1454.2244,791.7196 1435.8344,979.6396 " fill="none" id="RailwayNetwork-to-Station" style="stroke:#181818;stroke-width:1.0;"/><polygon fill="#181818" points="1435.25,985.6111,1440.1075,977.0435,1435.737,980.6349,1432.1456,976.2643,1435.25,985.6111" style="stroke:#181818;stroke-width:1.0;"/><text fill="#000000" font-family="sans-serif" font-size="13" font-style="italic" lengthAdjust="spacing" textLength="53.479" x="1468" y="498.6494">manages</text><text fill="#000000" font-family="sans-serif" font-size="13" font-style="italic" lengthAdjust="spacing" textLength="7.23" x="1367.9549" y="178.3599">1</text><text fill="#000000" font-family="sans-serif" font-size="13" font-style="italic" lengthAdjust="spacing" textLength="19.5127" x="1411.9084" y="970.2565">0..*</text></g><!--link RailwayNetwork to Train--><g id="link_RailwayNetwork_Train"><path codeLine="189" d="M1262.47,149.2111 C1233.31,167.9911 1201.2,194.7911 1185,228.6211 C1169.47,261.0311 1171.7264,296.9435 1177.1664,326.0135 " fill="none" id="RailwayNetwork-to-Train" style="stroke:#181818;stroke-width:1.0;"/><polygon fill="#181818" points="1178.27,331.9111,1180.5463,322.3289,1177.3503,326.9964,1172.6828,323.8004,1178.27,331.9111" style="stroke:#181818;stroke-width:1.0;"/><text fill="#000000" font-family="sans-serif" font-size="13" font-style="italic" lengthAdjust="spacing" textLength="53.479" x="1190" y="247.6494">manages</text><text fill="#000000" font-family="sans-serif" font-size="13" font-style="italic" lengthAdjust="spacing" textLength="7.23" x="1243.1702" y="144.6909">1</text><text fill="#000000" font-family="sans-serif" font-size="13" font-style="italic" lengthAdjust="spacing" textLength="19.5127" x="1151.6118" y="316.9587">0..*</text></g><!--link Train to Locomotive--><g id="link_Train_Locomotive"><path codeLine="192" d="M1162.58,370.1611 C1105.39,375.1311 962.01,395.7611 888,479.6211 C869.13,501.0011 859.1917,522.9795 852.4717,550.7395 " fill="none" id="Train-to-Locomotive" style="stroke:#181818;stroke-width:1.0;"/><polygon fill="#181818" points="851.06,556.5711,857.0652,548.7649,852.2364,551.7115,849.2898,546.8826,851.06,556.5711" style="stroke:#181818;stroke-width:1.0;"/><text fill="#000000" font-family="sans-serif" font-size="13" font-style="italic" lengthAdjust="spacing" textLength="20.96" x="893" y="498.6494">has</text><text fill="#000000" font-family="sans-serif" font-size="13" font-style="italic" lengthAdjust="spacing" textLength="7.23" x="1143.7998" y="360.7676">1</text><text fill="#000000" font-family="sans-serif" font-size="13" font-style="italic" lengthAdjust="spacing" textLength="7.23" x="840.1057" y="541.4065">1</text></g><!--link Train to Carriage--><g id="link_Train_Carriage"><path codeLine="193" d="M1162.79,386.3911 C1137.22,406.3711 1097.44,441.0911 1074,479.6211 C1002.71,596.8211 970.006,752.121 956.916,831.521 " fill="none" id="Train-to-Carriage" style="stroke:#181818;stroke-width:1.0;"/><polygon fill="#181818" points="955.94,837.4411,961.3507,829.2116,956.7533,832.5077,953.4573,827.9103,955.94,837.4411" style="stroke:#181818;stroke-width:1.0;"/><text fill="#000000" font-family="sans-serif" font-size="13" font-style="italic" lengthAdjust="spacing" textLength="61.4136" x="1079" y="498.6494">consists of</text><text fill="#000000" font-family="sans-serif" font-size="13" font-style="italic" lengthAdjust="spacing" textLength="7.23" x="1143.6646" y="412.4386">1</text><text fill="#000000" font-family="sans-serif" font-size="13" font-style="italic" lengthAdjust="spacing" textLength="19.5127" x="932.0832" y="822.2099">1..*</text></g><!--link Train to Cargo--><g id="link_Train_Cargo"><path codeLine="194" d="M1179.09,403.4011 C1174.55,425.1711 1169.3,453.8811 1167,479.6211 C1163.12,523.0311 1164.5931,566.1778 1167.4031,603.7978 " fill="none" id="Train-to-Cargo" style="stroke:#181818;stroke-width:1.0;"/><polygon fill="#181818" points="1167.85,609.7811,1171.1685,600.5081,1167.4776,604.795,1163.1907,601.104,1167.85,609.7811" style="stroke:#181818;stroke-width:1.0;"/><text fill="#000000" font-family="sans-serif" font-size="13" font-style="italic" lengthAdjust="spacing" textLength="39.0063" x="1172" y="498.6494">carries</text><text fill="#000000" font-family="sans-serif" font-size="13" font-style="italic" lengthAdjust="spacing" textLength="7.23" x="1165.5379" y="429.4298">1</text><text fill="#000000" font-family="sans-serif" font-size="13" font-style="italic" lengthAdjust="spacing" textLength="19.5127" x="1142.8483" y="595.0816">0..*</text></g><!--link Train to Route--><g id="link_Train_Route"><path codeLine="195" d="M1202.6,403.3211 C1226.88,457.3311 1271.3201,556.1585 1298.8701,617.4485 " fill="none" id="Train-to-Route" style="stroke:#181818;stroke-width:1.0;"/><polygon fill="#181818" points="1301.33,622.9211,1301.2885,613.0723,1299.2801,618.3606,1293.9918,616.3522,1301.33,622.9211" style="stroke:#181818;stroke-width:1.0;"/><text fill="#000000" font-family="sans-serif" font-size="13" font-style="italic" lengthAdjust="spacing" textLength="39.7363" x="1251" y="498.6494">follows</text><text fill="#000000" font-family="sans-serif" font-size="13" font-style="italic" lengthAdjust="spacing" textLength="7.23" x="1192.9418" y="429.3366">1</text><text fill="#000000" font-family="sans-serif" font-size="13" font-style="italic" lengthAdjust="spacing" textLength="21.6836" x="1271.4989" y="607.6872">0..1</text></g><!--link Locomotive to LocomotiveType--><g id="link_Locomotive_LocomotiveType"><path codeLine="197" d="M800.02,787.8911 C772.62,861.0511 740.3046,947.3223 718.0146,1006.8323 " fill="none" id="Locomotive-to-LocomotiveType" style="stroke:#181818;stroke-width:1.0;"/><polygon fill="#181818" points="715.91,1012.4511,722.8127,1005.426,717.6638,1007.7688,715.321,1002.6199,715.91,1012.4511" style="stroke:#181818;stroke-width:1.0;"/><text fill="#000000" font-family="sans-serif" font-size="13" font-style="italic" lengthAdjust="spacing" textLength="52.0254" x="782" y="892.1494">is of type</text><text fill="#000000" font-family="sans-serif" font-size="13" font-style="italic" lengthAdjust="spacing" textLength="5.0591" x="788.0089" y="813.7457">*</text><text fill="#000000" font-family="sans-serif" font-size="13" font-style="italic" lengthAdjust="spacing" textLength="7.23" x="706.5949" y="997.3018">1</text></g><!--link Carriage to CargoType--><g id="link_Carriage_CargoType"><path codeLine="198" d="M949.7,935.7911 C949.2,1005.3111 942.6,1136.8211 904,1240.6211 C891.94,1273.0511 875.8732,1300.5874 856.6732,1327.9874 " fill="none" id="Carriage-to-CargoType" style="stroke:#181818;stroke-width:1.0;"/><polygon fill="#181818" points="853.23,1332.9011,861.6706,1327.826,856.0993,1328.8063,855.119,1323.2351,853.23,1332.9011" style="stroke:#181818;stroke-width:1.0;"/><text fill="#000000" font-family="sans-serif" font-size="13" font-style="italic" lengthAdjust="spacing" textLength="39.0063" x="953" y="1080.1494">carries</text><text fill="#000000" font-family="sans-serif" font-size="13" font-style="italic" lengthAdjust="spacing" textLength="5.0591" x="939.9879" y="961.3615">*</text><text fill="#000000" font-family="sans-serif" font-size="13" font-style="italic" lengthAdjust="spacing" textLength="7.23" x="865.6359" y="1314.9672">1</text></g><!--link Route to Station--><g id="link_Route_Station"><path codeLine="199" d="M1325.07,721.5111 C1328.4,774.9311 1337,862.9811 1359,935.6211 C1366.3,959.7111 1374.6616,979.4521 1385.6816,1001.5421 " fill="none" id="Route-to-Station" style="stroke:#181818;stroke-width:1.0;"/><polygon fill="#181818" points="1388.36,1006.9111,1387.9217,997.072,1386.128,1002.4369,1380.763,1000.6432,1388.36,1006.9111" style="stroke:#181818;stroke-width:1.0;"/><text fill="#000000" font-family="sans-serif" font-size="13" font-style="italic" lengthAdjust="spacing" textLength="48.4199" x="1364" y="892.1494">contains</text><text fill="#000000" font-family="sans-serif" font-size="13" font-style="italic" lengthAdjust="spacing" textLength="7.23" x="1313.4071" y="747.1083">1</text><text fill="#000000" font-family="sans-serif" font-size="13" font-style="italic" lengthAdjust="spacing" textLength="19.5127" x="1356.9107" y="986.7014">1..*</text></g><!--link Route to Path--><g id="link_Route_Path"><path codeLine="200" d="M1302.13,721.2911 C1289.81,744.4811 1272.06,770.8411 1249,787.6211 C1179.44,838.2511 1114.39,769.3811 1062,837.6211 C1015.93,897.6311 1059.2397,984.4677 1091.1797,1034.0277 " fill="none" id="Route-to-Path" style="stroke:#181818;stroke-width:1.0;"/><polygon fill="#181818" points="1094.43,1039.0711,1092.9168,1029.3392,1091.7214,1034.8683,1086.1923,1033.6729,1094.43,1039.0711" style="stroke:#181818;stroke-width:1.0;"/><text fill="#000000" font-family="sans-serif" font-size="13" font-style="italic" lengthAdjust="spacing" textLength="59.9917" x="1067" y="892.1494">defined by</text><text fill="#000000" font-family="sans-serif" font-size="13" font-style="italic" lengthAdjust="spacing" textLength="7.23" x="1287.6713" y="746.8615">1</text><text fill="#000000" font-family="sans-serif" font-size="13" font-style="italic" lengthAdjust="spacing" textLength="7.23" x="1077.9638" y="1023.845">1</text></g><!--link Building to BuildingType--><g id="link_Building_BuildingType"><path codeLine="202" d="M1321,1441.9211 C1321,1488.1511 1321,1566.8511 1321,1642.6111 " fill="none" id="Building-to-BuildingType" style="stroke:#181818;stroke-width:1.0;"/><polygon fill="#181818" points="1321,1648.6111,1325,1639.6111,1321,1643.6111,1317,1639.6111,1321,1648.6111" style="stroke:#181818;stroke-width:1.0;"/><text fill="#000000" font-family="sans-serif" font-size="13" font-style="italic" lengthAdjust="spacing" textLength="52.0254" x="1326" y="1590.6494">is of type</text><text fill="#000000" font-family="sans-serif" font-size="13" font-style="italic" lengthAdjust="spacing" textLength="7.23" x="1308.778" y="1467.9531">1</text><text fill="#000000" font-family="sans-serif" font-size="13" font-style="italic" lengthAdjust="spacing" textLength="7.23" x="1309.6443" y="1633.5125">1</text></g><!--SRC=[ZLLTR-Ce57tdLw2-TAPIHnrf7rPvMCbDdTPQfyxQhhJpL16R92WsU05F9ZkQ_xuNi359sjbvI31mBlVS3mxNkD37Xc95jMPygv3QCzuHILfSDKIfI6l9rhscIILumVwb-EuSiX1SkqFMegal3f1I72O8qwHX5GfG7QdsP4lTjgIL9dpRq02WTgGM1o27DwHHzCIqhitwRy4Q5pLLjCE_XpmbuNkp-FakNAtfXlIDBkat7JLiorlADQxWZqg4Tgock6Ao0YxskwLw9sg5a6OQc3w8bZ2Eb-2kmHyUbX_nBNwad4hIdEmXXAxnYwBIfOCg_46B3ZTqev5TmN7Dj93uEyAOavR2GC6yGJ_G05Wrv4WTWDKJQjDpeFF3EbYI3XDUOmNqYMJYr9cBwUDmdC46pWwirZiOTvHjTthoMen71LYbYTGbSoHvRR-yGIegefdWrk0R_8u1ETfGarvrIamQboElETF7q5adkhwn9vgrlbrJcMsUHA_eVIEglPey9xpkbPQ1DMnHCF4xvR6ZTdUPFCSmBA9y2SDzz6USVu6FClwxJ5Ap4xsKsJAxTvEYZEFqTPcaAKnMMLwQWwzn3kKva2DcV2C97DzNkfTq2grbTTtGCQu1_KprGSYzPM4pQI8BWYZqbBqX0nfOmo19pNe57vLG6ePrpvhQNjOnpC7MH_aGhxBIye_A97ks0UOGUfHE_kw7KqwIDZGSqJkxhEZMLcqeP2bDMvi-guZS1ass5bgBTWpOmOPs3Tj3j4AphtJgv270JXpWoe6xZj9wYfDyXSoHTKCNKhJX_8LhTpziyDF1FdweMsJg-v34HMng5wVnlCoJ-KHdJgHae3iJ6HkJEU84j7KNO63wJq_0jpwwkw3xgGJpqTh2UyvC1AkeAEBdnpWlJEj5YQ4opo8p97ds_9hblilCJWGuxpiNeBgk2cElGAQWCjxbM47ljOGm7_DezJHyhvuos-t5CahJrtcqC9CqoX_ZSJ9_AQ3T2zlTHVcQBHR9VB9uoafBp9cCio99CxEO_FMIFBo2VHuznkvYp8Kq6kvkhTgnJg51tQu-N-7Rsp_mrStLf2mpN4bAD5N8BtaSZ4OtPfWf8zICqnflX0oGDzE9PoqmmotPGr_wXddRwaGSBcsGyH_ozZ83lE51WoPN5nWhOk_jtttwPC8VBdg0WjJ5JY3XBYXcisVlcMaxXRpZC3jURcTuHvIt2y0t4_WiL6DWE_hoP1E3R-KPXauK5OCQrV1GGEyX6-1FU9Ytnho1dW_4DaPysXdZwgy4TO5rgVGQPk4JAeWybCOWS60rFAkaSfThcBvVBCATyluIik-s8Dlq7QnJI8SK1nw-ANnu9bh2GPrCIw2p1-HTlyv4_Gz-z3sYlQx35HhpRNjFWW11Rf7RFQlIAEKkyUSGwyWhh6rqnHIy_c9pZhqRiLkh1yQ6gZT0yEaKSGOoq3JY0Cm37c79BzI06SUkxfvKQ10s_CZ0EJiBwOshUuwxSg_dp8lM-eYGxzCGToBV9oJHVm00]--></g></svg>