<svg xmlns="http://www.w3.org/2000/svg" xmlns:xlink="http://www.w3.org/1999/xlink" contentStyleType="text/css" data-diagram-type="CLASS" height="155px" preserveAspectRatio="none" style="width:278px;height:155px;background:#FFFFFF;" version="1.1" viewBox="0 0 278 155" width="278px" zoomAndPan="magnify"><title>Domain Model for Map Creation</title><defs/><g><g class="title" data-source-line="1"><text fill="#000000" font-family="sans-serif" font-size="14" font-weight="bold" lengthAdjust="spacing" textLength="250.6123" x="10" y="22.9951">Domain Model for Map Creation</text></g><!--class Map--><g class="entity" data-entity="Map" data-source-line="3" data-uid="ent0002" id="entity_Map"><rect fill="#F1F1F1" height="96.8906" rx="2.5" ry="2.5" style="stroke:#181818;stroke-width:0.5;" width="61.5449" x="105.0337" y="44.2969"/><ellipse cx="120.0337" cy="60.2969" fill="#ADD1B2" rx="11" ry="11" style="stroke:#181818;stroke-width:1;"/><path d="M123.0024,65.9375 Q122.4243,66.2344 121.7837,66.375 Q121.1431,66.5313 120.4399,66.5313 Q117.9399,66.5313 116.6118,64.8906 Q115.2993,63.2344 115.2993,60.1094 Q115.2993,56.9844 116.6118,55.3281 Q117.9399,53.6719 120.4399,53.6719 Q121.1431,53.6719 121.7837,53.8281 Q122.4399,53.9844 123.0024,54.2813 L123.0024,57 Q122.3774,56.4219 121.7837,56.1563 Q121.1899,55.875 120.5649,55.875 Q119.2212,55.875 118.5337,56.9531 Q117.8462,58.0156 117.8462,60.1094 Q117.8462,62.2031 118.5337,63.2813 Q119.2212,64.3438 120.5649,64.3438 Q121.1899,64.3438 121.7837,64.0781 Q122.3774,63.7969 123.0024,63.2188 L123.0024,65.9375 Z " fill="#000000"/><text fill="#000000" font-family="sans-serif" font-size="14" lengthAdjust="spacing" textLength="29.5449" x="134.0337" y="65.1436">Map</text><line style="stroke:#181818;stroke-width:0.5;" x1="106.0337" x2="165.5786" y1="76.2969" y2="76.2969"/><text fill="#000000" font-family="sans-serif" font-size="14" lengthAdjust="spacing" textLength="39.7031" x="111.0337" y="93.292">name</text><text fill="#000000" font-family="sans-serif" font-size="14" lengthAdjust="spacing" textLength="38.5889" x="111.0337" y="109.5889">width</text><text fill="#000000" font-family="sans-serif" font-size="14" lengthAdjust="spacing" textLength="44.625" x="111.0337" y="125.8857">height</text><line style="stroke:#181818;stroke-width:0.5;" x1="106.0337" x2="165.5786" y1="133.1875" y2="133.1875"/></g><!--SRC=[7SZ12O0m30NGUwRuk-YrGmGRRQ1DIXlm8EvkyVJWXKOLxDvO3ScpL9m-aBXZ6yAXRaH7vJd_UmWmRhAuDKTP5j6h1BqV]--></g></svg>