<svg xmlns="http://www.w3.org/2000/svg" xmlns:xlink="http://www.w3.org/1999/xlink" contentStyleType="text/css" data-diagram-type="CLASS" height="155px" preserveAspectRatio="none" style="width:278px;height:155px;background:#FFFFFF;" version="1.1" viewBox="0 0 278 155" width="278px" zoomAndPan="magnify"><title>Domain Model for Map Creation</title><defs/><g><text fill="#000000" font-family="sans-serif" font-size="14" font-weight="bold" lengthAdjust="spacing" textLength="250.6123" x="10" y="22.9951">Domain Model for Map Creation</text><!--class Map--><g class="entity" data-entity="Map" data-source-line="3" data-uid="ent0002" id="entity_Map"><rect fill="#F1F1F1" height="96.8906" rx="2.5" ry="2.5" style="stroke:#181818;stroke-width:0.5;" width="111.9346" x="79.8389" y="44.2969"/><ellipse cx="117.5142" cy="60.2969" fill="#ADD1B2" rx="11" ry="11" style="stroke:#181818;stroke-width:1;"/><path d="M120.483,65.9375 Q119.9048,66.2344 119.2642,66.375 Q118.6236,66.5313 117.9205,66.5313 Q115.4205,66.5313 114.0923,64.8906 Q112.7798,63.2344 112.7798,60.1094 Q112.7798,56.9844 114.0923,55.3281 Q115.4205,53.6719 117.9205,53.6719 Q118.6236,53.6719 119.2642,53.8281 Q119.9205,53.9844 120.483,54.2813 L120.483,57 Q119.858,56.4219 119.2642,56.1563 Q118.6705,55.875 118.0455,55.875 Q116.7017,55.875 116.0142,56.9531 Q115.3267,58.0156 115.3267,60.1094 Q115.3267,62.2031 116.0142,63.2813 Q116.7017,64.3438 118.0455,64.3438 Q118.6705,64.3438 119.2642,64.0781 Q119.858,63.7969 120.483,63.2188 L120.483,65.9375 Z " fill="#000000"/><text fill="#000000" font-family="sans-serif" font-size="14" lengthAdjust="spacing" textLength="29.5449" x="136.5532" y="65.1436">Map</text><line style="stroke:#181818;stroke-width:0.5;" x1="80.8389" x2="190.7734" y1="76.2969" y2="76.2969"/><rect fill="none" height="6" style="stroke:#C82930;stroke-width:1;" width="6" x="87.8389" y="86.9453"/><text fill="#000000" font-family="sans-serif" font-size="14" lengthAdjust="spacing" textLength="85.9346" x="99.8389" y="93.292">String name</text><rect fill="none" height="6" style="stroke:#C82930;stroke-width:1;" width="6" x="87.8389" y="103.2422"/><text fill="#000000" font-family="sans-serif" font-size="14" lengthAdjust="spacing" textLength="61.291" x="99.8389" y="109.5889">int width</text><rect fill="none" height="6" style="stroke:#C82930;stroke-width:1;" width="6" x="87.8389" y="119.5391"/><text fill="#000000" font-family="sans-serif" font-size="14" lengthAdjust="spacing" textLength="67.3271" x="99.8389" y="125.8857">int height</text><line style="stroke:#181818;stroke-width:0.5;" x1="80.8389" x2="190.7734" y1="133.1875" y2="133.1875"/></g><!--SRC=[JSYn3O0m30NHFbFy1PW2sbHCO153B2KsIYnH87O78Ggkk-VYXJ5P9L54IromMaEa7MDZSZ4DOIdK-sjdmDE0sPle1gNAduWw3acUVvzPjkpXkW40]--></g></svg>