<svg xmlns="http://www.w3.org/2000/svg" xmlns:xlink="http://www.w3.org/1999/xlink" contentStyleType="text/css" data-diagram-type="CLASS" height="735px" preserveAspectRatio="none" style="width:681px;height:735px;background:#FFFFFF;" version="1.1" viewBox="0 0 681 735" width="681px" zoomAndPan="magnify"><title>Class Diagram (CD) - US11 List Trains</title><defs/><g><text fill="#000000" font-family="sans-serif" font-size="14" font-weight="bold" lengthAdjust="spacing" textLength="296.4404" x="185.2835" y="22.9951">Class Diagram (CD) - US11 List Trains</text><!--class TrainController--><g class="entity" data-entity="TrainController" data-source-line="7" data-uid="ent0002" id="entity_TrainController"><rect fill="#F1F1F1" height="80.5938" rx="2.5" ry="2.5" style="stroke:#181818;stroke-width:0.5;" width="238.1191" x="357.74" y="44.2969"/><ellipse cx="420.1384" cy="60.2969" fill="#C2C2C2" rx="11" ry="11" style="stroke:#181818;stroke-width:1;"/><path d="M423.1072,65.9375 Q422.5291,66.2344 421.8884,66.375 Q421.2478,66.5313 420.5447,66.5313 Q418.0447,66.5313 416.7166,64.8906 Q415.4041,63.2344 415.4041,60.1094 Q415.4041,56.9844 416.7166,55.3281 Q418.0447,53.6719 420.5447,53.6719 Q421.2478,53.6719 421.8884,53.8281 Q422.5447,53.9844 423.1072,54.2813 L423.1072,57 Q422.4822,56.4219 421.8884,56.1563 Q421.2947,55.875 420.6697,55.875 Q419.3259,55.875 418.6384,56.9531 Q417.9509,58.0156 417.9509,60.1094 Q417.9509,62.2031 418.6384,63.2813 Q419.3259,64.3438 420.6697,64.3438 Q421.2947,64.3438 421.8884,64.0781 Q422.4822,63.7969 423.1072,63.2188 L423.1072,65.9375 Z " fill="#000000"/><text fill="#000000" font-family="sans-serif" font-size="14" lengthAdjust="spacing" textLength="104.8223" x="440.6384" y="65.1436">TrainController</text><line style="stroke:#181818;stroke-width:0.5;" x1="358.74" x2="594.8591" y1="76.2969" y2="76.2969"/><rect fill="none" height="6" style="stroke:#595959;stroke-width:1;" width="6" x="365.74" y="86.9453"/><text fill="#000000" font-family="sans-serif" font-size="14" lengthAdjust="spacing" textLength="180.8857" x="377.74" y="93.292">trainService: TrainService</text><line style="stroke:#181818;stroke-width:0.5;" x1="358.74" x2="594.8591" y1="100.5938" y2="100.5938"/><ellipse cx="368.74" cy="114.2422" fill="#A6A6A6" rx="3" ry="3" style="stroke:#545454;stroke-width:1;"/><text fill="#000000" font-family="sans-serif" font-size="14" lengthAdjust="spacing" textLength="212.1191" x="377.74" y="117.5889">getAllTrains(): ResponseEntity</text></g><!--class TrainService--><g class="entity" data-entity="TrainService" data-source-line="12" data-uid="ent0003" id="entity_TrainService"><rect fill="#F1F1F1" height="129.4844" rx="2.5" ry="2.5" style="stroke:#181818;stroke-width:0.5;" width="303.7441" x="219.93" y="201.8869"/><ellipse cx="323.8568" cy="217.8869" fill="#C2C2C2" rx="11" ry="11" style="stroke:#181818;stroke-width:1;"/><path d="M326.8255,223.5275 Q326.2474,223.8244 325.6068,223.965 Q324.9661,224.1213 324.263,224.1213 Q321.763,224.1213 320.4349,222.4806 Q319.1224,220.8244 319.1224,217.6994 Q319.1224,214.5744 320.4349,212.9181 Q321.763,211.2619 324.263,211.2619 Q324.9661,211.2619 325.6068,211.4181 Q326.263,211.5744 326.8255,211.8713 L326.8255,214.59 Q326.2005,214.0119 325.6068,213.7463 Q325.013,213.465 324.388,213.465 Q323.0443,213.465 322.3568,214.5431 Q321.6693,215.6056 321.6693,217.6994 Q321.6693,219.7931 322.3568,220.8713 Q323.0443,221.9338 324.388,221.9338 Q325.013,221.9338 325.6068,221.6681 Q326.2005,221.3869 326.8255,220.8088 L326.8255,223.5275 Z " fill="#000000"/><text fill="#000000" font-family="sans-serif" font-size="14" lengthAdjust="spacing" textLength="87.3906" x="344.3568" y="222.7336">TrainService</text><line style="stroke:#181818;stroke-width:0.5;" x1="220.93" x2="522.6741" y1="233.8869" y2="233.8869"/><rect fill="none" height="6" style="stroke:#595959;stroke-width:1;" width="6" x="227.93" y="244.5353"/><text fill="#000000" font-family="sans-serif" font-size="14" lengthAdjust="spacing" textLength="227.5479" x="239.93" y="250.882">trainRepository: TrainRepository</text><rect fill="none" height="6" style="stroke:#595959;stroke-width:1;" width="6" x="227.93" y="260.8322"/><text fill="#000000" font-family="sans-serif" font-size="14" lengthAdjust="spacing" textLength="183.0049" x="239.93" y="267.1789">trainMapper: TrainMapper</text><line style="stroke:#181818;stroke-width:0.5;" x1="220.93" x2="522.6741" y1="274.4806" y2="274.4806"/><ellipse cx="230.93" cy="288.1291" fill="#A6A6A6" rx="3" ry="3" style="stroke:#545454;stroke-width:1;"/><text fill="#000000" font-family="sans-serif" font-size="14" lengthAdjust="spacing" textLength="277.7441" x="239.93" y="291.4757">getAllTrainsGrouped(): List&lt;TrainDTO&gt;</text><rect fill="#808080" height="6" style="stroke:#595959;stroke-width:1;" width="6" x="227.93" y="301.4259"/><text fill="#000000" font-family="sans-serif" font-size="14" lengthAdjust="spacing" textLength="268.8096" x="239.93" y="307.7726">groupByLocomotiveType(List&lt;Train&gt;)</text><rect fill="#808080" height="6" style="stroke:#595959;stroke-width:1;" width="6" x="227.93" y="317.7228"/><text fill="#000000" font-family="sans-serif" font-size="14" lengthAdjust="spacing" textLength="194.9063" x="239.93" y="324.0695">sortTrains(List&lt;TrainDTO&gt;)</text></g><!--class TrainRepository--><g class="entity" data-entity="TrainRepository" data-source-line="20" data-uid="ent0004" id="entity_TrainRepository"><rect fill="#F1F1F1" height="64.2969" rx="2.5" ry="2.5" style="stroke:#181818;stroke-width:0.5;" width="173.6084" x="7" y="416.5269"/><ellipse cx="35.899" cy="432.5269" fill="#C2C2C2" rx="11" ry="11" style="stroke:#181818;stroke-width:1;"/><path d="M38.8678,438.1675 Q38.2896,438.4644 37.649,438.605 Q37.0084,438.7613 36.3053,438.7613 Q33.8053,438.7613 32.4771,437.1206 Q31.1646,435.4644 31.1646,432.3394 Q31.1646,429.2144 32.4771,427.5581 Q33.8053,425.9019 36.3053,425.9019 Q37.0084,425.9019 37.649,426.0581 Q38.3053,426.2144 38.8678,426.5113 L38.8678,429.23 Q38.2428,428.6519 37.649,428.3863 Q37.0553,428.105 36.4303,428.105 Q35.0865,428.105 34.399,429.1831 Q33.7115,430.2456 33.7115,432.3394 Q33.7115,434.4331 34.399,435.5113 Q35.0865,436.5738 36.4303,436.5738 Q37.0553,436.5738 37.649,436.3081 Q38.2428,436.0269 38.8678,435.4488 L38.8678,438.1675 Z " fill="#000000"/><text fill="#000000" font-family="sans-serif" font-size="14" lengthAdjust="spacing" textLength="110.7217" x="52.9877" y="437.3736">TrainRepository</text><line style="stroke:#181818;stroke-width:0.5;" x1="8" x2="179.6084" y1="448.5269" y2="448.5269"/><line style="stroke:#181818;stroke-width:0.5;" x1="8" x2="179.6084" y1="456.5269" y2="456.5269"/><ellipse cx="18" cy="470.1753" fill="#A6A6A6" rx="3" ry="3" style="stroke:#545454;stroke-width:1;"/><text fill="#000000" font-family="sans-serif" font-size="14" lengthAdjust="spacing" textLength="147.6084" x="27" y="473.522">findAll(): List&lt;Train&gt;</text></g><!--class Train--><g class="entity" data-entity="Train" data-source-line="24" data-uid="ent0005" id="entity_Train"><rect fill="#F1F1F1" height="162.0781" rx="2.5" ry="2.5" style="stroke:#181818;stroke-width:0.5;" width="299.9707" x="32.82" y="565.9669"/><ellipse cx="160.7306" cy="581.9669" fill="#C2C2C2" rx="11" ry="11" style="stroke:#181818;stroke-width:1;"/><path d="M163.6994,587.6075 Q163.1213,587.9044 162.4806,588.045 Q161.84,588.2013 161.1369,588.2013 Q158.6369,588.2013 157.3088,586.5606 Q155.9963,584.9044 155.9963,581.7794 Q155.9963,578.6544 157.3088,576.9981 Q158.6369,575.3419 161.1369,575.3419 Q161.84,575.3419 162.4806,575.4981 Q163.1369,575.6544 163.6994,575.9513 L163.6994,578.67 Q163.0744,578.0919 162.4806,577.8263 Q161.8869,577.545 161.2619,577.545 Q159.9181,577.545 159.2306,578.6231 Q158.5431,579.6856 158.5431,581.7794 Q158.5431,583.8731 159.2306,584.9513 Q159.9181,586.0138 161.2619,586.0138 Q161.8869,586.0138 162.4806,585.7481 Q163.0744,585.4669 163.6994,584.8888 L163.6994,587.6075 Z " fill="#000000"/><text fill="#000000" font-family="sans-serif" font-size="14" lengthAdjust="spacing" textLength="35.6494" x="181.2306" y="586.8136">Train</text><line style="stroke:#181818;stroke-width:0.5;" x1="33.82" x2="331.7907" y1="597.9669" y2="597.9669"/><rect fill="none" height="6" style="stroke:#595959;stroke-width:1;" width="6" x="40.82" y="608.6153"/><text fill="#000000" font-family="sans-serif" font-size="14" lengthAdjust="spacing" textLength="56.0684" x="52.82" y="614.962">id: Long</text><rect fill="none" height="6" style="stroke:#595959;stroke-width:1;" width="6" x="40.82" y="624.9122"/><text fill="#000000" font-family="sans-serif" font-size="14" lengthAdjust="spacing" textLength="90.6514" x="52.82" y="631.2589">name: String</text><rect fill="none" height="6" style="stroke:#595959;stroke-width:1;" width="6" x="40.82" y="641.2091"/><text fill="#000000" font-family="sans-serif" font-size="14" lengthAdjust="spacing" textLength="236.1475" x="52.82" y="647.5557">locomotiveType: LocomotiveType</text><line style="stroke:#181818;stroke-width:0.5;" x1="33.82" x2="331.7907" y1="654.8575" y2="654.8575"/><ellipse cx="43.82" cy="668.5059" fill="#A6A6A6" rx="3" ry="3" style="stroke:#545454;stroke-width:1;"/><text fill="#000000" font-family="sans-serif" font-size="14" lengthAdjust="spacing" textLength="126.1641" x="52.82" y="671.8526">getName(): String</text><ellipse cx="43.82" cy="684.8028" fill="#A6A6A6" rx="3" ry="3" style="stroke:#545454;stroke-width:1;"/><text fill="#000000" font-family="sans-serif" font-size="14" lengthAdjust="spacing" textLength="273.9707" x="52.82" y="688.1495">getLocomotiveType(): LocomotiveType</text><ellipse cx="43.82" cy="701.0997" fill="#A6A6A6" rx="3" ry="3" style="stroke:#545454;stroke-width:1;"/><text fill="#000000" font-family="sans-serif" font-size="14" lengthAdjust="spacing" textLength="190.0459" x="52.82" y="704.4464">getCargoes(): List&lt;Cargo&gt;</text><ellipse cx="43.82" cy="717.3966" fill="#A6A6A6" rx="3" ry="3" style="stroke:#545454;stroke-width:1;"/><text fill="#000000" font-family="sans-serif" font-size="14" lengthAdjust="spacing" textLength="125.6172" x="52.82" y="720.7432">getRoute(): Route</text></g><!--class TrainDTO--><g class="entity" data-entity="TrainDTO" data-source-line="34" data-uid="ent0006" id="entity_TrainDTO"><rect fill="#F1F1F1" height="162.0781" rx="2.5" ry="2.5" style="stroke:#181818;stroke-width:0.5;" width="246.3975" x="427.61" y="565.9669"/><ellipse cx="513.5582" cy="581.9669" fill="#C2C2C2" rx="11" ry="11" style="stroke:#181818;stroke-width:1;"/><path d="M516.527,587.6075 Q515.9489,587.9044 515.3082,588.045 Q514.6676,588.2013 513.9645,588.2013 Q511.4645,588.2013 510.1364,586.5606 Q508.8239,584.9044 508.8239,581.7794 Q508.8239,578.6544 510.1364,576.9981 Q511.4645,575.3419 513.9645,575.3419 Q514.6676,575.3419 515.3082,575.4981 Q515.9645,575.6544 516.527,575.9513 L516.527,578.67 Q515.902,578.0919 515.3082,577.8263 Q514.7145,577.545 514.0895,577.545 Q512.7457,577.545 512.0582,578.6231 Q511.3707,579.6856 511.3707,581.7794 Q511.3707,583.8731 512.0582,584.9513 Q512.7457,586.0138 514.0895,586.0138 Q514.7145,586.0138 515.3082,585.7481 Q515.902,585.4669 516.527,584.8888 L516.527,587.6075 Z " fill="#000000"/><text fill="#000000" font-family="sans-serif" font-size="14" lengthAdjust="spacing" textLength="66.001" x="534.0582" y="586.8136">TrainDTO</text><line style="stroke:#181818;stroke-width:0.5;" x1="428.61" x2="673.0075" y1="597.9669" y2="597.9669"/><rect fill="none" height="6" style="stroke:#595959;stroke-width:1;" width="6" x="435.61" y="608.6153"/><text fill="#000000" font-family="sans-serif" font-size="14" lengthAdjust="spacing" textLength="90.6514" x="447.61" y="614.962">name: String</text><rect fill="none" height="6" style="stroke:#595959;stroke-width:1;" width="6" x="435.61" y="624.9122"/><text fill="#000000" font-family="sans-serif" font-size="14" lengthAdjust="spacing" textLength="162.4834" x="447.61" y="631.2589">locomotiveType: String</text><rect fill="none" height="6" style="stroke:#595959;stroke-width:1;" width="6" x="435.61" y="641.2091"/><text fill="#000000" font-family="sans-serif" font-size="14" lengthAdjust="spacing" textLength="184.4063" x="447.61" y="647.5557">cargoes: List&lt;CargoDTO&gt;</text><line style="stroke:#181818;stroke-width:0.5;" x1="428.61" x2="673.0075" y1="654.8575" y2="654.8575"/><ellipse cx="438.61" cy="668.5059" fill="#A6A6A6" rx="3" ry="3" style="stroke:#545454;stroke-width:1;"/><text fill="#000000" font-family="sans-serif" font-size="14" lengthAdjust="spacing" textLength="126.1641" x="447.61" y="671.8526">getName(): String</text><ellipse cx="438.61" cy="684.8028" fill="#A6A6A6" rx="3" ry="3" style="stroke:#545454;stroke-width:1;"/><text fill="#000000" font-family="sans-serif" font-size="14" lengthAdjust="spacing" textLength="200.3066" x="447.61" y="688.1495">getLocomotiveType(): String</text><ellipse cx="438.61" cy="701.0997" fill="#A6A6A6" rx="3" ry="3" style="stroke:#545454;stroke-width:1;"/><text fill="#000000" font-family="sans-serif" font-size="14" lengthAdjust="spacing" textLength="220.3975" x="447.61" y="704.4464">getCargoes(): List&lt;CargoDTO&gt;</text><ellipse cx="438.61" cy="717.3966" fill="#A6A6A6" rx="3" ry="3" style="stroke:#545454;stroke-width:1;"/><text fill="#000000" font-family="sans-serif" font-size="14" lengthAdjust="spacing" textLength="155.9688" x="447.61" y="720.7432">getRoute(): RouteDTO</text></g><!--class TrainMapper--><g class="entity" data-entity="TrainMapper" data-source-line="44" data-uid="ent0007" id="entity_TrainMapper"><rect fill="#F1F1F1" height="80.5938" rx="2.5" ry="2.5" style="stroke:#181818;stroke-width:0.5;" width="312.4873" x="215.56" y="408.3769"/><ellipse cx="323.3286" cy="424.3769" fill="#C2C2C2" rx="11" ry="11" style="stroke:#181818;stroke-width:1;"/><path d="M326.2973,430.0175 Q325.7192,430.3144 325.0786,430.455 Q324.4379,430.6113 323.7348,430.6113 Q321.2348,430.6113 319.9067,428.9706 Q318.5942,427.3144 318.5942,424.1894 Q318.5942,421.0644 319.9067,419.4081 Q321.2348,417.7519 323.7348,417.7519 Q324.4379,417.7519 325.0786,417.9081 Q325.7348,418.0644 326.2973,418.3613 L326.2973,421.08 Q325.6723,420.5019 325.0786,420.2363 Q324.4848,419.955 323.8598,419.955 Q322.5161,419.955 321.8286,421.0331 Q321.1411,422.0956 321.1411,424.1894 Q321.1411,426.2831 321.8286,427.3613 Q322.5161,428.4238 323.8598,428.4238 Q324.4848,428.4238 325.0786,428.1581 Q325.6723,427.8769 326.2973,427.2988 L326.2973,430.0175 Z " fill="#000000"/><text fill="#000000" font-family="sans-serif" font-size="14" lengthAdjust="spacing" textLength="88.4502" x="343.8286" y="429.2236">TrainMapper</text><line style="stroke:#181818;stroke-width:0.5;" x1="216.56" x2="527.0473" y1="440.3769" y2="440.3769"/><line style="stroke:#181818;stroke-width:0.5;" x1="216.56" x2="527.0473" y1="448.3769" y2="448.3769"/><ellipse cx="226.56" cy="462.0253" fill="#A6A6A6" rx="3" ry="3" style="stroke:#545454;stroke-width:1;"/><text fill="#000000" font-family="sans-serif" font-size="14" lengthAdjust="spacing" textLength="166.1475" x="235.56" y="465.372">toDTO(Train): TrainDTO</text><ellipse cx="226.56" cy="478.3222" fill="#A6A6A6" rx="3" ry="3" style="stroke:#545454;stroke-width:1;"/><text fill="#000000" font-family="sans-serif" font-size="14" lengthAdjust="spacing" textLength="286.4873" x="235.56" y="481.6689">toDTOList(List&lt;Train&gt;): List&lt;TrainDTO&gt;</text></g><!--link TrainController to TrainService--><g class="link" data-entity-1="TrainController" data-entity-2="TrainService" data-source-line="50" data-uid="lnk8" id="link_TrainController_TrainService"><path codeLine="50" d="M453.76,125.1069 C440.72,147.4669 427.1234,170.7843 412.2534,196.2743" fill="none" id="TrainController-to-TrainService" style="stroke:#181818;stroke-width:1;"/><polygon fill="#181818" points="409.23,201.4569,417.2201,195.6985,411.7495,197.138,410.31,191.6674,409.23,201.4569" style="stroke:#181818;stroke-width:1;"/><text fill="#000000" font-family="sans-serif" font-size="13" lengthAdjust="spacing" textLength="29.7832" x="433.8" y="167.9538">uses</text></g><!--link TrainService to TrainRepository--><g class="link" data-entity-1="TrainService" data-entity-2="TrainRepository" data-source-line="51" data-uid="lnk9" id="link_TrainService_TrainRepository"><path codeLine="51" d="M272.62,331.8669 C228.49,360.4469 183.5461,389.5554 147.6761,412.7854" fill="none" id="TrainService-to-TrainRepository" style="stroke:#181818;stroke-width:1;"/><polygon fill="#181818" points="142.64,416.0469,152.3685,414.5121,146.8368,413.329,148.0199,407.7972,142.64,416.0469" style="stroke:#181818;stroke-width:1;"/><text fill="#000000" font-family="sans-serif" font-size="13" lengthAdjust="spacing" textLength="29.7832" x="225.8" y="374.4438">uses</text></g><!--link TrainService to TrainMapper--><g class="link" data-entity-1="TrainService" data-entity-2="TrainMapper" data-source-line="52" data-uid="lnk10" id="link_TrainService_TrainMapper"><path codeLine="52" d="M371.8,331.8669 C371.8,357.3169 371.8,379.7669 371.8,402.0969" fill="none" id="TrainService-to-TrainMapper" style="stroke:#181818;stroke-width:1;"/><polygon fill="#181818" points="371.8,408.0969,375.8,399.0969,371.8,403.0969,367.8,399.0969,371.8,408.0969" style="stroke:#181818;stroke-width:1;"/><text fill="#000000" font-family="sans-serif" font-size="13" lengthAdjust="spacing" textLength="29.7832" x="372.8" y="374.4438">uses</text></g><!--link TrainController to TrainDTO--><g class="link" data-entity-1="TrainController" data-entity-2="TrainDTO" data-source-line="53" data-uid="lnk11" id="link_TrainController_TrainDTO"><path codeLine="53" d="M504.86,125.2469 C518.48,146.8369 533.45,174.6369 540.8,201.8869 C574.17,325.4869 569.0085,469.5611 560.8785,559.7811" fill="none" id="TrainController-to-TrainDTO" style="stroke:#181818;stroke-width:1;stroke-dasharray:7.0,7.0;"/><polygon fill="#181818" points="560.34,565.7569,565.1316,557.1522,560.7887,560.7771,557.1639,556.4342,560.34,565.7569" style="stroke:#181818;stroke-width:1;"/><text fill="#000000" font-family="sans-serif" font-size="13" lengthAdjust="spacing" textLength="47.0361" x="565.8" y="374.4438">returns</text></g><!--link TrainRepository to Train--><g class="link" data-entity-1="TrainRepository" data-entity-2="Train" data-source-line="54" data-uid="lnk12" id="link_TrainRepository_Train"><path codeLine="54" d="M108.1,481.2169 C118.47,504.0869 130.5023,530.6323 143.9823,560.3623" fill="none" id="TrainRepository-to-Train" style="stroke:#181818;stroke-width:1;stroke-dasharray:7.0,7.0;"/><polygon fill="#181818" points="146.46,565.8269,146.3865,555.9783,144.3953,561.2731,139.1004,559.2819,146.46,565.8269" style="stroke:#181818;stroke-width:1;"/><text fill="#000000" font-family="sans-serif" font-size="13" lengthAdjust="spacing" textLength="47.0361" x="131.8" y="532.0338">returns</text></g><!--link TrainMapper to TrainDTO--><g class="link" data-entity-1="TrainMapper" data-entity-2="TrainDTO" data-source-line="55" data-uid="lnk13" id="link_TrainMapper_TrainDTO"><path codeLine="55" d="M408.03,489.4069 C428.05,511.3669 449.6273,535.0333 473.6173,561.3433" fill="none" id="TrainMapper-to-TrainDTO" style="stroke:#181818;stroke-width:1;stroke-dasharray:7.0,7.0;"/><polygon fill="#181818" points="477.66,565.7769,474.5518,556.4314,474.2911,562.0822,468.6403,561.8216,477.66,565.7769" style="stroke:#181818;stroke-width:1;"/><text fill="#000000" font-family="sans-serif" font-size="13" lengthAdjust="spacing" textLength="48.3247" x="445.8" y="532.0338">creates</text></g><!--link TrainMapper to Train--><g class="link" data-entity-1="TrainMapper" data-entity-2="Train" data-source-line="56" data-uid="lnk14" id="link_TrainMapper_Train"><path codeLine="56" d="M333.56,489.4069 C312.42,511.3669 289.5314,535.1445 264.2014,561.4545" fill="none" id="TrainMapper-to-Train" style="stroke:#181818;stroke-width:1;"/><polygon fill="#181818" points="260.04,565.7769,269.1636,562.0676,263.5078,562.1749,263.4005,556.5191,260.04,565.7769" style="stroke:#181818;stroke-width:1;"/><text fill="#000000" font-family="sans-serif" font-size="13" lengthAdjust="spacing" textLength="29.7832" x="300.8" y="532.0338">uses</text></g><!--SRC=[bPJ1JkCm48RlUGhVjX4g4jS8HO9sjHTsaThk0rZfa5frF9Oz0KM8Tr_RSHCxB21kdPbl_fa_jclFGcbkUCSwLDYS37R0oFHGsAcYUNFcBUnfaC0CDCHLArF0dlWHNuHgsHEN5eg213bq8xcrR2juww7LPbkoDVkxlxbX3y8IEnWkb2sA9c0Xsg0YWrA2OQy5SpJvx1xCisYW6faOkV8LQu7kf1o5LcN5Tc0rAWi_bTjWADuoyTYOAkz0enM4PeZYSsA6VdEjmKHW3DuD_sMmrt3qEtXljo6xFJpMGQRrrVlX0HliaCGp70ODgnciou1PD1Izv2BbmicyPJ1pnPw4EhfTyl7reYiQ5qS7eMf3e7ZdlkkUZ8W9cUteoJI- -FxZslomgJ5a5_xAZxettBG8TjesnFMbkiEUGdFuiV3WlaQqyUNcIQaP1wRZujbyoqrU_w-BL3OtuYeBB-DLYYT8ldKLycKrUPrBVaHsOzvTD2V-mpq0oKcu9t0IsXRBDxLUr_bJg5Xl8NANt0Gbj-nJBlf8cMJczNKz7rtb_ZweDofYoOG9Mp9HVI7J6E04EJ8j55Vv1m00]--></g></svg>