<svg xmlns="http://www.w3.org/2000/svg" xmlns:xlink="http://www.w3.org/1999/xlink" contentStyleType="text/css" data-diagram-type="SEQUENCE" height="594px" preserveAspectRatio="none" style="width:826px;height:594px;background:#FFFFFF;" version="1.1" viewBox="0 0 826 594" width="826px" zoomAndPan="magnify"><title>Sequence Diagram (SD) - US11 List Trains</title><defs/><g><text fill="#000000" font-family="sans-serif" font-size="14" font-weight="bold" lengthAdjust="spacing" textLength="331.8848" x="246.5549" y="27.9951">Sequence Diagram (SD) - US11 List Trains</text><g><title>Player</title><rect fill="#FFFFFF" height="367.5938" style="stroke:#181818;stroke-width:1;" width="10" x="24.7827" y="128.5938"/></g><g><title>UI</title><rect fill="#FFFFFF" height="346.4609" style="stroke:#181818;stroke-width:1;" width="10" x="146.1074" y="149.7266"/></g><g><title>TrainController</title><rect fill="#FFFFFF" height="288.1953" style="stroke:#181818;stroke-width:1;" width="10" x="262.5908" y="178.8594"/></g><g><title>TrainService</title><rect fill="#FFFFFF" height="229.9297" style="stroke:#181818;stroke-width:1;" width="10" x="435.1875" y="207.9922"/></g><g><title>TrainRepository</title><rect fill="#FFFFFF" height="29.1328" style="stroke:#181818;stroke-width:1;" width="10" x="641.1836" y="237.125"/></g><g><title>TrainMapper</title><rect fill="#FFFFFF" height="29.1328" style="stroke:#181818;stroke-width:1;" width="10" x="764.7695" y="337.5234"/></g><g><title>Player</title><rect fill="#000000" fill-opacity="0.00000" height="395.5938" width="8" x="25.7827" y="118.5938"/><line style="stroke:#181818;stroke-width:0.5;stroke-dasharray:5.0,5.0;" x1="29" x2="29" y1="118.5938" y2="514.1875"/></g><g><title>UI</title><rect fill="#000000" fill-opacity="0.00000" height="395.5938" width="8" x="147.1074" y="118.5938"/><line style="stroke:#181818;stroke-width:0.5;stroke-dasharray:5.0,5.0;" x1="150.9194" x2="150.9194" y1="118.5938" y2="514.1875"/></g><g><title>TrainController</title><rect fill="#000000" fill-opacity="0.00000" height="395.5938" width="8" x="263.5908" y="118.5938"/><line style="stroke:#181818;stroke-width:0.5;stroke-dasharray:5.0,5.0;" x1="267.1797" x2="267.1797" y1="118.5938" y2="514.1875"/></g><g><title>TrainService</title><rect fill="#000000" fill-opacity="0.00000" height="395.5938" width="8" x="436.1875" y="118.5938"/><line style="stroke:#181818;stroke-width:0.5;stroke-dasharray:5.0,5.0;" x1="439.4922" x2="439.4922" y1="118.5938" y2="514.1875"/></g><g><title>TrainRepository</title><rect fill="#000000" fill-opacity="0.00000" height="395.5938" width="8" x="642.1836" y="118.5938"/><line style="stroke:#181818;stroke-width:0.5;stroke-dasharray:5.0,5.0;" x1="645.8228" x2="645.8228" y1="118.5938" y2="514.1875"/></g><g><title>TrainMapper</title><rect fill="#000000" fill-opacity="0.00000" height="395.5938" width="8" x="765.7695" y="118.5938"/><line style="stroke:#181818;stroke-width:0.5;stroke-dasharray:5.0,5.0;" x1="769.5444" x2="769.5444" y1="118.5938" y2="514.1875"/></g><g class="participant participant-head" data-participant="player"><text fill="#000000" font-family="sans-serif" font-size="14" lengthAdjust="spacing" textLength="43.5654" x="5" y="115.292">Player</text><ellipse cx="29.7827" cy="50.7969" fill="#E3E3E3" rx="8" ry="8" style="stroke:#181818;stroke-width:0.5;"/><path d="M29.7827,58.7969 L29.7827,85.7969 M16.7827,66.7969 L42.7827,66.7969 M29.7827,85.7969 L16.7827,100.7969 M29.7827,85.7969 L42.7827,100.7969" fill="none" style="stroke:#181818;stroke-width:0.5;"/></g><g class="participant participant-tail" data-participant="player"><text fill="#000000" font-family="sans-serif" font-size="14" lengthAdjust="spacing" textLength="43.5654" x="5" y="526.1826">Player</text><ellipse cx="29.7827" cy="537.9844" fill="#E3E3E3" rx="8" ry="8" style="stroke:#181818;stroke-width:0.5;"/><path d="M29.7827,545.9844 L29.7827,572.9844 M16.7827,553.9844 L42.7827,553.9844 M29.7827,572.9844 L16.7827,587.9844 M29.7827,572.9844 L42.7827,587.9844" fill="none" style="stroke:#181818;stroke-width:0.5;"/></g><g class="participant participant-head" data-participant="ui"><rect fill="#E3E3E3" height="30.2969" rx="2.5" ry="2.5" style="stroke:#181818;stroke-width:0.5;" width="28.376" x="136.9194" y="87.2969"/><text fill="#000000" font-family="sans-serif" font-size="14" lengthAdjust="spacing" textLength="14.376" x="143.9194" y="107.292">UI</text></g><g class="participant participant-tail" data-participant="ui"><rect fill="#E3E3E3" height="30.2969" rx="2.5" ry="2.5" style="stroke:#181818;stroke-width:0.5;" width="28.376" x="136.9194" y="513.1875"/><text fill="#000000" font-family="sans-serif" font-size="14" lengthAdjust="spacing" textLength="14.376" x="143.9194" y="533.1826">UI</text></g><g class="participant participant-head" data-participant="ctrl"><rect fill="#E3E3E3" height="30.2969" rx="2.5" ry="2.5" style="stroke:#181818;stroke-width:0.5;" width="118.8223" x="208.1797" y="87.2969"/><text fill="#000000" font-family="sans-serif" font-size="14" lengthAdjust="spacing" textLength="104.8223" x="215.1797" y="107.292">TrainController</text></g><g class="participant participant-tail" data-participant="ctrl"><rect fill="#E3E3E3" height="30.2969" rx="2.5" ry="2.5" style="stroke:#181818;stroke-width:0.5;" width="118.8223" x="208.1797" y="513.1875"/><text fill="#000000" font-family="sans-serif" font-size="14" lengthAdjust="spacing" textLength="104.8223" x="215.1797" y="533.1826">TrainController</text></g><g class="participant participant-head" data-participant="svc"><rect fill="#E3E3E3" height="30.2969" rx="2.5" ry="2.5" style="stroke:#181818;stroke-width:0.5;" width="101.3906" x="389.4922" y="87.2969"/><text fill="#000000" font-family="sans-serif" font-size="14" lengthAdjust="spacing" textLength="87.3906" x="396.4922" y="107.292">TrainService</text></g><g class="participant participant-tail" data-participant="svc"><rect fill="#E3E3E3" height="30.2969" rx="2.5" ry="2.5" style="stroke:#181818;stroke-width:0.5;" width="101.3906" x="389.4922" y="513.1875"/><text fill="#000000" font-family="sans-serif" font-size="14" lengthAdjust="spacing" textLength="87.3906" x="396.4922" y="533.1826">TrainService</text></g><g class="participant participant-head" data-participant="repo"><rect fill="#E3E3E3" height="30.2969" rx="2.5" ry="2.5" style="stroke:#181818;stroke-width:0.5;" width="124.7217" x="583.8228" y="87.2969"/><text fill="#000000" font-family="sans-serif" font-size="14" lengthAdjust="spacing" textLength="110.7217" x="590.8228" y="107.292">TrainRepository</text></g><g class="participant participant-tail" data-participant="repo"><rect fill="#E3E3E3" height="30.2969" rx="2.5" ry="2.5" style="stroke:#181818;stroke-width:0.5;" width="124.7217" x="583.8228" y="513.1875"/><text fill="#000000" font-family="sans-serif" font-size="14" lengthAdjust="spacing" textLength="110.7217" x="590.8228" y="533.1826">TrainRepository</text></g><g class="participant participant-head" data-participant="mapper"><rect fill="#E3E3E3" height="30.2969" rx="2.5" ry="2.5" style="stroke:#181818;stroke-width:0.5;" width="102.4502" x="718.5444" y="87.2969"/><text fill="#000000" font-family="sans-serif" font-size="14" lengthAdjust="spacing" textLength="88.4502" x="725.5444" y="107.292">TrainMapper</text></g><g class="participant participant-tail" data-participant="mapper"><rect fill="#E3E3E3" height="30.2969" rx="2.5" ry="2.5" style="stroke:#181818;stroke-width:0.5;" width="102.4502" x="718.5444" y="513.1875"/><text fill="#000000" font-family="sans-serif" font-size="14" lengthAdjust="spacing" textLength="88.4502" x="725.5444" y="533.1826">TrainMapper</text></g><g><title>Player</title><rect fill="#FFFFFF" height="367.5938" style="stroke:#181818;stroke-width:1;" width="10" x="24.7827" y="128.5938"/></g><g><title>UI</title><rect fill="#FFFFFF" height="346.4609" style="stroke:#181818;stroke-width:1;" width="10" x="146.1074" y="149.7266"/></g><g><title>TrainController</title><rect fill="#FFFFFF" height="288.1953" style="stroke:#181818;stroke-width:1;" width="10" x="262.5908" y="178.8594"/></g><g><title>TrainService</title><rect fill="#FFFFFF" height="229.9297" style="stroke:#181818;stroke-width:1;" width="10" x="435.1875" y="207.9922"/></g><g><title>TrainRepository</title><rect fill="#FFFFFF" height="29.1328" style="stroke:#181818;stroke-width:1;" width="10" x="641.1836" y="237.125"/></g><g><title>TrainMapper</title><rect fill="#FFFFFF" height="29.1328" style="stroke:#181818;stroke-width:1;" width="10" x="764.7695" y="337.5234"/></g><g class="message" data-participant-1="player" data-participant-2="ui"><polygon fill="#181818" points="134.1074,145.7266,144.1074,149.7266,134.1074,153.7266,138.1074,149.7266" style="stroke:#181818;stroke-width:1;"/><line style="stroke:#181818;stroke-width:1;" x1="34.7827" x2="140.1074" y1="149.7266" y2="149.7266"/><text fill="#000000" font-family="sans-serif" font-size="13" lengthAdjust="spacing" textLength="69.1133" x="41.7827" y="144.6606">listTrains()</text></g><g class="message" data-participant-1="ui" data-participant-2="ctrl"><polygon fill="#181818" points="250.5908,174.8594,260.5908,178.8594,250.5908,182.8594,254.5908,178.8594" style="stroke:#181818;stroke-width:1;"/><line style="stroke:#181818;stroke-width:1;" x1="156.1074" x2="256.5908" y1="178.8594" y2="178.8594"/><text fill="#000000" font-family="sans-serif" font-size="13" lengthAdjust="spacing" textLength="87.4834" x="163.1074" y="173.7935">getAllTrains()</text></g><g class="message" data-participant-1="ctrl" data-participant-2="svc"><polygon fill="#181818" points="423.1875,203.9922,433.1875,207.9922,423.1875,211.9922,427.1875,207.9922" style="stroke:#181818;stroke-width:1;"/><line style="stroke:#181818;stroke-width:1;" x1="272.5908" x2="429.1875" y1="207.9922" y2="207.9922"/><text fill="#000000" font-family="sans-serif" font-size="13" lengthAdjust="spacing" textLength="143.5967" x="279.5908" y="202.9263">getAllTrainsGrouped()</text></g><g class="message" data-participant-1="svc" data-participant-2="repo"><polygon fill="#181818" points="629.1836,233.125,639.1836,237.125,629.1836,241.125,633.1836,237.125" style="stroke:#181818;stroke-width:1;"/><line style="stroke:#181818;stroke-width:1;" x1="445.1875" x2="635.1836" y1="237.125" y2="237.125"/><text fill="#000000" font-family="sans-serif" font-size="13" lengthAdjust="spacing" textLength="50.9399" x="452.1875" y="232.0591">findAll()</text></g><g class="message" data-participant-1="repo" data-participant-2="svc"><polygon fill="#181818" points="456.1875,262.2578,446.1875,266.2578,456.1875,270.2578,452.1875,266.2578" style="stroke:#181818;stroke-width:1;"/><line style="stroke:#181818;stroke-width:1;stroke-dasharray:2.0,2.0;" x1="450.1875" x2="645.1836" y1="266.2578" y2="266.2578"/><text fill="#000000" font-family="sans-serif" font-size="13" lengthAdjust="spacing" textLength="77.6128" x="462.1875" y="261.1919">List&lt;Train&gt;</text></g><g class="message" data-participant-1="svc" data-participant-2="svc"><line style="stroke:#181818;stroke-width:1;" x1="445.1875" x2="487.1875" y1="295.3906" y2="295.3906"/><line style="stroke:#181818;stroke-width:1;" x1="487.1875" x2="487.1875" y1="295.3906" y2="308.3906"/><line style="stroke:#181818;stroke-width:1;" x1="446.1875" x2="487.1875" y1="308.3906" y2="308.3906"/><polygon fill="#181818" points="456.1875,304.3906,446.1875,308.3906,456.1875,312.3906,452.1875,308.3906" style="stroke:#181818;stroke-width:1;"/><text fill="#000000" font-family="sans-serif" font-size="13" lengthAdjust="spacing" textLength="171.9961" x="452.1875" y="290.3247">groupByLocomotiveType()</text></g><g class="message" data-participant-1="svc" data-participant-2="mapper"><polygon fill="#181818" points="752.7695,333.5234,762.7695,337.5234,752.7695,341.5234,756.7695,337.5234" style="stroke:#181818;stroke-width:1;"/><line style="stroke:#181818;stroke-width:1;" x1="445.1875" x2="758.7695" y1="337.5234" y2="337.5234"/><text fill="#000000" font-family="sans-serif" font-size="13" lengthAdjust="spacing" textLength="88.4102" x="452.1875" y="332.4575">toDTO(trains)</text></g><g class="message" data-participant-1="mapper" data-participant-2="svc"><polygon fill="#181818" points="456.1875,362.6563,446.1875,366.6563,456.1875,370.6563,452.1875,366.6563" style="stroke:#181818;stroke-width:1;"/><line style="stroke:#181818;stroke-width:1;stroke-dasharray:2.0,2.0;" x1="450.1875" x2="768.7695" y1="366.6563" y2="366.6563"/><text fill="#000000" font-family="sans-serif" font-size="13" lengthAdjust="spacing" textLength="105.7964" x="462.1875" y="361.5903">List&lt;TrainDTO&gt;</text></g><g class="message" data-participant-1="svc" data-participant-2="svc"><line style="stroke:#181818;stroke-width:1;" x1="445.1875" x2="487.1875" y1="395.7891" y2="395.7891"/><line style="stroke:#181818;stroke-width:1;" x1="487.1875" x2="487.1875" y1="395.7891" y2="408.7891"/><line style="stroke:#181818;stroke-width:1;" x1="446.1875" x2="487.1875" y1="408.7891" y2="408.7891"/><polygon fill="#181818" points="456.1875,404.7891,446.1875,408.7891,456.1875,412.7891,452.1875,408.7891" style="stroke:#181818;stroke-width:1;"/><text fill="#000000" font-family="sans-serif" font-size="13" lengthAdjust="spacing" textLength="127.2642" x="452.1875" y="390.7231">sortAlphabetically()</text></g><g class="message" data-participant-1="svc" data-participant-2="ctrl"><polygon fill="#181818" points="283.5908,433.9219,273.5908,437.9219,283.5908,441.9219,279.5908,437.9219" style="stroke:#181818;stroke-width:1;"/><line style="stroke:#181818;stroke-width:1;stroke-dasharray:2.0,2.0;" x1="277.5908" x2="439.1875" y1="437.9219" y2="437.9219"/><text fill="#000000" font-family="sans-serif" font-size="13" lengthAdjust="spacing" textLength="94.1675" x="289.5908" y="432.856">groupedTrains</text></g><g class="message" data-participant-1="ctrl" data-participant-2="ui"><polygon fill="#181818" points="167.1074,463.0547,157.1074,467.0547,167.1074,471.0547,163.1074,467.0547" style="stroke:#181818;stroke-width:1;"/><line style="stroke:#181818;stroke-width:1;stroke-dasharray:2.0,2.0;" x1="161.1074" x2="266.5908" y1="467.0547" y2="467.0547"/><text fill="#000000" font-family="sans-serif" font-size="13" lengthAdjust="spacing" textLength="59.7568" x="173.1074" y="461.9888">trainsList</text></g><g class="message" data-participant-1="ui" data-participant-2="player"><polygon fill="#181818" points="40.7827,492.1875,30.7827,496.1875,40.7827,500.1875,36.7827,496.1875" style="stroke:#181818;stroke-width:1;"/><line style="stroke:#181818;stroke-width:1;stroke-dasharray:2.0,2.0;" x1="34.7827" x2="150.1074" y1="496.1875" y2="496.1875"/><text fill="#000000" font-family="sans-serif" font-size="13" lengthAdjust="spacing" textLength="87.3247" x="46.7827" y="491.1216">display trains</text></g><!--SRC=[RPB1JiCm38RlUGfhf-sm0zS9JG8c8QGX4DqUmAHU5orDGf8DzUrnqgvaq5FJ-hFp_xyRJieuzDX2QusLHszRWkZF9C9OSIXFs50LEqtWIKOqZIw1SCJQVYlJm05r826YYenMz7Kc8mas2fl4pQlD0fQmh-xkOAj2X9r7PO8GAAFrC7lNs96V0GPm-IXuVbHIEJGHPlkNN3ghsyzvo9CrqLkjXtOPlPwWAl8N9IaZuI8dY0zoDYXMqsN8y-i4zOhE3JUr-PWjg0j66fNd1opNh1TMeDbkxtQ- -6NPYk0oGqamOmt51wt_WzcFo133BFqF- -pjsL5TjYH_8f7Sa6nmnq6PcbjAAXlCvUKuEAtcFizTYvfkqUl4GKAwzh7RMcbRonZjEaSy_ahruJ0OxMRtDezPQt7x4Dw0JIdWjXiHrxXlP0JhEGftn4_YHQ7MtQYXYBQFQFZbYf4vg3xQwxPweKb52VPBIFjYRjZl2ceLqddeAVcqtUArx_W1]--></g></svg>