<svg xmlns="http://www.w3.org/2000/svg" xmlns:xlink="http://www.w3.org/1999/xlink" contentStyleType="text/css" height="1298px" preserveAspectRatio="none" style="width:1682px;height:1298px;background:#FFFFFF;" version="1.1" viewBox="0 0 1682 1298" width="1682px" zoomAndPan="magnify"><title>Domain Model (DM) - General Domain Model</title><defs/><g><text fill="#000000" font-family="sans-serif" font-size="14" font-weight="bold" lengthAdjust="spacing" textLength="294.793" x="686.8706" y="29.1074">Domain Model (DM) - General Domain Model</text><!--class Editor--><g id="elem_Editor"><rect codeLine="19" fill="#F1F1F1" height="97.8633" id="Editor" rx="2.5" ry="2.5" style="stroke:#181818;stroke-width:0.5;" width="55.0205" x="90.5" y="305.6211"/><text fill="#000000" font-family="sans-serif" font-size="14" font-weight="bold" lengthAdjust="spacing" textLength="40.4414" x="97.7896" y="329.7285">Editor</text><line style="stroke:#181818;stroke-width:0.5;" x1="91.5" x2="144.5205" y1="342.2422" y2="342.2422"/><text fill="#000000" font-family="sans-serif" font-size="14" lengthAdjust="spacing" textLength="35.0205" x="100.5" y="365.3496">name</text><text fill="#000000" font-family="sans-serif" font-size="14" lengthAdjust="spacing" textLength="33.4551" x="100.5" y="391.9707">email</text></g><!--class Player--><g id="elem_Player"><rect codeLine="24" fill="#F1F1F1" height="124.4844" id="Player" rx="2.5" ry="2.5" style="stroke:#181818;stroke-width:0.5;" width="56.0342" x="791" y="54.6211"/><text fill="#000000" font-family="sans-serif" font-size="14" font-weight="bold" lengthAdjust="spacing" textLength="42.0342" x="798" y="78.7285">Player</text><line style="stroke:#181818;stroke-width:0.5;" x1="792" x2="846.0342" y1="91.2422" y2="91.2422"/><text fill="#000000" font-family="sans-serif" font-size="14" lengthAdjust="spacing" textLength="10.8965" x="801" y="114.3496">id</text><text fill="#000000" font-family="sans-serif" font-size="14" lengthAdjust="spacing" textLength="35.0205" x="801" y="140.9707">name</text><text fill="#000000" font-family="sans-serif" font-size="14" lengthAdjust="spacing" textLength="34.248" x="801" y="167.5918">funds</text></g><!--class Map--><g id="elem_Map"><rect codeLine="32" fill="#F1F1F1" height="124.4844" id="Map" rx="2.5" ry="2.5" style="stroke:#181818;stroke-width:0.5;" width="58.1445" x="238" y="584.1211"/><text fill="#000000" font-family="sans-serif" font-size="14" font-weight="bold" lengthAdjust="spacing" textLength="28" x="253.0723" y="608.2285">Map</text><line style="stroke:#181818;stroke-width:0.5;" x1="239" x2="295.1445" y1="620.7422" y2="620.7422"/><text fill="#000000" font-family="sans-serif" font-size="14" lengthAdjust="spacing" textLength="35.0205" x="248" y="643.8496">name</text><text fill="#000000" font-family="sans-serif" font-size="14" lengthAdjust="spacing" textLength="32.6826" x="248" y="670.4707">width</text><text fill="#000000" font-family="sans-serif" font-size="14" lengthAdjust="spacing" textLength="38.1445" x="248" y="697.0918">height</text></g><!--class Scenario--><g id="elem_Scenario"><rect codeLine="38" fill="#F1F1F1" height="124.4844" id="Scenario" rx="2.5" ry="2.5" style="stroke:#181818;stroke-width:0.5;" width="78.3379" x="7" y="915.6211"/><text fill="#000000" font-family="sans-serif" font-size="14" font-weight="bold" lengthAdjust="spacing" textLength="59.1377" x="16.6001" y="939.7285">Scenario</text><line style="stroke:#181818;stroke-width:0.5;" x1="8" x2="84.3379" y1="952.2422" y2="952.2422"/><text fill="#000000" font-family="sans-serif" font-size="14" lengthAdjust="spacing" textLength="35.0205" x="17" y="975.3496">name</text><text fill="#000000" font-family="sans-serif" font-size="14" lengthAdjust="spacing" textLength="58.3379" x="17" y="1001.9707">startTime</text><text fill="#000000" font-family="sans-serif" font-size="14" lengthAdjust="spacing" textLength="54.4688" x="17" y="1028.5918">endTime</text></g><!--class Location--><g id="elem_Location"><rect codeLine="44" fill="#F1F1F1" height="97.8633" id="Location" rx="2.5" ry="2.5" style="stroke:#181818;stroke-width:0.5;" width="72.3311" x="438" y="1193.6211"/><text fill="#000000" font-family="sans-serif" font-size="14" font-weight="bold" lengthAdjust="spacing" textLength="58.3311" x="445" y="1217.7285">Location</text><line style="stroke:#181818;stroke-width:0.5;" x1="439" x2="509.3311" y1="1230.2422" y2="1230.2422"/><text fill="#000000" font-family="sans-serif" font-size="14" lengthAdjust="spacing" textLength="7" x="448" y="1253.3496">x</text><text fill="#000000" font-family="sans-serif" font-size="14" lengthAdjust="spacing" textLength="7" x="448" y="1279.9707">y</text></g><!--class City--><g id="elem_City"><rect codeLine="48" fill="#F1F1F1" height="124.4844" id="City" rx="2.5" ry="2.5" style="stroke:#181818;stroke-width:0.5;" width="163.9512" x="185" y="915.6211"/><text fill="#000000" font-family="sans-serif" font-size="14" font-weight="bold" lengthAdjust="spacing" textLength="26.4482" x="253.7515" y="939.7285">City</text><line style="stroke:#181818;stroke-width:0.5;" x1="186" x2="347.9512" y1="952.2422" y2="952.2422"/><text fill="#000000" font-family="sans-serif" font-size="14" lengthAdjust="spacing" textLength="35.0205" x="195" y="975.3496">name</text><text fill="#000000" font-family="sans-serif" font-size="14" lengthAdjust="spacing" textLength="64.6133" x="195" y="1001.9707">population</text><text fill="#000000" font-family="sans-serif" font-size="14" lengthAdjust="spacing" textLength="143.9512" x="195" y="1028.5918">numberOfHouseBlocks</text></g><!--class Industry--><g id="elem_Industry"><rect codeLine="54" fill="#F1F1F1" height="71.2422" id="Industry" rx="2.5" ry="2.5" style="stroke:#181818;stroke-width:0.5;" width="69.2275" x="434.5" y="942.1211"/><text fill="#000000" font-family="sans-serif" font-size="14" font-weight="bold" lengthAdjust="spacing" textLength="55.2275" x="441.5" y="966.2285">Industry</text><line style="stroke:#181818;stroke-width:0.5;" x1="435.5" x2="502.7275" y1="978.7422" y2="978.7422"/><text fill="#000000" font-family="sans-serif" font-size="14" lengthAdjust="spacing" textLength="35.0205" x="444.5" y="1001.8496">name</text></g><!--class RailwayNetwork--><g id="elem_RailwayNetwork"><rect codeLine="60" fill="#F1F1F1" height="71.2422" id="RailwayNetwork" rx="2.5" ry="2.5" style="stroke:#181818;stroke-width:0.5;" width="121.3721" x="1069.5" y="81.1211"/><text fill="#000000" font-family="sans-serif" font-size="14" font-weight="bold" lengthAdjust="spacing" textLength="107.3721" x="1076.5" y="105.2285">RailwayNetwork</text><line style="stroke:#181818;stroke-width:0.5;" x1="1070.5" x2="1189.8721" y1="117.7422" y2="117.7422"/><text fill="#000000" font-family="sans-serif" font-size="14" lengthAdjust="spacing" textLength="48.248" x="1079.5" y="140.8496">stations</text></g><!--class Station--><g id="elem_Station"><rect codeLine="64" fill="#F1F1F1" height="177.7266" id="Station" rx="2.5" ry="2.5" style="stroke:#181818;stroke-width:0.5;" width="75.2617" x="777.5" y="888.6211"/><text fill="#000000" font-family="sans-serif" font-size="14" font-weight="bold" lengthAdjust="spacing" textLength="47.4414" x="791.4102" y="912.7285">Station</text><line style="stroke:#181818;stroke-width:0.5;" x1="778.5" x2="851.7617" y1="925.2422" y2="925.2422"/><text fill="#000000" font-family="sans-serif" font-size="14" lengthAdjust="spacing" textLength="35.0205" x="787.5" y="948.3496">name</text><text fill="#000000" font-family="sans-serif" font-size="14" lengthAdjust="spacing" textLength="26.4619" x="787.5" y="974.9707">type</text><text fill="#000000" font-family="sans-serif" font-size="14" lengthAdjust="spacing" textLength="38.1309" x="787.5" y="1001.5918">radius</text><text fill="#000000" font-family="sans-serif" font-size="14" lengthAdjust="spacing" textLength="25.6758" x="787.5" y="1028.2129">cost</text><text fill="#000000" font-family="sans-serif" font-size="14" lengthAdjust="spacing" textLength="55.2617" x="787.5" y="1054.834">buildings</text></g><!--class Building--><g id="elem_Building"><rect codeLine="73" fill="#F1F1F1" height="71.2422" id="Building" rx="2.5" ry="2.5" style="stroke:#181818;stroke-width:0.5;" width="69.9863" x="780" y="1207.1211"/><text fill="#000000" font-family="sans-serif" font-size="14" font-weight="bold" lengthAdjust="spacing" textLength="55.9863" x="787" y="1231.2285">Building</text><line style="stroke:#181818;stroke-width:0.5;" x1="781" x2="848.9863" y1="1243.7422" y2="1243.7422"/><text fill="#000000" font-family="sans-serif" font-size="14" lengthAdjust="spacing" textLength="35.0205" x="790" y="1266.8496">name</text></g><!--class Path--><g id="elem_Path"><rect codeLine="77" fill="#F1F1F1" height="71.2422" id="Path" rx="2.5" ry="2.5" style="stroke:#181818;stroke-width:0.5;" width="80.6963" x="1211.5" y="942.1211"/><text fill="#000000" font-family="sans-serif" font-size="14" font-weight="bold" lengthAdjust="spacing" textLength="30.3379" x="1236.6792" y="966.2285">Path</text><line style="stroke:#181818;stroke-width:0.5;" x1="1212.5" x2="1291.1963" y1="978.7422" y2="978.7422"/><text fill="#000000" font-family="sans-serif" font-size="14" lengthAdjust="spacing" textLength="60.6963" x="1221.5" y="1001.8496">segments</text></g><!--class Train--><g id="elem_Train"><rect codeLine="82" fill="#F1F1F1" height="71.2422" id="Train" rx="2.5" ry="2.5" style="stroke:#181818;stroke-width:0.5;" width="48.2275" x="1273" y="319.1211"/><text fill="#000000" font-family="sans-serif" font-size="14" font-weight="bold" lengthAdjust="spacing" textLength="34.2275" x="1280" y="343.2285">Train</text><line style="stroke:#181818;stroke-width:0.5;" x1="1274" x2="1320.2275" y1="355.7422" y2="355.7422"/><text fill="#000000" font-family="sans-serif" font-size="14" lengthAdjust="spacing" textLength="10.8965" x="1283" y="378.8496">id</text></g><!--class Locomotive--><g id="elem_Locomotive"><rect codeLine="86" fill="#F1F1F1" height="230.9688" id="Locomotive" rx="2.5" ry="2.5" style="stroke:#181818;stroke-width:0.5;" width="107.9238" x="1252" y="530.6211"/><text fill="#000000" font-family="sans-serif" font-size="14" font-weight="bold" lengthAdjust="spacing" textLength="78.5654" x="1266.6792" y="554.7285">Locomotive</text><line style="stroke:#181818;stroke-width:0.5;" x1="1253" x2="1358.9238" y1="567.2422" y2="567.2422"/><text fill="#000000" font-family="sans-serif" font-size="14" lengthAdjust="spacing" textLength="10.8965" x="1262" y="590.3496">id</text><text fill="#000000" font-family="sans-serif" font-size="14" lengthAdjust="spacing" textLength="26.4619" x="1262" y="616.9707">type</text><text fill="#000000" font-family="sans-serif" font-size="14" lengthAdjust="spacing" textLength="38.1309" x="1262" y="643.5918">power</text><text fill="#000000" font-family="sans-serif" font-size="14" lengthAdjust="spacing" textLength="38.1445" x="1262" y="670.2129">speed</text><text fill="#000000" font-family="sans-serif" font-size="14" lengthAdjust="spacing" textLength="25.6758" x="1262" y="696.834">cost</text><text fill="#000000" font-family="sans-serif" font-size="14" lengthAdjust="spacing" textLength="87.9238" x="1262" y="723.4551">availableFrom</text><text fill="#000000" font-family="sans-serif" font-size="14" lengthAdjust="spacing" textLength="83.2686" x="1262" y="750.0762">availableUntil</text></g><!--class Carriage--><g id="elem_Carriage"><rect codeLine="96" fill="#F1F1F1" height="97.8633" id="Carriage" rx="2.5" ry="2.5" style="stroke:#181818;stroke-width:0.5;" width="86.1445" x="1440" y="597.1211"/><text fill="#000000" font-family="sans-serif" font-size="14" font-weight="bold" lengthAdjust="spacing" textLength="56.8066" x="1454.6689" y="621.2285">Carriage</text><line style="stroke:#181818;stroke-width:0.5;" x1="1441" x2="1525.1445" y1="633.7422" y2="633.7422"/><text fill="#000000" font-family="sans-serif" font-size="14" lengthAdjust="spacing" textLength="10.8965" x="1450" y="656.8496">id</text><text fill="#000000" font-family="sans-serif" font-size="14" lengthAdjust="spacing" textLength="66.1445" x="1450" y="683.4707">cargoType</text></g><!--class Cargo--><g id="elem_Cargo"><rect codeLine="101" fill="#F1F1F1" height="124.4844" id="Cargo" rx="2.5" ry="2.5" style="stroke:#181818;stroke-width:0.5;" width="69.0342" x="1606.5" y="584.1211"/><text fill="#000000" font-family="sans-serif" font-size="14" font-weight="bold" lengthAdjust="spacing" textLength="40.4482" x="1620.793" y="608.2285">Cargo</text><line style="stroke:#181818;stroke-width:0.5;" x1="1607.5" x2="1674.5342" y1="620.7422" y2="620.7422"/><text fill="#000000" font-family="sans-serif" font-size="14" lengthAdjust="spacing" textLength="26.4619" x="1616.5" y="643.8496">type</text><text fill="#000000" font-family="sans-serif" font-size="14" lengthAdjust="spacing" textLength="49.0342" x="1616.5" y="670.4707">quantity</text><text fill="#000000" font-family="sans-serif" font-size="14" lengthAdjust="spacing" textLength="37.3516" x="1616.5" y="697.0918">status</text></g><!--class Route--><g id="elem_Route"><rect codeLine="107" fill="#F1F1F1" height="97.8633" id="Route" rx="2.5" ry="2.5" style="stroke:#181818;stroke-width:0.5;" width="68.248" x="1104" y="597.1211"/><text fill="#000000" font-family="sans-serif" font-size="14" font-weight="bold" lengthAdjust="spacing" textLength="39.6621" x="1118.293" y="621.2285">Route</text><line style="stroke:#181818;stroke-width:0.5;" x1="1105" x2="1171.248" y1="633.7422" y2="633.7422"/><text fill="#000000" font-family="sans-serif" font-size="14" lengthAdjust="spacing" textLength="48.248" x="1114" y="656.8496">stations</text><text fill="#000000" font-family="sans-serif" font-size="14" lengthAdjust="spacing" textLength="27.248" x="1114" y="683.4707">path</text></g><!--link Editor to Map--><g id="link_Editor_Map"><path codeLine="114" d="M142.77,403.7511 C168.96,454.6411 207.4939,529.5164 235.2039,583.3464 " fill="none" id="Editor-to-Map" style="stroke:#181818;stroke-width:1.0;"/><polygon fill="#181818" points="237.95,588.6811,237.3873,578.8483,235.6616,584.2355,230.2744,582.5098,237.95,588.6811" style="stroke:#181818;stroke-width:1.0;"/><text fill="#000000" font-family="sans-serif" font-size="13" font-style="italic" lengthAdjust="spacing" textLength="42.6309" x="185" y="472.6494">creates</text><text fill="#000000" font-family="sans-serif" font-size="13" font-style="italic" lengthAdjust="spacing" textLength="7.23" x="133.9961" y="429.7032">1</text><text fill="#000000" font-family="sans-serif" font-size="13" font-style="italic" lengthAdjust="spacing" textLength="5.0591" x="222.3876" y="568.7964">*</text></g><!--link Editor to Scenario--><g id="link_Editor_Scenario"><path codeLine="115" d="M112.41,403.8311 C99.46,515.5411 68.1009,785.991 53.7909,909.431 " fill="none" id="Editor-to-Scenario" style="stroke:#181818;stroke-width:1.0;"/><polygon fill="#181818" points="53.1,915.3911,58.1098,906.9116,53.6758,910.4244,50.163,905.9903,53.1,915.3911" style="stroke:#181818;stroke-width:1.0;"/><text fill="#000000" font-family="sans-serif" font-size="13" font-style="italic" lengthAdjust="spacing" textLength="38.2891" x="103" y="651.6494">makes</text><text fill="#000000" font-family="sans-serif" font-size="13" font-style="italic" lengthAdjust="spacing" textLength="7.23" x="99.8274" y="429.4064">1</text><text fill="#000000" font-family="sans-serif" font-size="13" font-style="italic" lengthAdjust="spacing" textLength="5.0591" x="44.1504" y="900.2352">*</text></g><!--link Map to Scenario--><g id="link_Map_Scenario"><path codeLine="116" d="M237.88,690.5411 C198.67,748.9911 132.1419,848.188 88.4019,913.408 " fill="none" id="Map-to-Scenario" style="stroke:#181818;stroke-width:1.0;"/><polygon fill="#181818" points="85.06,918.3911,93.395,913.1444,87.845,914.2385,86.7508,908.6885,85.06,918.3911" style="stroke:#181818;stroke-width:1.0;"/><text fill="#000000" font-family="sans-serif" font-size="13" font-style="italic" lengthAdjust="spacing" textLength="20.96" x="162" y="830.6494">has</text><text fill="#000000" font-family="sans-serif" font-size="13" font-style="italic" lengthAdjust="spacing" textLength="7.23" x="218.8787" y="690.5308">1</text><text fill="#000000" font-family="sans-serif" font-size="13" font-style="italic" lengthAdjust="spacing" textLength="19.5127" x="97.1216" y="900.421">1..*</text></g><!--link Map to Industry--><g id="link_Map_Industry"><path codeLine="118" d="M296.16,694.6811 C337.24,761.6911 408.0641,877.2158 444.4541,936.5758 " fill="none" id="Map-to-Industry" style="stroke:#181818;stroke-width:1.0;"/><polygon fill="#181818" points="447.59,941.6911,446.2964,931.9276,444.9768,937.4283,439.476,936.1087,447.59,941.6911" style="stroke:#181818;stroke-width:1.0;"/><text fill="#000000" font-family="sans-serif" font-size="13" font-style="italic" lengthAdjust="spacing" textLength="48.4199" x="386" y="830.6494">contains</text><text fill="#000000" font-family="sans-serif" font-size="13" font-style="italic" lengthAdjust="spacing" textLength="7.23" x="308.1887" y="695.5764">1</text><text fill="#000000" font-family="sans-serif" font-size="13" font-style="italic" lengthAdjust="spacing" textLength="5.0591" x="434.1284" y="927.0048">*</text></g><!--link Map to City--><g id="link_Map_City"><path codeLine="119" d="M261.41,708.3711 C257.15,755.1411 252,811.6211 252,811.6211 C252,811.6211 252,838.6211 252,838.6211 C252,838.6211 255.6827,872.4661 259.6827,909.3261 " fill="none" id="Map-to-City" style="stroke:#181818;stroke-width:1.0;"/><polygon fill="#181818" points="260.33,915.2911,263.3357,905.9121,259.7906,910.3203,255.3824,906.7752,260.33,915.2911" style="stroke:#181818;stroke-width:1.0;"/><text fill="#000000" font-family="sans-serif" font-size="13" font-style="italic" lengthAdjust="spacing" textLength="48.4199" x="257" y="830.6494">contains</text><text fill="#000000" font-family="sans-serif" font-size="13" font-style="italic" lengthAdjust="spacing" textLength="7.23" x="248.983" y="734.5646">1</text><text fill="#000000" font-family="sans-serif" font-size="13" font-style="italic" lengthAdjust="spacing" textLength="5.0591" x="249.8954" y="900.1243">*</text></g><!--link Map to Station--><g id="link_Map_Station"><path codeLine="120" d="M296,667.6111 C365.91,717.0211 538,838.6211 538,838.6211 C538,838.6211 696.2499,917.4549 771.9799,955.1949 " fill="none" id="Map-to-Station" style="stroke:#181818;stroke-width:1.0;"/><polygon fill="#181818" points="777.35,957.8711,771.079,950.2767,772.8749,955.6409,767.5107,957.4369,777.35,957.8711" style="stroke:#181818;stroke-width:1.0;"/><text fill="#000000" font-family="sans-serif" font-size="13" font-style="italic" lengthAdjust="spacing" textLength="48.4199" x="543" y="830.6494">contains</text><text fill="#000000" font-family="sans-serif" font-size="13" font-style="italic" lengthAdjust="spacing" textLength="7.23" x="307.9937" y="662.5848">1</text><text fill="#000000" font-family="sans-serif" font-size="13" font-style="italic" lengthAdjust="spacing" textLength="19.5127" x="745.8991" y="945.6048">0..*</text></g><!--link Industry to Location--><g id="link_Industry_Location"><path codeLine="123" d="M467.74,1013.4411 C466.26,1054.3211 464,1116.6211 464,1116.6211 C464,1116.6211 464,1143.6211 464,1143.6211 C464,1143.6211 465.9506,1162.7321 468.4806,1187.5121 " fill="none" id="Industry-to-Location" style="stroke:#181818;stroke-width:1.0;"/><polygon fill="#181818" points="469.09,1193.4811,472.1552,1184.1214,468.5821,1188.507,464.1966,1184.9339,469.09,1193.4811" style="stroke:#181818;stroke-width:1.0;"/><text fill="#000000" font-family="sans-serif" font-size="13" font-style="italic" lengthAdjust="spacing" textLength="69.3799" x="469" y="1135.6494">has position</text><text fill="#000000" font-family="sans-serif" font-size="13" font-style="italic" lengthAdjust="spacing" textLength="7.23" x="455.2893" y="1039.4765">1</text><text fill="#000000" font-family="sans-serif" font-size="13" font-style="italic" lengthAdjust="spacing" textLength="7.23" x="456.4156" y="1178.2553">1</text></g><!--link City to Location--><g id="link_City_Location"><path codeLine="125" d="M287.48,1040.0611 C303.12,1086.9711 322,1143.6211 322,1143.6211 C322,1143.6211 387.9872,1186.1699 432.9372,1215.1499 " fill="none" id="City-to-Location" style="stroke:#181818;stroke-width:1.0;"/><polygon fill="#181818" points="437.98,1218.4011,432.5832,1210.1625,433.7777,1215.6918,428.2483,1216.8862,437.98,1218.4011" style="stroke:#181818;stroke-width:1.0;"/><text fill="#000000" font-family="sans-serif" font-size="13" font-style="italic" lengthAdjust="spacing" textLength="112.0107" x="327" y="1135.6494">has central position</text><text fill="#000000" font-family="sans-serif" font-size="13" font-style="italic" lengthAdjust="spacing" textLength="7.23" x="277.9149" y="1066.2754">1</text><text fill="#000000" font-family="sans-serif" font-size="13" font-style="italic" lengthAdjust="spacing" textLength="7.23" x="418.6744" y="1204.4704">1</text></g><!--link Station to Location--><g id="link_Station_Location"><path codeLine="128" d="M777.2,1007.7711 C711.05,1058.7911 579.891,1159.9466 514.911,1210.0666 " fill="none" id="Station-to-Location" style="stroke:#181818;stroke-width:1.0;"/><polygon fill="#181818" points="510.16,1213.7311,519.7294,1211.4017,514.1191,1210.6774,514.8434,1205.0671,510.16,1213.7311" style="stroke:#181818;stroke-width:1.0;"/><text fill="#000000" font-family="sans-serif" font-size="13" font-style="italic" lengthAdjust="spacing" textLength="69.3799" x="639" y="1135.6494">has position</text><text fill="#000000" font-family="sans-serif" font-size="13" font-style="italic" lengthAdjust="spacing" textLength="7.23" x="758.4113" y="1003.8815">1</text><text fill="#000000" font-family="sans-serif" font-size="13" font-style="italic" lengthAdjust="spacing" textLength="7.23" x="522.2005" y="1199.1676">1</text></g><!--link Station to Building--><g id="link_Station_Building"><path codeLine="129" d="M815,1066.9311 C815,1114.8311 815,1165.3311 815,1200.8211 " fill="none" id="Station-to-Building" style="stroke:#181818;stroke-width:1.0;"/><polygon fill="#181818" points="815,1206.8211,819,1197.8211,815,1201.8211,811,1197.8211,815,1206.8211" style="stroke:#181818;stroke-width:1.0;"/><text fill="#000000" font-family="sans-serif" font-size="13" font-style="italic" lengthAdjust="spacing" textLength="20.96" x="820" y="1135.6494">has</text><text fill="#000000" font-family="sans-serif" font-size="13" font-style="italic" lengthAdjust="spacing" textLength="7.23" x="803.4481" y="1092.4568">1</text><text fill="#000000" font-family="sans-serif" font-size="13" font-style="italic" lengthAdjust="spacing" textLength="19.5127" x="789.8077" y="1191.8538">0..*</text></g><!--link Player to Station--><g id="link_Player_Station"><path codeLine="132" d="M791,168.5711 C774.96,197.7511 758,228.6211 758,228.6211 C758,228.6211 657,453.6211 657,453.6211 C657,453.6211 657,480.6211 657,480.6211 C657,480.6211 758,838.6211 758,838.6211 C758,838.6211 765.1192,855.8556 776.2892,882.8956 " fill="none" id="Player-to-Station" style="stroke:#181818;stroke-width:1.0;"/><polygon fill="#181818" points="778.58,888.4411,778.8408,878.5957,776.671,883.8199,771.4468,881.6501,778.58,888.4411" style="stroke:#181818;stroke-width:1.0;"/><text fill="#000000" font-family="sans-serif" font-size="13" font-style="italic" lengthAdjust="spacing" textLength="52.0381" x="662" y="472.6494">can build</text><text fill="#000000" font-family="sans-serif" font-size="13" font-style="italic" lengthAdjust="spacing" textLength="7.23" x="771.8133" y="170.6999">1</text><text fill="#000000" font-family="sans-serif" font-size="13" font-style="italic" lengthAdjust="spacing" textLength="19.5127" x="751.612" y="873.3893">0..*</text></g><!--link Player to Station--><g id="link_Player_Station"><path codeLine="133" d="M816.27,178.8611 C811.94,275.7711 804,453.6211 804,453.6211 C804,453.6211 804,480.6211 804,480.6211 C804,480.6211 809.757,739.9926 812.917,882.5226 " fill="none" id="Player-to-Station-1" style="stroke:#181818;stroke-width:1.0;"/><polygon fill="#181818" points="813.05,888.5211,816.8495,879.4346,812.9392,883.5223,808.8515,879.612,813.05,888.5211" style="stroke:#181818;stroke-width:1.0;"/><text fill="#000000" font-family="sans-serif" font-size="13" font-style="italic" lengthAdjust="spacing" textLength="72.2808" x="809" y="472.6494">can upgrade</text><text fill="#000000" font-family="sans-serif" font-size="13" font-style="italic" lengthAdjust="spacing" textLength="7.23" x="804.1618" y="205.0535">1</text><text fill="#000000" font-family="sans-serif" font-size="13" font-style="italic" lengthAdjust="spacing" textLength="19.5127" x="788.8288" y="873.4757">0..*</text></g><!--link Player to Train--><g id="link_Player_Train"><path codeLine="134" d="M847.12,131.5011 C933.27,174.0411 1187.2199,299.4252 1267.5999,339.1052 " fill="none" id="Player-to-Train" style="stroke:#181818;stroke-width:1.0;"/><polygon fill="#181818" points="1272.98,341.7611,1266.6804,334.1904,1268.4965,339.5478,1263.1392,341.364,1272.98,341.7611" style="stroke:#181818;stroke-width:1.0;"/><text fill="#000000" font-family="sans-serif" font-size="13" font-style="italic" lengthAdjust="spacing" textLength="48.4199" x="1091" y="247.6494">can own</text><text fill="#000000" font-family="sans-serif" font-size="13" font-style="italic" lengthAdjust="spacing" textLength="7.23" x="858.9333" y="125.0289">1</text><text fill="#000000" font-family="sans-serif" font-size="13" font-style="italic" lengthAdjust="spacing" textLength="19.5127" x="1241.3365" y="359.7118">0..*</text></g><!--link RailwayNetwork to Station--><g id="link_RailwayNetwork_Station"><path codeLine="137" d="M1101.39,152.1311 C1074.39,184.7211 1038,228.6211 1038,228.6211 C1038,228.6211 872,838.6211 872,838.6211 C872,838.6211 864.8808,855.8556 853.7108,882.8956 " fill="none" id="RailwayNetwork-to-Station" style="stroke:#181818;stroke-width:1.0;"/><polygon fill="#181818" points="851.42,888.4411,858.5532,881.6501,853.329,883.8199,851.1592,878.5957,851.42,888.4411" style="stroke:#181818;stroke-width:1.0;"/><text fill="#000000" font-family="sans-serif" font-size="13" font-style="italic" lengthAdjust="spacing" textLength="53.479" x="980" y="472.6494">manages</text><text fill="#000000" font-family="sans-serif" font-size="13" font-style="italic" lengthAdjust="spacing" textLength="7.23" x="1084.1714" y="178.4153">1</text><text fill="#000000" font-family="sans-serif" font-size="13" font-style="italic" lengthAdjust="spacing" textLength="19.5127" x="830.2564" y="873.3893">0..*</text></g><!--link RailwayNetwork to Train--><g id="link_RailwayNetwork_Train"><path codeLine="138" d="M1154.46,152.1911 C1186.17,197.0011 1237.6749,269.7728 1269.2749,314.4428 " fill="none" id="RailwayNetwork-to-Train" style="stroke:#181818;stroke-width:1.0;"/><polygon fill="#181818" points="1272.74,319.3411,1270.8079,309.6836,1269.8524,315.2592,1264.2768,314.3037,1272.74,319.3411" style="stroke:#181818;stroke-width:1.0;"/><text fill="#000000" font-family="sans-serif" font-size="13" font-style="italic" lengthAdjust="spacing" textLength="53.479" x="1228" y="247.6494">manages</text><text fill="#000000" font-family="sans-serif" font-size="13" font-style="italic" lengthAdjust="spacing" textLength="7.23" x="1146.3628" y="178.4856">1</text><text fill="#000000" font-family="sans-serif" font-size="13" font-style="italic" lengthAdjust="spacing" textLength="19.5127" x="1243.0394" y="303.863">0..*</text></g><!--link Train to Locomotive--><g id="link_Train_Locomotive"><path codeLine="141" d="M1298.08,390.2511 C1299.15,424.9211 1300.6837,474.194 1302.2437,524.414 " fill="none" id="Train-to-Locomotive" style="stroke:#181818;stroke-width:1.0;"/><polygon fill="#181818" points="1302.43,530.4111,1306.1486,521.2912,1302.2748,525.4135,1298.1525,521.5396,1302.43,530.4111" style="stroke:#181818;stroke-width:1.0;"/><text fill="#000000" font-family="sans-serif" font-size="13" font-style="italic" lengthAdjust="spacing" textLength="20.96" x="1305" y="472.6494">has</text><text fill="#000000" font-family="sans-serif" font-size="13" font-style="italic" lengthAdjust="spacing" textLength="7.23" x="1286.0169" y="416.255">1</text><text fill="#000000" font-family="sans-serif" font-size="13" font-style="italic" lengthAdjust="spacing" textLength="7.23" x="1290.7306" y="515.2363">1</text></g><!--link Train to Carriage--><g id="link_Train_Carriage"><path codeLine="142" d="M1319.25,390.2511 C1352.33,441.7311 1411.3367,533.5732 1448.8267,591.9232 " fill="none" id="Train-to-Carriage" style="stroke:#181818;stroke-width:1.0;"/><polygon fill="#181818" points="1452.07,596.9711,1450.5703,587.2371,1449.3673,592.7645,1443.8398,591.5614,1452.07,596.9711" style="stroke:#181818;stroke-width:1.0;"/><text fill="#000000" font-family="sans-serif" font-size="13" font-style="italic" lengthAdjust="spacing" textLength="61.4136" x="1378" y="472.6494">consists of</text><text fill="#000000" font-family="sans-serif" font-size="13" font-style="italic" lengthAdjust="spacing" textLength="7.23" x="1310.6932" y="416.255">1</text><text fill="#000000" font-family="sans-serif" font-size="13" font-style="italic" lengthAdjust="spacing" textLength="19.5127" x="1423.1245" y="581.7439">1..*</text></g><!--link Train to Cargo--><g id="link_Train_Cargo"><path codeLine="143" d="M1321.28,369.8711 C1367.6,397.0511 1464,453.6211 1464,453.6211 C1464,453.6211 1566,530.6211 1566,530.6211 C1566,530.6211 1583.4124,557.2119 1603.0624,587.2119 " fill="none" id="Train-to-Cargo" style="stroke:#181818;stroke-width:1.0;"/><polygon fill="#181818" points="1606.35,592.2311,1604.7648,582.5106,1603.6104,588.0485,1598.0726,586.894,1606.35,592.2311" style="stroke:#181818;stroke-width:1.0;"/><text fill="#000000" font-family="sans-serif" font-size="13" font-style="italic" lengthAdjust="spacing" textLength="39.0063" x="1501" y="472.6494">carries</text><text fill="#000000" font-family="sans-serif" font-size="13" font-style="italic" lengthAdjust="spacing" textLength="7.23" x="1333.4239" y="363.6104">1</text><text fill="#000000" font-family="sans-serif" font-size="13" font-style="italic" lengthAdjust="spacing" textLength="19.5127" x="1575.1153" y="573.832">0..*</text></g><!--link Train to Route--><g id="link_Train_Route"><path codeLine="144" d="M1273.73,390.1711 C1254.73,418.3911 1231,453.6211 1231,453.6211 C1231,453.6211 1191.6411,534.6739 1164.0911,591.4039 " fill="none" id="Train-to-Route" style="stroke:#181818;stroke-width:1.0;"/><polygon fill="#181818" points="1161.47,596.8011,1168.9998,590.4526,1163.6542,592.3034,1161.8035,586.9579,1161.47,596.8011" style="stroke:#181818;stroke-width:1.0;"/><text fill="#000000" font-family="sans-serif" font-size="13" font-style="italic" lengthAdjust="spacing" textLength="39.7363" x="1236" y="472.6494">follows</text><text fill="#000000" font-family="sans-serif" font-size="13" font-style="italic" lengthAdjust="spacing" textLength="7.23" x="1257.4416" y="416.4622">1</text><text fill="#000000" font-family="sans-serif" font-size="13" font-style="italic" lengthAdjust="spacing" textLength="21.6836" x="1137.6472" y="581.9361">0..1</text></g><!--link Route to Station--><g id="link_Route_Station"><path codeLine="146" d="M1109.49,695.4411 C1076.01,752.1711 1025,838.6211 1025,838.6211 C1025,838.6211 917.9642,908.9559 857.5542,948.6559 " fill="none" id="Route-to-Station" style="stroke:#181818;stroke-width:1.0;"/><polygon fill="#181818" points="852.54,951.9511,862.258,950.3511,856.7185,949.2051,857.8644,943.6655,852.54,951.9511" style="stroke:#181818;stroke-width:1.0;"/><text fill="#000000" font-family="sans-serif" font-size="13" font-style="italic" lengthAdjust="spacing" textLength="48.4199" x="1044" y="830.6494">contains</text><text fill="#000000" font-family="sans-serif" font-size="13" font-style="italic" lengthAdjust="spacing" textLength="7.23" x="1094.1002" y="721.0298">1</text><text fill="#000000" font-family="sans-serif" font-size="13" font-style="italic" lengthAdjust="spacing" textLength="19.5127" x="864.6945" y="938.9411">1..*</text></g><!--link Route to Path--><g id="link_Route_Path"><path codeLine="147" d="M1154.7,695.3911 C1177.95,762.6011 1217.5689,877.0907 1238.0089,936.1907 " fill="none" id="Route-to-Path" style="stroke:#181818;stroke-width:1.0;"/><polygon fill="#181818" points="1239.97,941.8611,1240.8086,932.048,1238.3357,937.1357,1233.248,934.6629,1239.97,941.8611" style="stroke:#181818;stroke-width:1.0;"/><text fill="#000000" font-family="sans-serif" font-size="13" font-style="italic" lengthAdjust="spacing" textLength="59.9917" x="1206" y="830.6494">defined by</text><text fill="#000000" font-family="sans-serif" font-size="13" font-style="italic" lengthAdjust="spacing" textLength="7.23" x="1144.8201" y="720.9737">1</text><text fill="#000000" font-family="sans-serif" font-size="13" font-style="italic" lengthAdjust="spacing" textLength="7.23" x="1225.7795" y="926.9004">1</text></g><!--SRC=[ZLNRRjGm47ttLrZxie3KQYlnWFg0H6zGYG9Ysm-OZMSJQnqxs9Ck0V7lJEmacwHTw3vqlPupSuxdrgLSKsDG1YJIDWyYxBIjm4CfCmCXV23oUbCJtcREhlKlbAivvCPPIa4spgWd0Rnt-mD44nYTYH6gWcm7EIQpnup0vWP7W520SdiM9xTW0avSbMhltuxkh5COi9BlnZezs5rxURPQZQcDjaXDXR9ofcb_255eXJBJFcC9yLmY5Ku5GPfOtvKhGLjvnoH6lhgwUorFv4UqwC5CR48ivKD0dtA0GSHlUQqqEIz_2yaV2oN60xAV4Nz41_fceC4UfDKKkwqjYs4i4zn19S4g6JAquBMRaRNc6TDUAohYgK2T5tGWNVSnPXw1mDEzxfLQ5S-3ssUN0MbdExUVyM_3zcI-rDJC8rQkgarqIlTrkK7_TVl9rG4lZCjsuH3-rgewa9_4I6__pYdRGoErtNfWI9rHxN6MWGxq1Mdl_AuBmYzgoKSiQng_OH3QTaOyU52w3l6OkK3niAcrKN5WMZqfpaLtDrFRLHMew1LWNgAbwBgKzxxjchQE6VXyNiHa7NfXd7XNEjAFE6sKGNJbzkWJNOMefkhXaJC36uCttfNJcmTBusQy1EyrZ-UK9IgzRwd6mBplda74Zneu73L3ukjHshyxNYlpeaJfdAgkp9VEjqiXzKieT1L4DqEBiuKyENal5syMiTFFPUOH29y53DrzBalOCQRr601dfwTJJ051J25i7tgHcNYTSLd24qpizsFsLQBfccs4udTU6snRWgiMT7ngR8WsZq4Cn0V1YyFWHRM3dn1HmZ-G_4fgjzN1OpbecYQwltq9xHDiUkmm4LrEb_roWooLk_jvF4TWqwYz25bNESyg7i6cKKf8jxVZBMAx3L62vLvlAo5ck-CeRt89_y7tt3rwc7kUuZw9iUIUXu8J9f9rblf-ubCsvv18DCnhxA-W0mNfjdFigiVcBYQ4VJ0y0-9Zcj9pkNN6k3qhJnVpuNdQrNFS8gt0Swbmo_zgbTmquYy0]--></g></svg>