<svg xmlns="http://www.w3.org/2000/svg" xmlns:xlink="http://www.w3.org/1999/xlink" contentStyleType="text/css" data-diagram-type="SEQUENCE" height="567px" preserveAspectRatio="none" style="width:369px;height:567px;background:#FFFFFF;" version="1.1" viewBox="0 0 369 567" width="369px" zoomAndPan="magnify"><defs/><g><g><title>Player</title><rect fill="#000000" fill-opacity="0.00000" height="405.4609" width="8" x="25.7827" y="81.2969"/><line style="stroke:#181818;stroke-width:0.5;stroke-dasharray:5.0,5.0;" x1="29" x2="29" y1="81.2969" y2="486.7578"/></g><g><title>System</title><rect fill="#000000" fill-opacity="0.00000" height="405.4609" width="8" x="196.6738" y="81.2969"/><line style="stroke:#181818;stroke-width:0.5;stroke-dasharray:5.0,5.0;" x1="200.5708" x2="200.5708" y1="81.2969" y2="486.7578"/></g><g class="participant participant-head" data-participant="Player"><text fill="#000000" font-family="sans-serif" font-size="14" lengthAdjust="spacing" textLength="43.5654" x="5" y="77.9951">Player</text><ellipse cx="29.7827" cy="13.5" fill="#E2E2F0" rx="8" ry="8" style="stroke:#181818;stroke-width:0.5;"/><path d="M29.7827,21.5 L29.7827,48.5 M16.7827,29.5 L42.7827,29.5 M29.7827,48.5 L16.7827,63.5 M29.7827,48.5 L42.7827,63.5" fill="none" style="stroke:#181818;stroke-width:0.5;"/></g><g class="participant participant-tail" data-participant="Player"><text fill="#000000" font-family="sans-serif" font-size="14" lengthAdjust="spacing" textLength="43.5654" x="5" y="498.7529">Player</text><ellipse cx="29.7827" cy="510.5547" fill="#E2E2F0" rx="8" ry="8" style="stroke:#181818;stroke-width:0.5;"/><path d="M29.7827,518.5547 L29.7827,545.5547 M16.7827,526.5547 L42.7827,526.5547 M29.7827,545.5547 L16.7827,560.5547 M29.7827,545.5547 L42.7827,560.5547" fill="none" style="stroke:#181818;stroke-width:0.5;"/></g><g class="participant participant-head" data-participant="System"><rect fill="#E2E2F0" height="30.2969" rx="2.5" ry="2.5" style="stroke:#181818;stroke-width:0.5;" width="66.2061" x="167.5708" y="50"/><text fill="#000000" font-family="sans-serif" font-size="14" lengthAdjust="spacing" textLength="52.2061" x="174.5708" y="69.9951">System</text></g><g class="participant participant-tail" data-participant="System"><rect fill="#E2E2F0" height="30.2969" rx="2.5" ry="2.5" style="stroke:#181818;stroke-width:0.5;" width="66.2061" x="167.5708" y="485.7578"/><text fill="#000000" font-family="sans-serif" font-size="14" lengthAdjust="spacing" textLength="52.2061" x="174.5708" y="505.7529">System</text></g><g class="message" data-participant-1="Player" data-participant-2="System"><polygon fill="#181818" points="188.6738,108.4297,198.6738,112.4297,188.6738,116.4297,192.6738,112.4297" style="stroke:#181818;stroke-width:1;"/><line style="stroke:#181818;stroke-width:1;" x1="29.7827" x2="194.6738" y1="112.4297" y2="112.4297"/><text fill="#000000" font-family="sans-serif" font-size="13" lengthAdjust="spacing" textLength="74.4961" x="36.7827" y="107.3638">Select train</text></g><g class="message" data-participant-1="System" data-participant-2="System"><line style="stroke:#181818;stroke-width:1;" x1="200.6738" x2="242.6738" y1="141.5625" y2="141.5625"/><line style="stroke:#181818;stroke-width:1;" x1="242.6738" x2="242.6738" y1="141.5625" y2="154.5625"/><line style="stroke:#181818;stroke-width:1;" x1="201.6738" x2="242.6738" y1="154.5625" y2="154.5625"/><polygon fill="#181818" points="211.6738,150.5625,201.6738,154.5625,211.6738,158.5625,207.6738,154.5625" style="stroke:#181818;stroke-width:1;"/><text fill="#000000" font-family="sans-serif" font-size="13" lengthAdjust="spacing" textLength="150.3506" x="207.6738" y="136.4966">Validate train selection</text></g><g class="message" data-participant-1="Player" data-participant-2="System"><polygon fill="#181818" points="188.6738,179.6953,198.6738,183.6953,188.6738,187.6953,192.6738,183.6953" style="stroke:#181818;stroke-width:1;"/><line style="stroke:#181818;stroke-width:1;" x1="29.7827" x2="194.6738" y1="183.6953" y2="183.6953"/><text fill="#000000" font-family="sans-serif" font-size="13" lengthAdjust="spacing" textLength="78.8696" x="36.7827" y="178.6294">Select route</text></g><g class="message" data-participant-1="System" data-participant-2="System"><line style="stroke:#181818;stroke-width:1;" x1="200.6738" x2="242.6738" y1="212.8281" y2="212.8281"/><line style="stroke:#181818;stroke-width:1;" x1="242.6738" x2="242.6738" y1="212.8281" y2="225.8281"/><line style="stroke:#181818;stroke-width:1;" x1="201.6738" x2="242.6738" y1="225.8281" y2="225.8281"/><polygon fill="#181818" points="211.6738,221.8281,201.6738,225.8281,211.6738,229.8281,207.6738,225.8281" style="stroke:#181818;stroke-width:1;"/><text fill="#000000" font-family="sans-serif" font-size="13" lengthAdjust="spacing" textLength="154.7241" x="207.6738" y="207.7622">Validate route selection</text></g><g class="message" data-participant-1="Player" data-participant-2="System"><polygon fill="#181818" points="188.6738,250.9609,198.6738,254.9609,188.6738,258.9609,192.6738,254.9609" style="stroke:#181818;stroke-width:1;"/><line style="stroke:#181818;stroke-width:1;" x1="29.7827" x2="194.6738" y1="254.9609" y2="254.9609"/><text fill="#000000" font-family="sans-serif" font-size="13" lengthAdjust="spacing" textLength="88.9751" x="36.7827" y="249.895">Select station</text></g><g class="message" data-participant-1="System" data-participant-2="System"><line style="stroke:#181818;stroke-width:1;" x1="200.6738" x2="242.6738" y1="284.0938" y2="284.0938"/><line style="stroke:#181818;stroke-width:1;" x1="242.6738" x2="242.6738" y1="284.0938" y2="297.0938"/><line style="stroke:#181818;stroke-width:1;" x1="201.6738" x2="242.6738" y1="297.0938" y2="297.0938"/><polygon fill="#181818" points="211.6738,293.0938,201.6738,297.0938,211.6738,301.0938,207.6738,297.0938" style="stroke:#181818;stroke-width:1;"/><text fill="#000000" font-family="sans-serif" font-size="13" lengthAdjust="spacing" textLength="102.2671" x="207.6738" y="279.0278">Validate station</text></g><g class="message" data-participant-1="Player" data-participant-2="System"><polygon fill="#181818" points="188.6738,322.2266,198.6738,326.2266,188.6738,330.2266,192.6738,326.2266" style="stroke:#181818;stroke-width:1;"/><line style="stroke:#181818;stroke-width:1;" x1="29.7827" x2="194.6738" y1="326.2266" y2="326.2266"/><text fill="#000000" font-family="sans-serif" font-size="13" lengthAdjust="spacing" textLength="104.127" x="36.7827" y="321.1606">Select cargo list</text></g><g class="message" data-participant-1="System" data-participant-2="System"><line style="stroke:#181818;stroke-width:1;" x1="200.6738" x2="242.6738" y1="355.3594" y2="355.3594"/><line style="stroke:#181818;stroke-width:1;" x1="242.6738" x2="242.6738" y1="355.3594" y2="368.3594"/><line style="stroke:#181818;stroke-width:1;" x1="201.6738" x2="242.6738" y1="368.3594" y2="368.3594"/><polygon fill="#181818" points="211.6738,364.3594,201.6738,368.3594,211.6738,372.3594,207.6738,368.3594" style="stroke:#181818;stroke-width:1;"/><text fill="#000000" font-family="sans-serif" font-size="13" lengthAdjust="spacing" textLength="117.4189" x="207.6738" y="350.2935">Validate cargo list</text></g><g class="message" data-participant-1="Player" data-participant-2="System"><polygon fill="#181818" points="188.6738,393.4922,198.6738,397.4922,188.6738,401.4922,192.6738,397.4922" style="stroke:#181818;stroke-width:1;"/><line style="stroke:#181818;stroke-width:1;" x1="29.7827" x2="194.6738" y1="397.4922" y2="397.4922"/><text fill="#000000" font-family="sans-serif" font-size="13" lengthAdjust="spacing" textLength="132.8818" x="36.7827" y="392.4263">Assign train to route</text></g><g class="message" data-participant-1="System" data-participant-2="System"><line style="stroke:#181818;stroke-width:1;" x1="200.6738" x2="242.6738" y1="426.625" y2="426.625"/><line style="stroke:#181818;stroke-width:1;" x1="242.6738" x2="242.6738" y1="426.625" y2="439.625"/><line style="stroke:#181818;stroke-width:1;" x1="201.6738" x2="242.6738" y1="439.625" y2="439.625"/><polygon fill="#181818" points="211.6738,435.625,201.6738,439.625,211.6738,443.625,207.6738,439.625" style="stroke:#181818;stroke-width:1;"/><text fill="#000000" font-family="sans-serif" font-size="13" lengthAdjust="spacing" textLength="125.1567" x="207.6738" y="421.5591">Update game state</text></g><g class="message" data-participant-1="System" data-participant-2="Player"><polygon fill="#181818" points="40.7827,464.7578,30.7827,468.7578,40.7827,472.7578,36.7827,468.7578" style="stroke:#181818;stroke-width:1;"/><line style="stroke:#181818;stroke-width:1;" x1="34.7827" x2="199.6738" y1="468.7578" y2="468.7578"/><text fill="#000000" font-family="sans-serif" font-size="13" lengthAdjust="spacing" textLength="146.8911" x="46.7827" y="463.6919">Confirmation message</text></g><!--SRC=[ZT0x2iCm383XtQSGsNk138NI2nH2kmjNDG8_WgGEkNt1Ji53OxeP-UT3Ddeh0hU86ubRKOmzhvWDfcLJepG1AhIZSos3qtcVpB1G96zWWfnT6_RN3upyHACMWDQQInvGKjv68we6Vr5gM8i1zasE4OyI2aHM6pbTzOEwg7B8-oTOENpZVQrOmDGs8zT5ZPtXMlAB9TMz8P4g1le0]--></g></svg>