<svg xmlns="http://www.w3.org/2000/svg" xmlns:xlink="http://www.w3.org/1999/xlink" contentStyleType="text/css" data-diagram-type="SEQUENCE" height="589px" preserveAspectRatio="none" style="width:417px;height:589px;background:#FFFFFF;" version="1.1" viewBox="0 0 417 589" width="417px" zoomAndPan="magnify"><defs/><g><g><title>Product Owner</title><rect fill="#000000" fill-opacity="0.00000" height="427.8594" width="8" x="55.936" y="81.2969"/><line style="stroke:#181818;stroke-width:0.5;stroke-dasharray:5.0,5.0;" x1="59" x2="59" y1="81.2969" y2="509.1563"/></g><g><title>System</title><rect fill="#000000" fill-opacity="0.00000" height="427.8594" width="8" x="374.6714" y="81.2969"/><line style="stroke:#181818;stroke-width:0.5;stroke-dasharray:5.0,5.0;" x1="378.5684" x2="378.5684" y1="81.2969" y2="509.1563"/></g><g class="participant participant-head" data-participant="PO"><text fill="#000000" font-family="sans-serif" font-size="14" lengthAdjust="spacing" textLength="103.8721" x="5" y="77.9951">Product Owner</text><ellipse cx="59.936" cy="13.5" fill="#E2E2F0" rx="8" ry="8" style="stroke:#181818;stroke-width:0.5;"/><path d="M59.936,21.5 L59.936,48.5 M46.936,29.5 L72.936,29.5 M59.936,48.5 L46.936,63.5 M59.936,48.5 L72.936,63.5" fill="none" style="stroke:#181818;stroke-width:0.5;"/></g><g class="participant participant-tail" data-participant="PO"><text fill="#000000" font-family="sans-serif" font-size="14" lengthAdjust="spacing" textLength="103.8721" x="5" y="521.1514">Product Owner</text><ellipse cx="59.936" cy="532.9531" fill="#E2E2F0" rx="8" ry="8" style="stroke:#181818;stroke-width:0.5;"/><path d="M59.936,540.9531 L59.936,567.9531 M46.936,548.9531 L72.936,548.9531 M59.936,567.9531 L46.936,582.9531 M59.936,567.9531 L72.936,582.9531" fill="none" style="stroke:#181818;stroke-width:0.5;"/></g><g class="participant participant-head" data-participant="S"><rect fill="#E2E2F0" height="30.2969" rx="2.5" ry="2.5" style="stroke:#181818;stroke-width:0.5;" width="66.2061" x="345.5684" y="50"/><text fill="#000000" font-family="sans-serif" font-size="14" lengthAdjust="spacing" textLength="52.2061" x="352.5684" y="69.9951">System</text></g><g class="participant participant-tail" data-participant="S"><rect fill="#E2E2F0" height="30.2969" rx="2.5" ry="2.5" style="stroke:#181818;stroke-width:0.5;" width="66.2061" x="345.5684" y="508.1563"/><text fill="#000000" font-family="sans-serif" font-size="14" lengthAdjust="spacing" textLength="52.2061" x="352.5684" y="528.1514">System</text></g><g class="message" data-participant-1="PO" data-participant-2="S"><polygon fill="#181818" points="366.6714,108.4297,376.6714,112.4297,366.6714,116.4297,370.6714,112.4297" style="stroke:#181818;stroke-width:1;"/><line style="stroke:#181818;stroke-width:1;" x1="59.936" x2="372.6714" y1="112.4297" y2="112.4297"/><text fill="#000000" font-family="sans-serif" font-size="13" font-weight="bold" lengthAdjust="spacing" textLength="9.0454" x="66.936" y="107.3638">1</text><text fill="#000000" font-family="sans-serif" font-size="13" lengthAdjust="spacing" textLength="225.7544" x="79.9814" y="107.3638">Access cargo generation simulator</text></g><g class="message" data-participant-1="S" data-participant-2="PO"><polygon fill="#181818" points="70.936,137.5625,60.936,141.5625,70.936,145.5625,66.936,141.5625" style="stroke:#181818;stroke-width:1;"/><line style="stroke:#181818;stroke-width:1;stroke-dasharray:2.0,2.0;" x1="64.936" x2="377.6714" y1="141.5625" y2="141.5625"/><text fill="#000000" font-family="sans-serif" font-size="13" font-weight="bold" lengthAdjust="spacing" textLength="9.0454" x="76.936" y="136.4966">2</text><text fill="#000000" font-family="sans-serif" font-size="13" lengthAdjust="spacing" textLength="255.6899" x="89.9814" y="136.4966">Display simulator configuration options</text></g><g class="message" data-participant-1="PO" data-participant-2="S"><polygon fill="#181818" points="366.6714,166.6953,376.6714,170.6953,366.6714,174.6953,370.6714,170.6953" style="stroke:#181818;stroke-width:1;"/><line style="stroke:#181818;stroke-width:1;" x1="59.936" x2="372.6714" y1="170.6953" y2="170.6953"/><text fill="#000000" font-family="sans-serif" font-size="13" font-weight="bold" lengthAdjust="spacing" textLength="9.0454" x="66.936" y="165.6294">3</text><text fill="#000000" font-family="sans-serif" font-size="13" lengthAdjust="spacing" textLength="281.6899" x="79.9814" y="165.6294">Configure simulation parameters (optional)</text></g><g class="message" data-participant-1="S" data-participant-2="PO"><polygon fill="#181818" points="70.936,195.8281,60.936,199.8281,70.936,203.8281,66.936,199.8281" style="stroke:#181818;stroke-width:1;"/><line style="stroke:#181818;stroke-width:1;stroke-dasharray:2.0,2.0;" x1="64.936" x2="377.6714" y1="199.8281" y2="199.8281"/><text fill="#000000" font-family="sans-serif" font-size="13" font-weight="bold" lengthAdjust="spacing" textLength="9.0454" x="76.936" y="194.7622">4</text><text fill="#000000" font-family="sans-serif" font-size="13" lengthAdjust="spacing" textLength="196.4727" x="89.9814" y="194.7622">Display updated configuration</text></g><g class="message" data-participant-1="PO" data-participant-2="S"><polygon fill="#181818" points="366.6714,224.9609,376.6714,228.9609,366.6714,232.9609,370.6714,228.9609" style="stroke:#181818;stroke-width:1;"/><line style="stroke:#181818;stroke-width:1;" x1="59.936" x2="372.6714" y1="228.9609" y2="228.9609"/><text fill="#000000" font-family="sans-serif" font-size="13" font-weight="bold" lengthAdjust="spacing" textLength="9.0454" x="66.936" y="223.895">5</text><text fill="#000000" font-family="sans-serif" font-size="13" lengthAdjust="spacing" textLength="144.4536" x="79.9814" y="223.895">Start cargo simulation</text></g><g class="message" data-participant-1="S" data-participant-2="PO"><polygon fill="#181818" points="70.936,254.0938,60.936,258.0938,70.936,262.0938,66.936,258.0938" style="stroke:#181818;stroke-width:1;"/><line style="stroke:#181818;stroke-width:1;stroke-dasharray:2.0,2.0;" x1="64.936" x2="377.6714" y1="258.0938" y2="258.0938"/><text fill="#000000" font-family="sans-serif" font-size="13" font-weight="bold" lengthAdjust="spacing" textLength="9.0454" x="76.936" y="253.0278">6</text><text fill="#000000" font-family="sans-serif" font-size="13" lengthAdjust="spacing" textLength="174.0273" x="89.9814" y="253.0278">Confirm simulation started</text></g><g class="message" data-participant-1="PO" data-participant-2="S"><polygon fill="#181818" points="366.6714,283.2266,376.6714,287.2266,366.6714,291.2266,370.6714,287.2266" style="stroke:#181818;stroke-width:1;"/><line style="stroke:#181818;stroke-width:1;" x1="59.936" x2="372.6714" y1="287.2266" y2="287.2266"/><text fill="#000000" font-family="sans-serif" font-size="13" font-weight="bold" lengthAdjust="spacing" textLength="9.0454" x="66.936" y="282.1606">7</text><text fill="#000000" font-family="sans-serif" font-size="13" lengthAdjust="spacing" textLength="213.0972" x="79.9814" y="282.1606">Request cargo generation status</text></g><g class="message" data-participant-1="S" data-participant-2="PO"><polygon fill="#181818" points="70.936,312.3594,60.936,316.3594,70.936,320.3594,66.936,316.3594" style="stroke:#181818;stroke-width:1;"/><line style="stroke:#181818;stroke-width:1;stroke-dasharray:2.0,2.0;" x1="64.936" x2="377.6714" y1="316.3594" y2="316.3594"/><text fill="#000000" font-family="sans-serif" font-size="13" font-weight="bold" lengthAdjust="spacing" textLength="9.0454" x="76.936" y="311.2935">8</text><text fill="#000000" font-family="sans-serif" font-size="13" lengthAdjust="spacing" textLength="277.1704" x="89.9814" y="311.2935">Display current cargo generation statistics</text></g><g class="message" data-participant-1="PO" data-participant-2="S"><polygon fill="#181818" points="366.6714,341.4922,376.6714,345.4922,366.6714,349.4922,370.6714,345.4922" style="stroke:#181818;stroke-width:1;"/><line style="stroke:#181818;stroke-width:1;" x1="59.936" x2="372.6714" y1="345.4922" y2="345.4922"/><text fill="#000000" font-family="sans-serif" font-size="13" font-weight="bold" lengthAdjust="spacing" textLength="9.0454" x="66.936" y="340.4263">9</text><text fill="#000000" font-family="sans-serif" font-size="13" lengthAdjust="spacing" textLength="157.9805" x="79.9814" y="340.4263">View generated cargoes</text></g><g class="message" data-participant-1="S" data-participant-2="PO"><polygon fill="#181818" points="70.936,370.625,60.936,374.625,70.936,378.625,66.936,374.625" style="stroke:#181818;stroke-width:1;"/><line style="stroke:#181818;stroke-width:1;stroke-dasharray:2.0,2.0;" x1="64.936" x2="377.6714" y1="374.625" y2="374.625"/><text fill="#000000" font-family="sans-serif" font-size="13" font-weight="bold" lengthAdjust="spacing" textLength="18.0908" x="76.936" y="369.5591">10</text><text fill="#000000" font-family="sans-serif" font-size="13" lengthAdjust="spacing" textLength="214.6523" x="99.0269" y="369.5591">Display list of generated cargoes</text></g><g class="message" data-participant-1="PO" data-participant-2="S"><polygon fill="#181818" points="366.6714,399.7578,376.6714,403.7578,366.6714,407.7578,370.6714,403.7578" style="stroke:#181818;stroke-width:1;"/><line style="stroke:#181818;stroke-width:1;" x1="59.936" x2="372.6714" y1="403.7578" y2="403.7578"/><text fill="#000000" font-family="sans-serif" font-size="13" font-weight="bold" lengthAdjust="spacing" textLength="18.0908" x="66.936" y="398.6919">11</text><text fill="#000000" font-family="sans-serif" font-size="13" lengthAdjust="spacing" textLength="259.2637" x="89.0269" y="398.6919">Adjust simulation parameters (optional)</text></g><g class="message" data-participant-1="S" data-participant-2="PO"><polygon fill="#181818" points="70.936,428.8906,60.936,432.8906,70.936,436.8906,66.936,432.8906" style="stroke:#181818;stroke-width:1;"/><line style="stroke:#181818;stroke-width:1;stroke-dasharray:2.0,2.0;" x1="64.936" x2="377.6714" y1="432.8906" y2="432.8906"/><text fill="#000000" font-family="sans-serif" font-size="13" font-weight="bold" lengthAdjust="spacing" textLength="18.0908" x="76.936" y="427.8247">12</text><text fill="#000000" font-family="sans-serif" font-size="13" lengthAdjust="spacing" textLength="209.0728" x="99.0269" y="427.8247">Confirm parameter adjustments</text></g><g class="message" data-participant-1="PO" data-participant-2="S"><polygon fill="#181818" points="366.6714,458.0234,376.6714,462.0234,366.6714,466.0234,370.6714,462.0234" style="stroke:#181818;stroke-width:1;"/><line style="stroke:#181818;stroke-width:1;" x1="59.936" x2="372.6714" y1="462.0234" y2="462.0234"/><text fill="#000000" font-family="sans-serif" font-size="13" font-weight="bold" lengthAdjust="spacing" textLength="18.0908" x="66.936" y="456.9575">13</text><text fill="#000000" font-family="sans-serif" font-size="13" lengthAdjust="spacing" textLength="210.1328" x="89.0269" y="456.9575">Pause/stop simulation (optional)</text></g><g class="message" data-participant-1="S" data-participant-2="PO"><polygon fill="#181818" points="70.936,487.1563,60.936,491.1563,70.936,495.1563,66.936,491.1563" style="stroke:#181818;stroke-width:1;"/><line style="stroke:#181818;stroke-width:1;stroke-dasharray:2.0,2.0;" x1="64.936" x2="377.6714" y1="491.1563" y2="491.1563"/><text fill="#000000" font-family="sans-serif" font-size="13" font-weight="bold" lengthAdjust="spacing" textLength="18.0908" x="76.936" y="486.0903">14</text><text fill="#000000" font-family="sans-serif" font-size="13" lengthAdjust="spacing" textLength="219.4194" x="99.0269" y="486.0903">Confirm simulation status change</text></g><!--SRC=[bP4_JyGm3CNtV0hh9XXEx3SW8TXRKOdTfBuIrFovsDRflZrfQRcSL92OClYztxDVK2K6zU-KZK4hCSEkpR5NAz2S0-KT84FRc8HPd7K9Wy2kkx2GdqUTCMq3-qVe3l1aBJ63nJn46AYuKLmCmCxhY8LjEjWNQTiSuCLn6l5odO6DuUW6NJmnJGzNzETbJgjdafMrq9DGPhZxjk1uln6ZgKUX_ZQaWdTIxbisl-8hq9oUVPtDauVwYl9A9oMMZGO4HNbZBwivK_Z5uRXKNbVmvkYyYgPZ9XDjOSTYXNZSq5Q_rNzgKVsZpBM37ntWpF3bWfhSeZ8ziCHKq_z4tjPQkWBxWM6WBm00]--></g></svg>