<svg xmlns="http://www.w3.org/2000/svg" xmlns:xlink="http://www.w3.org/1999/xlink" contentStyleType="text/css" data-diagram-type="SEQUENCE" height="627px" preserveAspectRatio="none" style="width:926px;height:627px;background:#FFFFFF;" version="1.1" viewBox="0 0 926 627" width="926px" zoomAndPan="magnify"><title>Sequence Diagram for Map Creation</title><defs/><g><text fill="#000000" font-family="sans-serif" font-size="14" font-weight="bold" lengthAdjust="spacing" textLength="286.3574" x="319.2295" y="27.9951">Sequence Diagram for Map Creation</text><g><title>Editor</title><rect fill="#000000" fill-opacity="0.00000" height="427.8594" width="8" x="24.7163" y="118.5938"/><line style="stroke:#181818;stroke-width:0.5;stroke-dasharray:5.0,5.0;" x1="28" x2="28" y1="118.5938" y2="546.4531"/></g><g><title>CreateMapUI</title><rect fill="#000000" fill-opacity="0.00000" height="427.8594" width="8" x="269.9194" y="118.5938"/><line style="stroke:#181818;stroke-width:0.5;stroke-dasharray:5.0,5.0;" x1="273.5459" x2="273.5459" y1="118.5938" y2="546.4531"/></g><g><title>CreateMapController</title><rect fill="#000000" fill-opacity="0.00000" height="427.8594" width="8" x="484.3745" y="118.5938"/><line style="stroke:#181818;stroke-width:0.5;stroke-dasharray:5.0,5.0;" x1="487.6025" x2="487.6025" y1="118.5938" y2="546.4531"/></g><g><title>MapService</title><rect fill="#000000" fill-opacity="0.00000" height="427.8594" width="8" x="669.8652" y="118.5938"/><line style="stroke:#181818;stroke-width:0.5;stroke-dasharray:5.0,5.0;" x1="673.2222" x2="673.2222" y1="118.5938" y2="546.4531"/></g><g><title>MapRepository</title><rect fill="#000000" fill-opacity="0.00000" height="427.8594" width="8" x="857.5078" y="118.5938"/><line style="stroke:#181818;stroke-width:0.5;stroke-dasharray:5.0,5.0;" x1="861.1992" x2="861.1992" y1="118.5938" y2="546.4531"/></g><g class="participant participant-head" data-participant="Editor"><text fill="#000000" font-family="sans-serif" font-size="14" lengthAdjust="spacing" textLength="41.4326" x="5" y="115.292">Editor</text><ellipse cx="28.7163" cy="50.7969" fill="#E2E2F0" rx="8" ry="8" style="stroke:#181818;stroke-width:0.5;"/><path d="M28.7163,58.7969 L28.7163,85.7969 M15.7163,66.7969 L41.7163,66.7969 M28.7163,85.7969 L15.7163,100.7969 M28.7163,85.7969 L41.7163,100.7969" fill="none" style="stroke:#181818;stroke-width:0.5;"/></g><g class="participant participant-tail" data-participant="Editor"><text fill="#000000" font-family="sans-serif" font-size="14" lengthAdjust="spacing" textLength="41.4326" x="5" y="558.4482">Editor</text><ellipse cx="28.7163" cy="570.25" fill="#E2E2F0" rx="8" ry="8" style="stroke:#181818;stroke-width:0.5;"/><path d="M28.7163,578.25 L28.7163,605.25 M15.7163,586.25 L41.7163,586.25 M28.7163,605.25 L15.7163,620.25 M28.7163,605.25 L41.7163,620.25" fill="none" style="stroke:#181818;stroke-width:0.5;"/></g><g class="participant participant-head" data-participant="UI"><rect fill="#E2E2F0" height="30.2969" rx="2.5" ry="2.5" style="stroke:#181818;stroke-width:0.5;" width="104.7471" x="221.5459" y="87.2969"/><text fill="#000000" font-family="sans-serif" font-size="14" lengthAdjust="spacing" textLength="90.7471" x="228.5459" y="107.292">CreateMapUI</text></g><g class="participant participant-tail" data-participant="UI"><rect fill="#E2E2F0" height="30.2969" rx="2.5" ry="2.5" style="stroke:#181818;stroke-width:0.5;" width="104.7471" x="221.5459" y="545.4531"/><text fill="#000000" font-family="sans-serif" font-size="14" lengthAdjust="spacing" textLength="90.7471" x="228.5459" y="565.4482">CreateMapUI</text></g><g class="participant participant-head" data-participant="Controller"><rect fill="#E2E2F0" height="30.2969" rx="2.5" ry="2.5" style="stroke:#181818;stroke-width:0.5;" width="159.5439" x="408.6025" y="87.2969"/><text fill="#000000" font-family="sans-serif" font-size="14" lengthAdjust="spacing" textLength="145.5439" x="415.6025" y="107.292">CreateMapController</text></g><g class="participant participant-tail" data-participant="Controller"><rect fill="#E2E2F0" height="30.2969" rx="2.5" ry="2.5" style="stroke:#181818;stroke-width:0.5;" width="159.5439" x="408.6025" y="545.4531"/><text fill="#000000" font-family="sans-serif" font-size="14" lengthAdjust="spacing" textLength="145.5439" x="415.6025" y="565.4482">CreateMapController</text></g><g class="participant participant-head" data-participant="Service"><rect fill="#E2E2F0" height="30.2969" rx="2.5" ry="2.5" style="stroke:#181818;stroke-width:0.5;" width="95.2861" x="626.2222" y="87.2969"/><text fill="#000000" font-family="sans-serif" font-size="14" lengthAdjust="spacing" textLength="81.2861" x="633.2222" y="107.292">MapService</text></g><g class="participant participant-tail" data-participant="Service"><rect fill="#E2E2F0" height="30.2969" rx="2.5" ry="2.5" style="stroke:#181818;stroke-width:0.5;" width="95.2861" x="626.2222" y="545.4531"/><text fill="#000000" font-family="sans-serif" font-size="14" lengthAdjust="spacing" textLength="81.2861" x="633.2222" y="565.4482">MapService</text></g><g class="participant participant-head" data-participant="Repository"><rect fill="#E2E2F0" height="30.2969" rx="2.5" ry="2.5" style="stroke:#181818;stroke-width:0.5;" width="118.6172" x="802.1992" y="87.2969"/><text fill="#000000" font-family="sans-serif" font-size="14" lengthAdjust="spacing" textLength="104.6172" x="809.1992" y="107.292">MapRepository</text></g><g class="participant participant-tail" data-participant="Repository"><rect fill="#E2E2F0" height="30.2969" rx="2.5" ry="2.5" style="stroke:#181818;stroke-width:0.5;" width="118.6172" x="802.1992" y="545.4531"/><text fill="#000000" font-family="sans-serif" font-size="14" lengthAdjust="spacing" textLength="104.6172" x="809.1992" y="565.4482">MapRepository</text></g><g class="message" data-participant-1="Editor" data-participant-2="UI"><polygon fill="#181818" points="261.9194,145.7266,271.9194,149.7266,261.9194,153.7266,265.9194,149.7266" style="stroke:#181818;stroke-width:1;"/><line style="stroke:#181818;stroke-width:1;" x1="28.7163" x2="267.9194" y1="149.7266" y2="149.7266"/><text fill="#000000" font-family="sans-serif" font-size="13" lengthAdjust="spacing" textLength="187.3384" x="35.7163" y="144.6606">Open map creation interface</text></g><g class="message" data-participant-1="UI" data-participant-2="Editor"><polygon fill="#181818" points="39.7163,174.8594,29.7163,178.8594,39.7163,182.8594,35.7163,178.8594" style="stroke:#181818;stroke-width:1;"/><line style="stroke:#181818;stroke-width:1;" x1="33.7163" x2="272.9194" y1="178.8594" y2="178.8594"/><text fill="#000000" font-family="sans-serif" font-size="13" lengthAdjust="spacing" textLength="221.2031" x="45.7163" y="173.7935">Request map name, width, height</text></g><g class="message" data-participant-1="Editor" data-participant-2="UI"><polygon fill="#181818" points="261.9194,203.9922,271.9194,207.9922,261.9194,211.9922,265.9194,207.9922" style="stroke:#181818;stroke-width:1;"/><line style="stroke:#181818;stroke-width:1;" x1="28.7163" x2="267.9194" y1="207.9922" y2="207.9922"/><text fill="#000000" font-family="sans-serif" font-size="13" lengthAdjust="spacing" textLength="201.4746" x="35.7163" y="202.9263">Input map name, width, height</text></g><g class="message" data-participant-1="UI" data-participant-2="Controller"><polygon fill="#181818" points="476.3745,233.125,486.3745,237.125,476.3745,241.125,480.3745,237.125" style="stroke:#181818;stroke-width:1;"/><line style="stroke:#181818;stroke-width:1;" x1="273.9194" x2="482.3745" y1="237.125" y2="237.125"/><text fill="#000000" font-family="sans-serif" font-size="13" lengthAdjust="spacing" textLength="190.4551" x="280.9194" y="232.0591">Submit map creation request</text></g><g class="message" data-participant-1="Controller" data-participant-2="Service"><polygon fill="#181818" points="661.8652,262.2578,671.8652,266.2578,661.8652,270.2578,665.8652,266.2578" style="stroke:#181818;stroke-width:1;"/><line style="stroke:#181818;stroke-width:1;" x1="488.3745" x2="667.8652" y1="266.2578" y2="266.2578"/><text fill="#000000" font-family="sans-serif" font-size="13" lengthAdjust="spacing" textLength="127.4102" x="495.3745" y="261.1919">Validate map name</text></g><g class="message" data-participant-1="Service" data-participant-2="Repository"><polygon fill="#181818" points="849.5078,291.3906,859.5078,295.3906,849.5078,299.3906,853.5078,295.3906" style="stroke:#181818;stroke-width:1;"/><line style="stroke:#181818;stroke-width:1;" x1="673.8652" x2="855.5078" y1="295.3906" y2="295.3906"/><text fill="#000000" font-family="sans-serif" font-size="13" lengthAdjust="spacing" textLength="159.4849" x="680.8652" y="290.3247">Check name uniqueness</text></g><g class="message" data-participant-1="Repository" data-participant-2="Service"><polygon fill="#181818" points="684.8652,320.5234,674.8652,324.5234,684.8652,328.5234,680.8652,324.5234" style="stroke:#181818;stroke-width:1;"/><line style="stroke:#181818;stroke-width:1;" x1="678.8652" x2="860.5078" y1="324.5234" y2="324.5234"/><text fill="#000000" font-family="sans-serif" font-size="13" lengthAdjust="spacing" textLength="163.6426" x="690.8652" y="319.4575">Return uniqueness result</text></g><g class="message" data-participant-1="Service" data-participant-2="Controller"><polygon fill="#181818" points="499.3745,349.6563,489.3745,353.6563,499.3745,357.6563,495.3745,353.6563" style="stroke:#181818;stroke-width:1;"/><line style="stroke:#181818;stroke-width:1;" x1="493.3745" x2="672.8652" y1="353.6563" y2="353.6563"/><text fill="#000000" font-family="sans-serif" font-size="13" lengthAdjust="spacing" textLength="115.7495" x="505.3745" y="348.5903">Validate map size</text></g><g class="message" data-participant-1="Controller" data-participant-2="Service"><polygon fill="#181818" points="661.8652,378.7891,671.8652,382.7891,661.8652,386.7891,665.8652,382.7891" style="stroke:#181818;stroke-width:1;"/><line style="stroke:#181818;stroke-width:1;" x1="488.3745" x2="667.8652" y1="382.7891" y2="382.7891"/><text fill="#000000" font-family="sans-serif" font-size="13" lengthAdjust="spacing" textLength="76.4956" x="495.3745" y="377.7231">Create map</text></g><g class="message" data-participant-1="Service" data-participant-2="Repository"><polygon fill="#181818" points="849.5078,407.9219,859.5078,411.9219,849.5078,415.9219,853.5078,411.9219" style="stroke:#181818;stroke-width:1;"/><line style="stroke:#181818;stroke-width:1;" x1="673.8652" x2="855.5078" y1="411.9219" y2="411.9219"/><text fill="#000000" font-family="sans-serif" font-size="13" lengthAdjust="spacing" textLength="64.9238" x="680.8652" y="406.856">Save map</text></g><g class="message" data-participant-1="Repository" data-participant-2="Service"><polygon fill="#181818" points="684.8652,437.0547,674.8652,441.0547,684.8652,445.0547,680.8652,441.0547" style="stroke:#181818;stroke-width:1;"/><line style="stroke:#181818;stroke-width:1;" x1="678.8652" x2="860.5078" y1="441.0547" y2="441.0547"/><text fill="#000000" font-family="sans-serif" font-size="13" lengthAdjust="spacing" textLength="86.0298" x="690.8652" y="435.9888">Confirm save</text></g><g class="message" data-participant-1="Service" data-participant-2="Controller"><polygon fill="#181818" points="499.3745,466.1875,489.3745,470.1875,499.3745,474.1875,495.3745,470.1875" style="stroke:#181818;stroke-width:1;"/><line style="stroke:#181818;stroke-width:1;" x1="493.3745" x2="672.8652" y1="470.1875" y2="470.1875"/><text fill="#000000" font-family="sans-serif" font-size="13" lengthAdjust="spacing" textLength="161.4907" x="505.3745" y="465.1216">Return success message</text></g><g class="message" data-participant-1="Controller" data-participant-2="UI"><polygon fill="#181818" points="284.9194,495.3203,274.9194,499.3203,284.9194,503.3203,280.9194,499.3203" style="stroke:#181818;stroke-width:1;"/><line style="stroke:#181818;stroke-width:1;" x1="278.9194" x2="487.3745" y1="499.3203" y2="499.3203"/><text fill="#000000" font-family="sans-serif" font-size="13" lengthAdjust="spacing" textLength="165.458" x="290.9194" y="494.2544">Display success message</text></g><g class="message" data-participant-1="UI" data-participant-2="Editor"><polygon fill="#181818" points="39.7163,524.4531,29.7163,528.4531,39.7163,532.4531,35.7163,528.4531" style="stroke:#181818;stroke-width:1;"/><line style="stroke:#181818;stroke-width:1;" x1="33.7163" x2="272.9194" y1="528.4531" y2="528.4531"/><text fill="#000000" font-family="sans-serif" font-size="13" lengthAdjust="spacing" textLength="180.5654" x="45.7163" y="523.3872">Show map creation success</text></g><!--SRC=[TP71ReCm38RlUGghv-u5EEpIxi1XcbJ4xbxg5ciGiiHfrJtz742ZjE8217_vypaMbfQWefz4pXBi6Sy1EpZr0TxHmouG2lVE6BIY_zwEh2_ZCGXRzkW4DWD3IjVb1Z12NQxKTxsJqBSjXO6RbqjUoOh2XIqDsFJzn1p8zp7Rt0PiNXepMiBBgxeKyE79GQVDsAaPO2SKJgYXTPcfaIyqGwyXoW0xx6WBLpvAiuM6-Dp8GsxfV5fdn-IvnmAgzDMnB4t2UAAPkRnhQhc0Jspvg9VtVugPIfcQEovWrv3z7WX8ZlCmAKOp4ulK0qaAxWvKZPXQkG-_5rzOHFwbDTrnqXbRywpmCjPNr3JunA63gDoQpgGVaxNPlTC7dX-Tye3s77sBjoToEVIgwQ_BeKpy7m00]--></g></svg>