<svg xmlns="http://www.w3.org/2000/svg" xmlns:xlink="http://www.w3.org/1999/xlink" contentStyleType="text/css" height="294px" preserveAspectRatio="none" style="width:943px;height:294px;background:#FFFFFF;" version="1.1" viewBox="0 0 943 294" width="943px" zoomAndPan="magnify"><title>US08 - Get End Stations - Partial Sequence Diagram</title><defs/><g><text fill="#000000" font-family="sans-serif" font-size="14" font-weight="bold" lengthAdjust="spacing" textLength="345.4268" x="297.9587" y="30.1074">US08 - Get End Stations - Partial Sequence Diagram</text><rect fill="#FFFFFF" height="127.1641" style="stroke:#181818;stroke-width:1.0;" width="10" x="308.5957" y="111.5332"/><rect fill="#FFFFFF" height="31.291" style="stroke:#181818;stroke-width:1.0;" width="10" x="549.3218" y="169.1152"/><rect fill="none" height="81.873" style="stroke:#000000;stroke-width:1.5;" width="417.5186" x="210.9995" y="126.5332"/><line style="stroke:#181818;stroke-width:0.5;stroke-dasharray:5.0,5.0;" x1="74" x2="74" y1="78.2422" y2="256.6973"/><line style="stroke:#181818;stroke-width:0.5;stroke-dasharray:5.0,5.0;" x1="312.9995" x2="312.9995" y1="78.2422" y2="256.6973"/><line style="stroke:#181818;stroke-width:0.5;stroke-dasharray:5.0,5.0;" x1="554.1255" x2="554.1255" y1="78.2422" y2="256.6973"/><line style="stroke:#181818;stroke-width:0.5;stroke-dasharray:5.0,5.0;" x1="694.5181" x2="694.5181" y1="78.2422" y2="256.6973"/><line style="stroke:#181818;stroke-width:0.5;stroke-dasharray:5.0,5.0;" x1="853.8071" x2="853.8071" y1="78.2422" y2="256.6973"/><rect fill="#E3E3E3" height="32.6211" rx="2.5" ry="2.5" style="stroke:#181818;stroke-width:0.5;" width="138.5029" x="5" y="44.6211"/><text fill="#000000" font-family="sans-serif" font-size="14" lengthAdjust="spacing" textLength="124.5029" x="12" y="66.7285">:BuildRailwayLineUI</text><rect fill="#E3E3E3" height="32.6211" rx="2.5" ry="2.5" style="stroke:#181818;stroke-width:0.5;" width="138.5029" x="5" y="255.6973"/><text fill="#000000" font-family="sans-serif" font-size="14" lengthAdjust="spacing" textLength="124.5029" x="12" y="277.8047">:BuildRailwayLineUI</text><rect fill="#E3E3E3" height="32.6211" rx="2.5" ry="2.5" style="stroke:#181818;stroke-width:0.5;" width="185.1924" x="220.9995" y="44.6211"/><text fill="#000000" font-family="sans-serif" font-size="14" lengthAdjust="spacing" textLength="171.1924" x="227.9995" y="66.7285">:BuildRailwayLineController</text><rect fill="#E3E3E3" height="32.6211" rx="2.5" ry="2.5" style="stroke:#181818;stroke-width:0.5;" width="185.1924" x="220.9995" y="255.6973"/><text fill="#000000" font-family="sans-serif" font-size="14" lengthAdjust="spacing" textLength="171.1924" x="227.9995" y="277.8047">:BuildRailwayLineController</text><rect fill="#E3E3E3" height="32.6211" rx="2.5" ry="2.5" style="stroke:#181818;stroke-width:0.5;" width="128.3926" x="490.1255" y="44.6211"/><text fill="#000000" font-family="sans-serif" font-size="14" lengthAdjust="spacing" textLength="114.3926" x="497.1255" y="66.7285">:StationRepository</text><rect fill="#E3E3E3" height="32.6211" rx="2.5" ry="2.5" style="stroke:#181818;stroke-width:0.5;" width="128.3926" x="490.1255" y="255.6973"/><text fill="#000000" font-family="sans-serif" font-size="14" lengthAdjust="spacing" textLength="114.3926" x="497.1255" y="277.8047">:StationRepository</text><rect fill="#E3E3E3" height="32.6211" rx="2.5" ry="2.5" style="stroke:#181818;stroke-width:0.5;" width="132.2891" x="628.5181" y="44.6211"/><text fill="#000000" font-family="sans-serif" font-size="14" lengthAdjust="spacing" textLength="118.2891" x="635.5181" y="66.7285">startStation:Station</text><rect fill="#E3E3E3" height="32.6211" rx="2.5" ry="2.5" style="stroke:#181818;stroke-width:0.5;" width="132.2891" x="628.5181" y="255.6973"/><text fill="#000000" font-family="sans-serif" font-size="14" lengthAdjust="spacing" textLength="118.2891" x="635.5181" y="277.8047">startStation:Station</text><rect fill="#E3E3E3" height="32.6211" rx="2.5" ry="2.5" style="stroke:#181818;stroke-width:0.5;" width="166.5371" x="770.8071" y="44.6211"/><text fill="#000000" font-family="sans-serif" font-size="14" lengthAdjust="spacing" textLength="152.5371" x="777.8071" y="66.7285">stationList :List&lt;Station&gt;</text><rect fill="#E3E3E3" height="32.6211" rx="2.5" ry="2.5" style="stroke:#181818;stroke-width:0.5;" width="166.5371" x="770.8071" y="255.6973"/><text fill="#000000" font-family="sans-serif" font-size="14" lengthAdjust="spacing" textLength="152.5371" x="777.8071" y="277.8047">stationList :List&lt;Station&gt;</text><rect fill="#FFFFFF" height="127.1641" style="stroke:#181818;stroke-width:1.0;" width="10" x="308.5957" y="111.5332"/><rect fill="#FFFFFF" height="31.291" style="stroke:#181818;stroke-width:1.0;" width="10" x="549.3218" y="169.1152"/><polygon fill="#181818" points="296.5957,107.5332,306.5957,111.5332,296.5957,115.5332,300.5957,111.5332" style="stroke:#181818;stroke-width:1.0;"/><line style="stroke:#181818;stroke-width:1.0;" x1="74.2515" x2="302.5957" y1="111.5332" y2="111.5332"/><text fill="#000000" font-family="sans-serif" font-size="13" lengthAdjust="spacing" textLength="215.3442" x="81.2515" y="106.2705">getAvailableEndStations(startStation)</text><path d="M210.9995,126.5332 L360.7295,126.5332 L360.7295,135.8242 L350.7295,145.8242 L210.9995,145.8242 L210.9995,126.5332 " fill="#EEEEEE" style="stroke:#000000;stroke-width:1.5;"/><rect fill="none" height="81.873" style="stroke:#000000;stroke-width:1.5;" width="417.5186" x="210.9995" y="126.5332"/><text fill="#000000" font-family="sans-serif" font-size="13" font-weight="bold" lengthAdjust="spacing" textLength="104.73" x="225.9995" y="141.5615">Get End Stations</text><polygon fill="#181818" points="537.3218,165.1152,547.3218,169.1152,537.3218,173.1152,541.3218,169.1152" style="stroke:#181818;stroke-width:1.0;"/><line style="stroke:#181818;stroke-width:1.0;" x1="318.5957" x2="543.3218" y1="169.1152" y2="169.1152"/><text fill="#000000" font-family="sans-serif" font-size="13" lengthAdjust="spacing" textLength="211.7261" x="325.5957" y="163.8525">getPossibleEndStations(startStation)</text><polygon fill="#181818" points="329.5957,196.4063,319.5957,200.4063,329.5957,204.4063,325.5957,200.4063" style="stroke:#181818;stroke-width:1.0;"/><line style="stroke:#181818;stroke-width:1.0;stroke-dasharray:2.0,2.0;" x1="323.5957" x2="553.3218" y1="200.4063" y2="200.4063"/><text fill="#000000" font-family="sans-serif" font-size="13" lengthAdjust="spacing" textLength="58.5317" x="335.5957" y="195.1436">stationList</text><polygon fill="#181818" points="85.2515,234.6973,75.2515,238.6973,85.2515,242.6973,81.2515,238.6973" style="stroke:#181818;stroke-width:1.0;"/><line style="stroke:#181818;stroke-width:1.0;stroke-dasharray:2.0,2.0;" x1="79.2515" x2="312.5957" y1="238.6973" y2="238.6973"/><text fill="#000000" font-family="sans-serif" font-size="13" lengthAdjust="spacing" textLength="58.5317" x="91.2515" y="233.4346">stationList</text><!--SRC=[XL1BQm8n4BxdLmoUseFGOv4YM2jbOQcoZtEPxaxNO4osoQpYlsyshZPMQdC89FEzvdCRgLkqk8MjqQPQMxCbODkHSET9YzK66yhve0WiLOowKJ70hR4sUwaR-4JbI0YMxA5b_l08OtWbXeMk8MTaQRJpNokqB551JbyTwOhWHMBZbOHe-qabMzGCeybp9rMTeLHxFAHIKvcC01sKoJ-ukT5iZL9a0tvUPEalnX0cezOuoSOU0Z0lPaMoVCiMg-Kbth5_3PmJzyJ8YlU1TyNfOQbq39F-VXg8qzWhJV92Y3A1yJJaX0aqnBETNmO_5FdYJhtTnI7k1LOiTyXqt0xyQQpfsgkwmoWeUuTemQFHoZWdR_hqzBDNN10C9zOS_smHhH-WDVsfGZvk21zbzKA-b4kPIA87VGC0]--></g></svg>