<svg xmlns="http://www.w3.org/2000/svg" xmlns:xlink="http://www.w3.org/1999/xlink" contentStyleType="text/css" height="356px" preserveAspectRatio="none" style="width:792px;height:356px;background:#FFFFFF;" version="1.1" viewBox="0 0 792 356" width="792px" zoomAndPan="magnify"><title>US08 - Get Available Stations - Partial Sequence Diagram</title><defs/><g><text fill="#000000" font-family="sans-serif" font-size="14" font-weight="bold" lengthAdjust="spacing" textLength="380.4609" x="205.0474" y="30.1074">US08 - Get Available Stations - Partial Sequence Diagram</text><rect fill="#FFFFFF" height="189.7461" style="stroke:#181818;stroke-width:1.0;" width="10" x="241.0991" y="111.5332"/><rect fill="#FFFFFF" height="31.291" style="stroke:#181818;stroke-width:1.0;" width="10" x="405.1606" y="169.1152"/><rect fill="#FFFFFF" height="31.291" style="stroke:#181818;stroke-width:1.0;" width="10" x="540.8223" y="231.6973"/><rect fill="none" height="144.4551" style="stroke:#000000;stroke-width:1.5;" width="476.5156" x="143.5029" y="126.5332"/><line style="stroke:#181818;stroke-width:0.5;stroke-dasharray:5.0,5.0;" x1="74" x2="74" y1="78.2422" y2="319.2793"/><line style="stroke:#181818;stroke-width:0.5;stroke-dasharray:5.0,5.0;" x1="245.5029" x2="245.5029" y1="78.2422" y2="319.2793"/><line style="stroke:#181818;stroke-width:0.5;stroke-dasharray:5.0,5.0;" x1="409.6953" x2="409.6953" y1="78.2422" y2="319.2793"/><line style="stroke:#181818;stroke-width:0.5;stroke-dasharray:5.0,5.0;" x1="545.626" x2="545.626" y1="78.2422" y2="319.2793"/><line style="stroke:#181818;stroke-width:0.5;stroke-dasharray:5.0,5.0;" x1="703.0186" x2="703.0186" y1="78.2422" y2="319.2793"/><rect fill="#E3E3E3" height="32.6211" rx="2.5" ry="2.5" style="stroke:#181818;stroke-width:0.5;" width="138.5029" x="5" y="44.6211"/><text fill="#000000" font-family="sans-serif" font-size="14" lengthAdjust="spacing" textLength="124.5029" x="12" y="66.7285">:BuildRailwayLineUI</text><rect fill="#E3E3E3" height="32.6211" rx="2.5" ry="2.5" style="stroke:#181818;stroke-width:0.5;" width="138.5029" x="5" y="318.2793"/><text fill="#000000" font-family="sans-serif" font-size="14" lengthAdjust="spacing" textLength="124.5029" x="12" y="340.3867">:BuildRailwayLineUI</text><rect fill="#E3E3E3" height="32.6211" rx="2.5" ry="2.5" style="stroke:#181818;stroke-width:0.5;" width="185.1924" x="153.5029" y="44.6211"/><text fill="#000000" font-family="sans-serif" font-size="14" lengthAdjust="spacing" textLength="171.1924" x="160.5029" y="66.7285">:BuildRailwayLineController</text><rect fill="#E3E3E3" height="32.6211" rx="2.5" ry="2.5" style="stroke:#181818;stroke-width:0.5;" width="185.1924" x="153.5029" y="318.2793"/><text fill="#000000" font-family="sans-serif" font-size="14" lengthAdjust="spacing" textLength="171.1924" x="160.5029" y="340.3867">:BuildRailwayLineController</text><rect fill="#E3E3E3" height="32.6211" rx="2.5" ry="2.5" style="stroke:#181818;stroke-width:0.5;" width="122.9307" x="348.6953" y="44.6211"/><text fill="#000000" font-family="sans-serif" font-size="14" lengthAdjust="spacing" textLength="108.9307" x="355.6953" y="66.7285">:GameRepository</text><rect fill="#E3E3E3" height="32.6211" rx="2.5" ry="2.5" style="stroke:#181818;stroke-width:0.5;" width="122.9307" x="348.6953" y="318.2793"/><text fill="#000000" font-family="sans-serif" font-size="14" lengthAdjust="spacing" textLength="108.9307" x="355.6953" y="340.3867">:GameRepository</text><rect fill="#E3E3E3" height="32.6211" rx="2.5" ry="2.5" style="stroke:#181818;stroke-width:0.5;" width="128.3926" x="481.626" y="44.6211"/><text fill="#000000" font-family="sans-serif" font-size="14" lengthAdjust="spacing" textLength="114.3926" x="488.626" y="66.7285">:StationRepository</text><rect fill="#E3E3E3" height="32.6211" rx="2.5" ry="2.5" style="stroke:#181818;stroke-width:0.5;" width="128.3926" x="481.626" y="318.2793"/><text fill="#000000" font-family="sans-serif" font-size="14" lengthAdjust="spacing" textLength="114.3926" x="488.626" y="340.3867">:StationRepository</text><rect fill="#E3E3E3" height="32.6211" rx="2.5" ry="2.5" style="stroke:#181818;stroke-width:0.5;" width="166.5371" x="620.0186" y="44.6211"/><text fill="#000000" font-family="sans-serif" font-size="14" lengthAdjust="spacing" textLength="152.5371" x="627.0186" y="66.7285">stationList :List&lt;Station&gt;</text><rect fill="#E3E3E3" height="32.6211" rx="2.5" ry="2.5" style="stroke:#181818;stroke-width:0.5;" width="166.5371" x="620.0186" y="318.2793"/><text fill="#000000" font-family="sans-serif" font-size="14" lengthAdjust="spacing" textLength="152.5371" x="627.0186" y="340.3867">stationList :List&lt;Station&gt;</text><rect fill="#FFFFFF" height="189.7461" style="stroke:#181818;stroke-width:1.0;" width="10" x="241.0991" y="111.5332"/><rect fill="#FFFFFF" height="31.291" style="stroke:#181818;stroke-width:1.0;" width="10" x="405.1606" y="169.1152"/><rect fill="#FFFFFF" height="31.291" style="stroke:#181818;stroke-width:1.0;" width="10" x="540.8223" y="231.6973"/><polygon fill="#181818" points="229.0991,107.5332,239.0991,111.5332,229.0991,115.5332,233.0991,111.5332" style="stroke:#181818;stroke-width:1.0;"/><line style="stroke:#181818;stroke-width:1.0;" x1="74.2515" x2="235.0991" y1="111.5332" y2="111.5332"/><text fill="#000000" font-family="sans-serif" font-size="13" lengthAdjust="spacing" textLength="126.458" x="81.2515" y="106.2705">getAvailableStations()</text><path d="M143.5029,126.5332 L325.7646,126.5332 L325.7646,135.8242 L315.7646,145.8242 L143.5029,145.8242 L143.5029,126.5332 " fill="#EEEEEE" style="stroke:#000000;stroke-width:1.5;"/><rect fill="none" height="144.4551" style="stroke:#000000;stroke-width:1.5;" width="476.5156" x="143.5029" y="126.5332"/><text fill="#000000" font-family="sans-serif" font-size="13" font-weight="bold" lengthAdjust="spacing" textLength="137.2617" x="158.5029" y="141.5615">Get Available Stations</text><polygon fill="#181818" points="393.1606,165.1152,403.1606,169.1152,393.1606,173.1152,397.1606,169.1152" style="stroke:#181818;stroke-width:1.0;"/><line style="stroke:#181818;stroke-width:1.0;" x1="251.0991" x2="399.1606" y1="169.1152" y2="169.1152"/><text fill="#000000" font-family="sans-serif" font-size="13" lengthAdjust="spacing" textLength="129.3398" x="258.0991" y="163.8525">getStationRepository()</text><polygon fill="#181818" points="262.0991,196.4063,252.0991,200.4063,262.0991,204.4063,258.0991,200.4063" style="stroke:#181818;stroke-width:1.0;"/><line style="stroke:#181818;stroke-width:1.0;stroke-dasharray:2.0,2.0;" x1="256.0991" x2="409.1606" y1="200.4063" y2="200.4063"/><text fill="#000000" font-family="sans-serif" font-size="13" lengthAdjust="spacing" textLength="100.439" x="268.0991" y="195.1436">stationRepository</text><polygon fill="#181818" points="528.8223,227.6973,538.8223,231.6973,528.8223,235.6973,532.8223,231.6973" style="stroke:#181818;stroke-width:1.0;"/><line style="stroke:#181818;stroke-width:1.0;" x1="251.0991" x2="534.8223" y1="231.6973" y2="231.6973"/><text fill="#000000" font-family="sans-serif" font-size="13" lengthAdjust="spacing" textLength="88.1499" x="258.0991" y="226.4346">getAllStations()</text><polygon fill="#181818" points="262.0991,258.9883,252.0991,262.9883,262.0991,266.9883,258.0991,262.9883" style="stroke:#181818;stroke-width:1.0;"/><line style="stroke:#181818;stroke-width:1.0;stroke-dasharray:2.0,2.0;" x1="256.0991" x2="544.8223" y1="262.9883" y2="262.9883"/><text fill="#000000" font-family="sans-serif" font-size="13" lengthAdjust="spacing" textLength="58.5317" x="268.0991" y="257.7256">stationList</text><polygon fill="#181818" points="85.2515,297.2793,75.2515,301.2793,85.2515,305.2793,81.2515,301.2793" style="stroke:#181818;stroke-width:1.0;"/><line style="stroke:#181818;stroke-width:1.0;stroke-dasharray:2.0,2.0;" x1="79.2515" x2="245.0991" y1="301.2793" y2="301.2793"/><text fill="#000000" font-family="sans-serif" font-size="13" lengthAdjust="spacing" textLength="58.5317" x="91.2515" y="296.0166">stationList</text><!--SRC=[XP7BJiCm44Nt-OeHArXKOeagLAcKgeeKQ9N71mp9a5frx61FMlNlSHuDRWh2YopYCoTtRkn1g1eDLb1ffVEzqHK1cuO2EzxKc1-mf8JFai1GpgXAwGDsZuK-2LN29qfBGS227PebZqymWmqnB8ye97wubmaZ2wsikzYXOO4I4lfgIEK4hm9Bvmk2kht9HOsAuMx-qWXPn4vmmdCa56NX7Q25BFo7Msd5Haj9fkDNQHnD9ZPOKKorjeArENVKPlcsZjUxxOGSOa_W95scuVRzbhSz7WdBC6-VpuDWuSz5OP86GHR2RD6bWpcKn6DNbwhk7mBCMHoHgLy2t2cDRke_kks0JkZ4buLw-SqUJjxIumV6_M4uu_pi9wMTMZgweDyjboHUMyEcKdexNiNmcxqayUTlmxGjJsDCBQIAlZWlbnEvFt2jyHGjz0q0]--></g></svg>