<svg xmlns="http://www.w3.org/2000/svg" xmlns:xlink="http://www.w3.org/1999/xlink" contentStyleType="text/css" height="820px" preserveAspectRatio="none" style="width:1554px;height:820px;background:#FFFFFF;" version="1.1" viewBox="0 0 1554 820" width="1554px" zoomAndPan="magnify"><title>Sequence Diagram (SD) - US08 Build Railway Line - Split</title><defs/><g><text fill="#000000" font-family="sans-serif" font-size="14" font-weight="bold" lengthAdjust="spacing" textLength="376.5234" x="586.5598" y="30.1074">Sequence Diagram (SD) - US08 Build Railway Line - Split</text><rect fill="#FFFFFF" height="586.5" style="stroke:#181818;stroke-width:1.0;" width="10" x="22.8413" y="133.2422"/><rect fill="#FFFFFF" height="142.125" style="stroke:#181818;stroke-width:1.0;" width="10" x="443.0845" y="156.5332"/><rect fill="#FFFFFF" height="123.834" style="stroke:#181818;stroke-width:1.0;" width="10" x="443.0845" y="329.9492"/><rect fill="#FFFFFF" height="123.834" style="stroke:#181818;stroke-width:1.0;" width="10" x="443.0845" y="485.0742"/><rect fill="#FFFFFF" height="79.543" style="stroke:#181818;stroke-width:1.0;" width="10" x="443.0845" y="640.1992"/><rect fill="#FFFFFF" height="31.291" style="stroke:#181818;stroke-width:1.0;" width="10" x="708.7051" y="187.8242"/><line style="stroke:#181818;stroke-width:0.5;stroke-dasharray:5.0,5.0;" x1="27" x2="27" y1="123.2422" y2="737.7422"/><line style="stroke:#181818;stroke-width:0.5;stroke-dasharray:5.0,5.0;" x1="447.833" x2="447.833" y1="123.2422" y2="737.7422"/><line style="stroke:#181818;stroke-width:0.5;stroke-dasharray:5.0,5.0;" x1="713.1089" x2="713.1089" y1="123.2422" y2="737.7422"/><line style="stroke:#181818;stroke-width:0.5;stroke-dasharray:5.0,5.0;" x1="863.3013" x2="863.3013" y1="123.2422" y2="737.7422"/><line style="stroke:#181818;stroke-width:0.5;stroke-dasharray:5.0,5.0;" x1="988.0044" x2="988.0044" y1="123.2422" y2="737.7422"/><line style="stroke:#181818;stroke-width:0.5;stroke-dasharray:5.0,5.0;" x1="1128.2935" x2="1128.2935" y1="123.2422" y2="737.7422"/><line style="stroke:#181818;stroke-width:0.5;stroke-dasharray:5.0,5.0;" x1="1238.7134" x2="1238.7134" y1="123.2422" y2="737.7422"/><line style="stroke:#181818;stroke-width:0.5;stroke-dasharray:5.0,5.0;" x1="1328.6509" x2="1328.6509" y1="123.2422" y2="737.7422"/><line style="stroke:#181818;stroke-width:0.5;stroke-dasharray:5.0,5.0;" x1="1463.2368" x2="1463.2368" y1="123.2422" y2="737.7422"/><text fill="#000000" font-family="sans-serif" font-size="14" lengthAdjust="spacing" textLength="39.6826" x="5" y="119.7285">Player</text><ellipse cx="27.8413" cy="53.1211" fill="#E3E3E3" rx="8" ry="8" style="stroke:#181818;stroke-width:0.5;"/><path d="M27.8413,61.1211 L27.8413,88.1211 M14.8413,69.1211 L40.8413,69.1211 M27.8413,88.1211 L14.8413,103.1211 M27.8413,88.1211 L40.8413,103.1211 " fill="none" style="stroke:#181818;stroke-width:0.5;"/><text fill="#000000" font-family="sans-serif" font-size="14" lengthAdjust="spacing" textLength="39.6826" x="5" y="751.8496">Player</text><ellipse cx="27.8413" cy="763.8633" fill="#E3E3E3" rx="8" ry="8" style="stroke:#181818;stroke-width:0.5;"/><path d="M27.8413,771.8633 L27.8413,798.8633 M14.8413,779.8633 L40.8413,779.8633 M27.8413,798.8633 L14.8413,813.8633 M27.8413,798.8633 L40.8413,813.8633 " fill="none" style="stroke:#181818;stroke-width:0.5;"/><rect fill="#E3E3E3" height="32.6211" rx="2.5" ry="2.5" style="stroke:#181818;stroke-width:0.5;" width="138.5029" x="378.833" y="89.6211"/><text fill="#000000" font-family="sans-serif" font-size="14" lengthAdjust="spacing" textLength="124.5029" x="385.833" y="111.7285">:BuildRailwayLineUI</text><rect fill="#E3E3E3" height="32.6211" rx="2.5" ry="2.5" style="stroke:#181818;stroke-width:0.5;" width="138.5029" x="378.833" y="736.7422"/><text fill="#000000" font-family="sans-serif" font-size="14" lengthAdjust="spacing" textLength="124.5029" x="385.833" y="758.8496">:BuildRailwayLineUI</text><rect fill="#E3E3E3" height="32.6211" rx="2.5" ry="2.5" style="stroke:#181818;stroke-width:0.5;" width="185.1924" x="621.1089" y="89.6211"/><text fill="#000000" font-family="sans-serif" font-size="14" lengthAdjust="spacing" textLength="171.1924" x="628.1089" y="111.7285">:BuildRailwayLineController</text><rect fill="#E3E3E3" height="32.6211" rx="2.5" ry="2.5" style="stroke:#181818;stroke-width:0.5;" width="185.1924" x="621.1089" y="736.7422"/><text fill="#000000" font-family="sans-serif" font-size="14" lengthAdjust="spacing" textLength="171.1924" x="628.1089" y="758.8496">:BuildRailwayLineController</text><rect fill="#E3E3E3" height="32.6211" rx="2.5" ry="2.5" style="stroke:#181818;stroke-width:0.5;" width="95.7031" x="816.3013" y="89.6211"/><text fill="#000000" font-family="sans-serif" font-size="14" lengthAdjust="spacing" textLength="81.7031" x="823.3013" y="111.7285">player:Player</text><rect fill="#E3E3E3" height="32.6211" rx="2.5" ry="2.5" style="stroke:#181818;stroke-width:0.5;" width="95.7031" x="816.3013" y="736.7422"/><text fill="#000000" font-family="sans-serif" font-size="14" lengthAdjust="spacing" textLength="81.7031" x="823.3013" y="758.8496">player:Player</text><rect fill="#E3E3E3" height="32.6211" rx="2.5" ry="2.5" style="stroke:#181818;stroke-width:0.5;" width="132.2891" x="922.0044" y="89.6211"/><text fill="#000000" font-family="sans-serif" font-size="14" lengthAdjust="spacing" textLength="118.2891" x="929.0044" y="111.7285">startStation:Station</text><rect fill="#E3E3E3" height="32.6211" rx="2.5" ry="2.5" style="stroke:#181818;stroke-width:0.5;" width="132.2891" x="922.0044" y="736.7422"/><text fill="#000000" font-family="sans-serif" font-size="14" lengthAdjust="spacing" textLength="118.2891" x="929.0044" y="758.8496">startStation:Station</text><rect fill="#E3E3E3" height="32.6211" rx="2.5" ry="2.5" style="stroke:#181818;stroke-width:0.5;" width="128.4199" x="1064.2935" y="89.6211"/><text fill="#000000" font-family="sans-serif" font-size="14" lengthAdjust="spacing" textLength="114.4199" x="1071.2935" y="111.7285">endStation:Station</text><rect fill="#E3E3E3" height="32.6211" rx="2.5" ry="2.5" style="stroke:#181818;stroke-width:0.5;" width="128.4199" x="1064.2935" y="736.7422"/><text fill="#000000" font-family="sans-serif" font-size="14" lengthAdjust="spacing" textLength="114.4199" x="1071.2935" y="758.8496">endStation:Station</text><rect fill="#E3E3E3" height="32.6211" rx="2.5" ry="2.5" style="stroke:#181818;stroke-width:0.5;" width="73.9375" x="1202.7134" y="89.6211"/><text fill="#000000" font-family="sans-serif" font-size="14" lengthAdjust="spacing" textLength="59.9375" x="1209.7134" y="111.7285">path:Path</text><rect fill="#E3E3E3" height="32.6211" rx="2.5" ry="2.5" style="stroke:#181818;stroke-width:0.5;" width="73.9375" x="1202.7134" y="736.7422"/><text fill="#000000" font-family="sans-serif" font-size="14" lengthAdjust="spacing" textLength="59.9375" x="1209.7134" y="758.8496">path:Path</text><rect fill="#E3E3E3" height="32.6211" rx="2.5" ry="2.5" style="stroke:#181818;stroke-width:0.5;" width="85.5859" x="1286.6509" y="89.6211"/><text fill="#000000" font-family="sans-serif" font-size="14" lengthAdjust="spacing" textLength="71.5859" x="1293.6509" y="111.7285">cost:Money</text><rect fill="#E3E3E3" height="32.6211" rx="2.5" ry="2.5" style="stroke:#181818;stroke-width:0.5;" width="85.5859" x="1286.6509" y="736.7422"/><text fill="#000000" font-family="sans-serif" font-size="14" lengthAdjust="spacing" textLength="71.5859" x="1293.6509" y="758.8496">cost:Money</text><rect fill="#E3E3E3" height="32.6211" rx="2.5" ry="2.5" style="stroke:#181818;stroke-width:0.5;" width="163.4063" x="1382.2368" y="89.6211"/><text fill="#000000" font-family="sans-serif" font-size="14" lengthAdjust="spacing" textLength="149.4063" x="1389.2368" y="111.7285">railwayLine:RailwayLine</text><rect fill="#E3E3E3" height="32.6211" rx="2.5" ry="2.5" style="stroke:#181818;stroke-width:0.5;" width="163.4063" x="1382.2368" y="736.7422"/><text fill="#000000" font-family="sans-serif" font-size="14" lengthAdjust="spacing" textLength="149.4063" x="1389.2368" y="758.8496">railwayLine:RailwayLine</text><rect fill="#FFFFFF" height="586.5" style="stroke:#181818;stroke-width:1.0;" width="10" x="22.8413" y="133.2422"/><rect fill="#FFFFFF" height="142.125" style="stroke:#181818;stroke-width:1.0;" width="10" x="443.0845" y="156.5332"/><rect fill="#FFFFFF" height="123.834" style="stroke:#181818;stroke-width:1.0;" width="10" x="443.0845" y="329.9492"/><rect fill="#FFFFFF" height="123.834" style="stroke:#181818;stroke-width:1.0;" width="10" x="443.0845" y="485.0742"/><rect fill="#FFFFFF" height="79.543" style="stroke:#181818;stroke-width:1.0;" width="10" x="443.0845" y="640.1992"/><rect fill="#FFFFFF" height="31.291" style="stroke:#181818;stroke-width:1.0;" width="10" x="708.7051" y="187.8242"/><polygon fill="#181818" points="431.0845,152.5332,441.0845,156.5332,431.0845,160.5332,435.0845,156.5332" style="stroke:#181818;stroke-width:1.0;"/><line style="stroke:#181818;stroke-width:1.0;" x1="32.8413" x2="437.0845" y1="156.5332" y2="156.5332"/><text fill="#000000" font-family="sans-serif" font-size="13" font-weight="bold" lengthAdjust="spacing" textLength="7.23" x="39.8413" y="151.2705">1</text><text fill="#000000" font-family="sans-serif" font-size="13" lengthAdjust="spacing" textLength="174.1479" x="51.0713" y="151.2705">requests to build a railway line</text><polygon fill="#181818" points="696.7051,183.8242,706.7051,187.8242,696.7051,191.8242,700.7051,187.8242" style="stroke:#181818;stroke-width:1.0;"/><line style="stroke:#181818;stroke-width:1.0;" x1="453.0845" x2="702.7051" y1="187.8242" y2="187.8242"/><text fill="#000000" font-family="sans-serif" font-size="13" font-weight="bold" lengthAdjust="spacing" textLength="7.23" x="460.0845" y="182.5615">2</text><text fill="#000000" font-family="sans-serif" font-size="13" lengthAdjust="spacing" textLength="106.9263" x="471.3145" y="182.5615">getCurrentPlayer()</text><polygon fill="#181818" points="464.0845,215.1152,454.0845,219.1152,464.0845,223.1152,460.0845,219.1152" style="stroke:#181818;stroke-width:1.0;"/><line style="stroke:#181818;stroke-width:1.0;stroke-dasharray:2.0,2.0;" x1="458.0845" x2="712.7051" y1="219.1152" y2="219.1152"/><text fill="#000000" font-family="sans-serif" font-size="13" font-weight="bold" lengthAdjust="spacing" textLength="7.23" x="470.0845" y="213.8525">3</text><text fill="#000000" font-family="sans-serif" font-size="13" lengthAdjust="spacing" textLength="35.4072" x="481.3145" y="213.8525">player</text><rect fill="none" height="43.252" style="stroke:#000000;stroke-width:1.5;" width="433.4683" x="375.833" y="227.1152"/><path d="M375.833,227.1152 L436.833,227.1152 L436.833,236.1152 L426.833,246.1152 L375.833,246.1152 L375.833,227.1152 " fill="#EEEEEE" style="stroke:#000000;stroke-width:2.0;"/><text fill="#000000" font-family="sans-serif" font-size="13" font-weight="bold" lengthAdjust="spacing" textLength="16.6182" x="388.833" y="243.1436">ref</text><text fill="#000000" font-family="sans-serif" font-size="12" lengthAdjust="spacing" textLength="118.0664" x="533.5339" y="263.0645">Get Available Stations</text><polygon fill="#181818" points="43.8413,294.6582,33.8413,298.6582,43.8413,302.6582,39.8413,298.6582" style="stroke:#181818;stroke-width:1.0;"/><line style="stroke:#181818;stroke-width:1.0;stroke-dasharray:2.0,2.0;" x1="37.8413" x2="447.0845" y1="298.6582" y2="298.6582"/><text fill="#000000" font-family="sans-serif" font-size="13" font-weight="bold" lengthAdjust="spacing" textLength="7.23" x="49.8413" y="293.3955">4</text><text fill="#000000" font-family="sans-serif" font-size="13" lengthAdjust="spacing" textLength="336.0132" x="61.0713" y="293.3955">shows available stations and asks to select starting station</text><polygon fill="#181818" points="431.0845,325.9492,441.0845,329.9492,431.0845,333.9492,435.0845,329.9492" style="stroke:#181818;stroke-width:1.0;"/><line style="stroke:#181818;stroke-width:1.0;" x1="32.8413" x2="437.0845" y1="329.9492" y2="329.9492"/><text fill="#000000" font-family="sans-serif" font-size="13" font-weight="bold" lengthAdjust="spacing" textLength="7.23" x="39.8413" y="324.6865">5</text><text fill="#000000" font-family="sans-serif" font-size="13" lengthAdjust="spacing" textLength="128.6162" x="51.0713" y="324.6865">selects starting station</text><line style="stroke:#181818;stroke-width:1.0;" x1="453.0845" x2="495.0845" y1="361.2402" y2="361.2402"/><line style="stroke:#181818;stroke-width:1.0;" x1="495.0845" x2="495.0845" y1="361.2402" y2="374.2402"/><line style="stroke:#181818;stroke-width:1.0;" x1="454.0845" x2="495.0845" y1="374.2402" y2="374.2402"/><polygon fill="#181818" points="464.0845,370.2402,454.0845,374.2402,464.0845,378.2402,460.0845,374.2402" style="stroke:#181818;stroke-width:1.0;"/><text fill="#000000" font-family="sans-serif" font-size="13" font-weight="bold" lengthAdjust="spacing" textLength="7.23" x="460.0845" y="355.9775">6</text><text fill="#000000" font-family="sans-serif" font-size="13" lengthAdjust="spacing" textLength="220.3906" x="471.3145" y="355.9775">saveSelectedStartStation(startStation)</text><rect fill="none" height="43.252" style="stroke:#000000;stroke-width:1.5;" width="433.4683" x="375.833" y="382.2402"/><path d="M375.833,382.2402 L436.833,382.2402 L436.833,391.2402 L426.833,401.2402 L375.833,401.2402 L375.833,382.2402 " fill="#EEEEEE" style="stroke:#000000;stroke-width:2.0;"/><text fill="#000000" font-family="sans-serif" font-size="13" font-weight="bold" lengthAdjust="spacing" textLength="16.6182" x="388.833" y="398.2686">ref</text><text fill="#000000" font-family="sans-serif" font-size="12" lengthAdjust="spacing" textLength="90.7207" x="547.2068" y="418.1895">Get End Stations</text><polygon fill="#181818" points="43.8413,449.7832,33.8413,453.7832,43.8413,457.7832,39.8413,453.7832" style="stroke:#181818;stroke-width:1.0;"/><line style="stroke:#181818;stroke-width:1.0;stroke-dasharray:2.0,2.0;" x1="37.8413" x2="447.0845" y1="453.7832" y2="453.7832"/><text fill="#000000" font-family="sans-serif" font-size="13" font-weight="bold" lengthAdjust="spacing" textLength="7.23" x="49.8413" y="448.5205">7</text><text fill="#000000" font-family="sans-serif" font-size="13" lengthAdjust="spacing" textLength="206.6797" x="61.0713" y="448.5205">shows available destination stations</text><polygon fill="#181818" points="431.0845,481.0742,441.0845,485.0742,431.0845,489.0742,435.0845,485.0742" style="stroke:#181818;stroke-width:1.0;"/><line style="stroke:#181818;stroke-width:1.0;" x1="32.8413" x2="437.0845" y1="485.0742" y2="485.0742"/><text fill="#000000" font-family="sans-serif" font-size="13" font-weight="bold" lengthAdjust="spacing" textLength="7.23" x="39.8413" y="479.8115">8</text><text fill="#000000" font-family="sans-serif" font-size="13" lengthAdjust="spacing" textLength="148.8652" x="51.0713" y="479.8115">selects destination station</text><line style="stroke:#181818;stroke-width:1.0;" x1="453.0845" x2="495.0845" y1="516.3652" y2="516.3652"/><line style="stroke:#181818;stroke-width:1.0;" x1="495.0845" x2="495.0845" y1="516.3652" y2="529.3652"/><line style="stroke:#181818;stroke-width:1.0;" x1="454.0845" x2="495.0845" y1="529.3652" y2="529.3652"/><polygon fill="#181818" points="464.0845,525.3652,454.0845,529.3652,464.0845,533.3652,460.0845,529.3652" style="stroke:#181818;stroke-width:1.0;"/><text fill="#000000" font-family="sans-serif" font-size="13" font-weight="bold" lengthAdjust="spacing" textLength="7.23" x="460.0845" y="511.1025">9</text><text fill="#000000" font-family="sans-serif" font-size="13" lengthAdjust="spacing" textLength="212.4751" x="471.3145" y="511.1025">saveSelectedEndStation(endStation)</text><rect fill="none" height="43.252" style="stroke:#000000;stroke-width:1.5;" width="433.4683" x="375.833" y="537.3652"/><path d="M375.833,537.3652 L436.833,537.3652 L436.833,546.3652 L426.833,556.3652 L375.833,556.3652 L375.833,537.3652 " fill="#EEEEEE" style="stroke:#000000;stroke-width:2.0;"/><text fill="#000000" font-family="sans-serif" font-size="13" font-weight="bold" lengthAdjust="spacing" textLength="16.6182" x="388.833" y="553.3936">ref</text><text fill="#000000" font-family="sans-serif" font-size="12" lengthAdjust="spacing" textLength="129.4102" x="527.8621" y="573.3145">Calculate Path and Cost</text><polygon fill="#181818" points="43.8413,604.9082,33.8413,608.9082,43.8413,612.9082,39.8413,608.9082" style="stroke:#181818;stroke-width:1.0;"/><line style="stroke:#181818;stroke-width:1.0;stroke-dasharray:2.0,2.0;" x1="37.8413" x2="447.0845" y1="608.9082" y2="608.9082"/><text fill="#000000" font-family="sans-serif" font-size="13" font-weight="bold" lengthAdjust="spacing" textLength="14.46" x="49.8413" y="603.6455">10</text><text fill="#000000" font-family="sans-serif" font-size="13" lengthAdjust="spacing" textLength="367.7832" x="68.3013" y="603.6455">shows path preview and construction cost, asks for confirmation</text><polygon fill="#181818" points="431.0845,636.1992,441.0845,640.1992,431.0845,644.1992,435.0845,640.1992" style="stroke:#181818;stroke-width:1.0;"/><line style="stroke:#181818;stroke-width:1.0;" x1="32.8413" x2="437.0845" y1="640.1992" y2="640.1992"/><text fill="#000000" font-family="sans-serif" font-size="13" font-weight="bold" lengthAdjust="spacing" textLength="14.46" x="39.8413" y="634.9365">11</text><text fill="#000000" font-family="sans-serif" font-size="13" lengthAdjust="spacing" textLength="122.8208" x="58.3013" y="634.9365">confirms construction</text><rect fill="none" height="43.252" style="stroke:#000000;stroke-width:1.5;" width="1172.8101" x="375.833" y="648.1992"/><path d="M375.833,648.1992 L436.833,648.1992 L436.833,657.1992 L426.833,667.1992 L375.833,667.1992 L375.833,648.1992 " fill="#EEEEEE" style="stroke:#000000;stroke-width:2.0;"/><text fill="#000000" font-family="sans-serif" font-size="13" font-weight="bold" lengthAdjust="spacing" textLength="16.6182" x="388.833" y="664.2275">ref</text><text fill="#000000" font-family="sans-serif" font-size="12" lengthAdjust="spacing" textLength="98.0508" x="913.2126" y="684.1484">Build Railway Line</text><polygon fill="#181818" points="38.8413,715.7422,28.8413,719.7422,38.8413,723.7422,34.8413,719.7422" style="stroke:#181818;stroke-width:1.0;"/><line style="stroke:#181818;stroke-width:1.0;stroke-dasharray:2.0,2.0;" x1="32.8413" x2="447.0845" y1="719.7422" y2="719.7422"/><text fill="#000000" font-family="sans-serif" font-size="13" font-weight="bold" lengthAdjust="spacing" textLength="14.46" x="44.8413" y="714.4795">12</text><text fill="#000000" font-family="sans-serif" font-size="13" lengthAdjust="spacing" textLength="155.3589" x="63.3013" y="714.4795">displays operation success</text><!--SRC=[fLHDZzem4BtdLumuWGHIZrKEbMWMjKYKHIGSUbeDpW0Mnavj1yI_xyJ9Pad9jelgGpxazvuzRpxSKUe2BPxWPBGH1sjE1DwM5Bbsfq1nn3sb_ge8B0cFUgzk0Uw0kRb8lOSTAaTHvALdQ4g_IjA2u4dYli8DqwSHJ62JVleCNqkfSbYZL1Uyma9gufsqKD974PRUwFAq9SlVmXiBWvN2Aza1e8FLOlfpjexuQ2-5B51x6CH1hb6hn3RpWDtC_u5BZFRMADLe9zbwqMKKuU3uxloNP35DqoxMUVvBFNffTDoy0oNDfkliXP_P_7dPvP3E-nYpvLC_la1_Y5VygEyopRvtzuLnFlvXD5thW9xJh0kmRy77DqO4z6A-d0NBvHazlJeT0Q_w6oPVs5E8kGmujyuxy0Qs8PK8ZJ8ebWkSLeZJ0CrYDcjKFhFAddnIMalQr_uEHoskvOQKmCqAtCdhHUhyj82SkiHsmz8Ep9aiiyRtcj_8m_JCzyTjLRXr8bmBuIHL0b4d2hv1OqhC7M0k3h1LS8q283FH7ODFZXGt3uGggPgb0KL_t9lDwdEyPhj- -ljErrmyKnhuL5LRMwJ3sueTFMBMZEFwVvjoBY6fWqfhsODsz4WywiYiRS7XMpT-s8q4bIXLQ1Vkof3mX7lmpfI_UrArDHIMpf8kGKEm5Jo7HGYiQkfnNKSxdeQyjvFsz4ZrD1JNqNtNgBk8nvsfDwu7nQqBz-FyurMHIrTriGDJa6qoMGf1hhSMRdwR-VGR]--></g></svg>