<svg xmlns="http://www.w3.org/2000/svg" xmlns:xlink="http://www.w3.org/1999/xlink" contentStyleType="text/css" height="1150px" preserveAspectRatio="none" style="width:2803px;height:1150px;background:#FFFFFF;" version="1.1" viewBox="0 0 2803 1150" width="2803px" zoomAndPan="magnify"><title>US08 - Class Diagram - Build a Railway Line</title><defs/><g><text fill="#000000" font-family="sans-serif" font-size="14" font-weight="bold" lengthAdjust="spacing" textLength="292.5371" x="1248.3721" y="25.1074">US08 - Class Diagram - Build a Railway Line</text><!--class BuildRailwayLineUI--><g id="elem_BuildRailwayLineUI"><rect codeLine="7" fill="#F1F1F1" height="122.4844" id="BuildRailwayLineUI" rx="2.5" ry="2.5" style="stroke:#181818;stroke-width:0.5;" width="318.6055" x="697.5" y="46.6211"/><ellipse cx="792.2461" cy="62.6211" fill="#C2C2C2" rx="11" ry="11" style="stroke:#181818;stroke-width:1.0;"/><path d="M795.0117,58.4961 Q795.168,58.2773 795.3555,58.168 Q795.543,58.0586 795.7617,58.0586 Q796.1367,58.0586 796.3711,58.3242 Q796.6055,58.5742 796.6055,59.1836 L796.6055,60.6367 Q796.6055,61.2461 796.3711,61.5117 Q796.1367,61.7773 795.7617,61.7773 Q795.418,61.7773 795.2148,61.5742 Q795.0117,61.3867 794.9023,60.8711 Q794.8555,60.5117 794.668,60.3242 Q794.3398,59.9492 793.7305,59.7305 Q793.1211,59.5117 792.4961,59.5117 Q791.7305,59.5117 791.0898,59.8398 Q790.4648,60.168 789.9648,60.918 Q789.4805,61.668 789.4805,62.6992 L789.4805,63.793 Q789.4805,65.0273 790.3711,65.8555 Q791.2617,66.668 792.8555,66.668 Q793.793,66.668 794.4492,66.418 Q794.8398,66.2617 795.2617,65.8242 Q795.5273,65.5586 795.668,65.4805 Q795.8242,65.4023 796.0273,65.4023 Q796.3555,65.4023 796.6055,65.668 Q796.8711,65.918 796.8711,66.2617 Q796.8711,66.6055 796.5273,67.0117 Q796.0273,67.5898 795.2305,67.918 Q794.1523,68.3711 792.8555,68.3711 Q791.3398,68.3711 790.1367,67.7461 Q789.1523,67.2461 788.4648,66.1836 Q787.7773,65.1055 787.7773,63.8242 L787.7773,62.668 Q787.7773,61.3398 788.3867,60.1992 Q789.0117,59.043 790.1055,58.4336 Q791.1992,57.8086 792.4336,57.8086 Q793.168,57.8086 793.8086,57.9805 Q794.4648,58.1367 795.0117,58.4961 Z " fill="#000000"/><text fill="#000000" font-family="sans-serif" font-size="14" lengthAdjust="spacing" textLength="120.6133" x="812.7461" y="68.418">BuildRailwayLineUI</text><line style="stroke:#181818;stroke-width:0.5;" x1="698.5" x2="1015.1055" y1="78.6211" y2="78.6211"/><text fill="#000000" font-family="sans-serif" font-size="14" lengthAdjust="spacing" textLength="232.6611" x="703.5" y="97.7285">controller: BuildRailwayLineController</text><line style="stroke:#181818;stroke-width:0.5;" x1="698.5" x2="1015.1055" y1="105.2422" y2="105.2422"/><ellipse cx="708.5" cy="120.0527" fill="#A6A6A6" rx="3" ry="3" style="stroke:#545454;stroke-width:1.0;"/><text fill="#000000" font-family="sans-serif" font-size="14" lengthAdjust="spacing" textLength="147.8477" x="717.5" y="124.3496">buildRailwayLine(): void</text><rect fill="#808080" height="6" style="stroke:#595959;stroke-width:1.0;" width="6" x="705.5" y="135.6738"/><text fill="#000000" font-family="sans-serif" font-size="14" lengthAdjust="spacing" textLength="292.6055" x="717.5" y="142.9707">saveSelectedStartStation(station: Station): void</text><rect fill="#808080" height="6" style="stroke:#595959;stroke-width:1.0;" width="6" x="705.5" y="154.2949"/><text fill="#000000" font-family="sans-serif" font-size="14" lengthAdjust="spacing" textLength="287.9502" x="717.5" y="161.5918">saveSelectedEndStation(station: Station): void</text></g><!--class BuildRailwayLineController--><g id="elem_BuildRailwayLineController"><rect codeLine="14" fill="#F1F1F1" height="252.832" id="BuildRailwayLineController" rx="2.5" ry="2.5" style="stroke:#181818;stroke-width:0.5;" width="694.5137" x="509.5" y="229.6211"/><ellipse cx="768.8555" cy="245.6211" fill="#C2C2C2" rx="11" ry="11" style="stroke:#181818;stroke-width:1.0;"/><path d="M771.6211,241.4961 Q771.7773,241.2773 771.9648,241.168 Q772.1523,241.0586 772.3711,241.0586 Q772.7461,241.0586 772.9805,241.3242 Q773.2148,241.5742 773.2148,242.1836 L773.2148,243.6367 Q773.2148,244.2461 772.9805,244.5117 Q772.7461,244.7773 772.3711,244.7773 Q772.0273,244.7773 771.8242,244.5742 Q771.6211,244.3867 771.5117,243.8711 Q771.4648,243.5117 771.2773,243.3242 Q770.9492,242.9492 770.3398,242.7305 Q769.7305,242.5117 769.1055,242.5117 Q768.3398,242.5117 767.6992,242.8398 Q767.0742,243.168 766.5742,243.918 Q766.0898,244.668 766.0898,245.6992 L766.0898,246.793 Q766.0898,248.0273 766.9805,248.8555 Q767.8711,249.668 769.4648,249.668 Q770.4023,249.668 771.0586,249.418 Q771.4492,249.2617 771.8711,248.8242 Q772.1367,248.5586 772.2773,248.4805 Q772.4336,248.4023 772.6367,248.4023 Q772.9648,248.4023 773.2148,248.668 Q773.4805,248.918 773.4805,249.2617 Q773.4805,249.6055 773.1367,250.0117 Q772.6367,250.5898 771.8398,250.918 Q770.7617,251.3711 769.4648,251.3711 Q767.9492,251.3711 766.7461,250.7461 Q765.7617,250.2461 765.0742,249.1836 Q764.3867,248.1055 764.3867,246.8242 L764.3867,245.668 Q764.3867,244.3398 764.9961,243.1992 Q765.6211,242.043 766.7148,241.4336 Q767.8086,240.8086 769.043,240.8086 Q769.7773,240.8086 770.418,240.9805 Q771.0742,241.1367 771.6211,241.4961 Z " fill="#000000"/><text fill="#000000" font-family="sans-serif" font-size="14" lengthAdjust="spacing" textLength="167.3027" x="789.3555" y="251.418">BuildRailwayLineController</text><line style="stroke:#181818;stroke-width:0.5;" x1="510.5" x2="1203.0137" y1="261.6211" y2="261.6211"/><rect fill="none" height="6" style="stroke:#595959;stroke-width:1.0;" width="6" x="517.5" y="273.4316"/><text fill="#000000" font-family="sans-serif" font-size="14" lengthAdjust="spacing" textLength="180.5371" x="529.5" y="280.7285">gameSession: GameSession</text><rect fill="none" height="6" style="stroke:#595959;stroke-width:1.0;" width="6" x="517.5" y="292.0527"/><text fill="#000000" font-family="sans-serif" font-size="14" lengthAdjust="spacing" textLength="214.7578" x="529.5" y="299.3496">gameRepository: GameRepository</text><rect fill="none" height="6" style="stroke:#595959;stroke-width:1.0;" width="6" x="517.5" y="310.6738"/><text fill="#000000" font-family="sans-serif" font-size="14" lengthAdjust="spacing" textLength="226.4473" x="529.5" y="317.9707">stationRepository: StationRepository</text><rect fill="none" height="6" style="stroke:#595959;stroke-width:1.0;" width="6" x="517.5" y="329.2949"/><text fill="#000000" font-family="sans-serif" font-size="14" lengthAdjust="spacing" textLength="236.5576" x="529.5" y="336.5918">pathFinderService: PathFinderService</text><rect fill="none" height="6" style="stroke:#595959;stroke-width:1.0;" width="6" x="517.5" y="347.916"/><text fill="#000000" font-family="sans-serif" font-size="14" lengthAdjust="spacing" textLength="246.6611" x="529.5" y="355.2129">railwayLineService: RailwayLineService</text><rect fill="none" height="6" style="stroke:#595959;stroke-width:1.0;" width="6" x="517.5" y="366.5371"/><text fill="#000000" font-family="sans-serif" font-size="14" lengthAdjust="spacing" textLength="287.1299" x="529.5" y="373.834">railwayLineRepository: RailwayLineRepository</text><line style="stroke:#181818;stroke-width:0.5;" x1="510.5" x2="1203.0137" y1="381.3477" y2="381.3477"/><ellipse cx="520.5" cy="396.1582" fill="#A6A6A6" rx="3" ry="3" style="stroke:#545454;stroke-width:1.0;"/><text fill="#000000" font-family="sans-serif" font-size="14" lengthAdjust="spacing" textLength="162.6133" x="529.5" y="400.4551">getCurrentPlayer(): Player</text><ellipse cx="520.5" cy="414.7793" fill="#A6A6A6" rx="3" ry="3" style="stroke:#545454;stroke-width:1.0;"/><text fill="#000000" font-family="sans-serif" font-size="14" lengthAdjust="spacing" textLength="225.6885" x="529.5" y="419.0762">getAvailableStations(): List&lt;Station&gt;</text><ellipse cx="520.5" cy="433.4004" fill="#A6A6A6" rx="3" ry="3" style="stroke:#545454;stroke-width:1.0;"/><text fill="#000000" font-family="sans-serif" font-size="14" lengthAdjust="spacing" textLength="372.7773" x="529.5" y="437.6973">getAvailableEndStations(startStation: Station): List&lt;Station&gt;</text><ellipse cx="520.5" cy="452.0215" fill="#A6A6A6" rx="3" ry="3" style="stroke:#545454;stroke-width:1.0;"/><text fill="#000000" font-family="sans-serif" font-size="14" lengthAdjust="spacing" textLength="519.8594" x="529.5" y="456.3184">calculatePathAndCost(startStation: Station, endStation: Station): Optional&lt;Object[]&gt;</text><ellipse cx="520.5" cy="470.6426" fill="#A6A6A6" rx="3" ry="3" style="stroke:#545454;stroke-width:1.0;"/><text fill="#000000" font-family="sans-serif" font-size="14" lengthAdjust="spacing" textLength="668.5137" x="529.5" y="474.9395">buildRailwayLine(player: Player, startStation: Station, endStation: Station, path: Path, cost: double): boolean</text></g><!--class GameSession--><g id="elem_GameSession"><rect codeLine="28" fill="#F1F1F1" height="66.6211" id="GameSession" rx="2.5" ry="2.5" style="stroke:#181818;stroke-width:0.5;" width="200.3232" x="7" y="599.1211"/><ellipse cx="58.9463" cy="615.1211" fill="#C2C2C2" rx="11" ry="11" style="stroke:#181818;stroke-width:1.0;"/><path d="M61.7119,610.9961 Q61.8682,610.7773 62.0557,610.668 Q62.2432,610.5586 62.4619,610.5586 Q62.8369,610.5586 63.0713,610.8242 Q63.3057,611.0742 63.3057,611.6836 L63.3057,613.1367 Q63.3057,613.7461 63.0713,614.0117 Q62.8369,614.2773 62.4619,614.2773 Q62.1182,614.2773 61.915,614.0742 Q61.7119,613.8867 61.6025,613.3711 Q61.5557,613.0117 61.3682,612.8242 Q61.04,612.4492 60.4307,612.2305 Q59.8213,612.0117 59.1963,612.0117 Q58.4307,612.0117 57.79,612.3398 Q57.165,612.668 56.665,613.418 Q56.1807,614.168 56.1807,615.1992 L56.1807,616.293 Q56.1807,617.5273 57.0713,618.3555 Q57.9619,619.168 59.5557,619.168 Q60.4932,619.168 61.1494,618.918 Q61.54,618.7617 61.9619,618.3242 Q62.2275,618.0586 62.3682,617.9805 Q62.5244,617.9023 62.7275,617.9023 Q63.0557,617.9023 63.3057,618.168 Q63.5713,618.418 63.5713,618.7617 Q63.5713,619.1055 63.2275,619.5117 Q62.7275,620.0898 61.9307,620.418 Q60.8525,620.8711 59.5557,620.8711 Q58.04,620.8711 56.8369,620.2461 Q55.8525,619.7461 55.165,618.6836 Q54.4775,617.6055 54.4775,616.3242 L54.4775,615.168 Q54.4775,613.8398 55.0869,612.6992 Q55.7119,611.543 56.8057,610.9336 Q57.8994,610.3086 59.1338,610.3086 Q59.8682,610.3086 60.5088,610.4805 Q61.165,610.6367 61.7119,610.9961 Z " fill="#000000"/><text fill="#000000" font-family="sans-serif" font-size="14" lengthAdjust="spacing" textLength="87.9307" x="79.4463" y="620.918">GameSession</text><line style="stroke:#181818;stroke-width:0.5;" x1="8" x2="206.3232" y1="631.1211" y2="631.1211"/><line style="stroke:#181818;stroke-width:0.5;" x1="8" x2="206.3232" y1="639.1211" y2="639.1211"/><ellipse cx="18" cy="653.9316" fill="#A6A6A6" rx="3" ry="3" style="stroke:#545454;stroke-width:1.0;"/><text fill="#000000" font-family="sans-serif" font-size="14" lengthAdjust="spacing" textLength="174.3232" x="27" y="658.2285">getLoggedInPlayer(): Player</text></g><!--class Player--><g id="elem_Player"><rect codeLine="32" fill="#F1F1F1" height="178.3477" id="Player" rx="2.5" ry="2.5" style="stroke:#181818;stroke-width:0.5;" width="636.1279" x="1249" y="543.6211"/><ellipse cx="1542.9727" cy="559.6211" fill="#C2C2C2" rx="11" ry="11" style="stroke:#181818;stroke-width:1.0;"/><path d="M1545.7383,555.4961 Q1545.8945,555.2773 1546.082,555.168 Q1546.2695,555.0586 1546.4883,555.0586 Q1546.8633,555.0586 1547.0977,555.3242 Q1547.332,555.5742 1547.332,556.1836 L1547.332,557.6367 Q1547.332,558.2461 1547.0977,558.5117 Q1546.8633,558.7773 1546.4883,558.7773 Q1546.1445,558.7773 1545.9414,558.5742 Q1545.7383,558.3867 1545.6289,557.8711 Q1545.582,557.5117 1545.3945,557.3242 Q1545.0664,556.9492 1544.457,556.7305 Q1543.8477,556.5117 1543.2227,556.5117 Q1542.457,556.5117 1541.8164,556.8398 Q1541.1914,557.168 1540.6914,557.918 Q1540.207,558.668 1540.207,559.6992 L1540.207,560.793 Q1540.207,562.0273 1541.0977,562.8555 Q1541.9883,563.668 1543.582,563.668 Q1544.5195,563.668 1545.1758,563.418 Q1545.5664,563.2617 1545.9883,562.8242 Q1546.2539,562.5586 1546.3945,562.4805 Q1546.5508,562.4023 1546.7539,562.4023 Q1547.082,562.4023 1547.332,562.668 Q1547.5977,562.918 1547.5977,563.2617 Q1547.5977,563.6055 1547.2539,564.0117 Q1546.7539,564.5898 1545.957,564.918 Q1544.8789,565.3711 1543.582,565.3711 Q1542.0664,565.3711 1540.8633,564.7461 Q1539.8789,564.2461 1539.1914,563.1836 Q1538.5039,562.1055 1538.5039,560.8242 L1538.5039,559.668 Q1538.5039,558.3398 1539.1133,557.1992 Q1539.7383,556.043 1540.832,555.4336 Q1541.9258,554.8086 1543.1602,554.8086 Q1543.8945,554.8086 1544.5352,554.9805 Q1545.1914,555.1367 1545.7383,555.4961 Z " fill="#000000"/><text fill="#000000" font-family="sans-serif" font-size="14" lengthAdjust="spacing" textLength="39.6826" x="1563.4727" y="565.418">Player</text><line style="stroke:#181818;stroke-width:0.5;" x1="1250" x2="1884.1279" y1="575.6211" y2="575.6211"/><rect fill="none" height="6" style="stroke:#595959;stroke-width:1.0;" width="6" x="1257" y="587.4316"/><text fill="#000000" font-family="sans-serif" font-size="14" lengthAdjust="spacing" textLength="79.3721" x="1269" y="594.7285">name: String</text><rect fill="none" height="6" style="stroke:#595959;stroke-width:1.0;" width="6" x="1257" y="606.0527"/><text fill="#000000" font-family="sans-serif" font-size="14" lengthAdjust="spacing" textLength="84.0684" x="1269" y="613.3496">funds: double</text><rect fill="none" height="6" style="stroke:#595959;stroke-width:1.0;" width="6" x="1257" y="624.6738"/><text fill="#000000" font-family="sans-serif" font-size="14" lengthAdjust="spacing" textLength="198.4336" x="1269" y="631.9707">railwayLines: List&lt;RailwayLine&gt;</text><rect fill="none" height="6" style="stroke:#595959;stroke-width:1.0;" width="6" x="1257" y="643.2949"/><text fill="#000000" font-family="sans-serif" font-size="14" lengthAdjust="spacing" textLength="137.751" x="1269" y="650.5918">stations: List&lt;Station&gt;</text><line style="stroke:#181818;stroke-width:0.5;" x1="1250" x2="1884.1279" y1="658.1055" y2="658.1055"/><ellipse cx="1260" cy="672.916" fill="#A6A6A6" rx="3" ry="3" style="stroke:#545454;stroke-width:1.0;"/><text fill="#000000" font-family="sans-serif" font-size="14" lengthAdjust="spacing" textLength="261.4951" x="1269" y="677.2129">hasSufficientFunds(cost: double): boolean</text><ellipse cx="1260" cy="691.5371" fill="#A6A6A6" rx="3" ry="3" style="stroke:#545454;stroke-width:1.0;"/><text fill="#000000" font-family="sans-serif" font-size="14" lengthAdjust="spacing" textLength="610.1279" x="1269" y="695.834">createRailwayLine(startStation: Station, endStation: Station, path: Path, cost: double): RailwayLine</text><ellipse cx="1260" cy="710.1582" fill="#A6A6A6" rx="3" ry="3" style="stroke:#545454;stroke-width:1.0;"/><text fill="#000000" font-family="sans-serif" font-size="14" lengthAdjust="spacing" textLength="199.2266" x="1269" y="714.4551">deductFunds(cost: double): void</text></g><!--class GameRepository--><g id="elem_GameRepository"><rect codeLine="42" fill="#F1F1F1" height="66.6211" id="GameRepository" rx="2.5" ry="2.5" style="stroke:#181818;stroke-width:0.5;" width="283.5713" x="313" y="599.1211"/><ellipse cx="398.0151" cy="615.1211" fill="#C2C2C2" rx="11" ry="11" style="stroke:#181818;stroke-width:1.0;"/><path d="M400.7808,610.9961 Q400.937,610.7773 401.1245,610.668 Q401.312,610.5586 401.5308,610.5586 Q401.9058,610.5586 402.1401,610.8242 Q402.3745,611.0742 402.3745,611.6836 L402.3745,613.1367 Q402.3745,613.7461 402.1401,614.0117 Q401.9058,614.2773 401.5308,614.2773 Q401.187,614.2773 400.9839,614.0742 Q400.7808,613.8867 400.6714,613.3711 Q400.6245,613.0117 400.437,612.8242 Q400.1089,612.4492 399.4995,612.2305 Q398.8901,612.0117 398.2651,612.0117 Q397.4995,612.0117 396.8589,612.3398 Q396.2339,612.668 395.7339,613.418 Q395.2495,614.168 395.2495,615.1992 L395.2495,616.293 Q395.2495,617.5273 396.1401,618.3555 Q397.0308,619.168 398.6245,619.168 Q399.562,619.168 400.2183,618.918 Q400.6089,618.7617 401.0308,618.3242 Q401.2964,618.0586 401.437,617.9805 Q401.5933,617.9023 401.7964,617.9023 Q402.1245,617.9023 402.3745,618.168 Q402.6401,618.418 402.6401,618.7617 Q402.6401,619.1055 402.2964,619.5117 Q401.7964,620.0898 400.9995,620.418 Q399.9214,620.8711 398.6245,620.8711 Q397.1089,620.8711 395.9058,620.2461 Q394.9214,619.7461 394.2339,618.6836 Q393.5464,617.6055 393.5464,616.3242 L393.5464,615.168 Q393.5464,613.8398 394.1558,612.6992 Q394.7808,611.543 395.8745,610.9336 Q396.9683,610.3086 398.2026,610.3086 Q398.937,610.3086 399.5776,610.4805 Q400.2339,610.6367 400.7808,610.9961 Z " fill="#000000"/><text fill="#000000" font-family="sans-serif" font-size="14" lengthAdjust="spacing" textLength="105.041" x="418.5151" y="620.918">GameRepository</text><line style="stroke:#181818;stroke-width:0.5;" x1="314" x2="595.5713" y1="631.1211" y2="631.1211"/><line style="stroke:#181818;stroke-width:0.5;" x1="314" x2="595.5713" y1="639.1211" y2="639.1211"/><ellipse cx="324" cy="653.9316" fill="#A6A6A6" rx="3" ry="3" style="stroke:#545454;stroke-width:1.0;"/><text fill="#000000" font-family="sans-serif" font-size="14" lengthAdjust="spacing" textLength="257.5713" x="333" y="658.2285">getStationRepository(): StationRepository</text></g><!--class StationRepository--><g id="elem_StationRepository"><rect codeLine="46" fill="#F1F1F1" height="103.8633" id="StationRepository" rx="2.5" ry="2.5" style="stroke:#181818;stroke-width:0.5;" width="394.8809" x="132.5" y="819.1211"/><ellipse cx="270.439" cy="835.1211" fill="#C2C2C2" rx="11" ry="11" style="stroke:#181818;stroke-width:1.0;"/><path d="M273.2046,830.9961 Q273.3608,830.7773 273.5483,830.668 Q273.7358,830.5586 273.9546,830.5586 Q274.3296,830.5586 274.564,830.8242 Q274.7983,831.0742 274.7983,831.6836 L274.7983,833.1367 Q274.7983,833.7461 274.564,834.0117 Q274.3296,834.2773 273.9546,834.2773 Q273.6108,834.2773 273.4077,834.0742 Q273.2046,833.8867 273.0952,833.3711 Q273.0483,833.0117 272.8608,832.8242 Q272.5327,832.4492 271.9233,832.2305 Q271.314,832.0117 270.689,832.0117 Q269.9233,832.0117 269.2827,832.3398 Q268.6577,832.668 268.1577,833.418 Q267.6733,834.168 267.6733,835.1992 L267.6733,836.293 Q267.6733,837.5273 268.564,838.3555 Q269.4546,839.168 271.0483,839.168 Q271.9858,839.168 272.6421,838.918 Q273.0327,838.7617 273.4546,838.3242 Q273.7202,838.0586 273.8608,837.9805 Q274.0171,837.9023 274.2202,837.9023 Q274.5483,837.9023 274.7983,838.168 Q275.064,838.418 275.064,838.7617 Q275.064,839.1055 274.7202,839.5117 Q274.2202,840.0898 273.4233,840.418 Q272.3452,840.8711 271.0483,840.8711 Q269.5327,840.8711 268.3296,840.2461 Q267.3452,839.7461 266.6577,838.6836 Q265.9702,837.6055 265.9702,836.3242 L265.9702,835.168 Q265.9702,833.8398 266.5796,832.6992 Q267.2046,831.543 268.2983,830.9336 Q269.3921,830.3086 270.6265,830.3086 Q271.3608,830.3086 272.0015,830.4805 Q272.6577,830.6367 273.2046,830.9961 Z " fill="#000000"/><text fill="#000000" font-family="sans-serif" font-size="14" lengthAdjust="spacing" textLength="110.5029" x="290.939" y="840.918">StationRepository</text><line style="stroke:#181818;stroke-width:0.5;" x1="133.5" x2="526.3809" y1="851.1211" y2="851.1211"/><line style="stroke:#181818;stroke-width:0.5;" x1="133.5" x2="526.3809" y1="859.1211" y2="859.1211"/><ellipse cx="143.5" cy="873.9316" fill="#A6A6A6" rx="3" ry="3" style="stroke:#545454;stroke-width:1.0;"/><text fill="#000000" font-family="sans-serif" font-size="14" lengthAdjust="spacing" textLength="184.4336" x="152.5" y="878.2285">getAllStations(): List&lt;Station&gt;</text><ellipse cx="143.5" cy="892.5527" fill="#A6A6A6" rx="3" ry="3" style="stroke:#545454;stroke-width:1.0;"/><text fill="#000000" font-family="sans-serif" font-size="14" lengthAdjust="spacing" textLength="368.8809" x="152.5" y="896.8496">getPossibleEndStations(startStation: Station): List&lt;Station&gt;</text><ellipse cx="143.5" cy="911.1738" fill="#A6A6A6" rx="3" ry="3" style="stroke:#545454;stroke-width:1.0;"/><text fill="#000000" font-family="sans-serif" font-size="14" lengthAdjust="spacing" textLength="325.2881" x="152.5" y="915.4707">getStationByName(name: String): Optional&lt;Station&gt;</text></g><!--class Station--><g id="elem_Station"><rect codeLine="52" fill="#F1F1F1" height="122.4844" id="Station" rx="2.5" ry="2.5" style="stroke:#181818;stroke-width:0.5;" width="206.5371" x="794.5" y="1020.6211"/><ellipse cx="871.7256" cy="1036.6211" fill="#C2C2C2" rx="11" ry="11" style="stroke:#181818;stroke-width:1.0;"/><path d="M874.4912,1032.4961 Q874.6475,1032.2773 874.835,1032.168 Q875.0225,1032.0586 875.2412,1032.0586 Q875.6162,1032.0586 875.8506,1032.3242 Q876.085,1032.5742 876.085,1033.1836 L876.085,1034.6367 Q876.085,1035.2461 875.8506,1035.5117 Q875.6162,1035.7773 875.2412,1035.7773 Q874.8975,1035.7773 874.6943,1035.5742 Q874.4912,1035.3867 874.3818,1034.8711 Q874.335,1034.5117 874.1475,1034.3242 Q873.8193,1033.9492 873.21,1033.7305 Q872.6006,1033.5117 871.9756,1033.5117 Q871.21,1033.5117 870.5693,1033.8398 Q869.9443,1034.168 869.4443,1034.918 Q868.96,1035.668 868.96,1036.6992 L868.96,1037.793 Q868.96,1039.0273 869.8506,1039.8555 Q870.7412,1040.668 872.335,1040.668 Q873.2725,1040.668 873.9287,1040.418 Q874.3193,1040.2617 874.7412,1039.8242 Q875.0068,1039.5586 875.1475,1039.4805 Q875.3037,1039.4023 875.5068,1039.4023 Q875.835,1039.4023 876.085,1039.668 Q876.3506,1039.918 876.3506,1040.2617 Q876.3506,1040.6055 876.0068,1041.0117 Q875.5068,1041.5898 874.71,1041.918 Q873.6318,1042.3711 872.335,1042.3711 Q870.8193,1042.3711 869.6162,1041.7461 Q868.6318,1041.2461 867.9443,1040.1836 Q867.2568,1039.1055 867.2568,1037.8242 L867.2568,1036.668 Q867.2568,1035.3398 867.8662,1034.1992 Q868.4912,1033.043 869.585,1032.4336 Q870.6787,1031.8086 871.9131,1031.8086 Q872.6475,1031.8086 873.2881,1031.9805 Q873.9443,1032.1367 874.4912,1032.4961 Z " fill="#000000"/><text fill="#000000" font-family="sans-serif" font-size="14" lengthAdjust="spacing" textLength="43.5859" x="892.2256" y="1042.418">Station</text><line style="stroke:#181818;stroke-width:0.5;" x1="795.5" x2="1000.0371" y1="1052.6211" y2="1052.6211"/><rect fill="none" height="6" style="stroke:#595959;stroke-width:1.0;" width="6" x="802.5" y="1064.4316"/><text fill="#000000" font-family="sans-serif" font-size="14" lengthAdjust="spacing" textLength="79.3721" x="814.5" y="1071.7285">name: String</text><rect fill="none" height="6" style="stroke:#595959;stroke-width:1.0;" width="6" x="802.5" y="1083.0527"/><text fill="#000000" font-family="sans-serif" font-size="14" lengthAdjust="spacing" textLength="96.4961" x="814.5" y="1090.3496">location: Object</text><rect fill="none" height="6" style="stroke:#595959;stroke-width:1.0;" width="6" x="802.5" y="1101.6738"/><text fill="#000000" font-family="sans-serif" font-size="14" lengthAdjust="spacing" textLength="150.9854" x="814.5" y="1108.9707">storageCapacity: double</text><rect fill="none" height="6" style="stroke:#595959;stroke-width:1.0;" width="6" x="802.5" y="1120.2949"/><text fill="#000000" font-family="sans-serif" font-size="14" lengthAdjust="spacing" textLength="180.5371" x="814.5" y="1127.5918">currentCargoes: List&lt;Cargo&gt;</text><line style="stroke:#181818;stroke-width:0.5;" x1="795.5" x2="1000.0371" y1="1135.1055" y2="1135.1055"/></g><!--class PathFinderService--><g id="elem_PathFinderService"><rect codeLine="59" fill="#F1F1F1" height="66.6211" id="PathFinderService" rx="2.5" ry="2.5" style="stroke:#181818;stroke-width:0.5;" width="440.0391" x="774" y="599.1211"/><ellipse cx="932.187" cy="615.1211" fill="#C2C2C2" rx="11" ry="11" style="stroke:#181818;stroke-width:1.0;"/><path d="M934.9526,610.9961 Q935.1089,610.7773 935.2964,610.668 Q935.4839,610.5586 935.7026,610.5586 Q936.0776,610.5586 936.312,610.8242 Q936.5464,611.0742 936.5464,611.6836 L936.5464,613.1367 Q936.5464,613.7461 936.312,614.0117 Q936.0776,614.2773 935.7026,614.2773 Q935.3589,614.2773 935.1558,614.0742 Q934.9526,613.8867 934.8433,613.3711 Q934.7964,613.0117 934.6089,612.8242 Q934.2808,612.4492 933.6714,612.2305 Q933.062,612.0117 932.437,612.0117 Q931.6714,612.0117 931.0308,612.3398 Q930.4058,612.668 929.9058,613.418 Q929.4214,614.168 929.4214,615.1992 L929.4214,616.293 Q929.4214,617.5273 930.312,618.3555 Q931.2026,619.168 932.7964,619.168 Q933.7339,619.168 934.3901,618.918 Q934.7808,618.7617 935.2026,618.3242 Q935.4683,618.0586 935.6089,617.9805 Q935.7651,617.9023 935.9683,617.9023 Q936.2964,617.9023 936.5464,618.168 Q936.812,618.418 936.812,618.7617 Q936.812,619.1055 936.4683,619.5117 Q935.9683,620.0898 935.1714,620.418 Q934.0933,620.8711 932.7964,620.8711 Q931.2808,620.8711 930.0776,620.2461 Q929.0933,619.7461 928.4058,618.6836 Q927.7183,617.6055 927.7183,616.3242 L927.7183,615.168 Q927.7183,613.8398 928.3276,612.6992 Q928.9526,611.543 930.0464,610.9336 Q931.1401,610.3086 932.3745,610.3086 Q933.1089,610.3086 933.7495,610.4805 Q934.4058,610.6367 934.9526,610.9961 Z " fill="#000000"/><text fill="#000000" font-family="sans-serif" font-size="14" lengthAdjust="spacing" textLength="115.165" x="952.687" y="620.918">PathFinderService</text><line style="stroke:#181818;stroke-width:0.5;" x1="775" x2="1213.0391" y1="631.1211" y2="631.1211"/><line style="stroke:#181818;stroke-width:0.5;" x1="775" x2="1213.0391" y1="639.1211" y2="639.1211"/><ellipse cx="785" cy="653.9316" fill="#A6A6A6" rx="3" ry="3" style="stroke:#545454;stroke-width:1.0;"/><text fill="#000000" font-family="sans-serif" font-size="14" lengthAdjust="spacing" textLength="414.0391" x="794" y="658.2285">findPath(startStation: Station, endStation: Station): Optional&lt;Path&gt;</text></g><!--class Path--><g id="elem_Path"><rect codeLine="63" fill="#F1F1F1" height="85.2422" id="Path" rx="2.5" ry="2.5" style="stroke:#181818;stroke-width:0.5;" width="149.7373" x="1519" y="1039.1211"/><ellipse cx="1575.2188" cy="1055.1211" fill="#C2C2C2" rx="11" ry="11" style="stroke:#181818;stroke-width:1.0;"/><path d="M1577.9844,1050.9961 Q1578.1406,1050.7773 1578.3281,1050.668 Q1578.5156,1050.5586 1578.7344,1050.5586 Q1579.1094,1050.5586 1579.3438,1050.8242 Q1579.5781,1051.0742 1579.5781,1051.6836 L1579.5781,1053.1367 Q1579.5781,1053.7461 1579.3438,1054.0117 Q1579.1094,1054.2773 1578.7344,1054.2773 Q1578.3906,1054.2773 1578.1875,1054.0742 Q1577.9844,1053.8867 1577.875,1053.3711 Q1577.8281,1053.0117 1577.6406,1052.8242 Q1577.3125,1052.4492 1576.7031,1052.2305 Q1576.0938,1052.0117 1575.4688,1052.0117 Q1574.7031,1052.0117 1574.0625,1052.3398 Q1573.4375,1052.668 1572.9375,1053.418 Q1572.4531,1054.168 1572.4531,1055.1992 L1572.4531,1056.293 Q1572.4531,1057.5273 1573.3438,1058.3555 Q1574.2344,1059.168 1575.8281,1059.168 Q1576.7656,1059.168 1577.4219,1058.918 Q1577.8125,1058.7617 1578.2344,1058.3242 Q1578.5,1058.0586 1578.6406,1057.9805 Q1578.7969,1057.9023 1579,1057.9023 Q1579.3281,1057.9023 1579.5781,1058.168 Q1579.8438,1058.418 1579.8438,1058.7617 Q1579.8438,1059.1055 1579.5,1059.5117 Q1579,1060.0898 1578.2031,1060.418 Q1577.125,1060.8711 1575.8281,1060.8711 Q1574.3125,1060.8711 1573.1094,1060.2461 Q1572.125,1059.7461 1571.4375,1058.6836 Q1570.75,1057.6055 1570.75,1056.3242 L1570.75,1055.168 Q1570.75,1053.8398 1571.3594,1052.6992 Q1571.9844,1051.543 1573.0781,1050.9336 Q1574.1719,1050.3086 1575.4063,1050.3086 Q1576.1406,1050.3086 1576.7813,1050.4805 Q1577.4375,1050.6367 1577.9844,1050.9961 Z " fill="#000000"/><text fill="#000000" font-family="sans-serif" font-size="14" lengthAdjust="spacing" textLength="28.7998" x="1595.7188" y="1060.918">Path</text><line style="stroke:#181818;stroke-width:0.5;" x1="1520" x2="1667.7373" y1="1071.1211" y2="1071.1211"/><rect fill="none" height="6" style="stroke:#595959;stroke-width:1.0;" width="6" x="1527" y="1082.9316"/><text fill="#000000" font-family="sans-serif" font-size="14" lengthAdjust="spacing" textLength="123.7373" x="1539" y="1090.2285">points: List&lt;Object&gt;</text><rect fill="none" height="6" style="stroke:#595959;stroke-width:1.0;" width="6" x="1527" y="1101.5527"/><text fill="#000000" font-family="sans-serif" font-size="14" lengthAdjust="spacing" textLength="87.9648" x="1539" y="1108.8496">length: double</text><line style="stroke:#181818;stroke-width:0.5;" x1="1520" x2="1667.7373" y1="1116.3633" y2="1116.3633"/></g><!--class RailwayLineService--><g id="elem_RailwayLineService"><rect codeLine="68" fill="#F1F1F1" height="85.2422" id="RailwayLineService" rx="2.5" ry="2.5" style="stroke:#181818;stroke-width:0.5;" width="369.9639" x="1920" y="590.1211"/><ellipse cx="2039.6494" cy="606.1211" fill="#C2C2C2" rx="11" ry="11" style="stroke:#181818;stroke-width:1.0;"/><path d="M2042.415,601.9961 Q2042.5713,601.7773 2042.7588,601.668 Q2042.9463,601.5586 2043.165,601.5586 Q2043.54,601.5586 2043.7744,601.8242 Q2044.0088,602.0742 2044.0088,602.6836 L2044.0088,604.1367 Q2044.0088,604.7461 2043.7744,605.0117 Q2043.54,605.2773 2043.165,605.2773 Q2042.8213,605.2773 2042.6182,605.0742 Q2042.415,604.8867 2042.3057,604.3711 Q2042.2588,604.0117 2042.0713,603.8242 Q2041.7432,603.4492 2041.1338,603.2305 Q2040.5244,603.0117 2039.8994,603.0117 Q2039.1338,603.0117 2038.4932,603.3398 Q2037.8682,603.668 2037.3682,604.418 Q2036.8838,605.168 2036.8838,606.1992 L2036.8838,607.293 Q2036.8838,608.5273 2037.7744,609.3555 Q2038.665,610.168 2040.2588,610.168 Q2041.1963,610.168 2041.8525,609.918 Q2042.2432,609.7617 2042.665,609.3242 Q2042.9307,609.0586 2043.0713,608.9805 Q2043.2275,608.9023 2043.4307,608.9023 Q2043.7588,608.9023 2044.0088,609.168 Q2044.2744,609.418 2044.2744,609.7617 Q2044.2744,610.1055 2043.9307,610.5117 Q2043.4307,611.0898 2042.6338,611.418 Q2041.5557,611.8711 2040.2588,611.8711 Q2038.7432,611.8711 2037.54,611.2461 Q2036.5557,610.7461 2035.8682,609.6836 Q2035.1807,608.6055 2035.1807,607.3242 L2035.1807,606.168 Q2035.1807,604.8398 2035.79,603.6992 Q2036.415,602.543 2037.5088,601.9336 Q2038.6025,601.3086 2039.8369,601.3086 Q2040.5713,601.3086 2041.2119,601.4805 Q2041.8682,601.6367 2042.415,601.9961 Z " fill="#000000"/><text fill="#000000" font-family="sans-serif" font-size="14" lengthAdjust="spacing" textLength="122.165" x="2060.1494" y="611.918">RailwayLineService</text><line style="stroke:#181818;stroke-width:0.5;" x1="1921" x2="2288.9639" y1="622.1211" y2="622.1211"/><line style="stroke:#181818;stroke-width:0.5;" x1="1921" x2="2288.9639" y1="630.1211" y2="630.1211"/><ellipse cx="1931" cy="644.9316" fill="#A6A6A6" rx="3" ry="3" style="stroke:#545454;stroke-width:1.0;"/><text fill="#000000" font-family="sans-serif" font-size="14" lengthAdjust="spacing" textLength="285.6055" x="1940" y="649.2285">calculateConstructionCost(path: Path): double</text><ellipse cx="1931" cy="663.5527" fill="#A6A6A6" rx="3" ry="3" style="stroke:#545454;stroke-width:1.0;"/><text fill="#000000" font-family="sans-serif" font-size="14" lengthAdjust="spacing" textLength="343.9639" x="1940" y="667.8496">validateRailwayLine(railwayLine: RailwayLine): boolean</text></g><!--class RailwayLine--><g id="elem_RailwayLine"><rect codeLine="73" fill="#F1F1F1" height="141.1055" id="RailwayLine" rx="2.5" ry="2.5" style="stroke:#181818;stroke-width:0.5;" width="170.7578" x="913.5" y="800.6211"/><ellipse cx="956.9739" cy="816.6211" fill="#C2C2C2" rx="11" ry="11" style="stroke:#181818;stroke-width:1.0;"/><path d="M959.7396,812.4961 Q959.8958,812.2773 960.0833,812.168 Q960.2708,812.0586 960.4896,812.0586 Q960.8646,812.0586 961.0989,812.3242 Q961.3333,812.5742 961.3333,813.1836 L961.3333,814.6367 Q961.3333,815.2461 961.0989,815.5117 Q960.8646,815.7773 960.4896,815.7773 Q960.1458,815.7773 959.9427,815.5742 Q959.7396,815.3867 959.6302,814.8711 Q959.5833,814.5117 959.3958,814.3242 Q959.0677,813.9492 958.4583,813.7305 Q957.8489,813.5117 957.2239,813.5117 Q956.4583,813.5117 955.8177,813.8398 Q955.1927,814.168 954.6927,814.918 Q954.2083,815.668 954.2083,816.6992 L954.2083,817.793 Q954.2083,819.0273 955.0989,819.8555 Q955.9896,820.668 957.5833,820.668 Q958.5208,820.668 959.1771,820.418 Q959.5677,820.2617 959.9896,819.8242 Q960.2552,819.5586 960.3958,819.4805 Q960.5521,819.4023 960.7552,819.4023 Q961.0833,819.4023 961.3333,819.668 Q961.5989,819.918 961.5989,820.2617 Q961.5989,820.6055 961.2552,821.0117 Q960.7552,821.5898 959.9583,821.918 Q958.8802,822.3711 957.5833,822.3711 Q956.0677,822.3711 954.8646,821.7461 Q953.8802,821.2461 953.1927,820.1836 Q952.5052,819.1055 952.5052,817.8242 L952.5052,816.668 Q952.5052,815.3398 953.1146,814.1992 Q953.7396,813.043 954.8333,812.4336 Q955.9271,811.8086 957.1614,811.8086 Q957.8958,811.8086 958.5364,811.9805 Q959.1927,812.1367 959.7396,812.4961 Z " fill="#000000"/><text fill="#000000" font-family="sans-serif" font-size="14" lengthAdjust="spacing" textLength="75.4824" x="977.3015" y="822.418">RailwayLine</text><line style="stroke:#181818;stroke-width:0.5;" x1="914.5" x2="1083.2578" y1="832.6211" y2="832.6211"/><rect fill="none" height="6" style="stroke:#595959;stroke-width:1.0;" width="6" x="921.5" y="844.4316"/><text fill="#000000" font-family="sans-serif" font-size="14" lengthAdjust="spacing" textLength="122.1787" x="933.5" y="851.7285">startStation: Station</text><rect fill="none" height="6" style="stroke:#595959;stroke-width:1.0;" width="6" x="921.5" y="863.0527"/><text fill="#000000" font-family="sans-serif" font-size="14" lengthAdjust="spacing" textLength="118.3096" x="933.5" y="870.3496">endStation: Station</text><rect fill="none" height="6" style="stroke:#595959;stroke-width:1.0;" width="6" x="921.5" y="881.6738"/><text fill="#000000" font-family="sans-serif" font-size="14" lengthAdjust="spacing" textLength="63.8271" x="933.5" y="888.9707">path: Path</text><rect fill="none" height="6" style="stroke:#595959;stroke-width:1.0;" width="6" x="921.5" y="900.2949"/><text fill="#000000" font-family="sans-serif" font-size="14" lengthAdjust="spacing" textLength="75.4961" x="933.5" y="907.5918">cost: double</text><line style="stroke:#181818;stroke-width:0.5;" x1="914.5" x2="1083.2578" y1="915.1055" y2="915.1055"/><ellipse cx="924.5" cy="929.916" fill="#A6A6A6" rx="3" ry="3" style="stroke:#545454;stroke-width:1.0;"/><text fill="#000000" font-family="sans-serif" font-size="14" lengthAdjust="spacing" textLength="144.7578" x="933.5" y="934.2129">validateData(): boolean</text></g><!--class RailwayLineRepository--><g id="elem_RailwayLineRepository"><rect codeLine="81" fill="#F1F1F1" height="103.8633" id="RailwayLineRepository" rx="2.5" ry="2.5" style="stroke:#181818;stroke-width:0.5;" width="400.2813" x="2396" y="580.6211"/><ellipse cx="2520.6909" cy="596.6211" fill="#C2C2C2" rx="11" ry="11" style="stroke:#181818;stroke-width:1.0;"/><path d="M2523.4565,592.4961 Q2523.6128,592.2773 2523.8003,592.168 Q2523.9878,592.0586 2524.2065,592.0586 Q2524.5815,592.0586 2524.8159,592.3242 Q2525.0503,592.5742 2525.0503,593.1836 L2525.0503,594.6367 Q2525.0503,595.2461 2524.8159,595.5117 Q2524.5815,595.7773 2524.2065,595.7773 Q2523.8628,595.7773 2523.6597,595.5742 Q2523.4565,595.3867 2523.3472,594.8711 Q2523.3003,594.5117 2523.1128,594.3242 Q2522.7847,593.9492 2522.1753,593.7305 Q2521.5659,593.5117 2520.9409,593.5117 Q2520.1753,593.5117 2519.5347,593.8398 Q2518.9097,594.168 2518.4097,594.918 Q2517.9253,595.668 2517.9253,596.6992 L2517.9253,597.793 Q2517.9253,599.0273 2518.8159,599.8555 Q2519.7065,600.668 2521.3003,600.668 Q2522.2378,600.668 2522.894,600.418 Q2523.2847,600.2617 2523.7065,599.8242 Q2523.9722,599.5586 2524.1128,599.4805 Q2524.269,599.4023 2524.4722,599.4023 Q2524.8003,599.4023 2525.0503,599.668 Q2525.3159,599.918 2525.3159,600.2617 Q2525.3159,600.6055 2524.9722,601.0117 Q2524.4722,601.5898 2523.6753,601.918 Q2522.5972,602.3711 2521.3003,602.3711 Q2519.7847,602.3711 2518.5815,601.7461 Q2517.5972,601.2461 2516.9097,600.1836 Q2516.2222,599.1055 2516.2222,597.8242 L2516.2222,596.668 Q2516.2222,595.3398 2516.8315,594.1992 Q2517.4565,593.043 2518.5503,592.4336 Q2519.644,591.8086 2520.8784,591.8086 Q2521.6128,591.8086 2522.2534,591.9805 Q2522.9097,592.1367 2523.4565,592.4961 Z " fill="#000000"/><text fill="#000000" font-family="sans-serif" font-size="14" lengthAdjust="spacing" textLength="142.3994" x="2541.1909" y="602.418">RailwayLineRepository</text><line style="stroke:#181818;stroke-width:0.5;" x1="2397" x2="2795.2813" y1="612.6211" y2="612.6211"/><line style="stroke:#181818;stroke-width:0.5;" x1="2397" x2="2795.2813" y1="620.6211" y2="620.6211"/><ellipse cx="2407" cy="635.4316" fill="#A6A6A6" rx="3" ry="3" style="stroke:#545454;stroke-width:1.0;"/><text fill="#000000" font-family="sans-serif" font-size="14" lengthAdjust="spacing" textLength="301.1367" x="2416" y="639.7285">saveRailwayLine(railwayLine: RailwayLine): void</text><ellipse cx="2407" cy="654.0527" fill="#A6A6A6" rx="3" ry="3" style="stroke:#545454;stroke-width:1.0;"/><text fill="#000000" font-family="sans-serif" font-size="14" lengthAdjust="spacing" textLength="374.2813" x="2416" y="658.3496">getRailwayLinesByPlayer(player: Player): List&lt;RailwayLine&gt;</text><ellipse cx="2407" cy="672.6738" fill="#A6A6A6" rx="3" ry="3" style="stroke:#545454;stroke-width:1.0;"/><text fill="#000000" font-family="sans-serif" font-size="14" lengthAdjust="spacing" textLength="339.2881" x="2416" y="676.9707">getRailwayLineById(id: String): Optional&lt;RailwayLine&gt;</text></g><!--link BuildRailwayLineUI to BuildRailwayLineController--><g id="link_BuildRailwayLineUI_BuildRailwayLineController"><path codeLine="87" d="M857,168.9211 C857,187.3111 857,202.2511 857,223.2911 " fill="none" id="BuildRailwayLineUI-to-BuildRailwayLineController" style="stroke:#181818;stroke-width:1.0;"/><polygon fill="#181818" points="857,229.2911,861,220.2911,857,224.2911,853,220.2911,857,229.2911" style="stroke:#181818;stroke-width:1.0;"/></g><!--link BuildRailwayLineController to GameSession--><g id="link_BuildRailwayLineController_GameSession"><path codeLine="88" d="M509.47,411.0011 C416.41,434.0711 318.31,466.7011 234,512.6211 C193.93,534.4411 160.892,567.3978 137.292,594.4778 " fill="none" id="BuildRailwayLineController-to-GameSession" style="stroke:#181818;stroke-width:1.0;"/><polygon fill="#181818" points="133.35,599.0011,142.2786,594.8441,136.635,595.2317,136.2475,589.5881,133.35,599.0011" style="stroke:#181818;stroke-width:1.0;"/></g><!--link BuildRailwayLineController to Player--><g id="link_BuildRailwayLineController_Player"><path codeLine="89" d="M1181.61,482.6211 C1234.85,503.2111 1283.4139,521.9768 1333.6539,541.4068 " fill="none" id="BuildRailwayLineController-to-Player" style="stroke:#181818;stroke-width:1.0;"/><polygon fill="#181818" points="1339.25,543.5711,1332.2987,536.594,1334.5866,541.7676,1329.4131,544.0554,1339.25,543.5711" style="stroke:#181818;stroke-width:1.0;"/></g><!--link BuildRailwayLineController to GameRepository--><g id="link_BuildRailwayLineController_GameRepository"><path codeLine="90" d="M667.89,482.7511 C653.01,492.8111 638.24,502.8611 624,512.6211 C581.97,541.4311 539.4606,571.4251 505.5806,595.5051 " fill="none" id="BuildRailwayLineController-to-GameRepository" style="stroke:#181818;stroke-width:1.0;"/><polygon fill="#181818" points="500.69,598.9811,510.3432,597.0276,504.7655,596.0845,505.7086,590.5068,500.69,598.9811" style="stroke:#181818;stroke-width:1.0;"/></g><!--link GameRepository to StationRepository--><g id="link_GameRepository_StationRepository"><path codeLine="91" d="M437.62,666.5011 C416.76,705.9811 384.3333,767.3162 359.8933,813.5662 " fill="none" id="GameRepository-to-StationRepository" style="stroke:#181818;stroke-width:1.0;"/><polygon fill="#181818" points="357.09,818.8711,364.8315,812.7826,359.4261,814.4504,357.7583,809.0449,357.09,818.8711" style="stroke:#181818;stroke-width:1.0;"/></g><!--link BuildRailwayLineController to StationRepository--><g id="link_BuildRailwayLineController_StationRepository"><path codeLine="92" d="M509.31,436.9111 C411.71,466.7211 324.14,503.2411 295,543.6211 C236.03,625.3211 272.7926,744.3422 302.6826,813.6022 " fill="none" id="BuildRailwayLineController-to-StationRepository" style="stroke:#181818;stroke-width:1.0;"/><polygon fill="#181818" points="305.06,819.1111,305.1665,809.2628,303.0788,814.5204,297.8213,812.4327,305.06,819.1111" style="stroke:#181818;stroke-width:1.0;"/></g><!--link BuildRailwayLineController to PathFinderService--><g id="link_BuildRailwayLineController_PathFinderService"><path codeLine="93" d="M919.69,482.7211 C941.11,525.6411 960.6104,564.7127 975.1004,593.7427 " fill="none" id="BuildRailwayLineController-to-PathFinderService" style="stroke:#181818;stroke-width:1.0;"/><polygon fill="#181818" points="977.78,599.1111,977.3396,589.2721,975.547,594.6374,970.1817,592.8449,977.78,599.1111" style="stroke:#181818;stroke-width:1.0;"/></g><!--link BuildRailwayLineController to RailwayLineService--><g id="link_BuildRailwayLineController_RailwayLineService"><path codeLine="94" d="M1204.73,398.5211 C1410.31,428.0811 1674.17,474.9311 1902,543.6211 C1942.27,555.7611 1979.7738,571.125 2015.7538,587.585 " fill="none" id="BuildRailwayLineController-to-RailwayLineService" style="stroke:#181818;stroke-width:1.0;"/><polygon fill="#181818" points="2021.21,590.0811,2014.6898,582.6996,2016.6632,588.001,2011.3617,589.9744,2021.21,590.0811" style="stroke:#181818;stroke-width:1.0;"/></g><!--link BuildRailwayLineController to RailwayLineRepository--><g id="link_BuildRailwayLineController_RailwayLineRepository"><path codeLine="95" d="M1204.65,377.5811 C1581.9,402.4911 2158.58,449.2211 2369,512.6211 C2420.76,528.2211 2469.3518,552.7802 2511.5518,577.4802 " fill="none" id="BuildRailwayLineController-to-RailwayLineRepository" style="stroke:#181818;stroke-width:1.0;"/><polygon fill="#181818" points="2516.73,580.5111,2510.9832,572.5127,2512.4148,577.9854,2506.9421,579.417,2516.73,580.5111" style="stroke:#181818;stroke-width:1.0;"/></g><!--link BuildRailwayLineController to Station--><g id="link_BuildRailwayLineController_Station"><path codeLine="96" d="M754.76,482.6711 C743.39,502.1211 733.56,522.7211 727,543.6211 C703.29,619.0911 709.56,644.4511 727,721.6211 C752.3,833.5711 813.7302,946.4021 855.8802,1015.3421 " fill="none" id="BuildRailwayLineController-to-Station" style="stroke:#181818;stroke-width:1.0;"/><polygon fill="#181818" points="859.01,1020.4611,857.728,1010.696,856.4018,1016.1952,850.9026,1014.8691,859.01,1020.4611" style="stroke:#181818;stroke-width:1.0;"/></g><!--link BuildRailwayLineController to Path--><g id="link_BuildRailwayLineController_Path"><path codeLine="97" d="M1204.93,378.0811 C1610.62,406.1411 2235.23,462.0311 2307,543.6211 C2523.98,790.3011 1898.3904,995.0371 1674.9504,1058.6971 " fill="none" id="BuildRailwayLineController-to-Path" style="stroke:#181818;stroke-width:1.0;"/><polygon fill="#181818" points="1669.18,1060.3411,1678.9316,1061.722,1673.9886,1058.9711,1676.7395,1054.0281,1669.18,1060.3411" style="stroke:#181818;stroke-width:1.0;"/></g><!--link BuildRailwayLineController to RailwayLine--><g id="link_BuildRailwayLineController_RailwayLine"><path codeLine="98" d="M776.5,482.6811 C740.53,555.7611 714.56,647.7411 756,721.6211 C789.44,781.2411 852.0793,817.493 907.7293,840.333 " fill="none" id="BuildRailwayLineController-to-RailwayLine" style="stroke:#181818;stroke-width:1.0;"/><polygon fill="#181818" points="913.28,842.6111,906.4727,835.4934,908.6544,840.7127,903.4352,842.8944,913.28,842.6111" style="stroke:#181818;stroke-width:1.0;"/></g><!--reverse link Player to RailwayLine--><g id="link_Player_RailwayLine"><path codeLine="100" d="M1344.4221,726.2942 C1250.4321,765.4342 1156.16,804.6811 1084.52,834.5111 " fill="none" id="Player-backto-RailwayLine" style="stroke:#181818;stroke-width:1.0;"/><polygon fill="#181818" points="1355.5,721.6811,1348.4234,720.295,1344.4221,726.2942,1351.4988,727.6803,1355.5,721.6811" style="stroke:#181818;stroke-width:1.0;"/><polygon fill="#000000" points="1283.3841,763.1885,1292.864,762.4249,1290.6046,756.9986,1283.3841,763.1885" style="stroke:#000000;stroke-width:1.0;"/><text fill="#000000" font-family="sans-serif" font-size="13" lengthAdjust="spacing" textLength="30.3481" x="1297" y="766.6494">owns</text><text fill="#000000" font-family="sans-serif" font-size="13" lengthAdjust="spacing" textLength="7.23" x="1330.0278" y="744.091">1</text><text fill="#000000" font-family="sans-serif" font-size="13" lengthAdjust="spacing" textLength="19.5127" x="1092.122" y="827.9521">0..*</text></g><!--link RailwayLine to Station--><g id="link_RailwayLine_Station"><path codeLine="101" d="M913.46,941.1911 C906.04,950.6311 899.61,960.8211 895,971.6211 C888.57,986.6811 886.82,1004.0111 887.34,1020.3511 " fill="none" id="RailwayLine-Station" style="stroke:#181818;stroke-width:1.0;"/><polygon fill="#000000" points="898.4333,986.0148,904.0584,978.3461,898.4766,976.5043,898.4333,986.0148" style="stroke:#000000;stroke-width:1.0;"/><text fill="#000000" font-family="sans-serif" font-size="13" lengthAdjust="spacing" textLength="46.2363" x="909" y="986.6494">starts at</text><text fill="#000000" font-family="sans-serif" font-size="13" lengthAdjust="spacing" textLength="7.23" x="898.2734" y="943.904">1</text><text fill="#000000" font-family="sans-serif" font-size="13" lengthAdjust="spacing" textLength="7.23" x="878.7428" y="1009.3011">1</text></g><!--link RailwayLine to Station--><g id="link_RailwayLine_Station"><path codeLine="102" d="M979.76,941.7511 C974.23,958.1411 967.61,975.2911 960,990.6211 C955.02,1000.6511 949.05,1010.8311 942.8,1020.5711 " fill="none" id="RailwayLine-Station-1" style="stroke:#181818;stroke-width:1.0;"/><polygon fill="#000000" points="971.8772,985.7936,978.3783,978.8519,973.0565,976.3564,971.8772,985.7936" style="stroke:#000000;stroke-width:1.0;"/><text fill="#000000" font-family="sans-serif" font-size="13" lengthAdjust="spacing" textLength="42.6436" x="983" y="986.6494">ends at</text><text fill="#000000" font-family="sans-serif" font-size="13" lengthAdjust="spacing" textLength="7.23" x="970.4393" y="963.9493">1</text><text fill="#000000" font-family="sans-serif" font-size="13" lengthAdjust="spacing" textLength="7.23" x="940.6154" y="1009.5465">1</text></g><!--link RailwayLine to Path--><g id="link_RailwayLine_Path"><path codeLine="103" d="M1084.57,902.1011 C1201.14,942.9511 1408.01,1015.4411 1518.88,1054.3011 " fill="none" id="RailwayLine-Path" style="stroke:#181818;stroke-width:1.0;"/><polygon fill="#000000" points="1342.7186,982.9202,1335.1545,977.1553,1333.2106,982.7024,1342.7186,982.9202" style="stroke:#000000;stroke-width:1.0;"/><text fill="#000000" font-family="sans-serif" font-size="13" lengthAdjust="spacing" textLength="39.7363" x="1347" y="986.6494">follows</text><text fill="#000000" font-family="sans-serif" font-size="13" lengthAdjust="spacing" textLength="7.23" x="1092.2447" y="901.0693">1</text><text fill="#000000" font-family="sans-serif" font-size="13" lengthAdjust="spacing" textLength="7.23" x="1503.7977" y="1047.638">1</text></g><!--SRC=[hLPRRzem57xFhpZYYRQawjwcg48gT9qgLMi5wjEq1nERuDNOaUs0ecd_VRPZ4kT2eTLU23dtotVEYNgZF4SIRM4hk4WtKcm9Q5cGIDMS7ALlA2DBNJ82agGQyOo50cg3iDXJdi4QCKMYI5DjH5-NDryXXZb3Ii4zHPcLZM5MK8O1mG9HjaSbF55kL58dvNYUOUclZ_0d0aW5rr8mHcJI4vdNF2Du1QiEUtoHm4vGR9WnABGZIy9C2WGlDPBQ_6Wg-5XLpmGyuPZIDuvFgVmzbaiJgCifXWnjZM6bd9NlpKlDN91SAAg5B2j-yru5LZaEfPPTaXFCaTuyK8w9N1Aveob9uALBSeAoYRQMNFHeNT4mWCKGsJKc8tfUI4cuVc6e9D8sflftOD_jZ39QCUApK5RaYIfzwmdJdcJJ3sKRKZSqx4hVGefOMZ2aYQt27STpeVIm-WH8xI6q-PpRFuZTFgz-6s3y_3KT1b_k4ZmaEe7pdKnSrwf6JSm0A9q05eN9sRXV2S48uWtM0lGuSBagFOai8_YHz-fTgrNl7exSsB3kfHbaHrWN7Ak3rsxJbIziaEqqHAKQAlm6gMMnNjEK6XWyMFFZ8vcvDabYUXIMyp-LBp3f7662YtGudlP8juUmgNHlx6on-xDOs-cn6bDtZ9s4_uimdVuq-fjuP-KFaz0uR7o8xLgh6_Snm32HUl_LM7Wy26cknnoPCq9rsS9JMYs4EPAPg17btWAdlLNbYxKsDClxvEHQrOuNdrSkADU7QAfCAcWpmZCBAfz1hTjVaJx4Uj6OtQ_CLKsjRxTj6dHU11MvWXrY57TG7qnT2xj3Yo1W-sm6g-Cu0mMgpqKLMzMaO29QCTuZZSOdWkX1t5xJCvFp5zWXDk2eMUatMdkxNWnlfAxwh7p4Oug70D_IDDaCV8t4yVIzBv1tRhxL38_y2L6_giym62oOpdwo4lqjTCBaXnNwdn8d50Q-ACxN-70YvuJ_0VzHv8_cwCi8BkCOHZVNrvUZrk0b8FPSmJGAYLRUYfl7OOqcrN0gGFeSOJElxukw7PR0sWGkzjR_Fm00]--></g></svg>