<svg xmlns="http://www.w3.org/2000/svg" xmlns:xlink="http://www.w3.org/1999/xlink" contentStyleType="text/css" height="1672px" preserveAspectRatio="none" style="width:2799px;height:1672px;background:#FFFFFF;" version="1.1" viewBox="0 0 2799 1672" width="2799px" zoomAndPan="magnify"><title>Sequence Diagram (SD) - US08 Build Railway Line - Full</title><defs/><g><text fill="#000000" font-family="sans-serif" font-size="14" font-weight="bold" lengthAdjust="spacing" textLength="371.0752" x="1212.9897" y="30.1074">Sequence Diagram (SD) - US08 Build Railway Line - Full</text><rect fill="#FFFFFF" height="1438.4258" style="stroke:#181818;stroke-width:1.0;" width="10" x="22.8413" y="133.2422"/><rect fill="#FFFFFF" height="344.2012" style="stroke:#181818;stroke-width:1.0;" width="10" x="443.0845" y="156.5332"/><rect fill="#FFFFFF" height="200.7461" style="stroke:#181818;stroke-width:1.0;" width="10" x="443.0845" y="532.0254"/><rect fill="#FFFFFF" height="263.3281" style="stroke:#181818;stroke-width:1.0;" width="10" x="443.0845" y="764.0625"/><rect fill="#FFFFFF" height="512.9863" style="stroke:#181818;stroke-width:1.0;" width="10" x="443.0845" y="1058.6816"/><rect fill="#FFFFFF" height="93.873" style="stroke:#181818;stroke-width:1.0;" width="10" x="838.123" y="187.8242"/><rect fill="#FFFFFF" height="156.4551" style="stroke:#181818;stroke-width:1.0;" width="10" x="838.123" y="312.9883"/><rect fill="#FFFFFF" height="93.873" style="stroke:#181818;stroke-width:1.0;" width="10" x="838.123" y="607.6074"/><rect fill="#FFFFFF" height="156.4551" style="stroke:#181818;stroke-width:1.0;" width="10" x="838.123" y="839.6445"/><rect fill="#FFFFFF" height="450.4043" style="stroke:#181818;stroke-width:1.0;" width="10" x="838.123" y="1089.9727"/><rect fill="#FFFFFF" height="31.291" style="stroke:#181818;stroke-width:1.0;" width="10" x="996.1528" y="219.1152"/><rect fill="#FFFFFF" height="31.291" style="stroke:#181818;stroke-width:1.0;" width="10" x="1199.1953" y="1121.2637"/><rect fill="#FFFFFF" height="137.4941" style="stroke:#181818;stroke-width:1.0;" width="10" x="1199.1953" y="1183.8457"/><rect fill="#FFFFFF" height="31.291" style="stroke:#181818;stroke-width:1.0;" width="10" x="1199.1953" y="1477.7949"/><rect fill="#FFFFFF" height="31.291" style="stroke:#181818;stroke-width:1.0;" width="10" x="1318.5122" y="344.2793"/><rect fill="#FFFFFF" height="31.291" style="stroke:#181818;stroke-width:1.0;" width="10" x="1454.1738" y="406.8613"/><rect fill="#FFFFFF" height="31.291" style="stroke:#181818;stroke-width:1.0;" width="10" x="1454.1738" y="638.8984"/><rect fill="#FFFFFF" height="31.291" style="stroke:#181818;stroke-width:1.0;" width="10" x="2048.2539" y="870.9355"/><rect fill="#FFFFFF" height="31.291" style="stroke:#181818;stroke-width:1.0;" width="10" x="2278.7461" y="933.5176"/><rect fill="#FFFFFF" height="31.291" style="stroke:#181818;stroke-width:1.0;" width="10" x="2278.7461" y="1352.6309"/><rect fill="#FFFFFF" height="31.291" style="stroke:#181818;stroke-width:1.0;" width="10" x="2536.0625" y="1258.7578"/><rect fill="#FFFFFF" height="31.291" style="stroke:#181818;stroke-width:1.0;" width="10" x="2707.9102" y="1415.2129"/><line style="stroke:#181818;stroke-width:0.5;stroke-dasharray:5.0,5.0;" x1="27" x2="27" y1="123.2422" y2="1589.668"/><line style="stroke:#181818;stroke-width:0.5;stroke-dasharray:5.0,5.0;" x1="447.833" x2="447.833" y1="123.2422" y2="1589.668"/><line style="stroke:#181818;stroke-width:0.5;stroke-dasharray:5.0,5.0;" x1="842.5269" x2="842.5269" y1="123.2422" y2="1589.668"/><line style="stroke:#181818;stroke-width:0.5;stroke-dasharray:5.0,5.0;" x1="1000.2427" x2="1000.2427" y1="123.2422" y2="1589.668"/><line style="stroke:#181818;stroke-width:0.5;stroke-dasharray:5.0,5.0;" x1="1203.3438" x2="1203.3438" y1="123.2422" y2="1589.668"/><line style="stroke:#181818;stroke-width:0.5;stroke-dasharray:5.0,5.0;" x1="1323.0469" x2="1323.0469" y1="123.2422" y2="1589.668"/><line style="stroke:#181818;stroke-width:0.5;stroke-dasharray:5.0,5.0;" x1="1458.9775" x2="1458.9775" y1="123.2422" y2="1589.668"/><line style="stroke:#181818;stroke-width:0.5;stroke-dasharray:5.0,5.0;" x1="1614.3701" x2="1614.3701" y1="123.2422" y2="1589.668"/><line style="stroke:#181818;stroke-width:0.5;stroke-dasharray:5.0,5.0;" x1="1772.0176" x2="1772.0176" y1="123.2422" y2="1589.668"/><line style="stroke:#181818;stroke-width:0.5;stroke-dasharray:5.0,5.0;" x1="1912.3066" x2="1912.3066" y1="123.2422" y2="1589.668"/><line style="stroke:#181818;stroke-width:0.5;stroke-dasharray:5.0,5.0;" x1="2052.7266" x2="2052.7266" y1="123.2422" y2="1589.668"/><line style="stroke:#181818;stroke-width:0.5;stroke-dasharray:5.0,5.0;" x1="2165.7813" x2="2165.7813" y1="123.2422" y2="1589.668"/><line style="stroke:#181818;stroke-width:0.5;stroke-dasharray:5.0,5.0;" x1="2283.7188" x2="2283.7188" y1="123.2422" y2="1589.668"/><line style="stroke:#181818;stroke-width:0.5;stroke-dasharray:5.0,5.0;" x1="2405.7734" x2="2405.7734" y1="123.2422" y2="1589.668"/><line style="stroke:#181818;stroke-width:0.5;stroke-dasharray:5.0,5.0;" x1="2540.3594" x2="2540.3594" y1="1223.6563" y2="1589.668"/><line style="stroke:#181818;stroke-width:0.5;stroke-dasharray:5.0,5.0;" x1="2712.7656" x2="2712.7656" y1="123.2422" y2="1589.668"/><text fill="#000000" font-family="sans-serif" font-size="14" lengthAdjust="spacing" textLength="39.6826" x="5" y="119.7285">Player</text><ellipse cx="27.8413" cy="53.1211" fill="#E3E3E3" rx="8" ry="8" style="stroke:#181818;stroke-width:0.5;"/><path d="M27.8413,61.1211 L27.8413,88.1211 M14.8413,69.1211 L40.8413,69.1211 M27.8413,88.1211 L14.8413,103.1211 M27.8413,88.1211 L40.8413,103.1211 " fill="none" style="stroke:#181818;stroke-width:0.5;"/><text fill="#000000" font-family="sans-serif" font-size="14" lengthAdjust="spacing" textLength="39.6826" x="5" y="1603.7754">Player</text><ellipse cx="27.8413" cy="1615.7891" fill="#E3E3E3" rx="8" ry="8" style="stroke:#181818;stroke-width:0.5;"/><path d="M27.8413,1623.7891 L27.8413,1650.7891 M14.8413,1631.7891 L40.8413,1631.7891 M27.8413,1650.7891 L14.8413,1665.7891 M27.8413,1650.7891 L40.8413,1665.7891 " fill="none" style="stroke:#181818;stroke-width:0.5;"/><rect fill="#E3E3E3" height="32.6211" rx="2.5" ry="2.5" style="stroke:#181818;stroke-width:0.5;" width="138.5029" x="378.833" y="89.6211"/><text fill="#000000" font-family="sans-serif" font-size="14" lengthAdjust="spacing" textLength="124.5029" x="385.833" y="111.7285">:BuildRailwayLineUI</text><rect fill="#E3E3E3" height="32.6211" rx="2.5" ry="2.5" style="stroke:#181818;stroke-width:0.5;" width="138.5029" x="378.833" y="1588.668"/><text fill="#000000" font-family="sans-serif" font-size="14" lengthAdjust="spacing" textLength="124.5029" x="385.833" y="1610.7754">:BuildRailwayLineUI</text><rect fill="#E3E3E3" height="32.6211" rx="2.5" ry="2.5" style="stroke:#181818;stroke-width:0.5;" width="185.1924" x="750.5269" y="89.6211"/><text fill="#000000" font-family="sans-serif" font-size="14" lengthAdjust="spacing" textLength="171.1924" x="757.5269" y="111.7285">:BuildRailwayLineController</text><rect fill="#E3E3E3" height="32.6211" rx="2.5" ry="2.5" style="stroke:#181818;stroke-width:0.5;" width="185.1924" x="750.5269" y="1588.668"/><text fill="#000000" font-family="sans-serif" font-size="14" lengthAdjust="spacing" textLength="171.1924" x="757.5269" y="1610.7754">:BuildRailwayLineController</text><rect fill="#E3E3E3" height="32.6211" rx="2.5" ry="2.5" style="stroke:#181818;stroke-width:0.5;" width="105.8203" x="948.2427" y="89.6211"/><text fill="#000000" font-family="sans-serif" font-size="14" lengthAdjust="spacing" textLength="91.8203" x="955.2427" y="111.7285">:GameSession</text><rect fill="#E3E3E3" height="32.6211" rx="2.5" ry="2.5" style="stroke:#181818;stroke-width:0.5;" width="105.8203" x="948.2427" y="1588.668"/><text fill="#000000" font-family="sans-serif" font-size="14" lengthAdjust="spacing" textLength="91.8203" x="955.2427" y="1610.7754">:GameSession</text><rect fill="#E3E3E3" height="32.6211" rx="2.5" ry="2.5" style="stroke:#181818;stroke-width:0.5;" width="95.7031" x="1156.3438" y="89.6211"/><text fill="#000000" font-family="sans-serif" font-size="14" lengthAdjust="spacing" textLength="81.7031" x="1163.3438" y="111.7285">player:Player</text><rect fill="#E3E3E3" height="32.6211" rx="2.5" ry="2.5" style="stroke:#181818;stroke-width:0.5;" width="95.7031" x="1156.3438" y="1588.668"/><text fill="#000000" font-family="sans-serif" font-size="14" lengthAdjust="spacing" textLength="81.7031" x="1163.3438" y="1610.7754">player:Player</text><rect fill="#E3E3E3" height="32.6211" rx="2.5" ry="2.5" style="stroke:#181818;stroke-width:0.5;" width="122.9307" x="1262.0469" y="89.6211"/><text fill="#000000" font-family="sans-serif" font-size="14" lengthAdjust="spacing" textLength="108.9307" x="1269.0469" y="111.7285">:GameRepository</text><rect fill="#E3E3E3" height="32.6211" rx="2.5" ry="2.5" style="stroke:#181818;stroke-width:0.5;" width="122.9307" x="1262.0469" y="1588.668"/><text fill="#000000" font-family="sans-serif" font-size="14" lengthAdjust="spacing" textLength="108.9307" x="1269.0469" y="1610.7754">:GameRepository</text><rect fill="#E3E3E3" height="32.6211" rx="2.5" ry="2.5" style="stroke:#181818;stroke-width:0.5;" width="128.3926" x="1394.9775" y="89.6211"/><text fill="#000000" font-family="sans-serif" font-size="14" lengthAdjust="spacing" textLength="114.3926" x="1401.9775" y="111.7285">:StationRepository</text><rect fill="#E3E3E3" height="32.6211" rx="2.5" ry="2.5" style="stroke:#181818;stroke-width:0.5;" width="128.3926" x="1394.9775" y="1588.668"/><text fill="#000000" font-family="sans-serif" font-size="14" lengthAdjust="spacing" textLength="114.3926" x="1401.9775" y="1610.7754">:StationRepository</text><rect fill="#E3E3E3" height="32.6211" rx="2.5" ry="2.5" style="stroke:#181818;stroke-width:0.5;" width="162.6475" x="1533.3701" y="89.6211"/><text fill="#000000" font-family="sans-serif" font-size="14" lengthAdjust="spacing" textLength="148.6475" x="1540.3701" y="111.7285">stationList:List&lt;Station&gt;</text><rect fill="#E3E3E3" height="32.6211" rx="2.5" ry="2.5" style="stroke:#181818;stroke-width:0.5;" width="162.6475" x="1533.3701" y="1588.668"/><text fill="#000000" font-family="sans-serif" font-size="14" lengthAdjust="spacing" textLength="148.6475" x="1540.3701" y="1610.7754">stationList:List&lt;Station&gt;</text><rect fill="#E3E3E3" height="32.6211" rx="2.5" ry="2.5" style="stroke:#181818;stroke-width:0.5;" width="132.2891" x="1706.0176" y="89.6211"/><text fill="#000000" font-family="sans-serif" font-size="14" lengthAdjust="spacing" textLength="118.2891" x="1713.0176" y="111.7285">startStation:Station</text><rect fill="#E3E3E3" height="32.6211" rx="2.5" ry="2.5" style="stroke:#181818;stroke-width:0.5;" width="132.2891" x="1706.0176" y="1588.668"/><text fill="#000000" font-family="sans-serif" font-size="14" lengthAdjust="spacing" textLength="118.2891" x="1713.0176" y="1610.7754">startStation:Station</text><rect fill="#E3E3E3" height="32.6211" rx="2.5" ry="2.5" style="stroke:#181818;stroke-width:0.5;" width="128.4199" x="1848.3066" y="89.6211"/><text fill="#000000" font-family="sans-serif" font-size="14" lengthAdjust="spacing" textLength="114.4199" x="1855.3066" y="111.7285">endStation:Station</text><rect fill="#E3E3E3" height="32.6211" rx="2.5" ry="2.5" style="stroke:#181818;stroke-width:0.5;" width="128.4199" x="1848.3066" y="1588.668"/><text fill="#000000" font-family="sans-serif" font-size="14" lengthAdjust="spacing" textLength="114.4199" x="1855.3066" y="1610.7754">endStation:Station</text><rect fill="#E3E3E3" height="32.6211" rx="2.5" ry="2.5" style="stroke:#181818;stroke-width:0.5;" width="133.0547" x="1986.7266" y="89.6211"/><text fill="#000000" font-family="sans-serif" font-size="14" lengthAdjust="spacing" textLength="119.0547" x="1993.7266" y="111.7285">:PathFinderService</text><rect fill="#E3E3E3" height="32.6211" rx="2.5" ry="2.5" style="stroke:#181818;stroke-width:0.5;" width="133.0547" x="1986.7266" y="1588.668"/><text fill="#000000" font-family="sans-serif" font-size="14" lengthAdjust="spacing" textLength="119.0547" x="1993.7266" y="1610.7754">:PathFinderService</text><rect fill="#E3E3E3" height="32.6211" rx="2.5" ry="2.5" style="stroke:#181818;stroke-width:0.5;" width="73.9375" x="2129.7813" y="89.6211"/><text fill="#000000" font-family="sans-serif" font-size="14" lengthAdjust="spacing" textLength="59.9375" x="2136.7813" y="111.7285">path:Path</text><rect fill="#E3E3E3" height="32.6211" rx="2.5" ry="2.5" style="stroke:#181818;stroke-width:0.5;" width="73.9375" x="2129.7813" y="1588.668"/><text fill="#000000" font-family="sans-serif" font-size="14" lengthAdjust="spacing" textLength="59.9375" x="2136.7813" y="1610.7754">path:Path</text><rect fill="#E3E3E3" height="32.6211" rx="2.5" ry="2.5" style="stroke:#181818;stroke-width:0.5;" width="140.0547" x="2213.7188" y="89.6211"/><text fill="#000000" font-family="sans-serif" font-size="14" lengthAdjust="spacing" textLength="126.0547" x="2220.7188" y="111.7285">:RailwayLineService</text><rect fill="#E3E3E3" height="32.6211" rx="2.5" ry="2.5" style="stroke:#181818;stroke-width:0.5;" width="140.0547" x="2213.7188" y="1588.668"/><text fill="#000000" font-family="sans-serif" font-size="14" lengthAdjust="spacing" textLength="126.0547" x="2220.7188" y="1610.7754">:RailwayLineService</text><rect fill="#E3E3E3" height="32.6211" rx="2.5" ry="2.5" style="stroke:#181818;stroke-width:0.5;" width="85.5859" x="2363.7734" y="89.6211"/><text fill="#000000" font-family="sans-serif" font-size="14" lengthAdjust="spacing" textLength="71.5859" x="2370.7734" y="111.7285">cost:Money</text><rect fill="#E3E3E3" height="32.6211" rx="2.5" ry="2.5" style="stroke:#181818;stroke-width:0.5;" width="85.5859" x="2363.7734" y="1588.668"/><text fill="#000000" font-family="sans-serif" font-size="14" lengthAdjust="spacing" textLength="71.5859" x="2370.7734" y="1610.7754">cost:Money</text><rect fill="#E3E3E3" height="32.6211" rx="2.5" ry="2.5" style="stroke:#181818;stroke-width:0.5;" width="163.4063" x="2459.3594" y="1588.668"/><text fill="#000000" font-family="sans-serif" font-size="14" lengthAdjust="spacing" textLength="149.4063" x="2466.3594" y="1610.7754">railwayLine:RailwayLine</text><rect fill="#E3E3E3" height="32.6211" rx="2.5" ry="2.5" style="stroke:#181818;stroke-width:0.5;" width="160.2891" x="2632.7656" y="89.6211"/><text fill="#000000" font-family="sans-serif" font-size="14" lengthAdjust="spacing" textLength="146.2891" x="2639.7656" y="111.7285">:RailwayLineRepository</text><rect fill="#E3E3E3" height="32.6211" rx="2.5" ry="2.5" style="stroke:#181818;stroke-width:0.5;" width="160.2891" x="2632.7656" y="1588.668"/><text fill="#000000" font-family="sans-serif" font-size="14" lengthAdjust="spacing" textLength="146.2891" x="2639.7656" y="1610.7754">:RailwayLineRepository</text><rect fill="#FFFFFF" height="1438.4258" style="stroke:#181818;stroke-width:1.0;" width="10" x="22.8413" y="133.2422"/><rect fill="#FFFFFF" height="344.2012" style="stroke:#181818;stroke-width:1.0;" width="10" x="443.0845" y="156.5332"/><rect fill="#FFFFFF" height="200.7461" style="stroke:#181818;stroke-width:1.0;" width="10" x="443.0845" y="532.0254"/><rect fill="#FFFFFF" height="263.3281" style="stroke:#181818;stroke-width:1.0;" width="10" x="443.0845" y="764.0625"/><rect fill="#FFFFFF" height="512.9863" style="stroke:#181818;stroke-width:1.0;" width="10" x="443.0845" y="1058.6816"/><rect fill="#FFFFFF" height="93.873" style="stroke:#181818;stroke-width:1.0;" width="10" x="838.123" y="187.8242"/><rect fill="#FFFFFF" height="156.4551" style="stroke:#181818;stroke-width:1.0;" width="10" x="838.123" y="312.9883"/><rect fill="#FFFFFF" height="93.873" style="stroke:#181818;stroke-width:1.0;" width="10" x="838.123" y="607.6074"/><rect fill="#FFFFFF" height="156.4551" style="stroke:#181818;stroke-width:1.0;" width="10" x="838.123" y="839.6445"/><rect fill="#FFFFFF" height="450.4043" style="stroke:#181818;stroke-width:1.0;" width="10" x="838.123" y="1089.9727"/><rect fill="#FFFFFF" height="31.291" style="stroke:#181818;stroke-width:1.0;" width="10" x="996.1528" y="219.1152"/><rect fill="#FFFFFF" height="31.291" style="stroke:#181818;stroke-width:1.0;" width="10" x="1199.1953" y="1121.2637"/><rect fill="#FFFFFF" height="137.4941" style="stroke:#181818;stroke-width:1.0;" width="10" x="1199.1953" y="1183.8457"/><rect fill="#FFFFFF" height="31.291" style="stroke:#181818;stroke-width:1.0;" width="10" x="1199.1953" y="1477.7949"/><rect fill="#FFFFFF" height="31.291" style="stroke:#181818;stroke-width:1.0;" width="10" x="1318.5122" y="344.2793"/><rect fill="#FFFFFF" height="31.291" style="stroke:#181818;stroke-width:1.0;" width="10" x="1454.1738" y="406.8613"/><rect fill="#FFFFFF" height="31.291" style="stroke:#181818;stroke-width:1.0;" width="10" x="1454.1738" y="638.8984"/><rect fill="#FFFFFF" height="31.291" style="stroke:#181818;stroke-width:1.0;" width="10" x="2048.2539" y="870.9355"/><rect fill="#FFFFFF" height="31.291" style="stroke:#181818;stroke-width:1.0;" width="10" x="2278.7461" y="933.5176"/><rect fill="#FFFFFF" height="31.291" style="stroke:#181818;stroke-width:1.0;" width="10" x="2278.7461" y="1352.6309"/><rect fill="#FFFFFF" height="31.291" style="stroke:#181818;stroke-width:1.0;" width="10" x="2536.0625" y="1258.7578"/><rect fill="#FFFFFF" height="31.291" style="stroke:#181818;stroke-width:1.0;" width="10" x="2707.9102" y="1415.2129"/><polygon fill="#181818" points="431.0845,152.5332,441.0845,156.5332,431.0845,160.5332,435.0845,156.5332" style="stroke:#181818;stroke-width:1.0;"/><line style="stroke:#181818;stroke-width:1.0;" x1="32.8413" x2="437.0845" y1="156.5332" y2="156.5332"/><text fill="#000000" font-family="sans-serif" font-size="13" font-weight="bold" lengthAdjust="spacing" textLength="7.23" x="39.8413" y="151.2705">1</text><text fill="#000000" font-family="sans-serif" font-size="13" lengthAdjust="spacing" textLength="174.1479" x="51.0713" y="151.2705">requests to build a railway line</text><polygon fill="#181818" points="826.123,183.8242,836.123,187.8242,826.123,191.8242,830.123,187.8242" style="stroke:#181818;stroke-width:1.0;"/><line style="stroke:#181818;stroke-width:1.0;" x1="453.0845" x2="832.123" y1="187.8242" y2="187.8242"/><text fill="#000000" font-family="sans-serif" font-size="13" font-weight="bold" lengthAdjust="spacing" textLength="7.23" x="460.0845" y="182.5615">2</text><text fill="#000000" font-family="sans-serif" font-size="13" lengthAdjust="spacing" textLength="106.9263" x="471.3145" y="182.5615">getCurrentPlayer()</text><polygon fill="#181818" points="984.1528,215.1152,994.1528,219.1152,984.1528,223.1152,988.1528,219.1152" style="stroke:#181818;stroke-width:1.0;"/><line style="stroke:#181818;stroke-width:1.0;" x1="848.123" x2="990.1528" y1="219.1152" y2="219.1152"/><text fill="#000000" font-family="sans-serif" font-size="13" font-weight="bold" lengthAdjust="spacing" textLength="7.23" x="855.123" y="213.8525">3</text><text fill="#000000" font-family="sans-serif" font-size="13" lengthAdjust="spacing" textLength="117.7998" x="866.353" y="213.8525">getLoggedInPlayer()</text><polygon fill="#181818" points="859.123,246.4063,849.123,250.4063,859.123,254.4063,855.123,250.4063" style="stroke:#181818;stroke-width:1.0;"/><line style="stroke:#181818;stroke-width:1.0;stroke-dasharray:2.0,2.0;" x1="853.123" x2="1000.1528" y1="250.4063" y2="250.4063"/><text fill="#000000" font-family="sans-serif" font-size="13" font-weight="bold" lengthAdjust="spacing" textLength="7.23" x="865.123" y="245.1436">4</text><text fill="#000000" font-family="sans-serif" font-size="13" lengthAdjust="spacing" textLength="35.4072" x="876.353" y="245.1436">player</text><polygon fill="#181818" points="464.0845,277.6973,454.0845,281.6973,464.0845,285.6973,460.0845,281.6973" style="stroke:#181818;stroke-width:1.0;"/><line style="stroke:#181818;stroke-width:1.0;stroke-dasharray:2.0,2.0;" x1="458.0845" x2="842.123" y1="281.6973" y2="281.6973"/><text fill="#000000" font-family="sans-serif" font-size="13" font-weight="bold" lengthAdjust="spacing" textLength="7.23" x="470.0845" y="276.4346">5</text><text fill="#000000" font-family="sans-serif" font-size="13" lengthAdjust="spacing" textLength="35.4072" x="481.3145" y="276.4346">player</text><polygon fill="#181818" points="826.123,308.9883,836.123,312.9883,826.123,316.9883,830.123,312.9883" style="stroke:#181818;stroke-width:1.0;"/><line style="stroke:#181818;stroke-width:1.0;" x1="453.0845" x2="832.123" y1="312.9883" y2="312.9883"/><text fill="#000000" font-family="sans-serif" font-size="13" font-weight="bold" lengthAdjust="spacing" textLength="7.23" x="460.0845" y="307.7256">6</text><text fill="#000000" font-family="sans-serif" font-size="13" lengthAdjust="spacing" textLength="126.458" x="471.3145" y="307.7256">getAvailableStations()</text><polygon fill="#181818" points="1306.5122,340.2793,1316.5122,344.2793,1306.5122,348.2793,1310.5122,344.2793" style="stroke:#181818;stroke-width:1.0;"/><line style="stroke:#181818;stroke-width:1.0;" x1="848.123" x2="1312.5122" y1="344.2793" y2="344.2793"/><text fill="#000000" font-family="sans-serif" font-size="13" font-weight="bold" lengthAdjust="spacing" textLength="7.23" x="855.123" y="339.0166">7</text><text fill="#000000" font-family="sans-serif" font-size="13" lengthAdjust="spacing" textLength="129.3398" x="866.353" y="339.0166">getStationRepository()</text><polygon fill="#181818" points="859.123,371.5703,849.123,375.5703,859.123,379.5703,855.123,375.5703" style="stroke:#181818;stroke-width:1.0;"/><line style="stroke:#181818;stroke-width:1.0;stroke-dasharray:2.0,2.0;" x1="853.123" x2="1322.5122" y1="375.5703" y2="375.5703"/><text fill="#000000" font-family="sans-serif" font-size="13" font-weight="bold" lengthAdjust="spacing" textLength="7.23" x="865.123" y="370.3076">8</text><text fill="#000000" font-family="sans-serif" font-size="13" lengthAdjust="spacing" textLength="100.439" x="876.353" y="370.3076">stationRepository</text><polygon fill="#181818" points="1442.1738,402.8613,1452.1738,406.8613,1442.1738,410.8613,1446.1738,406.8613" style="stroke:#181818;stroke-width:1.0;"/><line style="stroke:#181818;stroke-width:1.0;" x1="848.123" x2="1448.1738" y1="406.8613" y2="406.8613"/><text fill="#000000" font-family="sans-serif" font-size="13" font-weight="bold" lengthAdjust="spacing" textLength="7.23" x="855.123" y="401.5986">9</text><text fill="#000000" font-family="sans-serif" font-size="13" lengthAdjust="spacing" textLength="88.1499" x="866.353" y="401.5986">getAllStations()</text><polygon fill="#181818" points="859.123,434.1523,849.123,438.1523,859.123,442.1523,855.123,438.1523" style="stroke:#181818;stroke-width:1.0;"/><line style="stroke:#181818;stroke-width:1.0;stroke-dasharray:2.0,2.0;" x1="853.123" x2="1458.1738" y1="438.1523" y2="438.1523"/><text fill="#000000" font-family="sans-serif" font-size="13" font-weight="bold" lengthAdjust="spacing" textLength="14.46" x="865.123" y="432.8896">10</text><text fill="#000000" font-family="sans-serif" font-size="13" lengthAdjust="spacing" textLength="58.5317" x="883.583" y="432.8896">stationList</text><polygon fill="#181818" points="464.0845,465.4434,454.0845,469.4434,464.0845,473.4434,460.0845,469.4434" style="stroke:#181818;stroke-width:1.0;"/><line style="stroke:#181818;stroke-width:1.0;stroke-dasharray:2.0,2.0;" x1="458.0845" x2="842.123" y1="469.4434" y2="469.4434"/><text fill="#000000" font-family="sans-serif" font-size="13" font-weight="bold" lengthAdjust="spacing" textLength="14.46" x="470.0845" y="464.1807">11</text><text fill="#000000" font-family="sans-serif" font-size="13" lengthAdjust="spacing" textLength="58.5317" x="488.5444" y="464.1807">stationList</text><polygon fill="#181818" points="43.8413,496.7344,33.8413,500.7344,43.8413,504.7344,39.8413,500.7344" style="stroke:#181818;stroke-width:1.0;"/><line style="stroke:#181818;stroke-width:1.0;stroke-dasharray:2.0,2.0;" x1="37.8413" x2="447.0845" y1="500.7344" y2="500.7344"/><text fill="#000000" font-family="sans-serif" font-size="13" font-weight="bold" lengthAdjust="spacing" textLength="14.46" x="49.8413" y="495.4717">12</text><text fill="#000000" font-family="sans-serif" font-size="13" lengthAdjust="spacing" textLength="336.0132" x="68.3013" y="495.4717">shows available stations and asks to select starting station</text><polygon fill="#181818" points="431.0845,528.0254,441.0845,532.0254,431.0845,536.0254,435.0845,532.0254" style="stroke:#181818;stroke-width:1.0;"/><line style="stroke:#181818;stroke-width:1.0;" x1="32.8413" x2="437.0845" y1="532.0254" y2="532.0254"/><text fill="#000000" font-family="sans-serif" font-size="13" font-weight="bold" lengthAdjust="spacing" textLength="14.46" x="39.8413" y="526.7627">13</text><text fill="#000000" font-family="sans-serif" font-size="13" lengthAdjust="spacing" textLength="128.6162" x="58.3013" y="526.7627">selects starting station</text><line style="stroke:#181818;stroke-width:1.0;" x1="453.0845" x2="495.0845" y1="563.3164" y2="563.3164"/><line style="stroke:#181818;stroke-width:1.0;" x1="495.0845" x2="495.0845" y1="563.3164" y2="576.3164"/><line style="stroke:#181818;stroke-width:1.0;" x1="454.0845" x2="495.0845" y1="576.3164" y2="576.3164"/><polygon fill="#181818" points="464.0845,572.3164,454.0845,576.3164,464.0845,580.3164,460.0845,576.3164" style="stroke:#181818;stroke-width:1.0;"/><text fill="#000000" font-family="sans-serif" font-size="13" font-weight="bold" lengthAdjust="spacing" textLength="14.46" x="460.0845" y="558.0537">14</text><text fill="#000000" font-family="sans-serif" font-size="13" lengthAdjust="spacing" textLength="220.3906" x="478.5444" y="558.0537">saveSelectedStartStation(startStation)</text><polygon fill="#181818" points="826.123,603.6074,836.123,607.6074,826.123,611.6074,830.123,607.6074" style="stroke:#181818;stroke-width:1.0;"/><line style="stroke:#181818;stroke-width:1.0;" x1="453.0845" x2="832.123" y1="607.6074" y2="607.6074"/><text fill="#000000" font-family="sans-serif" font-size="13" font-weight="bold" lengthAdjust="spacing" textLength="14.46" x="460.0845" y="602.3447">15</text><text fill="#000000" font-family="sans-serif" font-size="13" lengthAdjust="spacing" textLength="215.3442" x="478.5444" y="602.3447">getAvailableEndStations(startStation)</text><polygon fill="#181818" points="1442.1738,634.8984,1452.1738,638.8984,1442.1738,642.8984,1446.1738,638.8984" style="stroke:#181818;stroke-width:1.0;"/><line style="stroke:#181818;stroke-width:1.0;" x1="848.123" x2="1448.1738" y1="638.8984" y2="638.8984"/><text fill="#000000" font-family="sans-serif" font-size="13" font-weight="bold" lengthAdjust="spacing" textLength="14.46" x="855.123" y="633.6357">16</text><text fill="#000000" font-family="sans-serif" font-size="13" lengthAdjust="spacing" textLength="211.7261" x="873.583" y="633.6357">getPossibleEndStations(startStation)</text><polygon fill="#181818" points="859.123,666.1895,849.123,670.1895,859.123,674.1895,855.123,670.1895" style="stroke:#181818;stroke-width:1.0;"/><line style="stroke:#181818;stroke-width:1.0;stroke-dasharray:2.0,2.0;" x1="853.123" x2="1458.1738" y1="670.1895" y2="670.1895"/><text fill="#000000" font-family="sans-serif" font-size="13" font-weight="bold" lengthAdjust="spacing" textLength="14.46" x="865.123" y="664.9268">17</text><text fill="#000000" font-family="sans-serif" font-size="13" lengthAdjust="spacing" textLength="58.5317" x="883.583" y="664.9268">stationList</text><polygon fill="#181818" points="464.0845,697.4805,454.0845,701.4805,464.0845,705.4805,460.0845,701.4805" style="stroke:#181818;stroke-width:1.0;"/><line style="stroke:#181818;stroke-width:1.0;stroke-dasharray:2.0,2.0;" x1="458.0845" x2="842.123" y1="701.4805" y2="701.4805"/><text fill="#000000" font-family="sans-serif" font-size="13" font-weight="bold" lengthAdjust="spacing" textLength="14.46" x="470.0845" y="696.2178">18</text><text fill="#000000" font-family="sans-serif" font-size="13" lengthAdjust="spacing" textLength="58.5317" x="488.5444" y="696.2178">stationList</text><polygon fill="#181818" points="43.8413,728.7715,33.8413,732.7715,43.8413,736.7715,39.8413,732.7715" style="stroke:#181818;stroke-width:1.0;"/><line style="stroke:#181818;stroke-width:1.0;stroke-dasharray:2.0,2.0;" x1="37.8413" x2="447.0845" y1="732.7715" y2="732.7715"/><text fill="#000000" font-family="sans-serif" font-size="13" font-weight="bold" lengthAdjust="spacing" textLength="14.46" x="49.8413" y="727.5088">19</text><text fill="#000000" font-family="sans-serif" font-size="13" lengthAdjust="spacing" textLength="206.6797" x="68.3013" y="727.5088">shows available destination stations</text><polygon fill="#181818" points="431.0845,760.0625,441.0845,764.0625,431.0845,768.0625,435.0845,764.0625" style="stroke:#181818;stroke-width:1.0;"/><line style="stroke:#181818;stroke-width:1.0;" x1="32.8413" x2="437.0845" y1="764.0625" y2="764.0625"/><text fill="#000000" font-family="sans-serif" font-size="13" font-weight="bold" lengthAdjust="spacing" textLength="14.46" x="39.8413" y="758.7998">20</text><text fill="#000000" font-family="sans-serif" font-size="13" lengthAdjust="spacing" textLength="148.8652" x="58.3013" y="758.7998">selects destination station</text><line style="stroke:#181818;stroke-width:1.0;" x1="453.0845" x2="495.0845" y1="795.3535" y2="795.3535"/><line style="stroke:#181818;stroke-width:1.0;" x1="495.0845" x2="495.0845" y1="795.3535" y2="808.3535"/><line style="stroke:#181818;stroke-width:1.0;" x1="454.0845" x2="495.0845" y1="808.3535" y2="808.3535"/><polygon fill="#181818" points="464.0845,804.3535,454.0845,808.3535,464.0845,812.3535,460.0845,808.3535" style="stroke:#181818;stroke-width:1.0;"/><text fill="#000000" font-family="sans-serif" font-size="13" font-weight="bold" lengthAdjust="spacing" textLength="14.46" x="460.0845" y="790.0908">21</text><text fill="#000000" font-family="sans-serif" font-size="13" lengthAdjust="spacing" textLength="212.4751" x="478.5444" y="790.0908">saveSelectedEndStation(endStation)</text><polygon fill="#181818" points="826.123,835.6445,836.123,839.6445,826.123,843.6445,830.123,839.6445" style="stroke:#181818;stroke-width:1.0;"/><line style="stroke:#181818;stroke-width:1.0;" x1="453.0845" x2="832.123" y1="839.6445" y2="839.6445"/><text fill="#000000" font-family="sans-serif" font-size="13" font-weight="bold" lengthAdjust="spacing" textLength="14.46" x="460.0845" y="834.3818">22</text><text fill="#000000" font-family="sans-serif" font-size="13" lengthAdjust="spacing" textLength="271.7114" x="478.5444" y="834.3818">calculatePathAndCost(startStation, endStation)</text><polygon fill="#181818" points="2036.2539,866.9355,2046.2539,870.9355,2036.2539,874.9355,2040.2539,870.9355" style="stroke:#181818;stroke-width:1.0;"/><line style="stroke:#181818;stroke-width:1.0;" x1="848.123" x2="2042.2539" y1="870.9355" y2="870.9355"/><text fill="#000000" font-family="sans-serif" font-size="13" font-weight="bold" lengthAdjust="spacing" textLength="14.46" x="855.123" y="865.6729">23</text><text fill="#000000" font-family="sans-serif" font-size="13" lengthAdjust="spacing" textLength="191.5024" x="873.583" y="865.6729">findPath(startStation, endStation)</text><polygon fill="#181818" points="859.123,898.2266,849.123,902.2266,859.123,906.2266,855.123,902.2266" style="stroke:#181818;stroke-width:1.0;"/><line style="stroke:#181818;stroke-width:1.0;stroke-dasharray:2.0,2.0;" x1="853.123" x2="2052.2539" y1="902.2266" y2="902.2266"/><text fill="#000000" font-family="sans-serif" font-size="13" font-weight="bold" lengthAdjust="spacing" textLength="14.46" x="865.123" y="896.9639">24</text><text fill="#000000" font-family="sans-serif" font-size="13" lengthAdjust="spacing" textLength="25.3018" x="883.583" y="896.9639">path</text><polygon fill="#181818" points="2266.7461,929.5176,2276.7461,933.5176,2266.7461,937.5176,2270.7461,933.5176" style="stroke:#181818;stroke-width:1.0;"/><line style="stroke:#181818;stroke-width:1.0;" x1="848.123" x2="2272.7461" y1="933.5176" y2="933.5176"/><text fill="#000000" font-family="sans-serif" font-size="13" font-weight="bold" lengthAdjust="spacing" textLength="14.46" x="855.123" y="928.2549">25</text><text fill="#000000" font-family="sans-serif" font-size="13" lengthAdjust="spacing" textLength="184.9771" x="873.583" y="928.2549">calculateConstructionCost(path)</text><polygon fill="#181818" points="859.123,960.8086,849.123,964.8086,859.123,968.8086,855.123,964.8086" style="stroke:#181818;stroke-width:1.0;"/><line style="stroke:#181818;stroke-width:1.0;stroke-dasharray:2.0,2.0;" x1="853.123" x2="2282.7461" y1="964.8086" y2="964.8086"/><text fill="#000000" font-family="sans-serif" font-size="13" font-weight="bold" lengthAdjust="spacing" textLength="14.46" x="865.123" y="959.5459">26</text><text fill="#000000" font-family="sans-serif" font-size="13" lengthAdjust="spacing" textLength="23.8418" x="883.583" y="959.5459">cost</text><polygon fill="#181818" points="464.0845,992.0996,454.0845,996.0996,464.0845,1000.0996,460.0845,996.0996" style="stroke:#181818;stroke-width:1.0;"/><line style="stroke:#181818;stroke-width:1.0;stroke-dasharray:2.0,2.0;" x1="458.0845" x2="842.123" y1="996.0996" y2="996.0996"/><text fill="#000000" font-family="sans-serif" font-size="13" font-weight="bold" lengthAdjust="spacing" textLength="14.46" x="470.0845" y="990.8369">27</text><text fill="#000000" font-family="sans-serif" font-size="13" lengthAdjust="spacing" textLength="56.3672" x="488.5444" y="990.8369">path, cost</text><polygon fill="#181818" points="43.8413,1023.3906,33.8413,1027.3906,43.8413,1031.3906,39.8413,1027.3906" style="stroke:#181818;stroke-width:1.0;"/><line style="stroke:#181818;stroke-width:1.0;stroke-dasharray:2.0,2.0;" x1="37.8413" x2="447.0845" y1="1027.3906" y2="1027.3906"/><text fill="#000000" font-family="sans-serif" font-size="13" font-weight="bold" lengthAdjust="spacing" textLength="14.46" x="49.8413" y="1022.1279">28</text><text fill="#000000" font-family="sans-serif" font-size="13" lengthAdjust="spacing" textLength="367.7832" x="68.3013" y="1022.1279">shows path preview and construction cost, asks for confirmation</text><polygon fill="#181818" points="431.0845,1054.6816,441.0845,1058.6816,431.0845,1062.6816,435.0845,1058.6816" style="stroke:#181818;stroke-width:1.0;"/><line style="stroke:#181818;stroke-width:1.0;" x1="32.8413" x2="437.0845" y1="1058.6816" y2="1058.6816"/><text fill="#000000" font-family="sans-serif" font-size="13" font-weight="bold" lengthAdjust="spacing" textLength="14.46" x="39.8413" y="1053.4189">29</text><text fill="#000000" font-family="sans-serif" font-size="13" lengthAdjust="spacing" textLength="122.8208" x="58.3013" y="1053.4189">confirms construction</text><polygon fill="#181818" points="826.123,1085.9727,836.123,1089.9727,826.123,1093.9727,830.123,1089.9727" style="stroke:#181818;stroke-width:1.0;"/><line style="stroke:#181818;stroke-width:1.0;" x1="453.0845" x2="832.123" y1="1089.9727" y2="1089.9727"/><text fill="#000000" font-family="sans-serif" font-size="13" font-weight="bold" lengthAdjust="spacing" textLength="14.46" x="460.0845" y="1084.71">30</text><text fill="#000000" font-family="sans-serif" font-size="13" lengthAdjust="spacing" textLength="347.5786" x="478.5444" y="1084.71">buildRailwayLine(player, startStation, endStation, path, cost)</text><polygon fill="#181818" points="1187.1953,1117.2637,1197.1953,1121.2637,1187.1953,1125.2637,1191.1953,1121.2637" style="stroke:#181818;stroke-width:1.0;"/><line style="stroke:#181818;stroke-width:1.0;" x1="848.123" x2="1193.1953" y1="1121.2637" y2="1121.2637"/><text fill="#000000" font-family="sans-serif" font-size="13" font-weight="bold" lengthAdjust="spacing" textLength="14.46" x="855.123" y="1116.001">31</text><text fill="#000000" font-family="sans-serif" font-size="13" lengthAdjust="spacing" textLength="143.0635" x="873.583" y="1116.001">hasSufficientFunds(cost)</text><polygon fill="#181818" points="859.123,1148.5547,849.123,1152.5547,859.123,1156.5547,855.123,1152.5547" style="stroke:#181818;stroke-width:1.0;"/><line style="stroke:#181818;stroke-width:1.0;stroke-dasharray:2.0,2.0;" x1="853.123" x2="1203.1953" y1="1152.5547" y2="1152.5547"/><text fill="#000000" font-family="sans-serif" font-size="13" font-weight="bold" lengthAdjust="spacing" textLength="14.46" x="865.123" y="1147.292">32</text><text fill="#000000" font-family="sans-serif" font-size="13" lengthAdjust="spacing" textLength="22.4009" x="883.583" y="1147.292">true</text><polygon fill="#181818" points="1187.1953,1179.8457,1197.1953,1183.8457,1187.1953,1187.8457,1191.1953,1183.8457" style="stroke:#181818;stroke-width:1.0;"/><line style="stroke:#181818;stroke-width:1.0;" x1="848.123" x2="1193.1953" y1="1183.8457" y2="1183.8457"/><text fill="#000000" font-family="sans-serif" font-size="13" font-weight="bold" lengthAdjust="spacing" textLength="14.46" x="855.123" y="1178.583">33</text><text fill="#000000" font-family="sans-serif" font-size="13" lengthAdjust="spacing" textLength="313.6123" x="873.583" y="1178.583">createRailwayLine(startStation, endStation, path, cost)</text><polygon fill="#181818" points="2447.3594,1211.1367,2457.3594,1215.1367,2447.3594,1219.1367,2451.3594,1215.1367" style="stroke:#181818;stroke-width:1.0;"/><line style="stroke:#181818;stroke-width:1.0;stroke-dasharray:2.0,2.0;" x1="1209.1953" x2="2453.3594" y1="1215.1367" y2="1215.1367"/><text fill="#000000" font-family="sans-serif" font-size="13" font-weight="bold" lengthAdjust="spacing" textLength="14.46" x="1216.1953" y="1209.874">34</text><text fill="#000000" font-family="sans-serif" font-size="13" lengthAdjust="spacing" textLength="243.5215" x="1234.6553" y="1209.874">create(startStation, endStation, path, cost)</text><rect fill="#E3E3E3" height="32.6211" rx="2.5" ry="2.5" style="stroke:#181818;stroke-width:0.5;" width="163.4063" x="2459.3594" y="1191.8457"/><text fill="#000000" font-family="sans-serif" font-size="14" lengthAdjust="spacing" textLength="149.4063" x="2466.3594" y="1213.9531">railwayLine:RailwayLine</text><polygon fill="#181818" points="2524.0625,1254.7578,2534.0625,1258.7578,2524.0625,1262.7578,2528.0625,1258.7578" style="stroke:#181818;stroke-width:1.0;"/><line style="stroke:#181818;stroke-width:1.0;" x1="1209.1953" x2="2530.0625" y1="1258.7578" y2="1258.7578"/><text fill="#000000" font-family="sans-serif" font-size="13" font-weight="bold" lengthAdjust="spacing" textLength="14.46" x="1216.1953" y="1253.4951">35</text><text fill="#000000" font-family="sans-serif" font-size="13" lengthAdjust="spacing" textLength="80.9263" x="1234.6553" y="1253.4951">validateData()</text><polygon fill="#181818" points="1220.1953,1286.0488,1210.1953,1290.0488,1220.1953,1294.0488,1216.1953,1290.0488" style="stroke:#181818;stroke-width:1.0;"/><line style="stroke:#181818;stroke-width:1.0;stroke-dasharray:2.0,2.0;" x1="1214.1953" x2="2540.0625" y1="1290.0488" y2="1290.0488"/><text fill="#000000" font-family="sans-serif" font-size="13" font-weight="bold" lengthAdjust="spacing" textLength="14.46" x="1226.1953" y="1284.7861">36</text><text fill="#000000" font-family="sans-serif" font-size="13" lengthAdjust="spacing" textLength="91.7744" x="1244.6553" y="1284.7861">validationResult</text><polygon fill="#181818" points="859.123,1317.3398,849.123,1321.3398,859.123,1325.3398,855.123,1321.3398" style="stroke:#181818;stroke-width:1.0;"/><line style="stroke:#181818;stroke-width:1.0;stroke-dasharray:2.0,2.0;" x1="853.123" x2="1203.1953" y1="1321.3398" y2="1321.3398"/><text fill="#000000" font-family="sans-serif" font-size="13" font-weight="bold" lengthAdjust="spacing" textLength="14.46" x="865.123" y="1316.0771">37</text><text fill="#000000" font-family="sans-serif" font-size="13" lengthAdjust="spacing" textLength="65.0317" x="883.583" y="1316.0771">railwayLine</text><polygon fill="#181818" points="2266.7461,1348.6309,2276.7461,1352.6309,2266.7461,1356.6309,2270.7461,1352.6309" style="stroke:#181818;stroke-width:1.0;"/><line style="stroke:#181818;stroke-width:1.0;" x1="848.123" x2="2272.7461" y1="1352.6309" y2="1352.6309"/><text fill="#000000" font-family="sans-serif" font-size="13" font-weight="bold" lengthAdjust="spacing" textLength="14.46" x="855.123" y="1347.3682">38</text><text fill="#000000" font-family="sans-serif" font-size="13" lengthAdjust="spacing" textLength="188.5889" x="873.583" y="1347.3682">validateRailwayLine(railwayLine)</text><polygon fill="#181818" points="859.123,1379.9219,849.123,1383.9219,859.123,1387.9219,855.123,1383.9219" style="stroke:#181818;stroke-width:1.0;"/><line style="stroke:#181818;stroke-width:1.0;stroke-dasharray:2.0,2.0;" x1="853.123" x2="2282.7461" y1="1383.9219" y2="1383.9219"/><text fill="#000000" font-family="sans-serif" font-size="13" font-weight="bold" lengthAdjust="spacing" textLength="14.46" x="865.123" y="1378.6592">39</text><text fill="#000000" font-family="sans-serif" font-size="13" lengthAdjust="spacing" textLength="91.7744" x="883.583" y="1378.6592">validationResult</text><polygon fill="#181818" points="2695.9102,1411.2129,2705.9102,1415.2129,2695.9102,1419.2129,2699.9102,1415.2129" style="stroke:#181818;stroke-width:1.0;"/><line style="stroke:#181818;stroke-width:1.0;" x1="848.123" x2="2701.9102" y1="1415.2129" y2="1415.2129"/><text fill="#000000" font-family="sans-serif" font-size="13" font-weight="bold" lengthAdjust="spacing" textLength="14.46" x="855.123" y="1409.9502">40</text><text fill="#000000" font-family="sans-serif" font-size="13" lengthAdjust="spacing" textLength="171.2407" x="873.583" y="1409.9502">saveRailwayLine(railwayLine)</text><polygon fill="#181818" points="859.123,1442.5039,849.123,1446.5039,859.123,1450.5039,855.123,1446.5039" style="stroke:#181818;stroke-width:1.0;"/><line style="stroke:#181818;stroke-width:1.0;stroke-dasharray:2.0,2.0;" x1="853.123" x2="2711.9102" y1="1446.5039" y2="1446.5039"/><text fill="#000000" font-family="sans-serif" font-size="13" font-weight="bold" lengthAdjust="spacing" textLength="14.46" x="865.123" y="1441.2412">41</text><text fill="#000000" font-family="sans-serif" font-size="13" lengthAdjust="spacing" textLength="46.96" x="883.583" y="1441.2412">success</text><polygon fill="#181818" points="1187.1953,1473.7949,1197.1953,1477.7949,1187.1953,1481.7949,1191.1953,1477.7949" style="stroke:#181818;stroke-width:1.0;"/><line style="stroke:#181818;stroke-width:1.0;" x1="848.123" x2="1193.1953" y1="1477.7949" y2="1477.7949"/><text fill="#000000" font-family="sans-serif" font-size="13" font-weight="bold" lengthAdjust="spacing" textLength="14.46" x="855.123" y="1472.5322">42</text><text fill="#000000" font-family="sans-serif" font-size="13" lengthAdjust="spacing" textLength="107.6626" x="873.583" y="1472.5322">deductFunds(cost)</text><polygon fill="#181818" points="859.123,1505.0859,849.123,1509.0859,859.123,1513.0859,855.123,1509.0859" style="stroke:#181818;stroke-width:1.0;"/><line style="stroke:#181818;stroke-width:1.0;stroke-dasharray:2.0,2.0;" x1="853.123" x2="1203.1953" y1="1509.0859" y2="1509.0859"/><text fill="#000000" font-family="sans-serif" font-size="13" font-weight="bold" lengthAdjust="spacing" textLength="14.46" x="865.123" y="1503.8232">43</text><text fill="#000000" font-family="sans-serif" font-size="13" lengthAdjust="spacing" textLength="83.1226" x="883.583" y="1503.8232">updatedFunds</text><polygon fill="#181818" points="464.0845,1536.377,454.0845,1540.377,464.0845,1544.377,460.0845,1540.377" style="stroke:#181818;stroke-width:1.0;"/><line style="stroke:#181818;stroke-width:1.0;stroke-dasharray:2.0,2.0;" x1="458.0845" x2="842.123" y1="1540.377" y2="1540.377"/><text fill="#000000" font-family="sans-serif" font-size="13" font-weight="bold" lengthAdjust="spacing" textLength="14.46" x="470.0845" y="1535.1143">44</text><text fill="#000000" font-family="sans-serif" font-size="13" lengthAdjust="spacing" textLength="46.96" x="488.5444" y="1535.1143">success</text><polygon fill="#181818" points="38.8413,1567.668,28.8413,1571.668,38.8413,1575.668,34.8413,1571.668" style="stroke:#181818;stroke-width:1.0;"/><line style="stroke:#181818;stroke-width:1.0;stroke-dasharray:2.0,2.0;" x1="32.8413" x2="447.0845" y1="1571.668" y2="1571.668"/><text fill="#000000" font-family="sans-serif" font-size="13" font-weight="bold" lengthAdjust="spacing" textLength="14.46" x="44.8413" y="1566.4053">45</text><text fill="#000000" font-family="sans-serif" font-size="13" lengthAdjust="spacing" textLength="155.3589" x="63.3013" y="1566.4053">displays operation success</text><!--SRC=[tLVBRjiw4DthAuYidC81xh8mYWAkhRG6tCImd09T1On4sqHeIYKf1_dx3gc7HvIKA-NURgf5O4Hp3eSpPnxIprncLD4JEQKoZOygFJ5YLCu2NR_9QFnC3omohu8HnM93vK5W0tsaIVh2vO7igT0i20mtO1gnNpcJCIDBJW_MRX8jhyaDUOZ- -KY-v5maP4kvUA6lPCqbWpUtkH11G7EJolpqn1JyZasgoDL6q5UchWZLPBEU_mot0PniUCmpAWsvcZcsainoFQoSxSFgN-mMgJGg5QBaNkosQm_nbPvOnBJcgNGcKHX5g_kxfbNct9krl7nShETHrC6uPLcgELpjrLb_dNyFj-7cthEC33LmhcSSxUOxyA1jhmlpDTTcPlzyAl6VCMozYdOjc3AbQNLaXTZk7ajS4yDaqeK8xvRTzhCDDSTRBXEc8gREF6P5bEQxRxUhkwMVpmoi7QIsykXG2Z7VUdKNHk7snseHDW5n2Z7vdafMX71nxmT1NGWnUStQVxwN7MliKcEboy_Ki4gn0O6d-4rkFeCsoGog2Kf46qrCIfvSHL1Ika84a3jCJGHo9kK3QE2mUWMM0pEBN2acJQ70oNLjLsETj0bw71OuIa4NDElqS639IhPu6bnL3H3lgQXkBguLbT6mJDYRH8LVLO0yFCAw2_N6Otw6AD8dmKfvwb4ngUgnu6gLOLzSwZBs0rFpeSXedxKlI9siTVOkpQ2yk10TLswc3pMGLWeHNzjPsrLwSzd3sind5z6RIGLWMJC0FgOlcj0gjHKP_4j2uUXdLqQQ2HXHn7KrEv9Aey0x2Mgfgo0BjEw6znTYWQLdw4OMpsnth9lg17VOwm6Q3UlkgZtiYBBsXR59OOWD8lyxnP90d-NI4TR26IcA3egnkhX4VtAPeNsQYAc8Sm74TXJEPRA0ATR8sPHWak7YkCnTE6KFOzaUC82vmOw6joyCn8zd0HpI9mX4rkanckmuCB2_QTXMO-kcYuuzeyTVl1pu3cDwvB5T6_eyxgFpvXVuCstoZ5ImPI2POcVENboZYz6T7VEqw7rxM9JXtPwhqvYELq9qWtVOtl7aRTEJObfFIP-IfYWUe_IAjcauzqXrbE_ti8x1odERoqHFcenDdU9LlALKp8moxpw1-hIA2OVu6oi6E1oeSG7w3zUnAltmeVRX7GUtQGjMu3nJmHDWNL939srKerHQRwkoGvgl0rOIk_L8vyAqm5uT3auhMlFVdzrcBwg2WDEBZld_cj6RGUbfJBt-btk17KtZ7UzS1cfMl0daSGpVpczvMdmh3IYYX2NGc_vCjUUPpM3YoD-hYthQUtSUtEuJhct_r2JDc2gN3CJbTVAMPy5l]--></g></svg>