<svg xmlns="http://www.w3.org/2000/svg" xmlns:xlink="http://www.w3.org/1999/xlink" contentStyleType="text/css" height="356px" preserveAspectRatio="none" style="width:1221px;height:356px;background:#FFFFFF;" version="1.1" viewBox="0 0 1221 356" width="1221px" zoomAndPan="magnify"><title>US08 - Calculate Path and Cost - Partial Sequence Diagram</title><defs/><g><text fill="#000000" font-family="sans-serif" font-size="14" font-weight="bold" lengthAdjust="spacing" textLength="392.8955" x="413.5027" y="30.1074">US08 - Calculate Path and Cost - Partial Sequence Diagram</text><rect fill="#FFFFFF" height="189.7461" style="stroke:#181818;stroke-width:1.0;" width="10" x="364.9629" y="111.5332"/><rect fill="#FFFFFF" height="31.291" style="stroke:#181818;stroke-width:1.0;" width="10" x="814.7954" y="169.1152"/><rect fill="#FFFFFF" height="31.291" style="stroke:#181818;stroke-width:1.0;" width="10" x="1045.2876" y="231.6973"/><rect fill="none" height="144.4551" style="stroke:#000000;stroke-width:1.5;" width="862.9482" x="267.3667" y="126.5332"/><line style="stroke:#181818;stroke-width:0.5;stroke-dasharray:5.0,5.0;" x1="74" x2="74" y1="78.2422" y2="319.2793"/><line style="stroke:#181818;stroke-width:0.5;stroke-dasharray:5.0,5.0;" x1="369.3667" x2="369.3667" y1="78.2422" y2="319.2793"/><line style="stroke:#181818;stroke-width:0.5;stroke-dasharray:5.0,5.0;" x1="538.5591" x2="538.5591" y1="78.2422" y2="319.2793"/><line style="stroke:#181818;stroke-width:0.5;stroke-dasharray:5.0,5.0;" x1="678.8481" x2="678.8481" y1="78.2422" y2="319.2793"/><line style="stroke:#181818;stroke-width:0.5;stroke-dasharray:5.0,5.0;" x1="819.2681" x2="819.2681" y1="78.2422" y2="319.2793"/><line style="stroke:#181818;stroke-width:0.5;stroke-dasharray:5.0,5.0;" x1="932.3228" x2="932.3228" y1="78.2422" y2="319.2793"/><line style="stroke:#181818;stroke-width:0.5;stroke-dasharray:5.0,5.0;" x1="1050.2603" x2="1050.2603" y1="78.2422" y2="319.2793"/><line style="stroke:#181818;stroke-width:0.5;stroke-dasharray:5.0,5.0;" x1="1172.3149" x2="1172.3149" y1="78.2422" y2="319.2793"/><rect fill="#E3E3E3" height="32.6211" rx="2.5" ry="2.5" style="stroke:#181818;stroke-width:0.5;" width="138.5029" x="5" y="44.6211"/><text fill="#000000" font-family="sans-serif" font-size="14" lengthAdjust="spacing" textLength="124.5029" x="12" y="66.7285">:BuildRailwayLineUI</text><rect fill="#E3E3E3" height="32.6211" rx="2.5" ry="2.5" style="stroke:#181818;stroke-width:0.5;" width="138.5029" x="5" y="318.2793"/><text fill="#000000" font-family="sans-serif" font-size="14" lengthAdjust="spacing" textLength="124.5029" x="12" y="340.3867">:BuildRailwayLineUI</text><rect fill="#E3E3E3" height="32.6211" rx="2.5" ry="2.5" style="stroke:#181818;stroke-width:0.5;" width="185.1924" x="277.3667" y="44.6211"/><text fill="#000000" font-family="sans-serif" font-size="14" lengthAdjust="spacing" textLength="171.1924" x="284.3667" y="66.7285">:BuildRailwayLineController</text><rect fill="#E3E3E3" height="32.6211" rx="2.5" ry="2.5" style="stroke:#181818;stroke-width:0.5;" width="185.1924" x="277.3667" y="318.2793"/><text fill="#000000" font-family="sans-serif" font-size="14" lengthAdjust="spacing" textLength="171.1924" x="284.3667" y="340.3867">:BuildRailwayLineController</text><rect fill="#E3E3E3" height="32.6211" rx="2.5" ry="2.5" style="stroke:#181818;stroke-width:0.5;" width="132.2891" x="472.5591" y="44.6211"/><text fill="#000000" font-family="sans-serif" font-size="14" lengthAdjust="spacing" textLength="118.2891" x="479.5591" y="66.7285">startStation:Station</text><rect fill="#E3E3E3" height="32.6211" rx="2.5" ry="2.5" style="stroke:#181818;stroke-width:0.5;" width="132.2891" x="472.5591" y="318.2793"/><text fill="#000000" font-family="sans-serif" font-size="14" lengthAdjust="spacing" textLength="118.2891" x="479.5591" y="340.3867">startStation:Station</text><rect fill="#E3E3E3" height="32.6211" rx="2.5" ry="2.5" style="stroke:#181818;stroke-width:0.5;" width="128.4199" x="614.8481" y="44.6211"/><text fill="#000000" font-family="sans-serif" font-size="14" lengthAdjust="spacing" textLength="114.4199" x="621.8481" y="66.7285">endStation:Station</text><rect fill="#E3E3E3" height="32.6211" rx="2.5" ry="2.5" style="stroke:#181818;stroke-width:0.5;" width="128.4199" x="614.8481" y="318.2793"/><text fill="#000000" font-family="sans-serif" font-size="14" lengthAdjust="spacing" textLength="114.4199" x="621.8481" y="340.3867">endStation:Station</text><rect fill="#E3E3E3" height="32.6211" rx="2.5" ry="2.5" style="stroke:#181818;stroke-width:0.5;" width="133.0547" x="753.2681" y="44.6211"/><text fill="#000000" font-family="sans-serif" font-size="14" lengthAdjust="spacing" textLength="119.0547" x="760.2681" y="66.7285">:PathFinderService</text><rect fill="#E3E3E3" height="32.6211" rx="2.5" ry="2.5" style="stroke:#181818;stroke-width:0.5;" width="133.0547" x="753.2681" y="318.2793"/><text fill="#000000" font-family="sans-serif" font-size="14" lengthAdjust="spacing" textLength="119.0547" x="760.2681" y="340.3867">:PathFinderService</text><rect fill="#E3E3E3" height="32.6211" rx="2.5" ry="2.5" style="stroke:#181818;stroke-width:0.5;" width="73.9375" x="896.3228" y="44.6211"/><text fill="#000000" font-family="sans-serif" font-size="14" lengthAdjust="spacing" textLength="59.9375" x="903.3228" y="66.7285">path:Path</text><rect fill="#E3E3E3" height="32.6211" rx="2.5" ry="2.5" style="stroke:#181818;stroke-width:0.5;" width="73.9375" x="896.3228" y="318.2793"/><text fill="#000000" font-family="sans-serif" font-size="14" lengthAdjust="spacing" textLength="59.9375" x="903.3228" y="340.3867">path:Path</text><rect fill="#E3E3E3" height="32.6211" rx="2.5" ry="2.5" style="stroke:#181818;stroke-width:0.5;" width="140.0547" x="980.2603" y="44.6211"/><text fill="#000000" font-family="sans-serif" font-size="14" lengthAdjust="spacing" textLength="126.0547" x="987.2603" y="66.7285">:RailwayLineService</text><rect fill="#E3E3E3" height="32.6211" rx="2.5" ry="2.5" style="stroke:#181818;stroke-width:0.5;" width="140.0547" x="980.2603" y="318.2793"/><text fill="#000000" font-family="sans-serif" font-size="14" lengthAdjust="spacing" textLength="126.0547" x="987.2603" y="340.3867">:RailwayLineService</text><rect fill="#E3E3E3" height="32.6211" rx="2.5" ry="2.5" style="stroke:#181818;stroke-width:0.5;" width="85.5859" x="1130.3149" y="44.6211"/><text fill="#000000" font-family="sans-serif" font-size="14" lengthAdjust="spacing" textLength="71.5859" x="1137.3149" y="66.7285">cost:Money</text><rect fill="#E3E3E3" height="32.6211" rx="2.5" ry="2.5" style="stroke:#181818;stroke-width:0.5;" width="85.5859" x="1130.3149" y="318.2793"/><text fill="#000000" font-family="sans-serif" font-size="14" lengthAdjust="spacing" textLength="71.5859" x="1137.3149" y="340.3867">cost:Money</text><rect fill="#FFFFFF" height="189.7461" style="stroke:#181818;stroke-width:1.0;" width="10" x="364.9629" y="111.5332"/><rect fill="#FFFFFF" height="31.291" style="stroke:#181818;stroke-width:1.0;" width="10" x="814.7954" y="169.1152"/><rect fill="#FFFFFF" height="31.291" style="stroke:#181818;stroke-width:1.0;" width="10" x="1045.2876" y="231.6973"/><polygon fill="#181818" points="352.9629,107.5332,362.9629,111.5332,352.9629,115.5332,356.9629,111.5332" style="stroke:#181818;stroke-width:1.0;"/><line style="stroke:#181818;stroke-width:1.0;" x1="74.2515" x2="358.9629" y1="111.5332" y2="111.5332"/><text fill="#000000" font-family="sans-serif" font-size="13" lengthAdjust="spacing" textLength="271.7114" x="81.2515" y="106.2705">calculatePathAndCost(startStation, endStation)</text><path d="M267.3667,126.5332 L461.1748,126.5332 L461.1748,135.8242 L451.1748,145.8242 L267.3667,145.8242 L267.3667,126.5332 " fill="#EEEEEE" style="stroke:#000000;stroke-width:1.5;"/><rect fill="none" height="144.4551" style="stroke:#000000;stroke-width:1.5;" width="862.9482" x="267.3667" y="126.5332"/><text fill="#000000" font-family="sans-serif" font-size="13" font-weight="bold" lengthAdjust="spacing" textLength="148.8081" x="282.3667" y="141.5615">Calculate Path and Cost</text><polygon fill="#181818" points="802.7954,165.1152,812.7954,169.1152,802.7954,173.1152,806.7954,169.1152" style="stroke:#181818;stroke-width:1.0;"/><line style="stroke:#181818;stroke-width:1.0;" x1="374.9629" x2="808.7954" y1="169.1152" y2="169.1152"/><text fill="#000000" font-family="sans-serif" font-size="13" lengthAdjust="spacing" textLength="191.5024" x="381.9629" y="163.8525">findPath(startStation, endStation)</text><polygon fill="#181818" points="385.9629,196.4063,375.9629,200.4063,385.9629,204.4063,381.9629,200.4063" style="stroke:#181818;stroke-width:1.0;"/><line style="stroke:#181818;stroke-width:1.0;stroke-dasharray:2.0,2.0;" x1="379.9629" x2="818.7954" y1="200.4063" y2="200.4063"/><text fill="#000000" font-family="sans-serif" font-size="13" lengthAdjust="spacing" textLength="25.3018" x="391.9629" y="195.1436">path</text><polygon fill="#181818" points="1033.2876,227.6973,1043.2876,231.6973,1033.2876,235.6973,1037.2876,231.6973" style="stroke:#181818;stroke-width:1.0;"/><line style="stroke:#181818;stroke-width:1.0;" x1="374.9629" x2="1039.2876" y1="231.6973" y2="231.6973"/><text fill="#000000" font-family="sans-serif" font-size="13" lengthAdjust="spacing" textLength="184.9771" x="381.9629" y="226.4346">calculateConstructionCost(path)</text><polygon fill="#181818" points="385.9629,258.9883,375.9629,262.9883,385.9629,266.9883,381.9629,262.9883" style="stroke:#181818;stroke-width:1.0;"/><line style="stroke:#181818;stroke-width:1.0;stroke-dasharray:2.0,2.0;" x1="379.9629" x2="1049.2876" y1="262.9883" y2="262.9883"/><text fill="#000000" font-family="sans-serif" font-size="13" lengthAdjust="spacing" textLength="23.8418" x="391.9629" y="257.7256">cost</text><polygon fill="#181818" points="85.2515,297.2793,75.2515,301.2793,85.2515,305.2793,81.2515,301.2793" style="stroke:#181818;stroke-width:1.0;"/><line style="stroke:#181818;stroke-width:1.0;stroke-dasharray:2.0,2.0;" x1="79.2515" x2="368.9629" y1="301.2793" y2="301.2793"/><text fill="#000000" font-family="sans-serif" font-size="13" lengthAdjust="spacing" textLength="56.3672" x="91.2515" y="296.0166">path, cost</text><!--SRC=[XLFBReCm4Bpp5QkUMYcHUgmuL4e9KP7I90BIQxKo6sB5iQanYVBtjPsNYTAM0mXvPdPc5jeDbmrgtC9MISNMMcq9ZEueQYyd3R8DrbIOWo3Gn0pAMeI0TesLsdDPmmf5Ir5akB7GPV7y0aD8KB1Ee25Oe5a3oWeIrHfxia1jE0eewBiZoGZ676ih64MDEs6yGMdW8NxhkAXov6AFXocNjCmU05jOPl_W4YMDLaAGzlYapATzHcliMs7GS2NZqzD3YtAKbr_sNcRpMPz3ihh7I6VZ-_ZOfPvmMP4kIEyu8uzVZChtIJORftaVtbYqfrnGDt91lb1lcitI8iq_ioJj4vZjElvGaWx74kP56KNB38QllX28WPqNvCQEPEMsynXMCu1hwAS8cU4xjqxV9zYhrgfhVjkpH_X9Tk8rjPsxigKuw1-p7FSoBwWCJbUWDxm6SXrwI4Nto3r7GMzX5VRJQUrlm9mDtuVJlF4JLdus5Ce5ZjYvYC3HBTtcFZOP-BCATbN7H8EZIg3WC3y0]--></g></svg>