<svg xmlns="http://www.w3.org/2000/svg" xmlns:xlink="http://www.w3.org/1999/xlink" contentStyleType="text/css" height="650px" preserveAspectRatio="none" style="width:1806px;height:650px;background:#FFFFFF;" version="1.1" viewBox="0 0 1806 650" width="1806px" zoomAndPan="magnify"><title>US08 - Build Railway Line - Partial Sequence Diagram</title><defs/><g><text fill="#000000" font-family="sans-serif" font-size="14" font-weight="bold" lengthAdjust="spacing" textLength="356.3301" x="726.4731" y="30.1074">US08 - Build Railway Line - Partial Sequence Diagram</text><rect fill="#FFFFFF" height="483.6953" style="stroke:#181818;stroke-width:1.0;" width="10" x="440.8301" y="111.5332"/><rect fill="#FFFFFF" height="31.291" style="stroke:#181818;stroke-width:1.0;" width="10" x="783.4424" y="169.1152"/><rect fill="#FFFFFF" height="137.4941" style="stroke:#181818;stroke-width:1.0;" width="10" x="783.4424" y="231.6973"/><rect fill="#FFFFFF" height="31.291" style="stroke:#181818;stroke-width:1.0;" width="10" x="783.4424" y="525.6465"/><rect fill="#FFFFFF" height="31.291" style="stroke:#181818;stroke-width:1.0;" width="10" x="1383.2295" y="306.6094"/><rect fill="#FFFFFF" height="31.291" style="stroke:#181818;stroke-width:1.0;" width="10" x="1544.96" y="400.4824"/><rect fill="#FFFFFF" height="31.291" style="stroke:#181818;stroke-width:1.0;" width="10" x="1705.1318" y="463.0645"/><rect fill="none" height="438.4043" style="stroke:#000000;stroke-width:1.5;" width="1457.0425" x="343.2339" y="126.5332"/><line style="stroke:#181818;stroke-width:0.5;stroke-dasharray:5.0,5.0;" x1="74" x2="74" y1="78.2422" y2="613.2285"/><line style="stroke:#181818;stroke-width:0.5;stroke-dasharray:5.0,5.0;" x1="445.2339" x2="445.2339" y1="78.2422" y2="613.2285"/><line style="stroke:#181818;stroke-width:0.5;stroke-dasharray:5.0,5.0;" x1="787.5908" x2="787.5908" y1="78.2422" y2="613.2285"/><line style="stroke:#181818;stroke-width:0.5;stroke-dasharray:5.0,5.0;" x1="912.2939" x2="912.2939" y1="78.2422" y2="613.2285"/><line style="stroke:#181818;stroke-width:0.5;stroke-dasharray:5.0,5.0;" x1="1052.583" x2="1052.583" y1="78.2422" y2="613.2285"/><line style="stroke:#181818;stroke-width:0.5;stroke-dasharray:5.0,5.0;" x1="1163.0029" x2="1163.0029" y1="78.2422" y2="613.2285"/><line style="stroke:#181818;stroke-width:0.5;stroke-dasharray:5.0,5.0;" x1="1252.9404" x2="1252.9404" y1="78.2422" y2="613.2285"/><line style="stroke:#181818;stroke-width:0.5;stroke-dasharray:5.0,5.0;" x1="1387.5264" x2="1387.5264" y1="271.5078" y2="613.2285"/><line style="stroke:#181818;stroke-width:0.5;stroke-dasharray:5.0,5.0;" x1="1549.9326" x2="1549.9326" y1="78.2422" y2="613.2285"/><line style="stroke:#181818;stroke-width:0.5;stroke-dasharray:5.0,5.0;" x1="1709.9873" x2="1709.9873" y1="78.2422" y2="613.2285"/><rect fill="#E3E3E3" height="32.6211" rx="2.5" ry="2.5" style="stroke:#181818;stroke-width:0.5;" width="138.5029" x="5" y="44.6211"/><text fill="#000000" font-family="sans-serif" font-size="14" lengthAdjust="spacing" textLength="124.5029" x="12" y="66.7285">:BuildRailwayLineUI</text><rect fill="#E3E3E3" height="32.6211" rx="2.5" ry="2.5" style="stroke:#181818;stroke-width:0.5;" width="138.5029" x="5" y="612.2285"/><text fill="#000000" font-family="sans-serif" font-size="14" lengthAdjust="spacing" textLength="124.5029" x="12" y="634.3359">:BuildRailwayLineUI</text><rect fill="#E3E3E3" height="32.6211" rx="2.5" ry="2.5" style="stroke:#181818;stroke-width:0.5;" width="185.1924" x="353.2339" y="44.6211"/><text fill="#000000" font-family="sans-serif" font-size="14" lengthAdjust="spacing" textLength="171.1924" x="360.2339" y="66.7285">:BuildRailwayLineController</text><rect fill="#E3E3E3" height="32.6211" rx="2.5" ry="2.5" style="stroke:#181818;stroke-width:0.5;" width="185.1924" x="353.2339" y="612.2285"/><text fill="#000000" font-family="sans-serif" font-size="14" lengthAdjust="spacing" textLength="171.1924" x="360.2339" y="634.3359">:BuildRailwayLineController</text><rect fill="#E3E3E3" height="32.6211" rx="2.5" ry="2.5" style="stroke:#181818;stroke-width:0.5;" width="95.7031" x="740.5908" y="44.6211"/><text fill="#000000" font-family="sans-serif" font-size="14" lengthAdjust="spacing" textLength="81.7031" x="747.5908" y="66.7285">player:Player</text><rect fill="#E3E3E3" height="32.6211" rx="2.5" ry="2.5" style="stroke:#181818;stroke-width:0.5;" width="95.7031" x="740.5908" y="612.2285"/><text fill="#000000" font-family="sans-serif" font-size="14" lengthAdjust="spacing" textLength="81.7031" x="747.5908" y="634.3359">player:Player</text><rect fill="#E3E3E3" height="32.6211" rx="2.5" ry="2.5" style="stroke:#181818;stroke-width:0.5;" width="132.2891" x="846.2939" y="44.6211"/><text fill="#000000" font-family="sans-serif" font-size="14" lengthAdjust="spacing" textLength="118.2891" x="853.2939" y="66.7285">startStation:Station</text><rect fill="#E3E3E3" height="32.6211" rx="2.5" ry="2.5" style="stroke:#181818;stroke-width:0.5;" width="132.2891" x="846.2939" y="612.2285"/><text fill="#000000" font-family="sans-serif" font-size="14" lengthAdjust="spacing" textLength="118.2891" x="853.2939" y="634.3359">startStation:Station</text><rect fill="#E3E3E3" height="32.6211" rx="2.5" ry="2.5" style="stroke:#181818;stroke-width:0.5;" width="128.4199" x="988.583" y="44.6211"/><text fill="#000000" font-family="sans-serif" font-size="14" lengthAdjust="spacing" textLength="114.4199" x="995.583" y="66.7285">endStation:Station</text><rect fill="#E3E3E3" height="32.6211" rx="2.5" ry="2.5" style="stroke:#181818;stroke-width:0.5;" width="128.4199" x="988.583" y="612.2285"/><text fill="#000000" font-family="sans-serif" font-size="14" lengthAdjust="spacing" textLength="114.4199" x="995.583" y="634.3359">endStation:Station</text><rect fill="#E3E3E3" height="32.6211" rx="2.5" ry="2.5" style="stroke:#181818;stroke-width:0.5;" width="73.9375" x="1127.0029" y="44.6211"/><text fill="#000000" font-family="sans-serif" font-size="14" lengthAdjust="spacing" textLength="59.9375" x="1134.0029" y="66.7285">path:Path</text><rect fill="#E3E3E3" height="32.6211" rx="2.5" ry="2.5" style="stroke:#181818;stroke-width:0.5;" width="73.9375" x="1127.0029" y="612.2285"/><text fill="#000000" font-family="sans-serif" font-size="14" lengthAdjust="spacing" textLength="59.9375" x="1134.0029" y="634.3359">path:Path</text><rect fill="#E3E3E3" height="32.6211" rx="2.5" ry="2.5" style="stroke:#181818;stroke-width:0.5;" width="85.5859" x="1210.9404" y="44.6211"/><text fill="#000000" font-family="sans-serif" font-size="14" lengthAdjust="spacing" textLength="71.5859" x="1217.9404" y="66.7285">cost:Money</text><rect fill="#E3E3E3" height="32.6211" rx="2.5" ry="2.5" style="stroke:#181818;stroke-width:0.5;" width="85.5859" x="1210.9404" y="612.2285"/><text fill="#000000" font-family="sans-serif" font-size="14" lengthAdjust="spacing" textLength="71.5859" x="1217.9404" y="634.3359">cost:Money</text><rect fill="#E3E3E3" height="32.6211" rx="2.5" ry="2.5" style="stroke:#181818;stroke-width:0.5;" width="163.4063" x="1306.5264" y="612.2285"/><text fill="#000000" font-family="sans-serif" font-size="14" lengthAdjust="spacing" textLength="149.4063" x="1313.5264" y="634.3359">railwayLine:RailwayLine</text><rect fill="#E3E3E3" height="32.6211" rx="2.5" ry="2.5" style="stroke:#181818;stroke-width:0.5;" width="140.0547" x="1479.9326" y="44.6211"/><text fill="#000000" font-family="sans-serif" font-size="14" lengthAdjust="spacing" textLength="126.0547" x="1486.9326" y="66.7285">:RailwayLineService</text><rect fill="#E3E3E3" height="32.6211" rx="2.5" ry="2.5" style="stroke:#181818;stroke-width:0.5;" width="140.0547" x="1479.9326" y="612.2285"/><text fill="#000000" font-family="sans-serif" font-size="14" lengthAdjust="spacing" textLength="126.0547" x="1486.9326" y="634.3359">:RailwayLineService</text><rect fill="#E3E3E3" height="32.6211" rx="2.5" ry="2.5" style="stroke:#181818;stroke-width:0.5;" width="160.2891" x="1629.9873" y="44.6211"/><text fill="#000000" font-family="sans-serif" font-size="14" lengthAdjust="spacing" textLength="146.2891" x="1636.9873" y="66.7285">:RailwayLineRepository</text><rect fill="#E3E3E3" height="32.6211" rx="2.5" ry="2.5" style="stroke:#181818;stroke-width:0.5;" width="160.2891" x="1629.9873" y="612.2285"/><text fill="#000000" font-family="sans-serif" font-size="14" lengthAdjust="spacing" textLength="146.2891" x="1636.9873" y="634.3359">:RailwayLineRepository</text><rect fill="#FFFFFF" height="483.6953" style="stroke:#181818;stroke-width:1.0;" width="10" x="440.8301" y="111.5332"/><rect fill="#FFFFFF" height="31.291" style="stroke:#181818;stroke-width:1.0;" width="10" x="783.4424" y="169.1152"/><rect fill="#FFFFFF" height="137.4941" style="stroke:#181818;stroke-width:1.0;" width="10" x="783.4424" y="231.6973"/><rect fill="#FFFFFF" height="31.291" style="stroke:#181818;stroke-width:1.0;" width="10" x="783.4424" y="525.6465"/><rect fill="#FFFFFF" height="31.291" style="stroke:#181818;stroke-width:1.0;" width="10" x="1383.2295" y="306.6094"/><rect fill="#FFFFFF" height="31.291" style="stroke:#181818;stroke-width:1.0;" width="10" x="1544.96" y="400.4824"/><rect fill="#FFFFFF" height="31.291" style="stroke:#181818;stroke-width:1.0;" width="10" x="1705.1318" y="463.0645"/><polygon fill="#181818" points="428.8301,107.5332,438.8301,111.5332,428.8301,115.5332,432.8301,111.5332" style="stroke:#181818;stroke-width:1.0;"/><line style="stroke:#181818;stroke-width:1.0;" x1="74.2515" x2="434.8301" y1="111.5332" y2="111.5332"/><text fill="#000000" font-family="sans-serif" font-size="13" lengthAdjust="spacing" textLength="347.5786" x="81.2515" y="106.2705">buildRailwayLine(player, startStation, endStation, path, cost)</text><path d="M343.2339,126.5332 L503.0884,126.5332 L503.0884,135.8242 L493.0884,145.8242 L343.2339,145.8242 L343.2339,126.5332 " fill="#EEEEEE" style="stroke:#000000;stroke-width:1.5;"/><rect fill="none" height="438.4043" style="stroke:#000000;stroke-width:1.5;" width="1457.0425" x="343.2339" y="126.5332"/><text fill="#000000" font-family="sans-serif" font-size="13" font-weight="bold" lengthAdjust="spacing" textLength="114.8545" x="358.2339" y="141.5615">Build Railway Line</text><polygon fill="#181818" points="771.4424,165.1152,781.4424,169.1152,771.4424,173.1152,775.4424,169.1152" style="stroke:#181818;stroke-width:1.0;"/><line style="stroke:#181818;stroke-width:1.0;" x1="450.8301" x2="777.4424" y1="169.1152" y2="169.1152"/><text fill="#000000" font-family="sans-serif" font-size="13" lengthAdjust="spacing" textLength="143.0635" x="457.8301" y="163.8525">hasSufficientFunds(cost)</text><polygon fill="#181818" points="461.8301,196.4063,451.8301,200.4063,461.8301,204.4063,457.8301,200.4063" style="stroke:#181818;stroke-width:1.0;"/><line style="stroke:#181818;stroke-width:1.0;stroke-dasharray:2.0,2.0;" x1="455.8301" x2="787.4424" y1="200.4063" y2="200.4063"/><text fill="#000000" font-family="sans-serif" font-size="13" lengthAdjust="spacing" textLength="22.4009" x="467.8301" y="195.1436">true</text><polygon fill="#181818" points="771.4424,227.6973,781.4424,231.6973,771.4424,235.6973,775.4424,231.6973" style="stroke:#181818;stroke-width:1.0;"/><line style="stroke:#181818;stroke-width:1.0;" x1="450.8301" x2="777.4424" y1="231.6973" y2="231.6973"/><text fill="#000000" font-family="sans-serif" font-size="13" lengthAdjust="spacing" textLength="313.6123" x="457.8301" y="226.4346">createRailwayLine(startStation, endStation, path, cost)</text><polygon fill="#181818" points="1294.5264,258.9883,1304.5264,262.9883,1294.5264,266.9883,1298.5264,262.9883" style="stroke:#181818;stroke-width:1.0;"/><line style="stroke:#181818;stroke-width:1.0;stroke-dasharray:2.0,2.0;" x1="793.4424" x2="1300.5264" y1="262.9883" y2="262.9883"/><text fill="#000000" font-family="sans-serif" font-size="13" lengthAdjust="spacing" textLength="243.5215" x="800.4424" y="257.7256">create(startStation, endStation, path, cost)</text><rect fill="#E3E3E3" height="32.6211" rx="2.5" ry="2.5" style="stroke:#181818;stroke-width:0.5;" width="163.4063" x="1306.5264" y="239.6973"/><text fill="#000000" font-family="sans-serif" font-size="14" lengthAdjust="spacing" textLength="149.4063" x="1313.5264" y="261.8047">railwayLine:RailwayLine</text><polygon fill="#181818" points="1371.2295,302.6094,1381.2295,306.6094,1371.2295,310.6094,1375.2295,306.6094" style="stroke:#181818;stroke-width:1.0;"/><line style="stroke:#181818;stroke-width:1.0;" x1="793.4424" x2="1377.2295" y1="306.6094" y2="306.6094"/><text fill="#000000" font-family="sans-serif" font-size="13" lengthAdjust="spacing" textLength="80.9263" x="800.4424" y="301.3467">validateData()</text><polygon fill="#181818" points="804.4424,333.9004,794.4424,337.9004,804.4424,341.9004,800.4424,337.9004" style="stroke:#181818;stroke-width:1.0;"/><line style="stroke:#181818;stroke-width:1.0;stroke-dasharray:2.0,2.0;" x1="798.4424" x2="1387.2295" y1="337.9004" y2="337.9004"/><text fill="#000000" font-family="sans-serif" font-size="13" lengthAdjust="spacing" textLength="91.7744" x="810.4424" y="332.6377">validationResult</text><polygon fill="#181818" points="461.8301,365.1914,451.8301,369.1914,461.8301,373.1914,457.8301,369.1914" style="stroke:#181818;stroke-width:1.0;"/><line style="stroke:#181818;stroke-width:1.0;stroke-dasharray:2.0,2.0;" x1="455.8301" x2="787.4424" y1="369.1914" y2="369.1914"/><text fill="#000000" font-family="sans-serif" font-size="13" lengthAdjust="spacing" textLength="65.0317" x="467.8301" y="363.9287">railwayLine</text><polygon fill="#181818" points="1532.96,396.4824,1542.96,400.4824,1532.96,404.4824,1536.96,400.4824" style="stroke:#181818;stroke-width:1.0;"/><line style="stroke:#181818;stroke-width:1.0;" x1="450.8301" x2="1538.96" y1="400.4824" y2="400.4824"/><text fill="#000000" font-family="sans-serif" font-size="13" lengthAdjust="spacing" textLength="188.5889" x="457.8301" y="395.2197">validateRailwayLine(railwayLine)</text><polygon fill="#181818" points="461.8301,427.7734,451.8301,431.7734,461.8301,435.7734,457.8301,431.7734" style="stroke:#181818;stroke-width:1.0;"/><line style="stroke:#181818;stroke-width:1.0;stroke-dasharray:2.0,2.0;" x1="455.8301" x2="1548.96" y1="431.7734" y2="431.7734"/><text fill="#000000" font-family="sans-serif" font-size="13" lengthAdjust="spacing" textLength="91.7744" x="467.8301" y="426.5107">validationResult</text><polygon fill="#181818" points="1693.1318,459.0645,1703.1318,463.0645,1693.1318,467.0645,1697.1318,463.0645" style="stroke:#181818;stroke-width:1.0;"/><line style="stroke:#181818;stroke-width:1.0;" x1="450.8301" x2="1699.1318" y1="463.0645" y2="463.0645"/><text fill="#000000" font-family="sans-serif" font-size="13" lengthAdjust="spacing" textLength="171.2407" x="457.8301" y="457.8018">saveRailwayLine(railwayLine)</text><polygon fill="#181818" points="461.8301,490.3555,451.8301,494.3555,461.8301,498.3555,457.8301,494.3555" style="stroke:#181818;stroke-width:1.0;"/><line style="stroke:#181818;stroke-width:1.0;stroke-dasharray:2.0,2.0;" x1="455.8301" x2="1709.1318" y1="494.3555" y2="494.3555"/><text fill="#000000" font-family="sans-serif" font-size="13" lengthAdjust="spacing" textLength="46.96" x="467.8301" y="489.0928">success</text><polygon fill="#181818" points="771.4424,521.6465,781.4424,525.6465,771.4424,529.6465,775.4424,525.6465" style="stroke:#181818;stroke-width:1.0;"/><line style="stroke:#181818;stroke-width:1.0;" x1="450.8301" x2="777.4424" y1="525.6465" y2="525.6465"/><text fill="#000000" font-family="sans-serif" font-size="13" lengthAdjust="spacing" textLength="107.6626" x="457.8301" y="520.3838">deductFunds(cost)</text><polygon fill="#181818" points="461.8301,552.9375,451.8301,556.9375,461.8301,560.9375,457.8301,556.9375" style="stroke:#181818;stroke-width:1.0;"/><line style="stroke:#181818;stroke-width:1.0;stroke-dasharray:2.0,2.0;" x1="455.8301" x2="787.4424" y1="556.9375" y2="556.9375"/><text fill="#000000" font-family="sans-serif" font-size="13" lengthAdjust="spacing" textLength="83.1226" x="467.8301" y="551.6748">updatedFunds</text><polygon fill="#181818" points="85.2515,591.2285,75.2515,595.2285,85.2515,599.2285,81.2515,595.2285" style="stroke:#181818;stroke-width:1.0;"/><line style="stroke:#181818;stroke-width:1.0;stroke-dasharray:2.0,2.0;" x1="79.2515" x2="444.8301" y1="595.2285" y2="595.2285"/><text fill="#000000" font-family="sans-serif" font-size="13" lengthAdjust="spacing" textLength="46.96" x="91.2515" y="589.9658">success</text><!--SRC=[hLJ1Zjem4BtdAqPxeYkGUgnog4I1gf4ee3XKwcarwyo2jS5EROSLVr_7OHC7KhfRrOT4uFVUpBoPYNaMiaID1pWegVXUgmE1rHL5fhqfaJ_ZZfWz5GIQk4MvAqA0sMEkNeJSmHCMXgB82kkWM_Rn4qpWIoMA758KnGkUO2aakJytgAt00XZzgaXoWhd0dTEAehA-uQ94QU4kzkGpjwPkapj00zlaBxYPabQheY3jyRCiNVOPPO4dql76lpncivp-NAGFi-MKiJxMMFUBMRH2oVZyzXIMJTFimJspPBtgSqZcGup5QZwCBz7kuurxDBbCis_zUwwCZRyhIQUce3NB-W3T5Hy7HdZqCbajBWmB88pqKV0EoHRfZsHsWv1IgOomIfzQJhhOhADecy3aipSROdYyQCceiNmCePrZw8mQGst26EfIFqJ8hJYYfQPtuCvEgweS62T_wOEwu64NNH9xDAnwUd9baBHVAvcRKIDVSzeGlTR3-VIK9brTVZjgG4x30hVouPeSFdJbRMxyGxfrM-xlsvZl27GjrwWvhICM8dTgSxGuwj1jQdxI83YUDxasuYpaugTagiAsfC3LdjYVsX7C_Tkx4envK5JOba3smlrmHS8gN_M2t0QBl2ZmLUegltgbd8R1upiIytiOPkLLWfHCnJaPCvH9iyCtXZUdlEB_QOkgidOyzs8t-rRVkM5jjZ_8pacvpqrNKC2l0Ry1]--></g></svg>