<svg xmlns="http://www.w3.org/2000/svg" xmlns:xlink="http://www.w3.org/1999/xlink" contentStyleType="text/css" height="1008px" preserveAspectRatio="none" style="width:860px;height:1008px;background:#FFFFFF;" version="1.1" viewBox="0 0 860 1008" width="860px" zoomAndPan="magnify"><title>Sequence Diagram (SD) - US04 Create a Scenario for a Selected Map - Split</title><defs/><g><text fill="#000000" font-family="sans-serif" font-size="14" font-weight="bold" lengthAdjust="spacing" textLength="498.709" x="178.4915" y="30.1074">Sequence Diagram (SD) - US04 Create a Scenario for a Selected Map - Split</text><rect fill="#FFFFFF" height="774.2461" style="stroke:#181818;stroke-width:1.0;" width="10" x="21.2861" y="133.2422"/><rect fill="#FFFFFF" height="186.416" style="stroke:#181818;stroke-width:1.0;" width="10" x="311.4658" y="156.5332"/><rect fill="#FFFFFF" height="31.291" style="stroke:#181818;stroke-width:1.0;" width="10" x="311.4658" y="374.2402"/><rect fill="#FFFFFF" height="79.543" style="stroke:#181818;stroke-width:1.0;" width="10" x="311.4658" y="436.8223"/><rect fill="#FFFFFF" height="79.543" style="stroke:#181818;stroke-width:1.0;" width="10" x="311.4658" y="547.6563"/><rect fill="#FFFFFF" height="31.291" style="stroke:#181818;stroke-width:1.0;" width="10" x="311.4658" y="658.4902"/><rect fill="#FFFFFF" height="31.291" style="stroke:#181818;stroke-width:1.0;" width="10" x="311.4658" y="721.0723"/><rect fill="#FFFFFF" height="123.834" style="stroke:#181818;stroke-width:1.0;" width="10" x="311.4658" y="783.6543"/><rect fill="#FFFFFF" height="31.291" style="stroke:#181818;stroke-width:1.0;" width="10" x="488.2002" y="187.8242"/><line style="stroke:#181818;stroke-width:0.5;stroke-dasharray:5.0,5.0;" x1="26" x2="26" y1="123.2422" y2="925.4883"/><line style="stroke:#181818;stroke-width:0.5;stroke-dasharray:5.0,5.0;" x1="315.8833" x2="315.8833" y1="123.2422" y2="925.4883"/><line style="stroke:#181818;stroke-width:0.5;stroke-dasharray:5.0,5.0;" x1="492.2729" x2="492.2729" y1="123.2422" y2="925.4883"/><line style="stroke:#181818;stroke-width:0.5;stroke-dasharray:5.0,5.0;" x1="653.1274" x2="653.1274" y1="123.2422" y2="925.4883"/><line style="stroke:#181818;stroke-width:0.5;stroke-dasharray:5.0,5.0;" x1="788.6304" x2="788.6304" y1="123.2422" y2="925.4883"/><text fill="#000000" font-family="sans-serif" font-size="14" lengthAdjust="spacing" textLength="36.5723" x="5" y="119.7285">Editor</text><ellipse cx="26.2861" cy="53.1211" fill="#E3E3E3" rx="8" ry="8" style="stroke:#181818;stroke-width:0.5;"/><path d="M26.2861,61.1211 L26.2861,88.1211 M13.2861,69.1211 L39.2861,69.1211 M26.2861,88.1211 L13.2861,103.1211 M26.2861,88.1211 L39.2861,103.1211 " fill="none" style="stroke:#181818;stroke-width:0.5;"/><text fill="#000000" font-family="sans-serif" font-size="14" lengthAdjust="spacing" textLength="36.5723" x="5" y="939.5957">Editor</text><ellipse cx="26.2861" cy="951.6094" fill="#E3E3E3" rx="8" ry="8" style="stroke:#181818;stroke-width:0.5;"/><path d="M26.2861,959.6094 L26.2861,986.6094 M13.2861,967.6094 L39.2861,967.6094 M26.2861,986.6094 L13.2861,1001.6094 M26.2861,986.6094 L39.2861,1001.6094 " fill="none" style="stroke:#181818;stroke-width:0.5;"/><rect fill="#E3E3E3" height="32.6211" rx="2.5" ry="2.5" style="stroke:#181818;stroke-width:0.5;" width="129.165" x="251.8833" y="89.6211"/><text fill="#000000" font-family="sans-serif" font-size="14" lengthAdjust="spacing" textLength="115.165" x="258.8833" y="111.7285">:CreateScenarioUI</text><rect fill="#E3E3E3" height="32.6211" rx="2.5" ry="2.5" style="stroke:#181818;stroke-width:0.5;" width="129.165" x="251.8833" y="924.4883"/><text fill="#000000" font-family="sans-serif" font-size="14" lengthAdjust="spacing" textLength="115.165" x="258.8833" y="946.5957">:CreateScenarioUI</text><rect fill="#E3E3E3" height="32.6211" rx="2.5" ry="2.5" style="stroke:#181818;stroke-width:0.5;" width="175.8545" x="405.2729" y="89.6211"/><text fill="#000000" font-family="sans-serif" font-size="14" lengthAdjust="spacing" textLength="161.8545" x="412.2729" y="111.7285">:CreateScenarioController</text><rect fill="#E3E3E3" height="32.6211" rx="2.5" ry="2.5" style="stroke:#181818;stroke-width:0.5;" width="175.8545" x="405.2729" y="924.4883"/><text fill="#000000" font-family="sans-serif" font-size="14" lengthAdjust="spacing" textLength="161.8545" x="412.2729" y="946.5957">:CreateScenarioController</text><rect fill="#E3E3E3" height="32.6211" rx="2.5" ry="2.5" style="stroke:#181818;stroke-width:0.5;" width="124.5029" x="591.1274" y="89.6211"/><text fill="#000000" font-family="sans-serif" font-size="14" lengthAdjust="spacing" textLength="110.5029" x="598.1274" y="111.7285">selectedMap:Map</text><rect fill="#E3E3E3" height="32.6211" rx="2.5" ry="2.5" style="stroke:#181818;stroke-width:0.5;" width="124.5029" x="591.1274" y="924.4883"/><text fill="#000000" font-family="sans-serif" font-size="14" lengthAdjust="spacing" textLength="110.5029" x="598.1274" y="946.5957">selectedMap:Map</text><rect fill="#E3E3E3" height="32.6211" rx="2.5" ry="2.5" style="stroke:#181818;stroke-width:0.5;" width="126.0615" x="725.6304" y="89.6211"/><text fill="#000000" font-family="sans-serif" font-size="14" lengthAdjust="spacing" textLength="112.0615" x="732.6304" y="111.7285">scenario:Scenario</text><rect fill="#E3E3E3" height="32.6211" rx="2.5" ry="2.5" style="stroke:#181818;stroke-width:0.5;" width="126.0615" x="725.6304" y="924.4883"/><text fill="#000000" font-family="sans-serif" font-size="14" lengthAdjust="spacing" textLength="112.0615" x="732.6304" y="946.5957">scenario:Scenario</text><rect fill="#FFFFFF" height="774.2461" style="stroke:#181818;stroke-width:1.0;" width="10" x="21.2861" y="133.2422"/><rect fill="#FFFFFF" height="186.416" style="stroke:#181818;stroke-width:1.0;" width="10" x="311.4658" y="156.5332"/><rect fill="#FFFFFF" height="31.291" style="stroke:#181818;stroke-width:1.0;" width="10" x="311.4658" y="374.2402"/><rect fill="#FFFFFF" height="79.543" style="stroke:#181818;stroke-width:1.0;" width="10" x="311.4658" y="436.8223"/><rect fill="#FFFFFF" height="79.543" style="stroke:#181818;stroke-width:1.0;" width="10" x="311.4658" y="547.6563"/><rect fill="#FFFFFF" height="31.291" style="stroke:#181818;stroke-width:1.0;" width="10" x="311.4658" y="658.4902"/><rect fill="#FFFFFF" height="31.291" style="stroke:#181818;stroke-width:1.0;" width="10" x="311.4658" y="721.0723"/><rect fill="#FFFFFF" height="123.834" style="stroke:#181818;stroke-width:1.0;" width="10" x="311.4658" y="783.6543"/><rect fill="#FFFFFF" height="31.291" style="stroke:#181818;stroke-width:1.0;" width="10" x="488.2002" y="187.8242"/><polygon fill="#181818" points="299.4658,152.5332,309.4658,156.5332,299.4658,160.5332,303.4658,156.5332" style="stroke:#181818;stroke-width:1.0;"/><line style="stroke:#181818;stroke-width:1.0;" x1="31.2861" x2="305.4658" y1="156.5332" y2="156.5332"/><text fill="#000000" font-family="sans-serif" font-size="13" font-weight="bold" lengthAdjust="spacing" textLength="7.23" x="38.2861" y="151.2705">1</text><text fill="#000000" font-family="sans-serif" font-size="13" lengthAdjust="spacing" textLength="144.5171" x="49.5161" y="151.2705">asks to create a scenario</text><polygon fill="#181818" points="476.2002,183.8242,486.2002,187.8242,476.2002,191.8242,480.2002,187.8242" style="stroke:#181818;stroke-width:1.0;"/><line style="stroke:#181818;stroke-width:1.0;" x1="321.4658" x2="482.2002" y1="187.8242" y2="187.8242"/><text fill="#000000" font-family="sans-serif" font-size="13" font-weight="bold" lengthAdjust="spacing" textLength="7.23" x="328.4658" y="182.5615">2</text><text fill="#000000" font-family="sans-serif" font-size="13" lengthAdjust="spacing" textLength="124.2617" x="339.6958" y="182.5615">getCurrentUserRole()</text><polygon fill="#181818" points="332.4658,215.1152,322.4658,219.1152,332.4658,223.1152,328.4658,219.1152" style="stroke:#181818;stroke-width:1.0;"/><line style="stroke:#181818;stroke-width:1.0;stroke-dasharray:2.0,2.0;" x1="326.4658" x2="492.2002" y1="219.1152" y2="219.1152"/><text fill="#000000" font-family="sans-serif" font-size="13" font-weight="bold" lengthAdjust="spacing" textLength="7.23" x="338.4658" y="213.8525">3</text><text fill="#000000" font-family="sans-serif" font-size="13" lengthAdjust="spacing" textLength="28.1772" x="349.6958" y="213.8525">roles</text><line style="stroke:#181818;stroke-width:1.0;" x1="321.4658" x2="363.4658" y1="250.4063" y2="250.4063"/><line style="stroke:#181818;stroke-width:1.0;" x1="363.4658" x2="363.4658" y1="250.4063" y2="263.4063"/><line style="stroke:#181818;stroke-width:1.0;" x1="322.4658" x2="363.4658" y1="263.4063" y2="263.4063"/><polygon fill="#181818" points="332.4658,259.4063,322.4658,263.4063,332.4658,267.4063,328.4658,263.4063" style="stroke:#181818;stroke-width:1.0;"/><text fill="#000000" font-family="sans-serif" font-size="13" font-weight="bold" lengthAdjust="spacing" textLength="7.23" x="328.4658" y="245.1436">4</text><text fill="#000000" font-family="sans-serif" font-size="13" lengthAdjust="spacing" textLength="123.3921" x="339.6958" y="245.1436">validateRole("Editor")</text><rect fill="none" height="43.252" style="stroke:#000000;stroke-width:1.5;" width="335.2441" x="248.8833" y="271.4063"/><path d="M248.8833,271.4063 L309.8833,271.4063 L309.8833,280.4063 L299.8833,290.4063 L248.8833,290.4063 L248.8833,271.4063 " fill="#EEEEEE" style="stroke:#000000;stroke-width:2.0;"/><text fill="#000000" font-family="sans-serif" font-size="13" font-weight="bold" lengthAdjust="spacing" textLength="16.6182" x="261.8833" y="287.4346">ref</text><text fill="#000000" font-family="sans-serif" font-size="12" lengthAdjust="spacing" textLength="74.0273" x="379.4917" y="307.3555">Get Maps List</text><polygon fill="#181818" points="42.2861,338.9492,32.2861,342.9492,42.2861,346.9492,38.2861,342.9492" style="stroke:#181818;stroke-width:1.0;"/><line style="stroke:#181818;stroke-width:1.0;stroke-dasharray:2.0,2.0;" x1="36.2861" x2="315.4658" y1="342.9492" y2="342.9492"/><text fill="#000000" font-family="sans-serif" font-size="13" font-weight="bold" lengthAdjust="spacing" textLength="7.23" x="48.2861" y="337.6865">5</text><text fill="#000000" font-family="sans-serif" font-size="13" lengthAdjust="spacing" textLength="218.2197" x="59.5161" y="337.6865">shows map list and asks to select one</text><polygon fill="#181818" points="299.4658,370.2402,309.4658,374.2402,299.4658,378.2402,303.4658,374.2402" style="stroke:#181818;stroke-width:1.0;"/><line style="stroke:#181818;stroke-width:1.0;" x1="31.2861" x2="305.4658" y1="374.2402" y2="374.2402"/><text fill="#000000" font-family="sans-serif" font-size="13" font-weight="bold" lengthAdjust="spacing" textLength="7.23" x="38.2861" y="368.9775">6</text><text fill="#000000" font-family="sans-serif" font-size="13" lengthAdjust="spacing" textLength="80.2026" x="49.5161" y="368.9775">selects a map</text><polygon fill="#181818" points="42.2861,401.5313,32.2861,405.5313,42.2861,409.5313,38.2861,405.5313" style="stroke:#181818;stroke-width:1.0;"/><line style="stroke:#181818;stroke-width:1.0;stroke-dasharray:2.0,2.0;" x1="36.2861" x2="315.4658" y1="405.5313" y2="405.5313"/><text fill="#000000" font-family="sans-serif" font-size="13" font-weight="bold" lengthAdjust="spacing" textLength="7.23" x="48.2861" y="400.2686">7</text><text fill="#000000" font-family="sans-serif" font-size="13" lengthAdjust="spacing" textLength="241.3252" x="59.5161" y="400.2686">requests data (name, start time, end time)</text><polygon fill="#181818" points="299.4658,432.8223,309.4658,436.8223,299.4658,440.8223,303.4658,436.8223" style="stroke:#181818;stroke-width:1.0;"/><line style="stroke:#181818;stroke-width:1.0;" x1="31.2861" x2="305.4658" y1="436.8223" y2="436.8223"/><text fill="#000000" font-family="sans-serif" font-size="13" font-weight="bold" lengthAdjust="spacing" textLength="7.23" x="38.2861" y="431.5596">8</text><text fill="#000000" font-family="sans-serif" font-size="13" lengthAdjust="spacing" textLength="121.418" x="49.5161" y="431.5596">types requested data</text><rect fill="none" height="43.252" style="stroke:#000000;stroke-width:1.5;" width="335.2441" x="248.8833" y="444.8223"/><path d="M248.8833,444.8223 L309.8833,444.8223 L309.8833,453.8223 L299.8833,463.8223 L248.8833,463.8223 L248.8833,444.8223 " fill="#EEEEEE" style="stroke:#000000;stroke-width:2.0;"/><text fill="#000000" font-family="sans-serif" font-size="13" font-weight="bold" lengthAdjust="spacing" textLength="16.6182" x="261.8833" y="460.8506">ref</text><text fill="#000000" font-family="sans-serif" font-size="12" lengthAdjust="spacing" textLength="142.0605" x="345.4751" y="480.7715">Get Locomotive Types List</text><polygon fill="#181818" points="42.2861,512.3652,32.2861,516.3652,42.2861,520.3652,38.2861,516.3652" style="stroke:#181818;stroke-width:1.0;"/><line style="stroke:#181818;stroke-width:1.0;stroke-dasharray:2.0,2.0;" x1="36.2861" x2="315.4658" y1="516.3652" y2="516.3652"/><text fill="#000000" font-family="sans-serif" font-size="13" font-weight="bold" lengthAdjust="spacing" textLength="7.23" x="48.2861" y="511.1025">9</text><text fill="#000000" font-family="sans-serif" font-size="13" lengthAdjust="spacing" textLength="244.9497" x="59.5161" y="511.1025">shows locomotive types and asks to select</text><polygon fill="#181818" points="299.4658,543.6563,309.4658,547.6563,299.4658,551.6563,303.4658,547.6563" style="stroke:#181818;stroke-width:1.0;"/><line style="stroke:#181818;stroke-width:1.0;" x1="31.2861" x2="305.4658" y1="547.6563" y2="547.6563"/><text fill="#000000" font-family="sans-serif" font-size="13" font-weight="bold" lengthAdjust="spacing" textLength="14.46" x="38.2861" y="542.3936">10</text><text fill="#000000" font-family="sans-serif" font-size="13" lengthAdjust="spacing" textLength="140.8926" x="56.7461" y="542.3936">selects locomotive types</text><rect fill="none" height="43.252" style="stroke:#000000;stroke-width:1.5;" width="335.2441" x="248.8833" y="555.6563"/><path d="M248.8833,555.6563 L309.8833,555.6563 L309.8833,564.6563 L299.8833,574.6563 L248.8833,574.6563 L248.8833,555.6563 " fill="#EEEEEE" style="stroke:#000000;stroke-width:2.0;"/><text fill="#000000" font-family="sans-serif" font-size="13" font-weight="bold" lengthAdjust="spacing" textLength="16.6182" x="261.8833" y="571.6846">ref</text><text fill="#000000" font-family="sans-serif" font-size="12" lengthAdjust="spacing" textLength="123.3809" x="354.8149" y="591.6055">Get Industry Types List</text><polygon fill="#181818" points="42.2861,623.1992,32.2861,627.1992,42.2861,631.1992,38.2861,627.1992" style="stroke:#181818;stroke-width:1.0;"/><line style="stroke:#181818;stroke-width:1.0;stroke-dasharray:2.0,2.0;" x1="36.2861" x2="315.4658" y1="627.1992" y2="627.1992"/><text fill="#000000" font-family="sans-serif" font-size="13" font-weight="bold" lengthAdjust="spacing" textLength="14.46" x="48.2861" y="621.9365">11</text><text fill="#000000" font-family="sans-serif" font-size="13" lengthAdjust="spacing" textLength="228.3315" x="66.7461" y="621.9365">shows industry types and asks to select</text><polygon fill="#181818" points="299.4658,654.4902,309.4658,658.4902,299.4658,662.4902,303.4658,658.4902" style="stroke:#181818;stroke-width:1.0;"/><line style="stroke:#181818;stroke-width:1.0;" x1="31.2861" x2="305.4658" y1="658.4902" y2="658.4902"/><text fill="#000000" font-family="sans-serif" font-size="13" font-weight="bold" lengthAdjust="spacing" textLength="14.46" x="38.2861" y="653.2275">12</text><text fill="#000000" font-family="sans-serif" font-size="13" lengthAdjust="spacing" textLength="124.2744" x="56.7461" y="653.2275">selects industry types</text><polygon fill="#181818" points="42.2861,685.7813,32.2861,689.7813,42.2861,693.7813,38.2861,689.7813" style="stroke:#181818;stroke-width:1.0;"/><line style="stroke:#181818;stroke-width:1.0;stroke-dasharray:2.0,2.0;" x1="36.2861" x2="315.4658" y1="689.7813" y2="689.7813"/><text fill="#000000" font-family="sans-serif" font-size="13" font-weight="bold" lengthAdjust="spacing" textLength="14.46" x="48.2861" y="684.5186">13</text><text fill="#000000" font-family="sans-serif" font-size="13" lengthAdjust="spacing" textLength="142.3335" x="66.7461" y="684.5186">asks for historical events</text><polygon fill="#181818" points="299.4658,717.0723,309.4658,721.0723,299.4658,725.0723,303.4658,721.0723" style="stroke:#181818;stroke-width:1.0;"/><line style="stroke:#181818;stroke-width:1.0;" x1="31.2861" x2="305.4658" y1="721.0723" y2="721.0723"/><text fill="#000000" font-family="sans-serif" font-size="13" font-weight="bold" lengthAdjust="spacing" textLength="14.46" x="38.2861" y="715.8096">14</text><text fill="#000000" font-family="sans-serif" font-size="13" lengthAdjust="spacing" textLength="125.0107" x="56.7461" y="715.8096">adds historical events</text><polygon fill="#181818" points="42.2861,748.3633,32.2861,752.3633,42.2861,756.3633,38.2861,752.3633" style="stroke:#181818;stroke-width:1.0;"/><line style="stroke:#181818;stroke-width:1.0;stroke-dasharray:2.0,2.0;" x1="36.2861" x2="315.4658" y1="752.3633" y2="752.3633"/><text fill="#000000" font-family="sans-serif" font-size="13" font-weight="bold" lengthAdjust="spacing" textLength="14.46" x="48.2861" y="747.1006">15</text><text fill="#000000" font-family="sans-serif" font-size="13" lengthAdjust="spacing" textLength="235.5742" x="66.7461" y="747.1006">shows all data and requests confirmation</text><polygon fill="#181818" points="299.4658,779.6543,309.4658,783.6543,299.4658,787.6543,303.4658,783.6543" style="stroke:#181818;stroke-width:1.0;"/><line style="stroke:#181818;stroke-width:1.0;" x1="31.2861" x2="305.4658" y1="783.6543" y2="783.6543"/><text fill="#000000" font-family="sans-serif" font-size="13" font-weight="bold" lengthAdjust="spacing" textLength="14.46" x="38.2861" y="778.3916">16</text><text fill="#000000" font-family="sans-serif" font-size="13" lengthAdjust="spacing" textLength="78.0317" x="56.7461" y="778.3916">confirms data</text><line style="stroke:#181818;stroke-width:1.0;" x1="321.4658" x2="363.4658" y1="814.9453" y2="814.9453"/><line style="stroke:#181818;stroke-width:1.0;" x1="363.4658" x2="363.4658" y1="814.9453" y2="827.9453"/><line style="stroke:#181818;stroke-width:1.0;" x1="322.4658" x2="363.4658" y1="827.9453" y2="827.9453"/><polygon fill="#181818" points="332.4658,823.9453,322.4658,827.9453,332.4658,831.9453,328.4658,827.9453" style="stroke:#181818;stroke-width:1.0;"/><text fill="#000000" font-family="sans-serif" font-size="13" font-weight="bold" lengthAdjust="spacing" textLength="14.46" x="328.4658" y="809.6826">17</text><text fill="#000000" font-family="sans-serif" font-size="13" lengthAdjust="spacing" textLength="124.2744" x="346.9258" y="809.6826">collectScenarioData()</text><path d="M492.7344,800.1543 L492.7344,827.1543 L728.7344,827.1543 L728.7344,810.1543 L718.7344,800.1543 L492.7344,800.1543 " fill="#FAFAFA" style="stroke:#181818;stroke-width:0.5;"/><path d="M718.7344,800.1543 L718.7344,810.1543 L728.7344,810.1543 L718.7344,800.1543 " fill="#FAFAFA" style="stroke:#181818;stroke-width:0.5;"/><text fill="#000000" font-family="sans-serif" font-size="13" lengthAdjust="spacing" textLength="215.3188" x="498.7344" y="819.1826">Creates CreateScenarioRequestDTO</text><rect fill="none" height="43.252" style="stroke:#000000;stroke-width:1.5;" width="605.8086" x="248.8833" y="835.9453"/><path d="M248.8833,835.9453 L309.8833,835.9453 L309.8833,844.9453 L299.8833,854.9453 L248.8833,854.9453 L248.8833,835.9453 " fill="#EEEEEE" style="stroke:#000000;stroke-width:2.0;"/><text fill="#000000" font-family="sans-serif" font-size="13" font-weight="bold" lengthAdjust="spacing" textLength="16.6182" x="261.8833" y="851.9736">ref</text><text fill="#000000" font-family="sans-serif" font-size="12" lengthAdjust="spacing" textLength="86.7129" x="508.4312" y="871.8945">Create Scenario</text><polygon fill="#181818" points="37.2861,903.4883,27.2861,907.4883,37.2861,911.4883,33.2861,907.4883" style="stroke:#181818;stroke-width:1.0;"/><line style="stroke:#181818;stroke-width:1.0;stroke-dasharray:2.0,2.0;" x1="31.2861" x2="315.4658" y1="907.4883" y2="907.4883"/><text fill="#000000" font-family="sans-serif" font-size="13" font-weight="bold" lengthAdjust="spacing" textLength="14.46" x="43.2861" y="902.2256">18</text><text fill="#000000" font-family="sans-serif" font-size="13" lengthAdjust="spacing" textLength="155.3589" x="61.7461" y="902.2256">displays operation success</text><!--SRC=[hLN1Rk8m4BtdAqQSYaIbFUo9mqeLe0gftQu8VC2iCu1Lnyvw72h-ViTEGWEbbExM4iAHttj-CsEF-LdR2ZsMK3hhrDQxaY3ucZ8-h5Iedd53UTWR0aygeDsOFe2tMBWNRJUmHiEKPK47WURqfoQh2AOQDn5taq-7S0kh_Djtc7Z2G82GAxBejOEry_6JZEn01JnY9TYyCZfa6TR1sRhyJLxcAWXoC2kq_0y06MRJ-V9faOcPe9Mkq0OOZ9iDElNLF25NyukeYRF1EsEeqPqi5m_7U6xTYRcn_1BgyUxN2QXL6tUo2PPFPZ_l5lEdB4MWTp7wrdW6CfevtFuGap0MnZD3SA2wF7Mg2NnGa82W7K8JSlGiz0s5IUqzsR1YyWjdw6PuG1xOAK3eZSI-xJn8AeWFwmMTvvqOICmT6bq8CctSbMhubk9f3Mv7NbYZjsxkASHZmF2WEHnMo1QHTtv_CT0cSYp7qhqmb7AEZF01XTTbjQaZE4lPIMYzX9wfIiDZAOV8PXTBqNVYuqrWuKbE46uibZG23d9e8EWuZp75sJ2xuEV4IzXNn9sqN9YeVPoKdiW_PFx1ALSwKI1Ofgt-fmhcLQpn_ROQPoBFBfJWLF4B8fxRekRWzryGh-waFX7j1sVkMFB3S4zzfUrZZzrAMCvhXGPe9ms2hqmy5WM_G_wCZoO_Q4np6J3bjRqUojcrzYK6xUpr2MfP_7e3tc-FBS74b7RjUIgqNdUqJeXURxP1eCtxm73yJYmQmzFbqnKjRHHVYD5h_p_gjqrtp_kz_LEdhT1S6Tmpk8fyoXjmhHJnsQhsFjkdvoy0]--></g></svg>