<svg xmlns="http://www.w3.org/2000/svg" xmlns:xlink="http://www.w3.org/1999/xlink" contentStyleType="text/css" height="1553px" preserveAspectRatio="none" style="width:3852px;height:1553px;background:#FFFFFF;" version="1.1" viewBox="0 0 3852 1553" width="3852px" zoomAndPan="magnify"><title>US04 - Class Diagram - Create a Scenario for a Selected Map</title><defs/><g><text fill="#000000" font-family="sans-serif" font-size="14" font-weight="bold" lengthAdjust="spacing" textLength="403.0469" x="1717.8623" y="25.1074">US04 - Class Diagram - Create a Scenario for a Selected Map</text><!--class CreateScenarioUI--><g id="elem_CreateScenarioUI"><rect codeLine="9" fill="#F1F1F1" height="48" id="CreateScenarioUI" rx="2.5" ry="2.5" style="stroke:#181818;stroke-width:0.5;" width="143.2754" x="7" y="295.6211"/><ellipse cx="22" cy="311.6211" fill="#C2C2C2" rx="11" ry="11" style="stroke:#181818;stroke-width:1.0;"/><path d="M24.7656,307.4961 Q24.9219,307.2773 25.1094,307.168 Q25.2969,307.0586 25.5156,307.0586 Q25.8906,307.0586 26.125,307.3242 Q26.3594,307.5742 26.3594,308.1836 L26.3594,309.6367 Q26.3594,310.2461 26.125,310.5117 Q25.8906,310.7773 25.5156,310.7773 Q25.1719,310.7773 24.9688,310.5742 Q24.7656,310.3867 24.6563,309.8711 Q24.6094,309.5117 24.4219,309.3242 Q24.0938,308.9492 23.4844,308.7305 Q22.875,308.5117 22.25,308.5117 Q21.4844,308.5117 20.8438,308.8398 Q20.2188,309.168 19.7188,309.918 Q19.2344,310.668 19.2344,311.6992 L19.2344,312.793 Q19.2344,314.0273 20.125,314.8555 Q21.0156,315.668 22.6094,315.668 Q23.5469,315.668 24.2031,315.418 Q24.5938,315.2617 25.0156,314.8242 Q25.2813,314.5586 25.4219,314.4805 Q25.5781,314.4023 25.7813,314.4023 Q26.1094,314.4023 26.3594,314.668 Q26.625,314.918 26.625,315.2617 Q26.625,315.6055 26.2813,316.0117 Q25.7813,316.5898 24.9844,316.918 Q23.9063,317.3711 22.6094,317.3711 Q21.0938,317.3711 19.8906,316.7461 Q18.9063,316.2461 18.2188,315.1836 Q17.5313,314.1055 17.5313,312.8242 L17.5313,311.668 Q17.5313,310.3398 18.1406,309.1992 Q18.7656,308.043 19.8594,307.4336 Q20.9531,306.8086 22.1875,306.8086 Q22.9219,306.8086 23.5625,306.9805 Q24.2188,307.1367 24.7656,307.4961 Z " fill="#000000"/><text fill="#000000" font-family="sans-serif" font-size="14" lengthAdjust="spacing" textLength="111.2754" x="36" y="317.418">CreateScenarioUI</text><line style="stroke:#181818;stroke-width:0.5;" x1="8" x2="149.2754" y1="327.6211" y2="327.6211"/><line style="stroke:#181818;stroke-width:0.5;" x1="8" x2="149.2754" y1="335.6211" y2="335.6211"/></g><!--class CreateScenarioController--><g id="elem_CreateScenarioController"><rect codeLine="12" fill="#F1F1F1" height="252.832" id="CreateScenarioController" rx="2.5" ry="2.5" style="stroke:#181818;stroke-width:0.5;" width="396.3984" x="254" y="789.1211"/><ellipse cx="368.9668" cy="805.1211" fill="#C2C2C2" rx="11" ry="11" style="stroke:#181818;stroke-width:1.0;"/><path d="M371.7324,800.9961 Q371.8887,800.7773 372.0762,800.668 Q372.2637,800.5586 372.4824,800.5586 Q372.8574,800.5586 373.0918,800.8242 Q373.3262,801.0742 373.3262,801.6836 L373.3262,803.1367 Q373.3262,803.7461 373.0918,804.0117 Q372.8574,804.2773 372.4824,804.2773 Q372.1387,804.2773 371.9355,804.0742 Q371.7324,803.8867 371.623,803.3711 Q371.5762,803.0117 371.3887,802.8242 Q371.0605,802.4492 370.4512,802.2305 Q369.8418,802.0117 369.2168,802.0117 Q368.4512,802.0117 367.8105,802.3398 Q367.1855,802.668 366.6855,803.418 Q366.2012,804.168 366.2012,805.1992 L366.2012,806.293 Q366.2012,807.5273 367.0918,808.3555 Q367.9824,809.168 369.5762,809.168 Q370.5137,809.168 371.1699,808.918 Q371.5605,808.7617 371.9824,808.3242 Q372.248,808.0586 372.3887,807.9805 Q372.5449,807.9023 372.748,807.9023 Q373.0762,807.9023 373.3262,808.168 Q373.5918,808.418 373.5918,808.7617 Q373.5918,809.1055 373.248,809.5117 Q372.748,810.0898 371.9512,810.418 Q370.873,810.8711 369.5762,810.8711 Q368.0605,810.8711 366.8574,810.2461 Q365.873,809.7461 365.1855,808.6836 Q364.498,807.6055 364.498,806.3242 L364.498,805.168 Q364.498,803.8398 365.1074,802.6992 Q365.7324,801.543 366.8262,800.9336 Q367.9199,800.3086 369.1543,800.3086 Q369.8887,800.3086 370.5293,800.4805 Q371.1855,800.6367 371.7324,800.9961 Z " fill="#000000"/><text fill="#000000" font-family="sans-serif" font-size="14" lengthAdjust="spacing" textLength="157.9648" x="389.4668" y="810.918">CreateScenarioController</text><line style="stroke:#181818;stroke-width:0.5;" x1="255" x2="649.3984" y1="821.1211" y2="821.1211"/><rect fill="none" height="6" style="stroke:#595959;stroke-width:1.0;" width="6" x="262" y="832.9316"/><text fill="#000000" font-family="sans-serif" font-size="14" lengthAdjust="spacing" textLength="217.123" x="274" y="840.2285">authService: AuthenticationService</text><rect fill="none" height="6" style="stroke:#595959;stroke-width:1.0;" width="6" x="262" y="851.5527"/><text fill="#000000" font-family="sans-serif" font-size="14" lengthAdjust="spacing" textLength="214.7578" x="274" y="858.8496">gameRepository: GameRepository</text><rect fill="none" height="6" style="stroke:#595959;stroke-width:1.0;" width="6" x="262" y="870.1738"/><text fill="#000000" font-family="sans-serif" font-size="14" lengthAdjust="spacing" textLength="209.3164" x="274" y="877.4707">scenarioService: ScenarioService</text><rect fill="none" height="6" style="stroke:#595959;stroke-width:1.0;" width="6" x="262" y="888.7949"/><text fill="#000000" font-family="sans-serif" font-size="14" lengthAdjust="spacing" textLength="157.1855" x="274" y="896.0918">mapMapper: MapMapper</text><rect fill="none" height="6" style="stroke:#595959;stroke-width:1.0;" width="6" x="262" y="907.416"/><text fill="#000000" font-family="sans-serif" font-size="14" lengthAdjust="spacing" textLength="303.4746" x="274" y="914.7129">locomotiveTypeMapper: LocomotiveTypeMapper</text><rect fill="none" height="6" style="stroke:#595959;stroke-width:1.0;" width="6" x="262" y="926.0371"/><text fill="#000000" font-family="sans-serif" font-size="14" lengthAdjust="spacing" textLength="263.7852" x="274" y="933.334">industryTypeMapper: IndustryTypeMapper</text><line style="stroke:#181818;stroke-width:0.5;" x1="255" x2="649.3984" y1="940.8477" y2="940.8477"/><ellipse cx="265" cy="955.6582" fill="#A6A6A6" rx="3" ry="3" style="stroke:#545454;stroke-width:1.0;"/><text fill="#000000" font-family="sans-serif" font-size="14" lengthAdjust="spacing" textLength="178.1719" x="274" y="959.9551">getCurrentUserRole(): String</text><ellipse cx="265" cy="974.2793" fill="#A6A6A6" rx="3" ry="3" style="stroke:#545454;stroke-width:1.0;"/><text fill="#000000" font-family="sans-serif" font-size="14" lengthAdjust="spacing" textLength="180.5098" x="274" y="978.5762">getMapList(): List&lt;MapDTO&gt;</text><ellipse cx="265" cy="992.9004" fill="#A6A6A6" rx="3" ry="3" style="stroke:#545454;stroke-width:1.0;"/><text fill="#000000" font-family="sans-serif" font-size="14" lengthAdjust="spacing" textLength="331.4746" x="274" y="997.1973">getLocomotiveTypeList(): List&lt;LocomotiveTypeDTO&gt;</text><ellipse cx="265" cy="1011.5215" fill="#A6A6A6" rx="3" ry="3" style="stroke:#545454;stroke-width:1.0;"/><text fill="#000000" font-family="sans-serif" font-size="14" lengthAdjust="spacing" textLength="287.8887" x="274" y="1015.8184">getIndustryTypeList(): List&lt;IndustryTypeDTO&gt;</text><ellipse cx="265" cy="1030.1426" fill="#A6A6A6" rx="3" ry="3" style="stroke:#545454;stroke-width:1.0;"/><text fill="#000000" font-family="sans-serif" font-size="14" lengthAdjust="spacing" textLength="370.3984" x="274" y="1034.4395">createScenario(request: CreateScenarioRequestDTO): void</text></g><!--class MapDTO--><g id="elem_MapDTO"><rect codeLine="27" fill="#F1F1F1" height="122.4844" id="MapDTO" rx="2.5" ry="2.5" style="stroke:#181818;stroke-width:0.5;" width="105.3721" x="2426" y="185.6211"/><ellipse cx="2448.4637" cy="201.6211" fill="#C2C2C2" rx="11" ry="11" style="stroke:#181818;stroke-width:1.0;"/><path d="M2451.2293,197.4961 Q2451.3855,197.2773 2451.573,197.168 Q2451.7605,197.0586 2451.9793,197.0586 Q2452.3543,197.0586 2452.5887,197.3242 Q2452.823,197.5742 2452.823,198.1836 L2452.823,199.6367 Q2452.823,200.2461 2452.5887,200.5117 Q2452.3543,200.7773 2451.9793,200.7773 Q2451.6355,200.7773 2451.4324,200.5742 Q2451.2293,200.3867 2451.1199,199.8711 Q2451.073,199.5117 2450.8855,199.3242 Q2450.5574,198.9492 2449.948,198.7305 Q2449.3387,198.5117 2448.7137,198.5117 Q2447.948,198.5117 2447.3074,198.8398 Q2446.6824,199.168 2446.1824,199.918 Q2445.698,200.668 2445.698,201.6992 L2445.698,202.793 Q2445.698,204.0273 2446.5887,204.8555 Q2447.4793,205.668 2449.073,205.668 Q2450.0105,205.668 2450.6668,205.418 Q2451.0574,205.2617 2451.4793,204.8242 Q2451.7449,204.5586 2451.8855,204.4805 Q2452.0418,204.4023 2452.2449,204.4023 Q2452.573,204.4023 2452.823,204.668 Q2453.0887,204.918 2453.0887,205.2617 Q2453.0887,205.6055 2452.7449,206.0117 Q2452.2449,206.5898 2451.448,206.918 Q2450.3699,207.3711 2449.073,207.3711 Q2447.5574,207.3711 2446.3543,206.7461 Q2445.3699,206.2461 2444.6824,205.1836 Q2443.9949,204.1055 2443.9949,202.8242 L2443.9949,201.668 Q2443.9949,200.3398 2444.6043,199.1992 Q2445.2293,198.043 2446.323,197.4336 Q2447.4168,196.8086 2448.6512,196.8086 Q2449.3855,196.8086 2450.0262,196.9805 Q2450.6824,197.1367 2451.2293,197.4961 Z " fill="#000000"/><text fill="#000000" font-family="sans-serif" font-size="14" lengthAdjust="spacing" textLength="56.7861" x="2464.1223" y="207.418">MapDTO</text><line style="stroke:#181818;stroke-width:0.5;" x1="2427" x2="2530.3721" y1="217.6211" y2="217.6211"/><ellipse cx="2437" cy="232.4316" fill="none" rx="3" ry="3" style="stroke:#545454;stroke-width:1.0;"/><text fill="#000000" font-family="sans-serif" font-size="14" lengthAdjust="spacing" textLength="49.8203" x="2446" y="236.7285">id: Long</text><ellipse cx="2437" cy="251.0527" fill="none" rx="3" ry="3" style="stroke:#545454;stroke-width:1.0;"/><text fill="#000000" font-family="sans-serif" font-size="14" lengthAdjust="spacing" textLength="79.3721" x="2446" y="255.3496">name: String</text><ellipse cx="2437" cy="269.6738" fill="none" rx="3" ry="3" style="stroke:#545454;stroke-width:1.0;"/><text fill="#000000" font-family="sans-serif" font-size="14" lengthAdjust="spacing" textLength="55.248" x="2446" y="273.9707">width: int</text><ellipse cx="2437" cy="288.2949" fill="none" rx="3" ry="3" style="stroke:#545454;stroke-width:1.0;"/><text fill="#000000" font-family="sans-serif" font-size="14" lengthAdjust="spacing" textLength="60.71" x="2446" y="292.5918">height: int</text><line style="stroke:#181818;stroke-width:0.5;" x1="2427" x2="2530.3721" y1="300.1055" y2="300.1055"/></g><!--class LocomotiveTypeDTO--><g id="elem_LocomotiveTypeDTO"><rect codeLine="34" fill="#F1F1F1" height="122.4844" id="LocomotiveTypeDTO" rx="2.5" ry="2.5" style="stroke:#181818;stroke-width:0.5;" width="164.2686" x="2396.5" y="413.6211"/><ellipse cx="2411.5" cy="429.6211" fill="#C2C2C2" rx="11" ry="11" style="stroke:#181818;stroke-width:1.0;"/><path d="M2414.2656,425.4961 Q2414.4219,425.2773 2414.6094,425.168 Q2414.7969,425.0586 2415.0156,425.0586 Q2415.3906,425.0586 2415.625,425.3242 Q2415.8594,425.5742 2415.8594,426.1836 L2415.8594,427.6367 Q2415.8594,428.2461 2415.625,428.5117 Q2415.3906,428.7773 2415.0156,428.7773 Q2414.6719,428.7773 2414.4688,428.5742 Q2414.2656,428.3867 2414.1563,427.8711 Q2414.1094,427.5117 2413.9219,427.3242 Q2413.5938,426.9492 2412.9844,426.7305 Q2412.375,426.5117 2411.75,426.5117 Q2410.9844,426.5117 2410.3438,426.8398 Q2409.7188,427.168 2409.2188,427.918 Q2408.7344,428.668 2408.7344,429.6992 L2408.7344,430.793 Q2408.7344,432.0273 2409.625,432.8555 Q2410.5156,433.668 2412.1094,433.668 Q2413.0469,433.668 2413.7031,433.418 Q2414.0938,433.2617 2414.5156,432.8242 Q2414.7813,432.5586 2414.9219,432.4805 Q2415.0781,432.4023 2415.2813,432.4023 Q2415.6094,432.4023 2415.8594,432.668 Q2416.125,432.918 2416.125,433.2617 Q2416.125,433.6055 2415.7813,434.0117 Q2415.2813,434.5898 2414.4844,434.918 Q2413.4063,435.3711 2412.1094,435.3711 Q2410.5938,435.3711 2409.3906,434.7461 Q2408.4063,434.2461 2407.7188,433.1836 Q2407.0313,432.1055 2407.0313,430.8242 L2407.0313,429.668 Q2407.0313,428.3398 2407.6406,427.1992 Q2408.2656,426.043 2409.3594,425.4336 Q2410.4531,424.8086 2411.6875,424.8086 Q2412.4219,424.8086 2413.0625,424.9805 Q2413.7188,425.1367 2414.2656,425.4961 Z " fill="#000000"/><text fill="#000000" font-family="sans-serif" font-size="14" lengthAdjust="spacing" textLength="132.2686" x="2425.5" y="435.418">LocomotiveTypeDTO</text><line style="stroke:#181818;stroke-width:0.5;" x1="2397.5" x2="2559.7686" y1="445.6211" y2="445.6211"/><ellipse cx="2407.5" cy="460.4316" fill="none" rx="3" ry="3" style="stroke:#545454;stroke-width:1.0;"/><text fill="#000000" font-family="sans-serif" font-size="14" lengthAdjust="spacing" textLength="79.3721" x="2416.5" y="464.7285">name: String</text><ellipse cx="2407.5" cy="479.0527" fill="none" rx="3" ry="3" style="stroke:#545454;stroke-width:1.0;"/><text fill="#000000" font-family="sans-serif" font-size="14" lengthAdjust="spacing" textLength="87.9648" x="2416.5" y="483.3496">speed: double</text><ellipse cx="2407.5" cy="497.6738" fill="none" rx="3" ry="3" style="stroke:#545454;stroke-width:1.0;"/><text fill="#000000" font-family="sans-serif" font-size="14" lengthAdjust="spacing" textLength="87.9512" x="2416.5" y="501.9707">power: double</text><ellipse cx="2407.5" cy="516.2949" fill="none" rx="3" ry="3" style="stroke:#545454;stroke-width:1.0;"/><text fill="#000000" font-family="sans-serif" font-size="14" lengthAdjust="spacing" textLength="75.4961" x="2416.5" y="520.5918">cost: double</text><line style="stroke:#181818;stroke-width:0.5;" x1="2397.5" x2="2559.7686" y1="528.1055" y2="528.1055"/></g><!--class IndustryTypeDTO--><g id="elem_IndustryTypeDTO"><rect codeLine="41" fill="#F1F1F1" height="103.8633" id="IndustryTypeDTO" rx="2.5" ry="2.5" style="stroke:#181818;stroke-width:0.5;" width="184.7715" x="2386" y="46.6211"/><ellipse cx="2420.0332" cy="62.6211" fill="#C2C2C2" rx="11" ry="11" style="stroke:#181818;stroke-width:1.0;"/><path d="M2422.7988,58.4961 Q2422.955,58.2773 2423.1425,58.168 Q2423.33,58.0586 2423.5488,58.0586 Q2423.9238,58.0586 2424.1582,58.3242 Q2424.3925,58.5742 2424.3925,59.1836 L2424.3925,60.6367 Q2424.3925,61.2461 2424.1582,61.5117 Q2423.9238,61.7773 2423.5488,61.7773 Q2423.205,61.7773 2423.0019,61.5742 Q2422.7988,61.3867 2422.6894,60.8711 Q2422.6425,60.5117 2422.455,60.3242 Q2422.1269,59.9492 2421.5175,59.7305 Q2420.9082,59.5117 2420.2832,59.5117 Q2419.5175,59.5117 2418.8769,59.8398 Q2418.2519,60.168 2417.7519,60.918 Q2417.2675,61.668 2417.2675,62.6992 L2417.2675,63.793 Q2417.2675,65.0273 2418.1582,65.8555 Q2419.0488,66.668 2420.6425,66.668 Q2421.58,66.668 2422.2363,66.418 Q2422.6269,66.2617 2423.0488,65.8242 Q2423.3144,65.5586 2423.455,65.4805 Q2423.6113,65.4023 2423.8144,65.4023 Q2424.1425,65.4023 2424.3925,65.668 Q2424.6582,65.918 2424.6582,66.2617 Q2424.6582,66.6055 2424.3144,67.0117 Q2423.8144,67.5898 2423.0175,67.918 Q2421.9394,68.3711 2420.6425,68.3711 Q2419.1269,68.3711 2417.9238,67.7461 Q2416.9394,67.2461 2416.2519,66.1836 Q2415.5644,65.1055 2415.5644,63.8242 L2415.5644,62.668 Q2415.5644,61.3398 2416.1738,60.1992 Q2416.7988,59.043 2417.8925,58.4336 Q2418.9863,57.8086 2420.2207,57.8086 Q2420.955,57.8086 2421.5957,57.9805 Q2422.2519,58.1367 2422.7988,58.4961 Z " fill="#000000"/><text fill="#000000" font-family="sans-serif" font-size="14" lengthAdjust="spacing" textLength="110.4756" x="2438.2627" y="68.418">IndustryTypeDTO</text><line style="stroke:#181818;stroke-width:0.5;" x1="2387" x2="2569.7715" y1="78.6211" y2="78.6211"/><ellipse cx="2397" cy="93.4316" fill="none" rx="3" ry="3" style="stroke:#545454;stroke-width:1.0;"/><text fill="#000000" font-family="sans-serif" font-size="14" lengthAdjust="spacing" textLength="79.3721" x="2406" y="97.7285">name: String</text><ellipse cx="2397" cy="112.0527" fill="none" rx="3" ry="3" style="stroke:#545454;stroke-width:1.0;"/><text fill="#000000" font-family="sans-serif" font-size="14" lengthAdjust="spacing" textLength="144.7715" x="2406" y="116.3496">productionRate: double</text><ellipse cx="2397" cy="130.6738" fill="none" rx="3" ry="3" style="stroke:#545454;stroke-width:1.0;"/><text fill="#000000" font-family="sans-serif" font-size="14" lengthAdjust="spacing" textLength="158.7715" x="2406" y="134.9707">consumptionRate: double</text><line style="stroke:#181818;stroke-width:0.5;" x1="2387" x2="2569.7715" y1="142.4844" y2="142.4844"/></g><!--class CreateScenarioRequestDTO--><g id="elem_CreateScenarioRequestDTO"><rect codeLine="48" fill="#F1F1F1" height="178.3477" id="CreateScenarioRequestDTO" rx="2.5" ry="2.5" style="stroke:#181818;stroke-width:0.5;" width="263.3232" x="320.5" y="1077.6211"/><ellipse cx="359.0582" cy="1093.6211" fill="#C2C2C2" rx="11" ry="11" style="stroke:#181818;stroke-width:1.0;"/><path d="M361.8238,1089.4961 Q361.9801,1089.2773 362.1676,1089.168 Q362.3551,1089.0586 362.5738,1089.0586 Q362.9488,1089.0586 363.1832,1089.3242 Q363.4176,1089.5742 363.4176,1090.1836 L363.4176,1091.6367 Q363.4176,1092.2461 363.1832,1092.5117 Q362.9488,1092.7773 362.5738,1092.7773 Q362.2301,1092.7773 362.027,1092.5742 Q361.8238,1092.3867 361.7145,1091.8711 Q361.6676,1091.5117 361.4801,1091.3242 Q361.152,1090.9492 360.5426,1090.7305 Q359.9332,1090.5117 359.3082,1090.5117 Q358.5426,1090.5117 357.902,1090.8398 Q357.277,1091.168 356.777,1091.918 Q356.2926,1092.668 356.2926,1093.6992 L356.2926,1094.793 Q356.2926,1096.0273 357.1832,1096.8555 Q358.0738,1097.668 359.6676,1097.668 Q360.6051,1097.668 361.2613,1097.418 Q361.652,1097.2617 362.0738,1096.8242 Q362.3395,1096.5586 362.4801,1096.4805 Q362.6363,1096.4023 362.8395,1096.4023 Q363.1676,1096.4023 363.4176,1096.668 Q363.6832,1096.918 363.6832,1097.2617 Q363.6832,1097.6055 363.3395,1098.0117 Q362.8395,1098.5898 362.0426,1098.918 Q360.9645,1099.3711 359.6676,1099.3711 Q358.152,1099.3711 356.9488,1098.7461 Q355.9645,1098.2461 355.277,1097.1836 Q354.5895,1096.1055 354.5895,1094.8242 L354.5895,1093.668 Q354.5895,1092.3398 355.1988,1091.1992 Q355.8238,1090.043 356.9176,1089.4336 Q358.0113,1088.8086 359.2457,1088.8086 Q359.9801,1088.8086 360.6207,1088.9805 Q361.277,1089.1367 361.8238,1089.4961 Z " fill="#000000"/><text fill="#000000" font-family="sans-serif" font-size="14" lengthAdjust="spacing" textLength="178.9717" x="378.2934" y="1099.418">CreateScenarioRequestDTO</text><line style="stroke:#181818;stroke-width:0.5;" x1="321.5" x2="582.8232" y1="1109.6211" y2="1109.6211"/><ellipse cx="331.5" cy="1124.4316" fill="none" rx="3" ry="3" style="stroke:#545454;stroke-width:1.0;"/><text fill="#000000" font-family="sans-serif" font-size="14" lengthAdjust="spacing" textLength="77.834" x="340.5" y="1128.7285">mapId: Long</text><ellipse cx="331.5" cy="1143.0527" fill="none" rx="3" ry="3" style="stroke:#545454;stroke-width:1.0;"/><text fill="#000000" font-family="sans-serif" font-size="14" lengthAdjust="spacing" textLength="79.3721" x="340.5" y="1147.3496">name: String</text><ellipse cx="331.5" cy="1161.6738" fill="none" rx="3" ry="3" style="stroke:#545454;stroke-width:1.0;"/><text fill="#000000" font-family="sans-serif" font-size="14" lengthAdjust="spacing" textLength="95.6895" x="340.5" y="1165.9707">startTime: Date</text><ellipse cx="331.5" cy="1180.2949" fill="none" rx="3" ry="3" style="stroke:#545454;stroke-width:1.0;"/><text fill="#000000" font-family="sans-serif" font-size="14" lengthAdjust="spacing" textLength="91.8203" x="340.5" y="1184.5918">endTime: Date</text><ellipse cx="331.5" cy="1198.916" fill="none" rx="3" ry="3" style="stroke:#545454;stroke-width:1.0;"/><text fill="#000000" font-family="sans-serif" font-size="14" lengthAdjust="spacing" textLength="193.7783" x="340.5" y="1203.2129">locomotiveTypeIds: List&lt;Long&gt;</text><ellipse cx="331.5" cy="1217.5371" fill="none" rx="3" ry="3" style="stroke:#545454;stroke-width:1.0;"/><text fill="#000000" font-family="sans-serif" font-size="14" lengthAdjust="spacing" textLength="175.8818" x="340.5" y="1221.834">industryTypeIds: List&lt;Long&gt;</text><ellipse cx="331.5" cy="1236.1582" fill="none" rx="3" ry="3" style="stroke:#545454;stroke-width:1.0;"/><text fill="#000000" font-family="sans-serif" font-size="14" lengthAdjust="spacing" textLength="237.3232" x="340.5" y="1240.4551">historicalEvents: List&lt;HistoricalEvent&gt;</text><line style="stroke:#181818;stroke-width:0.5;" x1="321.5" x2="582.8232" y1="1247.9688" y2="1247.9688"/></g><!--class Mapper--><g id="elem_Mapper"><rect codeLine="59" fill="#F1F1F1" height="85.2422" id="Mapper" rx="2.5" ry="2.5" style="stroke:#181818;stroke-width:0.5;" width="233.7373" x="2361.5" y="571.1211"/><ellipse cx="2444.7192" cy="587.1211" fill="#B1B1B1" rx="11" ry="11" style="stroke:#181818;stroke-width:1.0;"/><path d="M2445.6724,583.7617 L2445.6724,590.418 L2447.3911,590.418 Q2448.0005,590.418 2448.2661,590.6523 Q2448.5317,590.8867 2448.5317,591.2773 Q2448.5317,591.6523 2448.2661,591.8867 Q2448.0005,592.1211 2447.3911,592.1211 L2442.2505,592.1211 Q2441.6411,592.1211 2441.3755,591.8867 Q2441.1099,591.6523 2441.1099,591.2617 Q2441.1099,590.8867 2441.3755,590.6523 Q2441.6411,590.418 2442.2505,590.418 L2443.9692,590.418 L2443.9692,583.7617 L2442.2505,583.7617 Q2441.6411,583.7617 2441.3755,583.5273 Q2441.1099,583.293 2441.1099,582.9023 Q2441.1099,582.5273 2441.3755,582.293 Q2441.6411,582.0586 2442.2505,582.0586 L2447.3911,582.0586 Q2448.0005,582.0586 2448.2661,582.293 Q2448.5317,582.5273 2448.5317,582.9023 Q2448.5317,583.293 2448.2661,583.5273 Q2448.0005,583.7617 2447.3911,583.7617 L2445.6724,583.7617 Z " fill="#000000"/><text fill="#000000" font-family="sans-serif" font-size="14" font-style="italic" lengthAdjust="spacing" textLength="47.4688" x="2465.2192" y="592.918">Mapper</text><rect fill="#FFFFFF" height="17.9609" style="stroke:#181818;stroke-width:1.0;stroke-dasharray:2.0,2.0;" width="9.3301" x="2588.9072" y="568.1211"/><text fill="#000000" font-family="sans-serif" font-size="12" font-style="italic" lengthAdjust="spacing" textLength="7.3301" x="2589.9072" y="582.0703">T</text><line style="stroke:#181818;stroke-width:0.5;" x1="2362.5" x2="2594.2373" y1="603.1211" y2="603.1211"/><line style="stroke:#181818;stroke-width:0.5;" x1="2362.5" x2="2594.2373" y1="611.1211" y2="611.1211"/><ellipse cx="2372.5" cy="625.9316" fill="#A6A6A6" rx="3" ry="3" style="stroke:#545454;stroke-width:1.0;"/><text fill="#000000" font-family="sans-serif" font-size="14" lengthAdjust="spacing" textLength="109.6758" x="2381.5" y="630.2285">toDTO(type: T): T</text><ellipse cx="2372.5" cy="644.5527" fill="#A6A6A6" rx="3" ry="3" style="stroke:#545454;stroke-width:1.0;"/><text fill="#000000" font-family="sans-serif" font-size="14" lengthAdjust="spacing" textLength="207.7373" x="2381.5" y="648.8496">toDTOList(type: List&lt;T&gt;): List&lt;T&gt;</text></g><!--class MapMapper--><g id="elem_MapMapper"><rect codeLine="65" fill="#F1F1F1" height="85.2422" id="MapMapper" rx="2.5" ry="2.5" style="stroke:#181818;stroke-width:0.5;" width="308.4268" x="1093.5" y="753.1211"/><ellipse cx="1206.1118" cy="769.1211" fill="#C2C2C2" rx="11" ry="11" style="stroke:#181818;stroke-width:1.0;"/><path d="M1208.8774,764.9961 Q1209.0337,764.7773 1209.2212,764.668 Q1209.4087,764.5586 1209.6274,764.5586 Q1210.0024,764.5586 1210.2368,764.8242 Q1210.4712,765.0742 1210.4712,765.6836 L1210.4712,767.1367 Q1210.4712,767.7461 1210.2368,768.0117 Q1210.0024,768.2773 1209.6274,768.2773 Q1209.2837,768.2773 1209.0806,768.0742 Q1208.8774,767.8867 1208.7681,767.3711 Q1208.7212,767.0117 1208.5337,766.8242 Q1208.2056,766.4492 1207.5962,766.2305 Q1206.9868,766.0117 1206.3618,766.0117 Q1205.5962,766.0117 1204.9556,766.3398 Q1204.3306,766.668 1203.8306,767.418 Q1203.3462,768.168 1203.3462,769.1992 L1203.3462,770.293 Q1203.3462,771.5273 1204.2368,772.3555 Q1205.1274,773.168 1206.7212,773.168 Q1207.6587,773.168 1208.3149,772.918 Q1208.7056,772.7617 1209.1274,772.3242 Q1209.3931,772.0586 1209.5337,771.9805 Q1209.6899,771.9023 1209.8931,771.9023 Q1210.2212,771.9023 1210.4712,772.168 Q1210.7368,772.418 1210.7368,772.7617 Q1210.7368,773.1055 1210.3931,773.5117 Q1209.8931,774.0898 1209.0962,774.418 Q1208.0181,774.8711 1206.7212,774.8711 Q1205.2056,774.8711 1204.0024,774.2461 Q1203.0181,773.7461 1202.3306,772.6836 Q1201.6431,771.6055 1201.6431,770.3242 L1201.6431,769.168 Q1201.6431,767.8398 1202.2524,766.6992 Q1202.8774,765.543 1203.9712,764.9336 Q1205.0649,764.3086 1206.2993,764.3086 Q1207.0337,764.3086 1207.6743,764.4805 Q1208.3306,764.6367 1208.8774,764.9961 Z " fill="#000000"/><text fill="#000000" font-family="sans-serif" font-size="14" lengthAdjust="spacing" textLength="74.7031" x="1226.6118" y="774.918">MapMapper</text><line style="stroke:#181818;stroke-width:0.5;" x1="1094.5" x2="1400.9268" y1="785.1211" y2="785.1211"/><line style="stroke:#181818;stroke-width:0.5;" x1="1094.5" x2="1400.9268" y1="793.1211" y2="793.1211"/><ellipse cx="1104.5" cy="807.9316" fill="#A6A6A6" rx="3" ry="3" style="stroke:#545454;stroke-width:1.0;"/><text fill="#000000" font-family="sans-serif" font-size="14" lengthAdjust="spacing" textLength="177.3652" x="1113.5" y="812.2285">toDTO(map: Map): MapDTO</text><ellipse cx="1104.5" cy="826.5527" fill="#A6A6A6" rx="3" ry="3" style="stroke:#545454;stroke-width:1.0;"/><text fill="#000000" font-family="sans-serif" font-size="14" lengthAdjust="spacing" textLength="282.4268" x="1113.5" y="830.8496">toDTOList(maps: List&lt;Map&gt;): List&lt;MapDTO&gt;</text></g><!--class LocomotiveTypeMapper--><g id="elem_LocomotiveTypeMapper"><rect codeLine="70" fill="#F1F1F1" height="85.2422" id="LocomotiveTypeMapper" rx="2.5" ry="2.5" style="stroke:#181818;stroke-width:0.5;" width="458.6191" x="1018" y="873.1211"/><ellipse cx="1167.9668" cy="889.1211" fill="#C2C2C2" rx="11" ry="11" style="stroke:#181818;stroke-width:1.0;"/><path d="M1170.7324,884.9961 Q1170.8887,884.7773 1171.0762,884.668 Q1171.2637,884.5586 1171.4824,884.5586 Q1171.8574,884.5586 1172.0918,884.8242 Q1172.3262,885.0742 1172.3262,885.6836 L1172.3262,887.1367 Q1172.3262,887.7461 1172.0918,888.0117 Q1171.8574,888.2773 1171.4824,888.2773 Q1171.1387,888.2773 1170.9355,888.0742 Q1170.7324,887.8867 1170.623,887.3711 Q1170.5762,887.0117 1170.3887,886.8242 Q1170.0605,886.4492 1169.4512,886.2305 Q1168.8418,886.0117 1168.2168,886.0117 Q1167.4512,886.0117 1166.8105,886.3398 Q1166.1855,886.668 1165.6855,887.418 Q1165.2012,888.168 1165.2012,889.1992 L1165.2012,890.293 Q1165.2012,891.5273 1166.0918,892.3555 Q1166.9824,893.168 1168.5762,893.168 Q1169.5137,893.168 1170.1699,892.918 Q1170.5605,892.7617 1170.9824,892.3242 Q1171.248,892.0586 1171.3887,891.9805 Q1171.5449,891.9023 1171.748,891.9023 Q1172.0762,891.9023 1172.3262,892.168 Q1172.5918,892.418 1172.5918,892.7617 Q1172.5918,893.1055 1172.248,893.5117 Q1171.748,894.0898 1170.9512,894.418 Q1169.873,894.8711 1168.5762,894.8711 Q1167.0605,894.8711 1165.8574,894.2461 Q1164.873,893.7461 1164.1855,892.6836 Q1163.498,891.6055 1163.498,890.3242 L1163.498,889.168 Q1163.498,887.8398 1164.1074,886.6992 Q1164.7324,885.543 1165.8262,884.9336 Q1166.9199,884.3086 1168.1543,884.3086 Q1168.8887,884.3086 1169.5293,884.4805 Q1170.1855,884.6367 1170.7324,884.9961 Z " fill="#000000"/><text fill="#000000" font-family="sans-serif" font-size="14" lengthAdjust="spacing" textLength="150.1855" x="1188.4668" y="894.918">LocomotiveTypeMapper</text><line style="stroke:#181818;stroke-width:0.5;" x1="1019" x2="1475.6191" y1="905.1211" y2="905.1211"/><line style="stroke:#181818;stroke-width:0.5;" x1="1019" x2="1475.6191" y1="913.1211" y2="913.1211"/><ellipse cx="1029" cy="927.9316" fill="#A6A6A6" rx="3" ry="3" style="stroke:#545454;stroke-width:1.0;"/><text fill="#000000" font-family="sans-serif" font-size="14" lengthAdjust="spacing" textLength="327.5576" x="1038" y="932.2285">toDTO(type: LocomotiveType): LocomotiveTypeDTO</text><ellipse cx="1029" cy="946.5527" fill="#A6A6A6" rx="3" ry="3" style="stroke:#545454;stroke-width:1.0;"/><text fill="#000000" font-family="sans-serif" font-size="14" lengthAdjust="spacing" textLength="432.6191" x="1038" y="950.8496">toDTOList(types: List&lt;LocomotiveType&gt;): List&lt;LocomotiveTypeDTO&gt;</text></g><!--class IndustryTypeMapper--><g id="elem_IndustryTypeMapper"><rect codeLine="75" fill="#F1F1F1" height="85.2422" id="IndustryTypeMapper" rx="2.5" ry="2.5" style="stroke:#181818;stroke-width:0.5;" width="415.0332" x="1040" y="380.1211"/><ellipse cx="1179.0703" cy="396.1211" fill="#C2C2C2" rx="11" ry="11" style="stroke:#181818;stroke-width:1.0;"/><path d="M1181.8359,391.9961 Q1181.9922,391.7773 1182.1797,391.668 Q1182.3672,391.5586 1182.5859,391.5586 Q1182.9609,391.5586 1183.1953,391.8242 Q1183.4297,392.0742 1183.4297,392.6836 L1183.4297,394.1367 Q1183.4297,394.7461 1183.1953,395.0117 Q1182.9609,395.2773 1182.5859,395.2773 Q1182.2422,395.2773 1182.0391,395.0742 Q1181.8359,394.8867 1181.7266,394.3711 Q1181.6797,394.0117 1181.4922,393.8242 Q1181.1641,393.4492 1180.5547,393.2305 Q1179.9453,393.0117 1179.3203,393.0117 Q1178.5547,393.0117 1177.9141,393.3398 Q1177.2891,393.668 1176.7891,394.418 Q1176.3047,395.168 1176.3047,396.1992 L1176.3047,397.293 Q1176.3047,398.5273 1177.1953,399.3555 Q1178.0859,400.168 1179.6797,400.168 Q1180.6172,400.168 1181.2734,399.918 Q1181.6641,399.7617 1182.0859,399.3242 Q1182.3516,399.0586 1182.4922,398.9805 Q1182.6484,398.9023 1182.8516,398.9023 Q1183.1797,398.9023 1183.4297,399.168 Q1183.6953,399.418 1183.6953,399.7617 Q1183.6953,400.1055 1183.3516,400.5117 Q1182.8516,401.0898 1182.0547,401.418 Q1180.9766,401.8711 1179.6797,401.8711 Q1178.1641,401.8711 1176.9609,401.2461 Q1175.9766,400.7461 1175.2891,399.6836 Q1174.6016,398.6055 1174.6016,397.3242 L1174.6016,396.168 Q1174.6016,394.8398 1175.2109,393.6992 Q1175.8359,392.543 1176.9297,391.9336 Q1178.0234,391.3086 1179.2578,391.3086 Q1179.9922,391.3086 1180.6328,391.4805 Q1181.2891,391.6367 1181.8359,391.9961 Z " fill="#000000"/><text fill="#000000" font-family="sans-serif" font-size="14" lengthAdjust="spacing" textLength="128.3926" x="1199.5703" y="401.918">IndustryTypeMapper</text><line style="stroke:#181818;stroke-width:0.5;" x1="1041" x2="1454.0332" y1="412.1211" y2="412.1211"/><line style="stroke:#181818;stroke-width:0.5;" x1="1041" x2="1454.0332" y1="420.1211" y2="420.1211"/><ellipse cx="1051" cy="434.9316" fill="#A6A6A6" rx="3" ry="3" style="stroke:#545454;stroke-width:1.0;"/><text fill="#000000" font-family="sans-serif" font-size="14" lengthAdjust="spacing" textLength="283.9717" x="1060" y="439.2285">toDTO(type: IndustryType): IndustryTypeDTO</text><ellipse cx="1051" cy="453.5527" fill="#A6A6A6" rx="3" ry="3" style="stroke:#545454;stroke-width:1.0;"/><text fill="#000000" font-family="sans-serif" font-size="14" lengthAdjust="spacing" textLength="389.0332" x="1060" y="457.8496">toDTOList(types: List&lt;IndustryType&gt;): List&lt;IndustryTypeDTO&gt;</text></g><!--class MapRepository--><g id="elem_MapRepository"><rect codeLine="80" fill="#F1F1F1" height="85.2422" id="MapRepository" rx="2.5" ry="2.5" style="stroke:#181818;stroke-width:0.5;" width="177.7305" x="2389.5" y="1171.1211"/><ellipse cx="2427.7106" cy="1187.1211" fill="#C2C2C2" rx="11" ry="11" style="stroke:#181818;stroke-width:1.0;"/><path d="M2430.4762,1182.9961 Q2430.6325,1182.7773 2430.82,1182.668 Q2431.0075,1182.5586 2431.2262,1182.5586 Q2431.6012,1182.5586 2431.8356,1182.8242 Q2432.07,1183.0742 2432.07,1183.6836 L2432.07,1185.1367 Q2432.07,1185.7461 2431.8356,1186.0117 Q2431.6012,1186.2773 2431.2262,1186.2773 Q2430.8825,1186.2773 2430.6793,1186.0742 Q2430.4762,1185.8867 2430.3668,1185.3711 Q2430.32,1185.0117 2430.1325,1184.8242 Q2429.8043,1184.4492 2429.195,1184.2305 Q2428.5856,1184.0117 2427.9606,1184.0117 Q2427.195,1184.0117 2426.5543,1184.3398 Q2425.9293,1184.668 2425.4293,1185.418 Q2424.945,1186.168 2424.945,1187.1992 L2424.945,1188.293 Q2424.945,1189.5273 2425.8356,1190.3555 Q2426.7262,1191.168 2428.32,1191.168 Q2429.2575,1191.168 2429.9137,1190.918 Q2430.3043,1190.7617 2430.7262,1190.3242 Q2430.9918,1190.0586 2431.1325,1189.9805 Q2431.2887,1189.9023 2431.4918,1189.9023 Q2431.82,1189.9023 2432.07,1190.168 Q2432.3356,1190.418 2432.3356,1190.7617 Q2432.3356,1191.1055 2431.9918,1191.5117 Q2431.4918,1192.0898 2430.695,1192.418 Q2429.6168,1192.8711 2428.32,1192.8711 Q2426.8043,1192.8711 2425.6012,1192.2461 Q2424.6168,1191.7461 2423.9293,1190.6836 Q2423.2418,1189.6055 2423.2418,1188.3242 L2423.2418,1187.168 Q2423.2418,1185.8398 2423.8512,1184.6992 Q2424.4762,1183.543 2425.57,1182.9336 Q2426.6637,1182.3086 2427.8981,1182.3086 Q2428.6325,1182.3086 2429.2731,1182.4805 Q2429.9293,1182.6367 2430.4762,1182.9961 Z " fill="#000000"/><text fill="#000000" font-family="sans-serif" font-size="14" lengthAdjust="spacing" textLength="94.1514" x="2446.8685" y="1192.918">MapRepository</text><line style="stroke:#181818;stroke-width:0.5;" x1="2390.5" x2="2566.2305" y1="1203.1211" y2="1203.1211"/><line style="stroke:#181818;stroke-width:0.5;" x1="2390.5" x2="2566.2305" y1="1211.1211" y2="1211.1211"/><ellipse cx="2400.5" cy="1225.9316" fill="#A6A6A6" rx="3" ry="3" style="stroke:#545454;stroke-width:1.0;"/><text fill="#000000" font-family="sans-serif" font-size="14" lengthAdjust="spacing" textLength="151.7305" x="2409.5" y="1230.2285">getAllMaps(): List&lt;Map&gt;</text><ellipse cx="2400.5" cy="1244.5527" fill="#A6A6A6" rx="3" ry="3" style="stroke:#545454;stroke-width:1.0;"/><text fill="#000000" font-family="sans-serif" font-size="14" lengthAdjust="spacing" textLength="144.7441" x="2409.5" y="1248.8496">findById(id: Long): Map</text></g><!--class LocomotiveTypeRepository--><g id="elem_LocomotiveTypeRepository"><rect codeLine="85" fill="#F1F1F1" height="85.2422" id="LocomotiveTypeRepository" rx="2.5" ry="2.5" style="stroke:#181818;stroke-width:0.5;" width="336.502" x="1079" y="513.1211"/><ellipse cx="1158.1841" cy="529.1211" fill="#C2C2C2" rx="11" ry="11" style="stroke:#181818;stroke-width:1.0;"/><path d="M1160.9497,524.9961 Q1161.106,524.7773 1161.2935,524.668 Q1161.481,524.5586 1161.6997,524.5586 Q1162.0747,524.5586 1162.3091,524.8242 Q1162.5435,525.0742 1162.5435,525.6836 L1162.5435,527.1367 Q1162.5435,527.7461 1162.3091,528.0117 Q1162.0747,528.2773 1161.6997,528.2773 Q1161.356,528.2773 1161.1528,528.0742 Q1160.9497,527.8867 1160.8403,527.3711 Q1160.7935,527.0117 1160.606,526.8242 Q1160.2778,526.4492 1159.6685,526.2305 Q1159.0591,526.0117 1158.4341,526.0117 Q1157.6685,526.0117 1157.0278,526.3398 Q1156.4028,526.668 1155.9028,527.418 Q1155.4185,528.168 1155.4185,529.1992 L1155.4185,530.293 Q1155.4185,531.5273 1156.3091,532.3555 Q1157.1997,533.168 1158.7935,533.168 Q1159.731,533.168 1160.3872,532.918 Q1160.7778,532.7617 1161.1997,532.3242 Q1161.4653,532.0586 1161.606,531.9805 Q1161.7622,531.9023 1161.9653,531.9023 Q1162.2935,531.9023 1162.5435,532.168 Q1162.8091,532.418 1162.8091,532.7617 Q1162.8091,533.1055 1162.4653,533.5117 Q1161.9653,534.0898 1161.1685,534.418 Q1160.0903,534.8711 1158.7935,534.8711 Q1157.2778,534.8711 1156.0747,534.2461 Q1155.0903,533.7461 1154.4028,532.6836 Q1153.7153,531.6055 1153.7153,530.3242 L1153.7153,529.168 Q1153.7153,527.8398 1154.3247,526.6992 Q1154.9497,525.543 1156.0435,524.9336 Q1157.1372,524.3086 1158.3716,524.3086 Q1159.106,524.3086 1159.7466,524.4805 Q1160.4028,524.6367 1160.9497,524.9961 Z " fill="#000000"/><text fill="#000000" font-family="sans-serif" font-size="14" lengthAdjust="spacing" textLength="169.6338" x="1178.6841" y="534.918">LocomotiveTypeRepository</text><line style="stroke:#181818;stroke-width:0.5;" x1="1080" x2="1414.502" y1="545.1211" y2="545.1211"/><line style="stroke:#181818;stroke-width:0.5;" x1="1080" x2="1414.502" y1="553.1211" y2="553.1211"/><ellipse cx="1090" cy="567.9316" fill="#A6A6A6" rx="3" ry="3" style="stroke:#545454;stroke-width:1.0;"/><text fill="#000000" font-family="sans-serif" font-size="14" lengthAdjust="spacing" textLength="302.6953" x="1099" y="572.2285">getAllLocomotiveTypes(): List&lt;LocomotiveType&gt;</text><ellipse cx="1090" cy="586.5527" fill="#A6A6A6" rx="3" ry="3" style="stroke:#545454;stroke-width:1.0;"/><text fill="#000000" font-family="sans-serif" font-size="14" lengthAdjust="spacing" textLength="310.502" x="1099" y="590.8496">findByIds(ids: List&lt;Long&gt;): List&lt;LocomotiveType&gt;</text></g><!--class IndustryTypeRepository--><g id="elem_IndustryTypeRepository"><rect codeLine="90" fill="#F1F1F1" height="85.2422" id="IndustryTypeRepository" rx="2.5" ry="2.5" style="stroke:#181818;stroke-width:0.5;" width="314.709" x="1090" y="633.1211"/><ellipse cx="1169.1841" cy="649.1211" fill="#C2C2C2" rx="11" ry="11" style="stroke:#181818;stroke-width:1.0;"/><path d="M1171.9497,644.9961 Q1172.106,644.7773 1172.2935,644.668 Q1172.481,644.5586 1172.6997,644.5586 Q1173.0747,644.5586 1173.3091,644.8242 Q1173.5435,645.0742 1173.5435,645.6836 L1173.5435,647.1367 Q1173.5435,647.7461 1173.3091,648.0117 Q1173.0747,648.2773 1172.6997,648.2773 Q1172.356,648.2773 1172.1528,648.0742 Q1171.9497,647.8867 1171.8403,647.3711 Q1171.7935,647.0117 1171.606,646.8242 Q1171.2778,646.4492 1170.6685,646.2305 Q1170.0591,646.0117 1169.4341,646.0117 Q1168.6685,646.0117 1168.0278,646.3398 Q1167.4028,646.668 1166.9028,647.418 Q1166.4185,648.168 1166.4185,649.1992 L1166.4185,650.293 Q1166.4185,651.5273 1167.3091,652.3555 Q1168.1997,653.168 1169.7935,653.168 Q1170.731,653.168 1171.3872,652.918 Q1171.7778,652.7617 1172.1997,652.3242 Q1172.4653,652.0586 1172.606,651.9805 Q1172.7622,651.9023 1172.9653,651.9023 Q1173.2935,651.9023 1173.5435,652.168 Q1173.8091,652.418 1173.8091,652.7617 Q1173.8091,653.1055 1173.4653,653.5117 Q1172.9653,654.0898 1172.1685,654.418 Q1171.0903,654.8711 1169.7935,654.8711 Q1168.2778,654.8711 1167.0747,654.2461 Q1166.0903,653.7461 1165.4028,652.6836 Q1164.7153,651.6055 1164.7153,650.3242 L1164.7153,649.168 Q1164.7153,647.8398 1165.3247,646.6992 Q1165.9497,645.543 1167.0435,644.9336 Q1168.1372,644.3086 1169.3716,644.3086 Q1170.106,644.3086 1170.7466,644.4805 Q1171.4028,644.6367 1171.9497,644.9961 Z " fill="#000000"/><text fill="#000000" font-family="sans-serif" font-size="14" lengthAdjust="spacing" textLength="147.8408" x="1189.6841" y="654.918">IndustryTypeRepository</text><line style="stroke:#181818;stroke-width:0.5;" x1="1091" x2="1403.709" y1="665.1211" y2="665.1211"/><line style="stroke:#181818;stroke-width:0.5;" x1="1091" x2="1403.709" y1="673.1211" y2="673.1211"/><ellipse cx="1101" cy="687.9316" fill="#A6A6A6" rx="3" ry="3" style="stroke:#545454;stroke-width:1.0;"/><text fill="#000000" font-family="sans-serif" font-size="14" lengthAdjust="spacing" textLength="259.1094" x="1110" y="692.2285">getAllIndustryTypes(): List&lt;IndustryType&gt;</text><ellipse cx="1101" cy="706.5527" fill="#A6A6A6" rx="3" ry="3" style="stroke:#545454;stroke-width:1.0;"/><text fill="#000000" font-family="sans-serif" font-size="14" lengthAdjust="spacing" textLength="288.709" x="1110" y="710.8496">findByIds(ids: List&lt;Long&gt;): List&lt;IndustryType&gt;</text></g><!--class ScenarioRepository--><g id="elem_ScenarioRepository"><rect codeLine="95" fill="#F1F1F1" height="66.6211" id="ScenarioRepository" rx="2.5" ry="2.5" style="stroke:#181818;stroke-width:0.5;" width="269.5645" x="2343.5" y="1392.1211"/><ellipse cx="2412.9463" cy="1408.1211" fill="#C2C2C2" rx="11" ry="11" style="stroke:#181818;stroke-width:1.0;"/><path d="M2415.7119,1403.9961 Q2415.8682,1403.7773 2416.0557,1403.668 Q2416.2432,1403.5586 2416.4619,1403.5586 Q2416.8369,1403.5586 2417.0713,1403.8242 Q2417.3057,1404.0742 2417.3057,1404.6836 L2417.3057,1406.1367 Q2417.3057,1406.7461 2417.0713,1407.0117 Q2416.8369,1407.2773 2416.4619,1407.2773 Q2416.1182,1407.2773 2415.915,1407.0742 Q2415.7119,1406.8867 2415.6025,1406.3711 Q2415.5557,1406.0117 2415.3682,1405.8242 Q2415.04,1405.4492 2414.4307,1405.2305 Q2413.8213,1405.0117 2413.1963,1405.0117 Q2412.4307,1405.0117 2411.79,1405.3398 Q2411.165,1405.668 2410.665,1406.418 Q2410.1807,1407.168 2410.1807,1408.1992 L2410.1807,1409.293 Q2410.1807,1410.5273 2411.0713,1411.3555 Q2411.9619,1412.168 2413.5557,1412.168 Q2414.4932,1412.168 2415.1494,1411.918 Q2415.54,1411.7617 2415.9619,1411.3242 Q2416.2275,1411.0586 2416.3682,1410.9805 Q2416.5244,1410.9023 2416.7275,1410.9023 Q2417.0557,1410.9023 2417.3057,1411.168 Q2417.5713,1411.418 2417.5713,1411.7617 Q2417.5713,1412.1055 2417.2275,1412.5117 Q2416.7275,1413.0898 2415.9307,1413.418 Q2414.8525,1413.8711 2413.5557,1413.8711 Q2412.04,1413.8711 2410.8369,1413.2461 Q2409.8525,1412.7461 2409.165,1411.6836 Q2408.4775,1410.6055 2408.4775,1409.3242 L2408.4775,1408.168 Q2408.4775,1406.8398 2409.0869,1405.6992 Q2409.7119,1404.543 2410.8057,1403.9336 Q2411.8994,1403.3086 2413.1338,1403.3086 Q2413.8682,1403.3086 2414.5088,1403.4805 Q2415.165,1403.6367 2415.7119,1403.9961 Z " fill="#000000"/><text fill="#000000" font-family="sans-serif" font-size="14" lengthAdjust="spacing" textLength="122.1719" x="2433.4463" y="1413.918">ScenarioRepository</text><line style="stroke:#181818;stroke-width:0.5;" x1="2344.5" x2="2612.0645" y1="1424.1211" y2="1424.1211"/><line style="stroke:#181818;stroke-width:0.5;" x1="2344.5" x2="2612.0645" y1="1432.1211" y2="1432.1211"/><ellipse cx="2354.5" cy="1446.9316" fill="#A6A6A6" rx="3" ry="3" style="stroke:#545454;stroke-width:1.0;"/><text fill="#000000" font-family="sans-serif" font-size="14" lengthAdjust="spacing" textLength="243.5645" x="2363.5" y="1451.2285">saveScenario(scenario: Scenario): void</text></g><!--class ScenarioService--><g id="elem_ScenarioService"><rect codeLine="99" fill="#F1F1F1" height="103.8633" id="ScenarioService" rx="2.5" ry="2.5" style="stroke:#181818;stroke-width:0.5;" width="979.2168" x="758" y="1442.6211"/><ellipse cx="1192.3896" cy="1458.6211" fill="#C2C2C2" rx="11" ry="11" style="stroke:#181818;stroke-width:1.0;"/><path d="M1195.1553,1454.4961 Q1195.3115,1454.2773 1195.499,1454.168 Q1195.6865,1454.0586 1195.9053,1454.0586 Q1196.2803,1454.0586 1196.5146,1454.3242 Q1196.749,1454.5742 1196.749,1455.1836 L1196.749,1456.6367 Q1196.749,1457.2461 1196.5146,1457.5117 Q1196.2803,1457.7773 1195.9053,1457.7773 Q1195.5615,1457.7773 1195.3584,1457.5742 Q1195.1553,1457.3867 1195.0459,1456.8711 Q1194.999,1456.5117 1194.8115,1456.3242 Q1194.4834,1455.9492 1193.874,1455.7305 Q1193.2646,1455.5117 1192.6396,1455.5117 Q1191.874,1455.5117 1191.2334,1455.8398 Q1190.6084,1456.168 1190.1084,1456.918 Q1189.624,1457.668 1189.624,1458.6992 L1189.624,1459.793 Q1189.624,1461.0273 1190.5146,1461.8555 Q1191.4053,1462.668 1192.999,1462.668 Q1193.9365,1462.668 1194.5928,1462.418 Q1194.9834,1462.2617 1195.4053,1461.8242 Q1195.6709,1461.5586 1195.8115,1461.4805 Q1195.9678,1461.4023 1196.1709,1461.4023 Q1196.499,1461.4023 1196.749,1461.668 Q1197.0146,1461.918 1197.0146,1462.2617 Q1197.0146,1462.6055 1196.6709,1463.0117 Q1196.1709,1463.5898 1195.374,1463.918 Q1194.2959,1464.3711 1192.999,1464.3711 Q1191.4834,1464.3711 1190.2803,1463.7461 Q1189.2959,1463.2461 1188.6084,1462.1836 Q1187.9209,1461.1055 1187.9209,1459.8242 L1187.9209,1458.668 Q1187.9209,1457.3398 1188.5303,1456.1992 Q1189.1553,1455.043 1190.249,1454.4336 Q1191.3428,1453.8086 1192.5771,1453.8086 Q1193.3115,1453.8086 1193.9521,1453.9805 Q1194.6084,1454.1367 1195.1553,1454.4961 Z " fill="#000000"/><text fill="#000000" font-family="sans-serif" font-size="14" lengthAdjust="spacing" textLength="101.9375" x="1212.8896" y="1464.418">ScenarioService</text><line style="stroke:#181818;stroke-width:0.5;" x1="759" x2="1736.2168" y1="1474.6211" y2="1474.6211"/><rect fill="none" height="6" style="stroke:#595959;stroke-width:1.0;" width="6" x="766" y="1486.4316"/><text fill="#000000" font-family="sans-serif" font-size="14" lengthAdjust="spacing" textLength="249.7852" x="778" y="1493.7285">scenarioRepository: ScenarioRepository</text><line style="stroke:#181818;stroke-width:0.5;" x1="759" x2="1736.2168" y1="1501.2422" y2="1501.2422"/><ellipse cx="769" cy="1516.0527" fill="#A6A6A6" rx="3" ry="3" style="stroke:#545454;stroke-width:1.0;"/><text fill="#000000" font-family="sans-serif" font-size="14" lengthAdjust="spacing" textLength="286.3916" x="778" y="1520.3496">validateScenario(scenario: Scenario): boolean</text><ellipse cx="769" cy="1534.6738" fill="#A6A6A6" rx="3" ry="3" style="stroke:#545454;stroke-width:1.0;"/><text fill="#000000" font-family="sans-serif" font-size="14" lengthAdjust="spacing" textLength="953.2168" x="778" y="1538.9707">createScenario(request: CreateScenarioRequestDTO, map: Map, locomotiveTypes: List&lt;LocomotiveType&gt;, industryTypes: List&lt;IndustryType&gt;): Scenario</text></g><!--class GameRepository--><g id="elem_GameRepository"><rect codeLine="105" fill="#F1F1F1" height="66.6211" id="GameRepository" rx="2.5" ry="2.5" style="stroke:#181818;stroke-width:0.5;" width="250.8682" x="1122" y="1065.1211"/><ellipse cx="1190.6636" cy="1081.1211" fill="#C2C2C2" rx="11" ry="11" style="stroke:#181818;stroke-width:1.0;"/><path d="M1193.4292,1076.9961 Q1193.5854,1076.7773 1193.7729,1076.668 Q1193.9604,1076.5586 1194.1792,1076.5586 Q1194.5542,1076.5586 1194.7886,1076.8242 Q1195.0229,1077.0742 1195.0229,1077.6836 L1195.0229,1079.1367 Q1195.0229,1079.7461 1194.7886,1080.0117 Q1194.5542,1080.2773 1194.1792,1080.2773 Q1193.8354,1080.2773 1193.6323,1080.0742 Q1193.4292,1079.8867 1193.3198,1079.3711 Q1193.2729,1079.0117 1193.0854,1078.8242 Q1192.7573,1078.4492 1192.1479,1078.2305 Q1191.5386,1078.0117 1190.9136,1078.0117 Q1190.1479,1078.0117 1189.5073,1078.3398 Q1188.8823,1078.668 1188.3823,1079.418 Q1187.8979,1080.168 1187.8979,1081.1992 L1187.8979,1082.293 Q1187.8979,1083.5273 1188.7886,1084.3555 Q1189.6792,1085.168 1191.2729,1085.168 Q1192.2104,1085.168 1192.8667,1084.918 Q1193.2573,1084.7617 1193.6792,1084.3242 Q1193.9448,1084.0586 1194.0854,1083.9805 Q1194.2417,1083.9023 1194.4448,1083.9023 Q1194.7729,1083.9023 1195.0229,1084.168 Q1195.2886,1084.418 1195.2886,1084.7617 Q1195.2886,1085.1055 1194.9448,1085.5117 Q1194.4448,1086.0898 1193.6479,1086.418 Q1192.5698,1086.8711 1191.2729,1086.8711 Q1189.7573,1086.8711 1188.5542,1086.2461 Q1187.5698,1085.7461 1186.8823,1084.6836 Q1186.1948,1083.6055 1186.1948,1082.3242 L1186.1948,1081.168 Q1186.1948,1079.8398 1186.8042,1078.6992 Q1187.4292,1077.543 1188.5229,1076.9336 Q1189.6167,1076.3086 1190.8511,1076.3086 Q1191.5854,1076.3086 1192.2261,1076.4805 Q1192.8823,1076.6367 1193.4292,1076.9961 Z " fill="#000000"/><text fill="#000000" font-family="sans-serif" font-size="14" lengthAdjust="spacing" textLength="105.041" x="1211.1636" y="1086.918">GameRepository</text><line style="stroke:#181818;stroke-width:0.5;" x1="1123" x2="1371.8682" y1="1097.1211" y2="1097.1211"/><line style="stroke:#181818;stroke-width:0.5;" x1="1123" x2="1371.8682" y1="1105.1211" y2="1105.1211"/><ellipse cx="1133" cy="1119.9316" fill="#A6A6A6" rx="3" ry="3" style="stroke:#545454;stroke-width:1.0;"/><text fill="#000000" font-family="sans-serif" font-size="14" lengthAdjust="spacing" textLength="224.8682" x="1142" y="1124.2285">getMapRepository(): MapRepository</text></g><!--class AuthenticationService--><g id="elem_AuthenticationService"><rect codeLine="109" fill="#F1F1F1" height="66.6211" id="AuthenticationService" rx="2.5" ry="2.5" style="stroke:#181818;stroke-width:0.5;" width="267.9785" x="1113.5" y="1167.1211"/><ellipse cx="1175.5327" cy="1183.1211" fill="#C2C2C2" rx="11" ry="11" style="stroke:#181818;stroke-width:1.0;"/><path d="M1178.2983,1178.9961 Q1178.4546,1178.7773 1178.6421,1178.668 Q1178.8296,1178.5586 1179.0483,1178.5586 Q1179.4233,1178.5586 1179.6577,1178.8242 Q1179.8921,1179.0742 1179.8921,1179.6836 L1179.8921,1181.1367 Q1179.8921,1181.7461 1179.6577,1182.0117 Q1179.4233,1182.2773 1179.0483,1182.2773 Q1178.7046,1182.2773 1178.5015,1182.0742 Q1178.2983,1181.8867 1178.189,1181.3711 Q1178.1421,1181.0117 1177.9546,1180.8242 Q1177.6265,1180.4492 1177.0171,1180.2305 Q1176.4077,1180.0117 1175.7827,1180.0117 Q1175.0171,1180.0117 1174.3765,1180.3398 Q1173.7515,1180.668 1173.2515,1181.418 Q1172.7671,1182.168 1172.7671,1183.1992 L1172.7671,1184.293 Q1172.7671,1185.5273 1173.6577,1186.3555 Q1174.5483,1187.168 1176.1421,1187.168 Q1177.0796,1187.168 1177.7358,1186.918 Q1178.1265,1186.7617 1178.5483,1186.3242 Q1178.814,1186.0586 1178.9546,1185.9805 Q1179.1108,1185.9023 1179.314,1185.9023 Q1179.6421,1185.9023 1179.8921,1186.168 Q1180.1577,1186.418 1180.1577,1186.7617 Q1180.1577,1187.1055 1179.814,1187.5117 Q1179.314,1188.0898 1178.5171,1188.418 Q1177.439,1188.8711 1176.1421,1188.8711 Q1174.6265,1188.8711 1173.4233,1188.2461 Q1172.439,1187.7461 1171.7515,1186.6836 Q1171.064,1185.6055 1171.064,1184.3242 L1171.064,1183.168 Q1171.064,1181.8398 1171.6733,1180.6992 Q1172.2983,1179.543 1173.3921,1178.9336 Q1174.4858,1178.3086 1175.7202,1178.3086 Q1176.4546,1178.3086 1177.0952,1178.4805 Q1177.7515,1178.6367 1178.2983,1178.9961 Z " fill="#000000"/><text fill="#000000" font-family="sans-serif" font-size="14" lengthAdjust="spacing" textLength="135.4131" x="1196.0327" y="1188.918">AuthenticationService</text><line style="stroke:#181818;stroke-width:0.5;" x1="1114.5" x2="1380.4785" y1="1199.1211" y2="1199.1211"/><line style="stroke:#181818;stroke-width:0.5;" x1="1114.5" x2="1380.4785" y1="1207.1211" y2="1207.1211"/><ellipse cx="1124.5" cy="1221.9316" fill="#A6A6A6" rx="3" ry="3" style="stroke:#545454;stroke-width:1.0;"/><text fill="#000000" font-family="sans-serif" font-size="14" lengthAdjust="spacing" textLength="241.9785" x="1133.5" y="1226.2285">getCurrentUserSession(): UserSession</text></g><!--class UserSession--><g id="elem_UserSession"><rect codeLine="113" fill="#F1F1F1" height="66.6211" id="UserSession" rx="2.5" ry="2.5" style="stroke:#181818;stroke-width:0.5;" width="202.627" x="1146" y="1269.1211"/><ellipse cx="1203.3809" cy="1285.1211" fill="#C2C2C2" rx="11" ry="11" style="stroke:#181818;stroke-width:1.0;"/><path d="M1206.1465,1280.9961 Q1206.3027,1280.7773 1206.4902,1280.668 Q1206.6777,1280.5586 1206.8965,1280.5586 Q1207.2715,1280.5586 1207.5059,1280.8242 Q1207.7402,1281.0742 1207.7402,1281.6836 L1207.7402,1283.1367 Q1207.7402,1283.7461 1207.5059,1284.0117 Q1207.2715,1284.2773 1206.8965,1284.2773 Q1206.5527,1284.2773 1206.3496,1284.0742 Q1206.1465,1283.8867 1206.0371,1283.3711 Q1205.9902,1283.0117 1205.8027,1282.8242 Q1205.4746,1282.4492 1204.8652,1282.2305 Q1204.2559,1282.0117 1203.6309,1282.0117 Q1202.8652,1282.0117 1202.2246,1282.3398 Q1201.5996,1282.668 1201.0996,1283.418 Q1200.6152,1284.168 1200.6152,1285.1992 L1200.6152,1286.293 Q1200.6152,1287.5273 1201.5059,1288.3555 Q1202.3965,1289.168 1203.9902,1289.168 Q1204.9277,1289.168 1205.584,1288.918 Q1205.9746,1288.7617 1206.3965,1288.3242 Q1206.6621,1288.0586 1206.8027,1287.9805 Q1206.959,1287.9023 1207.1621,1287.9023 Q1207.4902,1287.9023 1207.7402,1288.168 Q1208.0059,1288.418 1208.0059,1288.7617 Q1208.0059,1289.1055 1207.6621,1289.5117 Q1207.1621,1290.0898 1206.3652,1290.418 Q1205.2871,1290.8711 1203.9902,1290.8711 Q1202.4746,1290.8711 1201.2715,1290.2461 Q1200.2871,1289.7461 1199.5996,1288.6836 Q1198.9121,1287.6055 1198.9121,1286.3242 L1198.9121,1285.168 Q1198.9121,1283.8398 1199.5215,1282.6992 Q1200.1465,1281.543 1201.2402,1280.9336 Q1202.334,1280.3086 1203.5684,1280.3086 Q1204.3027,1280.3086 1204.9434,1280.4805 Q1205.5996,1280.6367 1206.1465,1280.9961 Z " fill="#000000"/><text fill="#000000" font-family="sans-serif" font-size="14" lengthAdjust="spacing" textLength="79.3652" x="1223.8809" y="1290.918">UserSession</text><line style="stroke:#181818;stroke-width:0.5;" x1="1147" x2="1347.627" y1="1301.1211" y2="1301.1211"/><line style="stroke:#181818;stroke-width:0.5;" x1="1147" x2="1347.627" y1="1309.1211" y2="1309.1211"/><ellipse cx="1157" cy="1323.9316" fill="#A6A6A6" rx="3" ry="3" style="stroke:#545454;stroke-width:1.0;"/><text fill="#000000" font-family="sans-serif" font-size="14" lengthAdjust="spacing" textLength="176.627" x="1166" y="1328.2285">getUserRoles(): List&lt;String&gt;</text></g><!--class Map--><g id="elem_Map"><rect codeLine="117" fill="#F1F1F1" height="234.2109" id="Map" rx="2.5" ry="2.5" style="stroke:#181818;stroke-width:0.5;" width="1203.2852" x="1877" y="830.6211"/><ellipse cx="2460.7754" cy="846.6211" fill="#C2C2C2" rx="11" ry="11" style="stroke:#181818;stroke-width:1.0;"/><path d="M2463.541,842.4961 Q2463.6973,842.2773 2463.8848,842.168 Q2464.0723,842.0586 2464.291,842.0586 Q2464.666,842.0586 2464.9004,842.3242 Q2465.1348,842.5742 2465.1348,843.1836 L2465.1348,844.6367 Q2465.1348,845.2461 2464.9004,845.5117 Q2464.666,845.7773 2464.291,845.7773 Q2463.9473,845.7773 2463.7441,845.5742 Q2463.541,845.3867 2463.4316,844.8711 Q2463.3848,844.5117 2463.1973,844.3242 Q2462.8691,843.9492 2462.2598,843.7305 Q2461.6504,843.5117 2461.0254,843.5117 Q2460.2598,843.5117 2459.6191,843.8398 Q2458.9941,844.168 2458.4941,844.918 Q2458.0098,845.668 2458.0098,846.6992 L2458.0098,847.793 Q2458.0098,849.0273 2458.9004,849.8555 Q2459.791,850.668 2461.3848,850.668 Q2462.3223,850.668 2462.9785,850.418 Q2463.3691,850.2617 2463.791,849.8242 Q2464.0566,849.5586 2464.1973,849.4805 Q2464.3535,849.4023 2464.5566,849.4023 Q2464.8848,849.4023 2465.1348,849.668 Q2465.4004,849.918 2465.4004,850.2617 Q2465.4004,850.6055 2465.0566,851.0117 Q2464.5566,851.5898 2463.7598,851.918 Q2462.6816,852.3711 2461.3848,852.3711 Q2459.8691,852.3711 2458.666,851.7461 Q2457.6816,851.2461 2456.9941,850.1836 Q2456.3066,849.1055 2456.3066,847.8242 L2456.3066,846.668 Q2456.3066,845.3398 2456.916,844.1992 Q2457.541,843.043 2458.6348,842.4336 Q2459.7285,841.8086 2460.9629,841.8086 Q2461.6973,841.8086 2462.3379,841.9805 Q2462.9941,842.1367 2463.541,842.4961 Z " fill="#000000"/><text fill="#000000" font-family="sans-serif" font-size="14" lengthAdjust="spacing" textLength="27.2344" x="2481.2754" y="852.418">Map</text><line style="stroke:#181818;stroke-width:0.5;" x1="1878" x2="3079.2852" y1="862.6211" y2="862.6211"/><rect fill="none" height="6" style="stroke:#595959;stroke-width:1.0;" width="6" x="1885" y="874.4316"/><text fill="#000000" font-family="sans-serif" font-size="14" lengthAdjust="spacing" textLength="49.8203" x="1897" y="881.7285">id: Long</text><rect fill="none" height="6" style="stroke:#595959;stroke-width:1.0;" width="6" x="1885" y="893.0527"/><text fill="#000000" font-family="sans-serif" font-size="14" lengthAdjust="spacing" textLength="79.3721" x="1897" y="900.3496">name: String</text><rect fill="none" height="6" style="stroke:#595959;stroke-width:1.0;" width="6" x="1885" y="911.6738"/><text fill="#000000" font-family="sans-serif" font-size="14" lengthAdjust="spacing" textLength="55.248" x="1897" y="918.9707">width: int</text><rect fill="none" height="6" style="stroke:#595959;stroke-width:1.0;" width="6" x="1885" y="930.2949"/><text fill="#000000" font-family="sans-serif" font-size="14" lengthAdjust="spacing" textLength="60.71" x="1897" y="937.5918">height: int</text><rect fill="none" height="6" style="stroke:#595959;stroke-width:1.0;" width="6" x="1885" y="948.916"/><text fill="#000000" font-family="sans-serif" font-size="14" lengthAdjust="spacing" textLength="132.2959" x="1897" y="956.2129">regions: List&lt;Object&gt;</text><rect fill="none" height="6" style="stroke:#595959;stroke-width:1.0;" width="6" x="1885" y="967.5371"/><text fill="#000000" font-family="sans-serif" font-size="14" lengthAdjust="spacing" textLength="161.0889" x="1897" y="974.834">scenarios: List&lt;Scenario&gt;</text><rect fill="none" height="6" style="stroke:#595959;stroke-width:1.0;" width="6" x="1885" y="986.1582"/><text fill="#000000" font-family="sans-serif" font-size="14" lengthAdjust="spacing" textLength="137.751" x="1897" y="993.4551">stations: List&lt;Station&gt;</text><rect fill="none" height="6" style="stroke:#595959;stroke-width:1.0;" width="6" x="1885" y="1004.7793"/><text fill="#000000" font-family="sans-serif" font-size="14" lengthAdjust="spacing" textLength="155.6338" x="1897" y="1012.0762">industries: List&lt;Industry&gt;</text><rect fill="none" height="6" style="stroke:#595959;stroke-width:1.0;" width="6" x="1885" y="1023.4004"/><text fill="#000000" font-family="sans-serif" font-size="14" lengthAdjust="spacing" textLength="101.9238" x="1897" y="1030.6973">cities: List&lt;City&gt;</text><line style="stroke:#181818;stroke-width:0.5;" x1="1878" x2="3079.2852" y1="1038.2109" y2="1038.2109"/><ellipse cx="1888" cy="1053.0215" fill="#A6A6A6" rx="3" ry="3" style="stroke:#545454;stroke-width:1.0;"/><text fill="#000000" font-family="sans-serif" font-size="14" lengthAdjust="spacing" textLength="1177.2852" x="1897" y="1057.3184">createScenario(name: String, startTime: Date, endTime: Date, locomotiveTypes: List&lt;LocomotiveType&gt;, industryTypes: List&lt;IndustryType&gt;, historicalEvents: List&lt;HistoricalEvent&gt;): Scenario</text></g><!--class Scenario--><g id="elem_Scenario"><rect codeLine="130" fill="#F1F1F1" height="178.3477" id="Scenario" rx="2.5" ry="2.5" style="stroke:#181818;stroke-width:0.5;" width="331.8262" x="3220" y="720.6211"/><ellipse cx="3354.0356" cy="736.6211" fill="#C2C2C2" rx="11" ry="11" style="stroke:#181818;stroke-width:1.0;"/><path d="M3356.8013,732.4961 Q3356.9575,732.2773 3357.145,732.168 Q3357.3325,732.0586 3357.5513,732.0586 Q3357.9263,732.0586 3358.1606,732.3242 Q3358.395,732.5742 3358.395,733.1836 L3358.395,734.6367 Q3358.395,735.2461 3358.1606,735.5117 Q3357.9263,735.7773 3357.5513,735.7773 Q3357.2075,735.7773 3357.0044,735.5742 Q3356.8013,735.3867 3356.6919,734.8711 Q3356.645,734.5117 3356.4575,734.3242 Q3356.1294,733.9492 3355.52,733.7305 Q3354.9106,733.5117 3354.2856,733.5117 Q3353.52,733.5117 3352.8794,733.8398 Q3352.2544,734.168 3351.7544,734.918 Q3351.27,735.668 3351.27,736.6992 L3351.27,737.793 Q3351.27,739.0273 3352.1606,739.8555 Q3353.0513,740.668 3354.645,740.668 Q3355.5825,740.668 3356.2388,740.418 Q3356.6294,740.2617 3357.0513,739.8242 Q3357.3169,739.5586 3357.4575,739.4805 Q3357.6138,739.4023 3357.8169,739.4023 Q3358.145,739.4023 3358.395,739.668 Q3358.6606,739.918 3358.6606,740.2617 Q3358.6606,740.6055 3358.3169,741.0117 Q3357.8169,741.5898 3357.02,741.918 Q3355.9419,742.3711 3354.645,742.3711 Q3353.1294,742.3711 3351.9263,741.7461 Q3350.9419,741.2461 3350.2544,740.1836 Q3349.5669,739.1055 3349.5669,737.8242 L3349.5669,736.668 Q3349.5669,735.3398 3350.1763,734.1992 Q3350.8013,733.043 3351.895,732.4336 Q3352.9888,731.8086 3354.2231,731.8086 Q3354.9575,731.8086 3355.5981,731.9805 Q3356.2544,732.1367 3356.8013,732.4961 Z " fill="#000000"/><text fill="#000000" font-family="sans-serif" font-size="14" lengthAdjust="spacing" textLength="55.2549" x="3374.5356" y="742.418">Scenario</text><line style="stroke:#181818;stroke-width:0.5;" x1="3221" x2="3550.8262" y1="752.6211" y2="752.6211"/><rect fill="none" height="6" style="stroke:#595959;stroke-width:1.0;" width="6" x="3228" y="764.4316"/><text fill="#000000" font-family="sans-serif" font-size="14" lengthAdjust="spacing" textLength="79.3721" x="3240" y="771.7285">name: String</text><rect fill="none" height="6" style="stroke:#595959;stroke-width:1.0;" width="6" x="3228" y="783.0527"/><text fill="#000000" font-family="sans-serif" font-size="14" lengthAdjust="spacing" textLength="95.6895" x="3240" y="790.3496">startTime: Date</text><rect fill="none" height="6" style="stroke:#595959;stroke-width:1.0;" width="6" x="3228" y="801.6738"/><text fill="#000000" font-family="sans-serif" font-size="14" lengthAdjust="spacing" textLength="91.8203" x="3240" y="808.9707">endTime: Date</text><rect fill="none" height="6" style="stroke:#595959;stroke-width:1.0;" width="6" x="3228" y="820.2949"/><text fill="#000000" font-family="sans-serif" font-size="14" lengthAdjust="spacing" textLength="305.8262" x="3240" y="827.5918">allowedLocomotiveTypes: List&lt;LocomotiveType&gt;</text><rect fill="none" height="6" style="stroke:#595959;stroke-width:1.0;" width="6" x="3228" y="838.916"/><text fill="#000000" font-family="sans-serif" font-size="14" lengthAdjust="spacing" textLength="262.2402" x="3240" y="846.2129">allowedIndustryTypes: List&lt;IndustryType&gt;</text><rect fill="none" height="6" style="stroke:#595959;stroke-width:1.0;" width="6" x="3228" y="857.5371"/><text fill="#000000" font-family="sans-serif" font-size="14" lengthAdjust="spacing" textLength="237.3232" x="3240" y="864.834">historicalEvents: List&lt;HistoricalEvent&gt;</text><line style="stroke:#181818;stroke-width:0.5;" x1="3221" x2="3550.8262" y1="872.3477" y2="872.3477"/><ellipse cx="3231" cy="887.1582" fill="#A6A6A6" rx="3" ry="3" style="stroke:#545454;stroke-width:1.0;"/><text fill="#000000" font-family="sans-serif" font-size="14" lengthAdjust="spacing" textLength="144.7578" x="3240" y="891.4551">validateData(): boolean</text></g><!--class LocomotiveType--><g id="elem_LocomotiveType"><rect codeLine="140" fill="#F1F1F1" height="122.4844" id="LocomotiveType" rx="2.5" ry="2.5" style="stroke:#181818;stroke-width:0.5;" width="134.7168" x="3686" y="911.6211"/><ellipse cx="3701" cy="927.6211" fill="#C2C2C2" rx="11" ry="11" style="stroke:#181818;stroke-width:1.0;"/><path d="M3703.7656,923.4961 Q3703.9219,923.2773 3704.1094,923.168 Q3704.2969,923.0586 3704.5156,923.0586 Q3704.8906,923.0586 3705.125,923.3242 Q3705.3594,923.5742 3705.3594,924.1836 L3705.3594,925.6367 Q3705.3594,926.2461 3705.125,926.5117 Q3704.8906,926.7773 3704.5156,926.7773 Q3704.1719,926.7773 3703.9688,926.5742 Q3703.7656,926.3867 3703.6563,925.8711 Q3703.6094,925.5117 3703.4219,925.3242 Q3703.0938,924.9492 3702.4844,924.7305 Q3701.875,924.5117 3701.25,924.5117 Q3700.4844,924.5117 3699.8438,924.8398 Q3699.2188,925.168 3698.7188,925.918 Q3698.2344,926.668 3698.2344,927.6992 L3698.2344,928.793 Q3698.2344,930.0273 3699.125,930.8555 Q3700.0156,931.668 3701.6094,931.668 Q3702.5469,931.668 3703.2031,931.418 Q3703.5938,931.2617 3704.0156,930.8242 Q3704.2813,930.5586 3704.4219,930.4805 Q3704.5781,930.4023 3704.7813,930.4023 Q3705.1094,930.4023 3705.3594,930.668 Q3705.625,930.918 3705.625,931.2617 Q3705.625,931.6055 3705.2813,932.0117 Q3704.7813,932.5898 3703.9844,932.918 Q3702.9063,933.3711 3701.6094,933.3711 Q3700.0938,933.3711 3698.8906,932.7461 Q3697.9063,932.2461 3697.2188,931.1836 Q3696.5313,930.1055 3696.5313,928.8242 L3696.5313,927.668 Q3696.5313,926.3398 3697.1406,925.1992 Q3697.7656,924.043 3698.8594,923.4336 Q3699.9531,922.8086 3701.1875,922.8086 Q3701.9219,922.8086 3702.5625,922.9805 Q3703.2188,923.1367 3703.7656,923.4961 Z " fill="#000000"/><text fill="#000000" font-family="sans-serif" font-size="14" lengthAdjust="spacing" textLength="102.7168" x="3715" y="933.418">LocomotiveType</text><line style="stroke:#181818;stroke-width:0.5;" x1="3687" x2="3819.7168" y1="943.6211" y2="943.6211"/><rect fill="none" height="6" style="stroke:#595959;stroke-width:1.0;" width="6" x="3694" y="955.4316"/><text fill="#000000" font-family="sans-serif" font-size="14" lengthAdjust="spacing" textLength="79.3721" x="3706" y="962.7285">name: String</text><rect fill="none" height="6" style="stroke:#595959;stroke-width:1.0;" width="6" x="3694" y="974.0527"/><text fill="#000000" font-family="sans-serif" font-size="14" lengthAdjust="spacing" textLength="87.9648" x="3706" y="981.3496">speed: double</text><rect fill="none" height="6" style="stroke:#595959;stroke-width:1.0;" width="6" x="3694" y="992.6738"/><text fill="#000000" font-family="sans-serif" font-size="14" lengthAdjust="spacing" textLength="87.9512" x="3706" y="999.9707">power: double</text><rect fill="none" height="6" style="stroke:#595959;stroke-width:1.0;" width="6" x="3694" y="1011.2949"/><text fill="#000000" font-family="sans-serif" font-size="14" lengthAdjust="spacing" textLength="75.4961" x="3706" y="1018.5918">cost: double</text><line style="stroke:#181818;stroke-width:0.5;" x1="3687" x2="3819.7168" y1="1026.1055" y2="1026.1055"/></g><!--class IndustryType--><g id="elem_IndustryType"><rect codeLine="147" fill="#F1F1F1" height="103.8633" id="IndustryType" rx="2.5" ry="2.5" style="stroke:#181818;stroke-width:0.5;" width="184.7715" x="3661" y="450.6211"/><ellipse cx="3708.6738" cy="466.6211" fill="#C2C2C2" rx="11" ry="11" style="stroke:#181818;stroke-width:1.0;"/><path d="M3711.4395,462.4961 Q3711.5957,462.2773 3711.7832,462.168 Q3711.9707,462.0586 3712.1895,462.0586 Q3712.5645,462.0586 3712.7988,462.3242 Q3713.0332,462.5742 3713.0332,463.1836 L3713.0332,464.6367 Q3713.0332,465.2461 3712.7988,465.5117 Q3712.5645,465.7773 3712.1895,465.7773 Q3711.8457,465.7773 3711.6426,465.5742 Q3711.4395,465.3867 3711.3301,464.8711 Q3711.2832,464.5117 3711.0957,464.3242 Q3710.7676,463.9492 3710.1582,463.7305 Q3709.5488,463.5117 3708.9238,463.5117 Q3708.1582,463.5117 3707.5176,463.8398 Q3706.8926,464.168 3706.3926,464.918 Q3705.9082,465.668 3705.9082,466.6992 L3705.9082,467.793 Q3705.9082,469.0273 3706.7988,469.8555 Q3707.6895,470.668 3709.2832,470.668 Q3710.2207,470.668 3710.877,470.418 Q3711.2676,470.2617 3711.6895,469.8242 Q3711.9551,469.5586 3712.0957,469.4805 Q3712.252,469.4023 3712.4551,469.4023 Q3712.7832,469.4023 3713.0332,469.668 Q3713.2988,469.918 3713.2988,470.2617 Q3713.2988,470.6055 3712.9551,471.0117 Q3712.4551,471.5898 3711.6582,471.918 Q3710.5801,472.3711 3709.2832,472.3711 Q3707.7676,472.3711 3706.5645,471.7461 Q3705.5801,471.2461 3704.8926,470.1836 Q3704.2051,469.1055 3704.2051,467.8242 L3704.2051,466.668 Q3704.2051,465.3398 3704.8145,464.1992 Q3705.4395,463.043 3706.5332,462.4336 Q3707.627,461.8086 3708.8613,461.8086 Q3709.5957,461.8086 3710.2363,461.9805 Q3710.8926,462.1367 3711.4395,462.4961 Z " fill="#000000"/><text fill="#000000" font-family="sans-serif" font-size="14" lengthAdjust="spacing" textLength="80.9238" x="3729.1738" y="472.418">IndustryType</text><line style="stroke:#181818;stroke-width:0.5;" x1="3662" x2="3844.7715" y1="482.6211" y2="482.6211"/><rect fill="none" height="6" style="stroke:#595959;stroke-width:1.0;" width="6" x="3669" y="494.4316"/><text fill="#000000" font-family="sans-serif" font-size="14" lengthAdjust="spacing" textLength="79.3721" x="3681" y="501.7285">name: String</text><rect fill="none" height="6" style="stroke:#595959;stroke-width:1.0;" width="6" x="3669" y="513.0527"/><text fill="#000000" font-family="sans-serif" font-size="14" lengthAdjust="spacing" textLength="144.7715" x="3681" y="520.3496">productionRate: double</text><rect fill="none" height="6" style="stroke:#595959;stroke-width:1.0;" width="6" x="3669" y="531.6738"/><text fill="#000000" font-family="sans-serif" font-size="14" lengthAdjust="spacing" textLength="158.7715" x="3681" y="538.9707">consumptionRate: double</text><line style="stroke:#181818;stroke-width:0.5;" x1="3662" x2="3844.7715" y1="546.4844" y2="546.4844"/></g><!--class HistoricalEvent--><g id="elem_HistoricalEvent"><rect codeLine="153" fill="#F1F1F1" height="122.4844" id="HistoricalEvent" rx="2.5" ry="2.5" style="stroke:#181818;stroke-width:0.5;" width="138.0547" x="3684.5" y="748.6211"/><ellipse cx="3705.2103" cy="764.6211" fill="#C2C2C2" rx="11" ry="11" style="stroke:#181818;stroke-width:1.0;"/><path d="M3707.9759,760.4961 Q3708.1321,760.2773 3708.3196,760.168 Q3708.5071,760.0586 3708.7259,760.0586 Q3709.1009,760.0586 3709.3353,760.3242 Q3709.5696,760.5742 3709.5696,761.1836 L3709.5696,762.6367 Q3709.5696,763.2461 3709.3353,763.5117 Q3709.1009,763.7773 3708.7259,763.7773 Q3708.3821,763.7773 3708.179,763.5742 Q3707.9759,763.3867 3707.8665,762.8711 Q3707.8196,762.5117 3707.6321,762.3242 Q3707.304,761.9492 3706.6946,761.7305 Q3706.0853,761.5117 3705.4603,761.5117 Q3704.6946,761.5117 3704.054,761.8398 Q3703.429,762.168 3702.929,762.918 Q3702.4446,763.668 3702.4446,764.6992 L3702.4446,765.793 Q3702.4446,767.0273 3703.3353,767.8555 Q3704.2259,768.668 3705.8196,768.668 Q3706.7571,768.668 3707.4134,768.418 Q3707.804,768.2617 3708.2259,767.8242 Q3708.4915,767.5586 3708.6321,767.4805 Q3708.7884,767.4023 3708.9915,767.4023 Q3709.3196,767.4023 3709.5696,767.668 Q3709.8353,767.918 3709.8353,768.2617 Q3709.8353,768.6055 3709.4915,769.0117 Q3708.9915,769.5898 3708.1946,769.918 Q3707.1165,770.3711 3705.8196,770.3711 Q3704.304,770.3711 3703.1009,769.7461 Q3702.1165,769.2461 3701.429,768.1836 Q3700.7415,767.1055 3700.7415,765.8242 L3700.7415,764.668 Q3700.7415,763.3398 3701.3509,762.1992 Q3701.9759,761.043 3703.0696,760.4336 Q3704.1634,759.8086 3705.3978,759.8086 Q3706.1321,759.8086 3706.7728,759.9805 Q3707.429,760.1367 3707.9759,760.4961 Z " fill="#000000"/><text fill="#000000" font-family="sans-serif" font-size="14" lengthAdjust="spacing" textLength="93.3652" x="3720.4792" y="770.418">HistoricalEvent</text><line style="stroke:#181818;stroke-width:0.5;" x1="3685.5" x2="3821.5547" y1="780.6211" y2="780.6211"/><rect fill="none" height="6" style="stroke:#595959;stroke-width:1.0;" width="6" x="3692.5" y="792.4316"/><text fill="#000000" font-family="sans-serif" font-size="14" lengthAdjust="spacing" textLength="79.3721" x="3704.5" y="799.7285">name: String</text><rect fill="none" height="6" style="stroke:#595959;stroke-width:1.0;" width="6" x="3692.5" y="811.0527"/><text fill="#000000" font-family="sans-serif" font-size="14" lengthAdjust="spacing" textLength="112.0547" x="3704.5" y="818.3496">description: String</text><rect fill="none" height="6" style="stroke:#595959;stroke-width:1.0;" width="6" x="3692.5" y="829.6738"/><text fill="#000000" font-family="sans-serif" font-size="14" lengthAdjust="spacing" textLength="64.5996" x="3704.5" y="836.9707">date: Date</text><rect fill="none" height="6" style="stroke:#595959;stroke-width:1.0;" width="6" x="3692.5" y="848.2949"/><text fill="#000000" font-family="sans-serif" font-size="14" lengthAdjust="spacing" textLength="89.4756" x="3704.5" y="855.5918">impact: Object</text><line style="stroke:#181818;stroke-width:0.5;" x1="3685.5" x2="3821.5547" y1="863.1055" y2="863.1055"/></g><!--class Editor--><g id="elem_Editor"><rect codeLine="160" fill="#F1F1F1" height="103.8633" id="Editor" rx="2.5" ry="2.5" style="stroke:#181818;stroke-width:0.5;" width="105.3721" x="2426" y="691.6211"/><ellipse cx="2457.5599" cy="707.6211" fill="#C2C2C2" rx="11" ry="11" style="stroke:#181818;stroke-width:1.0;"/><path d="M2460.3255,703.4961 Q2460.4818,703.2773 2460.6693,703.168 Q2460.8568,703.0586 2461.0755,703.0586 Q2461.4505,703.0586 2461.6849,703.3242 Q2461.9193,703.5742 2461.9193,704.1836 L2461.9193,705.6367 Q2461.9193,706.2461 2461.6849,706.5117 Q2461.4505,706.7773 2461.0755,706.7773 Q2460.7318,706.7773 2460.5287,706.5742 Q2460.3255,706.3867 2460.2162,705.8711 Q2460.1693,705.5117 2459.9818,705.3242 Q2459.6537,704.9492 2459.0443,704.7305 Q2458.4349,704.5117 2457.8099,704.5117 Q2457.0443,704.5117 2456.4037,704.8398 Q2455.7787,705.168 2455.2787,705.918 Q2454.7943,706.668 2454.7943,707.6992 L2454.7943,708.793 Q2454.7943,710.0273 2455.6849,710.8555 Q2456.5755,711.668 2458.1693,711.668 Q2459.1068,711.668 2459.763,711.418 Q2460.1537,711.2617 2460.5755,710.8242 Q2460.8412,710.5586 2460.9818,710.4805 Q2461.138,710.4023 2461.3412,710.4023 Q2461.6693,710.4023 2461.9193,710.668 Q2462.1849,710.918 2462.1849,711.2617 Q2462.1849,711.6055 2461.8412,712.0117 Q2461.3412,712.5898 2460.5443,712.918 Q2459.4662,713.3711 2458.1693,713.3711 Q2456.6537,713.3711 2455.4505,712.7461 Q2454.4662,712.2461 2453.7787,711.1836 Q2453.0912,710.1055 2453.0912,708.8242 L2453.0912,707.668 Q2453.0912,706.3398 2453.7005,705.1992 Q2454.3255,704.043 2455.4193,703.4336 Q2456.513,702.8086 2457.7474,702.8086 Q2458.4818,702.8086 2459.1224,702.9805 Q2459.7787,703.1367 2460.3255,703.4961 Z " fill="#000000"/><text fill="#000000" font-family="sans-serif" font-size="14" lengthAdjust="spacing" textLength="36.5723" x="2475.2399" y="713.418">Editor</text><line style="stroke:#181818;stroke-width:0.5;" x1="2427" x2="2530.3721" y1="723.6211" y2="723.6211"/><rect fill="none" height="6" style="stroke:#595959;stroke-width:1.0;" width="6" x="2434" y="735.4316"/><text fill="#000000" font-family="sans-serif" font-size="14" lengthAdjust="spacing" textLength="55.248" x="2446" y="742.7285">id: String</text><rect fill="none" height="6" style="stroke:#595959;stroke-width:1.0;" width="6" x="2434" y="754.0527"/><text fill="#000000" font-family="sans-serif" font-size="14" lengthAdjust="spacing" textLength="79.3721" x="2446" y="761.3496">name: String</text><rect fill="none" height="6" style="stroke:#595959;stroke-width:1.0;" width="6" x="2434" y="772.6738"/><text fill="#000000" font-family="sans-serif" font-size="14" lengthAdjust="spacing" textLength="67.6963" x="2446" y="779.9707">role: String</text><line style="stroke:#181818;stroke-width:0.5;" x1="2427" x2="2530.3721" y1="787.4844" y2="787.4844"/></g><!--link CreateScenarioUI to CreateScenarioController--><g id="link_CreateScenarioUI_CreateScenarioController"><path codeLine="167" d="M94.52,343.7211 C140.51,417.4911 278.5162,638.8992 368.7962,783.7392 " fill="none" id="CreateScenarioUI-to-CreateScenarioController" style="stroke:#181818;stroke-width:1.0;"/><polygon fill="#181818" points="371.97,788.8311,370.6039,779.0774,369.3252,784.5879,363.8147,783.3092,371.97,788.8311" style="stroke:#181818;stroke-width:1.0;"/></g><!--link CreateScenarioUI to MapDTO--><g id="link_CreateScenarioUI_MapDTO"><path codeLine="168" d="M150.19,299.1411 C160.13,296.9111 170.27,294.9611 180,293.6211 C1071.73,170.8611 2170.2612,227.6144 2419.8112,242.8944 " fill="none" id="CreateScenarioUI-to-MapDTO" style="stroke:#181818;stroke-width:1.0;stroke-dasharray:7.0,7.0;"/><polygon fill="#181818" points="2425.8,243.2611,2417.0613,238.7185,2420.8093,242.9555,2416.5724,246.7036,2425.8,243.2611" style="stroke:#181818;stroke-width:1.0;"/><text fill="#000000" font-family="sans-serif" font-size="13" lengthAdjust="spacing" textLength="46.9663" x="681" y="237.6494">displays</text></g><!--link CreateScenarioUI to LocomotiveTypeDTO--><g id="link_CreateScenarioUI_LocomotiveTypeDTO"><path codeLine="169" d="M150.07,316.6811 C389.17,307.6311 1190.35,284.8011 1847,353.6211 C2046.26,374.5011 2270.7054,424.3119 2390.2154,452.9719 " fill="none" id="CreateScenarioUI-to-LocomotiveTypeDTO" style="stroke:#181818;stroke-width:1.0;stroke-dasharray:7.0,7.0;"/><polygon fill="#181818" points="2396.05,454.3711,2388.2309,448.3826,2391.1879,453.2051,2386.3653,456.162,2396.05,454.3711" style="stroke:#181818;stroke-width:1.0;"/><text fill="#000000" font-family="sans-serif" font-size="13" lengthAdjust="spacing" textLength="46.9663" x="681" y="302.6494">displays</text></g><!--link CreateScenarioUI to IndustryTypeDTO--><g id="link_CreateScenarioUI_IndustryTypeDTO"><path codeLine="170" d="M118.29,295.6111 C152.55,275.9011 204.59,249.5411 254,238.6211 C473.31,190.1511 533.89,216.5611 758,201.6211 C1379.79,160.1811 2122.5892,118.2938 2379.6792,104.0138 " fill="none" id="CreateScenarioUI-to-IndustryTypeDTO" style="stroke:#181818;stroke-width:1.0;stroke-dasharray:7.0,7.0;"/><polygon fill="#181818" points="2385.67,103.6811,2376.462,100.1864,2380.6777,103.9584,2376.9057,108.1741,2385.67,103.6811" style="stroke:#181818;stroke-width:1.0;"/><text fill="#000000" font-family="sans-serif" font-size="13" lengthAdjust="spacing" textLength="46.9663" x="681" y="199.6494">displays</text></g><!--link CreateScenarioUI to CreateScenarioRequestDTO--><g id="link_CreateScenarioUI_CreateScenarioRequestDTO"><path codeLine="171" d="M82.54,343.9711 C97.22,458.3411 163.75,941.4911 254,1059.6211 C271.49,1082.5111 290.1609,1098.0378 315.2209,1112.9178 " fill="none" id="CreateScenarioUI-to-CreateScenarioRequestDTO" style="stroke:#181818;stroke-width:1.0;stroke-dasharray:7.0,7.0;"/><polygon fill="#181818" points="320.38,1115.9811,314.6836,1107.9467,316.0808,1113.4283,310.5992,1114.8255,320.38,1115.9811" style="stroke:#181818;stroke-width:1.0;"/><text fill="#000000" font-family="sans-serif" font-size="13" lengthAdjust="spacing" textLength="42.6309" x="181" y="874.6494">creates</text></g><!--link CreateScenarioController to MapMapper--><g id="link_CreateScenarioController_MapMapper"><path codeLine="174" d="M650.33,874.6511 C686.08,867.8411 723.09,861.1911 758,855.6211 C869.91,837.7611 991.007,822.9761 1087.497,812.2161 " fill="none" id="CreateScenarioController-to-MapMapper" style="stroke:#181818;stroke-width:1.0;"/><polygon fill="#181818" points="1093.46,811.5511,1084.0721,808.5732,1088.4908,812.1052,1084.9588,816.5239,1093.46,811.5511" style="stroke:#181818;stroke-width:1.0;"/></g><!--link CreateScenarioController to LocomotiveTypeMapper--><g id="link_CreateScenarioController_LocomotiveTypeMapper"><path codeLine="175" d="M650.17,915.6211 C761.59,915.6211 895.4,915.6211 1011.64,915.6211 " fill="none" id="CreateScenarioController-to-LocomotiveTypeMapper" style="stroke:#181818;stroke-width:1.0;"/><polygon fill="#181818" points="1017.64,915.6211,1008.64,911.6211,1012.64,915.6211,1008.64,919.6211,1017.64,915.6211" style="stroke:#181818;stroke-width:1.0;"/></g><!--link CreateScenarioController to IndustryTypeMapper--><g id="link_CreateScenarioController_IndustryTypeMapper"><path codeLine="176" d="M510.47,788.9211 C561.29,692.2011 644.95,564.2411 758,495.6211 C841.66,444.8411 941.8253,425.2599 1033.7953,418.6699 " fill="none" id="CreateScenarioController-to-IndustryTypeMapper" style="stroke:#181818;stroke-width:1.0;"/><polygon fill="#181818" points="1039.78,418.2411,1030.5171,414.8946,1034.7928,418.5984,1031.0889,422.8741,1039.78,418.2411" style="stroke:#181818;stroke-width:1.0;"/></g><!--link CreateScenarioController to AuthenticationService--><g id="link_CreateScenarioController_AuthenticationService"><path codeLine="177" d="M626.11,1042.2011 C634.21,1048.3911 642.21,1054.5511 650,1060.6211 C699.06,1098.8511 700.63,1125.5911 758,1149.6211 C871.45,1197.1411 1006.15,1207.3124 1107.37,1207.1224 " fill="none" id="CreateScenarioController-to-AuthenticationService" style="stroke:#181818;stroke-width:1.0;"/><polygon fill="#181818" points="1113.37,1207.1111,1104.3625,1203.128,1108.37,1207.1205,1104.3775,1211.128,1113.37,1207.1111" style="stroke:#181818;stroke-width:1.0;"/></g><!--link CreateScenarioController to UserSession--><g id="link_CreateScenarioController_UserSession"><path codeLine="178" d="M634.83,1042.2811 C640.18,1048.2411 645.26,1054.3511 650,1060.6211 C672.91,1090.9111 662.27,1107.0411 680,1140.6211 C708.15,1193.9411 706.01,1221.0811 758,1251.6211 C877.29,1321.7011 1035.6181,1323.8972 1139.9581,1315.7672 " fill="none" id="CreateScenarioController-to-UserSession" style="stroke:#181818;stroke-width:1.0;"/><polygon fill="#181818" points="1145.94,1315.3011,1136.6565,1312.0123,1140.9551,1315.6895,1137.2779,1319.9882,1145.94,1315.3011" style="stroke:#181818;stroke-width:1.0;"/></g><!--link CreateScenarioController to GameRepository--><g id="link_CreateScenarioController_GameRepository"><path codeLine="179" d="M650.08,1027.1611 C660.06,1031.0211 670.06,1034.5411 680,1037.6211 C827.29,1083.2211 999.2419,1095.7494 1115.9119,1098.6994 " fill="none" id="CreateScenarioController-to-GameRepository" style="stroke:#181818;stroke-width:1.0;"/><polygon fill="#181818" points="1121.91,1098.8511,1113.014,1094.6249,1116.9116,1098.7247,1112.8118,1102.6223,1121.91,1098.8511" style="stroke:#181818;stroke-width:1.0;"/></g><!--link CreateScenarioController to ScenarioService--><g id="link_CreateScenarioController_ScenarioService"><path codeLine="180" d="M638.29,1042.3111 C642.55,1048.2211 646.47,1054.3211 650,1060.6211 C688.67,1129.7011 625.56,1358.1411 680,1415.6211 C702.71,1439.5911 723.7567,1455.8839 752.4467,1470.9339 " fill="none" id="CreateScenarioController-to-ScenarioService" style="stroke:#181818;stroke-width:1.0;"/><polygon fill="#181818" points="757.76,1473.7211,751.6482,1465.998,753.3322,1471.3984,747.9319,1473.0825,757.76,1473.7211" style="stroke:#181818;stroke-width:1.0;"/></g><!--link MapMapper to Mapper--><g id="link_MapMapper_Mapper"><path codeLine="183" d="M1401.76,788.4011 C1499.17,780.9811 1627.15,765.9711 1737,735.6211 C1802.59,717.5011 1811.21,691.0011 1877,673.6211 C2041.48,630.1711 2220.9066,618.1877 2343.2966,614.8777 " fill="none" id="MapMapper-to-Mapper" style="stroke:#181818;stroke-width:1.0;stroke-dasharray:7.0,7.0;"/><polygon fill="none" points="2361.29,614.3911,2343.1344,608.8799,2343.4588,620.8755,2361.29,614.3911" style="stroke:#181818;stroke-width:1.0;"/><text fill="#000000" font-family="sans-serif" font-size="13" lengthAdjust="spacing" textLength="66.4663" x="1774" y="680.6494">implements</text></g><!--link LocomotiveTypeMapper to Mapper--><g id="link_LocomotiveTypeMapper_Mapper"><path codeLine="184" d="M1477.04,916.9711 C1561.94,910.0211 1656.98,893.0311 1737,855.6211 C1797.67,827.2511 1809.7,808.2511 1847,752.6211 C1867.91,721.4211 1847.19,696.4611 1877,673.6211 C2016.21,566.9711 2212.2419,571.7226 2343.6319,589.4626 " fill="none" id="LocomotiveTypeMapper-to-Mapper" style="stroke:#181818;stroke-width:1.0;stroke-dasharray:7.0,7.0;"/><polygon fill="none" points="2361.47,591.8711,2344.4347,583.5166,2342.829,595.4087,2361.47,591.8711" style="stroke:#181818;stroke-width:1.0;"/><text fill="#000000" font-family="sans-serif" font-size="13" lengthAdjust="spacing" textLength="66.4663" x="1774" y="748.6494">implements</text></g><!--link IndustryTypeMapper to Mapper--><g id="link_IndustryTypeMapper_Mapper"><path codeLine="185" d="M1455.24,411.6011 C1549.09,416.4911 1656.77,437.0011 1737,495.6211 C1761.39,513.4411 1742.01,539.6411 1767,556.6211 C1945.47,677.9111 2192.6744,663.1808 2343.5144,639.6908 " fill="none" id="IndustryTypeMapper-to-Mapper" style="stroke:#181818;stroke-width:1.0;stroke-dasharray:7.0,7.0;"/><polygon fill="none" points="2361.3,636.9211,2342.5911,633.7623,2344.4376,645.6194,2361.3,636.9211" style="stroke:#181818;stroke-width:1.0;"/><text fill="#000000" font-family="sans-serif" font-size="13" lengthAdjust="spacing" textLength="66.4663" x="1774" y="552.6494">implements</text></g><!--link MapMapper to Map--><g id="link_MapMapper_Map"><path codeLine="190" d="M1401.54,786.6111 C1502.39,787.1311 1634.3,800.5511 1737,855.6211 C1755.06,865.3011 1748.74,881.3211 1767,890.6211 C1801.73,908.3111 1832.9283,920.8028 1871.0083,932.1128 " fill="none" id="MapMapper-to-Map" style="stroke:#181818;stroke-width:1.0;stroke-dasharray:7.0,7.0;"/><polygon fill="#181818" points="1876.76,933.8211,1869.2713,927.4242,1871.9669,932.3975,1866.9936,935.0931,1876.76,933.8211" style="stroke:#181818;stroke-width:1.0;"/><text fill="#000000" font-family="sans-serif" font-size="13" lengthAdjust="spacing" textLength="78.7427" x="1768" y="886.6494">converts from</text></g><!--link MapMapper to MapDTO--><g id="link_MapMapper_MapDTO"><path codeLine="191" d="M1401.66,821.9511 C1510.44,831.1711 1651.79,822.2911 1737,735.6211 C1781.49,690.3711 1731.03,503.9111 1767,451.6211 C1917.62,232.6711 2283.2114,233.4014 2419.9414,241.8414 " fill="none" id="MapMapper-to-MapDTO" style="stroke:#181818;stroke-width:1.0;stroke-dasharray:7.0,7.0;"/><polygon fill="#181818" points="2425.93,242.2111,2417.1935,237.6642,2420.9395,241.903,2416.7007,245.649,2425.93,242.2111" style="stroke:#181818;stroke-width:1.0;"/><text fill="#000000" font-family="sans-serif" font-size="13" lengthAdjust="spacing" textLength="63.5845" x="1775.5" y="376.6494">converts to</text></g><!--link LocomotiveTypeMapper to LocomotiveType--><g id="link_LocomotiveTypeMapper_LocomotiveType"><path codeLine="192" d="M1477.22,926.4011 C1561.12,936.0011 1655.46,953.6111 1737,985.6211 C1772.23,999.4511 1840.87,1071.3311 1877,1082.6211 C2132.16,1162.3811 2813.54,1104.2711 3080,1082.6211 C3303.75,1064.4411 3559.4004,1014.0254 3679.7804,988.5054 " fill="none" id="LocomotiveTypeMapper-to-LocomotiveType" style="stroke:#181818;stroke-width:1.0;stroke-dasharray:7.0,7.0;"/><polygon fill="#181818" points="3685.65,987.2611,3676.0161,985.2145,3680.7587,988.298,3677.6752,993.0406,3685.65,987.2611" style="stroke:#181818;stroke-width:1.0;"/><text fill="#000000" font-family="sans-serif" font-size="13" lengthAdjust="spacing" textLength="78.7427" x="3111" y="1067.6494">converts from</text></g><!--link LocomotiveTypeMapper to LocomotiveTypeDTO--><g id="link_LocomotiveTypeMapper_LocomotiveTypeDTO"><path codeLine="193" d="M1477.22,945.1711 C1570.08,944.0211 1670.85,923.7411 1737,855.6211 C1787.07,804.0611 1715.93,584.1811 1767,533.6211 C1935.23,367.0811 2242.8071,415.0348 2390.5871,450.6648 " fill="none" id="LocomotiveTypeMapper-to-LocomotiveTypeDTO" style="stroke:#181818;stroke-width:1.0;stroke-dasharray:7.0,7.0;"/><polygon fill="#181818" points="2396.42,452.0711,2388.6082,446.073,2391.5593,450.8992,2386.7332,453.8502,2396.42,452.0711" style="stroke:#181818;stroke-width:1.0;"/><text fill="#000000" font-family="sans-serif" font-size="13" lengthAdjust="spacing" textLength="63.5845" x="1775.5" y="474.6494">converts to</text></g><!--link IndustryTypeMapper to IndustryType--><g id="link_IndustryTypeMapper_IndustryType"><path codeLine="194" d="M1455.18,403.0111 C1550.08,394.9511 1664.15,386.5811 1767,382.6211 C2350.15,360.1611 2498.48,346.5611 3080,395.6211 C3289.25,413.2711 3525.9957,456.7683 3654.9457,482.4683 " fill="none" id="IndustryTypeMapper-to-IndustryType" style="stroke:#181818;stroke-width:1.0;stroke-dasharray:7.0,7.0;"/><polygon fill="#181818" points="3660.83,483.6411,3652.7854,477.9591,3655.9264,482.6638,3651.2218,485.8048,3660.83,483.6411" style="stroke:#181818;stroke-width:1.0;"/><text fill="#000000" font-family="sans-serif" font-size="13" lengthAdjust="spacing" textLength="78.7427" x="3111" y="395.6494">converts from</text></g><!--link IndustryTypeMapper to IndustryTypeDTO--><g id="link_IndustryTypeMapper_IndustryTypeDTO"><path codeLine="195" d="M1332.42,379.9811 C1450.65,321.9111 1674.48,219.3111 1877,167.6211 C2053.54,122.5611 2260.8462,107.1541 2379.8262,101.7341 " fill="none" id="IndustryTypeMapper-to-IndustryTypeDTO" style="stroke:#181818;stroke-width:1.0;stroke-dasharray:7.0,7.0;"/><polygon fill="#181818" points="2385.82,101.4611,2376.6473,97.8748,2380.8252,101.6886,2377.0114,105.8665,2385.82,101.4611" style="stroke:#181818;stroke-width:1.0;"/><text fill="#000000" font-family="sans-serif" font-size="13" lengthAdjust="spacing" textLength="63.5845" x="1775.5" y="173.6494">converts to</text></g><!--link GameRepository to MapRepository--><g id="link_GameRepository_MapRepository"><path codeLine="197" d="M1373.11,1110.2811 C1621.78,1133.5511 2168.2261,1184.6821 2383.3661,1204.8121 " fill="none" id="GameRepository-to-MapRepository" style="stroke:#181818;stroke-width:1.0;"/><polygon fill="#181818" points="2389.34,1205.3711,2380.7518,1200.55,2384.3617,1204.9053,2380.0065,1208.5153,2389.34,1205.3711" style="stroke:#181818;stroke-width:1.0;"/></g><!--link CreateScenarioController to MapRepository--><g id="link_CreateScenarioController_MapRepository"><path codeLine="198" d="M650.12,958.0111 C685.9,964.6711 722.97,970.9011 758,975.6211 C1190.39,1033.8311 1325.29,903.2611 1737,1047.6211 C1754.8,1053.8611 1859.34,1137.0011 1877,1143.6211 C2050.23,1208.5411 2263.5602,1217.2951 2383.4102,1216.4151 " fill="none" id="CreateScenarioController-to-MapRepository" style="stroke:#181818;stroke-width:1.0;"/><polygon fill="#181818" points="2389.41,1216.3711,2380.3809,1212.4373,2384.4101,1216.4078,2380.4396,1220.4371,2389.41,1216.3711" style="stroke:#181818;stroke-width:1.0;"/></g><!--link CreateScenarioController to LocomotiveTypeRepository--><g id="link_CreateScenarioController_LocomotiveTypeRepository"><path codeLine="199" d="M547.81,788.9911 C602.1,726.1411 675.73,655.3311 758,615.6211 C857.46,567.6211 975.0126,552.9693 1072.9726,550.0593 " fill="none" id="CreateScenarioController-to-LocomotiveTypeRepository" style="stroke:#181818;stroke-width:1.0;"/><polygon fill="#181818" points="1078.97,549.8811,1069.8552,546.1501,1073.9722,550.0296,1070.0927,554.1466,1078.97,549.8811" style="stroke:#181818;stroke-width:1.0;"/></g><!--link CreateScenarioController to IndustryTypeRepository--><g id="link_CreateScenarioController_IndustryTypeRepository"><path codeLine="200" d="M640.41,788.9711 C678.04,768.2211 718.27,749.1311 758,735.6211 C865.19,699.1811 986.3005,684.7461 1083.9805,678.9561 " fill="none" id="CreateScenarioController-to-IndustryTypeRepository" style="stroke:#181818;stroke-width:1.0;"/><polygon fill="#181818" points="1089.97,678.6011,1080.7491,675.1406,1084.9788,678.897,1081.2225,683.1266,1089.97,678.6011" style="stroke:#181818;stroke-width:1.0;"/></g><!--link CreateScenarioController to ScenarioRepository--><g id="link_CreateScenarioController_ScenarioRepository"><path codeLine="201" d="M637.2,1042.2111 C641.81,1048.1611 646.1,1054.3011 650,1060.6211 C691.45,1127.7711 650.95,1162.2511 680,1235.6211 C703.14,1294.0711 703.27,1322.7011 758,1353.6211 C826.63,1392.4011 1944.911,1416.0617 2337.501,1423.2217 " fill="none" id="CreateScenarioController-to-ScenarioRepository" style="stroke:#181818;stroke-width:1.0;"/><polygon fill="#181818" points="2343.5,1423.3311,2334.5744,1419.1676,2338.5008,1423.2399,2334.4286,1427.1663,2343.5,1423.3311" style="stroke:#181818;stroke-width:1.0;"/></g><!--link ScenarioService to ScenarioRepository--><g id="link_ScenarioService_ScenarioRepository"><path codeLine="202" d="M1737.32,1467.1811 C1956.28,1454.8811 2191.4794,1441.6774 2337.1994,1433.4974 " fill="none" id="ScenarioService-to-ScenarioRepository" style="stroke:#181818;stroke-width:1.0;"/><polygon fill="#181818" points="2343.19,1433.1611,2333.98,1429.6718,2338.1979,1433.4413,2334.4283,1437.6592,2343.19,1433.1611" style="stroke:#181818;stroke-width:1.0;"/></g><!--reverse link Map to Scenario--><g id="link_Map_Scenario"><path codeLine="204" d="M3091.8831,854.2934 C3142.1531,846.6334 3177.83,841.1911 3219.76,834.8011 " fill="none" id="Map-backto-Scenario" style="stroke:#181818;stroke-width:1.0;"/><polygon fill="#181818" points="3080.02,856.1011,3086.5541,859.1516,3091.8831,854.2934,3085.349,851.2429,3080.02,856.1011" style="stroke:#181818;stroke-width:1.0;"/><text fill="#000000" font-family="sans-serif" font-size="13" lengthAdjust="spacing" textLength="20.96" x="3140" y="835.6494">has</text><text fill="#000000" font-family="sans-serif" font-size="13" lengthAdjust="spacing" textLength="7.23" x="3088.5277" y="868.9625">1</text><text fill="#000000" font-family="sans-serif" font-size="13" lengthAdjust="spacing" textLength="19.5127" x="3192.2642" y="850.4594">0..*</text></g><!--reverse link Editor to Scenario--><g id="link_Editor_Scenario"><path codeLine="205" d="M2543.0783,748.2534 C2673.8383,757.7834 3010.68,782.3411 3219.81,797.5811 " fill="none" id="Editor-backto-Scenario" style="stroke:#181818;stroke-width:1.0;"/><polygon fill="#181818" points="2531.11,747.3811,2536.8034,751.8066,2543.0783,748.2534,2537.3849,743.8278,2531.11,747.3811" style="stroke:#181818;stroke-width:1.0;"/><text fill="#000000" font-family="sans-serif" font-size="13" lengthAdjust="spacing" textLength="42.6309" x="3129" y="786.6494">creates</text><text fill="#000000" font-family="sans-serif" font-size="13" lengthAdjust="spacing" textLength="7.23" x="2539.3407" y="763.2415">1</text><text fill="#000000" font-family="sans-serif" font-size="13" lengthAdjust="spacing" textLength="19.5127" x="3192.3166" y="811.4366">0..*</text></g><!--reverse link Scenario to LocomotiveType--><g id="link_Scenario_LocomotiveType"><path codeLine="206" d="M3563.0695,888.1387 C3610.3595,909.2287 3648.29,926.1411 3685.93,942.9311 " fill="none" id="Scenario-backto-LocomotiveType" style="stroke:#181818;stroke-width:1.0;"/><polygon fill="#181818" points="3552.11,883.2511,3555.9605,889.3481,3563.0695,888.1387,3559.219,882.0417,3552.11,883.2511" style="stroke:#181818;stroke-width:1.0;"/><text fill="#000000" font-family="sans-serif" font-size="13" lengthAdjust="spacing" textLength="36.1245" x="3588.5" y="897.6494">allows</text><text fill="#000000" font-family="sans-serif" font-size="13" lengthAdjust="spacing" textLength="7.23" x="3559.8046" y="900.9996">1</text><text fill="#000000" font-family="sans-serif" font-size="13" lengthAdjust="spacing" textLength="19.5127" x="3658.544" y="954.6312">1..*</text></g><!--reverse link Scenario to IndustryType--><g id="link_Scenario_IndustryType"><path codeLine="207" d="M3502.3988,712.6932 C3566.3688,658.9632 3636.42,600.1211 3690.35,554.8211 " fill="none" id="Scenario-backto-IndustryType" style="stroke:#181818;stroke-width:1.0;"/><polygon fill="#181818" points="3493.21,720.4111,3500.377,719.6151,3502.3988,712.6932,3495.2318,713.4892,3493.21,720.4111" style="stroke:#181818;stroke-width:1.0;"/><text fill="#000000" font-family="sans-serif" font-size="13" lengthAdjust="spacing" textLength="36.1245" x="3588.5" y="607.6494">allows</text><text fill="#000000" font-family="sans-serif" font-size="13" lengthAdjust="spacing" textLength="7.23" x="3494.8152" y="709.3455">1</text><text fill="#000000" font-family="sans-serif" font-size="13" lengthAdjust="spacing" textLength="19.5127" x="3662.0892" y="576.654">1..*</text></g><!--reverse link Scenario to HistoricalEvent--><g id="link_Scenario_HistoricalEvent"><path codeLine="208" d="M3564.11,809.6211 C3610.64,809.6211 3646.72,809.6211 3684.12,809.6211 " fill="none" id="Scenario-backto-HistoricalEvent" style="stroke:#181818;stroke-width:1.0;"/><polygon fill="#181818" points="3552.11,809.6211,3558.11,813.6211,3564.11,809.6211,3558.11,805.6211,3552.11,809.6211" style="stroke:#181818;stroke-width:1.0;"/><text fill="#000000" font-family="sans-serif" font-size="13" lengthAdjust="spacing" textLength="47.6963" x="3583" y="805.6494">includes</text><text fill="#000000" font-family="sans-serif" font-size="13" lengthAdjust="spacing" textLength="7.23" x="3559.8046" y="824.0333">1</text><text fill="#000000" font-family="sans-serif" font-size="13" lengthAdjust="spacing" textLength="19.5127" x="3657.0091" y="824.516">0..*</text></g><!--SRC=[hLTVZzie47_tfq3xqgIDerQw9sjbgRTRtKNQKwLDzWEmDflGOkC3abNKk-z-0_WFOCYcfpub7dxC33C_PWRvdROT5hX13MzvTH2y8KY98ydakDBXwZlUawqwCu84gHHkzym5o0Ek-Ijjz-W5CqcoZ94NXHH7WkuF2jLKRwAypJ955UXusdxy3UNeZc4fqJt5Uwq4lWN1YY2CjXLfiQ0SlN2XFmc3_QH6V-4koogpos87uDC6_SZ-ZQ_TyLO9pXWHW45W1X_LOKl4YLQaG9_XWxIALbWxs8iDR8yRyaWwBgdYuboWFxnl0v6zYL7RrXSOK8CxyBiZej3-sxzcWV6ADrpH4zcTEp9W7Y9I0wTjVPHAd5tmPYO3w0Uq9-hkA0ISwqaIySWPMIp1EIKWHGC0u0zKAhsWVs_X-txtjHoMVJSyfB_aRdBTyRQu2-E6oalJGf2_ZqIg8aZVenN3Bb1suhJMUNw7u5iQUa3gRtDqpnjCMxJe13_HMZEHWLsvx1bX3sVo_m7HMaUvZqGBMVL2yqfhTIWWsify7eYciFqU2JQBGAzvfansX82rcX-V6J6IZh_gn3cIYkj3zuBHH12nb04uRtqqT-iHOXReRUMnwMPhG_Y6wENb63r9MXEx6YkyZ5wcAHkzHy3kpSLuIeM5sb4jlGT5HWPc0eb_5pQr7BdMxYrRNFh7rW_moGNSO_Rb1CGV07_wub8VFuDa4l62AuBifRdTbVrn58UZBHJOAD0E2BURf8RGTiLetfNByPyDgbKc9yvPWQSQucNgmBBeIHaOW7KvtSWol9q92aOCzPvwi6KnfsxaW39wqSiBzpzAswHJBcXPX5I_u92BB9ErPNG679WATky7LAdFZC6AT2kVfT0BSEptywPU31N29YaLz8Hk7oGJPTEtAC6aH-dKfcYW4uwu41ajnLSwuMyPNPXgGc1UujDKreSUEJL7fuxxYlgksRTfELDVH4mQWoVCQEtsagZHPmwD4BV_g_Uiq71nLq6jIboMbLUmKWGU34snyAUCAPyUbnUMc4uKnltHUMPIuum5Mo8bGBGkvtFIv0Yd_SCyCV79bdh_rlKPT1fj7ZQ6t6-qkTTezRSWUx0y1ExhypSO0KkF6CFQ4CH-LPcJZulsitH7A3hBXrskg9gMxgWwH-SKzo2hiBsj_DxswyYokhR1HLar3jG_uhcOD-byrgHXS6OCffVwuPeZkHisRntE4k3A1kvUU70DBvohdQZKoMC7ura-6y_oAyQpbFRaR9PVcisi_k3KAHCraPMWHeylDqh7nD46dd1m2dkB9YjVQbqzdDlgg9ZPWZVK933p3WoFHqcacSLNgENmqhE393TsP3PxfEKmRAPUPtFqUbqEapj4YCgEuRECm-OJ-LixmW7xBNno3Yxw0Y5rI9p7fWbDOqT2_HQ6d9-866C44XstBFbOrR6Q7emNOT4tuyKTaOVZHNpycNnnYzjKBWA3X_L5RFZ0ph9fp5wl_odx6HoI0fndfD6598lEoabqP8HDOj-XqN7e7EP5fTzE25SLd3np7WLZ-f-9UYMa7MY0szhom3s7CQQ9PVU0Oi6REQ9dtm1IF7NIa24prLVkcnkC1ikdrypO5NlcXh9WCEflnxMy-GbeQiY__aBzB9aTV3WA9s2Q2-Zcqmrwd-VevkDw_Vvcwl45Ec2PzRKz3HggrYWQePyCT4OPqytJ-23dIRHr96nmUl2hs14QMlOV]--></g></svg>