<svg xmlns="http://www.w3.org/2000/svg" xmlns:xlink="http://www.w3.org/1999/xlink" contentStyleType="text/css" height="394px" preserveAspectRatio="none" style="width:1072px;height:394px;background:#FFFFFF;" version="1.1" viewBox="0 0 1072 394" width="1072px" zoomAndPan="magnify"><title>US04 - Get Locomotive Types List - Partial Sequence Diagram</title><defs/><g><text fill="#000000" font-family="sans-serif" font-size="14" font-weight="bold" lengthAdjust="spacing" textLength="411.5645" x="329.4619" y="30.1074">US04 - Get Locomotive Types List - Partial Sequence Diagram</text><rect fill="#FFFFFF" height="189.7461" style="stroke:#181818;stroke-width:1.0;" width="10" x="230.9224" y="130.1543"/><rect fill="#FFFFFF" height="31.291" style="stroke:#181818;stroke-width:1.0;" width="10" x="422.6113" y="187.7363"/><rect fill="#FFFFFF" height="31.291" style="stroke:#181818;stroke-width:1.0;" width="10" x="610.4106" y="250.3184"/><rect fill="none" height="144.4551" style="stroke:#000000;stroke-width:1.5;" width="571.4531" x="137.9951" y="145.1543"/><line style="stroke:#181818;stroke-width:0.5;stroke-dasharray:5.0,5.0;" x1="69" x2="69" y1="96.8633" y2="337.9004"/><line style="stroke:#181818;stroke-width:0.5;stroke-dasharray:5.0,5.0;" x1="234.9951" x2="234.9951" y1="96.8633" y2="337.9004"/><line style="stroke:#181818;stroke-width:0.5;stroke-dasharray:5.0,5.0;" x1="426.8496" x2="426.8496" y1="96.8633" y2="337.9004"/><line style="stroke:#181818;stroke-width:0.5;stroke-dasharray:5.0,5.0;" x1="615.373" x2="615.373" y1="96.8633" y2="337.9004"/><line style="stroke:#181818;stroke-width:0.5;stroke-dasharray:5.0,5.0;" x1="788.4482" x2="788.4482" y1="96.8633" y2="337.9004"/><line style="stroke:#181818;stroke-width:0.5;stroke-dasharray:5.0,5.0;" x1="972.1924" x2="972.1924" y1="96.8633" y2="337.9004"/><rect fill="#E3E3E3" height="32.6211" rx="2.5" ry="2.5" style="stroke:#181818;stroke-width:0.5;" width="129.165" x="5" y="63.2422"/><text fill="#000000" font-family="sans-serif" font-size="14" lengthAdjust="spacing" textLength="115.165" x="12" y="85.3496">:CreateScenarioUI</text><rect fill="#E3E3E3" height="32.6211" rx="2.5" ry="2.5" style="stroke:#181818;stroke-width:0.5;" width="129.165" x="5" y="336.9004"/><text fill="#000000" font-family="sans-serif" font-size="14" lengthAdjust="spacing" textLength="115.165" x="12" y="359.0078">:CreateScenarioUI</text><rect fill="#E3E3E3" height="32.6211" rx="2.5" ry="2.5" style="stroke:#181818;stroke-width:0.5;" width="175.8545" x="147.9951" y="63.2422"/><text fill="#000000" font-family="sans-serif" font-size="14" lengthAdjust="spacing" textLength="161.8545" x="154.9951" y="85.3496">:CreateScenarioController</text><rect fill="#E3E3E3" height="32.6211" rx="2.5" ry="2.5" style="stroke:#181818;stroke-width:0.5;" width="175.8545" x="147.9951" y="336.9004"/><text fill="#000000" font-family="sans-serif" font-size="14" lengthAdjust="spacing" textLength="161.8545" x="154.9951" y="359.0078">:CreateScenarioController</text><rect fill="#E3E3E3" height="32.6211" rx="2.5" ry="2.5" style="stroke:#181818;stroke-width:0.5;" width="187.5234" x="333.8496" y="63.2422"/><text fill="#000000" font-family="sans-serif" font-size="14" lengthAdjust="spacing" textLength="173.5234" x="340.8496" y="85.3496">:LocomotiveTypeRepository</text><rect fill="#E3E3E3" height="32.6211" rx="2.5" ry="2.5" style="stroke:#181818;stroke-width:0.5;" width="187.5234" x="333.8496" y="336.9004"/><text fill="#000000" font-family="sans-serif" font-size="14" lengthAdjust="spacing" textLength="173.5234" x="340.8496" y="359.0078">:LocomotiveTypeRepository</text><rect fill="#E3E3E3" height="32.6211" rx="2.5" ry="2.5" style="stroke:#181818;stroke-width:0.5;" width="168.0752" x="531.373" y="63.2422"/><text fill="#000000" font-family="sans-serif" font-size="14" lengthAdjust="spacing" textLength="154.0752" x="538.373" y="85.3496">:LocomotiveTypeMapper</text><rect fill="#E3E3E3" height="32.6211" rx="2.5" ry="2.5" style="stroke:#181818;stroke-width:0.5;" width="168.0752" x="531.373" y="336.9004"/><text fill="#000000" font-family="sans-serif" font-size="14" lengthAdjust="spacing" textLength="154.0752" x="538.373" y="359.0078">:LocomotiveTypeMapper</text><rect fill="#E3E3E3" height="51.2422" rx="2.5" ry="2.5" style="stroke:#181818;stroke-width:0.5;" width="158.7441" x="709.4482" y="44.6211"/><text fill="#000000" font-family="sans-serif" font-size="14" lengthAdjust="spacing" textLength="119.8271" x="728.9067" y="66.7285">locomotiveTypeList</text><text fill="#000000" font-family="sans-serif" font-size="14" lengthAdjust="spacing" textLength="144.7441" x="716.4482" y="85.3496">:List&lt;LocomotiveType&gt;</text><rect fill="#E3E3E3" height="51.2422" rx="2.5" ry="2.5" style="stroke:#181818;stroke-width:0.5;" width="158.7441" x="709.4482" y="336.9004"/><text fill="#000000" font-family="sans-serif" font-size="14" lengthAdjust="spacing" textLength="119.8271" x="728.9067" y="359.0078">locomotiveTypeList</text><text fill="#000000" font-family="sans-serif" font-size="14" lengthAdjust="spacing" textLength="144.7441" x="716.4482" y="377.6289">:List&lt;LocomotiveType&gt;</text><rect fill="#E3E3E3" height="51.2422" rx="2.5" ry="2.5" style="stroke:#181818;stroke-width:0.5;" width="188.2959" x="878.1924" y="44.6211"/><text fill="#000000" font-family="sans-serif" font-size="14" lengthAdjust="spacing" textLength="77.0205" x="933.8301" y="66.7285">locoDTOList</text><text fill="#000000" font-family="sans-serif" font-size="14" lengthAdjust="spacing" textLength="174.2959" x="885.1924" y="85.3496">:List&lt;LocomotiveTypeDTO&gt;</text><rect fill="#E3E3E3" height="51.2422" rx="2.5" ry="2.5" style="stroke:#181818;stroke-width:0.5;" width="188.2959" x="878.1924" y="336.9004"/><text fill="#000000" font-family="sans-serif" font-size="14" lengthAdjust="spacing" textLength="77.0205" x="933.8301" y="359.0078">locoDTOList</text><text fill="#000000" font-family="sans-serif" font-size="14" lengthAdjust="spacing" textLength="174.2959" x="885.1924" y="377.6289">:List&lt;LocomotiveTypeDTO&gt;</text><rect fill="#FFFFFF" height="189.7461" style="stroke:#181818;stroke-width:1.0;" width="10" x="230.9224" y="130.1543"/><rect fill="#FFFFFF" height="31.291" style="stroke:#181818;stroke-width:1.0;" width="10" x="422.6113" y="187.7363"/><rect fill="#FFFFFF" height="31.291" style="stroke:#181818;stroke-width:1.0;" width="10" x="610.4106" y="250.3184"/><polygon fill="#181818" points="218.9224,126.1543,228.9224,130.1543,218.9224,134.1543,222.9224,130.1543" style="stroke:#181818;stroke-width:1.0;"/><line style="stroke:#181818;stroke-width:1.0;" x1="69.5825" x2="224.9224" y1="130.1543" y2="130.1543"/><text fill="#000000" font-family="sans-serif" font-size="13" lengthAdjust="spacing" textLength="142.3398" x="76.5825" y="124.8916">getLocomotiveTypeList()</text><path d="M137.9951,145.1543 L349.1387,145.1543 L349.1387,154.4453 L339.1387,164.4453 L137.9951,164.4453 L137.9951,145.1543 " fill="#EEEEEE" style="stroke:#000000;stroke-width:1.5;"/><rect fill="none" height="144.4551" style="stroke:#000000;stroke-width:1.5;" width="571.4531" x="137.9951" y="145.1543"/><text fill="#000000" font-family="sans-serif" font-size="13" font-weight="bold" lengthAdjust="spacing" textLength="166.1436" x="152.9951" y="160.1826">Get Locomotive Types List</text><polygon fill="#181818" points="410.6113,183.7363,420.6113,187.7363,410.6113,191.7363,414.6113,187.7363" style="stroke:#181818;stroke-width:1.0;"/><line style="stroke:#181818;stroke-width:1.0;" x1="240.9224" x2="416.6113" y1="187.7363" y2="187.7363"/><text fill="#000000" font-family="sans-serif" font-size="13" lengthAdjust="spacing" textLength="143.0571" x="247.9224" y="182.4736">getAllLocomotiveTypes()</text><polygon fill="#181818" points="251.9224,215.0273,241.9224,219.0273,251.9224,223.0273,247.9224,219.0273" style="stroke:#181818;stroke-width:1.0;"/><line style="stroke:#181818;stroke-width:1.0;stroke-dasharray:2.0,2.0;" x1="245.9224" x2="426.6113" y1="219.0273" y2="219.0273"/><text fill="#000000" font-family="sans-serif" font-size="13" lengthAdjust="spacing" textLength="111.2681" x="257.9224" y="213.7646">locomotiveTypeList</text><polygon fill="#181818" points="598.4106,246.3184,608.4106,250.3184,598.4106,254.3184,602.4106,250.3184" style="stroke:#181818;stroke-width:1.0;"/><line style="stroke:#181818;stroke-width:1.0;" x1="240.9224" x2="604.4106" y1="250.3184" y2="250.3184"/><text fill="#000000" font-family="sans-serif" font-size="13" lengthAdjust="spacing" textLength="178.439" x="247.9224" y="245.0557">toDTOList(locomotiveTypeList)</text><polygon fill="#181818" points="251.9224,277.6094,241.9224,281.6094,251.9224,285.6094,247.9224,281.6094" style="stroke:#181818;stroke-width:1.0;"/><line style="stroke:#181818;stroke-width:1.0;stroke-dasharray:2.0,2.0;" x1="245.9224" x2="614.4106" y1="281.6094" y2="281.6094"/><text fill="#000000" font-family="sans-serif" font-size="13" lengthAdjust="spacing" textLength="71.519" x="257.9224" y="276.3467">locoDTOList</text><polygon fill="#181818" points="80.5825,315.9004,70.5825,319.9004,80.5825,323.9004,76.5825,319.9004" style="stroke:#181818;stroke-width:1.0;"/><line style="stroke:#181818;stroke-width:1.0;stroke-dasharray:2.0,2.0;" x1="74.5825" x2="234.9224" y1="319.9004" y2="319.9004"/><text fill="#000000" font-family="sans-serif" font-size="13" lengthAdjust="spacing" textLength="71.519" x="86.5825" y="314.6377">locoDTOList</text><!--SRC=[VP4_QyCm4CLtVOeZKpe4EdGA9H2SK0mEDlup5Be8v-g8o98gAItvzfLinx7Z95e4kdU_UtfdZamegcaDjHIoF6XP8rXzGcBwYgBbaLQOsJD7q5XQAYe-59W3tSi_9YhufjmW8PPP9osorpTOm0TQY6GfQsdPBq9-LcWWOiQwMaArPPH3XZyd52N2Xj7A8mbHlbGoHOM5sJBGI2rc9GggcIp26L03HVXK5KXXjUGSTQCEyZIwqLzjULSfAccObVhSwACuYDDj4Z_jsL6bEhxNxzP9iat77NpKu3_-9PR-UX-ZLZqb_qosKPZbKyucZny3NF7Ay4gF84K8YrNpULX2XJQQs9c_45gw1nTT6nAuKsbvKeztrsWQg8DVace7h3aVpp1kW9VtG_faeJizO76rEesjaU_nFcPYg5s50zbBQlCfyewnReL3Qntgnbn7lUTgm42nRxCa0uSEvDOonf01mwl-0G00]--></g></svg>