<svg xmlns="http://www.w3.org/2000/svg" xmlns:xlink="http://www.w3.org/1999/xlink" contentStyleType="text/css" height="668px" preserveAspectRatio="none" style="width:1441px;height:668px;background:#FFFFFF;" version="1.1" viewBox="0 0 1441 668" width="1441px" zoomAndPan="magnify"><title>US04 - Create Scenario - Partial Sequence Diagram (with DTOs)</title><defs/><g><text fill="#000000" font-family="sans-serif" font-size="14" font-weight="bold" lengthAdjust="spacing" textLength="421.6816" x="511.2007" y="30.1074">US04 - Create Scenario - Partial Sequence Diagram (with DTOs)</text><rect fill="#FFFFFF" height="500.9863" style="stroke:#181818;stroke-width:1.0;" width="10" x="228.0405" y="111.5332"/><rect fill="#FFFFFF" height="31.291" style="stroke:#181818;stroke-width:1.0;" width="10" x="395.7749" y="169.1152"/><rect fill="#FFFFFF" height="31.291" style="stroke:#181818;stroke-width:1.0;" width="10" x="555.5571" y="231.6973"/><rect fill="#FFFFFF" height="31.291" style="stroke:#181818;stroke-width:1.0;" width="10" x="742.1841" y="294.2793"/><rect fill="#FFFFFF" height="31.291" style="stroke:#181818;stroke-width:1.0;" width="10" x="898.0801" y="449.0645"/><rect fill="#FFFFFF" height="200.0762" style="stroke:#181818;stroke-width:1.0;" width="10" x="1184.4888" y="374.1523"/><rect fill="#FFFFFF" height="31.291" style="stroke:#181818;stroke-width:1.0;" width="10" x="1350.0522" y="511.6465"/><rect fill="none" height="455.6953" style="stroke:#000000;stroke-width:1.5;" width="1299.9697" x="135.1133" y="126.5332"/><line style="stroke:#181818;stroke-width:0.5;stroke-dasharray:5.0,5.0;" x1="69" x2="69" y1="78.2422" y2="630.5195"/><line style="stroke:#181818;stroke-width:0.5;stroke-dasharray:5.0,5.0;" x1="232.1133" x2="232.1133" y1="78.2422" y2="630.5195"/><line style="stroke:#181818;stroke-width:0.5;stroke-dasharray:5.0,5.0;" x1="400.7544" x2="400.7544" y1="78.2422" y2="630.5195"/><line style="stroke:#181818;stroke-width:0.5;stroke-dasharray:5.0,5.0;" x1="559.7954" x2="559.7954" y1="78.2422" y2="630.5195"/><line style="stroke:#181818;stroke-width:0.5;stroke-dasharray:5.0,5.0;" x1="746.3188" x2="746.3188" y1="78.2422" y2="630.5195"/><line style="stroke:#181818;stroke-width:0.5;stroke-dasharray:5.0,5.0;" x1="903.0493" x2="903.0493" y1="413.9629" y2="630.5195"/><line style="stroke:#181818;stroke-width:0.5;stroke-dasharray:5.0,5.0;" x1="1188.5752" x2="1188.5752" y1="78.2422" y2="630.5195"/><line style="stroke:#181818;stroke-width:0.5;stroke-dasharray:5.0,5.0;" x1="1355.0215" x2="1355.0215" y1="78.2422" y2="630.5195"/><rect fill="#E3E3E3" height="32.6211" rx="2.5" ry="2.5" style="stroke:#181818;stroke-width:0.5;" width="129.165" x="5" y="44.6211"/><text fill="#000000" font-family="sans-serif" font-size="14" lengthAdjust="spacing" textLength="115.165" x="12" y="66.7285">:CreateScenarioUI</text><rect fill="#E3E3E3" height="32.6211" rx="2.5" ry="2.5" style="stroke:#181818;stroke-width:0.5;" width="129.165" x="5" y="629.5195"/><text fill="#000000" font-family="sans-serif" font-size="14" lengthAdjust="spacing" textLength="115.165" x="12" y="651.627">:CreateScenarioUI</text><rect fill="#E3E3E3" height="32.6211" rx="2.5" ry="2.5" style="stroke:#181818;stroke-width:0.5;" width="175.8545" x="145.1133" y="44.6211"/><text fill="#000000" font-family="sans-serif" font-size="14" lengthAdjust="spacing" textLength="161.8545" x="152.1133" y="66.7285">:CreateScenarioController</text><rect fill="#E3E3E3" height="32.6211" rx="2.5" ry="2.5" style="stroke:#181818;stroke-width:0.5;" width="175.8545" x="145.1133" y="629.5195"/><text fill="#000000" font-family="sans-serif" font-size="14" lengthAdjust="spacing" textLength="161.8545" x="152.1133" y="651.627">:CreateScenarioController</text><rect fill="#E3E3E3" height="32.6211" rx="2.5" ry="2.5" style="stroke:#181818;stroke-width:0.5;" width="112.041" x="344.7544" y="44.6211"/><text fill="#000000" font-family="sans-serif" font-size="14" lengthAdjust="spacing" textLength="98.041" x="351.7544" y="66.7285">:MapRepository</text><rect fill="#E3E3E3" height="32.6211" rx="2.5" ry="2.5" style="stroke:#181818;stroke-width:0.5;" width="112.041" x="344.7544" y="629.5195"/><text fill="#000000" font-family="sans-serif" font-size="14" lengthAdjust="spacing" textLength="98.041" x="351.7544" y="651.627">:MapRepository</text><rect fill="#E3E3E3" height="32.6211" rx="2.5" ry="2.5" style="stroke:#181818;stroke-width:0.5;" width="187.5234" x="466.7954" y="44.6211"/><text fill="#000000" font-family="sans-serif" font-size="14" lengthAdjust="spacing" textLength="173.5234" x="473.7954" y="66.7285">:LocomotiveTypeRepository</text><rect fill="#E3E3E3" height="32.6211" rx="2.5" ry="2.5" style="stroke:#181818;stroke-width:0.5;" width="187.5234" x="466.7954" y="629.5195"/><text fill="#000000" font-family="sans-serif" font-size="14" lengthAdjust="spacing" textLength="173.5234" x="473.7954" y="651.627">:LocomotiveTypeRepository</text><rect fill="#E3E3E3" height="32.6211" rx="2.5" ry="2.5" style="stroke:#181818;stroke-width:0.5;" width="165.7305" x="664.3188" y="44.6211"/><text fill="#000000" font-family="sans-serif" font-size="14" lengthAdjust="spacing" textLength="151.7305" x="671.3188" y="66.7285">:IndustryTypeRepository</text><rect fill="#E3E3E3" height="32.6211" rx="2.5" ry="2.5" style="stroke:#181818;stroke-width:0.5;" width="165.7305" x="664.3188" y="629.5195"/><text fill="#000000" font-family="sans-serif" font-size="14" lengthAdjust="spacing" textLength="151.7305" x="671.3188" y="651.627">:IndustryTypeRepository</text><rect fill="#E3E3E3" height="32.6211" rx="2.5" ry="2.5" style="stroke:#181818;stroke-width:0.5;" width="126.0615" x="840.0493" y="629.5195"/><text fill="#000000" font-family="sans-serif" font-size="14" lengthAdjust="spacing" textLength="112.0615" x="847.0493" y="651.627">scenario:Scenario</text><rect fill="#E3E3E3" height="32.6211" rx="2.5" ry="2.5" style="stroke:#181818;stroke-width:0.5;" width="119.8271" x="1129.5752" y="44.6211"/><text fill="#000000" font-family="sans-serif" font-size="14" lengthAdjust="spacing" textLength="105.8271" x="1136.5752" y="66.7285">:ScenarioService</text><rect fill="#E3E3E3" height="32.6211" rx="2.5" ry="2.5" style="stroke:#181818;stroke-width:0.5;" width="119.8271" x="1129.5752" y="629.5195"/><text fill="#000000" font-family="sans-serif" font-size="14" lengthAdjust="spacing" textLength="105.8271" x="1136.5752" y="651.627">:ScenarioService</text><rect fill="#E3E3E3" height="32.6211" rx="2.5" ry="2.5" style="stroke:#181818;stroke-width:0.5;" width="140.0615" x="1285.0215" y="44.6211"/><text fill="#000000" font-family="sans-serif" font-size="14" lengthAdjust="spacing" textLength="126.0615" x="1292.0215" y="66.7285">:ScenarioRepository</text><rect fill="#E3E3E3" height="32.6211" rx="2.5" ry="2.5" style="stroke:#181818;stroke-width:0.5;" width="140.0615" x="1285.0215" y="629.5195"/><text fill="#000000" font-family="sans-serif" font-size="14" lengthAdjust="spacing" textLength="126.0615" x="1292.0215" y="651.627">:ScenarioRepository</text><rect fill="#FFFFFF" height="500.9863" style="stroke:#181818;stroke-width:1.0;" width="10" x="228.0405" y="111.5332"/><rect fill="#FFFFFF" height="31.291" style="stroke:#181818;stroke-width:1.0;" width="10" x="395.7749" y="169.1152"/><rect fill="#FFFFFF" height="31.291" style="stroke:#181818;stroke-width:1.0;" width="10" x="555.5571" y="231.6973"/><rect fill="#FFFFFF" height="31.291" style="stroke:#181818;stroke-width:1.0;" width="10" x="742.1841" y="294.2793"/><rect fill="#FFFFFF" height="31.291" style="stroke:#181818;stroke-width:1.0;" width="10" x="898.0801" y="449.0645"/><rect fill="#FFFFFF" height="200.0762" style="stroke:#181818;stroke-width:1.0;" width="10" x="1184.4888" y="374.1523"/><rect fill="#FFFFFF" height="31.291" style="stroke:#181818;stroke-width:1.0;" width="10" x="1350.0522" y="511.6465"/><polygon fill="#181818" points="216.0405,107.5332,226.0405,111.5332,216.0405,115.5332,220.0405,111.5332" style="stroke:#181818;stroke-width:1.0;"/><line style="stroke:#181818;stroke-width:1.0;" x1="69.5825" x2="222.0405" y1="111.5332" y2="111.5332"/><text fill="#000000" font-family="sans-serif" font-size="13" lengthAdjust="spacing" textLength="139.458" x="76.5825" y="106.2705">createScenario(request)</text><path d="M135.1133,126.5332 L279.105,126.5332 L279.105,135.8242 L269.105,145.8242 L135.1133,145.8242 L135.1133,126.5332 " fill="#EEEEEE" style="stroke:#000000;stroke-width:1.5;"/><rect fill="none" height="455.6953" style="stroke:#000000;stroke-width:1.5;" width="1299.9697" x="135.1133" y="126.5332"/><text fill="#000000" font-family="sans-serif" font-size="13" font-weight="bold" lengthAdjust="spacing" textLength="98.9917" x="150.1133" y="141.5615">Create Scenario</text><polygon fill="#181818" points="383.7749,165.1152,393.7749,169.1152,383.7749,173.1152,387.7749,169.1152" style="stroke:#181818;stroke-width:1.0;"/><line style="stroke:#181818;stroke-width:1.0;" x1="238.0405" x2="389.7749" y1="169.1152" y2="169.1152"/><text fill="#000000" font-family="sans-serif" font-size="13" lengthAdjust="spacing" textLength="138.7344" x="245.0405" y="163.8525">findById(request.mapId)</text><polygon fill="#181818" points="249.0405,196.4063,239.0405,200.4063,249.0405,204.4063,245.0405,200.4063" style="stroke:#181818;stroke-width:1.0;"/><line style="stroke:#181818;stroke-width:1.0;stroke-dasharray:2.0,2.0;" x1="243.0405" x2="399.7749" y1="200.4063" y2="200.4063"/><text fill="#000000" font-family="sans-serif" font-size="13" lengthAdjust="spacing" textLength="73.709" x="255.0405" y="195.1436">selectedMap</text><polygon fill="#181818" points="543.5571,227.6973,553.5571,231.6973,543.5571,235.6973,547.5571,231.6973" style="stroke:#181818;stroke-width:1.0;"/><line style="stroke:#181818;stroke-width:1.0;" x1="238.0405" x2="549.5571" y1="231.6973" y2="231.6973"/><text fill="#000000" font-family="sans-serif" font-size="13" lengthAdjust="spacing" textLength="217.4834" x="245.0405" y="226.4346">findByIds(request.locomotiveTypeIds)</text><polygon fill="#181818" points="249.0405,258.9883,239.0405,262.9883,249.0405,266.9883,245.0405,262.9883" style="stroke:#181818;stroke-width:1.0;"/><line style="stroke:#181818;stroke-width:1.0;stroke-dasharray:2.0,2.0;" x1="243.0405" x2="559.5571" y1="262.9883" y2="262.9883"/><text fill="#000000" font-family="sans-serif" font-size="13" lengthAdjust="spacing" textLength="150.2998" x="255.0405" y="257.7256">selectedLocomotiveTypes</text><polygon fill="#181818" points="730.1841,290.2793,740.1841,294.2793,730.1841,298.2793,734.1841,294.2793" style="stroke:#181818;stroke-width:1.0;"/><line style="stroke:#181818;stroke-width:1.0;" x1="238.0405" x2="736.1841" y1="294.2793" y2="294.2793"/><text fill="#000000" font-family="sans-serif" font-size="13" lengthAdjust="spacing" textLength="200.8652" x="245.0405" y="289.0166">findByIds(request.industryTypeIds)</text><polygon fill="#181818" points="249.0405,321.5703,239.0405,325.5703,249.0405,329.5703,245.0405,325.5703" style="stroke:#181818;stroke-width:1.0;"/><line style="stroke:#181818;stroke-width:1.0;stroke-dasharray:2.0,2.0;" x1="243.0405" x2="746.1841" y1="325.5703" y2="325.5703"/><text fill="#000000" font-family="sans-serif" font-size="13" lengthAdjust="spacing" textLength="130.0635" x="255.0405" y="320.3076">selectedIndustryTypes</text><polygon fill="#181818" points="1172.4888,370.1523,1182.4888,374.1523,1172.4888,378.1523,1176.4888,374.1523" style="stroke:#181818;stroke-width:1.0;"/><line style="stroke:#181818;stroke-width:1.0;" x1="238.0405" x2="1178.4888" y1="374.1523" y2="374.1523"/><text fill="#000000" font-family="sans-serif" font-size="13" lengthAdjust="spacing" textLength="219.6733" x="245.0405" y="351.5986">createScenario(request, selectedMap,</text><text fill="#000000" font-family="sans-serif" font-size="13" lengthAdjust="spacing" textLength="291.916" x="245.0405" y="368.8896">selectedLocomotiveTypes, selectedIndustryTypes)</text><polygon fill="#181818" points="977.1108,401.4434,967.1108,405.4434,977.1108,409.4434,973.1108,405.4434" style="stroke:#181818;stroke-width:1.0;"/><line style="stroke:#181818;stroke-width:1.0;stroke-dasharray:2.0,2.0;" x1="971.1108" x2="1183.4888" y1="405.4434" y2="405.4434"/><text fill="#000000" font-family="sans-serif" font-size="13" lengthAdjust="spacing" textLength="194.3779" x="983.1108" y="400.1807">create scenario from request data</text><rect fill="#E3E3E3" height="32.6211" rx="2.5" ry="2.5" style="stroke:#181818;stroke-width:0.5;" width="126.0615" x="840.0493" y="382.1523"/><text fill="#000000" font-family="sans-serif" font-size="14" lengthAdjust="spacing" textLength="112.0615" x="847.0493" y="404.2598">scenario:Scenario</text><polygon fill="#181818" points="919.0801,445.0645,909.0801,449.0645,919.0801,453.0645,915.0801,449.0645" style="stroke:#181818;stroke-width:1.0;"/><line style="stroke:#181818;stroke-width:1.0;" x1="913.0801" x2="1183.4888" y1="449.0645" y2="449.0645"/><text fill="#000000" font-family="sans-serif" font-size="13" lengthAdjust="spacing" textLength="80.9263" x="925.0801" y="443.8018">validateData()</text><polygon fill="#181818" points="1172.4888,476.3555,1182.4888,480.3555,1172.4888,484.3555,1176.4888,480.3555" style="stroke:#181818;stroke-width:1.0;"/><line style="stroke:#181818;stroke-width:1.0;stroke-dasharray:2.0,2.0;" x1="903.0801" x2="1178.4888" y1="480.3555" y2="480.3555"/><text fill="#000000" font-family="sans-serif" font-size="13" lengthAdjust="spacing" textLength="91.7744" x="910.0801" y="475.0928">validationResult</text><polygon fill="#181818" points="1338.0522,507.6465,1348.0522,511.6465,1338.0522,515.6465,1342.0522,511.6465" style="stroke:#181818;stroke-width:1.0;"/><line style="stroke:#181818;stroke-width:1.0;" x1="1194.4888" x2="1344.0522" y1="511.6465" y2="511.6465"/><text fill="#000000" font-family="sans-serif" font-size="13" lengthAdjust="spacing" textLength="136.5635" x="1201.4888" y="506.3838">saveScenario(scenario)</text><polygon fill="#181818" points="1205.4888,538.9375,1195.4888,542.9375,1205.4888,546.9375,1201.4888,542.9375" style="stroke:#181818;stroke-width:1.0;"/><line style="stroke:#181818;stroke-width:1.0;stroke-dasharray:2.0,2.0;" x1="1199.4888" x2="1354.0522" y1="542.9375" y2="542.9375"/><text fill="#000000" font-family="sans-serif" font-size="13" lengthAdjust="spacing" textLength="46.96" x="1211.4888" y="537.6748">success</text><polygon fill="#181818" points="249.0405,570.2285,239.0405,574.2285,249.0405,578.2285,245.0405,574.2285" style="stroke:#181818;stroke-width:1.0;"/><line style="stroke:#181818;stroke-width:1.0;stroke-dasharray:2.0,2.0;" x1="243.0405" x2="1188.4888" y1="574.2285" y2="574.2285"/><text fill="#000000" font-family="sans-serif" font-size="13" lengthAdjust="spacing" textLength="49.1372" x="255.0405" y="568.9658">scenario</text><polygon fill="#181818" points="80.5825,608.5195,70.5825,612.5195,80.5825,616.5195,76.5825,612.5195" style="stroke:#181818;stroke-width:1.0;"/><line style="stroke:#181818;stroke-width:1.0;stroke-dasharray:2.0,2.0;" x1="74.5825" x2="232.0405" y1="612.5195" y2="612.5195"/><text fill="#000000" font-family="sans-serif" font-size="13" lengthAdjust="spacing" textLength="46.96" x="86.5825" y="607.2568">success</text><!--SRC=[ZPH1Zzem48Nl-HMZFS4AgXvwub1f6pX4OXUKGALAlLZE4AmDTcexhFZtDTdOs4v0coDvy_9vtiFgdV66I7A2a-227gKu8MZPOgBScuRGTr9XeIyrWaIg2QzgNw2Ef1GVZ5Tm8BN29D5C6-c- -Fu3vf1A91gXeCY9PCByiYLICr93WVzQv1HXoKXrDPfyC7s4vMwZfadIN5MKDOHhU5fykbYJVVO4HC4-UwXA1TTIr3NAJftkydMaVoLDZerGJ0jvwKIlBzjyjTr4khMWuYGqE-Fkqc0qijwacv6PZ9Ujql8oCf6zBVV5Blypd58z-iAUeTCNwUhj9S_YBrXDWVBCA0RIOfN_pjBLdOc8nmvrFCa-W_dFRbkm01fiT2AlaIazJGWrsxZcscqLp5D9qJPnsjsRpifOzhirhWV6or-NhBH-tqwaoSffftREDWhe7pi-lz4fh4qViJGvTh8IHwS32XkNXw4SHnq4RTv4J2vh2-NSHgZ2rgYOCF0A4Fr-Z68ohrj3oA1U5ZJm787rwpf07JW6k57dxhPcvkSrWx_ypg9cur3HAUEcsuF6D7EFyFdPmO7zgy71N7hG8q99D75MzprlbiRmJ6fcvd1fPYTJDpGWTMzyou3lji7UamcUesfhxMQzL0Q-N-7jEwN8-PQFNSK3zg1B_YTSduPdK2sbgDGZzC3sOOIshlx5CcBejm5v-NahUMqrJkP-kx5v5bV1Vm00]--></g></svg>