<svg xmlns="http://www.w3.org/2000/svg" xmlns:xlink="http://www.w3.org/1999/xlink" contentStyleType="text/css" height="419px" preserveAspectRatio="none" style="width:693px;height:419px;background:#FFFFFF;" version="1.1" viewBox="0 0 693 419" width="693px" zoomAndPan="magnify"><title>US04 - Get Map List - Partial Sequence Diagram</title><defs/><g><text fill="#000000" font-family="sans-serif" font-size="14" font-weight="bold" lengthAdjust="spacing" textLength="316.6475" x="189.9683" y="30.1074">US04 - Get Map List - Partial Sequence Diagram</text><rect fill="#FFFFFF" height="252.3281" style="stroke:#181818;stroke-width:1.0;" width="10" x="227.0923" y="111.5332"/><rect fill="#FFFFFF" height="31.291" style="stroke:#181818;stroke-width:1.0;" width="10" x="386.4849" y="169.1152"/><rect fill="#FFFFFF" height="31.291" style="stroke:#181818;stroke-width:1.0;" width="10" x="513.9707" y="231.6973"/><rect fill="#FFFFFF" height="31.291" style="stroke:#181818;stroke-width:1.0;" width="10" x="626.2876" y="294.2793"/><rect fill="none" height="207.0371" style="stroke:#000000;stroke-width:1.5;" width="553.4189" x="134.165" y="126.5332"/><line style="stroke:#181818;stroke-width:0.5;stroke-dasharray:5.0,5.0;" x1="69" x2="69" y1="78.2422" y2="381.8613"/><line style="stroke:#181818;stroke-width:0.5;stroke-dasharray:5.0,5.0;" x1="231.165" x2="231.165" y1="78.2422" y2="381.8613"/><line style="stroke:#181818;stroke-width:0.5;stroke-dasharray:5.0,5.0;" x1="391.0195" x2="391.0195" y1="78.2422" y2="381.8613"/><line style="stroke:#181818;stroke-width:0.5;stroke-dasharray:5.0,5.0;" x1="518.9502" x2="518.9502" y1="78.2422" y2="381.8613"/><line style="stroke:#181818;stroke-width:0.5;stroke-dasharray:5.0,5.0;" x1="630.9912" x2="630.9912" y1="78.2422" y2="381.8613"/><rect fill="#E3E3E3" height="32.6211" rx="2.5" ry="2.5" style="stroke:#181818;stroke-width:0.5;" width="129.165" x="5" y="44.6211"/><text fill="#000000" font-family="sans-serif" font-size="14" lengthAdjust="spacing" textLength="115.165" x="12" y="66.7285">:CreateScenarioUI</text><rect fill="#E3E3E3" height="32.6211" rx="2.5" ry="2.5" style="stroke:#181818;stroke-width:0.5;" width="129.165" x="5" y="380.8613"/><text fill="#000000" font-family="sans-serif" font-size="14" lengthAdjust="spacing" textLength="115.165" x="12" y="402.9688">:CreateScenarioUI</text><rect fill="#E3E3E3" height="32.6211" rx="2.5" ry="2.5" style="stroke:#181818;stroke-width:0.5;" width="175.8545" x="144.165" y="44.6211"/><text fill="#000000" font-family="sans-serif" font-size="14" lengthAdjust="spacing" textLength="161.8545" x="151.165" y="66.7285">:CreateScenarioController</text><rect fill="#E3E3E3" height="32.6211" rx="2.5" ry="2.5" style="stroke:#181818;stroke-width:0.5;" width="175.8545" x="144.165" y="380.8613"/><text fill="#000000" font-family="sans-serif" font-size="14" lengthAdjust="spacing" textLength="161.8545" x="151.165" y="402.9688">:CreateScenarioController</text><rect fill="#E3E3E3" height="32.6211" rx="2.5" ry="2.5" style="stroke:#181818;stroke-width:0.5;" width="122.9307" x="330.0195" y="44.6211"/><text fill="#000000" font-family="sans-serif" font-size="14" lengthAdjust="spacing" textLength="108.9307" x="337.0195" y="66.7285">:GameRepository</text><rect fill="#E3E3E3" height="32.6211" rx="2.5" ry="2.5" style="stroke:#181818;stroke-width:0.5;" width="122.9307" x="330.0195" y="380.8613"/><text fill="#000000" font-family="sans-serif" font-size="14" lengthAdjust="spacing" textLength="108.9307" x="337.0195" y="402.9688">:GameRepository</text><rect fill="#E3E3E3" height="32.6211" rx="2.5" ry="2.5" style="stroke:#181818;stroke-width:0.5;" width="112.041" x="462.9502" y="44.6211"/><text fill="#000000" font-family="sans-serif" font-size="14" lengthAdjust="spacing" textLength="98.041" x="469.9502" y="66.7285">:MapRepository</text><rect fill="#E3E3E3" height="32.6211" rx="2.5" ry="2.5" style="stroke:#181818;stroke-width:0.5;" width="112.041" x="462.9502" y="380.8613"/><text fill="#000000" font-family="sans-serif" font-size="14" lengthAdjust="spacing" textLength="98.041" x="469.9502" y="402.9688">:MapRepository</text><rect fill="#E3E3E3" height="32.6211" rx="2.5" ry="2.5" style="stroke:#181818;stroke-width:0.5;" width="92.5928" x="584.9912" y="44.6211"/><text fill="#000000" font-family="sans-serif" font-size="14" lengthAdjust="spacing" textLength="78.5928" x="591.9912" y="66.7285">:MapMapper</text><rect fill="#E3E3E3" height="32.6211" rx="2.5" ry="2.5" style="stroke:#181818;stroke-width:0.5;" width="92.5928" x="584.9912" y="380.8613"/><text fill="#000000" font-family="sans-serif" font-size="14" lengthAdjust="spacing" textLength="78.5928" x="591.9912" y="402.9688">:MapMapper</text><rect fill="#FFFFFF" height="252.3281" style="stroke:#181818;stroke-width:1.0;" width="10" x="227.0923" y="111.5332"/><rect fill="#FFFFFF" height="31.291" style="stroke:#181818;stroke-width:1.0;" width="10" x="386.4849" y="169.1152"/><rect fill="#FFFFFF" height="31.291" style="stroke:#181818;stroke-width:1.0;" width="10" x="513.9707" y="231.6973"/><rect fill="#FFFFFF" height="31.291" style="stroke:#181818;stroke-width:1.0;" width="10" x="626.2876" y="294.2793"/><polygon fill="#181818" points="215.0923,107.5332,225.0923,111.5332,215.0923,115.5332,219.0923,111.5332" style="stroke:#181818;stroke-width:1.0;"/><line style="stroke:#181818;stroke-width:1.0;" x1="69.5825" x2="221.0923" y1="111.5332" y2="111.5332"/><text fill="#000000" font-family="sans-serif" font-size="13" lengthAdjust="spacing" textLength="72.249" x="76.5825" y="106.2705">getMapList()</text><path d="M134.165,126.5332 L264.4014,126.5332 L264.4014,135.8242 L254.4014,145.8242 L134.165,145.8242 L134.165,126.5332 " fill="#EEEEEE" style="stroke:#000000;stroke-width:1.5;"/><rect fill="none" height="207.0371" style="stroke:#000000;stroke-width:1.5;" width="553.4189" x="134.165" y="126.5332"/><text fill="#000000" font-family="sans-serif" font-size="13" font-weight="bold" lengthAdjust="spacing" textLength="85.2363" x="149.165" y="141.5615">Get Maps List</text><polygon fill="#181818" points="374.4849,165.1152,384.4849,169.1152,374.4849,173.1152,378.4849,169.1152" style="stroke:#181818;stroke-width:1.0;"/><line style="stroke:#181818;stroke-width:1.0;" x1="237.0923" x2="380.4849" y1="169.1152" y2="169.1152"/><text fill="#000000" font-family="sans-serif" font-size="13" lengthAdjust="spacing" textLength="114.1563" x="244.0923" y="163.8525">getMapRepository()</text><polygon fill="#181818" points="248.0923,196.4063,238.0923,200.4063,248.0923,204.4063,244.0923,200.4063" style="stroke:#181818;stroke-width:1.0;"/><line style="stroke:#181818;stroke-width:1.0;stroke-dasharray:2.0,2.0;" x1="242.0923" x2="390.4849" y1="200.4063" y2="200.4063"/><text fill="#000000" font-family="sans-serif" font-size="13" lengthAdjust="spacing" textLength="87.4263" x="254.0923" y="195.1436">mapRepository</text><polygon fill="#181818" points="501.9707,227.6973,511.9707,231.6973,501.9707,235.6973,505.9707,231.6973" style="stroke:#181818;stroke-width:1.0;"/><line style="stroke:#181818;stroke-width:1.0;" x1="237.0923" x2="507.9707" y1="231.6973" y2="231.6973"/><text fill="#000000" font-family="sans-serif" font-size="13" lengthAdjust="spacing" textLength="72.9663" x="244.0923" y="226.4346">getAllMaps()</text><polygon fill="#181818" points="248.0923,258.9883,238.0923,262.9883,248.0923,266.9883,244.0923,262.9883" style="stroke:#181818;stroke-width:1.0;"/><line style="stroke:#181818;stroke-width:1.0;stroke-dasharray:2.0,2.0;" x1="242.0923" x2="517.9707" y1="262.9883" y2="262.9883"/><text fill="#000000" font-family="sans-serif" font-size="13" lengthAdjust="spacing" textLength="45.519" x="254.0923" y="257.7256">mapList</text><polygon fill="#181818" points="614.2876,290.2793,624.2876,294.2793,614.2876,298.2793,618.2876,294.2793" style="stroke:#181818;stroke-width:1.0;"/><line style="stroke:#181818;stroke-width:1.0;" x1="237.0923" x2="620.2876" y1="294.2793" y2="294.2793"/><text fill="#000000" font-family="sans-serif" font-size="13" lengthAdjust="spacing" textLength="112.6899" x="244.0923" y="289.0166">toDTOList(mapList)</text><polygon fill="#181818" points="248.0923,321.5703,238.0923,325.5703,248.0923,329.5703,244.0923,325.5703" style="stroke:#181818;stroke-width:1.0;"/><line style="stroke:#181818;stroke-width:1.0;stroke-dasharray:2.0,2.0;" x1="242.0923" x2="630.2876" y1="325.5703" y2="325.5703"/><text fill="#000000" font-family="sans-serif" font-size="13" lengthAdjust="spacing" textLength="72.96" x="254.0923" y="320.3076">mapDTOList</text><polygon fill="#181818" points="80.5825,359.8613,70.5825,363.8613,80.5825,367.8613,76.5825,363.8613" style="stroke:#181818;stroke-width:1.0;"/><line style="stroke:#181818;stroke-width:1.0;stroke-dasharray:2.0,2.0;" x1="74.5825" x2="231.0923" y1="363.8613" y2="363.8613"/><text fill="#000000" font-family="sans-serif" font-size="13" lengthAdjust="spacing" textLength="72.96" x="86.5825" y="358.5986">mapDTOList</text><!--SRC=[VP71Ri8m44Jl_efLJ-q1gOUUE5H2W10IY2WX7x0Ass3XsAvjMl7ttHWdX81g-P9uTkPvx4zIMtJOG6EqgOxED0J1dKdu_iHYTSAQYd1H18wgWBfMGu4_ui7yIbt35ofFGWGPM5eMxnymWHK5sAA5ZVI1FpDqGQA2WhxFf2k2XSIQNOImxKabBUe0BzEv8mnKLAJHILEkNm0zbEj_LNEZWpDAaOlg-JxVZFGhR2WdQxmCnbsYQZNRBlDbjXif6NaatCwovphUDaMoXdUsp8KGvHecdn42fb1JO5dRmUkRm2h87-Q-4WhWLJjpjbrNFfOL_yTnjkaeUwiR71j6QU_QtmZIweSdDw1cQ16L1thkSCUHIhXYp9HgQHdWBhyhgellPkxJ-oiESeUJuzXhhpmRp6A_YqqcbyVuz0O3W3HzZv1ydb0C34WVqkkqK0Cgjk8dVZ0I0wVuldy0]--></g></svg>