<svg xmlns="http://www.w3.org/2000/svg" xmlns:xlink="http://www.w3.org/1999/xlink" contentStyleType="text/css" height="356px" preserveAspectRatio="none" style="width:668px;height:356px;background:#FFFFFF;" version="1.1" viewBox="0 0 668 356" width="668px" zoomAndPan="magnify"><title>US04 - Get Industry Types List - Partial Sequence Diagram</title><defs/><g><text fill="#000000" font-family="sans-serif" font-size="14" font-weight="bold" lengthAdjust="spacing" textLength="388.2266" x="141.4028" y="30.1074">US04 - Get Industry Types List - Partial Sequence Diagram</text><rect fill="#FFFFFF" height="189.7461" style="stroke:#181818;stroke-width:1.0;" width="10" x="227.0923" y="111.5332"/><rect fill="#FFFFFF" height="31.291" style="stroke:#181818;stroke-width:1.0;" width="10" x="407.8848" y="169.1152"/><rect fill="#FFFFFF" height="31.291" style="stroke:#181818;stroke-width:1.0;" width="10" x="573.8911" y="231.6973"/><rect fill="none" height="144.4551" style="stroke:#000000;stroke-width:1.5;" width="527.8672" x="134.165" y="126.5332"/><line style="stroke:#181818;stroke-width:0.5;stroke-dasharray:5.0,5.0;" x1="69" x2="69" y1="78.2422" y2="319.2793"/><line style="stroke:#181818;stroke-width:0.5;stroke-dasharray:5.0,5.0;" x1="231.165" x2="231.165" y1="78.2422" y2="319.2793"/><line style="stroke:#181818;stroke-width:0.5;stroke-dasharray:5.0,5.0;" x1="412.0195" x2="412.0195" y1="78.2422" y2="319.2793"/><line style="stroke:#181818;stroke-width:0.5;stroke-dasharray:5.0,5.0;" x1="578.75" x2="578.75" y1="78.2422" y2="319.2793"/><rect fill="#E3E3E3" height="32.6211" rx="2.5" ry="2.5" style="stroke:#181818;stroke-width:0.5;" width="129.165" x="5" y="44.6211"/><text fill="#000000" font-family="sans-serif" font-size="14" lengthAdjust="spacing" textLength="115.165" x="12" y="66.7285">:CreateScenarioUI</text><rect fill="#E3E3E3" height="32.6211" rx="2.5" ry="2.5" style="stroke:#181818;stroke-width:0.5;" width="129.165" x="5" y="318.2793"/><text fill="#000000" font-family="sans-serif" font-size="14" lengthAdjust="spacing" textLength="115.165" x="12" y="340.3867">:CreateScenarioUI</text><rect fill="#E3E3E3" height="32.6211" rx="2.5" ry="2.5" style="stroke:#181818;stroke-width:0.5;" width="175.8545" x="144.165" y="44.6211"/><text fill="#000000" font-family="sans-serif" font-size="14" lengthAdjust="spacing" textLength="161.8545" x="151.165" y="66.7285">:CreateScenarioController</text><rect fill="#E3E3E3" height="32.6211" rx="2.5" ry="2.5" style="stroke:#181818;stroke-width:0.5;" width="175.8545" x="144.165" y="318.2793"/><text fill="#000000" font-family="sans-serif" font-size="14" lengthAdjust="spacing" textLength="161.8545" x="151.165" y="340.3867">:CreateScenarioController</text><rect fill="#E3E3E3" height="32.6211" rx="2.5" ry="2.5" style="stroke:#181818;stroke-width:0.5;" width="165.7305" x="330.0195" y="44.6211"/><text fill="#000000" font-family="sans-serif" font-size="14" lengthAdjust="spacing" textLength="151.7305" x="337.0195" y="66.7285">:IndustryTypeRepository</text><rect fill="#E3E3E3" height="32.6211" rx="2.5" ry="2.5" style="stroke:#181818;stroke-width:0.5;" width="165.7305" x="330.0195" y="318.2793"/><text fill="#000000" font-family="sans-serif" font-size="14" lengthAdjust="spacing" textLength="151.7305" x="337.0195" y="340.3867">:IndustryTypeRepository</text><rect fill="#E3E3E3" height="32.6211" rx="2.5" ry="2.5" style="stroke:#181818;stroke-width:0.5;" width="146.2822" x="505.75" y="44.6211"/><text fill="#000000" font-family="sans-serif" font-size="14" lengthAdjust="spacing" textLength="132.2822" x="512.75" y="66.7285">:IndustryTypeMapper</text><rect fill="#E3E3E3" height="32.6211" rx="2.5" ry="2.5" style="stroke:#181818;stroke-width:0.5;" width="146.2822" x="505.75" y="318.2793"/><text fill="#000000" font-family="sans-serif" font-size="14" lengthAdjust="spacing" textLength="132.2822" x="512.75" y="340.3867">:IndustryTypeMapper</text><rect fill="#FFFFFF" height="189.7461" style="stroke:#181818;stroke-width:1.0;" width="10" x="227.0923" y="111.5332"/><rect fill="#FFFFFF" height="31.291" style="stroke:#181818;stroke-width:1.0;" width="10" x="407.8848" y="169.1152"/><rect fill="#FFFFFF" height="31.291" style="stroke:#181818;stroke-width:1.0;" width="10" x="573.8911" y="231.6973"/><polygon fill="#181818" points="215.0923,107.5332,225.0923,111.5332,215.0923,115.5332,219.0923,111.5332" style="stroke:#181818;stroke-width:1.0;"/><line style="stroke:#181818;stroke-width:1.0;" x1="69.5825" x2="221.0923" y1="111.5332" y2="111.5332"/><text fill="#000000" font-family="sans-serif" font-size="13" lengthAdjust="spacing" textLength="122.1035" x="76.5825" y="106.2705">getIndustryTypeList()</text><path d="M134.165,126.5332 L323.6377,126.5332 L323.6377,135.8242 L313.6377,145.8242 L134.165,145.8242 L134.165,126.5332 " fill="#EEEEEE" style="stroke:#000000;stroke-width:1.5;"/><rect fill="none" height="144.4551" style="stroke:#000000;stroke-width:1.5;" width="527.8672" x="134.165" y="126.5332"/><text fill="#000000" font-family="sans-serif" font-size="13" font-weight="bold" lengthAdjust="spacing" textLength="144.4727" x="149.165" y="141.5615">Get Industry Types List</text><polygon fill="#181818" points="395.8848,165.1152,405.8848,169.1152,395.8848,173.1152,399.8848,169.1152" style="stroke:#181818;stroke-width:1.0;"/><line style="stroke:#181818;stroke-width:1.0;" x1="237.0923" x2="401.8848" y1="169.1152" y2="169.1152"/><text fill="#000000" font-family="sans-serif" font-size="13" lengthAdjust="spacing" textLength="122.8208" x="244.0923" y="163.8525">getAllIndustryTypes()</text><polygon fill="#181818" points="248.0923,196.4063,238.0923,200.4063,248.0923,204.4063,244.0923,200.4063" style="stroke:#181818;stroke-width:1.0;"/><line style="stroke:#181818;stroke-width:1.0;stroke-dasharray:2.0,2.0;" x1="242.0923" x2="411.8848" y1="200.4063" y2="200.4063"/><text fill="#000000" font-family="sans-serif" font-size="13" lengthAdjust="spacing" textLength="94.6499" x="254.0923" y="195.1436">industryTypeList</text><polygon fill="#181818" points="561.8911,227.6973,571.8911,231.6973,561.8911,235.6973,565.8911,231.6973" style="stroke:#181818;stroke-width:1.0;"/><line style="stroke:#181818;stroke-width:1.0;" x1="237.0923" x2="567.8911" y1="231.6973" y2="231.6973"/><text fill="#000000" font-family="sans-serif" font-size="13" lengthAdjust="spacing" textLength="161.8208" x="244.0923" y="226.4346">toDTOList(industryTypeList)</text><polygon fill="#181818" points="248.0923,258.9883,238.0923,262.9883,248.0923,266.9883,244.0923,262.9883" style="stroke:#181818;stroke-width:1.0;"/><line style="stroke:#181818;stroke-width:1.0;stroke-dasharray:2.0,2.0;" x1="242.0923" x2="577.8911" y1="262.9883" y2="262.9883"/><text fill="#000000" font-family="sans-serif" font-size="13" lengthAdjust="spacing" textLength="93.1899" x="254.0923" y="257.7256">industryDTOList</text><polygon fill="#181818" points="80.5825,297.2793,70.5825,301.2793,80.5825,305.2793,76.5825,301.2793" style="stroke:#181818;stroke-width:1.0;"/><line style="stroke:#181818;stroke-width:1.0;stroke-dasharray:2.0,2.0;" x1="74.5825" x2="231.0923" y1="301.2793" y2="301.2793"/><text fill="#000000" font-family="sans-serif" font-size="13" lengthAdjust="spacing" textLength="93.1899" x="86.5825" y="296.0166">industryDTOList</text><!--SRC=[VP5DRy8m38Rl-HNMJji1QOUTE4n2WAPACAf-77QqMgz4X2HBt4tzzqi_OAK3SlNhnuyTVv3QeiCZ78qsnTwP8m6xceG_LomM1wmevKOHE2eOTQN60R_7qln8NS4dAaz2iEGGpTFd5vZ16p54kgmzkmQonfA7ZVGSAZ4wbgWWfQ-QT46mabW5e12shHJIecPuc2yT8LDQa4OdJHuz07h8exkffT7iZ5BaklGoIpQJ_CcfLKh86Y_PkAPBH- -hFCsIZsGTx-vqRT7QWN_gs2xYU9q8aKSmU-scmXmgud5Rk_tZay22vNSmxjqWlCgPsjwwLvVeW04y5km7B9GQp_1XGDjm7dAn4Wpl0ZFx4vOJswwXfDkmgtBzBGAEpIhRTLjFmJSaXojEDGVW5T61Vyjpn2DTzdSUAGTU-A__j16f3Vu2]--></g></svg>