<svg xmlns="http://www.w3.org/2000/svg" xmlns:xlink="http://www.w3.org/1999/xlink" contentStyleType="text/css" data-diagram-type="CLASS" height="596px" preserveAspectRatio="none" style="width:1463px;height:596px;background:#FFFFFF;" version="1.1" viewBox="0 0 1463 596" width="1463px" zoomAndPan="magnify"><title>US23 - Save Game Domain Model</title><defs/><g><g class="title" data-source-line="8"><text fill="#000000" font-family="Verdana" font-size="22" font-weight="bold" lengthAdjust="spacing" textLength="412.0166" x="521.2259" y="35.4209">US23 - Save Game Domain Model</text></g><!--class SaveGameData--><g class="entity" data-entity="SaveGameData" data-source-line="10" data-uid="ent0002" id="entity_SaveGameData"><rect fill="#FFFFFF" height="158.0781" rx="2.5" ry="2.5" style="stroke:#000000;stroke-width:1;" width="245.5254" x="589.28" y="58.6094"/><ellipse cx="653.5573" cy="72.6094" fill="#FFFFFF" rx="9" ry="9" style="stroke:#000000;stroke-width:1;"/><path d="M656.5261,78.25 Q655.948,78.5469 655.3073,78.6875 Q654.6667,78.8438 653.9636,78.8438 Q651.4636,78.8438 650.1355,77.2031 Q648.823,75.5469 648.823,72.4219 Q648.823,69.2969 650.1355,67.6406 Q651.4636,65.9844 653.9636,65.9844 Q654.6667,65.9844 655.3073,66.1406 Q655.9636,66.2969 656.5261,66.5938 L656.5261,69.3125 Q655.9011,68.7344 655.3073,68.4688 Q654.7136,68.1875 654.0886,68.1875 Q652.7448,68.1875 652.0573,69.2656 Q651.3698,70.3281 651.3698,72.4219 Q651.3698,74.5156 652.0573,75.5938 Q652.7448,76.6563 654.0886,76.6563 Q654.7136,76.6563 655.3073,76.3906 Q655.9011,76.1094 656.5261,75.5313 L656.5261,78.25 Z " fill="#000000"/><text fill="#000000" font-family="Verdana" font-size="14" lengthAdjust="spacing" textLength="109.4707" x="671.0573" y="77.4561">SaveGameData</text><line style="stroke:#000000;stroke-width:1;" x1="590.28" x2="833.8054" y1="86.6094" y2="86.6094"/><rect fill="none" height="6" style="stroke:#000000;stroke-width:1;" width="6" x="597.28" y="97.2578"/><text fill="#000000" font-family="Verdana" font-size="14" lengthAdjust="spacing" textLength="219.3584" x="607.28" y="103.6045">metadata: SaveGameMetadata</text><rect fill="none" height="6" style="stroke:#000000;stroke-width:1;" width="6" x="597.28" y="113.5547"/><text fill="#000000" font-family="Verdana" font-size="14" lengthAdjust="spacing" textLength="96.7422" x="607.28" y="119.9014">player: Player</text><rect fill="none" height="6" style="stroke:#000000;stroke-width:1;" width="6" x="597.28" y="129.8516"/><text fill="#000000" font-family="Verdana" font-size="14" lengthAdjust="spacing" textLength="129.2949" x="607.28" y="136.1982">scenario: Scenario</text><rect fill="none" height="6" style="stroke:#000000;stroke-width:1;" width="6" x="597.28" y="146.1484"/><text fill="#000000" font-family="Verdana" font-size="14" lengthAdjust="spacing" textLength="221.5254" x="607.28" y="152.4951">simulationTime: LocalDateTime</text><rect fill="none" height="6" style="stroke:#000000;stroke-width:1;" width="6" x="597.28" y="162.4453"/><text fill="#000000" font-family="Verdana" font-size="14" lengthAdjust="spacing" textLength="132.6309" x="607.28" y="168.792">trains: List&lt;Train&gt;</text><rect fill="none" height="6" style="stroke:#000000;stroke-width:1;" width="6" x="597.28" y="178.7422"/><text fill="#000000" font-family="Verdana" font-size="14" lengthAdjust="spacing" textLength="162.3467" x="607.28" y="185.0889">stations: List&lt;Station&gt;</text><rect fill="none" height="6" style="stroke:#000000;stroke-width:1;" width="6" x="597.28" y="195.0391"/><text fill="#000000" font-family="Verdana" font-size="14" lengthAdjust="spacing" textLength="211.7773" x="607.28" y="201.3857">gameProgress: GameProgress</text><line style="stroke:#000000;stroke-width:1;" x1="590.28" x2="833.8054" y1="208.6875" y2="208.6875"/></g><!--class SaveGameMetadata--><g class="entity" data-entity="SaveGameMetadata" data-source-line="20" data-uid="ent0003" id="entity_SaveGameMetadata"><rect fill="#FFFFFF" height="125.4844" rx="2.5" ry="2.5" style="stroke:#000000;stroke-width:1;" width="204.0859" x="12" y="293.6794"/><ellipse cx="40.1866" cy="307.6794" fill="#FFFFFF" rx="9" ry="9" style="stroke:#000000;stroke-width:1;"/><path d="M43.1554,313.32 Q42.5772,313.6169 41.9366,313.7575 Q41.296,313.9138 40.5929,313.9138 Q38.0929,313.9138 36.7647,312.2731 Q35.4522,310.6169 35.4522,307.4919 Q35.4522,304.3669 36.7647,302.7106 Q38.0929,301.0544 40.5929,301.0544 Q41.296,301.0544 41.9366,301.2106 Q42.5929,301.3669 43.1554,301.6638 L43.1554,304.3825 Q42.5304,303.8044 41.9366,303.5388 Q41.3429,303.2575 40.7179,303.2575 Q39.3741,303.2575 38.6866,304.3356 Q37.9991,305.3981 37.9991,307.4919 Q37.9991,309.5856 38.6866,310.6638 Q39.3741,311.7263 40.7179,311.7263 Q41.3429,311.7263 41.9366,311.4606 Q42.5304,311.1794 43.1554,310.6013 L43.1554,313.32 Z " fill="#000000"/><text fill="#000000" font-family="Verdana" font-size="14" lengthAdjust="spacing" textLength="142.3379" x="55.5614" y="312.5261">SaveGameMetadata</text><line style="stroke:#000000;stroke-width:1;" x1="13" x2="215.0859" y1="321.6794" y2="321.6794"/><rect fill="none" height="6" style="stroke:#000000;stroke-width:1;" width="6" x="20" y="332.3278"/><text fill="#000000" font-family="Verdana" font-size="14" lengthAdjust="spacing" textLength="125.0225" x="30" y="338.6745">saveName: String</text><rect fill="none" height="6" style="stroke:#000000;stroke-width:1;" width="6" x="20" y="348.6247"/><text fill="#000000" font-family="Verdana" font-size="14" lengthAdjust="spacing" textLength="136.2607" x="30" y="354.9714">playerName: String</text><rect fill="none" height="6" style="stroke:#000000;stroke-width:1;" width="6" x="20" y="364.9216"/><text fill="#000000" font-family="Verdana" font-size="14" lengthAdjust="spacing" textLength="180.0859" x="30" y="371.2682">saveDate: LocalDateTime</text><rect fill="none" height="6" style="stroke:#000000;stroke-width:1;" width="6" x="20" y="381.2184"/><text fill="#000000" font-family="Verdana" font-size="14" lengthAdjust="spacing" textLength="143.2334" x="30" y="387.5651">gameVersion: String</text><rect fill="none" height="6" style="stroke:#000000;stroke-width:1;" width="6" x="20" y="397.5153"/><text fill="#000000" font-family="Verdana" font-size="14" lengthAdjust="spacing" textLength="128.7891" x="30" y="403.862">description: String</text><line style="stroke:#000000;stroke-width:1;" x1="13" x2="215.0859" y1="411.1638" y2="411.1638"/></g><!--class GameProgress--><g class="entity" data-entity="GameProgress" data-source-line="28" data-uid="ent0004" id="entity_GameProgress"><rect fill="#FFFFFF" height="109.1875" rx="2.5" ry="2.5" style="stroke:#000000;stroke-width:1;" width="270.8389" x="250.62" y="301.8294"/><ellipse cx="331.1464" cy="315.8294" fill="#FFFFFF" rx="9" ry="9" style="stroke:#000000;stroke-width:1;"/><path d="M334.1151,321.47 Q333.537,321.7669 332.8964,321.9075 Q332.2557,322.0638 331.5526,322.0638 Q329.0526,322.0638 327.7245,320.4231 Q326.412,318.7669 326.412,315.6419 Q326.412,312.5169 327.7245,310.8606 Q329.0526,309.2044 331.5526,309.2044 Q332.2557,309.2044 332.8964,309.3606 Q333.5526,309.5169 334.1151,309.8138 L334.1151,312.5325 Q333.4901,311.9544 332.8964,311.6888 Q332.3026,311.4075 331.6776,311.4075 Q330.3339,311.4075 329.6464,312.4856 Q328.9589,313.5481 328.9589,315.6419 Q328.9589,317.7356 329.6464,318.8138 Q330.3339,319.8763 331.6776,319.8763 Q332.3026,319.8763 332.8964,319.6106 Q333.4901,319.3294 334.1151,318.7513 L334.1151,321.47 Z " fill="#000000"/><text fill="#000000" font-family="Verdana" font-size="14" lengthAdjust="spacing" textLength="102.2861" x="348.6464" y="320.6761">GameProgress</text><line style="stroke:#000000;stroke-width:1;" x1="251.62" x2="520.4589" y1="329.8294" y2="329.8294"/><rect fill="none" height="6" style="stroke:#000000;stroke-width:1;" width="6" x="258.62" y="340.4778"/><text fill="#000000" font-family="Verdana" font-size="14" lengthAdjust="spacing" textLength="115.6777" x="268.62" y="346.8245">currentLevel: int</text><rect fill="none" height="6" style="stroke:#000000;stroke-width:1;" width="6" x="258.62" y="356.7747"/><text fill="#000000" font-family="Verdana" font-size="14" lengthAdjust="spacing" textLength="77.3076" x="268.62" y="363.1214">score: long</text><rect fill="none" height="6" style="stroke:#000000;stroke-width:1;" width="6" x="258.62" y="373.0716"/><text fill="#000000" font-family="Verdana" font-size="14" lengthAdjust="spacing" textLength="246.8389" x="268.62" y="379.4182">completedObjectives: List&lt;String&gt;</text><rect fill="none" height="6" style="stroke:#000000;stroke-width:1;" width="6" x="258.62" y="389.3684"/><text fill="#000000" font-family="Verdana" font-size="14" lengthAdjust="spacing" textLength="199.377" x="268.62" y="395.7151">gameTimeElapsed: Duration</text><line style="stroke:#000000;stroke-width:1;" x1="251.62" x2="520.4589" y1="403.0169" y2="403.0169"/></g><!--class Player--><g class="entity" data-entity="Player" data-source-line="35" data-uid="ent0005" id="entity_Player"><rect fill="#FFFFFF" height="92.8906" rx="2.5" ry="2.5" style="stroke:#000000;stroke-width:1;" width="119.7373" x="556.17" y="309.9794"/><ellipse cx="590.8473" cy="323.9794" fill="#FFFFFF" rx="9" ry="9" style="stroke:#000000;stroke-width:1;"/><path d="M593.8161,329.62 Q593.238,329.9169 592.5973,330.0575 Q591.9567,330.2138 591.2536,330.2138 Q588.7536,330.2138 587.4255,328.5731 Q586.113,326.9169 586.113,323.7919 Q586.113,320.6669 587.4255,319.0106 Q588.7536,317.3544 591.2536,317.3544 Q591.9567,317.3544 592.5973,317.5106 Q593.2536,317.6669 593.8161,317.9638 L593.8161,320.6825 Q593.1911,320.1044 592.5973,319.8388 Q592.0036,319.5575 591.3786,319.5575 Q590.0348,319.5575 589.3473,320.6356 Q588.6598,321.6981 588.6598,323.7919 Q588.6598,325.8856 589.3473,326.9638 Q590.0348,328.0263 591.3786,328.0263 Q592.0036,328.0263 592.5973,327.7606 Q593.1911,327.4794 593.8161,326.9013 L593.8161,329.62 Z " fill="#000000"/><text fill="#000000" font-family="Verdana" font-size="14" lengthAdjust="spacing" textLength="43.5654" x="607.6645" y="328.8261">Player</text><line style="stroke:#000000;stroke-width:1;" x1="557.17" x2="674.9073" y1="337.9794" y2="337.9794"/><rect fill="none" height="6" style="stroke:#000000;stroke-width:1;" width="6" x="564.17" y="348.6278"/><text fill="#000000" font-family="Verdana" font-size="14" lengthAdjust="spacing" textLength="90.6514" x="574.17" y="354.9745">name: String</text><rect fill="none" height="6" style="stroke:#000000;stroke-width:1;" width="6" x="564.17" y="364.9247"/><text fill="#000000" font-family="Verdana" font-size="14" lengthAdjust="spacing" textLength="95.7373" x="574.17" y="371.2714">funds: double</text><rect fill="none" height="6" style="stroke:#000000;stroke-width:1;" width="6" x="564.17" y="381.2216"/><text fill="#000000" font-family="Verdana" font-size="14" lengthAdjust="spacing" textLength="63.7246" x="574.17" y="387.5682">id: String</text><line style="stroke:#000000;stroke-width:1;" x1="557.17" x2="674.9073" y1="394.87" y2="394.87"/></g><!--class Scenario--><g class="entity" data-entity="Scenario" data-source-line="41" data-uid="ent0006" id="entity_Scenario"><rect fill="#FFFFFF" height="109.1875" rx="2.5" ry="2.5" style="stroke:#000000;stroke-width:1;" width="194.1055" x="710.99" y="301.8294"/><ellipse cx="773.8626" cy="315.8294" fill="#FFFFFF" rx="9" ry="9" style="stroke:#000000;stroke-width:1;"/><path d="M776.8313,321.47 Q776.2532,321.7669 775.6126,321.9075 Q774.9719,322.0638 774.2688,322.0638 Q771.7688,322.0638 770.4407,320.4231 Q769.1282,318.7669 769.1282,315.6419 Q769.1282,312.5169 770.4407,310.8606 Q771.7688,309.2044 774.2688,309.2044 Q774.9719,309.2044 775.6126,309.3606 Q776.2688,309.5169 776.8313,309.8138 L776.8313,312.5325 Q776.2063,311.9544 775.6126,311.6888 Q775.0188,311.4075 774.3938,311.4075 Q773.0501,311.4075 772.3626,312.4856 Q771.6751,313.5481 771.6751,315.6419 Q771.6751,317.7356 772.3626,318.8138 Q773.0501,319.8763 774.3938,319.8763 Q775.0188,319.8763 775.6126,319.6106 Q776.2063,319.3294 776.8313,318.7513 L776.8313,321.47 Z " fill="#000000"/><text fill="#000000" font-family="Verdana" font-size="14" lengthAdjust="spacing" textLength="60.8604" x="791.3626" y="320.6761">Scenario</text><line style="stroke:#000000;stroke-width:1;" x1="711.99" x2="904.0955" y1="329.8294" y2="329.8294"/><rect fill="none" height="6" style="stroke:#000000;stroke-width:1;" width="6" x="718.99" y="340.4778"/><text fill="#000000" font-family="Verdana" font-size="14" lengthAdjust="spacing" textLength="90.6514" x="728.99" y="346.8245">name: String</text><rect fill="none" height="6" style="stroke:#000000;stroke-width:1;" width="6" x="718.99" y="356.7747"/><text fill="#000000" font-family="Verdana" font-size="14" lengthAdjust="spacing" textLength="128.7891" x="728.99" y="363.1214">description: String</text><rect fill="none" height="6" style="stroke:#000000;stroke-width:1;" width="6" x="718.99" y="373.0716"/><text fill="#000000" font-family="Verdana" font-size="14" lengthAdjust="spacing" textLength="111.7061" x="728.99" y="379.4182">difficulty: String</text><rect fill="none" height="6" style="stroke:#000000;stroke-width:1;" width="6" x="718.99" y="389.3684"/><text fill="#000000" font-family="Verdana" font-size="14" lengthAdjust="spacing" textLength="170.1055" x="728.99" y="395.7151">objectives: List&lt;String&gt;</text><line style="stroke:#000000;stroke-width:1;" x1="711.99" x2="904.0955" y1="403.0169" y2="403.0169"/></g><!--class Train--><g class="entity" data-entity="Train" data-source-line="48" data-uid="ent0007" id="entity_Train"><rect fill="#FFFFFF" height="125.4844" rx="2.5" ry="2.5" style="stroke:#000000;stroke-width:1;" width="143.6289" x="940.23" y="293.6794"/><ellipse cx="990.4697" cy="307.6794" fill="#FFFFFF" rx="9" ry="9" style="stroke:#000000;stroke-width:1;"/><path d="M993.4385,313.32 Q992.8604,313.6169 992.2197,313.7575 Q991.5791,313.9138 990.876,313.9138 Q988.376,313.9138 987.0479,312.2731 Q985.7354,310.6169 985.7354,307.4919 Q985.7354,304.3669 987.0479,302.7106 Q988.376,301.0544 990.876,301.0544 Q991.5791,301.0544 992.2197,301.2106 Q992.876,301.3669 993.4385,301.6638 L993.4385,304.3825 Q992.8135,303.8044 992.2197,303.5388 Q991.626,303.2575 991.001,303.2575 Q989.6572,303.2575 988.9697,304.3356 Q988.2822,305.3981 988.2822,307.4919 Q988.2822,309.5856 988.9697,310.6638 Q989.6572,311.7263 991.001,311.7263 Q991.626,311.7263 992.2197,311.4606 Q992.8135,311.1794 993.4385,310.6013 L993.4385,313.32 Z " fill="#000000"/><text fill="#000000" font-family="Verdana" font-size="14" lengthAdjust="spacing" textLength="35.6494" x="1007.9697" y="312.5261">Train</text><line style="stroke:#000000;stroke-width:1;" x1="941.23" x2="1082.8589" y1="321.6794" y2="321.6794"/><rect fill="none" height="6" style="stroke:#000000;stroke-width:1;" width="6" x="948.23" y="332.3278"/><text fill="#000000" font-family="Verdana" font-size="14" lengthAdjust="spacing" textLength="63.7246" x="958.23" y="338.6745">id: String</text><rect fill="none" height="6" style="stroke:#000000;stroke-width:1;" width="6" x="948.23" y="348.6247"/><text fill="#000000" font-family="Verdana" font-size="14" lengthAdjust="spacing" textLength="90.6514" x="958.23" y="354.9714">name: String</text><rect fill="none" height="6" style="stroke:#000000;stroke-width:1;" width="6" x="948.23" y="364.9216"/><text fill="#000000" font-family="Verdana" font-size="14" lengthAdjust="spacing" textLength="119.6289" x="958.23" y="371.2682">position: Position</text><rect fill="none" height="6" style="stroke:#000000;stroke-width:1;" width="6" x="948.23" y="381.2184"/><text fill="#000000" font-family="Verdana" font-size="14" lengthAdjust="spacing" textLength="99.1758" x="958.23" y="387.5651">speed: double</text><rect fill="none" height="6" style="stroke:#000000;stroke-width:1;" width="6" x="948.23" y="397.5153"/><text fill="#000000" font-family="Verdana" font-size="14" lengthAdjust="spacing" textLength="86.5225" x="958.23" y="403.862">capacity: int</text><line style="stroke:#000000;stroke-width:1;" x1="941.23" x2="1082.8589" y1="411.1638" y2="411.1638"/></g><!--class Station--><g class="entity" data-entity="Station" data-source-line="56" data-uid="ent0008" id="entity_Station"><rect fill="#FFFFFF" height="125.4844" rx="2.5" ry="2.5" style="stroke:#000000;stroke-width:1;" width="215.3037" x="1118.39" y="293.6794"/><ellipse cx="1197.4056" cy="307.6794" fill="#FFFFFF" rx="9" ry="9" style="stroke:#000000;stroke-width:1;"/><path d="M1200.3744,313.32 Q1199.7963,313.6169 1199.1556,313.7575 Q1198.515,313.9138 1197.8119,313.9138 Q1195.3119,313.9138 1193.9838,312.2731 Q1192.6713,310.6169 1192.6713,307.4919 Q1192.6713,304.3669 1193.9838,302.7106 Q1195.3119,301.0544 1197.8119,301.0544 Q1198.515,301.0544 1199.1556,301.2106 Q1199.8119,301.3669 1200.3744,301.6638 L1200.3744,304.3825 Q1199.7494,303.8044 1199.1556,303.5388 Q1198.5619,303.2575 1197.9369,303.2575 Q1196.5931,303.2575 1195.9056,304.3356 Q1195.2181,305.3981 1195.2181,307.4919 Q1195.2181,309.5856 1195.9056,310.6638 Q1196.5931,311.7263 1197.9369,311.7263 Q1198.5619,311.7263 1199.1556,311.4606 Q1199.7494,311.1794 1200.3744,310.6013 L1200.3744,313.32 Z " fill="#000000"/><text fill="#000000" font-family="Verdana" font-size="14" lengthAdjust="spacing" textLength="49.7725" x="1214.9056" y="312.5261">Station</text><line style="stroke:#000000;stroke-width:1;" x1="1119.39" x2="1332.6937" y1="321.6794" y2="321.6794"/><rect fill="none" height="6" style="stroke:#000000;stroke-width:1;" width="6" x="1126.39" y="332.3278"/><text fill="#000000" font-family="Verdana" font-size="14" lengthAdjust="spacing" textLength="63.7246" x="1136.39" y="338.6745">id: String</text><rect fill="none" height="6" style="stroke:#000000;stroke-width:1;" width="6" x="1126.39" y="348.6247"/><text fill="#000000" font-family="Verdana" font-size="14" lengthAdjust="spacing" textLength="90.6514" x="1136.39" y="354.9714">name: String</text><rect fill="none" height="6" style="stroke:#000000;stroke-width:1;" width="6" x="1126.39" y="364.9216"/><text fill="#000000" font-family="Verdana" font-size="14" lengthAdjust="spacing" textLength="119.6289" x="1136.39" y="371.2682">position: Position</text><rect fill="none" height="6" style="stroke:#000000;stroke-width:1;" width="6" x="1126.39" y="381.2184"/><text fill="#000000" font-family="Verdana" font-size="14" lengthAdjust="spacing" textLength="124.5508" x="1136.39" y="387.5651">type: StationType</text><rect fill="none" height="6" style="stroke:#000000;stroke-width:1;" width="6" x="1126.39" y="397.5153"/><text fill="#000000" font-family="Verdana" font-size="14" lengthAdjust="spacing" textLength="191.3037" x="1136.39" y="403.862">connections: List&lt;Station&gt;</text><line style="stroke:#000000;stroke-width:1;" x1="1119.39" x2="1332.6937" y1="411.1638" y2="411.1638"/></g><!--class Position--><g class="entity" data-entity="Position" data-source-line="64" data-uid="ent0009" id="entity_Position"><rect fill="#FFFFFF" height="76.5938" rx="2.5" ry="2.5" style="stroke:#000000;stroke-width:1;" width="89.167" x="1026.46" y="504.3194"/><ellipse cx="1042.2312" cy="518.3194" fill="#FFFFFF" rx="9" ry="9" style="stroke:#000000;stroke-width:1;"/><path d="M1045.1999,523.96 Q1044.6218,524.2569 1043.9812,524.3975 Q1043.3406,524.5538 1042.6374,524.5538 Q1040.1374,524.5538 1038.8093,522.9131 Q1037.4968,521.2569 1037.4968,518.1319 Q1037.4968,515.0069 1038.8093,513.3506 Q1040.1374,511.6944 1042.6374,511.6944 Q1043.3406,511.6944 1043.9812,511.8506 Q1044.6374,512.0069 1045.1999,512.3038 L1045.1999,515.0225 Q1044.5749,514.4444 1043.9812,514.1788 Q1043.3874,513.8975 1042.7624,513.8975 Q1041.4187,513.8975 1040.7312,514.9756 Q1040.0437,516.0381 1040.0437,518.1319 Q1040.0437,520.2256 1040.7312,521.3038 Q1041.4187,522.3663 1042.7624,522.3663 Q1043.3874,522.3663 1043.9812,522.1006 Q1044.5749,521.8194 1045.1999,521.2413 L1045.1999,523.96 Z " fill="#000000"/><text fill="#000000" font-family="Verdana" font-size="14" lengthAdjust="spacing" textLength="55.0088" x="1054.847" y="523.1661">Position</text><line style="stroke:#000000;stroke-width:1;" x1="1027.46" x2="1114.627" y1="532.3194" y2="532.3194"/><rect fill="none" height="6" style="stroke:#000000;stroke-width:1;" width="6" x="1034.46" y="542.9678"/><text fill="#000000" font-family="Verdana" font-size="14" lengthAdjust="spacing" textLength="65.167" x="1044.46" y="549.3145">x: double</text><rect fill="none" height="6" style="stroke:#000000;stroke-width:1;" width="6" x="1034.46" y="559.2647"/><text fill="#000000" font-family="Verdana" font-size="14" lengthAdjust="spacing" textLength="65.167" x="1044.46" y="565.6114">y: double</text><line style="stroke:#000000;stroke-width:1;" x1="1027.46" x2="1114.627" y1="572.9131" y2="572.9131"/></g><!--class StationType--><g class="entity" data-entity="StationType" data-source-line="69" data-uid="ent0010" id="entity_StationType"><rect fill="#FFFFFF" height="92.8906" rx="2.5" ry="2.5" style="stroke:#000000;stroke-width:1;" width="112.1094" x="1169.99" y="496.1694"/><ellipse cx="1182.99" cy="510.1694" fill="#FFFFFF" rx="9" ry="9" style="stroke:#000000;stroke-width:1;"/><path d="M1187.0994,516.1694 L1179.3806,516.1694 L1179.3806,503.7788 L1187.0994,503.7788 L1187.0994,505.935 L1181.8338,505.935 L1181.8338,508.6069 L1186.5994,508.6069 L1186.5994,510.7631 L1181.8338,510.7631 L1181.8338,514.0131 L1187.0994,514.0131 L1187.0994,516.1694 Z " fill="#000000"/><text fill="#000000" font-family="Verdana" font-size="14" lengthAdjust="spacing" textLength="84.1094" x="1194.99" y="515.0161">StationType</text><line style="stroke:#000000;stroke-width:1;" x1="1170.99" x2="1281.0994" y1="524.1694" y2="524.1694"/><text fill="#000000" font-family="Verdana" font-size="14" lengthAdjust="spacing" textLength="71.1826" x="1175.99" y="541.1645">TERMINAL</text><text fill="#000000" font-family="Verdana" font-size="14" lengthAdjust="spacing" textLength="68.7969" x="1175.99" y="557.4614">JUNCTION</text><text fill="#000000" font-family="Verdana" font-size="14" lengthAdjust="spacing" textLength="66.7734" x="1175.99" y="573.7582">REGULAR</text><line style="stroke:#000000;stroke-width:1;" x1="1170.99" x2="1281.0994" y1="581.06" y2="581.06"/></g><!--link SaveGameData to SaveGameMetadata--><g class="link" data-entity-1="SaveGameData" data-entity-2="SaveGameMetadata" data-source-line="76" data-uid="lnk11" id="link_SaveGameData_SaveGameMetadata"><path codeLine="76" d="M581.2642,174.5995 C483.2942,202.8995 351.19,244.3094 233.04,293.6794 C227.57,295.9694 229.2762,295.0942 223.6962,297.6442" fill="none" id="SaveGameData-SaveGameMetadata" style="stroke:#000000;stroke-width:1;"/><line style="stroke:#000000;stroke-width:1;" x1="583.997" x2="586.2172" y1="169.6466" y2="177.3323"/><line style="stroke:#000000;stroke-width:1;" x1="581.1149" x2="583.335" y1="170.4791" y2="178.1649"/><line style="stroke:#000000;stroke-width:1;" x1="581.2642" x2="588.95" y1="174.5995" y2="172.3794"/><line style="stroke:#000000;stroke-width:1;" x1="221.7207" x2="218.3955" y1="302.9449" y2="295.6687"/><line style="stroke:#000000;stroke-width:1;" x1="224.4493" x2="221.1241" y1="301.698" y2="294.4218"/><line style="stroke:#000000;stroke-width:1;" x1="223.6962" x2="216.42" y1="297.6442" y2="300.9694"/><text fill="#000000" font-family="Verdana" font-size="13" lengthAdjust="spacing" textLength="55.0278" x="350.04" y="259.7463">contains</text></g><!--link SaveGameData to GameProgress--><g class="link" data-entity-1="SaveGameData" data-entity-2="GameProgress" data-source-line="77" data-uid="lnk12" id="link_SaveGameData_GameProgress"><path codeLine="77" d="M587.688,221.3386 C545.558,249.3486 512.362,271.4302 473.992,296.9402" fill="none" id="SaveGameData-GameProgress" style="stroke:#000000;stroke-width:1;"/><line style="stroke:#000000;stroke-width:1;" x1="588.8044" x2="593.2336" y1="215.793" y2="222.455"/><line style="stroke:#000000;stroke-width:1;" x1="586.3062" x2="590.7354" y1="217.4539" y2="224.1159"/><line style="stroke:#000000;stroke-width:1;" x1="587.688" x2="594.35" y1="221.3386" y2="216.9094"/><line style="stroke:#000000;stroke-width:1;" x1="472.8756" x2="468.4464" y1="302.4858" y2="295.8238"/><line style="stroke:#000000;stroke-width:1;" x1="475.3738" x2="470.9447" y1="300.8248" y2="294.1628"/><line style="stroke:#000000;stroke-width:1;" x1="473.992" x2="467.33" y1="296.9402" y2="301.3694"/><text fill="#000000" font-family="Verdana" font-size="13" lengthAdjust="spacing" textLength="55.0278" x="550.04" y="259.7463">contains</text></g><!--link SaveGameData to Player--><g class="link" data-entity-1="SaveGameData" data-entity-2="Player" data-source-line="78" data-uid="lnk13" id="link_SaveGameData_Player"><path codeLine="78" d="M674.1413,224.2245 C660.3413,255.3945 651.42,275.5449 639.5,302.4549" fill="none" id="SaveGameData-Player" style="stroke:#000000;stroke-width:1;"/><line style="stroke:#000000;stroke-width:1;" x1="672.1031" x2="679.4182" y1="218.9476" y2="222.1863"/><line style="stroke:#000000;stroke-width:1;" x1="670.8886" x2="678.2037" y1="221.6908" y2="224.9294"/><line style="stroke:#000000;stroke-width:1;" x1="674.1413" x2="677.38" y1="224.2245" y2="216.9094"/><line style="stroke:#000000;stroke-width:1;" x1="641.5373" x2="634.2228" y1="307.7321" y2="304.4921"/><line style="stroke:#000000;stroke-width:1;" x1="642.7523" x2="635.4378" y1="304.9892" y2="301.7492"/><line style="stroke:#000000;stroke-width:1;" x1="639.5" x2="636.26" y1="302.4549" y2="309.7694"/><text fill="#000000" font-family="Verdana" font-size="13" lengthAdjust="spacing" textLength="55.0278" x="665.04" y="259.7463">contains</text></g><!--link SaveGameData to Scenario--><g class="link" data-entity-1="SaveGameData" data-entity-2="Scenario" data-source-line="79" data-uid="lnk14" id="link_SaveGameData_Scenario"><path codeLine="79" d="M749.9406,224.2236 C762.3506,252.2336 769.5723,268.5438 780.8623,294.0538" fill="none" id="SaveGameData-Scenario" style="stroke:#000000;stroke-width:1;"/><line style="stroke:#000000;stroke-width:1;" x1="744.6632" x2="751.9774" y1="222.1868" y2="218.9462"/><line style="stroke:#000000;stroke-width:1;" x1="745.8784" x2="753.1927" y1="224.9297" y2="221.689"/><line style="stroke:#000000;stroke-width:1;" x1="749.9406" x2="746.7" y1="224.2236" y2="216.9094"/><line style="stroke:#000000;stroke-width:1;" x1="786.139" x2="778.8234" y1="296.0928" y2="299.3304"/><line style="stroke:#000000;stroke-width:1;" x1="784.9248" x2="777.6093" y1="293.3494" y2="296.5871"/><line style="stroke:#000000;stroke-width:1;" x1="780.8623" x2="784.1" y1="294.0538" y2="301.3694"/><text fill="#000000" font-family="Verdana" font-size="13" lengthAdjust="spacing" textLength="55.0278" x="767.04" y="259.7463">contains</text></g><!--link SaveGameData to Train--><g class="link" data-entity-1="SaveGameData" data-entity-2="Train" data-source-line="80" data-uid="lnk15" id="link_SaveGameData_Train"><path codeLine="80" d="M826.8347,221.5944 C866.6147,250.3344 889.5597,266.9279 925.3797,292.8079" fill="none" id="SaveGameData-Train" style="stroke:#000000;stroke-width:1;"/><line style="stroke:#000000;stroke-width:1;" x1="821.2498" x2="825.9348" y1="222.4942" y2="216.0095"/><line style="stroke:#000000;stroke-width:1;" x1="823.6816" x2="828.3666" y1="224.2511" y2="217.7664"/><line style="stroke:#000000;stroke-width:1;" x1="826.8347" x2="820.35" y1="221.5944" y2="216.9094"/><line style="stroke:#000000;stroke-width:1;" x1="933.4854" x2="943.4838" y1="298.6643" y2="298.4859"/><line style="stroke:#000000;stroke-width:1;" x1="933.4854" x2="936.4562" y1="298.6643" y2="308.2128"/><line style="stroke:#000000;stroke-width:1;" x1="933.4854" x2="939.97" y1="298.6643" y2="303.3494"/><ellipse cx="928.622" cy="295.1504" fill="none" rx="4" ry="4" style="stroke:#000000;stroke-width:1;"/><text fill="#000000" font-family="Verdana" font-size="13" lengthAdjust="spacing" textLength="55.0278" x="881.04" y="259.7463">contains</text></g><!--link SaveGameData to Station--><g class="link" data-entity-1="SaveGameData" data-entity-2="Station" data-source-line="81" data-uid="lnk16" id="link_SaveGameData_Station"><path codeLine="81" d="M842.7572,187.7501 C919.7772,217.3601 1013.21,254.5694 1101.04,293.6794 C1106.68,296.1994 1096.1158,291.2352 1101.9058,293.9252" fill="none" id="SaveGameData-Station" style="stroke:#000000;stroke-width:1;"/><line style="stroke:#000000;stroke-width:1;" x1="837.5882" x2="840.459" y1="190.0483" y2="182.5811"/><line style="stroke:#000000;stroke-width:1;" x1="840.3884" x2="843.2592" y1="191.1249" y2="183.6577"/><line style="stroke:#000000;stroke-width:1;" x1="842.7572" x2="835.29" y1="187.7501" y2="184.8794"/><line style="stroke:#000000;stroke-width:1;" x1="1110.9748" x2="1120.758" y1="298.1386" y2="296.068"/><line style="stroke:#000000;stroke-width:1;" x1="1110.9748" x2="1115.702" y1="298.1386" y2="306.9508"/><line style="stroke:#000000;stroke-width:1;" x1="1110.9748" x2="1118.23" y1="298.1386" y2="301.5094"/><ellipse cx="1105.5334" cy="295.6106" fill="none" rx="4" ry="4" style="stroke:#000000;stroke-width:1;"/><text fill="#000000" font-family="Verdana" font-size="13" lengthAdjust="spacing" textLength="55.0278" x="1029.04" y="259.7463">contains</text></g><!--link Train to Position--><g class="link" data-entity-1="Train" data-entity-2="Position" data-source-line="83" data-uid="lnk17" id="link_Train_Position"><path codeLine="83" d="M1034.379,427.1485 C1043.339,455.1385 1048.7608,472.0403 1056.5308,496.3103" fill="none" id="Train-Position" style="stroke:#000000;stroke-width:1;"/><line style="stroke:#000000;stroke-width:1;" x1="1029.3499" x2="1036.9691" y1="424.5584" y2="422.1194"/><line style="stroke:#000000;stroke-width:1;" x1="1030.2646" x2="1037.8837" y1="427.4156" y2="424.9766"/><line style="stroke:#000000;stroke-width:1;" x1="1034.379" x2="1031.94" y1="427.1485" y2="419.5294"/><line style="stroke:#000000;stroke-width:1;" x1="1061.5599" x2="1053.9409" y1="498.9002" y2="501.3395"/><line style="stroke:#000000;stroke-width:1;" x1="1060.6452" x2="1053.0261" y1="496.0431" y2="498.4823"/><line style="stroke:#000000;stroke-width:1;" x1="1056.5308" x2="1058.97" y1="496.3103" y2="503.9294"/><text fill="#000000" font-family="Verdana" font-size="13" lengthAdjust="spacing" textLength="22.9785" x="1048.04" y="462.2363">has</text></g><!--link Station to Position--><g class="link" data-entity-1="Station" data-entity-2="Position" data-source-line="84" data-uid="lnk18" id="link_Station_Position"><path codeLine="84" d="M1168.6295,425.6509 C1145.0795,453.6409 1128.3304,473.5379 1107.9104,497.8079" fill="none" id="Station-Position" style="stroke:#000000;stroke-width:1;"/><line style="stroke:#000000;stroke-width:1;" x1="1168.144" x2="1174.2655" y1="420.0149" y2="425.1654"/><line style="stroke:#000000;stroke-width:1;" x1="1166.2126" x2="1172.3341" y1="422.3105" y2="427.4609"/><line style="stroke:#000000;stroke-width:1;" x1="1168.6295" x2="1173.78" y1="425.6509" y2="419.5294"/><line style="stroke:#000000;stroke-width:1;" x1="1108.396" x2="1102.2745" y1="503.4438" y2="498.2934"/><line style="stroke:#000000;stroke-width:1;" x1="1110.3274" x2="1104.2059" y1="501.1483" y2="495.9978"/><line style="stroke:#000000;stroke-width:1;" x1="1107.9104" x2="1102.76" y1="497.8079" y2="503.9294"/><text fill="#000000" font-family="Verdana" font-size="13" lengthAdjust="spacing" textLength="22.9785" x="1150.04" y="462.2363">has</text></g><!--link Station to StationType--><g class="link" data-entity-1="Station" data-entity-2="StationType" data-source-line="85" data-uid="lnk19" id="link_Station_StationType"><path codeLine="85" d="M1226.04,427.5294 C1226.04,452.4894 1226.04,464.7494 1226.04,487.7894" fill="none" id="Station-StationType" style="stroke:#000000;stroke-width:1;"/><line style="stroke:#000000;stroke-width:1;" x1="1222.04" x2="1230.04" y1="423.5294" y2="423.5294"/><line style="stroke:#000000;stroke-width:1;" x1="1222.04" x2="1230.04" y1="426.5294" y2="426.5294"/><line style="stroke:#000000;stroke-width:1;" x1="1226.04" x2="1226.04" y1="427.5294" y2="419.5294"/><line style="stroke:#000000;stroke-width:1;" x1="1230.04" x2="1222.04" y1="491.7894" y2="491.7894"/><line style="stroke:#000000;stroke-width:1;" x1="1230.04" x2="1222.04" y1="488.7894" y2="488.7894"/><line style="stroke:#000000;stroke-width:1;" x1="1226.04" x2="1226.04" y1="487.7894" y2="495.7894"/><text fill="#000000" font-family="Verdana" font-size="13" lengthAdjust="spacing" textLength="22.9785" x="1227.04" y="462.2363">has</text></g><!--link Station to Station--><g class="link" data-entity-1="Station" data-entity-2="Station" data-source-line="86" data-uid="lnk20" id="link_Station_Station"><path codeLine="86" d="M1351.8668,340.3144 C1372.2268,342.5044 1368.69,346.5894 1368.69,356.4294 C1368.69,366.2594 1372.2268,370.3543 1351.8668,372.5443" fill="none" id="Station-Station" style="stroke:#000000;stroke-width:1;"/><line style="stroke:#000000;stroke-width:1;" x1="1341.9241" x2="1333.3283" y1="339.245" y2="344.355"/><line style="stroke:#000000;stroke-width:1;" x1="1341.9241" x2="1334.6117" y1="339.245" y2="332.4238"/><line style="stroke:#000000;stroke-width:1;" x1="1341.9241" x2="1333.97" y1="339.245" y2="338.3894"/><ellipse cx="1347.8897" cy="339.8866" fill="none" rx="4" ry="4" style="stroke:#000000;stroke-width:1;"/><line style="stroke:#000000;stroke-width:1;" x1="1341.9241" x2="1334.6117" y1="373.6138" y2="380.435"/><line style="stroke:#000000;stroke-width:1;" x1="1341.9241" x2="1333.3283" y1="373.6138" y2="368.5038"/><line style="stroke:#000000;stroke-width:1;" x1="1341.9241" x2="1333.97" y1="373.6138" y2="374.4694"/><ellipse cx="1347.8897" cy="372.9721" fill="none" rx="4" ry="4" style="stroke:#000000;stroke-width:1;"/><text fill="#000000" font-family="Verdana" font-size="13" lengthAdjust="spacing" textLength="75.7783" x="1374.69" y="360.9963">connects to</text></g><!--SRC=[hLLBSzem4BxxLwXSSkBItZoTpf30CEa0ONYqbro4lJPgPCaZoRHCo7_lofQ43KxeeLpGQh_T_VQXzIUpXm98oIaJaNvXegIA5YJXL6lo6X7ytTFa9LUo4kc3v5AHdtjceD58bO9gRkyvmkhRaLBoT_loBOeCCnp8Tltv2ncIDJq0cL8CEvO5nYLpcGAFeYQerLhbc1hg60n90OQcU147zTpTE00cS0GLasNzxovr0e8g9j7AdRo25HMdXacnOGN4P2OJoZ4WMD5XZ49g6dLCcwyRAtpprgOszRfr8tfjZkIMIkOAD2AcBSaMefkZJoBagL6ne9RIsYWcyavsFGgBjxpxKx1KVe3IoEx2BWMTA5QQjYQmQtCEp99AAH1c1WVWCM72X1fBXU6v3BuJMPGS3AHFkr-G67Q0SwLie7QXBDa9fwM6D2RZIjMLF3DfkXauYEi2P3YMw3wLrOxxj5bwdPCVW8zyzHN5QLYMiQJYvdYXaE-b60BNanEYjgYzIwEKcZKSbkxaIrs2BLCdruIMD66Mbst9ETrc9lzFN7CiQsppO508ZHR2Pj_p5CuTTAu2apyN2Ho3Z3OWgg8To5bj9glvus8qguNlsyN3vl5fKGkhoNGx6wsixHrPGVEczPwLEkhiaTDfE3oThjzTR9Cmzg7tuZiluGRMpUeDL9Z3Zt3orOtD3P3lSWiMDOQUawz-JFOKVJZyFsdRRUW2tkHrT3i8cXY9VH3I09vA8hFkCe_9O6x9qHmBckEgyhHn1fy5vRnU2VLw1HpdJAgYZZ3ezzbguY2SwKvMXk17xLdOtKWoXjyTPZJmxCBDHMy7JV_kD2dz9HKfqahs37TUWRjF8odhkgOv-0i0]--></g></svg>