<svg xmlns="http://www.w3.org/2000/svg" xmlns:xlink="http://www.w3.org/1999/xlink" contentStyleType="text/css" height="702px" preserveAspectRatio="none" style="width:1196px;height:702px;background:#FFFFFF;" version="1.1" viewBox="0 0 1196 702" width="1196px" zoomAndPan="magnify"><title>Sequence Diagram (SD) - US12 Generate Cargoes Automatically - Split</title><defs/><g><text fill="#000000" font-family="sans-serif" font-size="14" font-weight="bold" lengthAdjust="spacing" textLength="469.1299" x="362.9045" y="30.1074">Sequence Diagram (SD) - US12 Generate Cargoes Automatically - Split</text><rect fill="#FFFFFF" height="468.627" style="stroke:#181818;stroke-width:1.0;" width="10" x="22.8413" y="133.2422"/><rect fill="#FFFFFF" height="445.3359" style="stroke:#181818;stroke-width:1.0;" width="10" x="319.5991" y="156.5332"/><rect fill="#FFFFFF" height="382.7539" style="stroke:#181818;stroke-width:1.0;" width="10" x="493.498" y="187.8242"/><rect fill="#FFFFFF" height="31.291" style="stroke:#181818;stroke-width:1.0;" width="10" x="724.4751" y="219.1152"/><rect fill="#FFFFFF" height="31.291" style="stroke:#181818;stroke-width:1.0;" width="10" x="1099.5737" y="507.9961"/><rect fill="none" height="164.0469" style="stroke:#000000;stroke-width:1.5;" width="622.6997" x="395.5088" y="313.6582"/><line style="stroke:#181818;stroke-width:0.5;stroke-dasharray:5.0,5.0;" x1="27" x2="27" y1="123.2422" y2="619.8691"/><line style="stroke:#181818;stroke-width:0.5;stroke-dasharray:5.0,5.0;" x1="323.9546" x2="323.9546" y1="123.2422" y2="619.8691"/><line style="stroke:#181818;stroke-width:0.5;stroke-dasharray:5.0,5.0;" x1="497.5088" x2="497.5088" y1="123.2422" y2="619.8691"/><line style="stroke:#181818;stroke-width:0.5;stroke-dasharray:5.0,5.0;" x1="728.5063" x2="728.5063" y1="123.2422" y2="619.8691"/><line style="stroke:#181818;stroke-width:0.5;stroke-dasharray:5.0,5.0;" x1="855.4438" x2="855.4438" y1="123.2422" y2="619.8691"/><line style="stroke:#181818;stroke-width:0.5;stroke-dasharray:5.0,5.0;" x1="962.1675" x2="962.1675" y1="123.2422" y2="619.8691"/><line style="stroke:#181818;stroke-width:0.5;stroke-dasharray:5.0,5.0;" x1="1104.2085" x2="1104.2085" y1="123.2422" y2="619.8691"/><text fill="#000000" font-family="sans-serif" font-size="14" lengthAdjust="spacing" textLength="39.6826" x="5" y="119.7285">Admin</text><ellipse cx="27.8413" cy="53.1211" fill="#E3E3E3" rx="8" ry="8" style="stroke:#181818;stroke-width:0.5;"/><path d="M27.8413,61.1211 L27.8413,88.1211 M14.8413,69.1211 L40.8413,69.1211 M27.8413,88.1211 L14.8413,103.1211 M27.8413,88.1211 L40.8413,103.1211 " fill="none" style="stroke:#181818;stroke-width:0.5;"/><text fill="#000000" font-family="sans-serif" font-size="14" lengthAdjust="spacing" textLength="39.6826" x="5" y="633.9766">Admin</text><ellipse cx="27.8413" cy="645.9902" fill="#E3E3E3" rx="8" ry="8" style="stroke:#181818;stroke-width:0.5;"/><path d="M27.8413,653.9902 L27.8413,680.9902 M14.8413,661.9902 L40.8413,661.9902 M27.8413,680.9902 L14.8413,695.9902 M27.8413,680.9902 L40.8413,695.9902 " fill="none" style="stroke:#181818;stroke-width:0.5;"/><rect fill="#E3E3E3" height="32.6211" rx="2.5" ry="2.5" style="stroke:#181818;stroke-width:0.5;" width="139.2891" x="254.9546" y="89.6211"/><text fill="#000000" font-family="sans-serif" font-size="14" lengthAdjust="spacing" textLength="125.2891" x="261.9546" y="111.7285">:CargoGenerationUI</text><rect fill="#E3E3E3" height="32.6211" rx="2.5" ry="2.5" style="stroke:#181818;stroke-width:0.5;" width="139.2891" x="254.9546" y="618.8691"/><text fill="#000000" font-family="sans-serif" font-size="14" lengthAdjust="spacing" textLength="125.2891" x="261.9546" y="640.9766">:CargoGenerationUI</text><rect fill="#E3E3E3" height="32.6211" rx="2.5" ry="2.5" style="stroke:#181818;stroke-width:0.5;" width="185.9785" x="405.5088" y="89.6211"/><text fill="#000000" font-family="sans-serif" font-size="14" lengthAdjust="spacing" textLength="171.9785" x="412.5088" y="111.7285">:CargoGenerationController</text><rect fill="#E3E3E3" height="32.6211" rx="2.5" ry="2.5" style="stroke:#181818;stroke-width:0.5;" width="185.9785" x="405.5088" y="618.8691"/><text fill="#000000" font-family="sans-serif" font-size="14" lengthAdjust="spacing" textLength="171.9785" x="412.5088" y="640.9766">:CargoGenerationController</text><rect fill="#E3E3E3" height="32.6211" rx="2.5" ry="2.5" style="stroke:#181818;stroke-width:0.5;" width="129.9375" x="664.5063" y="89.6211"/><text fill="#000000" font-family="sans-serif" font-size="14" lengthAdjust="spacing" textLength="115.9375" x="671.5063" y="111.7285">:SimulationService</text><rect fill="#E3E3E3" height="32.6211" rx="2.5" ry="2.5" style="stroke:#181818;stroke-width:0.5;" width="129.9375" x="664.5063" y="618.8691"/><text fill="#000000" font-family="sans-serif" font-size="14" lengthAdjust="spacing" textLength="115.9375" x="671.5063" y="640.9766">:SimulationService</text><rect fill="#E3E3E3" height="32.6211" rx="2.5" ry="2.5" style="stroke:#181818;stroke-width:0.5;" width="102.7236" x="804.4438" y="89.6211"/><text fill="#000000" font-family="sans-serif" font-size="14" lengthAdjust="spacing" textLength="88.7236" x="811.4438" y="111.7285">station:Station</text><rect fill="#E3E3E3" height="32.6211" rx="2.5" ry="2.5" style="stroke:#181818;stroke-width:0.5;" width="102.7236" x="804.4438" y="618.8691"/><text fill="#000000" font-family="sans-serif" font-size="14" lengthAdjust="spacing" textLength="88.7236" x="811.4438" y="640.9766">station:Station</text><rect fill="#E3E3E3" height="32.6211" rx="2.5" ry="2.5" style="stroke:#181818;stroke-width:0.5;" width="91.041" x="917.1675" y="89.6211"/><text fill="#000000" font-family="sans-serif" font-size="14" lengthAdjust="spacing" textLength="77.041" x="924.1675" y="111.7285">cargo:Cargo</text><rect fill="#E3E3E3" height="32.6211" rx="2.5" ry="2.5" style="stroke:#181818;stroke-width:0.5;" width="91.041" x="917.1675" y="618.8691"/><text fill="#000000" font-family="sans-serif" font-size="14" lengthAdjust="spacing" textLength="77.041" x="924.1675" y="640.9766">cargo:Cargo</text><rect fill="#E3E3E3" height="32.6211" rx="2.5" ry="2.5" style="stroke:#181818;stroke-width:0.5;" width="172.7305" x="1018.2085" y="89.6211"/><text fill="#000000" font-family="sans-serif" font-size="14" lengthAdjust="spacing" textLength="158.7305" x="1025.2085" y="111.7285">:CargoDistributionService</text><rect fill="#E3E3E3" height="32.6211" rx="2.5" ry="2.5" style="stroke:#181818;stroke-width:0.5;" width="172.7305" x="1018.2085" y="618.8691"/><text fill="#000000" font-family="sans-serif" font-size="14" lengthAdjust="spacing" textLength="158.7305" x="1025.2085" y="640.9766">:CargoDistributionService</text><rect fill="#FFFFFF" height="468.627" style="stroke:#181818;stroke-width:1.0;" width="10" x="22.8413" y="133.2422"/><rect fill="#FFFFFF" height="445.3359" style="stroke:#181818;stroke-width:1.0;" width="10" x="319.5991" y="156.5332"/><rect fill="#FFFFFF" height="382.7539" style="stroke:#181818;stroke-width:1.0;" width="10" x="493.498" y="187.8242"/><rect fill="#FFFFFF" height="31.291" style="stroke:#181818;stroke-width:1.0;" width="10" x="724.4751" y="219.1152"/><rect fill="#FFFFFF" height="31.291" style="stroke:#181818;stroke-width:1.0;" width="10" x="1099.5737" y="507.9961"/><polygon fill="#181818" points="307.5991,152.5332,317.5991,156.5332,307.5991,160.5332,311.5991,156.5332" style="stroke:#181818;stroke-width:1.0;"/><line style="stroke:#181818;stroke-width:1.0;" x1="32.8413" x2="313.5991" y1="156.5332" y2="156.5332"/><text fill="#000000" font-family="sans-serif" font-size="13" font-weight="bold" lengthAdjust="spacing" textLength="7.23" x="39.8413" y="151.2705">1</text><text fill="#000000" font-family="sans-serif" font-size="13" lengthAdjust="spacing" textLength="256.5278" x="51.0713" y="151.2705">requests to start cargo generation simulation</text><polygon fill="#181818" points="481.498,183.8242,491.498,187.8242,481.498,191.8242,485.498,187.8242" style="stroke:#181818;stroke-width:1.0;"/><line style="stroke:#181818;stroke-width:1.0;" x1="329.5991" x2="487.498" y1="187.8242" y2="187.8242"/><text fill="#000000" font-family="sans-serif" font-size="13" font-weight="bold" lengthAdjust="spacing" textLength="7.23" x="336.5991" y="182.5615">2</text><text fill="#000000" font-family="sans-serif" font-size="13" lengthAdjust="spacing" textLength="133.6689" x="347.8291" y="182.5615">startCargoGeneration()</text><polygon fill="#181818" points="712.4751,215.1152,722.4751,219.1152,712.4751,223.1152,716.4751,219.1152" style="stroke:#181818;stroke-width:1.0;"/><line style="stroke:#181818;stroke-width:1.0;" x1="503.498" x2="718.4751" y1="219.1152" y2="219.1152"/><text fill="#000000" font-family="sans-serif" font-size="13" font-weight="bold" lengthAdjust="spacing" textLength="7.23" x="510.498" y="213.8525">3</text><text fill="#000000" font-family="sans-serif" font-size="13" lengthAdjust="spacing" textLength="190.7471" x="521.728" y="213.8525">configureSimulation(/* params */)</text><polygon fill="#181818" points="514.498,246.4063,504.498,250.4063,514.498,254.4063,510.498,250.4063" style="stroke:#181818;stroke-width:1.0;"/><line style="stroke:#181818;stroke-width:1.0;stroke-dasharray:2.0,2.0;" x1="508.498" x2="728.4751" y1="250.4063" y2="250.4063"/><text fill="#000000" font-family="sans-serif" font-size="13" font-weight="bold" lengthAdjust="spacing" textLength="7.23" x="520.498" y="245.1436">4</text><text fill="#000000" font-family="sans-serif" font-size="13" lengthAdjust="spacing" textLength="53.4727" x="531.728" y="245.1436">configOK</text><rect fill="none" height="43.252" style="stroke:#000000;stroke-width:1.5;" width="191.9785" x="402.5088" y="258.4063"/><path d="M402.5088,258.4063 L463.5088,258.4063 L463.5088,267.4063 L453.5088,277.4063 L402.5088,277.4063 L402.5088,258.4063 " fill="#EEEEEE" style="stroke:#000000;stroke-width:2.0;"/><text fill="#000000" font-family="sans-serif" font-size="13" font-weight="bold" lengthAdjust="spacing" textLength="16.6182" x="415.5088" y="274.4346">ref</text><text fill="#000000" font-family="sans-serif" font-size="12" lengthAdjust="spacing" textLength="88.043" x="454.4766" y="294.3555">Get Stations List</text><path d="M395.5088,313.6582 L467.9434,313.6582 L467.9434,322.9492 L457.9434,332.9492 L395.5088,332.9492 L395.5088,313.6582 " fill="#EEEEEE" style="stroke:#000000;stroke-width:1.5;"/><rect fill="none" height="164.0469" style="stroke:#000000;stroke-width:1.5;" width="622.6997" x="395.5088" y="313.6582"/><text fill="#000000" font-family="sans-serif" font-size="13" font-weight="bold" lengthAdjust="spacing" textLength="27.4346" x="410.5088" y="328.6865">loop</text><text fill="#000000" font-family="sans-serif" font-size="11" font-weight="bold" lengthAdjust="spacing" textLength="160.73" x="482.9434" y="327.5283">[for each station in stationList]</text><rect fill="none" height="43.252" style="stroke:#000000;stroke-width:1.5;" width="507.6587" x="402.5088" y="332.9492"/><path d="M402.5088,332.9492 L463.5088,332.9492 L463.5088,341.9492 L453.5088,351.9492 L402.5088,351.9492 L402.5088,332.9492 " fill="#EEEEEE" style="stroke:#000000;stroke-width:2.0;"/><text fill="#000000" font-family="sans-serif" font-size="13" font-weight="bold" lengthAdjust="spacing" textLength="16.6182" x="415.5088" y="348.9775">ref</text><text fill="#000000" font-family="sans-serif" font-size="12" lengthAdjust="spacing" textLength="144.7441" x="583.9661" y="368.8984">Generate Industry Cargoes</text><rect fill="none" height="43.252" style="stroke:#000000;stroke-width:1.5;" width="507.6587" x="402.5088" y="381.2012"/><path d="M402.5088,381.2012 L463.5088,381.2012 L463.5088,390.2012 L453.5088,400.2012 L402.5088,400.2012 L402.5088,381.2012 " fill="#EEEEEE" style="stroke:#000000;stroke-width:2.0;"/><text fill="#000000" font-family="sans-serif" font-size="13" font-weight="bold" lengthAdjust="spacing" textLength="16.6182" x="415.5088" y="397.2295">ref</text><text fill="#000000" font-family="sans-serif" font-size="12" lengthAdjust="spacing" textLength="122.7246" x="594.9758" y="417.1504">Generate City Cargoes</text><rect fill="none" height="43.252" style="stroke:#000000;stroke-width:1.5;" width="608.6997" x="402.5088" y="429.4531"/><path d="M402.5088,429.4531 L463.5088,429.4531 L463.5088,438.4531 L453.5088,448.4531 L402.5088,448.4531 L402.5088,429.4531 " fill="#EEEEEE" style="stroke:#000000;stroke-width:2.0;"/><text fill="#000000" font-family="sans-serif" font-size="13" font-weight="bold" lengthAdjust="spacing" textLength="16.6182" x="415.5088" y="445.4814">ref</text><text fill="#000000" font-family="sans-serif" font-size="12" lengthAdjust="spacing" textLength="433.5703" x="490.0735" y="465.4023">Store Cargoes // This ref might need adjustment based on partial diagram content</text><polygon fill="#181818" points="1087.5737,503.9961,1097.5737,507.9961,1087.5737,511.9961,1091.5737,507.9961" style="stroke:#181818;stroke-width:1.0;"/><line style="stroke:#181818;stroke-width:1.0;" x1="503.498" x2="1093.5737" y1="507.9961" y2="507.9961"/><text fill="#000000" font-family="sans-serif" font-size="13" font-weight="bold" lengthAdjust="spacing" textLength="7.23" x="510.498" y="502.7334">5</text><text fill="#000000" font-family="sans-serif" font-size="13" lengthAdjust="spacing" textLength="111.979" x="521.728" y="502.7334">calculateStatistics()</text><polygon fill="#181818" points="514.498,535.2871,504.498,539.2871,514.498,543.2871,510.498,539.2871" style="stroke:#181818;stroke-width:1.0;"/><line style="stroke:#181818;stroke-width:1.0;stroke-dasharray:2.0,2.0;" x1="508.498" x2="1103.5737" y1="539.2871" y2="539.2871"/><text fill="#000000" font-family="sans-serif" font-size="13" font-weight="bold" lengthAdjust="spacing" textLength="7.23" x="520.498" y="534.0244">6</text><text fill="#000000" font-family="sans-serif" font-size="13" lengthAdjust="spacing" textLength="27.4536" x="531.728" y="534.0244">stats</text><polygon fill="#181818" points="340.5991,566.5781,330.5991,570.5781,340.5991,574.5781,336.5991,570.5781" style="stroke:#181818;stroke-width:1.0;"/><line style="stroke:#181818;stroke-width:1.0;stroke-dasharray:2.0,2.0;" x1="334.5991" x2="497.498" y1="570.5781" y2="570.5781"/><text fill="#000000" font-family="sans-serif" font-size="13" font-weight="bold" lengthAdjust="spacing" textLength="7.23" x="346.5991" y="565.3154">7</text><text fill="#000000" font-family="sans-serif" font-size="13" lengthAdjust="spacing" textLength="81.6372" x="357.8291" y="565.3154">success, stats</text><polygon fill="#181818" points="38.8413,597.8691,28.8413,601.8691,38.8413,605.8691,34.8413,601.8691" style="stroke:#181818;stroke-width:1.0;"/><line style="stroke:#181818;stroke-width:1.0;stroke-dasharray:2.0,2.0;" x1="32.8413" x2="323.5991" y1="601.8691" y2="601.8691"/><text fill="#000000" font-family="sans-serif" font-size="13" font-weight="bold" lengthAdjust="spacing" textLength="7.23" x="44.8413" y="596.6064">8</text><text fill="#000000" font-family="sans-serif" font-size="13" lengthAdjust="spacing" textLength="234.1143" x="56.0713" y="596.6064">displays operation success and statistics</text><!--SRC=[hLJ1Zjem4BtdAqQSO0L2xP539GGh57MtI1XwDyuGt7Nir7Qe-FjEd12I4FPGrHUIyERv-VdDk0-fSsvv1fdHHfojoH2yBJ1opJyv5nyyHUQl2i6Yy5odgWrmPvwOFrAdSEBAOHHvwGdAy7U1MY2i9KzBt9Yj9p230_lo5JQeqNAFiE8sDUXWMNYJSIy5L-fAA9OhwQE8qsTTP4Uqz2oyiJ1Q9fdK8-1KitwFVqGaWifaphM7qIBmrUpIw4CSa8VuSzZAQ6-DKcW3VBNVlVKAcCmA5R0CxKKA340MlxFNtSzuzTg5En-W2rRzLjZzSXzlUtf5gQDIK-syt6ssGrhNqdahZqLVmJfc-vk4qY5vALsjd8c0LdY4sJVo01PqVtGfpZlm1aYazH0KGDfO0QuvQQXlECb3g1TH4M7f4b46cfwVuqc3RUg3gT1QePvuxYOIcp3w9DF2ujtmyVm5Gj8SlCmd7Og6l7KHq5ij-jbTTRNFzdi7dk0GOGTYyGJcWlRnEENQe8VwpXsyqPLr4AYJihvBg8p9uKJ1fhtFK0S7fBuzFh0yg9WsqOA1rNHQh9E2CdIzjTm3Ub3Ul-wsalw_xJIjss9eGqOpuJv5vdFOdwKBF9bCpnuqOW8y-KL7pv3QwSWTVI27Guzn1KazdIWGdW1FjVQ-HODHRdLZcJ6kH9bX395mrD9k_2I_xJRkAsYJpZfzvzsp-7R6mgFIspXmXH3etBH7rY8ACUyqFjLMCsL1thbSyQi3apVJes84JhQvvjXHZvLcITHwhSRLNm00]--></g></svg>