<svg xmlns="http://www.w3.org/2000/svg" xmlns:xlink="http://www.w3.org/1999/xlink" contentStyleType="text/css" height="478px" preserveAspectRatio="none" style="width:845px;height:478px;background:#FFFFFF;" version="1.1" viewBox="0 0 845 478" width="845px" zoomAndPan="magnify"><title>US12 - Store Cargoes - Partial Sequence Diagram</title><defs/><g><text fill="#000000" font-family="sans-serif" font-size="14" font-weight="bold" lengthAdjust="spacing" textLength="328.3369" x="260.3083" y="30.1074">US12 - Store Cargoes - Partial Sequence Diagram</text><rect fill="#FFFFFF" height="310.9492" style="stroke:#181818;stroke-width:1.0;" width="10" x="247.3403" y="111.5332"/><rect fill="#FFFFFF" height="31.291" style="stroke:#181818;stroke-width:1.0;" width="10" x="636.4956" y="239.0273"/><rect fill="#FFFFFF" height="31.291" style="stroke:#181818;stroke-width:1.0;" width="10" x="753.4849" y="301.6094"/><rect fill="none" height="265.6582" style="stroke:#000000;stroke-width:1.5;" width="658.9751" x="180.9785" y="126.5332"/><rect fill="none" height="232.3672" style="stroke:#000000;stroke-width:1.5;" width="638.9751" x="190.9785" y="152.8242"/><line style="stroke:#181818;stroke-width:0.5;stroke-dasharray:5.0,5.0;" x1="97" x2="97" y1="78.2422" y2="440.4824"/><line style="stroke:#181818;stroke-width:0.5;stroke-dasharray:5.0,5.0;" x1="251.9785" x2="251.9785" y1="78.2422" y2="440.4824"/><line style="stroke:#181818;stroke-width:0.5;stroke-dasharray:5.0,5.0;" x1="513.0103" x2="513.0103" y1="78.2422" y2="440.4824"/><line style="stroke:#181818;stroke-width:0.5;stroke-dasharray:5.0,5.0;" x1="640.9751" x2="640.9751" y1="203.9258" y2="440.4824"/><line style="stroke:#181818;stroke-width:0.5;stroke-dasharray:5.0,5.0;" x1="758.0161" x2="758.0161" y1="78.2422" y2="440.4824"/><rect fill="#E3E3E3" height="32.6211" rx="2.5" ry="2.5" style="stroke:#181818;stroke-width:0.5;" width="185.9785" x="5" y="44.6211"/><text fill="#000000" font-family="sans-serif" font-size="14" lengthAdjust="spacing" textLength="171.9785" x="12" y="66.7285">:CargoGenerationController</text><rect fill="#E3E3E3" height="32.6211" rx="2.5" ry="2.5" style="stroke:#181818;stroke-width:0.5;" width="185.9785" x="5" y="439.4824"/><text fill="#000000" font-family="sans-serif" font-size="14" lengthAdjust="spacing" textLength="171.9785" x="12" y="461.5898">:CargoGenerationController</text><rect fill="#E3E3E3" height="32.6211" rx="2.5" ry="2.5" style="stroke:#181818;stroke-width:0.5;" width="102.7236" x="200.9785" y="44.6211"/><text fill="#000000" font-family="sans-serif" font-size="14" lengthAdjust="spacing" textLength="88.7236" x="207.9785" y="66.7285">station:Station</text><rect fill="#E3E3E3" height="32.6211" rx="2.5" ry="2.5" style="stroke:#181818;stroke-width:0.5;" width="102.7236" x="200.9785" y="439.4824"/><text fill="#000000" font-family="sans-serif" font-size="14" lengthAdjust="spacing" textLength="88.7236" x="207.9785" y="461.5898">station:Station</text><rect fill="#E3E3E3" height="32.6211" rx="2.5" ry="2.5" style="stroke:#181818;stroke-width:0.5;" width="143.9648" x="442.0103" y="44.6211"/><text fill="#000000" font-family="sans-serif" font-size="14" lengthAdjust="spacing" textLength="129.9648" x="449.0103" y="66.7285">cargoes:List&lt;Cargo&gt;</text><rect fill="#E3E3E3" height="32.6211" rx="2.5" ry="2.5" style="stroke:#181818;stroke-width:0.5;" width="143.9648" x="442.0103" y="439.4824"/><text fill="#000000" font-family="sans-serif" font-size="14" lengthAdjust="spacing" textLength="129.9648" x="449.0103" y="461.5898">cargoes:List&lt;Cargo&gt;</text><rect fill="#E3E3E3" height="32.6211" rx="2.5" ry="2.5" style="stroke:#181818;stroke-width:0.5;" width="91.041" x="595.9751" y="439.4824"/><text fill="#000000" font-family="sans-serif" font-size="14" lengthAdjust="spacing" textLength="77.041" x="602.9751" y="461.5898">cargo:Cargo</text><rect fill="#E3E3E3" height="32.6211" rx="2.5" ry="2.5" style="stroke:#181818;stroke-width:0.5;" width="122.9375" x="697.0161" y="44.6211"/><text fill="#000000" font-family="sans-serif" font-size="14" lengthAdjust="spacing" textLength="108.9375" x="704.0161" y="66.7285">:CargoRepository</text><rect fill="#E3E3E3" height="32.6211" rx="2.5" ry="2.5" style="stroke:#181818;stroke-width:0.5;" width="122.9375" x="697.0161" y="439.4824"/><text fill="#000000" font-family="sans-serif" font-size="14" lengthAdjust="spacing" textLength="108.9375" x="704.0161" y="461.5898">:CargoRepository</text><rect fill="#FFFFFF" height="310.9492" style="stroke:#181818;stroke-width:1.0;" width="10" x="247.3403" y="111.5332"/><rect fill="#FFFFFF" height="31.291" style="stroke:#181818;stroke-width:1.0;" width="10" x="636.4956" y="239.0273"/><rect fill="#FFFFFF" height="31.291" style="stroke:#181818;stroke-width:1.0;" width="10" x="753.4849" y="301.6094"/><polygon fill="#181818" points="235.3403,107.5332,245.3403,111.5332,235.3403,115.5332,239.3403,111.5332" style="stroke:#181818;stroke-width:1.0;"/><line style="stroke:#181818;stroke-width:1.0;" x1="97.9893" x2="241.3403" y1="111.5332" y2="111.5332"/><text fill="#000000" font-family="sans-serif" font-size="13" lengthAdjust="spacing" textLength="125.7344" x="104.9893" y="106.2705">addCargoes(cargoes)</text><path d="M180.9785,126.5332 L314.8394,126.5332 L314.8394,135.8242 L304.8394,145.8242 L180.9785,145.8242 L180.9785,126.5332 " fill="#EEEEEE" style="stroke:#000000;stroke-width:1.5;"/><rect fill="none" height="265.6582" style="stroke:#000000;stroke-width:1.5;" width="658.9751" x="180.9785" y="126.5332"/><text fill="#000000" font-family="sans-serif" font-size="13" font-weight="bold" lengthAdjust="spacing" textLength="88.8608" x="195.9785" y="141.5615">Store Cargoes</text><path d="M190.9785,152.8242 L263.4131,152.8242 L263.4131,162.1152 L253.4131,172.1152 L190.9785,172.1152 L190.9785,152.8242 " fill="#EEEEEE" style="stroke:#000000;stroke-width:1.5;"/><rect fill="none" height="232.3672" style="stroke:#000000;stroke-width:1.5;" width="638.9751" x="190.9785" y="152.8242"/><text fill="#000000" font-family="sans-serif" font-size="13" font-weight="bold" lengthAdjust="spacing" textLength="27.4346" x="205.9785" y="167.8525">loop</text><text fill="#000000" font-family="sans-serif" font-size="11" font-weight="bold" lengthAdjust="spacing" textLength="165.0483" x="278.4131" y="166.6943">[for each cargoData in cargoes]</text><polygon fill="#181818" points="583.9751,191.4063,593.9751,195.4063,583.9751,199.4063,587.9751,195.4063" style="stroke:#181818;stroke-width:1.0;"/><line style="stroke:#181818;stroke-width:1.0;" x1="257.3403" x2="589.9751" y1="195.4063" y2="195.4063"/><text fill="#000000" font-family="sans-serif" font-size="13" lengthAdjust="spacing" textLength="104.7681" x="264.3403" y="190.1436">create(cargoData)</text><rect fill="#E3E3E3" height="32.6211" rx="2.5" ry="2.5" style="stroke:#181818;stroke-width:0.5;" width="91.041" x="595.9751" y="172.1152"/><text fill="#000000" font-family="sans-serif" font-size="14" lengthAdjust="spacing" textLength="77.041" x="602.9751" y="194.2227">cargo:Cargo</text><polygon fill="#181818" points="624.4956,235.0273,634.4956,239.0273,624.4956,243.0273,628.4956,239.0273" style="stroke:#181818;stroke-width:1.0;"/><line style="stroke:#181818;stroke-width:1.0;" x1="257.3403" x2="630.4956" y1="239.0273" y2="239.0273"/><text fill="#000000" font-family="sans-serif" font-size="13" lengthAdjust="spacing" textLength="80.9263" x="264.3403" y="233.7646">validateData()</text><polygon fill="#181818" points="268.3403,266.3184,258.3403,270.3184,268.3403,274.3184,264.3403,270.3184" style="stroke:#181818;stroke-width:1.0;"/><line style="stroke:#181818;stroke-width:1.0;stroke-dasharray:2.0,2.0;" x1="262.3403" x2="640.4956" y1="270.3184" y2="270.3184"/><text fill="#000000" font-family="sans-serif" font-size="13" lengthAdjust="spacing" textLength="91.7744" x="274.3403" y="265.0557">validationResult</text><polygon fill="#181818" points="741.4849,297.6094,751.4849,301.6094,741.4849,305.6094,745.4849,301.6094" style="stroke:#181818;stroke-width:1.0;"/><line style="stroke:#181818;stroke-width:1.0;" x1="257.3403" x2="747.4849" y1="301.6094" y2="301.6094"/><text fill="#000000" font-family="sans-serif" font-size="13" lengthAdjust="spacing" textLength="104.0444" x="264.3403" y="296.3467">saveCargo(cargo)</text><polygon fill="#181818" points="268.3403,328.9004,258.3403,332.9004,268.3403,336.9004,264.3403,332.9004" style="stroke:#181818;stroke-width:1.0;"/><line style="stroke:#181818;stroke-width:1.0;stroke-dasharray:2.0,2.0;" x1="262.3403" x2="757.4849" y1="332.9004" y2="332.9004"/><text fill="#000000" font-family="sans-serif" font-size="13" lengthAdjust="spacing" textLength="70.0972" x="274.3403" y="327.6377">savedCargo</text><line style="stroke:#181818;stroke-width:1.0;" x1="257.3403" x2="299.3403" y1="364.1914" y2="364.1914"/><line style="stroke:#181818;stroke-width:1.0;" x1="299.3403" x2="299.3403" y1="364.1914" y2="377.1914"/><line style="stroke:#181818;stroke-width:1.0;" x1="258.3403" x2="299.3403" y1="377.1914" y2="377.1914"/><polygon fill="#181818" points="268.3403,373.1914,258.3403,377.1914,268.3403,381.1914,264.3403,377.1914" style="stroke:#181818;stroke-width:1.0;"/><text fill="#000000" font-family="sans-serif" font-size="13" lengthAdjust="spacing" textLength="227.6523" x="264.3403" y="358.9287">updateStorage(cargo) // Internal update</text><polygon fill="#181818" points="108.9893,418.4824,98.9893,422.4824,108.9893,426.4824,104.9893,422.4824" style="stroke:#181818;stroke-width:1.0;"/><line style="stroke:#181818;stroke-width:1.0;stroke-dasharray:2.0,2.0;" x1="102.9893" x2="251.3403" y1="422.4824" y2="422.4824"/><text fill="#000000" font-family="sans-serif" font-size="13" lengthAdjust="spacing" textLength="122.1353" x="114.9893" y="417.2197">addedCargoesResult</text><!--SRC=[VPFRIWCn48RlynI3DrQXY5uM4KeL4SJARds08JjkWsco9hCLtzuSzj3Lrjo4tVppvvj3_8So3JhSmSuQAxVExWZOjIJySDAW_C2QIlxM18uaewdreS1liR9VojJmZjgJ4AmuID_AwnkOGydM4QpGrPPy-7v5nmerbFJPaf44zmhhO2D44q-aQj0md2rIn2CPSiZAcfKrxApMvCu0FQmsnVCqm7FIBSgy9rMvMMwUrYzJeSmeYsVb-JRTSfSjbyNZ-g4y8iuie-WOQK6DzIha-ZtgYeVNjH0H5UPtFGmi0AkggyUiWxaGA5djaMbWXh1gPzjcMi7qNrlRmBjrG2Yta3pkaH6K0NaWYwk_DG0afilB020TXQjcG-35INaGxr6hAiYZS3Og1-1S4ZXOEN8-oRbp2PqfoBUQXu2AVZaD9-UmzBxTnS4QeyCuUlzFVh7cuJgFUqeLoqcUmauT-eEUFARuqIytxIHuxlOHhj6bRM8XOp_3W-h8uEeAdWoJC-5HP44o8LFrUvu3CR6D-SR1IjD4_JnrjJr0wyVf1m00]--></g></svg>