<svg xmlns="http://www.w3.org/2000/svg" xmlns:xlink="http://www.w3.org/1999/xlink" contentStyleType="text/css" height="1315px" preserveAspectRatio="none" style="width:2436px;height:1315px;background:#FFFFFF;" version="1.1" viewBox="0 0 2436 1315" width="2436px" zoomAndPan="magnify"><title>Sequence Diagram (SD) - US12 Generate Cargoes Automatically - Full</title><defs/><g><text fill="#000000" font-family="sans-serif" font-size="14" font-weight="bold" lengthAdjust="spacing" textLength="463.6816" x="985.1663" y="30.1074">Sequence Diagram (SD) - US12 Generate Cargoes Automatically - Full</text><rect fill="#FFFFFF" height="1081.2637" style="stroke:#181818;stroke-width:1.0;" width="10" x="22.8413" y="133.2422"/><rect fill="#FFFFFF" height="1057.9727" style="stroke:#181818;stroke-width:1.0;" width="10" x="319.5991" y="156.5332"/><rect fill="#FFFFFF" height="995.3906" style="stroke:#181818;stroke-width:1.0;" width="10" x="493.498" y="187.8242"/><rect fill="#FFFFFF" height="31.291" style="stroke:#181818;stroke-width:1.0;" width="10" x="724.4751" y="219.1152"/><rect fill="#FFFFFF" height="31.291" style="stroke:#181818;stroke-width:1.0;" width="10" x="863.6401" y="281.6973"/><rect fill="#FFFFFF" height="277.6582" style="stroke:#181818;stroke-width:1.0;" width="10" x="1161.8457" y="495.7344"/><rect fill="#FFFFFF" height="277.6582" style="stroke:#181818;stroke-width:1.0;" width="10" x="1161.8457" y="804.6836"/><rect fill="#FFFFFF" height="31.291" style="stroke:#181818;stroke-width:1.0;" width="10" x="1340.7764" y="370.5703"/><rect fill="#FFFFFF" height="31.291" style="stroke:#181818;stroke-width:1.0;" width="10" x="1658.3994" y="433.1523"/><rect fill="#FFFFFF" height="31.291" style="stroke:#181818;stroke-width:1.0;" width="10" x="1936.3364" y="596.9375"/><rect fill="#FFFFFF" height="31.291" style="stroke:#181818;stroke-width:1.0;" width="10" x="1936.3364" y="905.8867"/><rect fill="#FFFFFF" height="31.291" style="stroke:#181818;stroke-width:1.0;" width="10" x="2053.3257" y="659.5195"/><rect fill="#FFFFFF" height="31.291" style="stroke:#181818;stroke-width:1.0;" width="10" x="2053.3257" y="968.4688"/><rect fill="#FFFFFF" height="31.291" style="stroke:#181818;stroke-width:1.0;" width="10" x="2211.1597" y="1120.6328"/><rect fill="none" height="762.3535" style="stroke:#000000;stroke-width:1.5;" width="1744.2856" x="395.5088" y="327.9883"/><rect fill="none" height="232.3672" style="stroke:#000000;stroke-width:1.5;" width="1024.3105" x="1105.4839" y="510.7344"/><rect fill="none" height="232.3672" style="stroke:#000000;stroke-width:1.5;" width="1024.3105" x="1105.4839" y="819.6836"/><line style="stroke:#181818;stroke-width:0.5;stroke-dasharray:5.0,5.0;" x1="27" x2="27" y1="123.2422" y2="1232.5059"/><line style="stroke:#181818;stroke-width:0.5;stroke-dasharray:5.0,5.0;" x1="323.9546" x2="323.9546" y1="123.2422" y2="1232.5059"/><line style="stroke:#181818;stroke-width:0.5;stroke-dasharray:5.0,5.0;" x1="497.5088" x2="497.5088" y1="123.2422" y2="1232.5059"/><line style="stroke:#181818;stroke-width:0.5;stroke-dasharray:5.0,5.0;" x1="728.5063" x2="728.5063" y1="123.2422" y2="1232.5059"/><line style="stroke:#181818;stroke-width:0.5;stroke-dasharray:5.0,5.0;" x1="868.4438" x2="868.4438" y1="123.2422" y2="1232.5059"/><line style="stroke:#181818;stroke-width:0.5;stroke-dasharray:5.0,5.0;" x1="1023.8364" x2="1023.8364" y1="123.2422" y2="1232.5059"/><line style="stroke:#181818;stroke-width:0.5;stroke-dasharray:5.0,5.0;" x1="1166.4839" x2="1166.4839" y1="123.2422" y2="1232.5059"/><line style="stroke:#181818;stroke-width:0.5;stroke-dasharray:5.0,5.0;" x1="1345.5903" x2="1345.5903" y1="123.2422" y2="1232.5059"/><line style="stroke:#181818;stroke-width:0.5;stroke-dasharray:5.0,5.0;" x1="1510.9624" x2="1510.9624" y1="123.2422" y2="1232.5059"/><line style="stroke:#181818;stroke-width:0.5;stroke-dasharray:5.0,5.0;" x1="1663.0581" x2="1663.0581" y1="123.2422" y2="1232.5059"/><line style="stroke:#181818;stroke-width:0.5;stroke-dasharray:5.0,5.0;" x1="1801.7407" x2="1801.7407" y1="123.2422" y2="1232.5059"/><line style="stroke:#181818;stroke-width:0.5;stroke-dasharray:5.0,5.0;" x1="1940.8159" x2="1940.8159" y1="870.7852" y2="1232.5059"/><line style="stroke:#181818;stroke-width:0.5;stroke-dasharray:5.0,5.0;" x1="2057.8569" x2="2057.8569" y1="123.2422" y2="1232.5059"/><line style="stroke:#181818;stroke-width:0.5;stroke-dasharray:5.0,5.0;" x1="2215.7944" x2="2215.7944" y1="123.2422" y2="1232.5059"/><line style="stroke:#181818;stroke-width:0.5;stroke-dasharray:5.0,5.0;" x1="2370.5249" x2="2370.5249" y1="123.2422" y2="1232.5059"/><text fill="#000000" font-family="sans-serif" font-size="14" lengthAdjust="spacing" textLength="39.6826" x="5" y="119.7285">Admin</text><ellipse cx="27.8413" cy="53.1211" fill="#E3E3E3" rx="8" ry="8" style="stroke:#181818;stroke-width:0.5;"/><path d="M27.8413,61.1211 L27.8413,88.1211 M14.8413,69.1211 L40.8413,69.1211 M27.8413,88.1211 L14.8413,103.1211 M27.8413,88.1211 L40.8413,103.1211 " fill="none" style="stroke:#181818;stroke-width:0.5;"/><text fill="#000000" font-family="sans-serif" font-size="14" lengthAdjust="spacing" textLength="39.6826" x="5" y="1246.6133">Admin</text><ellipse cx="27.8413" cy="1258.627" fill="#E3E3E3" rx="8" ry="8" style="stroke:#181818;stroke-width:0.5;"/><path d="M27.8413,1266.627 L27.8413,1293.627 M14.8413,1274.627 L40.8413,1274.627 M27.8413,1293.627 L14.8413,1308.627 M27.8413,1293.627 L40.8413,1308.627 " fill="none" style="stroke:#181818;stroke-width:0.5;"/><rect fill="#E3E3E3" height="32.6211" rx="2.5" ry="2.5" style="stroke:#181818;stroke-width:0.5;" width="139.2891" x="254.9546" y="89.6211"/><text fill="#000000" font-family="sans-serif" font-size="14" lengthAdjust="spacing" textLength="125.2891" x="261.9546" y="111.7285">:CargoGenerationUI</text><rect fill="#E3E3E3" height="32.6211" rx="2.5" ry="2.5" style="stroke:#181818;stroke-width:0.5;" width="139.2891" x="254.9546" y="1231.5059"/><text fill="#000000" font-family="sans-serif" font-size="14" lengthAdjust="spacing" textLength="125.2891" x="261.9546" y="1253.6133">:CargoGenerationUI</text><rect fill="#E3E3E3" height="32.6211" rx="2.5" ry="2.5" style="stroke:#181818;stroke-width:0.5;" width="185.9785" x="405.5088" y="89.6211"/><text fill="#000000" font-family="sans-serif" font-size="14" lengthAdjust="spacing" textLength="171.9785" x="412.5088" y="111.7285">:CargoGenerationController</text><rect fill="#E3E3E3" height="32.6211" rx="2.5" ry="2.5" style="stroke:#181818;stroke-width:0.5;" width="185.9785" x="405.5088" y="1231.5059"/><text fill="#000000" font-family="sans-serif" font-size="14" lengthAdjust="spacing" textLength="171.9785" x="412.5088" y="1253.6133">:CargoGenerationController</text><rect fill="#E3E3E3" height="32.6211" rx="2.5" ry="2.5" style="stroke:#181818;stroke-width:0.5;" width="129.9375" x="664.5063" y="89.6211"/><text fill="#000000" font-family="sans-serif" font-size="14" lengthAdjust="spacing" textLength="115.9375" x="671.5063" y="111.7285">:SimulationService</text><rect fill="#E3E3E3" height="32.6211" rx="2.5" ry="2.5" style="stroke:#181818;stroke-width:0.5;" width="129.9375" x="664.5063" y="1231.5059"/><text fill="#000000" font-family="sans-serif" font-size="14" lengthAdjust="spacing" textLength="115.9375" x="671.5063" y="1253.6133">:SimulationService</text><rect fill="#E3E3E3" height="32.6211" rx="2.5" ry="2.5" style="stroke:#181818;stroke-width:0.5;" width="128.3926" x="804.4438" y="89.6211"/><text fill="#000000" font-family="sans-serif" font-size="14" lengthAdjust="spacing" textLength="114.3926" x="811.4438" y="111.7285">:StationRepository</text><rect fill="#E3E3E3" height="32.6211" rx="2.5" ry="2.5" style="stroke:#181818;stroke-width:0.5;" width="128.3926" x="804.4438" y="1231.5059"/><text fill="#000000" font-family="sans-serif" font-size="14" lengthAdjust="spacing" textLength="114.3926" x="811.4438" y="1253.6133">:StationRepository</text><rect fill="#E3E3E3" height="32.6211" rx="2.5" ry="2.5" style="stroke:#181818;stroke-width:0.5;" width="162.6475" x="942.8364" y="89.6211"/><text fill="#000000" font-family="sans-serif" font-size="14" lengthAdjust="spacing" textLength="148.6475" x="949.8364" y="111.7285">stationList:List&lt;Station&gt;</text><rect fill="#E3E3E3" height="32.6211" rx="2.5" ry="2.5" style="stroke:#181818;stroke-width:0.5;" width="162.6475" x="942.8364" y="1231.5059"/><text fill="#000000" font-family="sans-serif" font-size="14" lengthAdjust="spacing" textLength="148.6475" x="949.8364" y="1253.6133">stationList:List&lt;Station&gt;</text><rect fill="#E3E3E3" height="32.6211" rx="2.5" ry="2.5" style="stroke:#181818;stroke-width:0.5;" width="102.7236" x="1115.4839" y="89.6211"/><text fill="#000000" font-family="sans-serif" font-size="14" lengthAdjust="spacing" textLength="88.7236" x="1122.4839" y="111.7285">station:Station</text><rect fill="#E3E3E3" height="32.6211" rx="2.5" ry="2.5" style="stroke:#181818;stroke-width:0.5;" width="102.7236" x="1115.4839" y="1231.5059"/><text fill="#000000" font-family="sans-serif" font-size="14" lengthAdjust="spacing" textLength="88.7236" x="1122.4839" y="1253.6133">station:Station</text><rect fill="#E3E3E3" height="32.6211" rx="2.5" ry="2.5" style="stroke:#181818;stroke-width:0.5;" width="114.3721" x="1288.5903" y="89.6211"/><text fill="#000000" font-family="sans-serif" font-size="14" lengthAdjust="spacing" textLength="100.3721" x="1295.5903" y="111.7285">:IndustryService</text><rect fill="#E3E3E3" height="32.6211" rx="2.5" ry="2.5" style="stroke:#181818;stroke-width:0.5;" width="114.3721" x="1288.5903" y="1231.5059"/><text fill="#000000" font-family="sans-serif" font-size="14" lengthAdjust="spacing" textLength="100.3721" x="1295.5903" y="1253.6133">:IndustryService</text><rect fill="#E3E3E3" height="32.6211" rx="2.5" ry="2.5" style="stroke:#181818;stroke-width:0.5;" width="196.0957" x="1412.9624" y="89.6211"/><text fill="#000000" font-family="sans-serif" font-size="14" lengthAdjust="spacing" textLength="182.0957" x="1419.9624" y="111.7285">industryCargoes:List&lt;Cargo&gt;</text><rect fill="#E3E3E3" height="32.6211" rx="2.5" ry="2.5" style="stroke:#181818;stroke-width:0.5;" width="196.0957" x="1412.9624" y="1231.5059"/><text fill="#000000" font-family="sans-serif" font-size="14" lengthAdjust="spacing" textLength="182.0957" x="1419.9624" y="1253.6133">industryCargoes:List&lt;Cargo&gt;</text><rect fill="#E3E3E3" height="32.6211" rx="2.5" ry="2.5" style="stroke:#181818;stroke-width:0.5;" width="88.6826" x="1619.0581" y="89.6211"/><text fill="#000000" font-family="sans-serif" font-size="14" lengthAdjust="spacing" textLength="74.6826" x="1626.0581" y="111.7285">:CityService</text><rect fill="#E3E3E3" height="32.6211" rx="2.5" ry="2.5" style="stroke:#181818;stroke-width:0.5;" width="88.6826" x="1619.0581" y="1231.5059"/><text fill="#000000" font-family="sans-serif" font-size="14" lengthAdjust="spacing" textLength="74.6826" x="1626.0581" y="1253.6133">:CityService</text><rect fill="#E3E3E3" height="32.6211" rx="2.5" ry="2.5" style="stroke:#181818;stroke-width:0.5;" width="168.0752" x="1717.7407" y="89.6211"/><text fill="#000000" font-family="sans-serif" font-size="14" lengthAdjust="spacing" textLength="154.0752" x="1724.7407" y="111.7285">cityCargoes:List&lt;Cargo&gt;</text><rect fill="#E3E3E3" height="32.6211" rx="2.5" ry="2.5" style="stroke:#181818;stroke-width:0.5;" width="168.0752" x="1717.7407" y="1231.5059"/><text fill="#000000" font-family="sans-serif" font-size="14" lengthAdjust="spacing" textLength="154.0752" x="1724.7407" y="1253.6133">cityCargoes:List&lt;Cargo&gt;</text><rect fill="#E3E3E3" height="32.6211" rx="2.5" ry="2.5" style="stroke:#181818;stroke-width:0.5;" width="91.041" x="1895.8159" y="1231.5059"/><text fill="#000000" font-family="sans-serif" font-size="14" lengthAdjust="spacing" textLength="77.041" x="1902.8159" y="1253.6133">cargo:Cargo</text><rect fill="#E3E3E3" height="32.6211" rx="2.5" ry="2.5" style="stroke:#181818;stroke-width:0.5;" width="122.9375" x="1996.8569" y="89.6211"/><text fill="#000000" font-family="sans-serif" font-size="14" lengthAdjust="spacing" textLength="108.9375" x="2003.8569" y="111.7285">:CargoRepository</text><rect fill="#E3E3E3" height="32.6211" rx="2.5" ry="2.5" style="stroke:#181818;stroke-width:0.5;" width="122.9375" x="1996.8569" y="1231.5059"/><text fill="#000000" font-family="sans-serif" font-size="14" lengthAdjust="spacing" textLength="108.9375" x="2003.8569" y="1253.6133">:CargoRepository</text><rect fill="#E3E3E3" height="32.6211" rx="2.5" ry="2.5" style="stroke:#181818;stroke-width:0.5;" width="172.7305" x="2129.7944" y="89.6211"/><text fill="#000000" font-family="sans-serif" font-size="14" lengthAdjust="spacing" textLength="158.7305" x="2136.7944" y="111.7285">:CargoDistributionService</text><rect fill="#E3E3E3" height="32.6211" rx="2.5" ry="2.5" style="stroke:#181818;stroke-width:0.5;" width="172.7305" x="2129.7944" y="1231.5059"/><text fill="#000000" font-family="sans-serif" font-size="14" lengthAdjust="spacing" textLength="158.7305" x="2136.7944" y="1253.6133">:CargoDistributionService</text><rect fill="#E3E3E3" height="32.6211" rx="2.5" ry="2.5" style="stroke:#181818;stroke-width:0.5;" width="117.4893" x="2312.5249" y="89.6211"/><text fill="#000000" font-family="sans-serif" font-size="14" lengthAdjust="spacing" textLength="103.4893" x="2319.5249" y="111.7285">stats:CargoStats</text><rect fill="#E3E3E3" height="32.6211" rx="2.5" ry="2.5" style="stroke:#181818;stroke-width:0.5;" width="117.4893" x="2312.5249" y="1231.5059"/><text fill="#000000" font-family="sans-serif" font-size="14" lengthAdjust="spacing" textLength="103.4893" x="2319.5249" y="1253.6133">stats:CargoStats</text><rect fill="#FFFFFF" height="1081.2637" style="stroke:#181818;stroke-width:1.0;" width="10" x="22.8413" y="133.2422"/><rect fill="#FFFFFF" height="1057.9727" style="stroke:#181818;stroke-width:1.0;" width="10" x="319.5991" y="156.5332"/><rect fill="#FFFFFF" height="995.3906" style="stroke:#181818;stroke-width:1.0;" width="10" x="493.498" y="187.8242"/><rect fill="#FFFFFF" height="31.291" style="stroke:#181818;stroke-width:1.0;" width="10" x="724.4751" y="219.1152"/><rect fill="#FFFFFF" height="31.291" style="stroke:#181818;stroke-width:1.0;" width="10" x="863.6401" y="281.6973"/><rect fill="#FFFFFF" height="277.6582" style="stroke:#181818;stroke-width:1.0;" width="10" x="1161.8457" y="495.7344"/><rect fill="#FFFFFF" height="277.6582" style="stroke:#181818;stroke-width:1.0;" width="10" x="1161.8457" y="804.6836"/><rect fill="#FFFFFF" height="31.291" style="stroke:#181818;stroke-width:1.0;" width="10" x="1340.7764" y="370.5703"/><rect fill="#FFFFFF" height="31.291" style="stroke:#181818;stroke-width:1.0;" width="10" x="1658.3994" y="433.1523"/><rect fill="#FFFFFF" height="31.291" style="stroke:#181818;stroke-width:1.0;" width="10" x="1936.3364" y="596.9375"/><rect fill="#FFFFFF" height="31.291" style="stroke:#181818;stroke-width:1.0;" width="10" x="1936.3364" y="905.8867"/><rect fill="#FFFFFF" height="31.291" style="stroke:#181818;stroke-width:1.0;" width="10" x="2053.3257" y="659.5195"/><rect fill="#FFFFFF" height="31.291" style="stroke:#181818;stroke-width:1.0;" width="10" x="2053.3257" y="968.4688"/><rect fill="#FFFFFF" height="31.291" style="stroke:#181818;stroke-width:1.0;" width="10" x="2211.1597" y="1120.6328"/><polygon fill="#181818" points="307.5991,152.5332,317.5991,156.5332,307.5991,160.5332,311.5991,156.5332" style="stroke:#181818;stroke-width:1.0;"/><line style="stroke:#181818;stroke-width:1.0;" x1="32.8413" x2="313.5991" y1="156.5332" y2="156.5332"/><text fill="#000000" font-family="sans-serif" font-size="13" font-weight="bold" lengthAdjust="spacing" textLength="7.23" x="39.8413" y="151.2705">1</text><text fill="#000000" font-family="sans-serif" font-size="13" lengthAdjust="spacing" textLength="256.5278" x="51.0713" y="151.2705">requests to start cargo generation simulation</text><polygon fill="#181818" points="481.498,183.8242,491.498,187.8242,481.498,191.8242,485.498,187.8242" style="stroke:#181818;stroke-width:1.0;"/><line style="stroke:#181818;stroke-width:1.0;" x1="329.5991" x2="487.498" y1="187.8242" y2="187.8242"/><text fill="#000000" font-family="sans-serif" font-size="13" font-weight="bold" lengthAdjust="spacing" textLength="7.23" x="336.5991" y="182.5615">2</text><text fill="#000000" font-family="sans-serif" font-size="13" lengthAdjust="spacing" textLength="133.6689" x="347.8291" y="182.5615">startCargoGeneration()</text><polygon fill="#181818" points="712.4751,215.1152,722.4751,219.1152,712.4751,223.1152,716.4751,219.1152" style="stroke:#181818;stroke-width:1.0;"/><line style="stroke:#181818;stroke-width:1.0;" x1="503.498" x2="718.4751" y1="219.1152" y2="219.1152"/><text fill="#000000" font-family="sans-serif" font-size="13" font-weight="bold" lengthAdjust="spacing" textLength="7.23" x="510.498" y="213.8525">3</text><text fill="#000000" font-family="sans-serif" font-size="13" lengthAdjust="spacing" textLength="190.7471" x="521.728" y="213.8525">configureSimulation(/* params */)</text><polygon fill="#181818" points="514.498,246.4063,504.498,250.4063,514.498,254.4063,510.498,250.4063" style="stroke:#181818;stroke-width:1.0;"/><line style="stroke:#181818;stroke-width:1.0;stroke-dasharray:2.0,2.0;" x1="508.498" x2="728.4751" y1="250.4063" y2="250.4063"/><text fill="#000000" font-family="sans-serif" font-size="13" font-weight="bold" lengthAdjust="spacing" textLength="7.23" x="520.498" y="245.1436">4</text><text fill="#000000" font-family="sans-serif" font-size="13" lengthAdjust="spacing" textLength="53.4727" x="531.728" y="245.1436">configOK</text><polygon fill="#181818" points="851.6401,277.6973,861.6401,281.6973,851.6401,285.6973,855.6401,281.6973" style="stroke:#181818;stroke-width:1.0;"/><line style="stroke:#181818;stroke-width:1.0;" x1="503.498" x2="857.6401" y1="281.6973" y2="281.6973"/><text fill="#000000" font-family="sans-serif" font-size="13" font-weight="bold" lengthAdjust="spacing" textLength="7.23" x="510.498" y="276.4346">5</text><text fill="#000000" font-family="sans-serif" font-size="13" lengthAdjust="spacing" textLength="88.1499" x="521.728" y="276.4346">getAllStations()</text><polygon fill="#181818" points="514.498,308.9883,504.498,312.9883,514.498,316.9883,510.498,312.9883" style="stroke:#181818;stroke-width:1.0;"/><line style="stroke:#181818;stroke-width:1.0;stroke-dasharray:2.0,2.0;" x1="508.498" x2="867.6401" y1="312.9883" y2="312.9883"/><text fill="#000000" font-family="sans-serif" font-size="13" font-weight="bold" lengthAdjust="spacing" textLength="7.23" x="520.498" y="307.7256">6</text><text fill="#000000" font-family="sans-serif" font-size="13" lengthAdjust="spacing" textLength="58.5317" x="531.728" y="307.7256">stationList</text><path d="M395.5088,327.9883 L467.9434,327.9883 L467.9434,337.2793 L457.9434,347.2793 L395.5088,347.2793 L395.5088,327.9883 " fill="#EEEEEE" style="stroke:#000000;stroke-width:1.5;"/><rect fill="none" height="762.3535" style="stroke:#000000;stroke-width:1.5;" width="1744.2856" x="395.5088" y="327.9883"/><text fill="#000000" font-family="sans-serif" font-size="13" font-weight="bold" lengthAdjust="spacing" textLength="27.4346" x="410.5088" y="343.0166">loop</text><text fill="#000000" font-family="sans-serif" font-size="11" font-weight="bold" lengthAdjust="spacing" textLength="160.73" x="482.9434" y="341.8584">[for each station in stationList]</text><polygon fill="#181818" points="1328.7764,366.5703,1338.7764,370.5703,1328.7764,374.5703,1332.7764,370.5703" style="stroke:#181818;stroke-width:1.0;"/><line style="stroke:#181818;stroke-width:1.0;" x1="503.498" x2="1334.7764" y1="370.5703" y2="370.5703"/><text fill="#000000" font-family="sans-serif" font-size="13" font-weight="bold" lengthAdjust="spacing" textLength="7.23" x="510.498" y="365.3076">7</text><text fill="#000000" font-family="sans-serif" font-size="13" lengthAdjust="spacing" textLength="193.6606" x="521.728" y="365.3076">generateCargoForStation(station)</text><polygon fill="#181818" points="514.498,397.8613,504.498,401.8613,514.498,405.8613,510.498,401.8613" style="stroke:#181818;stroke-width:1.0;"/><line style="stroke:#181818;stroke-width:1.0;stroke-dasharray:2.0,2.0;" x1="508.498" x2="1344.7764" y1="401.8613" y2="401.8613"/><text fill="#000000" font-family="sans-serif" font-size="13" font-weight="bold" lengthAdjust="spacing" textLength="7.23" x="520.498" y="396.5986">8</text><text fill="#000000" font-family="sans-serif" font-size="13" lengthAdjust="spacing" textLength="94.6563" x="531.728" y="396.5986">industryCargoes</text><polygon fill="#181818" points="1646.3994,429.1523,1656.3994,433.1523,1646.3994,437.1523,1650.3994,433.1523" style="stroke:#181818;stroke-width:1.0;"/><line style="stroke:#181818;stroke-width:1.0;" x1="503.498" x2="1652.3994" y1="433.1523" y2="433.1523"/><text fill="#000000" font-family="sans-serif" font-size="13" font-weight="bold" lengthAdjust="spacing" textLength="7.23" x="510.498" y="427.8896">9</text><text fill="#000000" font-family="sans-serif" font-size="13" lengthAdjust="spacing" textLength="193.6606" x="521.728" y="427.8896">generateCargoForStation(station)</text><polygon fill="#181818" points="514.498,460.4434,504.498,464.4434,514.498,468.4434,510.498,464.4434" style="stroke:#181818;stroke-width:1.0;"/><line style="stroke:#181818;stroke-width:1.0;stroke-dasharray:2.0,2.0;" x1="508.498" x2="1662.3994" y1="464.4434" y2="464.4434"/><text fill="#000000" font-family="sans-serif" font-size="13" font-weight="bold" lengthAdjust="spacing" textLength="14.46" x="520.498" y="459.1807">10</text><text fill="#000000" font-family="sans-serif" font-size="13" lengthAdjust="spacing" textLength="68.6372" x="538.958" y="459.1807">cityCargoes</text><polygon fill="#181818" points="1149.8457,491.7344,1159.8457,495.7344,1149.8457,499.7344,1153.8457,495.7344" style="stroke:#181818;stroke-width:1.0;"/><line style="stroke:#181818;stroke-width:1.0;" x1="503.498" x2="1155.8457" y1="495.7344" y2="495.7344"/><text fill="#000000" font-family="sans-serif" font-size="13" font-weight="bold" lengthAdjust="spacing" textLength="14.46" x="510.498" y="490.4717">11</text><text fill="#000000" font-family="sans-serif" font-size="13" lengthAdjust="spacing" textLength="174.1416" x="528.958" y="490.4717">addCargoes(industryCargoes)</text><path d="M1105.4839,510.7344 L1177.9185,510.7344 L1177.9185,520.0254 L1167.9185,530.0254 L1105.4839,530.0254 L1105.4839,510.7344 " fill="#EEEEEE" style="stroke:#000000;stroke-width:1.5;"/><rect fill="none" height="232.3672" style="stroke:#000000;stroke-width:1.5;" width="1024.3105" x="1105.4839" y="510.7344"/><text fill="#000000" font-family="sans-serif" font-size="13" font-weight="bold" lengthAdjust="spacing" textLength="27.4346" x="1120.4839" y="525.7627">loop</text><text fill="#000000" font-family="sans-serif" font-size="11" font-weight="bold" lengthAdjust="spacing" textLength="186.4253" x="1192.9185" y="524.6045">[for each cargo in industryCargoes]</text><polygon fill="#181818" points="1883.8159,549.3164,1893.8159,553.3164,1883.8159,557.3164,1887.8159,553.3164" style="stroke:#181818;stroke-width:1.0;"/><line style="stroke:#181818;stroke-width:1.0;" x1="1171.8457" x2="1889.8159" y1="553.3164" y2="553.3164"/><text fill="#000000" font-family="sans-serif" font-size="13" font-weight="bold" lengthAdjust="spacing" textLength="14.46" x="1178.8457" y="548.0537">12</text><text fill="#000000" font-family="sans-serif" font-size="13" lengthAdjust="spacing" textLength="130.7871" x="1197.3057" y="548.0537">create(/* cargo data */)</text><rect fill="#E3E3E3" height="32.6211" rx="2.5" ry="2.5" style="stroke:#181818;stroke-width:0.5;" width="91.041" x="1895.8159" y="530.0254"/><text fill="#000000" font-family="sans-serif" font-size="14" lengthAdjust="spacing" textLength="77.041" x="1902.8159" y="552.1328">cargo:Cargo</text><polygon fill="#181818" points="1924.3364,592.9375,1934.3364,596.9375,1924.3364,600.9375,1928.3364,596.9375" style="stroke:#181818;stroke-width:1.0;"/><line style="stroke:#181818;stroke-width:1.0;" x1="1171.8457" x2="1930.3364" y1="596.9375" y2="596.9375"/><text fill="#000000" font-family="sans-serif" font-size="13" font-weight="bold" lengthAdjust="spacing" textLength="14.46" x="1178.8457" y="591.6748">13</text><text fill="#000000" font-family="sans-serif" font-size="13" lengthAdjust="spacing" textLength="80.9263" x="1197.3057" y="591.6748">validateData()</text><polygon fill="#181818" points="1182.8457,624.2285,1172.8457,628.2285,1182.8457,632.2285,1178.8457,628.2285" style="stroke:#181818;stroke-width:1.0;"/><line style="stroke:#181818;stroke-width:1.0;stroke-dasharray:2.0,2.0;" x1="1176.8457" x2="1940.3364" y1="628.2285" y2="628.2285"/><text fill="#000000" font-family="sans-serif" font-size="13" font-weight="bold" lengthAdjust="spacing" textLength="14.46" x="1188.8457" y="622.9658">14</text><text fill="#000000" font-family="sans-serif" font-size="13" lengthAdjust="spacing" textLength="91.7744" x="1207.3057" y="622.9658">validationResult</text><polygon fill="#181818" points="2041.3257,655.5195,2051.3257,659.5195,2041.3257,663.5195,2045.3257,659.5195" style="stroke:#181818;stroke-width:1.0;"/><line style="stroke:#181818;stroke-width:1.0;" x1="1171.8457" x2="2047.3257" y1="659.5195" y2="659.5195"/><text fill="#000000" font-family="sans-serif" font-size="13" font-weight="bold" lengthAdjust="spacing" textLength="14.46" x="1178.8457" y="654.2568">15</text><text fill="#000000" font-family="sans-serif" font-size="13" lengthAdjust="spacing" textLength="104.0444" x="1197.3057" y="654.2568">saveCargo(cargo)</text><polygon fill="#181818" points="1182.8457,686.8105,1172.8457,690.8105,1182.8457,694.8105,1178.8457,690.8105" style="stroke:#181818;stroke-width:1.0;"/><line style="stroke:#181818;stroke-width:1.0;stroke-dasharray:2.0,2.0;" x1="1176.8457" x2="2057.3257" y1="690.8105" y2="690.8105"/><text fill="#000000" font-family="sans-serif" font-size="13" font-weight="bold" lengthAdjust="spacing" textLength="14.46" x="1188.8457" y="685.5479">16</text><text fill="#000000" font-family="sans-serif" font-size="13" lengthAdjust="spacing" textLength="70.0972" x="1207.3057" y="685.5479">savedCargo</text><line style="stroke:#181818;stroke-width:1.0;" x1="1171.8457" x2="1213.8457" y1="722.1016" y2="722.1016"/><line style="stroke:#181818;stroke-width:1.0;" x1="1213.8457" x2="1213.8457" y1="722.1016" y2="735.1016"/><line style="stroke:#181818;stroke-width:1.0;" x1="1172.8457" x2="1213.8457" y1="735.1016" y2="735.1016"/><polygon fill="#181818" points="1182.8457,731.1016,1172.8457,735.1016,1182.8457,739.1016,1178.8457,735.1016" style="stroke:#181818;stroke-width:1.0;"/><text fill="#000000" font-family="sans-serif" font-size="13" font-weight="bold" lengthAdjust="spacing" textLength="14.46" x="1178.8457" y="716.8389">17</text><text fill="#000000" font-family="sans-serif" font-size="13" lengthAdjust="spacing" textLength="126.4707" x="1197.3057" y="716.8389">updateStorage(cargo)</text><polygon fill="#181818" points="514.498,769.3926,504.498,773.3926,514.498,777.3926,510.498,773.3926" style="stroke:#181818;stroke-width:1.0;"/><line style="stroke:#181818;stroke-width:1.0;stroke-dasharray:2.0,2.0;" x1="508.498" x2="1165.8457" y1="773.3926" y2="773.3926"/><text fill="#000000" font-family="sans-serif" font-size="13" font-weight="bold" lengthAdjust="spacing" textLength="14.46" x="520.498" y="768.1299">18</text><text fill="#000000" font-family="sans-serif" font-size="13" lengthAdjust="spacing" textLength="131.5298" x="538.958" y="768.1299">addedIndustryCargoes</text><polygon fill="#181818" points="1149.8457,800.6836,1159.8457,804.6836,1149.8457,808.6836,1153.8457,804.6836" style="stroke:#181818;stroke-width:1.0;"/><line style="stroke:#181818;stroke-width:1.0;" x1="503.498" x2="1155.8457" y1="804.6836" y2="804.6836"/><text fill="#000000" font-family="sans-serif" font-size="13" font-weight="bold" lengthAdjust="spacing" textLength="14.46" x="510.498" y="799.4209">19</text><text fill="#000000" font-family="sans-serif" font-size="13" lengthAdjust="spacing" textLength="148.1226" x="528.958" y="799.4209">addCargoes(cityCargoes)</text><path d="M1105.4839,819.6836 L1177.9185,819.6836 L1177.9185,828.9746 L1167.9185,838.9746 L1105.4839,838.9746 L1105.4839,819.6836 " fill="#EEEEEE" style="stroke:#000000;stroke-width:1.5;"/><rect fill="none" height="232.3672" style="stroke:#000000;stroke-width:1.5;" width="1024.3105" x="1105.4839" y="819.6836"/><text fill="#000000" font-family="sans-serif" font-size="13" font-weight="bold" lengthAdjust="spacing" textLength="27.4346" x="1120.4839" y="834.7119">loop</text><text fill="#000000" font-family="sans-serif" font-size="11" font-weight="bold" lengthAdjust="spacing" textLength="161.9868" x="1192.9185" y="833.5537">[for each cargo in cityCargoes]</text><polygon fill="#181818" points="1883.8159,858.2656,1893.8159,862.2656,1883.8159,866.2656,1887.8159,862.2656" style="stroke:#181818;stroke-width:1.0;"/><line style="stroke:#181818;stroke-width:1.0;" x1="1171.8457" x2="1889.8159" y1="862.2656" y2="862.2656"/><text fill="#000000" font-family="sans-serif" font-size="13" font-weight="bold" lengthAdjust="spacing" textLength="14.46" x="1178.8457" y="857.0029">20</text><text fill="#000000" font-family="sans-serif" font-size="13" lengthAdjust="spacing" textLength="130.7871" x="1197.3057" y="857.0029">create(/* cargo data */)</text><rect fill="#E3E3E3" height="32.6211" rx="2.5" ry="2.5" style="stroke:#181818;stroke-width:0.5;" width="91.041" x="1895.8159" y="838.9746"/><text fill="#000000" font-family="sans-serif" font-size="14" lengthAdjust="spacing" textLength="77.041" x="1902.8159" y="861.082">cargo:Cargo</text><polygon fill="#181818" points="1924.3364,901.8867,1934.3364,905.8867,1924.3364,909.8867,1928.3364,905.8867" style="stroke:#181818;stroke-width:1.0;"/><line style="stroke:#181818;stroke-width:1.0;" x1="1171.8457" x2="1930.3364" y1="905.8867" y2="905.8867"/><text fill="#000000" font-family="sans-serif" font-size="13" font-weight="bold" lengthAdjust="spacing" textLength="14.46" x="1178.8457" y="900.624">21</text><text fill="#000000" font-family="sans-serif" font-size="13" lengthAdjust="spacing" textLength="80.9263" x="1197.3057" y="900.624">validateData()</text><polygon fill="#181818" points="1182.8457,933.1777,1172.8457,937.1777,1182.8457,941.1777,1178.8457,937.1777" style="stroke:#181818;stroke-width:1.0;"/><line style="stroke:#181818;stroke-width:1.0;stroke-dasharray:2.0,2.0;" x1="1176.8457" x2="1940.3364" y1="937.1777" y2="937.1777"/><text fill="#000000" font-family="sans-serif" font-size="13" font-weight="bold" lengthAdjust="spacing" textLength="14.46" x="1188.8457" y="931.915">22</text><text fill="#000000" font-family="sans-serif" font-size="13" lengthAdjust="spacing" textLength="91.7744" x="1207.3057" y="931.915">validationResult</text><polygon fill="#181818" points="2041.3257,964.4688,2051.3257,968.4688,2041.3257,972.4688,2045.3257,968.4688" style="stroke:#181818;stroke-width:1.0;"/><line style="stroke:#181818;stroke-width:1.0;" x1="1171.8457" x2="2047.3257" y1="968.4688" y2="968.4688"/><text fill="#000000" font-family="sans-serif" font-size="13" font-weight="bold" lengthAdjust="spacing" textLength="14.46" x="1178.8457" y="963.2061">23</text><text fill="#000000" font-family="sans-serif" font-size="13" lengthAdjust="spacing" textLength="104.0444" x="1197.3057" y="963.2061">saveCargo(cargo)</text><polygon fill="#181818" points="1182.8457,995.7598,1172.8457,999.7598,1182.8457,1003.7598,1178.8457,999.7598" style="stroke:#181818;stroke-width:1.0;"/><line style="stroke:#181818;stroke-width:1.0;stroke-dasharray:2.0,2.0;" x1="1176.8457" x2="2057.3257" y1="999.7598" y2="999.7598"/><text fill="#000000" font-family="sans-serif" font-size="13" font-weight="bold" lengthAdjust="spacing" textLength="14.46" x="1188.8457" y="994.4971">24</text><text fill="#000000" font-family="sans-serif" font-size="13" lengthAdjust="spacing" textLength="70.0972" x="1207.3057" y="994.4971">savedCargo</text><line style="stroke:#181818;stroke-width:1.0;" x1="1171.8457" x2="1213.8457" y1="1031.0508" y2="1031.0508"/><line style="stroke:#181818;stroke-width:1.0;" x1="1213.8457" x2="1213.8457" y1="1031.0508" y2="1044.0508"/><line style="stroke:#181818;stroke-width:1.0;" x1="1172.8457" x2="1213.8457" y1="1044.0508" y2="1044.0508"/><polygon fill="#181818" points="1182.8457,1040.0508,1172.8457,1044.0508,1182.8457,1048.0508,1178.8457,1044.0508" style="stroke:#181818;stroke-width:1.0;"/><text fill="#000000" font-family="sans-serif" font-size="13" font-weight="bold" lengthAdjust="spacing" textLength="14.46" x="1178.8457" y="1025.7881">25</text><text fill="#000000" font-family="sans-serif" font-size="13" lengthAdjust="spacing" textLength="126.4707" x="1197.3057" y="1025.7881">updateStorage(cargo)</text><polygon fill="#181818" points="514.498,1078.3418,504.498,1082.3418,514.498,1086.3418,510.498,1082.3418" style="stroke:#181818;stroke-width:1.0;"/><line style="stroke:#181818;stroke-width:1.0;stroke-dasharray:2.0,2.0;" x1="508.498" x2="1165.8457" y1="1082.3418" y2="1082.3418"/><text fill="#000000" font-family="sans-serif" font-size="13" font-weight="bold" lengthAdjust="spacing" textLength="14.46" x="520.498" y="1077.0791">26</text><text fill="#000000" font-family="sans-serif" font-size="13" lengthAdjust="spacing" textLength="107.6753" x="538.958" y="1077.0791">addedCityCargoes</text><polygon fill="#181818" points="2199.1597,1116.6328,2209.1597,1120.6328,2199.1597,1124.6328,2203.1597,1120.6328" style="stroke:#181818;stroke-width:1.0;"/><line style="stroke:#181818;stroke-width:1.0;" x1="503.498" x2="2205.1597" y1="1120.6328" y2="1120.6328"/><text fill="#000000" font-family="sans-serif" font-size="13" font-weight="bold" lengthAdjust="spacing" textLength="14.46" x="510.498" y="1115.3701">27</text><text fill="#000000" font-family="sans-serif" font-size="13" lengthAdjust="spacing" textLength="111.979" x="528.958" y="1115.3701">calculateStatistics()</text><polygon fill="#181818" points="514.498,1147.9238,504.498,1151.9238,514.498,1155.9238,510.498,1151.9238" style="stroke:#181818;stroke-width:1.0;"/><line style="stroke:#181818;stroke-width:1.0;stroke-dasharray:2.0,2.0;" x1="508.498" x2="2215.1597" y1="1151.9238" y2="1151.9238"/><text fill="#000000" font-family="sans-serif" font-size="13" font-weight="bold" lengthAdjust="spacing" textLength="14.46" x="520.498" y="1146.6611">28</text><text fill="#000000" font-family="sans-serif" font-size="13" lengthAdjust="spacing" textLength="27.4536" x="538.958" y="1146.6611">stats</text><polygon fill="#181818" points="340.5991,1179.2148,330.5991,1183.2148,340.5991,1187.2148,336.5991,1183.2148" style="stroke:#181818;stroke-width:1.0;"/><line style="stroke:#181818;stroke-width:1.0;stroke-dasharray:2.0,2.0;" x1="334.5991" x2="497.498" y1="1183.2148" y2="1183.2148"/><text fill="#000000" font-family="sans-serif" font-size="13" font-weight="bold" lengthAdjust="spacing" textLength="14.46" x="346.5991" y="1177.9521">29</text><text fill="#000000" font-family="sans-serif" font-size="13" lengthAdjust="spacing" textLength="81.6372" x="365.0591" y="1177.9521">success, stats</text><polygon fill="#181818" points="38.8413,1210.5059,28.8413,1214.5059,38.8413,1218.5059,34.8413,1214.5059" style="stroke:#181818;stroke-width:1.0;"/><line style="stroke:#181818;stroke-width:1.0;stroke-dasharray:2.0,2.0;" x1="32.8413" x2="323.5991" y1="1214.5059" y2="1214.5059"/><text fill="#000000" font-family="sans-serif" font-size="13" font-weight="bold" lengthAdjust="spacing" textLength="14.46" x="44.8413" y="1209.2432">30</text><text fill="#000000" font-family="sans-serif" font-size="13" lengthAdjust="spacing" textLength="234.1143" x="63.3013" y="1209.2432">displays operation success and statistics</text><!--SRC=[xLPHRzem47xFhpZr2T1GjJsYgH82MaLhoqJef3rDRkAcLetDR8U9Vx-p7H8d91dJjBVw0H7uxhlxpdUNqszCx8aYEzX98TDN9NSKZ2fefAj_zYHz8pbDp95JK3GrHEGy1EXNaibVJEJmGhYcKMIOGMX2VnPKf1IMZEGMDqgMOvZ2K_Bn4znHGHKn51P4vP9gc1T6xeXXAU7yYAZRWlCe8lYhA7RFLE7tr4W5L_DinyGL43HPFiIF4SQ0LcnFX86hcQChoPaKJx53FiN3i8KKHadEgNBmnNPptp98sAxW3fjGTM0fTS0aVaXMcs_nOjM66uVTqBtK3CC-UlXsletNZvlLrtKJhptydcapin-VI_kRqEm-JhQTPYTl8RWLJoooGXjr38EF7vUTmRCIMzwC3yWzt9piVYpccxlrAcbdbPc6XqMy_Txf8aLW7xqrwkPFBSXVdKTQKDV5jjBkSET9zzWbkbVikMXVxHAptHcxJRhsjZRlkifwuagK7MnL-zAC08_x2jCRB4AOOVzWKsYZmKX09cN0gOAygaNGLQav-ueJYnZAWrH8QCiKAHrDgw17umfRsRkgXk0uU-IfgnZPKYbUM5ueMbVyw7e2hjCrJAx73OgAFEW4Q9s0Vbf7xVsilpJW6UqYx0wwxYLaowcPSrxsWHxr1HdqtrcK0T-qaTnJP_P66h0sC5pAFRpWp4Biwua9cEWb3VNLtUda-MdfRlbMgbBeg2GQdx5KmGLD3Xqdy1A8Ras0Cyj0VC3VAoKO0_-a9HmdNM92Fs6brSDcI4d8tYkbl6ja9LbMaevQwHfGS1hENT4tgyLF1IR-U1Uj-dNvjlDkCh7I5KMtjdyzNqOCEUlX8HRaE13Eq8ukqNRKRrddqKrb63YUUTf8P-d5lJDrmKqlGNXZWvxQKif9eSd1bzx8fUHIGPqpuqnKDJrgOTQVhvIB9Gtw2cJLJegzlQ44ttYug0q9eoAB1bdhji42frby-IGurVRVzKxGd1qH_qlZ3BNzUzEyDyt_Qvh5PI-ShfgshZhNdM0TjILAU6gNC-fUdXgNqzwT9znZsy64fAsTH_TjEo5VHwIdFLSNQKgr_j0Y2s_DhgEDZHPj_R8yWupfFIT73N9VhSMU4OZ8_0BbP4SjLboIe-3Hx-6_0G00]--></g></svg>