<svg xmlns="http://www.w3.org/2000/svg" xmlns:xlink="http://www.w3.org/1999/xlink" contentStyleType="text/css" height="1177px" preserveAspectRatio="none" style="width:1366px;height:1177px;background:#FFFFFF;" version="1.1" viewBox="0 0 1366 1177" width="1366px" zoomAndPan="magnify"><title>US12 - Class Diagram - Generate Cargoes Automatically</title><defs/><g><text fill="#000000" font-family="sans-serif" font-size="14" font-weight="bold" lengthAdjust="spacing" textLength="373.4678" x="489.7515" y="25.1074">US12 - Class Diagram - Generate Cargoes Automatically</text><!--class CargoGenerationUI--><g id="elem_CargoGenerationUI"><rect codeLine="7" fill="#F1F1F1" height="66.6211" id="CargoGenerationUI" rx="2.5" ry="2.5" style="stroke:#181818;stroke-width:0.5;" width="203.4131" x="504.5" y="46.6211"/><ellipse cx="542.0062" cy="62.6211" fill="#C2C2C2" rx="11" ry="11" style="stroke:#181818;stroke-width:1.0;"/><path d="M544.7718,58.4961 Q544.928,58.2773 545.1155,58.168 Q545.303,58.0586 545.5218,58.0586 Q545.8968,58.0586 546.1312,58.3242 Q546.3655,58.5742 546.3655,59.1836 L546.3655,60.6367 Q546.3655,61.2461 546.1312,61.5117 Q545.8968,61.7773 545.5218,61.7773 Q545.178,61.7773 544.9749,61.5742 Q544.7718,61.3867 544.6624,60.8711 Q544.6155,60.5117 544.428,60.3242 Q544.0999,59.9492 543.4905,59.7305 Q542.8812,59.5117 542.2562,59.5117 Q541.4905,59.5117 540.8499,59.8398 Q540.2249,60.168 539.7249,60.918 Q539.2405,61.668 539.2405,62.6992 L539.2405,63.793 Q539.2405,65.0273 540.1312,65.8555 Q541.0218,66.668 542.6155,66.668 Q543.553,66.668 544.2093,66.418 Q544.5999,66.2617 545.0218,65.8242 Q545.2874,65.5586 545.428,65.4805 Q545.5843,65.4023 545.7874,65.4023 Q546.1155,65.4023 546.3655,65.668 Q546.6312,65.918 546.6312,66.2617 Q546.6312,66.6055 546.2874,67.0117 Q545.7874,67.5898 544.9905,67.918 Q543.9124,68.3711 542.6155,68.3711 Q541.0999,68.3711 539.8968,67.7461 Q538.9124,67.2461 538.2249,66.1836 Q537.5374,65.1055 537.5374,63.8242 L537.5374,62.668 Q537.5374,61.3398 538.1468,60.1992 Q538.7718,59.043 539.8655,58.4336 Q540.9593,57.8086 542.1937,57.8086 Q542.928,57.8086 543.5687,57.9805 Q544.2249,58.1367 544.7718,58.4961 Z " fill="#000000"/><text fill="#000000" font-family="sans-serif" font-size="14" lengthAdjust="spacing" textLength="121.3994" x="561.0075" y="68.418">CargoGenerationUI</text><line style="stroke:#181818;stroke-width:0.5;" x1="505.5" x2="706.9131" y1="78.6211" y2="78.6211"/><line style="stroke:#181818;stroke-width:0.5;" x1="505.5" x2="706.9131" y1="86.6211" y2="86.6211"/><ellipse cx="515.5" cy="101.4316" fill="#A6A6A6" rx="3" ry="3" style="stroke:#545454;stroke-width:1.0;"/><text fill="#000000" font-family="sans-serif" font-size="14" lengthAdjust="spacing" textLength="177.4131" x="524.5" y="105.7285">startCargoGeneration(): void</text></g><!--class CargoGenerationController--><g id="elem_CargoGenerationController"><rect codeLine="11" fill="#F1F1F1" height="66.6211" id="CargoGenerationController" rx="2.5" ry="2.5" style="stroke:#181818;stroke-width:0.5;" width="203.4131" x="504.5" y="174.6211"/><ellipse cx="520.9959" cy="190.6211" fill="#C2C2C2" rx="11" ry="11" style="stroke:#181818;stroke-width:1.0;"/><path d="M523.7615,186.4961 Q523.9178,186.2773 524.1053,186.168 Q524.2928,186.0586 524.5115,186.0586 Q524.8865,186.0586 525.1209,186.3242 Q525.3553,186.5742 525.3553,187.1836 L525.3553,188.6367 Q525.3553,189.2461 525.1209,189.5117 Q524.8865,189.7773 524.5115,189.7773 Q524.1678,189.7773 523.9646,189.5742 Q523.7615,189.3867 523.6521,188.8711 Q523.6053,188.5117 523.4178,188.3242 Q523.0896,187.9492 522.4803,187.7305 Q521.8709,187.5117 521.2459,187.5117 Q520.4803,187.5117 519.8396,187.8398 Q519.2146,188.168 518.7146,188.918 Q518.2303,189.668 518.2303,190.6992 L518.2303,191.793 Q518.2303,193.0273 519.1209,193.8555 Q520.0115,194.668 521.6053,194.668 Q522.5428,194.668 523.199,194.418 Q523.5896,194.2617 524.0115,193.8242 Q524.2771,193.5586 524.4178,193.4805 Q524.574,193.4023 524.7771,193.4023 Q525.1053,193.4023 525.3553,193.668 Q525.6209,193.918 525.6209,194.2617 Q525.6209,194.6055 525.2771,195.0117 Q524.7771,195.5898 523.9803,195.918 Q522.9021,196.3711 521.6053,196.3711 Q520.0896,196.3711 518.8865,195.7461 Q517.9021,195.2461 517.2146,194.1836 Q516.5271,193.1055 516.5271,191.8242 L516.5271,190.668 Q516.5271,189.3398 517.1365,188.1992 Q517.7615,187.043 518.8553,186.4336 Q519.949,185.8086 521.1834,185.8086 Q521.9178,185.8086 522.5584,185.9805 Q523.2146,186.1367 523.7615,186.4961 Z " fill="#000000"/><text fill="#000000" font-family="sans-serif" font-size="14" lengthAdjust="spacing" textLength="168.0889" x="535.3283" y="196.418">CargoGenerationController</text><line style="stroke:#181818;stroke-width:0.5;" x1="505.5" x2="706.9131" y1="206.6211" y2="206.6211"/><line style="stroke:#181818;stroke-width:0.5;" x1="505.5" x2="706.9131" y1="214.6211" y2="214.6211"/><ellipse cx="515.5" cy="229.4316" fill="#A6A6A6" rx="3" ry="3" style="stroke:#545454;stroke-width:1.0;"/><text fill="#000000" font-family="sans-serif" font-size="14" lengthAdjust="spacing" textLength="177.4131" x="524.5" y="233.7285">startCargoGeneration(): void</text></g><!--class SimulationService--><g id="elem_SimulationService"><rect codeLine="15" fill="#F1F1F1" height="66.6211" id="SimulationService" rx="2.5" ry="2.5" style="stroke:#181818;stroke-width:0.5;" width="191.7441" x="7" y="367.6211"/><ellipse cx="43.4633" cy="383.6211" fill="#C2C2C2" rx="11" ry="11" style="stroke:#181818;stroke-width:1.0;"/><path d="M46.229,379.4961 Q46.3852,379.2773 46.5727,379.168 Q46.7602,379.0586 46.979,379.0586 Q47.354,379.0586 47.5883,379.3242 Q47.8227,379.5742 47.8227,380.1836 L47.8227,381.6367 Q47.8227,382.2461 47.5883,382.5117 Q47.354,382.7773 46.979,382.7773 Q46.6352,382.7773 46.4321,382.5742 Q46.229,382.3867 46.1196,381.8711 Q46.0727,381.5117 45.8852,381.3242 Q45.5571,380.9492 44.9477,380.7305 Q44.3383,380.5117 43.7133,380.5117 Q42.9477,380.5117 42.3071,380.8398 Q41.6821,381.168 41.1821,381.918 Q40.6977,382.668 40.6977,383.6992 L40.6977,384.793 Q40.6977,386.0273 41.5883,386.8555 Q42.479,387.668 44.0727,387.668 Q45.0102,387.668 45.6665,387.418 Q46.0571,387.2617 46.479,386.8242 Q46.7446,386.5586 46.8852,386.4805 Q47.0415,386.4023 47.2446,386.4023 Q47.5727,386.4023 47.8227,386.668 Q48.0883,386.918 48.0883,387.2617 Q48.0883,387.6055 47.7446,388.0117 Q47.2446,388.5898 46.4477,388.918 Q45.3696,389.3711 44.0727,389.3711 Q42.5571,389.3711 41.354,388.7461 Q40.3696,388.2461 39.6821,387.1836 Q38.9946,386.1055 38.9946,384.8242 L38.9946,383.668 Q38.9946,382.3398 39.604,381.1992 Q40.229,380.043 41.3227,379.4336 Q42.4165,378.8086 43.6508,378.8086 Q44.3852,378.8086 45.0258,378.9805 Q45.6821,379.1367 46.229,379.4961 Z " fill="#000000"/><text fill="#000000" font-family="sans-serif" font-size="14" lengthAdjust="spacing" textLength="112.0479" x="62.233" y="389.418">SimulationService</text><line style="stroke:#181818;stroke-width:0.5;" x1="8" x2="197.7441" y1="399.6211" y2="399.6211"/><line style="stroke:#181818;stroke-width:0.5;" x1="8" x2="197.7441" y1="407.6211" y2="407.6211"/><ellipse cx="18" cy="422.4316" fill="#A6A6A6" rx="3" ry="3" style="stroke:#545454;stroke-width:1.0;"/><text fill="#000000" font-family="sans-serif" font-size="14" lengthAdjust="spacing" textLength="165.7441" x="27" y="426.7285">configureSimulation(): void</text></g><!--class StationRepository--><g id="elem_StationRepository"><rect codeLine="19" fill="#F1F1F1" height="66.6211" id="StationRepository" rx="2.5" ry="2.5" style="stroke:#181818;stroke-width:0.5;" width="210.4336" x="234" y="367.6211"/><ellipse cx="279.7153" cy="383.6211" fill="#C2C2C2" rx="11" ry="11" style="stroke:#181818;stroke-width:1.0;"/><path d="M282.481,379.4961 Q282.6372,379.2773 282.8247,379.168 Q283.0122,379.0586 283.231,379.0586 Q283.606,379.0586 283.8403,379.3242 Q284.0747,379.5742 284.0747,380.1836 L284.0747,381.6367 Q284.0747,382.2461 283.8403,382.5117 Q283.606,382.7773 283.231,382.7773 Q282.8872,382.7773 282.6841,382.5742 Q282.481,382.3867 282.3716,381.8711 Q282.3247,381.5117 282.1372,381.3242 Q281.8091,380.9492 281.1997,380.7305 Q280.5903,380.5117 279.9653,380.5117 Q279.1997,380.5117 278.5591,380.8398 Q277.9341,381.168 277.4341,381.918 Q276.9497,382.668 276.9497,383.6992 L276.9497,384.793 Q276.9497,386.0273 277.8403,386.8555 Q278.731,387.668 280.3247,387.668 Q281.2622,387.668 281.9185,387.418 Q282.3091,387.2617 282.731,386.8242 Q282.9966,386.5586 283.1372,386.4805 Q283.2935,386.4023 283.4966,386.4023 Q283.8247,386.4023 284.0747,386.668 Q284.3403,386.918 284.3403,387.2617 Q284.3403,387.6055 283.9966,388.0117 Q283.4966,388.5898 282.6997,388.918 Q281.6216,389.3711 280.3247,389.3711 Q278.8091,389.3711 277.606,388.7461 Q276.6216,388.2461 275.9341,387.1836 Q275.2466,386.1055 275.2466,384.8242 L275.2466,383.668 Q275.2466,382.3398 275.856,381.1992 Q276.481,380.043 277.5747,379.4336 Q278.6685,378.8086 279.9028,378.8086 Q280.6372,378.8086 281.2778,378.9805 Q281.9341,379.1367 282.481,379.4961 Z " fill="#000000"/><text fill="#000000" font-family="sans-serif" font-size="14" lengthAdjust="spacing" textLength="110.5029" x="300.2153" y="389.418">StationRepository</text><line style="stroke:#181818;stroke-width:0.5;" x1="235" x2="443.4336" y1="399.6211" y2="399.6211"/><line style="stroke:#181818;stroke-width:0.5;" x1="235" x2="443.4336" y1="407.6211" y2="407.6211"/><ellipse cx="245" cy="422.4316" fill="#A6A6A6" rx="3" ry="3" style="stroke:#545454;stroke-width:1.0;"/><text fill="#000000" font-family="sans-serif" font-size="14" lengthAdjust="spacing" textLength="184.4336" x="254" y="426.7285">getAllStations(): List&lt;Station&gt;</text></g><!--class IndustryService--><g id="elem_IndustryService"><rect codeLine="23" fill="#F1F1F1" height="66.6211" id="IndustryService" rx="2.5" ry="2.5" style="stroke:#181818;stroke-width:0.5;" width="369.9707" x="531" y="529.6211"/><ellipse cx="663.4941" cy="545.6211" fill="#C2C2C2" rx="11" ry="11" style="stroke:#181818;stroke-width:1.0;"/><path d="M666.2598,541.4961 Q666.416,541.2773 666.6035,541.168 Q666.791,541.0586 667.0098,541.0586 Q667.3848,541.0586 667.6191,541.3242 Q667.8535,541.5742 667.8535,542.1836 L667.8535,543.6367 Q667.8535,544.2461 667.6191,544.5117 Q667.3848,544.7773 667.0098,544.7773 Q666.666,544.7773 666.4629,544.5742 Q666.2598,544.3867 666.1504,543.8711 Q666.1035,543.5117 665.916,543.3242 Q665.5879,542.9492 664.9785,542.7305 Q664.3691,542.5117 663.7441,542.5117 Q662.9785,542.5117 662.3379,542.8398 Q661.7129,543.168 661.2129,543.918 Q660.7285,544.668 660.7285,545.6992 L660.7285,546.793 Q660.7285,548.0273 661.6191,548.8555 Q662.5098,549.668 664.1035,549.668 Q665.041,549.668 665.6973,549.418 Q666.0879,549.2617 666.5098,548.8242 Q666.7754,548.5586 666.916,548.4805 Q667.0723,548.4023 667.2754,548.4023 Q667.6035,548.4023 667.8535,548.668 Q668.1191,548.918 668.1191,549.2617 Q668.1191,549.6055 667.7754,550.0117 Q667.2754,550.5898 666.4785,550.918 Q665.4004,551.3711 664.1035,551.3711 Q662.5879,551.3711 661.3848,550.7461 Q660.4004,550.2461 659.7129,549.1836 Q659.0254,548.1055 659.0254,546.8242 L659.0254,545.668 Q659.0254,544.3398 659.6348,543.1992 Q660.2598,542.043 661.3535,541.4336 Q662.4473,540.8086 663.6816,540.8086 Q664.416,540.8086 665.0566,540.9805 Q665.7129,541.1367 666.2598,541.4961 Z " fill="#000000"/><text fill="#000000" font-family="sans-serif" font-size="14" lengthAdjust="spacing" textLength="96.4824" x="683.9941" y="551.418">IndustryService</text><line style="stroke:#181818;stroke-width:0.5;" x1="532" x2="899.9707" y1="561.6211" y2="561.6211"/><line style="stroke:#181818;stroke-width:0.5;" x1="532" x2="899.9707" y1="569.6211" y2="569.6211"/><ellipse cx="542" cy="584.4316" fill="#A6A6A6" rx="3" ry="3" style="stroke:#545454;stroke-width:1.0;"/><text fill="#000000" font-family="sans-serif" font-size="14" lengthAdjust="spacing" textLength="343.9707" x="551" y="588.7285">generateCargoForStation(station: Station): List&lt;Cargo&gt;</text></g><!--class CityService--><g id="elem_CityService"><rect codeLine="27" fill="#F1F1F1" height="66.6211" id="CityService" rx="2.5" ry="2.5" style="stroke:#181818;stroke-width:0.5;" width="369.9707" x="990" y="529.6211"/><ellipse cx="1135.3389" cy="545.6211" fill="#C2C2C2" rx="11" ry="11" style="stroke:#181818;stroke-width:1.0;"/><path d="M1138.1045,541.4961 Q1138.2607,541.2773 1138.4482,541.168 Q1138.6357,541.0586 1138.8545,541.0586 Q1139.2295,541.0586 1139.4639,541.3242 Q1139.6982,541.5742 1139.6982,542.1836 L1139.6982,543.6367 Q1139.6982,544.2461 1139.4639,544.5117 Q1139.2295,544.7773 1138.8545,544.7773 Q1138.5107,544.7773 1138.3076,544.5742 Q1138.1045,544.3867 1137.9951,543.8711 Q1137.9482,543.5117 1137.7607,543.3242 Q1137.4326,542.9492 1136.8232,542.7305 Q1136.2139,542.5117 1135.5889,542.5117 Q1134.8232,542.5117 1134.1826,542.8398 Q1133.5576,543.168 1133.0576,543.918 Q1132.5732,544.668 1132.5732,545.6992 L1132.5732,546.793 Q1132.5732,548.0273 1133.4639,548.8555 Q1134.3545,549.668 1135.9482,549.668 Q1136.8857,549.668 1137.542,549.418 Q1137.9326,549.2617 1138.3545,548.8242 Q1138.6201,548.5586 1138.7607,548.4805 Q1138.917,548.4023 1139.1201,548.4023 Q1139.4482,548.4023 1139.6982,548.668 Q1139.9639,548.918 1139.9639,549.2617 Q1139.9639,549.6055 1139.6201,550.0117 Q1139.1201,550.5898 1138.3232,550.918 Q1137.2451,551.3711 1135.9482,551.3711 Q1134.4326,551.3711 1133.2295,550.7461 Q1132.2451,550.2461 1131.5576,549.1836 Q1130.8701,548.1055 1130.8701,546.8242 L1130.8701,545.668 Q1130.8701,544.3398 1131.4795,543.1992 Q1132.1045,542.043 1133.1982,541.4336 Q1134.292,540.8086 1135.5264,540.8086 Q1136.2607,540.8086 1136.9014,540.9805 Q1137.5576,541.1367 1138.1045,541.4961 Z " fill="#000000"/><text fill="#000000" font-family="sans-serif" font-size="14" lengthAdjust="spacing" textLength="70.793" x="1155.8389" y="551.418">CityService</text><line style="stroke:#181818;stroke-width:0.5;" x1="991" x2="1358.9707" y1="561.6211" y2="561.6211"/><line style="stroke:#181818;stroke-width:0.5;" x1="991" x2="1358.9707" y1="569.6211" y2="569.6211"/><ellipse cx="1001" cy="584.4316" fill="#A6A6A6" rx="3" ry="3" style="stroke:#545454;stroke-width:1.0;"/><text fill="#000000" font-family="sans-serif" font-size="14" lengthAdjust="spacing" textLength="343.9707" x="1010" y="588.7285">generateCargoForStation(station: Station): List&lt;Cargo&gt;</text></g><!--class Station--><g id="elem_Station"><rect codeLine="31" fill="#F1F1F1" height="122.4844" id="Station" rx="2.5" ry="2.5" style="stroke:#181818;stroke-width:0.5;" width="206.5371" x="394.5" y="626.6211"/><ellipse cx="471.7256" cy="642.6211" fill="#C2C2C2" rx="11" ry="11" style="stroke:#181818;stroke-width:1.0;"/><path d="M474.4912,638.4961 Q474.6475,638.2773 474.835,638.168 Q475.0225,638.0586 475.2412,638.0586 Q475.6162,638.0586 475.8506,638.3242 Q476.085,638.5742 476.085,639.1836 L476.085,640.6367 Q476.085,641.2461 475.8506,641.5117 Q475.6162,641.7773 475.2412,641.7773 Q474.8975,641.7773 474.6943,641.5742 Q474.4912,641.3867 474.3818,640.8711 Q474.335,640.5117 474.1475,640.3242 Q473.8193,639.9492 473.21,639.7305 Q472.6006,639.5117 471.9756,639.5117 Q471.21,639.5117 470.5693,639.8398 Q469.9443,640.168 469.4443,640.918 Q468.96,641.668 468.96,642.6992 L468.96,643.793 Q468.96,645.0273 469.8506,645.8555 Q470.7412,646.668 472.335,646.668 Q473.2725,646.668 473.9287,646.418 Q474.3193,646.2617 474.7412,645.8242 Q475.0068,645.5586 475.1475,645.4805 Q475.3037,645.4023 475.5068,645.4023 Q475.835,645.4023 476.085,645.668 Q476.3506,645.918 476.3506,646.2617 Q476.3506,646.6055 476.0068,647.0117 Q475.5068,647.5898 474.71,647.918 Q473.6318,648.3711 472.335,648.3711 Q470.8193,648.3711 469.6162,647.7461 Q468.6318,647.2461 467.9443,646.1836 Q467.2568,645.1055 467.2568,643.8242 L467.2568,642.668 Q467.2568,641.3398 467.8662,640.1992 Q468.4912,639.043 469.585,638.4336 Q470.6787,637.8086 471.9131,637.8086 Q472.6475,637.8086 473.2881,637.9805 Q473.9443,638.1367 474.4912,638.4961 Z " fill="#000000"/><text fill="#000000" font-family="sans-serif" font-size="14" lengthAdjust="spacing" textLength="43.5859" x="492.2256" y="648.418">Station</text><line style="stroke:#181818;stroke-width:0.5;" x1="395.5" x2="600.0371" y1="658.6211" y2="658.6211"/><rect fill="none" height="6" style="stroke:#595959;stroke-width:1.0;" width="6" x="402.5" y="670.4316"/><text fill="#000000" font-family="sans-serif" font-size="14" lengthAdjust="spacing" textLength="79.3721" x="414.5" y="677.7285">name: String</text><rect fill="none" height="6" style="stroke:#595959;stroke-width:1.0;" width="6" x="402.5" y="689.0527"/><text fill="#000000" font-family="sans-serif" font-size="14" lengthAdjust="spacing" textLength="96.4961" x="414.5" y="696.3496">location: Object</text><rect fill="none" height="6" style="stroke:#595959;stroke-width:1.0;" width="6" x="402.5" y="707.6738"/><text fill="#000000" font-family="sans-serif" font-size="14" lengthAdjust="spacing" textLength="150.9854" x="414.5" y="714.9707">storageCapacity: double</text><rect fill="none" height="6" style="stroke:#595959;stroke-width:1.0;" width="6" x="402.5" y="726.2949"/><text fill="#000000" font-family="sans-serif" font-size="14" lengthAdjust="spacing" textLength="180.5371" x="414.5" y="733.5918">currentCargoes: List&lt;Cargo&gt;</text><line style="stroke:#181818;stroke-width:0.5;" x1="395.5" x2="600.0371" y1="741.1055" y2="741.1055"/></g><!--class Cargo--><g id="elem_Cargo"><rect codeLine="38" fill="#F1F1F1" height="141.1055" id="Cargo" rx="2.5" ry="2.5" style="stroke:#181818;stroke-width:0.5;" width="170.7578" x="322.5" y="1029.6211"/><ellipse cx="384.5635" cy="1045.6211" fill="#C2C2C2" rx="11" ry="11" style="stroke:#181818;stroke-width:1.0;"/><path d="M387.3291,1041.4961 Q387.4854,1041.2773 387.6729,1041.168 Q387.8604,1041.0586 388.0791,1041.0586 Q388.4541,1041.0586 388.6885,1041.3242 Q388.9229,1041.5742 388.9229,1042.1836 L388.9229,1043.6367 Q388.9229,1044.2461 388.6885,1044.5117 Q388.4541,1044.7773 388.0791,1044.7773 Q387.7354,1044.7773 387.5322,1044.5742 Q387.3291,1044.3867 387.2197,1043.8711 Q387.1729,1043.5117 386.9854,1043.3242 Q386.6572,1042.9492 386.0479,1042.7305 Q385.4385,1042.5117 384.8135,1042.5117 Q384.0479,1042.5117 383.4072,1042.8398 Q382.7822,1043.168 382.2822,1043.918 Q381.7979,1044.668 381.7979,1045.6992 L381.7979,1046.793 Q381.7979,1048.0273 382.6885,1048.8555 Q383.5791,1049.668 385.1729,1049.668 Q386.1104,1049.668 386.7666,1049.418 Q387.1572,1049.2617 387.5791,1048.8242 Q387.8447,1048.5586 387.9854,1048.4805 Q388.1416,1048.4023 388.3447,1048.4023 Q388.6729,1048.4023 388.9229,1048.668 Q389.1885,1048.918 389.1885,1049.2617 Q389.1885,1049.6055 388.8447,1050.0117 Q388.3447,1050.5898 387.5479,1050.918 Q386.4697,1051.3711 385.1729,1051.3711 Q383.6572,1051.3711 382.4541,1050.7461 Q381.4697,1050.2461 380.7822,1049.1836 Q380.0947,1048.1055 380.0947,1046.8242 L380.0947,1045.668 Q380.0947,1044.3398 380.7041,1043.1992 Q381.3291,1042.043 382.4229,1041.4336 Q383.5166,1040.8086 384.751,1040.8086 Q385.4854,1040.8086 386.126,1040.9805 Q386.7822,1041.1367 387.3291,1041.4961 Z " fill="#000000"/><text fill="#000000" font-family="sans-serif" font-size="14" lengthAdjust="spacing" textLength="38.1309" x="405.0635" y="1051.418">Cargo</text><line style="stroke:#181818;stroke-width:0.5;" x1="323.5" x2="492.2578" y1="1061.6211" y2="1061.6211"/><rect fill="none" height="6" style="stroke:#595959;stroke-width:1.0;" width="6" x="330.5" y="1073.4316"/><text fill="#000000" font-family="sans-serif" font-size="14" lengthAdjust="spacing" textLength="70.8135" x="342.5" y="1080.7285">type: String</text><rect fill="none" height="6" style="stroke:#595959;stroke-width:1.0;" width="6" x="330.5" y="1092.0527"/><text fill="#000000" font-family="sans-serif" font-size="14" lengthAdjust="spacing" textLength="85.6064" x="342.5" y="1099.3496">origin: Station</text><rect fill="none" height="6" style="stroke:#595959;stroke-width:1.0;" width="6" x="330.5" y="1110.6738"/><text fill="#000000" font-family="sans-serif" font-size="14" lengthAdjust="spacing" textLength="119.082" x="342.5" y="1117.9707">destination: Station</text><rect fill="none" height="6" style="stroke:#595959;stroke-width:1.0;" width="6" x="330.5" y="1129.2949"/><text fill="#000000" font-family="sans-serif" font-size="14" lengthAdjust="spacing" textLength="98.8545" x="342.5" y="1136.5918">quantity: double</text><line style="stroke:#181818;stroke-width:0.5;" x1="323.5" x2="492.2578" y1="1144.1055" y2="1144.1055"/><ellipse cx="333.5" cy="1158.916" fill="#A6A6A6" rx="3" ry="3" style="stroke:#545454;stroke-width:1.0;"/><text fill="#000000" font-family="sans-serif" font-size="14" lengthAdjust="spacing" textLength="144.7578" x="342.5" y="1163.2129">validateData(): boolean</text></g><!--class CargoRepository--><g id="elem_CargoRepository"><rect codeLine="46" fill="#F1F1F1" height="66.6211" id="CargoRepository" rx="2.5" ry="2.5" style="stroke:#181818;stroke-width:0.5;" width="217.4199" x="210.5" y="864.6211"/><ellipse cx="262.436" cy="880.6211" fill="#C2C2C2" rx="11" ry="11" style="stroke:#181818;stroke-width:1.0;"/><path d="M265.2017,876.4961 Q265.3579,876.2773 265.5454,876.168 Q265.7329,876.0586 265.9517,876.0586 Q266.3267,876.0586 266.561,876.3242 Q266.7954,876.5742 266.7954,877.1836 L266.7954,878.6367 Q266.7954,879.2461 266.561,879.5117 Q266.3267,879.7773 265.9517,879.7773 Q265.6079,879.7773 265.4048,879.5742 Q265.2017,879.3867 265.0923,878.8711 Q265.0454,878.5117 264.8579,878.3242 Q264.5298,877.9492 263.9204,877.7305 Q263.311,877.5117 262.686,877.5117 Q261.9204,877.5117 261.2798,877.8398 Q260.6548,878.168 260.1548,878.918 Q259.6704,879.668 259.6704,880.6992 L259.6704,881.793 Q259.6704,883.0273 260.561,883.8555 Q261.4517,884.668 263.0454,884.668 Q263.9829,884.668 264.6392,884.418 Q265.0298,884.2617 265.4517,883.8242 Q265.7173,883.5586 265.8579,883.4805 Q266.0142,883.4023 266.2173,883.4023 Q266.5454,883.4023 266.7954,883.668 Q267.061,883.918 267.061,884.2617 Q267.061,884.6055 266.7173,885.0117 Q266.2173,885.5898 265.4204,885.918 Q264.3423,886.3711 263.0454,886.3711 Q261.5298,886.3711 260.3267,885.7461 Q259.3423,885.2461 258.6548,884.1836 Q257.9673,883.1055 257.9673,881.8242 L257.9673,880.668 Q257.9673,879.3398 258.5767,878.1992 Q259.2017,877.043 260.2954,876.4336 Q261.3892,875.8086 262.6235,875.8086 Q263.3579,875.8086 263.9985,875.9805 Q264.6548,876.1367 265.2017,876.4961 Z " fill="#000000"/><text fill="#000000" font-family="sans-serif" font-size="14" lengthAdjust="spacing" textLength="105.0479" x="282.936" y="886.418">CargoRepository</text><line style="stroke:#181818;stroke-width:0.5;" x1="211.5" x2="426.9199" y1="896.6211" y2="896.6211"/><line style="stroke:#181818;stroke-width:0.5;" x1="211.5" x2="426.9199" y1="904.6211" y2="904.6211"/><ellipse cx="221.5" cy="919.4316" fill="#A6A6A6" rx="3" ry="3" style="stroke:#545454;stroke-width:1.0;"/><text fill="#000000" font-family="sans-serif" font-size="14" lengthAdjust="spacing" textLength="191.4199" x="230.5" y="923.7285">saveCargo(cargo: Cargo): void</text></g><!--class CargoDistributionService--><g id="elem_CargoDistributionService"><rect codeLine="50" fill="#F1F1F1" height="66.6211" id="CargoDistributionService" rx="2.5" ry="2.5" style="stroke:#181818;stroke-width:0.5;" width="186.8408" x="1066.5" y="367.6211"/><ellipse cx="1081.5" cy="383.6211" fill="#C2C2C2" rx="11" ry="11" style="stroke:#181818;stroke-width:1.0;"/><path d="M1084.2656,379.4961 Q1084.4219,379.2773 1084.6094,379.168 Q1084.7969,379.0586 1085.0156,379.0586 Q1085.3906,379.0586 1085.625,379.3242 Q1085.8594,379.5742 1085.8594,380.1836 L1085.8594,381.6367 Q1085.8594,382.2461 1085.625,382.5117 Q1085.3906,382.7773 1085.0156,382.7773 Q1084.6719,382.7773 1084.4688,382.5742 Q1084.2656,382.3867 1084.1563,381.8711 Q1084.1094,381.5117 1083.9219,381.3242 Q1083.5938,380.9492 1082.9844,380.7305 Q1082.375,380.5117 1081.75,380.5117 Q1080.9844,380.5117 1080.3438,380.8398 Q1079.7188,381.168 1079.2188,381.918 Q1078.7344,382.668 1078.7344,383.6992 L1078.7344,384.793 Q1078.7344,386.0273 1079.625,386.8555 Q1080.5156,387.668 1082.1094,387.668 Q1083.0469,387.668 1083.7031,387.418 Q1084.0938,387.2617 1084.5156,386.8242 Q1084.7813,386.5586 1084.9219,386.4805 Q1085.0781,386.4023 1085.2813,386.4023 Q1085.6094,386.4023 1085.8594,386.668 Q1086.125,386.918 1086.125,387.2617 Q1086.125,387.6055 1085.7813,388.0117 Q1085.2813,388.5898 1084.4844,388.918 Q1083.4063,389.3711 1082.1094,389.3711 Q1080.5938,389.3711 1079.3906,388.7461 Q1078.4063,388.2461 1077.7188,387.1836 Q1077.0313,386.1055 1077.0313,384.8242 L1077.0313,383.668 Q1077.0313,382.3398 1077.6406,381.1992 Q1078.2656,380.043 1079.3594,379.4336 Q1080.4531,378.8086 1081.6875,378.8086 Q1082.4219,378.8086 1083.0625,378.9805 Q1083.7188,379.1367 1084.2656,379.4961 Z " fill="#000000"/><text fill="#000000" font-family="sans-serif" font-size="14" lengthAdjust="spacing" textLength="154.8408" x="1095.5" y="389.418">CargoDistributionService</text><line style="stroke:#181818;stroke-width:0.5;" x1="1067.5" x2="1252.3408" y1="399.6211" y2="399.6211"/><line style="stroke:#181818;stroke-width:0.5;" x1="1067.5" x2="1252.3408" y1="407.6211" y2="407.6211"/><ellipse cx="1077.5" cy="422.4316" fill="#A6A6A6" rx="3" ry="3" style="stroke:#545454;stroke-width:1.0;"/><text fill="#000000" font-family="sans-serif" font-size="14" lengthAdjust="spacing" textLength="154.0547" x="1086.5" y="426.7285">calculateStatistics(): void</text></g><!--class Industry--><g id="elem_Industry"><rect codeLine="54" fill="#F1F1F1" height="122.4844" id="Industry" rx="2.5" ry="2.5" style="stroke:#181818;stroke-width:0.5;" width="170.7715" x="639.5" y="837.1211"/><ellipse cx="695.7358" cy="853.1211" fill="#C2C2C2" rx="11" ry="11" style="stroke:#181818;stroke-width:1.0;"/><path d="M698.5015,848.9961 Q698.6577,848.7773 698.8452,848.668 Q699.0327,848.5586 699.2515,848.5586 Q699.6265,848.5586 699.8608,848.8242 Q700.0952,849.0742 700.0952,849.6836 L700.0952,851.1367 Q700.0952,851.7461 699.8608,852.0117 Q699.6265,852.2773 699.2515,852.2773 Q698.9077,852.2773 698.7046,852.0742 Q698.5015,851.8867 698.3921,851.3711 Q698.3452,851.0117 698.1577,850.8242 Q697.8296,850.4492 697.2202,850.2305 Q696.6108,850.0117 695.9858,850.0117 Q695.2202,850.0117 694.5796,850.3398 Q693.9546,850.668 693.4546,851.418 Q692.9702,852.168 692.9702,853.1992 L692.9702,854.293 Q692.9702,855.5273 693.8608,856.3555 Q694.7515,857.168 696.3452,857.168 Q697.2827,857.168 697.939,856.918 Q698.3296,856.7617 698.7515,856.3242 Q699.0171,856.0586 699.1577,855.9805 Q699.314,855.9023 699.5171,855.9023 Q699.8452,855.9023 700.0952,856.168 Q700.3608,856.418 700.3608,856.7617 Q700.3608,857.1055 700.0171,857.5117 Q699.5171,858.0898 698.7202,858.418 Q697.6421,858.8711 696.3452,858.8711 Q694.8296,858.8711 693.6265,858.2461 Q692.6421,857.7461 691.9546,856.6836 Q691.2671,855.6055 691.2671,854.3242 L691.2671,853.168 Q691.2671,851.8398 691.8765,850.6992 Q692.5015,849.543 693.5952,848.9336 Q694.689,848.3086 695.9233,848.3086 Q696.6577,848.3086 697.2983,848.4805 Q697.9546,848.6367 698.5015,848.9961 Z " fill="#000000"/><text fill="#000000" font-family="sans-serif" font-size="14" lengthAdjust="spacing" textLength="49.7998" x="716.2358" y="858.918">Industry</text><line style="stroke:#181818;stroke-width:0.5;" x1="640.5" x2="809.2715" y1="869.1211" y2="869.1211"/><rect fill="none" height="6" style="stroke:#595959;stroke-width:1.0;" width="6" x="647.5" y="880.9316"/><text fill="#000000" font-family="sans-serif" font-size="14" lengthAdjust="spacing" textLength="79.3721" x="659.5" y="888.2285">name: String</text><rect fill="none" height="6" style="stroke:#595959;stroke-width:1.0;" width="6" x="647.5" y="899.5527"/><text fill="#000000" font-family="sans-serif" font-size="14" lengthAdjust="spacing" textLength="70.8135" x="659.5" y="906.8496">type: String</text><rect fill="none" height="6" style="stroke:#595959;stroke-width:1.0;" width="6" x="647.5" y="918.1738"/><text fill="#000000" font-family="sans-serif" font-size="14" lengthAdjust="spacing" textLength="108.9648" x="659.5" y="925.4707">location: Location</text><rect fill="none" height="6" style="stroke:#595959;stroke-width:1.0;" width="6" x="647.5" y="936.7949"/><text fill="#000000" font-family="sans-serif" font-size="14" lengthAdjust="spacing" textLength="144.7715" x="659.5" y="944.0918">productionRate: double</text><line style="stroke:#181818;stroke-width:0.5;" x1="640.5" x2="809.2715" y1="951.6055" y2="951.6055"/></g><!--class City--><g id="elem_City"><rect codeLine="61" fill="#F1F1F1" height="141.1055" id="City" rx="2.5" ry="2.5" style="stroke:#181818;stroke-width:0.5;" width="225.999" x="854" y="827.6211"/><ellipse cx="950.6943" cy="843.6211" fill="#C2C2C2" rx="11" ry="11" style="stroke:#181818;stroke-width:1.0;"/><path d="M953.46,839.4961 Q953.6162,839.2773 953.8037,839.168 Q953.9912,839.0586 954.21,839.0586 Q954.585,839.0586 954.8193,839.3242 Q955.0537,839.5742 955.0537,840.1836 L955.0537,841.6367 Q955.0537,842.2461 954.8193,842.5117 Q954.585,842.7773 954.21,842.7773 Q953.8662,842.7773 953.6631,842.5742 Q953.46,842.3867 953.3506,841.8711 Q953.3037,841.5117 953.1162,841.3242 Q952.7881,840.9492 952.1787,840.7305 Q951.5693,840.5117 950.9443,840.5117 Q950.1787,840.5117 949.5381,840.8398 Q948.9131,841.168 948.4131,841.918 Q947.9287,842.668 947.9287,843.6992 L947.9287,844.793 Q947.9287,846.0273 948.8193,846.8555 Q949.71,847.668 951.3037,847.668 Q952.2412,847.668 952.8975,847.418 Q953.2881,847.2617 953.71,846.8242 Q953.9756,846.5586 954.1162,846.4805 Q954.2725,846.4023 954.4756,846.4023 Q954.8037,846.4023 955.0537,846.668 Q955.3193,846.918 955.3193,847.2617 Q955.3193,847.6055 954.9756,848.0117 Q954.4756,848.5898 953.6787,848.918 Q952.6006,849.3711 951.3037,849.3711 Q949.7881,849.3711 948.585,848.7461 Q947.6006,848.2461 946.9131,847.1836 Q946.2256,846.1055 946.2256,844.8242 L946.2256,843.668 Q946.2256,842.3398 946.835,841.1992 Q947.46,840.043 948.5537,839.4336 Q949.6475,838.8086 950.8818,838.8086 Q951.6162,838.8086 952.2568,838.9805 Q952.9131,839.1367 953.46,839.4961 Z " fill="#000000"/><text fill="#000000" font-family="sans-serif" font-size="14" lengthAdjust="spacing" textLength="24.1104" x="971.1943" y="849.418">City</text><line style="stroke:#181818;stroke-width:0.5;" x1="855" x2="1078.999" y1="859.6211" y2="859.6211"/><rect fill="none" height="6" style="stroke:#595959;stroke-width:1.0;" width="6" x="862" y="871.4316"/><text fill="#000000" font-family="sans-serif" font-size="14" lengthAdjust="spacing" textLength="79.3721" x="874" y="878.7285">name: String</text><rect fill="none" height="6" style="stroke:#595959;stroke-width:1.0;" width="6" x="862" y="890.0527"/><text fill="#000000" font-family="sans-serif" font-size="14" lengthAdjust="spacing" textLength="87.1787" x="874" y="897.3496">population: int</text><rect fill="none" height="6" style="stroke:#595959;stroke-width:1.0;" width="6" x="862" y="908.6738"/><text fill="#000000" font-family="sans-serif" font-size="14" lengthAdjust="spacing" textLength="108.9648" x="874" y="915.9707">location: Location</text><rect fill="none" height="6" style="stroke:#595959;stroke-width:1.0;" width="6" x="862" y="927.2949"/><text fill="#000000" font-family="sans-serif" font-size="14" lengthAdjust="spacing" textLength="157.9785" x="874" y="934.5918">demandFactors: Location</text><rect fill="none" height="6" style="stroke:#595959;stroke-width:1.0;" width="6" x="862" y="945.916"/><text fill="#000000" font-family="sans-serif" font-size="14" lengthAdjust="spacing" textLength="199.999" x="874" y="953.2129">houseBlocks: List&lt;HouseBlock&gt;</text><line style="stroke:#181818;stroke-width:0.5;" x1="855" x2="1078.999" y1="960.7266" y2="960.7266"/></g><!--class Map--><g id="elem_Map"><rect codeLine="69" fill="#F1F1F1" height="196.9688" id="Map" rx="2.5" ry="2.5" style="stroke:#181818;stroke-width:0.5;" width="187.0889" x="772.5" y="302.6211"/><ellipse cx="848.1772" cy="318.6211" fill="#C2C2C2" rx="11" ry="11" style="stroke:#181818;stroke-width:1.0;"/><path d="M850.9429,314.4961 Q851.0991,314.2773 851.2866,314.168 Q851.4741,314.0586 851.6929,314.0586 Q852.0679,314.0586 852.3022,314.3242 Q852.5366,314.5742 852.5366,315.1836 L852.5366,316.6367 Q852.5366,317.2461 852.3022,317.5117 Q852.0679,317.7773 851.6929,317.7773 Q851.3491,317.7773 851.146,317.5742 Q850.9429,317.3867 850.8335,316.8711 Q850.7866,316.5117 850.5991,316.3242 Q850.271,315.9492 849.6616,315.7305 Q849.0522,315.5117 848.4272,315.5117 Q847.6616,315.5117 847.021,315.8398 Q846.396,316.168 845.896,316.918 Q845.4116,317.668 845.4116,318.6992 L845.4116,319.793 Q845.4116,321.0273 846.3022,321.8555 Q847.1929,322.668 848.7866,322.668 Q849.7241,322.668 850.3804,322.418 Q850.771,322.2617 851.1929,321.8242 Q851.4585,321.5586 851.5991,321.4805 Q851.7554,321.4023 851.9585,321.4023 Q852.2866,321.4023 852.5366,321.668 Q852.8022,321.918 852.8022,322.2617 Q852.8022,322.6055 852.4585,323.0117 Q851.9585,323.5898 851.1616,323.918 Q850.0835,324.3711 848.7866,324.3711 Q847.271,324.3711 846.0679,323.7461 Q845.0835,323.2461 844.396,322.1836 Q843.7085,321.1055 843.7085,319.8242 L843.7085,318.668 Q843.7085,317.3398 844.3179,316.1992 Q844.9429,315.043 846.0366,314.4336 Q847.1304,313.8086 848.3647,313.8086 Q849.0991,313.8086 849.7397,313.9805 Q850.396,314.1367 850.9429,314.4961 Z " fill="#000000"/><text fill="#000000" font-family="sans-serif" font-size="14" lengthAdjust="spacing" textLength="27.2344" x="868.6772" y="324.418">Map</text><line style="stroke:#181818;stroke-width:0.5;" x1="773.5" x2="958.5889" y1="334.6211" y2="334.6211"/><rect fill="none" height="6" style="stroke:#595959;stroke-width:1.0;" width="6" x="780.5" y="346.4316"/><text fill="#000000" font-family="sans-serif" font-size="14" lengthAdjust="spacing" textLength="79.3721" x="792.5" y="353.7285">name: String</text><rect fill="none" height="6" style="stroke:#595959;stroke-width:1.0;" width="6" x="780.5" y="365.0527"/><text fill="#000000" font-family="sans-serif" font-size="14" lengthAdjust="spacing" textLength="55.248" x="792.5" y="372.3496">width: int</text><rect fill="none" height="6" style="stroke:#595959;stroke-width:1.0;" width="6" x="780.5" y="383.6738"/><text fill="#000000" font-family="sans-serif" font-size="14" lengthAdjust="spacing" textLength="60.71" x="792.5" y="390.9707">height: int</text><rect fill="none" height="6" style="stroke:#595959;stroke-width:1.0;" width="6" x="780.5" y="402.2949"/><text fill="#000000" font-family="sans-serif" font-size="14" lengthAdjust="spacing" textLength="132.2959" x="792.5" y="409.5918">regions: List&lt;Object&gt;</text><rect fill="none" height="6" style="stroke:#595959;stroke-width:1.0;" width="6" x="780.5" y="420.916"/><text fill="#000000" font-family="sans-serif" font-size="14" lengthAdjust="spacing" textLength="161.0889" x="792.5" y="428.2129">scenarios: List&lt;Scenario&gt;</text><rect fill="none" height="6" style="stroke:#595959;stroke-width:1.0;" width="6" x="780.5" y="439.5371"/><text fill="#000000" font-family="sans-serif" font-size="14" lengthAdjust="spacing" textLength="137.751" x="792.5" y="446.834">stations: List&lt;Station&gt;</text><rect fill="none" height="6" style="stroke:#595959;stroke-width:1.0;" width="6" x="780.5" y="458.1582"/><text fill="#000000" font-family="sans-serif" font-size="14" lengthAdjust="spacing" textLength="155.6338" x="792.5" y="465.4551">industries: List&lt;Industry&gt;</text><rect fill="none" height="6" style="stroke:#595959;stroke-width:1.0;" width="6" x="780.5" y="476.7793"/><text fill="#000000" font-family="sans-serif" font-size="14" lengthAdjust="spacing" textLength="101.9238" x="792.5" y="484.0762">cities: List&lt;City&gt;</text><line style="stroke:#181818;stroke-width:0.5;" x1="773.5" x2="958.5889" y1="491.5898" y2="491.5898"/></g><!--link CargoGenerationUI to CargoGenerationController--><g id="link_CargoGenerationUI_CargoGenerationController"><path codeLine="80" d="M606,113.9011 C606,132.5611 606,149.8711 606,168.5111 " fill="none" id="CargoGenerationUI-to-CargoGenerationController" style="stroke:#181818;stroke-width:1.0;"/><polygon fill="#181818" points="606,174.5111,610,165.5111,606,169.5111,602,165.5111,606,174.5111" style="stroke:#181818;stroke-width:1.0;"/></g><!--link CargoGenerationController to SimulationService--><g id="link_CargoGenerationController_SimulationService"><path codeLine="81" d="M504.47,220.0311 C422.94,231.8811 307.4,255.7811 216,302.6211 C184.18,318.9311 158.0467,341.7227 136.8267,363.2027 " fill="none" id="CargoGenerationController-to-SimulationService" style="stroke:#181818;stroke-width:1.0;"/><polygon fill="#181818" points="132.61,367.4711,141.7807,363.8797,136.1239,363.9141,136.0895,358.2573,132.61,367.4711" style="stroke:#181818;stroke-width:1.0;"/></g><!--link CargoGenerationController to StationRepository--><g id="link_CargoGenerationController_StationRepository"><path codeLine="82" d="M523.97,241.6911 C505.88,250.3311 487.28,260.4211 471,271.6211 C430.95,299.1811 395.9302,334.8391 370.8302,362.8991 " fill="none" id="CargoGenerationController-to-StationRepository" style="stroke:#181818;stroke-width:1.0;"/><polygon fill="#181818" points="366.83,367.3711,375.8116,363.33,370.1635,363.6445,369.849,357.9964,366.83,367.3711" style="stroke:#181818;stroke-width:1.0;"/></g><!--link CargoGenerationController to IndustryService--><g id="link_CargoGenerationController_IndustryService"><path codeLine="83" d="M616.15,241.7011 C637.08,308.8611 683.0356,456.3226 704.0056,523.6426 " fill="none" id="CargoGenerationController-to-IndustryService" style="stroke:#181818;stroke-width:1.0;"/><polygon fill="#181818" points="705.79,529.3711,706.9324,519.5887,704.303,524.5973,699.2944,521.9679,705.79,529.3711" style="stroke:#181818;stroke-width:1.0;"/></g><!--link CargoGenerationController to CityService--><g id="link_CargoGenerationController_CityService"><path codeLine="84" d="M707.63,223.8411 C803.32,239.5811 937.65,267.1511 977,302.6211 C1046.24,365.0411 986.81,430.1811 1049,499.6211 C1059.67,511.5311 1067.9335,518.4417 1082.0535,526.5917 " fill="none" id="CargoGenerationController-to-CityService" style="stroke:#181818;stroke-width:1.0;"/><polygon fill="#181818" points="1087.25,529.5911,1081.4548,521.6277,1082.9196,527.0916,1077.4557,528.5563,1087.25,529.5911" style="stroke:#181818;stroke-width:1.0;"/></g><!--link CargoGenerationController to Station--><g id="link_CargoGenerationController_Station"><path codeLine="85" d="M590.28,241.8111 C563.88,298.6911 511.71,420.2911 493,529.6211 C487.57,561.3411 487.7484,591.1889 490.0184,620.6089 " fill="none" id="CargoGenerationController-to-Station" style="stroke:#181818;stroke-width:1.0;"/><polygon fill="#181818" points="490.48,626.5911,493.7758,617.31,490.0954,621.6059,485.7995,617.9255,490.48,626.5911" style="stroke:#181818;stroke-width:1.0;"/></g><!--link CargoGenerationController to CargoDistributionService--><g id="link_CargoGenerationController_CargoDistributionService"><path codeLine="86" d="M707.69,216.0411 C817.11,224.8411 982.98,242.5011 1039,271.6211 C1081.82,293.8811 1114.29,332.4892 1135.6,362.6792 " fill="none" id="CargoGenerationController-to-CargoDistributionService" style="stroke:#181818;stroke-width:1.0;"/><polygon fill="#181818" points="1139.06,367.5811,1137.1378,357.9216,1136.1766,363.4962,1130.602,362.535,1139.06,367.5811" style="stroke:#181818;stroke-width:1.0;"/></g><!--link StationRepository to Station--><g id="link_StationRepository_Station"><path codeLine="88" d="M355.17,434.9111 C374.64,473.9311 408.77,540.8211 441,596.6211 C446.64,606.3911 449.6625,611.5153 455.8225,621.4253 " fill="none" id="StationRepository-to-Station" style="stroke:#181818;stroke-width:1.0;"/><polygon fill="#181818" points="458.99,626.5211,457.6359,616.7658,456.3504,622.2746,450.8416,620.9891,458.99,626.5211" style="stroke:#181818;stroke-width:1.0;"/></g><!--link IndustryService to Industry--><g id="link_IndustryService_Industry"><path codeLine="89" d="M716.88,596.6611 C718.38,652.3011 721.3075,760.5433 723.2175,831.0233 " fill="none" id="IndustryService-to-Industry" style="stroke:#181818;stroke-width:1.0;"/><polygon fill="#181818" points="723.38,837.0211,727.1347,827.916,723.2446,832.0229,719.1377,828.1328,723.38,837.0211" style="stroke:#181818;stroke-width:1.0;"/></g><!--link CityService to City--><g id="link_CityService_City"><path codeLine="90" d="M1154.68,596.6611 C1121.45,649.8411 1057.9688,751.4823 1013.6988,822.3523 " fill="none" id="CityService-to-City" style="stroke:#181818;stroke-width:1.0;"/><polygon fill="#181818" points="1010.52,827.4411,1018.6807,821.9271,1013.169,823.2005,1011.8956,817.6888,1010.52,827.4411" style="stroke:#181818;stroke-width:1.0;"/></g><!--reverse link Station to Cargo--><g id="link_Station_Cargo"><path codeLine="91" d="M486.2082,760.593 C476.5782,817.513 462.75,893.3811 445,968.6211 C440.32,988.4511 434.58,1009.7711 429.03,1029.3211 " fill="none" id="Station-backto-Cargo" style="stroke:#181818;stroke-width:1.0;"/><polygon fill="#181818" points="488.21,748.7611,483.2652,754.0098,486.2082,760.593,491.1531,755.3443,488.21,748.7611" style="stroke:#181818;stroke-width:1.0;"/><polygon fill="#000000" points="477.9594,903.1571,482.7164,894.9217,476.9673,893.6985,477.9594,903.1571" style="stroke:#000000;stroke-width:1.0;"/><text fill="#000000" font-family="sans-serif" font-size="13" lengthAdjust="spacing" textLength="35.4009" x="488" y="903.6494">stores</text><text fill="#000000" font-family="sans-serif" font-size="13" lengthAdjust="spacing" textLength="7.23" x="479.6325" y="771.265">1</text><text fill="#000000" font-family="sans-serif" font-size="13" lengthAdjust="spacing" textLength="19.5127" x="411.258" y="1018.1812">0..*</text></g><!--link Station to CargoRepository--><g id="link_Station_CargoRepository"><path codeLine="92" d="M446.47,748.6511 C414.14,786.3011 377.6087,828.859 351.0587,859.779 " fill="none" id="Station-to-CargoRepository" style="stroke:#181818;stroke-width:1.0;"/><polygon fill="#181818" points="347.15,864.3311,356.0479,860.1088,350.4073,860.5377,349.9784,854.8971,347.15,864.3311" style="stroke:#181818;stroke-width:1.0;"/></g><!--link CargoRepository to Cargo--><g id="link_CargoRepository_Cargo"><path codeLine="93" d="M333.5,931.7011 C345.22,958.0411 359.7001,990.5896 374.4601,1023.7496 " fill="none" id="CargoRepository-to-Cargo" style="stroke:#181818;stroke-width:1.0;"/><polygon fill="#181818" points="376.9,1029.2311,376.8945,1019.3822,374.8668,1024.6632,369.5858,1022.6354,376.9,1029.2311" style="stroke:#181818;stroke-width:1.0;"/></g><!--reverse link Map to Station--><g id="link_Map_Station"><path codeLine="96" d="M760.6415,414.9863 C684.1015,428.8263 590.72,458.2011 530,529.6211 C507.39,556.2211 499.26,594.4711 496.84,626.5611 " fill="none" id="Map-backto-Station" style="stroke:#181818;stroke-width:1.0;"/><polygon fill="#181818" points="772.45,412.8511,765.834,409.9825,760.6415,414.9863,767.2575,417.8549,772.45,412.8511" style="stroke:#181818;stroke-width:1.0;"/><text fill="#000000" font-family="sans-serif" font-size="13" lengthAdjust="spacing" textLength="7.23" x="757.4189" y="410.1602">1</text><text fill="#000000" font-family="sans-serif" font-size="13" lengthAdjust="spacing" textLength="19.5127" x="476.6638" y="615.5354">0..*</text></g><!--reverse link Map to Industry--><g id="link_Map_Industry"><path codeLine="97" d="M903.7167,511.5242 C910.4067,542.7142 910.49,565.4811 902,596.6211 C877.16,687.7511 816.86,779.4011 773.55,837.1011 " fill="none" id="Map-backto-Industry" style="stroke:#181818;stroke-width:1.0;"/><polygon fill="#181818" points="901.2,499.7911,898.5473,506.4965,903.7167,511.5242,906.3694,504.8188,901.2,499.7911" style="stroke:#181818;stroke-width:1.0;"/><text fill="#000000" font-family="sans-serif" font-size="13" lengthAdjust="spacing" textLength="7.23" x="896.5332" y="521.7015">1</text><text fill="#000000" font-family="sans-serif" font-size="13" lengthAdjust="spacing" textLength="19.5127" x="759.3544" y="825.6449">0..*</text></g><!--reverse link Map to City--><g id="link_Map_City"><path codeLine="98" d="M938.1307,510.4959 C942.8707,520.3059 941.81,519.5711 945,529.6211 C976.7,629.5311 976.82,752.2611 972.8,827.5611 " fill="none" id="Map-backto-City" style="stroke:#181818;stroke-width:1.0;"/><polygon fill="#181818" points="932.91,499.6911,931.9187,506.8337,938.1307,510.4959,939.122,503.3533,932.91,499.6911" style="stroke:#181818;stroke-width:1.0;"/><text fill="#000000" font-family="sans-serif" font-size="13" lengthAdjust="spacing" textLength="7.23" x="930.5719" y="521.5942">1</text><text fill="#000000" font-family="sans-serif" font-size="13" lengthAdjust="spacing" textLength="19.5127" x="953.4449" y="816.4459">0..*</text></g><!--link Station to Industry--><g id="link_Station_Industry"><path codeLine="99" d="M520.72,748.9011 C529.1,765.9711 539.83,783.6711 553,797.6211 C577.16,823.2011 609.37,844.1911 639.39,860.1911 " fill="none" id="Station-Industry" style="stroke:#181818;stroke-width:1.0;"/><polygon fill="#000000" points="561.6471,791.6869,557.0598,783.3558,553.039,787.6432,561.6471,791.6869" style="stroke:#000000;stroke-width:1.0;"/><text fill="#000000" font-family="sans-serif" font-size="13" lengthAdjust="spacing" textLength="38.2891" x="567" y="793.6494">serves</text><text fill="#000000" font-family="sans-serif" font-size="13" lengthAdjust="spacing" textLength="7.23" x="515.9824" y="770.9865">1</text><text fill="#000000" font-family="sans-serif" font-size="13" lengthAdjust="spacing" textLength="19.5127" x="611.9523" y="853.0756">0..*</text></g><!--link Station to City--><g id="link_Station_City"><path codeLine="100" d="M601.69,730.2711 C667.07,757.0311 753.03,793.1311 828,827.6211 C836.46,831.5111 845.16,835.6111 853.89,839.8011 " fill="none" id="Station-City" style="stroke:#181818;stroke-width:1.0;"/><polygon fill="#000000" points="766.5862,790.2584,759.4604,783.9596,757.119,789.3509,766.5862,790.2584" style="stroke:#000000;stroke-width:1.0;"/><text fill="#000000" font-family="sans-serif" font-size="13" lengthAdjust="spacing" textLength="38.2891" x="771" y="793.6494">serves</text><text fill="#000000" font-family="sans-serif" font-size="13" lengthAdjust="spacing" textLength="7.23" x="608.9151" y="729.5874">1</text><text fill="#000000" font-family="sans-serif" font-size="13" lengthAdjust="spacing" textLength="19.5127" x="826.6694" y="832.3462">0..*</text></g><!--SRC=[hLLTRzCm57tFhxZg2zscJ8p72bKQdGQJXf1MxGVSEdU9gMC7s-ce4FyTst7ID6bMa7Xf6fzpFtnyV6EsN5QeiOHIISKAhKe2gsjAJ8TKoBQOqzhk1O4cPb7ceaym1MRgbSiSNb0OIXBBhQC-hsy-G0ehWSR07SVSSrFuJ98qMe8LwboHWTlQgX8jPoZ4FabOu0SmKhcIpm_mAm6u0cDHsm4ulrZ0Jl4i-JqHlLBIQYK4wN_AikPbBGAs9htZZ68qK_A5vxMc0-54i0t04rNASAlqFWRdP6-5YAZnSO_Ss8znONb8y22psbYzFwwTH_L2y_TAnxYvQPwBjcwRD_1wMLVS_kUC4GxPKf1OaW_HpWvXGIWMytpRV7Vc2Ol62U8ijKBdBTVG0Z9LRvodFCPghKdQw8wfRVZtMDBkg-EIIlES7neFQnaPo-NnZWBmeqPfZtkuWXqAdZbDxj2YFwADKe9G3kgFpjRWhf5nplpleg6TTkUTsvRcc_g4lL0mRoiARRgscHdRgtN7bEmZKGxdy1Z_XULAgwncmQckOYV2aL-cQbIgYlPV09VshJ8PbIYpUsHEBJF02bKR-kG2j-rfV-bMUaV-5QkfHbvvPej33mNnlB27TqsvlsinUMF3PUD3HX8rLossZkyHZPTqU4KznXlzUUVGza0QsBdw07aDmqR6GorDbzF3AfaUOpvkD9xEyOSJwGn_C83Ei7k3vU_wE9Tluf8aoNYozhCEnsP_9qb_-hLDj_bWTZE3opI5sVlhwyjP736BCAlSLshPyRhkXaeEEWfhIV8EdgWv9bFmoi063MNWycJkgySbRALw5PJb17EfBD3FId1d7x5t7eD66dHVKsF91zSMUEaOb5qa_aOCccvLE05r8fp0HZgCmxmIJhaZ9OwPOLJqM7y0]--></g></svg>