<svg xmlns="http://www.w3.org/2000/svg" xmlns:xlink="http://www.w3.org/1999/xlink" contentStyleType="text/css" height="414px" preserveAspectRatio="none" style="width:564px;height:414px;background:#FFFFFF;" version="1.1" viewBox="0 0 564 414" width="564px" zoomAndPan="magnify"><title>System Sequence Diagram (SSD) - US09: As a Player, I want to buy a locomotive</title><defs/><g><text fill="#000000" font-family="sans-serif" font-size="14" font-weight="bold" lengthAdjust="spacing" textLength="536.0537" x="10" y="30.1074">System Sequence Diagram (SSD) - US09: As a Player, I want to buy a locomotive</text><rect fill="#FFFFFF" height="179.7461" style="stroke:#181818;stroke-width:1.0;" width="10" x="167.4294" y="133.2422"/><rect fill="#FFFFFF" height="31.291" style="stroke:#181818;stroke-width:1.0;" width="10" x="370.1829" y="156.5332"/><rect fill="#FFFFFF" height="93.873" style="stroke:#181818;stroke-width:1.0;" width="10" x="370.1829" y="219.1152"/><line style="stroke:#181818;stroke-width:0.5;stroke-dasharray:5.0,5.0;" x1="171.5881" x2="171.5881" y1="123.2422" y2="330.9883"/><line style="stroke:#181818;stroke-width:0.5;stroke-dasharray:5.0,5.0;" x1="374.9001" x2="374.9001" y1="123.2422" y2="330.9883"/><text fill="#000000" font-family="sans-serif" font-size="14" lengthAdjust="spacing" textLength="39.6826" x="149.5881" y="119.7285">Player</text><ellipse cx="172.4294" cy="53.1211" fill="#E3E3E3" rx="8" ry="8" style="stroke:#181818;stroke-width:0.5;"/><path d="M172.4294,61.1211 L172.4294,88.1211 M159.4294,69.1211 L185.4294,69.1211 M172.4294,88.1211 L159.4294,103.1211 M172.4294,88.1211 L185.4294,103.1211 " fill="none" style="stroke:#181818;stroke-width:0.5;"/><text fill="#000000" font-family="sans-serif" font-size="14" lengthAdjust="spacing" textLength="39.6826" x="149.5881" y="345.0957">Player</text><ellipse cx="172.4294" cy="357.1094" fill="#E3E3E3" rx="8" ry="8" style="stroke:#181818;stroke-width:0.5;"/><path d="M172.4294,365.1094 L172.4294,392.1094 M159.4294,373.1094 L185.4294,373.1094 M172.4294,392.1094 L159.4294,407.1094 M172.4294,392.1094 L185.4294,407.1094 " fill="none" style="stroke:#181818;stroke-width:0.5;"/><rect fill="#E3E3E3" height="32.6211" rx="2.5" ry="2.5" style="stroke:#181818;stroke-width:0.5;" width="64.5654" x="342.9001" y="89.6211"/><text fill="#000000" font-family="sans-serif" font-size="14" lengthAdjust="spacing" textLength="50.5654" x="349.9001" y="111.7285">:System</text><rect fill="#E3E3E3" height="32.6211" rx="2.5" ry="2.5" style="stroke:#181818;stroke-width:0.5;" width="64.5654" x="342.9001" y="329.9883"/><text fill="#000000" font-family="sans-serif" font-size="14" lengthAdjust="spacing" textLength="50.5654" x="349.9001" y="352.0957">:System</text><rect fill="#FFFFFF" height="179.7461" style="stroke:#181818;stroke-width:1.0;" width="10" x="167.4294" y="133.2422"/><rect fill="#FFFFFF" height="31.291" style="stroke:#181818;stroke-width:1.0;" width="10" x="370.1829" y="156.5332"/><rect fill="#FFFFFF" height="93.873" style="stroke:#181818;stroke-width:1.0;" width="10" x="370.1829" y="219.1152"/><polygon fill="#181818" points="358.1829,152.5332,368.1829,156.5332,358.1829,160.5332,362.1829,156.5332" style="stroke:#181818;stroke-width:1.0;"/><line style="stroke:#181818;stroke-width:1.0;" x1="177.4294" x2="364.1829" y1="156.5332" y2="156.5332"/><text fill="#000000" font-family="sans-serif" font-size="13" font-weight="bold" lengthAdjust="spacing" textLength="7.23" x="184.4294" y="151.2705">1</text><text fill="#000000" font-family="sans-serif" font-size="13" lengthAdjust="spacing" textLength="128.6099" x="195.6594" y="151.2705">request locomotive list</text><polygon fill="#181818" points="188.4294,183.8242,178.4294,187.8242,188.4294,191.8242,184.4294,187.8242" style="stroke:#181818;stroke-width:1.0;"/><line style="stroke:#181818;stroke-width:1.0;stroke-dasharray:2.0,2.0;" x1="182.4294" x2="374.1829" y1="187.8242" y2="187.8242"/><text fill="#000000" font-family="sans-serif" font-size="13" font-weight="bold" lengthAdjust="spacing" textLength="7.23" x="194.4294" y="182.5615">2</text><text fill="#000000" font-family="sans-serif" font-size="13" lengthAdjust="spacing" textLength="157.5234" x="205.6594" y="182.5615">show available locomotives</text><polygon fill="#181818" points="358.1829,215.1152,368.1829,219.1152,358.1829,223.1152,362.1829,219.1152" style="stroke:#181818;stroke-width:1.0;"/><line style="stroke:#181818;stroke-width:1.0;" x1="177.4294" x2="364.1829" y1="219.1152" y2="219.1152"/><text fill="#000000" font-family="sans-serif" font-size="13" font-weight="bold" lengthAdjust="spacing" textLength="7.23" x="184.4294" y="213.8525">3</text><text fill="#000000" font-family="sans-serif" font-size="13" lengthAdjust="spacing" textLength="86.709" x="195.6594" y="213.8525">buy locomotive</text><polygon fill="#181818" points="188.4294,246.4063,178.4294,250.4063,188.4294,254.4063,184.4294,250.4063" style="stroke:#181818;stroke-width:1.0;"/><line style="stroke:#181818;stroke-width:1.0;stroke-dasharray:2.0,2.0;" x1="182.4294" x2="369.1829" y1="250.4063" y2="250.4063"/><text fill="#000000" font-family="sans-serif" font-size="13" font-weight="bold" lengthAdjust="spacing" textLength="7.23" x="194.4294" y="245.1436">4</text><text fill="#000000" font-family="sans-serif" font-size="13" lengthAdjust="spacing" textLength="101.8989" x="205.6594" y="245.1436">validate purchase</text><polygon fill="#181818" points="188.4294,277.6973,178.4294,281.6973,188.4294,285.6973,184.4294,281.6973" style="stroke:#181818;stroke-width:1.0;"/><line style="stroke:#181818;stroke-width:1.0;stroke-dasharray:2.0,2.0;" x1="182.4294" x2="369.1829" y1="281.6973" y2="281.6973"/><text fill="#000000" font-family="sans-serif" font-size="13" font-weight="bold" lengthAdjust="spacing" textLength="7.23" x="194.4294" y="276.4346">5</text><text fill="#000000" font-family="sans-serif" font-size="13" lengthAdjust="spacing" textLength="74.4453" x="205.6594" y="276.4346">deduct funds</text><polygon fill="#181818" points="183.4294,308.9883,173.4294,312.9883,183.4294,316.9883,179.4294,312.9883" style="stroke:#181818;stroke-width:1.0;"/><line style="stroke:#181818;stroke-width:1.0;stroke-dasharray:2.0,2.0;" x1="177.4294" x2="374.1829" y1="312.9883" y2="312.9883"/><text fill="#000000" font-family="sans-serif" font-size="13" font-weight="bold" lengthAdjust="spacing" textLength="7.23" x="189.4294" y="307.7256">6</text><text fill="#000000" font-family="sans-serif" font-size="13" lengthAdjust="spacing" textLength="114.1689" x="200.6594" y="307.7256">purchase confirmed</text><!--SRC=[ZP4_JyCm4CLtVufJ9v2en4e6f4hjW0HIXM7eUB6lgLN_2VOvLRuzJjFG8Z8msVAztxjtvtGqliM83bpmGHrYS0GSCudqKsbH7R4XoRqbYAGOVMDl1Uc0EfoCRs2FDf4GRBX8PP-O74ZwokGLmTfWCyZlf5pVmn8-vUDJ1Qi425kBFSK7U84JUWOEKEU-lDkWWWjikcAAcOFFhgPOxef3XCM8BG0JR5zNkysxA87OADCEBejgJ72kovtysBoTITCXqmI8yOJbyqK2LPcn94vyqnsiINnb9xCBiIpmnQOgomWdm0wDnReiuUgHXAO_3dFjXz5_3VwVjXrQemTHcwCwOFc5EPKcdHN3FdkTvdqc75JmUnCTQJ6J- -Pb9By1]--></g></svg>