<svg xmlns="http://www.w3.org/2000/svg" xmlns:xlink="http://www.w3.org/1999/xlink" contentStyleType="text/css" height="1287px" preserveAspectRatio="none" style="width:717px;height:1287px;background:#FFFFFF;" version="1.1" viewBox="0 0 717 1287" width="717px" zoomAndPan="magnify"><defs/><g><!--cluster Railway Network Simulator--><g id="cluster_Railway Network Simulator"><rect fill="none" height="1231" rx="2.5" ry="2.5" style="stroke:#181818;stroke-width:1.0;" width="618" x="93" y="48"/><text fill="#000000" font-family="sans-serif" font-size="14" font-weight="bold" lengthAdjust="spacing" textLength="179.7168" x="312.1416" y="65.1074">Railway Network Simulator</text></g><g id="elem_UC1"><ellipse cx="216.0755" cy="239.9665" fill="#F1F1F1" rx="64.5755" ry="16.4665" style="stroke:#181818;stroke-width:0.5;"/><text fill="#000000" font-family="sans-serif" font-size="14" lengthAdjust="spacing" textLength="73.1445" x="176.5032" y="244.7703">Create Map</text></g><g id="elem_UC2"><ellipse cx="215.989" cy="311.1978" fill="#F1F1F1" rx="86.489" ry="19.6978" style="stroke:#181818;stroke-width:0.5;"/><text fill="#000000" font-family="sans-serif" font-size="14" lengthAdjust="spacing" textLength="125.2891" x="150.3445" y="316.0015">Add Industry to Map</text></g><g id="elem_UC3"><ellipse cx="215.8175" cy="383.7635" fill="#F1F1F1" rx="76.8175" ry="17.7635" style="stroke:#181818;stroke-width:0.5;"/><text fill="#000000" font-family="sans-serif" font-size="14" lengthAdjust="spacing" textLength="99.5996" x="163.0177" y="388.5672">Add City to Map</text></g><g id="elem_UC30"><ellipse cx="216.1502" cy="457.13" fill="#F1F1F1" rx="88.6502" ry="20.13" style="stroke:#181818;stroke-width:0.5;"/><text fill="#000000" font-family="sans-serif" font-size="14" lengthAdjust="spacing" textLength="130.7441" x="147.7781" y="461.9337">Add Scenario to Map</text></g><g id="elem_UC4"><ellipse cx="215.8794" cy="529.8759" fill="#F1F1F1" rx="77.3794" ry="17.8759" style="stroke:#181818;stroke-width:0.5;"/><text fill="#000000" font-family="sans-serif" font-size="14" lengthAdjust="spacing" textLength="101.165" x="162.2969" y="534.6796">Create Scenario</text></g><g id="elem_UC19"><ellipse cx="567.5355" cy="170.9099" fill="#F1F1F1" rx="57.0355" ry="16.4099" style="stroke:#181818;stroke-width:0.5;"/><text fill="#000000" font-family="sans-serif" font-size="14" lengthAdjust="spacing" textLength="63.0342" x="533.0185" y="175.7136">Save Map</text></g><g id="elem_UC20"><ellipse cx="215.9646" cy="101.905" fill="#F1F1F1" rx="56.4646" ry="16.405" style="stroke:#181818;stroke-width:0.5;"/><text fill="#000000" font-family="sans-serif" font-size="14" lengthAdjust="spacing" textLength="62.2686" x="181.8304" y="106.7087">Load Map</text></g><g id="elem_UC21"><ellipse cx="567.3245" cy="385.1649" fill="#F1F1F1" rx="73.8245" ry="17.1649" style="stroke:#181818;stroke-width:0.5;"/><text fill="#000000" font-family="sans-serif" font-size="14" lengthAdjust="spacing" textLength="91.0547" x="518.7972" y="389.9686">Save Scenario</text></g><g id="elem_UC22"><ellipse cx="216.0628" cy="171.1126" fill="#F1F1F1" rx="73.5628" ry="17.1126" style="stroke:#181818;stroke-width:0.5;"/><text fill="#000000" font-family="sans-serif" font-size="14" lengthAdjust="spacing" textLength="90.2891" x="167.9182" y="175.9163">Load Scenario</text></g><g id="elem_UC5"><ellipse cx="216.1493" cy="1033.992" fill="#F1F1F1" rx="68.6493" ry="16.492" style="stroke:#181818;stroke-width:0.5;"/><text fill="#000000" font-family="sans-serif" font-size="14" lengthAdjust="spacing" textLength="78.6064" x="173.8461" y="1038.7957">Build Station</text></g><g id="elem_UC6"><ellipse cx="567.3843" cy="1207.8769" fill="#F1F1F1" rx="77.3843" ry="17.8769" style="stroke:#181818;stroke-width:0.5;"/><text fill="#000000" font-family="sans-serif" font-size="14" lengthAdjust="spacing" textLength="101.1787" x="513.795" y="1212.6806">Upgrade Station</text></g><g id="elem_UC7"><ellipse cx="215.9004" cy="1101.9814" fill="#F1F1F1" rx="66.9004" ry="16.4814" style="stroke:#181818;stroke-width:0.5;"/><text fill="#000000" font-family="sans-serif" font-size="14" lengthAdjust="spacing" textLength="76.2617" x="174.7696" y="1106.7852">List Stations</text></g><g id="elem_UC8"><ellipse cx="215.7767" cy="1172.8553" fill="#F1F1F1" rx="82.2767" ry="18.8553" style="stroke:#181818;stroke-width:0.5;"/><text fill="#000000" font-family="sans-serif" font-size="14" lengthAdjust="spacing" textLength="114.3926" x="155.5805" y="1177.6591">Build Railway Line</text></g><g id="elem_UC9"><ellipse cx="215.82" cy="1244.764" fill="#F1F1F1" rx="76.82" ry="17.764" style="stroke:#181818;stroke-width:0.5;"/><text fill="#000000" font-family="sans-serif" font-size="14" lengthAdjust="spacing" textLength="99.6064" x="163.0168" y="1249.5677">Buy Locomotive</text></g><g id="elem_UC10"><ellipse cx="216.205" cy="603.941" fill="#F1F1F1" rx="90.205" ry="20.441" style="stroke:#181818;stroke-width:0.5;"/><text fill="#000000" font-family="sans-serif" font-size="14" lengthAdjust="spacing" textLength="134.6201" x="145.895" y="608.7447">Assign Train to Route</text></g><g id="elem_UC11"><ellipse cx="216.1825" cy="675.9195" fill="#F1F1F1" rx="58.1825" ry="16.4195" style="stroke:#181818;stroke-width:0.5;"/><text fill="#000000" font-family="sans-serif" font-size="14" lengthAdjust="spacing" textLength="64.5723" x="180.8964" y="680.7232">List Trains</text></g><g id="elem_UC12"><ellipse cx="216.0241" cy="745.0048" fill="#F1F1F1" rx="73.0241" ry="17.0048" style="stroke:#181818;stroke-width:0.5;"/><text fill="#000000" font-family="sans-serif" font-size="14" lengthAdjust="spacing" textLength="88.7031" x="168.6726" y="749.8085">Run Simulator</text></g><g id="elem_UC12A"><ellipse cx="567.6017" cy="679.8203" fill="#F1F1F1" rx="77.1017" ry="17.8203" style="stroke:#181818;stroke-width:0.5;"/><text fill="#000000" font-family="sans-serif" font-size="14" lengthAdjust="spacing" textLength="100.3926" x="514.4054" y="684.624">Generate Cargo</text></g><g id="elem_UC12B"><ellipse cx="567.3732" cy="754.0746" fill="#F1F1F1" rx="93.3732" ry="21.0746" style="stroke:#181818;stroke-width:0.5;"/><text fill="#000000" font-family="sans-serif" font-size="14" lengthAdjust="spacing" textLength="142.4063" x="493.1701" y="758.8783">Start/Pause Simulation</text></g><g id="elem_UC23"><ellipse cx="216.1567" cy="813.9704" fill="#F1F1F1" rx="65.1567" ry="16.4704" style="stroke:#181818;stroke-width:0.5;"/><text fill="#000000" font-family="sans-serif" font-size="14" lengthAdjust="spacing" textLength="73.9238" x="176.1948" y="818.7741">Save Game</text></g><g id="elem_UC24"><ellipse cx="216.0857" cy="881.9666" fill="#F1F1F1" rx="64.5857" ry="16.4666" style="stroke:#181818;stroke-width:0.5;"/><text fill="#000000" font-family="sans-serif" font-size="14" lengthAdjust="spacing" textLength="73.1582" x="176.5066" y="886.7703">Load Game</text></g><g id="elem_UC25"><ellipse cx="216.1331" cy="957.8266" fill="#F1F1F1" rx="107.1331" ry="23.8266" style="stroke:#181818;stroke-width:0.5;"/><text fill="#000000" font-family="sans-serif" font-size="14" lengthAdjust="spacing" textLength="174.2959" x="128.9851" y="961.6235">View Year Financial Results</text></g><g id="elem_UC26"><ellipse cx="567.3716" cy="1030.8743" fill="#F1F1F1" rx="127.3716" ry="27.8743" style="stroke:#181818;stroke-width:0.5;"/><text fill="#000000" font-family="sans-serif" font-size="14" lengthAdjust="spacing" textLength="218.6611" x="458.041" y="1034.6712">View Track Maintenance Expenses</text></g><g id="elem_UC27"><ellipse cx="567.434" cy="940.0868" fill="#F1F1F1" rx="125.934" ry="27.5868" style="stroke:#181818;stroke-width:0.5;"/><text fill="#000000" font-family="sans-serif" font-size="14" lengthAdjust="spacing" textLength="215.5576" x="459.6552" y="943.8837">View Train Maintenance Expenses</text></g><g id="elem_UC28"><ellipse cx="567.6004" cy="856.8201" fill="#F1F1F1" rx="87.1004" ry="19.8201" style="stroke:#181818;stroke-width:0.5;"/><text fill="#000000" font-family="sans-serif" font-size="14" lengthAdjust="spacing" textLength="126.8408" x="501.18" y="861.6238">View Fuel Expenses</text></g><g id="elem_UC29"><ellipse cx="567.6007" cy="1114.8201" fill="#F1F1F1" rx="92.1007" ry="20.8201" style="stroke:#181818;stroke-width:0.5;"/><text fill="#000000" font-family="sans-serif" font-size="14" lengthAdjust="spacing" textLength="139.2959" x="494.9527" y="1119.6239">View Cargo Revenues</text></g><!--entity ED--><g id="elem_ED"><ellipse cx="25.7861" cy="209" fill="#F1F1F1" rx="8" ry="8" style="stroke:#181818;stroke-width:0.5;"/><path d="M25.7861,217 L25.7861,244 M12.7861,225 L38.7861,225 M25.7861,244 L12.7861,259 M25.7861,244 L38.7861,259 " fill="none" style="stroke:#181818;stroke-width:0.5;"/><text fill="#000000" font-family="sans-serif" font-size="14" lengthAdjust="spacing" textLength="36.5723" x="7.5" y="275.6074">Editor</text></g><!--entity PL--><g id="elem_PL"><ellipse cx="25.8413" cy="927" fill="#F1F1F1" rx="8" ry="8" style="stroke:#181818;stroke-width:0.5;"/><path d="M25.8413,935 L25.8413,962 M12.8413,943 L38.8413,943 M25.8413,962 L12.8413,977 M25.8413,962 L38.8413,977 " fill="none" style="stroke:#181818;stroke-width:0.5;"/><text fill="#000000" font-family="sans-serif" font-size="14" lengthAdjust="spacing" textLength="39.6826" x="6" y="993.6074">Player</text></g><!--link ED to UC1--><g id="link_ED_UC1"><path d="M44.69,240 C68.91,240 107.68,240 145.24,240 " fill="none" id="ED-to-UC1" style="stroke:#181818;stroke-width:1.0;"/><polygon fill="#181818" points="151.24,240,142.24,236,146.24,240,142.24,244,151.24,240" style="stroke:#181818;stroke-width:1.0;"/></g><!--link ED to UC2--><g id="link_ED_UC2"><path d="M44.72,250.39 C61.77,260.38 85,274 85,274 C85,274 119.7895,283.8964 155.5995,294.0964 " fill="none" id="ED-to-UC2" style="stroke:#181818;stroke-width:1.0;"/><polygon fill="#181818" points="161.37,295.74,153.81,289.4275,156.5613,294.3703,151.6185,297.1215,161.37,295.74" style="stroke:#181818;stroke-width:1.0;"/></g><!--link ED to UC3--><g id="link_ED_UC3"><path d="M44.56,272.7 C61.63,304.48 85,348 85,348 C85,348 122.9579,358.5079 159.6979,368.6879 " fill="none" id="ED-to-UC3" style="stroke:#181818;stroke-width:1.0;"/><polygon fill="#181818" points="165.48,370.29,157.8749,364.032,160.6615,368.9549,155.7387,371.7416,165.48,370.29" style="stroke:#181818;stroke-width:1.0;"/></g><!--link ED to UC4--><g id="link_ED_UC4"><path d="M36.06,279.69 C52.38,351.12 85,494 85,494 C85,494 122.9579,504.5079 159.6979,514.6879 " fill="none" id="ED-to-UC4" style="stroke:#181818;stroke-width:1.0;"/><polygon fill="#181818" points="165.48,516.29,157.8749,510.032,160.6615,514.9549,155.7387,517.7416,165.48,516.29" style="stroke:#181818;stroke-width:1.0;"/></g><!--link ED to UC20--><g id="link_ED_UC20"><path d="M44.56,208.51 C61.63,177.9 85,136 85,136 C85,136 129.3453,124.3984 167.3453,114.4584 " fill="none" id="ED-to-UC20" style="stroke:#181818;stroke-width:1.0;"/><polygon fill="#181818" points="173.15,112.94,163.4307,111.3478,168.3128,114.2053,165.4552,119.0874,173.15,112.94" style="stroke:#181818;stroke-width:1.0;"/></g><!--link ED to UC21--><g id="link_ED_UC21"><path d="M40.45,200.11 C57.59,149.3 85,68 85,68 C85,68 323,68 323,68 C323,68 410,177 410,177 C410,177 512.7132,313.5051 550.0832,363.1851 " fill="none" id="ED-to-UC21" style="stroke:#181818;stroke-width:1.0;"/><polygon fill="#181818" points="553.69,367.98,551.4764,358.3831,550.6843,363.9843,545.0832,363.1922,553.69,367.98" style="stroke:#181818;stroke-width:1.0;"/></g><!--link ED to UC22--><g id="link_ED_UC22"><path d="M44.72,229.61 C61.77,219.62 85,206 85,206 C85,206 124.4364,195.3801 161.5364,185.3901 " fill="none" id="ED-to-UC22" style="stroke:#181818;stroke-width:1.0;"/><polygon fill="#181818" points="167.33,183.83,157.5995,182.3077,162.502,185.1301,159.6796,190.0325,167.33,183.83" style="stroke:#181818;stroke-width:1.0;"/></g><!--link ED to UC30--><g id="link_ED_UC30"><path d="M39.87,279.73 C56.96,332.46 85,419 85,419 C85,419 119.5209,429.0868 155.2409,439.5268 " fill="none" id="ED-to-UC30" style="stroke:#181818;stroke-width:1.0;"/><polygon fill="#181818" points="161,441.21,153.4836,434.8458,156.2008,439.8073,151.2393,442.5245,161,441.21" style="stroke:#181818;stroke-width:1.0;"/></g><!--link ED to UC19--><g id="link_ED_UC19"><path d="M35.31,200.31 C49.29,133.54 76,6 76,6 C76,6 410,6 410,6 C410,6 507.701,109.0067 547.081,150.5267 " fill="none" id="ED-to-UC19" style="stroke:#181818;stroke-width:1.0;"/><polygon fill="#181818" points="551.21,154.88,547.9188,145.5973,547.7692,151.2522,542.1143,151.1026,551.21,154.88" style="stroke:#181818;stroke-width:1.0;"/></g><!--link PL to UC5--><g id="link_PL_UC5"><path d="M46.31,971.65 C63.19,983.58 85,999 85,999 C85,999 126.2462,1010.1107 163.7362,1020.2007 " fill="none" id="PL-to-UC5" style="stroke:#181818;stroke-width:1.0;"/><polygon fill="#181818" points="169.53,1021.76,161.8788,1015.5584,164.7018,1020.4605,159.7997,1023.2835,169.53,1021.76" style="stroke:#181818;stroke-width:1.0;"/></g><!--link PL to UC6--><g id="link_PL_UC6"><path d="M34.17,997.81 C49.69,1083.96 85,1280 85,1280 C85,1280 323,1280 323,1280 C323,1280 442.3564,1244.7119 513.2164,1223.7519 " fill="none" id="PL-to-UC6" style="stroke:#181818;stroke-width:1.0;"/><polygon fill="#181818" points="518.97,1222.05,509.2051,1220.7671,514.1754,1223.4682,511.4742,1228.4385,518.97,1222.05" style="stroke:#181818;stroke-width:1.0;"/></g><!--link PL to UC7--><g id="link_PL_UC7"><path d="M46.15,994.32 C63.05,1026.36 85,1068 85,1068 C85,1068 126.2354,1078.7811 163.7254,1088.5911 " fill="none" id="PL-to-UC7" style="stroke:#181818;stroke-width:1.0;"/><polygon fill="#181818" points="169.53,1090.11,161.8357,1083.962,164.6929,1088.8443,159.8106,1091.7014,169.53,1090.11" style="stroke:#181818;stroke-width:1.0;"/></g><!--link PL to UC8--><g id="link_PL_UC8"><path d="M39.87,997.5 C56.96,1049.94 85,1136 85,1136 C85,1136 121.2192,1146.3076 157.4792,1156.6276 " fill="none" id="PL-to-UC8" style="stroke:#181818;stroke-width:1.0;"/><polygon fill="#181818" points="163.25,1158.27,155.6887,1151.9591,158.441,1156.9013,153.4988,1159.6536,163.25,1158.27" style="stroke:#181818;stroke-width:1.0;"/></g><!--link PL to UC9--><g id="link_PL_UC9"><path d="M36.19,997.77 C52.54,1068.55 85,1209 85,1209 C85,1209 122.9579,1219.5079 159.6979,1229.6879 " fill="none" id="PL-to-UC9" style="stroke:#181818;stroke-width:1.0;"/><polygon fill="#181818" points="165.48,1231.29,157.8749,1225.032,160.6615,1229.9549,155.7387,1232.7416,165.48,1231.29" style="stroke:#181818;stroke-width:1.0;"/></g><!--link PL to UC10--><g id="link_PL_UC10"><path d="M34.29,918.3 C49.86,833.43 85,642 85,642 C85,642 118.6807,632.1524 154.1107,621.8024 " fill="none" id="PL-to-UC10" style="stroke:#181818;stroke-width:1.0;"/><polygon fill="#181818" points="159.87,620.12,150.1094,618.8041,155.0706,621.522,152.3527,626.4832,159.87,620.12" style="stroke:#181818;stroke-width:1.0;"/></g><!--link PL to UC11--><g id="link_PL_UC11"><path d="M36.25,918.43 C52.63,848.41 85,710 85,710 C85,710 129.0253,698.4885 166.9853,688.5585 " fill="none" id="PL-to-UC11" style="stroke:#181818;stroke-width:1.0;"/><polygon fill="#181818" points="172.79,687.04,163.0707,685.4479,167.9528,688.3054,165.0953,693.1875,172.79,687.04" style="stroke:#181818;stroke-width:1.0;"/></g><!--link PL to UC12--><g id="link_PL_UC12"><path d="M39.87,918.5 C56.96,866.06 85,780 85,780 C85,780 124.4364,769.3801 161.5364,759.3901 " fill="none" id="PL-to-UC12" style="stroke:#181818;stroke-width:1.0;"/><polygon fill="#181818" points="167.33,757.83,157.5995,756.3077,162.502,759.1301,159.6796,764.0325,167.33,757.83" style="stroke:#181818;stroke-width:1.0;"/></g><!--link PL to UC23--><g id="link_PL_UC23"><path d="M46.15,921.68 C63.05,889.64 85,848 85,848 C85,848 126.5452,837.1381 164.0952,827.3181 " fill="none" id="PL-to-UC23" style="stroke:#181818;stroke-width:1.0;"/><polygon fill="#181818" points="169.9,825.8,160.1808,824.2072,165.0627,827.065,162.2049,831.9469,169.9,825.8" style="stroke:#181818;stroke-width:1.0;"/></g><!--link PL to UC24--><g id="link_PL_UC24"><path d="M46.31,944.01 C63.19,931.8 85,916 85,916 C85,916 126.8555,905.0591 164.4555,895.2191 " fill="none" id="PL-to-UC24" style="stroke:#181818;stroke-width:1.0;"/><polygon fill="#181818" points="170.26,893.7,160.5405,892.1089,165.4229,894.9659,162.5659,899.8483,170.26,893.7" style="stroke:#181818;stroke-width:1.0;"/></g><!--link PL to UC25--><g id="link_PL_UC25"><path d="M46.06,958 C61.46,958 78.48,958 102.61,958 " fill="none" id="PL-to-UC25" style="stroke:#181818;stroke-width:1.0;"/><polygon fill="#181818" points="108.61,958,99.61,954,103.61,958,99.61,962,108.61,958" style="stroke:#181818;stroke-width:1.0;"/></g><!--link UC12 to UC12A--><g id="link_UC12_UC12A"><path d="M273.54,734.48 C337.59,722.57 435.6112,704.3474 500.9212,692.1974 " fill="none" id="UC12-to-UC12A" style="stroke:#181818;stroke-width:1.0;stroke-dasharray:7.0,7.0;"/><polygon fill="#181818" points="506.82,691.1,497.2402,688.8136,501.9043,692.0145,498.7034,696.6786,506.82,691.1" style="stroke:#181818;stroke-width:1.0;"/><text fill="#000000" font-family="sans-serif" font-size="13" lengthAdjust="spacing" textLength="55.6563" x="354" y="707.0283">&#171;include&#187;</text></g><!--link UC12 to UC12B--><g id="link_UC12_UC12B"><path d="M288.58,747.11 C321.35,748.07 353,749 353,749 C353,749 410.6216,750.3499 468.4116,751.6999 " fill="none" id="UC12-to-UC12B" style="stroke:#181818;stroke-width:1.0;stroke-dasharray:7.0,7.0;"/><polygon fill="#181818" points="474.41,751.84,465.5059,747.6309,469.4114,751.7232,465.319,755.6287,474.41,751.84" style="stroke:#181818;stroke-width:1.0;"/><text fill="#000000" font-family="sans-serif" font-size="13" lengthAdjust="spacing" textLength="55.6563" x="354" y="745.0283">&#171;include&#187;</text></g><!--reverse link UC5 to UC6--><g id="link_UC5_UC6"><path d="M263.6937,1048.9812 C293.5237,1058.5412 323,1068 323,1068 C323,1068 440,1153 440,1153 C440,1153 492.55,1175.85 529.91,1192.09 " fill="none" id="UC5-backto-UC6" style="stroke:#181818;stroke-width:1.0;stroke-dasharray:7.0,7.0;"/><polygon fill="#181818" points="257.98,1047.15,265.3298,1053.7059,262.7415,1048.676,267.7714,1046.0876,257.98,1047.15" style="stroke:#181818;stroke-width:1.0;"/><text fill="#000000" font-family="sans-serif" font-size="13" lengthAdjust="spacing" textLength="53.4917" x="355" y="1087.0283">&#171;extend&#187;</text></g><!--reverse link UC1 to UC19--><g id="link_UC1_UC19"><path d="M273.3364,228.8779 C341.0064,215.5179 454.37,193.14 519.98,180.18 " fill="none" id="UC1-backto-UC19" style="stroke:#181818;stroke-width:1.0;stroke-dasharray:7.0,7.0;"/><polygon fill="#181818" points="267.45,230.04,277.0543,232.221,272.3553,229.0716,275.5048,224.3725,267.45,230.04" style="stroke:#181818;stroke-width:1.0;"/><text fill="#000000" font-family="sans-serif" font-size="13" lengthAdjust="spacing" textLength="53.4917" x="355" y="200.0283">&#171;extend&#187;</text></g><!--reverse link UC4 to UC21--><g id="link_UC4_UC21"><path d="M266.4111,513.22 C295.6111,503.3 323,494 323,494 C323,494 466.1,429.94 532.9,400.04 " fill="none" id="UC4-backto-UC21" style="stroke:#181818;stroke-width:1.0;stroke-dasharray:7.0,7.0;"/><polygon fill="#181818" points="260.73,515.15,270.5383,516.0424,265.4643,513.5416,267.965,508.4676,260.73,515.15" style="stroke:#181818;stroke-width:1.0;"/><text fill="#000000" font-family="sans-serif" font-size="13" lengthAdjust="spacing" textLength="53.4917" x="355" y="452.0283">&#171;extend&#187;</text></g><!--link UC25 to UC26--><g id="link_UC25_UC26"><path d="M295,974.29 C348.11,985.39 412.7666,998.8938 468.6166,1010.5538 " fill="none" id="UC25-to-UC26" style="stroke:#181818;stroke-width:1.0;stroke-dasharray:7.0,7.0;"/><polygon fill="#181818" points="474.49,1011.78,466.4974,1006.0251,469.5955,1010.7582,464.8625,1013.8563,474.49,1011.78" style="stroke:#181818;stroke-width:1.0;"/><text fill="#000000" font-family="sans-serif" font-size="13" lengthAdjust="spacing" textLength="55.6563" x="354" y="984.0283">&#171;include&#187;</text></g><!--link UC25 to UC27--><g id="link_UC25_UC27"><path d="M320.44,952.67 C359.39,950.67 398.058,948.6794 438.538,946.5894 " fill="none" id="UC25-to-UC27" style="stroke:#181818;stroke-width:1.0;stroke-dasharray:7.0,7.0;"/><polygon fill="#181818" points="444.53,946.28,435.3357,942.7494,439.5367,946.5378,435.7482,950.7387,444.53,946.28" style="stroke:#181818;stroke-width:1.0;"/><text fill="#000000" font-family="sans-serif" font-size="13" lengthAdjust="spacing" textLength="55.6563" x="354" y="945.0283">&#171;include&#187;</text></g><!--link UC25 to UC28--><g id="link_UC25_UC28"><path d="M282.33,939.12 C348.81,919.91 444.8859,892.1458 506.8959,874.2258 " fill="none" id="UC25-to-UC28" style="stroke:#181818;stroke-width:1.0;stroke-dasharray:7.0,7.0;"/><polygon fill="#181818" points="512.66,872.56,502.9033,871.2159,507.8566,873.9481,505.1243,878.9014,512.66,872.56" style="stroke:#181818;stroke-width:1.0;"/><text fill="#000000" font-family="sans-serif" font-size="13" lengthAdjust="spacing" textLength="55.6563" x="354" y="901.0283">&#171;include&#187;</text></g><!--link UC25 to UC29--><g id="link_UC25_UC29"><path d="M269.69,978.88 C296.29,989.42 323,1000 323,1000 C323,1000 353,1024 353,1024 C353,1024 440,1076 440,1076 C440,1076 471.8263,1085.8124 506.0163,1096.3524 " fill="none" id="UC25-to-UC29" style="stroke:#181818;stroke-width:1.0;stroke-dasharray:7.0,7.0;"/><polygon fill="#181818" points="511.75,1098.12,504.3278,1091.6461,506.9719,1096.647,501.971,1099.2911,511.75,1098.12" style="stroke:#181818;stroke-width:1.0;"/><text fill="#000000" font-family="sans-serif" font-size="13" lengthAdjust="spacing" textLength="55.6563" x="354" y="1020.0283">&#171;include&#187;</text></g><!--SRC=[VPHDRzim38Rl-XL43zsfMUpcSmWAf6bQ5CY685a7x4ZOR2hKaGr9RXiC- - -L_179Tj9JtlXzID4ahOIUDUWK9D-zQ8Yvf4ZpL33roaM64lUGS47wa15aQNAmVnX6EfLmiOov-Rq0LB2ygn-k4pnG-N2zOepPV2Xs2S751ddoZWVuHVezbQ-mvViymIB5FmRm3NvY1fUmZKYWvAdvAt17UnBQkBcY29N9if24cYnR7FAq27nt7iVmAE9SQNcmh-Mmi8qjk6uXrstaM4eJwv-efqOhPk0ZMtnh53prpLMAiLzclnFPIXq6dV0sOTwrQEXMentccKxUvZo9QwOA7Vh0KxQJ65CB6JMEvqhNlgg0SNLwFUzB-2sHVrr5pQxCVbLf9atAU6cKxbFDtsgYqSUvKdmdggFCl3Pfhcimw7TgBhYwuY2e6rQkfEtP9JpWdiuKlSc5lxvbaiQ6FP0WQHTZWNAN7f5vOxeQfVw-HlF0E_d8tdOsmLPKp_YwimM-szY_FvpUuI-XX7ikK4GS4zYGoXDTDo2qS- -4c1v5hwO3N6YoSGJBZuo4ecFOw5HCCUhpCUDEp7rEIGURTB2YawRmDnAvu-mIiF-CcNsZie7gXMSAdirjLDvGR7a7LrStnLLnbA6JrquEFA3lQJ_GZ_GOyrMVAg6y3zbwLM539qTEZfsSE3brqcomqu6dGwVDIZWzyFIGsVOyYYZ9pTSi_HgPJG6zNfbh3ZzWDkCbU7FJD6zRfacv_313LZQNGOSmw_NiQnKSMIikSrH6C6qxWye9WwR3RD7LmU6eKvJpnbzuao-yQTFx1000]--></g></svg>