<svg xmlns="http://www.w3.org/2000/svg" xmlns:xlink="http://www.w3.org/1999/xlink" contentStyleType="text/css" height="1508px" preserveAspectRatio="none" style="width:1688px;height:1508px;background:#FFFFFF;" version="1.1" viewBox="0 0 1688 1508" width="1688px" zoomAndPan="magnify"><defs/><g><rect fill="#FFFFFF" height="1313.2617" style="stroke:#181818;stroke-width:1.0;" width="10" x="22.8413" y="93.6211"/><rect fill="#FFFFFF" height="512.9863" style="stroke:#181818;stroke-width:1.0;" width="10" x="372.2954" y="116.9121"/><rect fill="#FFFFFF" height="745.6934" style="stroke:#181818;stroke-width:1.0;" width="10" x="372.2954" y="661.1895"/><rect fill="#FFFFFF" height="406.7832" style="stroke:#181818;stroke-width:1.0;" width="10" x="588.8315" y="191.8242"/><rect fill="#FFFFFF" height="683.1113" style="stroke:#181818;stroke-width:1.0;" width="10" x="588.8315" y="692.4805"/><rect fill="#FFFFFF" height="42.291" style="stroke:#181818;stroke-width:1.0;" width="10" x="593.8315" y="1169.8457"/><rect fill="#FFFFFF" height="31.291" style="stroke:#181818;stroke-width:1.0;" width="10" x="854.4458" y="223.1152"/><rect fill="#FFFFFF" height="31.291" style="stroke:#181818;stroke-width:1.0;" width="10" x="854.4458" y="723.7715"/><rect fill="#FFFFFF" height="31.291" style="stroke:#181818;stroke-width:1.0;" width="10" x="958.2041" y="285.6973"/><rect fill="#FFFFFF" height="31.291" style="stroke:#181818;stroke-width:1.0;" width="10" x="958.2041" y="786.3535"/><rect fill="#FFFFFF" height="31.291" style="stroke:#181818;stroke-width:1.0;" width="10" x="1094.2554" y="536.0254"/><rect fill="#FFFFFF" height="31.291" style="stroke:#181818;stroke-width:1.0;" width="10" x="1094.2554" y="848.9355"/><rect fill="#FFFFFF" height="31.291" style="stroke:#181818;stroke-width:1.0;" width="10" x="1248.603" y="348.2793"/><rect fill="#FFFFFF" height="31.291" style="stroke:#181818;stroke-width:1.0;" width="10" x="1248.603" y="911.5176"/><rect fill="#FFFFFF" height="31.291" style="stroke:#181818;stroke-width:1.0;" width="10" x="1392.8438" y="410.8613"/><rect fill="#FFFFFF" height="31.291" style="stroke:#181818;stroke-width:1.0;" width="10" x="1392.8438" y="974.0996"/><rect fill="#FFFFFF" height="31.291" style="stroke:#181818;stroke-width:1.0;" width="10" x="1524.626" y="473.4434"/><rect fill="#FFFFFF" height="31.291" style="stroke:#181818;stroke-width:1.0;" width="10" x="1524.626" y="1036.6816"/><rect fill="#FFFFFF" height="31.291" style="stroke:#181818;stroke-width:1.0;" width="10" x="1524.626" y="1250.4277"/><rect fill="#FFFFFF" height="31.291" style="stroke:#181818;stroke-width:1.0;" width="10" x="1524.626" y="1313.0098"/><rect fill="#FFFFFF" height="31.291" style="stroke:#181818;stroke-width:1.0;" width="10" x="1633.0566" y="1099.2637"/><line style="stroke:#181818;stroke-width:0.5;stroke-dasharray:5.0,5.0;" x1="27" x2="27" y1="83.6211" y2="1424.8828"/><line style="stroke:#181818;stroke-width:0.5;stroke-dasharray:5.0,5.0;" x1="376.4922" x2="376.4922" y1="83.6211" y2="1424.8828"/><line style="stroke:#181818;stroke-width:0.5;stroke-dasharray:5.0,5.0;" x1="593.6836" x2="593.6836" y1="156.7227" y2="1424.8828"/><line style="stroke:#181818;stroke-width:0.5;stroke-dasharray:5.0,5.0;" x1="858.5391" x2="858.5391" y1="83.6211" y2="1424.8828"/><line style="stroke:#181818;stroke-width:0.5;stroke-dasharray:5.0,5.0;" x1="962.3525" x2="962.3525" y1="83.6211" y2="1424.8828"/><line style="stroke:#181818;stroke-width:0.5;stroke-dasharray:5.0,5.0;" x1="1099.0557" x2="1099.0557" y1="83.6211" y2="1424.8828"/><line style="stroke:#181818;stroke-width:0.5;stroke-dasharray:5.0,5.0;" x1="1253.4551" x2="1253.4551" y1="83.6211" y2="1424.8828"/><line style="stroke:#181818;stroke-width:0.5;stroke-dasharray:5.0,5.0;" x1="1397.751" x2="1397.751" y1="83.6211" y2="1424.8828"/><line style="stroke:#181818;stroke-width:0.5;stroke-dasharray:5.0,5.0;" x1="1528.9365" x2="1528.9365" y1="83.6211" y2="1424.8828"/><line style="stroke:#181818;stroke-width:0.5;stroke-dasharray:5.0,5.0;" x1="1637.3154" x2="1637.3154" y1="83.6211" y2="1424.8828"/><text fill="#000000" font-family="sans-serif" font-size="14" lengthAdjust="spacing" textLength="39.6826" x="5" y="80.1074">Player</text><ellipse cx="27.8413" cy="13.5" fill="#E2E2F0" rx="8" ry="8" style="stroke:#181818;stroke-width:0.5;"/><path d="M27.8413,21.5 L27.8413,48.5 M14.8413,29.5 L40.8413,29.5 M27.8413,48.5 L14.8413,63.5 M27.8413,48.5 L40.8413,63.5 " fill="none" style="stroke:#181818;stroke-width:0.5;"/><text fill="#000000" font-family="sans-serif" font-size="14" lengthAdjust="spacing" textLength="39.6826" x="5" y="1438.9902">Player</text><ellipse cx="27.8413" cy="1451.0039" fill="#E2E2F0" rx="8" ry="8" style="stroke:#181818;stroke-width:0.5;"/><path d="M27.8413,1459.0039 L27.8413,1486.0039 M14.8413,1467.0039 L40.8413,1467.0039 M27.8413,1486.0039 L14.8413,1501.0039 M27.8413,1486.0039 L40.8413,1501.0039 " fill="none" style="stroke:#181818;stroke-width:0.5;"/><rect fill="#E2E2F0" height="32.6211" rx="2.5" ry="2.5" style="stroke:#181818;stroke-width:0.5;" width="127.6064" x="313.4922" y="50"/><text fill="#000000" font-family="sans-serif" font-size="14" lengthAdjust="spacing" textLength="113.6064" x="320.4922" y="72.1074">:BuyLocomotiveUI</text><rect fill="#E2E2F0" height="32.6211" rx="2.5" ry="2.5" style="stroke:#181818;stroke-width:0.5;" width="127.6064" x="313.4922" y="1423.8828"/><text fill="#000000" font-family="sans-serif" font-size="14" lengthAdjust="spacing" textLength="113.6064" x="320.4922" y="1445.9902">:BuyLocomotiveUI</text><rect fill="#E2E2F0" height="32.6211" rx="2.5" ry="2.5" style="stroke:#181818;stroke-width:0.5;" width="174.2959" x="506.6836" y="1423.8828"/><text fill="#000000" font-family="sans-serif" font-size="14" lengthAdjust="spacing" textLength="160.2959" x="513.6836" y="1445.9902">:BuyLocomotiveController</text><rect fill="#E2E2F0" height="32.6211" rx="2.5" ry="2.5" style="stroke:#181818;stroke-width:0.5;" width="91.8135" x="813.5391" y="50"/><text fill="#000000" font-family="sans-serif" font-size="14" lengthAdjust="spacing" textLength="77.8135" x="820.5391" y="72.1074">Repositories</text><rect fill="#E2E2F0" height="32.6211" rx="2.5" ry="2.5" style="stroke:#181818;stroke-width:0.5;" width="91.8135" x="813.5391" y="1423.8828"/><text fill="#000000" font-family="sans-serif" font-size="14" lengthAdjust="spacing" textLength="77.8135" x="820.5391" y="1445.9902">Repositories</text><rect fill="#E2E2F0" height="51.2422" rx="2.5" ry="2.5" style="stroke:#181818;stroke-width:0.5;" width="95.7031" x="915.3525" y="31.3789"/><text fill="#000000" font-family="sans-serif" font-size="14" lengthAdjust="spacing" textLength="72.3652" x="927.0215" y="53.4863">repositories</text><text fill="#000000" font-family="sans-serif" font-size="14" lengthAdjust="spacing" textLength="81.7031" x="922.3525" y="72.1074">:Repositories</text><rect fill="#E2E2F0" height="51.2422" rx="2.5" ry="2.5" style="stroke:#181818;stroke-width:0.5;" width="95.7031" x="915.3525" y="1423.8828"/><text fill="#000000" font-family="sans-serif" font-size="14" lengthAdjust="spacing" textLength="72.3652" x="927.0215" y="1445.9902">repositories</text><text fill="#000000" font-family="sans-serif" font-size="14" lengthAdjust="spacing" textLength="81.7031" x="922.3525" y="1464.6113">:Repositories</text><rect fill="#E2E2F0" height="51.2422" rx="2.5" ry="2.5" style="stroke:#181818;stroke-width:0.5;" width="156.3994" x="1021.0557" y="31.3789"/><text fill="#000000" font-family="sans-serif" font-size="14" lengthAdjust="spacing" textLength="133.834" x="1032.3384" y="53.4863">locomotiveRepository</text><text fill="#000000" font-family="sans-serif" font-size="14" lengthAdjust="spacing" textLength="142.3994" x="1028.0557" y="72.1074">:LocomotiveRepository</text><rect fill="#E2E2F0" height="51.2422" rx="2.5" ry="2.5" style="stroke:#181818;stroke-width:0.5;" width="156.3994" x="1021.0557" y="1423.8828"/><text fill="#000000" font-family="sans-serif" font-size="14" lengthAdjust="spacing" textLength="133.834" x="1032.3384" y="1445.9902">locomotiveRepository</text><text fill="#000000" font-family="sans-serif" font-size="14" lengthAdjust="spacing" textLength="142.3994" x="1028.0557" y="1464.6113">:LocomotiveRepository</text><rect fill="#E2E2F0" height="32.6211" rx="2.5" ry="2.5" style="stroke:#181818;stroke-width:0.5;" width="132.2959" x="1187.4551" y="50"/><text fill="#000000" font-family="sans-serif" font-size="14" lengthAdjust="spacing" textLength="118.2959" x="1194.4551" y="72.1074">ApplicationSession</text><rect fill="#E2E2F0" height="32.6211" rx="2.5" ry="2.5" style="stroke:#181818;stroke-width:0.5;" width="132.2959" x="1187.4551" y="1423.8828"/><text fill="#000000" font-family="sans-serif" font-size="14" lengthAdjust="spacing" textLength="118.2959" x="1194.4551" y="1445.9902">ApplicationSession</text><rect fill="#E2E2F0" height="51.2422" rx="2.5" ry="2.5" style="stroke:#181818;stroke-width:0.5;" width="136.1855" x="1329.751" y="31.3789"/><text fill="#000000" font-family="sans-serif" font-size="14" lengthAdjust="spacing" textLength="73.165" x="1361.2612" y="53.4863">appSession</text><text fill="#000000" font-family="sans-serif" font-size="14" lengthAdjust="spacing" textLength="122.1855" x="1336.751" y="72.1074">:ApplicationSession</text><rect fill="#E2E2F0" height="51.2422" rx="2.5" ry="2.5" style="stroke:#181818;stroke-width:0.5;" width="136.1855" x="1329.751" y="1423.8828"/><text fill="#000000" font-family="sans-serif" font-size="14" lengthAdjust="spacing" textLength="73.165" x="1361.2612" y="1445.9902">appSession</text><text fill="#000000" font-family="sans-serif" font-size="14" lengthAdjust="spacing" textLength="122.1855" x="1336.751" y="1464.6113">:ApplicationSession</text><rect fill="#E2E2F0" height="51.2422" rx="2.5" ry="2.5" style="stroke:#181818;stroke-width:0.5;" width="107.3789" x="1475.9365" y="31.3789"/><text fill="#000000" font-family="sans-serif" font-size="14" lengthAdjust="spacing" textLength="93.3789" x="1482.9365" y="53.4863">currentSession</text><text fill="#000000" font-family="sans-serif" font-size="14" lengthAdjust="spacing" textLength="83.2549" x="1487.9985" y="72.1074">:UserSession</text><rect fill="#E2E2F0" height="51.2422" rx="2.5" ry="2.5" style="stroke:#181818;stroke-width:0.5;" width="107.3789" x="1475.9365" y="1423.8828"/><text fill="#000000" font-family="sans-serif" font-size="14" lengthAdjust="spacing" textLength="93.3789" x="1482.9365" y="1445.9902">currentSession</text><text fill="#000000" font-family="sans-serif" font-size="14" lengthAdjust="spacing" textLength="83.2549" x="1487.9985" y="1464.6113">:UserSession</text><rect fill="#E2E2F0" height="51.2422" rx="2.5" ry="2.5" style="stroke:#181818;stroke-width:0.5;" width="89.4824" x="1593.3154" y="31.3789"/><text fill="#000000" font-family="sans-serif" font-size="14" lengthAdjust="spacing" textLength="66.917" x="1604.5981" y="53.4863">locomotive</text><text fill="#000000" font-family="sans-serif" font-size="14" lengthAdjust="spacing" textLength="75.4824" x="1600.3154" y="72.1074">:Locomotive</text><rect fill="#E2E2F0" height="51.2422" rx="2.5" ry="2.5" style="stroke:#181818;stroke-width:0.5;" width="89.4824" x="1593.3154" y="1423.8828"/><text fill="#000000" font-family="sans-serif" font-size="14" lengthAdjust="spacing" textLength="66.917" x="1604.5981" y="1445.9902">locomotive</text><text fill="#000000" font-family="sans-serif" font-size="14" lengthAdjust="spacing" textLength="75.4824" x="1600.3154" y="1464.6113">:Locomotive</text><rect fill="#FFFFFF" height="1313.2617" style="stroke:#181818;stroke-width:1.0;" width="10" x="22.8413" y="93.6211"/><rect fill="#FFFFFF" height="512.9863" style="stroke:#181818;stroke-width:1.0;" width="10" x="372.2954" y="116.9121"/><rect fill="#FFFFFF" height="745.6934" style="stroke:#181818;stroke-width:1.0;" width="10" x="372.2954" y="661.1895"/><rect fill="#FFFFFF" height="406.7832" style="stroke:#181818;stroke-width:1.0;" width="10" x="588.8315" y="191.8242"/><rect fill="#FFFFFF" height="683.1113" style="stroke:#181818;stroke-width:1.0;" width="10" x="588.8315" y="692.4805"/><rect fill="#FFFFFF" height="42.291" style="stroke:#181818;stroke-width:1.0;" width="10" x="593.8315" y="1169.8457"/><rect fill="#FFFFFF" height="31.291" style="stroke:#181818;stroke-width:1.0;" width="10" x="854.4458" y="223.1152"/><rect fill="#FFFFFF" height="31.291" style="stroke:#181818;stroke-width:1.0;" width="10" x="854.4458" y="723.7715"/><rect fill="#FFFFFF" height="31.291" style="stroke:#181818;stroke-width:1.0;" width="10" x="958.2041" y="285.6973"/><rect fill="#FFFFFF" height="31.291" style="stroke:#181818;stroke-width:1.0;" width="10" x="958.2041" y="786.3535"/><rect fill="#FFFFFF" height="31.291" style="stroke:#181818;stroke-width:1.0;" width="10" x="1094.2554" y="536.0254"/><rect fill="#FFFFFF" height="31.291" style="stroke:#181818;stroke-width:1.0;" width="10" x="1094.2554" y="848.9355"/><rect fill="#FFFFFF" height="31.291" style="stroke:#181818;stroke-width:1.0;" width="10" x="1248.603" y="348.2793"/><rect fill="#FFFFFF" height="31.291" style="stroke:#181818;stroke-width:1.0;" width="10" x="1248.603" y="911.5176"/><rect fill="#FFFFFF" height="31.291" style="stroke:#181818;stroke-width:1.0;" width="10" x="1392.8438" y="410.8613"/><rect fill="#FFFFFF" height="31.291" style="stroke:#181818;stroke-width:1.0;" width="10" x="1392.8438" y="974.0996"/><rect fill="#FFFFFF" height="31.291" style="stroke:#181818;stroke-width:1.0;" width="10" x="1524.626" y="473.4434"/><rect fill="#FFFFFF" height="31.291" style="stroke:#181818;stroke-width:1.0;" width="10" x="1524.626" y="1036.6816"/><rect fill="#FFFFFF" height="31.291" style="stroke:#181818;stroke-width:1.0;" width="10" x="1524.626" y="1250.4277"/><rect fill="#FFFFFF" height="31.291" style="stroke:#181818;stroke-width:1.0;" width="10" x="1524.626" y="1313.0098"/><rect fill="#FFFFFF" height="31.291" style="stroke:#181818;stroke-width:1.0;" width="10" x="1633.0566" y="1099.2637"/><polygon fill="#181818" points="360.2954,112.9121,370.2954,116.9121,360.2954,120.9121,364.2954,116.9121" style="stroke:#181818;stroke-width:1.0;"/><line style="stroke:#181818;stroke-width:1.0;" x1="32.8413" x2="366.2954" y1="116.9121" y2="116.9121"/><text fill="#000000" font-family="sans-serif" font-size="13" font-weight="bold" lengthAdjust="spacing" textLength="7.23" x="39.8413" y="111.6494">1</text><text fill="#000000" font-family="sans-serif" font-size="13" lengthAdjust="spacing" textLength="135.1099" x="51.0713" y="111.6494">requests locomotive list</text><polygon fill="#181818" points="494.6836,144.2031,504.6836,148.2031,494.6836,152.2031,498.6836,148.2031" style="stroke:#181818;stroke-width:1.0;"/><line style="stroke:#181818;stroke-width:1.0;stroke-dasharray:2.0,2.0;" x1="382.2954" x2="500.6836" y1="148.2031" y2="148.2031"/><text fill="#000000" font-family="sans-serif" font-size="13" font-weight="bold" lengthAdjust="spacing" textLength="7.23" x="389.2954" y="142.9404">2</text><text fill="#000000" font-family="sans-serif" font-size="13" lengthAdjust="spacing" textLength="44.7891" x="400.5254" y="142.9404">create()</text><rect fill="#E2E2F0" height="32.6211" rx="2.5" ry="2.5" style="stroke:#181818;stroke-width:0.5;" width="174.2959" x="506.6836" y="124.9121"/><text fill="#000000" font-family="sans-serif" font-size="14" lengthAdjust="spacing" textLength="160.2959" x="513.6836" y="147.0195">:BuyLocomotiveController</text><polygon fill="#181818" points="576.8315,187.8242,586.8315,191.8242,576.8315,195.8242,580.8315,191.8242" style="stroke:#181818;stroke-width:1.0;"/><line style="stroke:#181818;stroke-width:1.0;" x1="382.2954" x2="582.8315" y1="191.8242" y2="191.8242"/><text fill="#000000" font-family="sans-serif" font-size="13" font-weight="bold" lengthAdjust="spacing" textLength="7.23" x="389.2954" y="186.5615">3</text><text fill="#000000" font-family="sans-serif" font-size="13" lengthAdjust="spacing" textLength="152.4644" x="400.5254" y="186.5615">getAvailableLocomotives()</text><polygon fill="#181818" points="842.4458,219.1152,852.4458,223.1152,842.4458,227.1152,846.4458,223.1152" style="stroke:#181818;stroke-width:1.0;"/><line style="stroke:#181818;stroke-width:1.0;" x1="598.8315" x2="848.4458" y1="223.1152" y2="223.1152"/><text fill="#000000" font-family="sans-serif" font-size="13" font-weight="bold" lengthAdjust="spacing" textLength="7.23" x="605.8315" y="217.8525">4</text><text fill="#000000" font-family="sans-serif" font-size="13" lengthAdjust="spacing" textLength="75.8735" x="617.0615" y="217.8525">getInstance()</text><polygon fill="#181818" points="609.8315,250.4063,599.8315,254.4063,609.8315,258.4063,605.8315,254.4063" style="stroke:#181818;stroke-width:1.0;"/><line style="stroke:#181818;stroke-width:1.0;stroke-dasharray:2.0,2.0;" x1="603.8315" x2="858.4458" y1="254.4063" y2="254.4063"/><text fill="#000000" font-family="sans-serif" font-size="13" font-weight="bold" lengthAdjust="spacing" textLength="7.23" x="615.8315" y="249.1436">5</text><text fill="#000000" font-family="sans-serif" font-size="13" lengthAdjust="spacing" textLength="67.1963" x="627.0615" y="249.1436">repositories</text><polygon fill="#181818" points="946.2041,281.6973,956.2041,285.6973,946.2041,289.6973,950.2041,285.6973" style="stroke:#181818;stroke-width:1.0;"/><line style="stroke:#181818;stroke-width:1.0;" x1="598.8315" x2="952.2041" y1="285.6973" y2="285.6973"/><text fill="#000000" font-family="sans-serif" font-size="13" font-weight="bold" lengthAdjust="spacing" textLength="7.23" x="605.8315" y="280.4346">6</text><text fill="#000000" font-family="sans-serif" font-size="13" lengthAdjust="spacing" textLength="155.3462" x="617.0615" y="280.4346">getLocomotiveRepository()</text><polygon fill="#181818" points="609.8315,312.9883,599.8315,316.9883,609.8315,320.9883,605.8315,316.9883" style="stroke:#181818;stroke-width:1.0;"/><line style="stroke:#181818;stroke-width:1.0;stroke-dasharray:2.0,2.0;" x1="603.8315" x2="962.2041" y1="316.9883" y2="316.9883"/><text fill="#000000" font-family="sans-serif" font-size="13" font-weight="bold" lengthAdjust="spacing" textLength="7.23" x="615.8315" y="311.7256">7</text><text fill="#000000" font-family="sans-serif" font-size="13" lengthAdjust="spacing" textLength="124.2744" x="627.0615" y="311.7256">locomotiveRepository</text><polygon fill="#181818" points="1236.603,344.2793,1246.603,348.2793,1236.603,352.2793,1240.603,348.2793" style="stroke:#181818;stroke-width:1.0;"/><line style="stroke:#181818;stroke-width:1.0;" x1="598.8315" x2="1242.603" y1="348.2793" y2="348.2793"/><text fill="#000000" font-family="sans-serif" font-size="13" font-weight="bold" lengthAdjust="spacing" textLength="7.23" x="605.8315" y="343.0166">8</text><text fill="#000000" font-family="sans-serif" font-size="13" lengthAdjust="spacing" textLength="75.8735" x="617.0615" y="343.0166">getInstance()</text><polygon fill="#181818" points="609.8315,375.5703,599.8315,379.5703,609.8315,383.5703,605.8315,379.5703" style="stroke:#181818;stroke-width:1.0;"/><line style="stroke:#181818;stroke-width:1.0;stroke-dasharray:2.0,2.0;" x1="603.8315" x2="1252.603" y1="379.5703" y2="379.5703"/><text fill="#000000" font-family="sans-serif" font-size="13" font-weight="bold" lengthAdjust="spacing" textLength="7.23" x="615.8315" y="374.3076">9</text><text fill="#000000" font-family="sans-serif" font-size="13" lengthAdjust="spacing" textLength="67.939" x="627.0615" y="374.3076">appSession</text><polygon fill="#181818" points="1380.8438,406.8613,1390.8438,410.8613,1380.8438,414.8613,1384.8438,410.8613" style="stroke:#181818;stroke-width:1.0;"/><line style="stroke:#181818;stroke-width:1.0;" x1="598.8315" x2="1386.8438" y1="410.8613" y2="410.8613"/><text fill="#000000" font-family="sans-serif" font-size="13" font-weight="bold" lengthAdjust="spacing" textLength="14.46" x="605.8315" y="405.5986">10</text><text fill="#000000" font-family="sans-serif" font-size="13" lengthAdjust="spacing" textLength="116.3271" x="624.2915" y="405.5986">getCurrentSession()</text><polygon fill="#181818" points="609.8315,438.1523,599.8315,442.1523,609.8315,446.1523,605.8315,442.1523" style="stroke:#181818;stroke-width:1.0;"/><line style="stroke:#181818;stroke-width:1.0;stroke-dasharray:2.0,2.0;" x1="603.8315" x2="1396.8438" y1="442.1523" y2="442.1523"/><text fill="#000000" font-family="sans-serif" font-size="13" font-weight="bold" lengthAdjust="spacing" textLength="14.46" x="615.8315" y="436.8896">11</text><text fill="#000000" font-family="sans-serif" font-size="13" lengthAdjust="spacing" textLength="86.709" x="634.2915" y="436.8896">currentSession</text><polygon fill="#181818" points="1512.626,469.4434,1522.626,473.4434,1512.626,477.4434,1516.626,473.4434" style="stroke:#181818;stroke-width:1.0;"/><line style="stroke:#181818;stroke-width:1.0;" x1="598.8315" x2="1518.626" y1="473.4434" y2="473.4434"/><text fill="#000000" font-family="sans-serif" font-size="13" font-weight="bold" lengthAdjust="spacing" textLength="14.46" x="605.8315" y="468.1807">12</text><text fill="#000000" font-family="sans-serif" font-size="13" lengthAdjust="spacing" textLength="97.5381" x="624.2915" y="468.1807">getCurrentDate()</text><polygon fill="#181818" points="609.8315,500.7344,599.8315,504.7344,609.8315,508.7344,605.8315,504.7344" style="stroke:#181818;stroke-width:1.0;"/><line style="stroke:#181818;stroke-width:1.0;stroke-dasharray:2.0,2.0;" x1="603.8315" x2="1528.626" y1="504.7344" y2="504.7344"/><text fill="#000000" font-family="sans-serif" font-size="13" font-weight="bold" lengthAdjust="spacing" textLength="14.46" x="615.8315" y="499.4717">13</text><text fill="#000000" font-family="sans-serif" font-size="13" lengthAdjust="spacing" textLength="67.9199" x="634.2915" y="499.4717">currentDate</text><polygon fill="#181818" points="1082.2554,532.0254,1092.2554,536.0254,1082.2554,540.0254,1086.2554,536.0254" style="stroke:#181818;stroke-width:1.0;"/><line style="stroke:#181818;stroke-width:1.0;" x1="598.8315" x2="1088.2554" y1="536.0254" y2="536.0254"/><text fill="#000000" font-family="sans-serif" font-size="13" font-weight="bold" lengthAdjust="spacing" textLength="14.46" x="605.8315" y="530.7627">14</text><text fill="#000000" font-family="sans-serif" font-size="13" lengthAdjust="spacing" textLength="220.3843" x="624.2915" y="530.7627">getAvailableLocomotives(currentDate)</text><polygon fill="#181818" points="609.8315,563.3164,599.8315,567.3164,609.8315,571.3164,605.8315,567.3164" style="stroke:#181818;stroke-width:1.0;"/><line style="stroke:#181818;stroke-width:1.0;stroke-dasharray:2.0,2.0;" x1="603.8315" x2="1098.2554" y1="567.3164" y2="567.3164"/><text fill="#000000" font-family="sans-serif" font-size="13" font-weight="bold" lengthAdjust="spacing" textLength="14.46" x="615.8315" y="562.0537">15</text><text fill="#000000" font-family="sans-serif" font-size="13" lengthAdjust="spacing" textLength="144.5234" x="634.2915" y="562.0537">availableLocomotivesList</text><polygon fill="#181818" points="393.2954,594.6074,383.2954,598.6074,393.2954,602.6074,389.2954,598.6074" style="stroke:#181818;stroke-width:1.0;"/><line style="stroke:#181818;stroke-width:1.0;stroke-dasharray:2.0,2.0;" x1="387.2954" x2="592.8315" y1="598.6074" y2="598.6074"/><text fill="#000000" font-family="sans-serif" font-size="13" font-weight="bold" lengthAdjust="spacing" textLength="14.46" x="399.2954" y="593.3447">16</text><text fill="#000000" font-family="sans-serif" font-size="13" lengthAdjust="spacing" textLength="144.5234" x="417.7554" y="593.3447">availableLocomotivesList</text><polygon fill="#181818" points="43.8413,625.8984,33.8413,629.8984,43.8413,633.8984,39.8413,629.8984" style="stroke:#181818;stroke-width:1.0;"/><line style="stroke:#181818;stroke-width:1.0;stroke-dasharray:2.0,2.0;" x1="37.8413" x2="376.2954" y1="629.8984" y2="629.8984"/><text fill="#000000" font-family="sans-serif" font-size="13" font-weight="bold" lengthAdjust="spacing" textLength="14.46" x="49.8413" y="624.6357">17</text><text fill="#000000" font-family="sans-serif" font-size="13" lengthAdjust="spacing" textLength="296.9941" x="68.3013" y="624.6357">shows available locomotives and asks to select one</text><polygon fill="#181818" points="360.2954,657.1895,370.2954,661.1895,360.2954,665.1895,364.2954,661.1895" style="stroke:#181818;stroke-width:1.0;"/><line style="stroke:#181818;stroke-width:1.0;" x1="32.8413" x2="366.2954" y1="661.1895" y2="661.1895"/><text fill="#000000" font-family="sans-serif" font-size="13" font-weight="bold" lengthAdjust="spacing" textLength="14.46" x="39.8413" y="655.9268">18</text><text fill="#000000" font-family="sans-serif" font-size="13" lengthAdjust="spacing" textLength="156.0762" x="58.3013" y="655.9268">selects a locomotive to buy</text><polygon fill="#181818" points="576.8315,688.4805,586.8315,692.4805,576.8315,696.4805,580.8315,692.4805" style="stroke:#181818;stroke-width:1.0;"/><line style="stroke:#181818;stroke-width:1.0;" x1="382.2954" x2="582.8315" y1="692.4805" y2="692.4805"/><text fill="#000000" font-family="sans-serif" font-size="13" font-weight="bold" lengthAdjust="spacing" textLength="14.46" x="389.2954" y="687.2178">19</text><text fill="#000000" font-family="sans-serif" font-size="13" lengthAdjust="spacing" textLength="169.0762" x="407.7554" y="687.2178">buyLocomotive(locomotiveId)</text><polygon fill="#181818" points="842.4458,719.7715,852.4458,723.7715,842.4458,727.7715,846.4458,723.7715" style="stroke:#181818;stroke-width:1.0;"/><line style="stroke:#181818;stroke-width:1.0;" x1="598.8315" x2="848.4458" y1="723.7715" y2="723.7715"/><text fill="#000000" font-family="sans-serif" font-size="13" font-weight="bold" lengthAdjust="spacing" textLength="14.46" x="605.8315" y="718.5088">20</text><text fill="#000000" font-family="sans-serif" font-size="13" lengthAdjust="spacing" textLength="75.8735" x="624.2915" y="718.5088">getInstance()</text><polygon fill="#181818" points="609.8315,751.0625,599.8315,755.0625,609.8315,759.0625,605.8315,755.0625" style="stroke:#181818;stroke-width:1.0;"/><line style="stroke:#181818;stroke-width:1.0;stroke-dasharray:2.0,2.0;" x1="603.8315" x2="858.4458" y1="755.0625" y2="755.0625"/><text fill="#000000" font-family="sans-serif" font-size="13" font-weight="bold" lengthAdjust="spacing" textLength="14.46" x="615.8315" y="749.7998">21</text><text fill="#000000" font-family="sans-serif" font-size="13" lengthAdjust="spacing" textLength="67.1963" x="634.2915" y="749.7998">repositories</text><polygon fill="#181818" points="946.2041,782.3535,956.2041,786.3535,946.2041,790.3535,950.2041,786.3535" style="stroke:#181818;stroke-width:1.0;"/><line style="stroke:#181818;stroke-width:1.0;" x1="598.8315" x2="952.2041" y1="786.3535" y2="786.3535"/><text fill="#000000" font-family="sans-serif" font-size="13" font-weight="bold" lengthAdjust="spacing" textLength="14.46" x="605.8315" y="781.0908">22</text><text fill="#000000" font-family="sans-serif" font-size="13" lengthAdjust="spacing" textLength="155.3462" x="624.2915" y="781.0908">getLocomotiveRepository()</text><polygon fill="#181818" points="609.8315,813.6445,599.8315,817.6445,609.8315,821.6445,605.8315,817.6445" style="stroke:#181818;stroke-width:1.0;"/><line style="stroke:#181818;stroke-width:1.0;stroke-dasharray:2.0,2.0;" x1="603.8315" x2="962.2041" y1="817.6445" y2="817.6445"/><text fill="#000000" font-family="sans-serif" font-size="13" font-weight="bold" lengthAdjust="spacing" textLength="14.46" x="615.8315" y="812.3818">23</text><text fill="#000000" font-family="sans-serif" font-size="13" lengthAdjust="spacing" textLength="124.2744" x="634.2915" y="812.3818">locomotiveRepository</text><polygon fill="#181818" points="1082.2554,844.9355,1092.2554,848.9355,1082.2554,852.9355,1086.2554,848.9355" style="stroke:#181818;stroke-width:1.0;"/><line style="stroke:#181818;stroke-width:1.0;" x1="598.8315" x2="1088.2554" y1="848.9355" y2="848.9355"/><text fill="#000000" font-family="sans-serif" font-size="13" font-weight="bold" lengthAdjust="spacing" textLength="14.46" x="605.8315" y="843.6729">24</text><text fill="#000000" font-family="sans-serif" font-size="13" lengthAdjust="spacing" textLength="192.2007" x="624.2915" y="843.6729">getLocomotiveById(locomotiveId)</text><polygon fill="#181818" points="609.8315,876.2266,599.8315,880.2266,609.8315,884.2266,605.8315,880.2266" style="stroke:#181818;stroke-width:1.0;"/><line style="stroke:#181818;stroke-width:1.0;stroke-dasharray:2.0,2.0;" x1="603.8315" x2="1098.2554" y1="880.2266" y2="880.2266"/><text fill="#000000" font-family="sans-serif" font-size="13" font-weight="bold" lengthAdjust="spacing" textLength="14.46" x="615.8315" y="874.9639">25</text><text fill="#000000" font-family="sans-serif" font-size="13" lengthAdjust="spacing" textLength="62.1372" x="634.2915" y="874.9639">locomotive</text><polygon fill="#181818" points="1236.603,907.5176,1246.603,911.5176,1236.603,915.5176,1240.603,911.5176" style="stroke:#181818;stroke-width:1.0;"/><line style="stroke:#181818;stroke-width:1.0;" x1="598.8315" x2="1242.603" y1="911.5176" y2="911.5176"/><text fill="#000000" font-family="sans-serif" font-size="13" font-weight="bold" lengthAdjust="spacing" textLength="14.46" x="605.8315" y="906.2549">26</text><text fill="#000000" font-family="sans-serif" font-size="13" lengthAdjust="spacing" textLength="75.8735" x="624.2915" y="906.2549">getInstance()</text><polygon fill="#181818" points="609.8315,938.8086,599.8315,942.8086,609.8315,946.8086,605.8315,942.8086" style="stroke:#181818;stroke-width:1.0;"/><line style="stroke:#181818;stroke-width:1.0;stroke-dasharray:2.0,2.0;" x1="603.8315" x2="1252.603" y1="942.8086" y2="942.8086"/><text fill="#000000" font-family="sans-serif" font-size="13" font-weight="bold" lengthAdjust="spacing" textLength="14.46" x="615.8315" y="937.5459">27</text><text fill="#000000" font-family="sans-serif" font-size="13" lengthAdjust="spacing" textLength="67.939" x="634.2915" y="937.5459">appSession</text><polygon fill="#181818" points="1380.8438,970.0996,1390.8438,974.0996,1380.8438,978.0996,1384.8438,974.0996" style="stroke:#181818;stroke-width:1.0;"/><line style="stroke:#181818;stroke-width:1.0;" x1="598.8315" x2="1386.8438" y1="974.0996" y2="974.0996"/><text fill="#000000" font-family="sans-serif" font-size="13" font-weight="bold" lengthAdjust="spacing" textLength="14.46" x="605.8315" y="968.8369">28</text><text fill="#000000" font-family="sans-serif" font-size="13" lengthAdjust="spacing" textLength="116.3271" x="624.2915" y="968.8369">getCurrentSession()</text><polygon fill="#181818" points="609.8315,1001.3906,599.8315,1005.3906,609.8315,1009.3906,605.8315,1005.3906" style="stroke:#181818;stroke-width:1.0;"/><line style="stroke:#181818;stroke-width:1.0;stroke-dasharray:2.0,2.0;" x1="603.8315" x2="1396.8438" y1="1005.3906" y2="1005.3906"/><text fill="#000000" font-family="sans-serif" font-size="13" font-weight="bold" lengthAdjust="spacing" textLength="14.46" x="615.8315" y="1000.1279">29</text><text fill="#000000" font-family="sans-serif" font-size="13" lengthAdjust="spacing" textLength="86.709" x="634.2915" y="1000.1279">currentSession</text><polygon fill="#181818" points="1512.626,1032.6816,1522.626,1036.6816,1512.626,1040.6816,1516.626,1036.6816" style="stroke:#181818;stroke-width:1.0;"/><line style="stroke:#181818;stroke-width:1.0;" x1="598.8315" x2="1518.626" y1="1036.6816" y2="1036.6816"/><text fill="#000000" font-family="sans-serif" font-size="13" font-weight="bold" lengthAdjust="spacing" textLength="14.46" x="605.8315" y="1031.4189">30</text><text fill="#000000" font-family="sans-serif" font-size="13" lengthAdjust="spacing" textLength="63.5781" x="624.2915" y="1031.4189">getPlayer()</text><polygon fill="#181818" points="609.8315,1063.9727,599.8315,1067.9727,609.8315,1071.9727,605.8315,1067.9727" style="stroke:#181818;stroke-width:1.0;"/><line style="stroke:#181818;stroke-width:1.0;stroke-dasharray:2.0,2.0;" x1="603.8315" x2="1528.626" y1="1067.9727" y2="1067.9727"/><text fill="#000000" font-family="sans-serif" font-size="13" font-weight="bold" lengthAdjust="spacing" textLength="14.46" x="615.8315" y="1062.71">31</text><text fill="#000000" font-family="sans-serif" font-size="13" lengthAdjust="spacing" textLength="35.4072" x="634.2915" y="1062.71">player</text><polygon fill="#181818" points="1621.0566,1095.2637,1631.0566,1099.2637,1621.0566,1103.2637,1625.0566,1099.2637" style="stroke:#181818;stroke-width:1.0;"/><line style="stroke:#181818;stroke-width:1.0;" x1="598.8315" x2="1627.0566" y1="1099.2637" y2="1099.2637"/><text fill="#000000" font-family="sans-serif" font-size="13" font-weight="bold" lengthAdjust="spacing" textLength="14.46" x="605.8315" y="1094.001">32</text><text fill="#000000" font-family="sans-serif" font-size="13" lengthAdjust="spacing" textLength="56.3481" x="624.2915" y="1094.001">getPrice()</text><polygon fill="#181818" points="609.8315,1126.5547,599.8315,1130.5547,609.8315,1134.5547,605.8315,1130.5547" style="stroke:#181818;stroke-width:1.0;"/><line style="stroke:#181818;stroke-width:1.0;stroke-dasharray:2.0,2.0;" x1="603.8315" x2="1637.0566" y1="1130.5547" y2="1130.5547"/><text fill="#000000" font-family="sans-serif" font-size="13" font-weight="bold" lengthAdjust="spacing" textLength="14.46" x="615.8315" y="1125.292">33</text><text fill="#000000" font-family="sans-serif" font-size="13" lengthAdjust="spacing" textLength="28.1772" x="634.2915" y="1125.292">price</text><line style="stroke:#181818;stroke-width:1.0;" x1="598.8315" x2="645.8315" y1="1156.8457" y2="1156.8457"/><line style="stroke:#181818;stroke-width:1.0;" x1="645.8315" x2="645.8315" y1="1156.8457" y2="1169.8457"/><line style="stroke:#181818;stroke-width:1.0;" x1="604.8315" x2="645.8315" y1="1169.8457" y2="1169.8457"/><polygon fill="#181818" points="614.8315,1165.8457,604.8315,1169.8457,614.8315,1173.8457,610.8315,1169.8457" style="stroke:#181818;stroke-width:1.0;"/><text fill="#000000" font-family="sans-serif" font-size="13" font-weight="bold" lengthAdjust="spacing" textLength="14.46" x="610.8315" y="1151.583">34</text><text fill="#000000" font-family="sans-serif" font-size="13" lengthAdjust="spacing" textLength="213.1543" x="629.2915" y="1151.583">validatePurchase(player, locomotive)</text><line style="stroke:#181818;stroke-width:1.0;stroke-dasharray:2.0,2.0;" x1="603.8315" x2="645.8315" y1="1211.1367" y2="1211.1367"/><line style="stroke:#181818;stroke-width:1.0;stroke-dasharray:2.0,2.0;" x1="645.8315" x2="645.8315" y1="1211.1367" y2="1224.1367"/><line style="stroke:#181818;stroke-width:1.0;stroke-dasharray:2.0,2.0;" x1="598.8315" x2="645.8315" y1="1224.1367" y2="1224.1367"/><polygon fill="#181818" points="608.8315,1220.1367,598.8315,1224.1367,608.8315,1228.1367,604.8315,1224.1367" style="stroke:#181818;stroke-width:1.0;"/><text fill="#000000" font-family="sans-serif" font-size="13" font-weight="bold" lengthAdjust="spacing" textLength="14.46" x="610.8315" y="1205.874">35</text><text fill="#000000" font-family="sans-serif" font-size="13" lengthAdjust="spacing" textLength="96.8335" x="629.2915" y="1205.874">isValid (boolean)</text><polygon fill="#181818" points="1512.626,1246.4277,1522.626,1250.4277,1512.626,1254.4277,1516.626,1250.4277" style="stroke:#181818;stroke-width:1.0;"/><line style="stroke:#181818;stroke-width:1.0;" x1="598.8315" x2="1518.626" y1="1250.4277" y2="1250.4277"/><text fill="#000000" font-family="sans-serif" font-size="13" font-weight="bold" lengthAdjust="spacing" textLength="14.46" x="605.8315" y="1245.165">36</text><text fill="#000000" font-family="sans-serif" font-size="13" lengthAdjust="spacing" textLength="122.1289" x="624.2915" y="1245.165">updateBudget(-price)</text><polygon fill="#181818" points="609.8315,1277.7188,599.8315,1281.7188,609.8315,1285.7188,605.8315,1281.7188" style="stroke:#181818;stroke-width:1.0;"/><line style="stroke:#181818;stroke-width:1.0;stroke-dasharray:2.0,2.0;" x1="603.8315" x2="1528.626" y1="1281.7188" y2="1281.7188"/><text fill="#000000" font-family="sans-serif" font-size="13" font-weight="bold" lengthAdjust="spacing" textLength="14.46" x="615.8315" y="1276.4561">37</text><text fill="#000000" font-family="sans-serif" font-size="13" lengthAdjust="spacing" textLength="65.0508" x="634.2915" y="1276.4561">newBudget</text><polygon fill="#181818" points="1512.626,1309.0098,1522.626,1313.0098,1512.626,1317.0098,1516.626,1313.0098" style="stroke:#181818;stroke-width:1.0;"/><line style="stroke:#181818;stroke-width:1.0;" x1="598.8315" x2="1518.626" y1="1313.0098" y2="1313.0098"/><text fill="#000000" font-family="sans-serif" font-size="13" font-weight="bold" lengthAdjust="spacing" textLength="14.46" x="605.8315" y="1307.7471">38</text><text fill="#000000" font-family="sans-serif" font-size="13" lengthAdjust="spacing" textLength="203.0361" x="624.2915" y="1307.7471">addLocomotiveToFleet(locomotive)</text><polygon fill="#181818" points="609.8315,1340.3008,599.8315,1344.3008,609.8315,1348.3008,605.8315,1344.3008" style="stroke:#181818;stroke-width:1.0;"/><line style="stroke:#181818;stroke-width:1.0;stroke-dasharray:2.0,2.0;" x1="603.8315" x2="1528.626" y1="1344.3008" y2="1344.3008"/><text fill="#000000" font-family="sans-serif" font-size="13" font-weight="bold" lengthAdjust="spacing" textLength="14.46" x="615.8315" y="1339.0381">39</text><text fill="#000000" font-family="sans-serif" font-size="13" lengthAdjust="spacing" textLength="46.96" x="634.2915" y="1339.0381">success</text><polygon fill="#181818" points="393.2954,1371.5918,383.2954,1375.5918,393.2954,1379.5918,389.2954,1375.5918" style="stroke:#181818;stroke-width:1.0;"/><line style="stroke:#181818;stroke-width:1.0;stroke-dasharray:2.0,2.0;" x1="387.2954" x2="592.8315" y1="1375.5918" y2="1375.5918"/><text fill="#000000" font-family="sans-serif" font-size="13" font-weight="bold" lengthAdjust="spacing" textLength="14.46" x="399.2954" y="1370.3291">40</text><text fill="#000000" font-family="sans-serif" font-size="13" lengthAdjust="spacing" textLength="46.96" x="417.7554" y="1370.3291">success</text><polygon fill="#181818" points="38.8413,1402.8828,28.8413,1406.8828,38.8413,1410.8828,34.8413,1406.8828" style="stroke:#181818;stroke-width:1.0;"/><line style="stroke:#181818;stroke-width:1.0;stroke-dasharray:2.0,2.0;" x1="32.8413" x2="376.2954" y1="1406.8828" y2="1406.8828"/><text fill="#000000" font-family="sans-serif" font-size="13" font-weight="bold" lengthAdjust="spacing" textLength="14.46" x="44.8413" y="1401.6201">41</text><text fill="#000000" font-family="sans-serif" font-size="13" lengthAdjust="spacing" textLength="164.7471" x="63.3013" y="1401.6201">displays purchase confirmed</text><!--SRC=[xLVRZjem47tFLrZxicnLVe27IYobLQHqGGHMgbHfPHmlM6lir7ROylTrue0lwmIaKcaVrY_SPixC6P-P2RVoXR0I2hW3EyuusWg-mq292YVsbnAY5xZ1kJfG30H62h8DTGta5XRybR0DU8PKuYI1bUAisgsnI9BRBIamUEPShVcV12B51RYPKtZ0uWP02URP-ETqaMWaHH0f8LFWPdHV7JAE-8uhiiUhj35SfNr64ywKu9Isg9Fb8lFD5xZaakZe1Cl6P36TptBVHZWslzWexlAKfm_Vi-bozk0xqrCk9x-31iaYNpTWsMmo-p5Rfe_JfnhN1nkN9IK8Ai9PZgNKButFU3v_ogTvdeR1OLcsTZhaUUSk3gWI0ZDbeLOI2nTZibeifW_BU1As0XxlW6rIYu3ieSB7kq-0FkOz67xH5mr6McU_AooL11OKK29LOti2q9e0xT5UG-rSN_odJne02Qmj1dU9Ps4CzCyRhCPxI2XSKsnJbTh-Q7uAqcW9EAU1q52D70nMogHk2uGTVm_3Y0q4nm0Sqwv9My5vnWKEaBhpiLThCelfhpTBHnlHV9q0DlEO-7iPE56YN1onNbPXjpN2l5smeTM0RPgkL5tGSsc6XPzulNH1sZs5ZuTngFYDUm6TS_KF6jsZzDKqLfHFE2129Y7kMmurUXU143sQUZ1OUvhTYTX19npI8PqmbgkkICJiEC4YtC9G4Mx7uNWMsYrPFRt2ATaEsv5UtVnLMZodZ_MthD2J-qK2nO74L2z-m9cv6WTVZ-3O_3OE6iGTu1feNHrwH_YfV6jtkmyiI5fyZEZtCQAZVMQvt1_IekFUhjLY5lqVckfZrxpBNMF-8lo7DLCsm5VQC6skWdIBnNdoxPQsbs2DTbxG7RKq67j8IQ7jvvL0MoZnmB3-xBHCLsN3KUgjdnQUoCSw01YiEQSOihlESdhRfpuTs34LL6LDuRugT8a7mwOiTs_SBvR46Lam_6eYlN6yL1tzP61HsDcuvDyergIwRkEQn6I5a6xLAz0wxNQ32EBtsddxdddu858GMKjKWh9LB42SFHEnmuKF43nwE1yDrby0]--></g></svg>