<svg xmlns="http://www.w3.org/2000/svg" xmlns:xlink="http://www.w3.org/1999/xlink" contentStyleType="text/css" height="354px" preserveAspectRatio="none" style="width:574px;height:354px;background:#FFFFFF;" version="1.1" viewBox="0 0 574 354" width="574px" zoomAndPan="magnify"><defs/><g><rect fill="#FFFFFF" height="189.7461" style="stroke:#181818;stroke-width:1.0;" width="10" x="145.1226" y="90.5332"/><rect fill="#FFFFFF" height="31.291" style="stroke:#181818;stroke-width:1.0;" width="10" x="410.0723" y="148.1152"/><rect fill="#FFFFFF" height="31.291" style="stroke:#181818;stroke-width:1.0;" width="10" x="410.0723" y="210.6973"/><rect fill="none" height="144.4551" style="stroke:#000000;stroke-width:1.5;" width="425.7871" x="52.9746" y="105.5332"/><line style="stroke:#181818;stroke-width:0.5;stroke-dasharray:5.0,5.0;" x1="149.9746" x2="149.9746" y1="57.2422" y2="298.2793"/><line style="stroke:#181818;stroke-width:0.5;stroke-dasharray:5.0,5.0;" x1="414.3828" x2="414.3828" y1="57.2422" y2="298.2793"/><line style="stroke:#181818;stroke-width:0.5;stroke-dasharray:5.0,5.0;" x1="522.7617" x2="522.7617" y1="57.2422" y2="298.2793"/><rect fill="#E3E3E3" height="32.6211" rx="2.5" ry="2.5" style="stroke:#181818;stroke-width:0.5;" width="174.2959" x="62.9746" y="23.6211"/><text fill="#000000" font-family="sans-serif" font-size="14" lengthAdjust="spacing" textLength="160.2959" x="69.9746" y="45.7285">:BuyLocomotiveController</text><rect fill="#E3E3E3" height="32.6211" rx="2.5" ry="2.5" style="stroke:#181818;stroke-width:0.5;" width="174.2959" x="62.9746" y="297.2793"/><text fill="#000000" font-family="sans-serif" font-size="14" lengthAdjust="spacing" textLength="160.2959" x="69.9746" y="319.3867">:BuyLocomotiveController</text><rect fill="#E3E3E3" height="51.2422" rx="2.5" ry="2.5" style="stroke:#181818;stroke-width:0.5;" width="107.3789" x="361.3828" y="5"/><text fill="#000000" font-family="sans-serif" font-size="14" lengthAdjust="spacing" textLength="93.3789" x="368.3828" y="27.1074">currentSession</text><text fill="#000000" font-family="sans-serif" font-size="14" lengthAdjust="spacing" textLength="83.2549" x="373.4448" y="45.7285">:UserSession</text><rect fill="#E3E3E3" height="51.2422" rx="2.5" ry="2.5" style="stroke:#181818;stroke-width:0.5;" width="107.3789" x="361.3828" y="297.2793"/><text fill="#000000" font-family="sans-serif" font-size="14" lengthAdjust="spacing" textLength="93.3789" x="368.3828" y="319.3867">currentSession</text><text fill="#000000" font-family="sans-serif" font-size="14" lengthAdjust="spacing" textLength="83.2549" x="373.4448" y="338.0078">:UserSession</text><rect fill="#E3E3E3" height="51.2422" rx="2.5" ry="2.5" style="stroke:#181818;stroke-width:0.5;" width="89.4824" x="478.7617" y="5"/><text fill="#000000" font-family="sans-serif" font-size="14" lengthAdjust="spacing" textLength="66.917" x="490.0444" y="27.1074">locomotive</text><text fill="#000000" font-family="sans-serif" font-size="14" lengthAdjust="spacing" textLength="75.4824" x="485.7617" y="45.7285">:Locomotive</text><rect fill="#E3E3E3" height="51.2422" rx="2.5" ry="2.5" style="stroke:#181818;stroke-width:0.5;" width="89.4824" x="478.7617" y="297.2793"/><text fill="#000000" font-family="sans-serif" font-size="14" lengthAdjust="spacing" textLength="66.917" x="490.0444" y="319.3867">locomotive</text><text fill="#000000" font-family="sans-serif" font-size="14" lengthAdjust="spacing" textLength="75.4824" x="485.7617" y="338.0078">:Locomotive</text><rect fill="#FFFFFF" height="189.7461" style="stroke:#181818;stroke-width:1.0;" width="10" x="145.1226" y="90.5332"/><rect fill="#FFFFFF" height="31.291" style="stroke:#181818;stroke-width:1.0;" width="10" x="410.0723" y="148.1152"/><rect fill="#FFFFFF" height="31.291" style="stroke:#181818;stroke-width:1.0;" width="10" x="410.0723" y="210.6973"/><polygon fill="#181818" points="133.1226,86.5332,143.1226,90.5332,133.1226,94.5332,137.1226,90.5332" style="stroke:#181818;stroke-width:1.0;"/><line style="stroke:#181818;stroke-width:1.0;" x1="0" x2="139.1226" y1="90.5332" y2="90.5332"/><text fill="#000000" font-family="sans-serif" font-size="13" font-weight="bold" lengthAdjust="spacing" textLength="18.0718" x="7" y="85.2705">7.9</text><text fill="#000000" font-family="sans-serif" font-size="13" lengthAdjust="spacing" textLength="104.0508" x="29.0718" y="85.2705">[purchase is valid]</text><path d="M52.9746,105.5332 L219.3481,105.5332 L219.3481,114.8242 L209.3481,124.8242 L52.9746,124.8242 L52.9746,105.5332 " fill="#EEEEEE" style="stroke:#000000;stroke-width:1.5;"/><rect fill="none" height="144.4551" style="stroke:#000000;stroke-width:1.5;" width="425.7871" x="52.9746" y="105.5332"/><text fill="#000000" font-family="sans-serif" font-size="13" font-weight="bold" lengthAdjust="spacing" textLength="121.3735" x="67.9746" y="120.5615">Complete Purchase</text><polygon fill="#181818" points="398.0723,144.1152,408.0723,148.1152,398.0723,152.1152,402.0723,148.1152" style="stroke:#181818;stroke-width:1.0;"/><line style="stroke:#181818;stroke-width:1.0;" x1="155.1226" x2="404.0723" y1="148.1152" y2="148.1152"/><text fill="#000000" font-family="sans-serif" font-size="13" font-weight="bold" lengthAdjust="spacing" textLength="28.9136" x="162.1226" y="142.8525">7.9.1</text><text fill="#000000" font-family="sans-serif" font-size="13" lengthAdjust="spacing" textLength="122.1289" x="195.0361" y="142.8525">updateBudget(-price)</text><polygon fill="#181818" points="166.1226,175.4063,156.1226,179.4063,166.1226,183.4063,162.1226,179.4063" style="stroke:#181818;stroke-width:1.0;"/><line style="stroke:#181818;stroke-width:1.0;stroke-dasharray:2.0,2.0;" x1="160.1226" x2="414.0723" y1="179.4063" y2="179.4063"/><text fill="#000000" font-family="sans-serif" font-size="13" font-weight="bold" lengthAdjust="spacing" textLength="28.9136" x="172.1226" y="174.1436">7.9.2</text><text fill="#000000" font-family="sans-serif" font-size="13" lengthAdjust="spacing" textLength="65.0508" x="205.0361" y="174.1436">newBudget</text><polygon fill="#181818" points="398.0723,206.6973,408.0723,210.6973,398.0723,214.6973,402.0723,210.6973" style="stroke:#181818;stroke-width:1.0;"/><line style="stroke:#181818;stroke-width:1.0;" x1="155.1226" x2="404.0723" y1="210.6973" y2="210.6973"/><text fill="#000000" font-family="sans-serif" font-size="13" font-weight="bold" lengthAdjust="spacing" textLength="28.9136" x="162.1226" y="205.4346">7.9.3</text><text fill="#000000" font-family="sans-serif" font-size="13" lengthAdjust="spacing" textLength="203.0361" x="195.0361" y="205.4346">addLocomotiveToFleet(locomotive)</text><polygon fill="#181818" points="166.1226,237.9883,156.1226,241.9883,166.1226,245.9883,162.1226,241.9883" style="stroke:#181818;stroke-width:1.0;"/><line style="stroke:#181818;stroke-width:1.0;stroke-dasharray:2.0,2.0;" x1="160.1226" x2="414.0723" y1="241.9883" y2="241.9883"/><text fill="#000000" font-family="sans-serif" font-size="13" font-weight="bold" lengthAdjust="spacing" textLength="28.9136" x="172.1226" y="236.7256">7.9.4</text><text fill="#000000" font-family="sans-serif" font-size="13" lengthAdjust="spacing" textLength="81.6309" x="205.0361" y="236.7256">success (true)</text><polygon fill="#181818" points="11,276.2793,1,280.2793,11,284.2793,7,280.2793" style="stroke:#181818;stroke-width:1.0;"/><line style="stroke:#181818;stroke-width:1.0;stroke-dasharray:2.0,2.0;" x1="5" x2="149.1226" y1="280.2793" y2="280.2793"/><text fill="#000000" font-family="sans-serif" font-size="13" font-weight="bold" lengthAdjust="spacing" textLength="25.3018" x="17" y="275.0166">7.10</text><text fill="#000000" font-family="sans-serif" font-size="13" lengthAdjust="spacing" textLength="81.6309" x="46.3018" y="275.0166">success (true)</text><!--SRC=[hL9BRy8m3BxtLrYSu50qJjFGj0CLav0OdMZPPKDJbdWb8asYF43y-wKjQYaI4eVv5jlVmtRidajD32cXL5BHdL4bWZCU8zjMDA5xKc3cJWB187L45kAomUu8KqSk2_Wbmc8KXRJZb6iY7GocCtzQAgfAvVW14oMTKKAW6G2naEJhPR-TUcDGkWojvKf-oUd6eZc_6iXclPwlykzidcMBTDL7YrOe83lL6hXCa_GjpHSVyoWYtYdfonyqy3X-YkANsWbCuLDxGtV48d0B1o8usrvtZoSHeO6LE6pyGuZ2AAyXKQKM6FBlPvQwLaLDNydqtGT5hrbWcdbMe1l6sd2AenRM2LrD3HTnpHbtuqWyDimjWE5DpZlC4iQwhURgLM0mtItz_unRJsauEWohppYwntrLHicQANeNcppKkUSuli5-oHeQ_W00]--></g></svg>