<svg xmlns="http://www.w3.org/2000/svg" xmlns:xlink="http://www.w3.org/1999/xlink" contentStyleType="text/css" height="873px" preserveAspectRatio="none" style="width:3305px;height:873px;background:#FFFFFF;" version="1.1" viewBox="0 0 3305 873" width="3305px" zoomAndPan="magnify"><title>US04 - Class Diagram - Create a Scenario for a Selected Map</title><defs/><g><text fill="#000000" font-family="sans-serif" font-size="14" font-weight="bold" lengthAdjust="spacing" textLength="403.0469" x="1444.4126" y="25.1074">US04 - Class Diagram - Create a Scenario for a Selected Map</text><!--class CreateScenarioUI--><g id="elem_CreateScenarioUI"><rect codeLine="7" fill="#F1F1F1" height="196.9688" id="CreateScenarioUI" rx="2.5" ry="2.5" style="stroke:#181818;stroke-width:0.5;" width="444.6533" x="889.5" y="65.1211"/><ellipse cx="1051.939" cy="81.1211" fill="#C2C2C2" rx="11" ry="11" style="stroke:#181818;stroke-width:1.0;"/><path d="M1054.7046,76.9961 Q1054.8608,76.7773 1055.0483,76.668 Q1055.2358,76.5586 1055.4546,76.5586 Q1055.8296,76.5586 1056.064,76.8242 Q1056.2983,77.0742 1056.2983,77.6836 L1056.2983,79.1367 Q1056.2983,79.7461 1056.064,80.0117 Q1055.8296,80.2773 1055.4546,80.2773 Q1055.1108,80.2773 1054.9077,80.0742 Q1054.7046,79.8867 1054.5952,79.3711 Q1054.5483,79.0117 1054.3608,78.8242 Q1054.0327,78.4492 1053.4233,78.2305 Q1052.814,78.0117 1052.189,78.0117 Q1051.4233,78.0117 1050.7827,78.3398 Q1050.1577,78.668 1049.6577,79.418 Q1049.1733,80.168 1049.1733,81.1992 L1049.1733,82.293 Q1049.1733,83.5273 1050.064,84.3555 Q1050.9546,85.168 1052.5483,85.168 Q1053.4858,85.168 1054.1421,84.918 Q1054.5327,84.7617 1054.9546,84.3242 Q1055.2202,84.0586 1055.3608,83.9805 Q1055.5171,83.9023 1055.7202,83.9023 Q1056.0483,83.9023 1056.2983,84.168 Q1056.564,84.418 1056.564,84.7617 Q1056.564,85.1055 1056.2202,85.5117 Q1055.7202,86.0898 1054.9233,86.418 Q1053.8452,86.8711 1052.5483,86.8711 Q1051.0327,86.8711 1049.8296,86.2461 Q1048.8452,85.7461 1048.1577,84.6836 Q1047.4702,83.6055 1047.4702,82.3242 L1047.4702,81.168 Q1047.4702,79.8398 1048.0796,78.6992 Q1048.7046,77.543 1049.7983,76.9336 Q1050.8921,76.3086 1052.1265,76.3086 Q1052.8608,76.3086 1053.5015,76.4805 Q1054.1577,76.6367 1054.7046,76.9961 Z " fill="#000000"/><text fill="#000000" font-family="sans-serif" font-size="14" lengthAdjust="spacing" textLength="111.2754" x="1072.439" y="86.918">CreateScenarioUI</text><line style="stroke:#181818;stroke-width:0.5;" x1="890.5" x2="1333.1533" y1="97.1211" y2="97.1211"/><rect fill="none" height="6" style="stroke:#595959;stroke-width:1.0;" width="6" x="897.5" y="108.9316"/><text fill="#000000" font-family="sans-serif" font-size="14" lengthAdjust="spacing" textLength="223.3232" x="909.5" y="116.2285">controller: CreateScenarioController</text><line style="stroke:#181818;stroke-width:0.5;" x1="890.5" x2="1333.1533" y1="123.7422" y2="123.7422"/><ellipse cx="900.5" cy="138.5527" fill="#A6A6A6" rx="3" ry="3" style="stroke:#545454;stroke-width:1.0;"/><text fill="#000000" font-family="sans-serif" font-size="14" lengthAdjust="spacing" textLength="136.9512" x="909.5" y="142.8496">createScenario(): void</text><rect fill="#808080" height="6" style="stroke:#595959;stroke-width:1.0;" width="6" x="897.5" y="154.1738"/><text fill="#000000" font-family="sans-serif" font-size="14" lengthAdjust="spacing" textLength="211.6748" x="909.5" y="161.4707">validateRole(role: String): boolean</text><rect fill="#808080" height="6" style="stroke:#595959;stroke-width:1.0;" width="6" x="897.5" y="172.7949"/><text fill="#000000" font-family="sans-serif" font-size="14" lengthAdjust="spacing" textLength="216.3232" x="909.5" y="180.0918">saveSelectedMap(map: Map): void</text><rect fill="#808080" height="6" style="stroke:#595959;stroke-width:1.0;" width="6" x="897.5" y="191.416"/><text fill="#000000" font-family="sans-serif" font-size="14" lengthAdjust="spacing" textLength="384.3711" x="909.5" y="198.7129">saveData(name: String, startTime: Date, endTime: Date): void</text><rect fill="#808080" height="6" style="stroke:#595959;stroke-width:1.0;" width="6" x="897.5" y="210.0371"/><text fill="#000000" font-family="sans-serif" font-size="14" lengthAdjust="spacing" textLength="418.6533" x="909.5" y="217.334">saveSelectedLocomotiveTypes(types: List&lt;LocomotiveType&gt;): void</text><rect fill="#808080" height="6" style="stroke:#595959;stroke-width:1.0;" width="6" x="897.5" y="228.6582"/><text fill="#000000" font-family="sans-serif" font-size="14" lengthAdjust="spacing" textLength="375.0674" x="909.5" y="235.9551">saveSelectedIndustryTypes(types: List&lt;IndustryType&gt;): void</text><rect fill="#808080" height="6" style="stroke:#595959;stroke-width:1.0;" width="6" x="897.5" y="247.2793"/><text fill="#000000" font-family="sans-serif" font-size="14" lengthAdjust="spacing" textLength="353.2539" x="909.5" y="254.5762">saveHistoricalEvents(events: List&lt;HistoricalEvent&gt;): void</text></g><!--class CreateScenarioController--><g id="elem_CreateScenarioController"><rect codeLine="18" fill="#F1F1F1" height="141.1055" id="CreateScenarioController" rx="2.5" ry="2.5" style="stroke:#181818;stroke-width:0.5;" width="1273.3125" x="475.5" y="378.1211"/><ellipse cx="1028.9238" cy="394.1211" fill="#C2C2C2" rx="11" ry="11" style="stroke:#181818;stroke-width:1.0;"/><path d="M1031.6895,389.9961 Q1031.8457,389.7773 1032.0332,389.668 Q1032.2207,389.5586 1032.4395,389.5586 Q1032.8145,389.5586 1033.0488,389.8242 Q1033.2832,390.0742 1033.2832,390.6836 L1033.2832,392.1367 Q1033.2832,392.7461 1033.0488,393.0117 Q1032.8145,393.2773 1032.4395,393.2773 Q1032.0957,393.2773 1031.8926,393.0742 Q1031.6895,392.8867 1031.5801,392.3711 Q1031.5332,392.0117 1031.3457,391.8242 Q1031.0176,391.4492 1030.4082,391.2305 Q1029.7988,391.0117 1029.1738,391.0117 Q1028.4082,391.0117 1027.7676,391.3398 Q1027.1426,391.668 1026.6426,392.418 Q1026.1582,393.168 1026.1582,394.1992 L1026.1582,395.293 Q1026.1582,396.5273 1027.0488,397.3555 Q1027.9395,398.168 1029.5332,398.168 Q1030.4707,398.168 1031.127,397.918 Q1031.5176,397.7617 1031.9395,397.3242 Q1032.2051,397.0586 1032.3457,396.9805 Q1032.502,396.9023 1032.7051,396.9023 Q1033.0332,396.9023 1033.2832,397.168 Q1033.5488,397.418 1033.5488,397.7617 Q1033.5488,398.1055 1033.2051,398.5117 Q1032.7051,399.0898 1031.9082,399.418 Q1030.8301,399.8711 1029.5332,399.8711 Q1028.0176,399.8711 1026.8145,399.2461 Q1025.8301,398.7461 1025.1426,397.6836 Q1024.4551,396.6055 1024.4551,395.3242 L1024.4551,394.168 Q1024.4551,392.8398 1025.0645,391.6992 Q1025.6895,390.543 1026.7832,389.9336 Q1027.877,389.3086 1029.1113,389.3086 Q1029.8457,389.3086 1030.4863,389.4805 Q1031.1426,389.6367 1031.6895,389.9961 Z " fill="#000000"/><text fill="#000000" font-family="sans-serif" font-size="14" lengthAdjust="spacing" textLength="157.9648" x="1049.4238" y="399.918">CreateScenarioController</text><line style="stroke:#181818;stroke-width:0.5;" x1="476.5" x2="1747.8125" y1="410.1211" y2="410.1211"/><line style="stroke:#181818;stroke-width:0.5;" x1="476.5" x2="1747.8125" y1="418.1211" y2="418.1211"/><ellipse cx="486.5" cy="432.9316" fill="#A6A6A6" rx="3" ry="3" style="stroke:#545454;stroke-width:1.0;"/><text fill="#000000" font-family="sans-serif" font-size="14" lengthAdjust="spacing" textLength="178.1719" x="495.5" y="437.2285">getCurrentUserRole(): String</text><ellipse cx="486.5" cy="451.5527" fill="#A6A6A6" rx="3" ry="3" style="stroke:#545454;stroke-width:1.0;"/><text fill="#000000" font-family="sans-serif" font-size="14" lengthAdjust="spacing" textLength="150.958" x="495.5" y="455.8496">getMapList(): List&lt;Map&gt;</text><ellipse cx="486.5" cy="470.1738" fill="#A6A6A6" rx="3" ry="3" style="stroke:#545454;stroke-width:1.0;"/><text fill="#000000" font-family="sans-serif" font-size="14" lengthAdjust="spacing" textLength="301.9229" x="495.5" y="474.4707">getLocomotiveTypeList(): List&lt;LocomotiveType&gt;</text><ellipse cx="486.5" cy="488.7949" fill="#A6A6A6" rx="3" ry="3" style="stroke:#545454;stroke-width:1.0;"/><text fill="#000000" font-family="sans-serif" font-size="14" lengthAdjust="spacing" textLength="258.3369" x="495.5" y="493.0918">getIndustryTypeList(): List&lt;IndustryType&gt;</text><ellipse cx="486.5" cy="507.416" fill="#A6A6A6" rx="3" ry="3" style="stroke:#545454;stroke-width:1.0;"/><text fill="#000000" font-family="sans-serif" font-size="14" lengthAdjust="spacing" textLength="1247.3125" x="495.5" y="511.7129">createScenario(map: Map, name: String, startTime: Date, endTime: Date, locomotiveTypes: List&lt;LocomotiveType&gt;, industryTypes: List&lt;IndustryType&gt;, historicalEvents: List&lt;HistoricalEvent&gt;): Scenario</text></g><!--class MapRepository--><g id="elem_MapRepository"><rect codeLine="26" fill="#F1F1F1" height="66.6211" id="MapRepository" rx="2.5" ry="2.5" style="stroke:#181818;stroke-width:0.5;" width="177.7305" x="7" y="799.6211"/><ellipse cx="45.2106" cy="815.6211" fill="#C2C2C2" rx="11" ry="11" style="stroke:#181818;stroke-width:1.0;"/><path d="M47.9762,811.4961 Q48.1325,811.2773 48.32,811.168 Q48.5075,811.0586 48.7262,811.0586 Q49.1012,811.0586 49.3356,811.3242 Q49.57,811.5742 49.57,812.1836 L49.57,813.6367 Q49.57,814.2461 49.3356,814.5117 Q49.1012,814.7773 48.7262,814.7773 Q48.3825,814.7773 48.1793,814.5742 Q47.9762,814.3867 47.8668,813.8711 Q47.82,813.5117 47.6325,813.3242 Q47.3043,812.9492 46.695,812.7305 Q46.0856,812.5117 45.4606,812.5117 Q44.695,812.5117 44.0543,812.8398 Q43.4293,813.168 42.9293,813.918 Q42.445,814.668 42.445,815.6992 L42.445,816.793 Q42.445,818.0273 43.3356,818.8555 Q44.2262,819.668 45.82,819.668 Q46.7575,819.668 47.4137,819.418 Q47.8043,819.2617 48.2262,818.8242 Q48.4918,818.5586 48.6325,818.4805 Q48.7887,818.4023 48.9918,818.4023 Q49.32,818.4023 49.57,818.668 Q49.8356,818.918 49.8356,819.2617 Q49.8356,819.6055 49.4918,820.0117 Q48.9918,820.5898 48.195,820.918 Q47.1168,821.3711 45.82,821.3711 Q44.3043,821.3711 43.1012,820.7461 Q42.1168,820.2461 41.4293,819.1836 Q40.7418,818.1055 40.7418,816.8242 L40.7418,815.668 Q40.7418,814.3398 41.3512,813.1992 Q41.9762,812.043 43.07,811.4336 Q44.1637,810.8086 45.3981,810.8086 Q46.1325,810.8086 46.7731,810.9805 Q47.4293,811.1367 47.9762,811.4961 Z " fill="#000000"/><text fill="#000000" font-family="sans-serif" font-size="14" lengthAdjust="spacing" textLength="94.1514" x="64.3685" y="821.418">MapRepository</text><line style="stroke:#181818;stroke-width:0.5;" x1="8" x2="183.7305" y1="831.6211" y2="831.6211"/><line style="stroke:#181818;stroke-width:0.5;" x1="8" x2="183.7305" y1="839.6211" y2="839.6211"/><ellipse cx="18" cy="854.4316" fill="#A6A6A6" rx="3" ry="3" style="stroke:#545454;stroke-width:1.0;"/><text fill="#000000" font-family="sans-serif" font-size="14" lengthAdjust="spacing" textLength="151.7305" x="27" y="858.7285">getAllMaps(): List&lt;Map&gt;</text></g><!--class LocomotiveTypeRepository--><g id="elem_LocomotiveTypeRepository"><rect codeLine="30" fill="#F1F1F1" height="66.6211" id="LocomotiveTypeRepository" rx="2.5" ry="2.5" style="stroke:#181818;stroke-width:0.5;" width="328.6953" x="129.5" y="644.1211"/><ellipse cx="204.7808" cy="660.1211" fill="#C2C2C2" rx="11" ry="11" style="stroke:#181818;stroke-width:1.0;"/><path d="M207.5464,655.9961 Q207.7026,655.7773 207.8901,655.668 Q208.0776,655.5586 208.2964,655.5586 Q208.6714,655.5586 208.9058,655.8242 Q209.1401,656.0742 209.1401,656.6836 L209.1401,658.1367 Q209.1401,658.7461 208.9058,659.0117 Q208.6714,659.2773 208.2964,659.2773 Q207.9526,659.2773 207.7495,659.0742 Q207.5464,658.8867 207.437,658.3711 Q207.3901,658.0117 207.2026,657.8242 Q206.8745,657.4492 206.2651,657.2305 Q205.6558,657.0117 205.0308,657.0117 Q204.2651,657.0117 203.6245,657.3398 Q202.9995,657.668 202.4995,658.418 Q202.0151,659.168 202.0151,660.1992 L202.0151,661.293 Q202.0151,662.5273 202.9058,663.3555 Q203.7964,664.168 205.3901,664.168 Q206.3276,664.168 206.9839,663.918 Q207.3745,663.7617 207.7964,663.3242 Q208.062,663.0586 208.2026,662.9805 Q208.3589,662.9023 208.562,662.9023 Q208.8901,662.9023 209.1401,663.168 Q209.4058,663.418 209.4058,663.7617 Q209.4058,664.1055 209.062,664.5117 Q208.562,665.0898 207.7651,665.418 Q206.687,665.8711 205.3901,665.8711 Q203.8745,665.8711 202.6714,665.2461 Q201.687,664.7461 200.9995,663.6836 Q200.312,662.6055 200.312,661.3242 L200.312,660.168 Q200.312,658.8398 200.9214,657.6992 Q201.5464,656.543 202.6401,655.9336 Q203.7339,655.3086 204.9683,655.3086 Q205.7026,655.3086 206.3433,655.4805 Q206.9995,655.6367 207.5464,655.9961 Z " fill="#000000"/><text fill="#000000" font-family="sans-serif" font-size="14" lengthAdjust="spacing" textLength="169.6338" x="225.2808" y="665.918">LocomotiveTypeRepository</text><line style="stroke:#181818;stroke-width:0.5;" x1="130.5" x2="457.1953" y1="676.1211" y2="676.1211"/><line style="stroke:#181818;stroke-width:0.5;" x1="130.5" x2="457.1953" y1="684.1211" y2="684.1211"/><ellipse cx="140.5" cy="698.9316" fill="#A6A6A6" rx="3" ry="3" style="stroke:#545454;stroke-width:1.0;"/><text fill="#000000" font-family="sans-serif" font-size="14" lengthAdjust="spacing" textLength="302.6953" x="149.5" y="703.2285">getAllLocomotiveTypes(): List&lt;LocomotiveType&gt;</text></g><!--class IndustryTypeRepository--><g id="elem_IndustryTypeRepository"><rect codeLine="34" fill="#F1F1F1" height="66.6211" id="IndustryTypeRepository" rx="2.5" ry="2.5" style="stroke:#181818;stroke-width:0.5;" width="285.1094" x="493.5" y="644.1211"/><ellipse cx="557.8843" cy="660.1211" fill="#C2C2C2" rx="11" ry="11" style="stroke:#181818;stroke-width:1.0;"/><path d="M560.6499,655.9961 Q560.8062,655.7773 560.9937,655.668 Q561.1812,655.5586 561.3999,655.5586 Q561.7749,655.5586 562.0093,655.8242 Q562.2437,656.0742 562.2437,656.6836 L562.2437,658.1367 Q562.2437,658.7461 562.0093,659.0117 Q561.7749,659.2773 561.3999,659.2773 Q561.0562,659.2773 560.853,659.0742 Q560.6499,658.8867 560.5405,658.3711 Q560.4937,658.0117 560.3062,657.8242 Q559.978,657.4492 559.3687,657.2305 Q558.7593,657.0117 558.1343,657.0117 Q557.3687,657.0117 556.728,657.3398 Q556.103,657.668 555.603,658.418 Q555.1187,659.168 555.1187,660.1992 L555.1187,661.293 Q555.1187,662.5273 556.0093,663.3555 Q556.8999,664.168 558.4937,664.168 Q559.4312,664.168 560.0874,663.918 Q560.478,663.7617 560.8999,663.3242 Q561.1655,663.0586 561.3062,662.9805 Q561.4624,662.9023 561.6655,662.9023 Q561.9937,662.9023 562.2437,663.168 Q562.5093,663.418 562.5093,663.7617 Q562.5093,664.1055 562.1655,664.5117 Q561.6655,665.0898 560.8687,665.418 Q559.7905,665.8711 558.4937,665.8711 Q556.978,665.8711 555.7749,665.2461 Q554.7905,664.7461 554.103,663.6836 Q553.4155,662.6055 553.4155,661.3242 L553.4155,660.168 Q553.4155,658.8398 554.0249,657.6992 Q554.6499,656.543 555.7437,655.9336 Q556.8374,655.3086 558.0718,655.3086 Q558.8062,655.3086 559.4468,655.4805 Q560.103,655.6367 560.6499,655.9961 Z " fill="#000000"/><text fill="#000000" font-family="sans-serif" font-size="14" lengthAdjust="spacing" textLength="147.8408" x="578.3843" y="665.918">IndustryTypeRepository</text><line style="stroke:#181818;stroke-width:0.5;" x1="494.5" x2="777.6094" y1="676.1211" y2="676.1211"/><line style="stroke:#181818;stroke-width:0.5;" x1="494.5" x2="777.6094" y1="684.1211" y2="684.1211"/><ellipse cx="504.5" cy="698.9316" fill="#A6A6A6" rx="3" ry="3" style="stroke:#545454;stroke-width:1.0;"/><text fill="#000000" font-family="sans-serif" font-size="14" lengthAdjust="spacing" textLength="259.1094" x="513.5" y="703.2285">getAllIndustryTypes(): List&lt;IndustryType&gt;</text></g><!--class ScenarioRepository--><g id="elem_ScenarioRepository"><rect codeLine="38" fill="#F1F1F1" height="66.6211" id="ScenarioRepository" rx="2.5" ry="2.5" style="stroke:#181818;stroke-width:0.5;" width="269.5645" x="814" y="644.1211"/><ellipse cx="883.4463" cy="660.1211" fill="#C2C2C2" rx="11" ry="11" style="stroke:#181818;stroke-width:1.0;"/><path d="M886.2119,655.9961 Q886.3682,655.7773 886.5557,655.668 Q886.7432,655.5586 886.9619,655.5586 Q887.3369,655.5586 887.5713,655.8242 Q887.8057,656.0742 887.8057,656.6836 L887.8057,658.1367 Q887.8057,658.7461 887.5713,659.0117 Q887.3369,659.2773 886.9619,659.2773 Q886.6182,659.2773 886.415,659.0742 Q886.2119,658.8867 886.1025,658.3711 Q886.0557,658.0117 885.8682,657.8242 Q885.54,657.4492 884.9307,657.2305 Q884.3213,657.0117 883.6963,657.0117 Q882.9307,657.0117 882.29,657.3398 Q881.665,657.668 881.165,658.418 Q880.6807,659.168 880.6807,660.1992 L880.6807,661.293 Q880.6807,662.5273 881.5713,663.3555 Q882.4619,664.168 884.0557,664.168 Q884.9932,664.168 885.6494,663.918 Q886.04,663.7617 886.4619,663.3242 Q886.7275,663.0586 886.8682,662.9805 Q887.0244,662.9023 887.2275,662.9023 Q887.5557,662.9023 887.8057,663.168 Q888.0713,663.418 888.0713,663.7617 Q888.0713,664.1055 887.7275,664.5117 Q887.2275,665.0898 886.4307,665.418 Q885.3525,665.8711 884.0557,665.8711 Q882.54,665.8711 881.3369,665.2461 Q880.3525,664.7461 879.665,663.6836 Q878.9775,662.6055 878.9775,661.3242 L878.9775,660.168 Q878.9775,658.8398 879.5869,657.6992 Q880.2119,656.543 881.3057,655.9336 Q882.3994,655.3086 883.6338,655.3086 Q884.3682,655.3086 885.0088,655.4805 Q885.665,655.6367 886.2119,655.9961 Z " fill="#000000"/><text fill="#000000" font-family="sans-serif" font-size="14" lengthAdjust="spacing" textLength="122.1719" x="903.9463" y="665.918">ScenarioRepository</text><line style="stroke:#181818;stroke-width:0.5;" x1="815" x2="1082.5645" y1="676.1211" y2="676.1211"/><line style="stroke:#181818;stroke-width:0.5;" x1="815" x2="1082.5645" y1="684.1211" y2="684.1211"/><ellipse cx="825" cy="698.9316" fill="#A6A6A6" rx="3" ry="3" style="stroke:#545454;stroke-width:1.0;"/><text fill="#000000" font-family="sans-serif" font-size="14" lengthAdjust="spacing" textLength="243.5645" x="834" y="703.2285">saveScenario(scenario: Scenario): void</text></g><!--class ScenarioService--><g id="elem_ScenarioService"><rect codeLine="42" fill="#F1F1F1" height="66.6211" id="ScenarioService" rx="2.5" ry="2.5" style="stroke:#181818;stroke-width:0.5;" width="312.3916" x="1119" y="644.1211"/><ellipse cx="1219.9771" cy="660.1211" fill="#C2C2C2" rx="11" ry="11" style="stroke:#181818;stroke-width:1.0;"/><path d="M1222.7427,655.9961 Q1222.8989,655.7773 1223.0864,655.668 Q1223.2739,655.5586 1223.4927,655.5586 Q1223.8677,655.5586 1224.1021,655.8242 Q1224.3364,656.0742 1224.3364,656.6836 L1224.3364,658.1367 Q1224.3364,658.7461 1224.1021,659.0117 Q1223.8677,659.2773 1223.4927,659.2773 Q1223.1489,659.2773 1222.9458,659.0742 Q1222.7427,658.8867 1222.6333,658.3711 Q1222.5864,658.0117 1222.3989,657.8242 Q1222.0708,657.4492 1221.4614,657.2305 Q1220.8521,657.0117 1220.2271,657.0117 Q1219.4614,657.0117 1218.8208,657.3398 Q1218.1958,657.668 1217.6958,658.418 Q1217.2114,659.168 1217.2114,660.1992 L1217.2114,661.293 Q1217.2114,662.5273 1218.1021,663.3555 Q1218.9927,664.168 1220.5864,664.168 Q1221.5239,664.168 1222.1802,663.918 Q1222.5708,663.7617 1222.9927,663.3242 Q1223.2583,663.0586 1223.3989,662.9805 Q1223.5552,662.9023 1223.7583,662.9023 Q1224.0864,662.9023 1224.3364,663.168 Q1224.6021,663.418 1224.6021,663.7617 Q1224.6021,664.1055 1224.2583,664.5117 Q1223.7583,665.0898 1222.9614,665.418 Q1221.8833,665.8711 1220.5864,665.8711 Q1219.0708,665.8711 1217.8677,665.2461 Q1216.8833,664.7461 1216.1958,663.6836 Q1215.5083,662.6055 1215.5083,661.3242 L1215.5083,660.168 Q1215.5083,658.8398 1216.1177,657.6992 Q1216.7427,656.543 1217.8364,655.9336 Q1218.9302,655.3086 1220.1646,655.3086 Q1220.8989,655.3086 1221.5396,655.4805 Q1222.1958,655.6367 1222.7427,655.9961 Z " fill="#000000"/><text fill="#000000" font-family="sans-serif" font-size="14" lengthAdjust="spacing" textLength="101.9375" x="1240.4771" y="665.918">ScenarioService</text><line style="stroke:#181818;stroke-width:0.5;" x1="1120" x2="1430.3916" y1="676.1211" y2="676.1211"/><line style="stroke:#181818;stroke-width:0.5;" x1="1120" x2="1430.3916" y1="684.1211" y2="684.1211"/><ellipse cx="1130" cy="698.9316" fill="#A6A6A6" rx="3" ry="3" style="stroke:#545454;stroke-width:1.0;"/><text fill="#000000" font-family="sans-serif" font-size="14" lengthAdjust="spacing" textLength="286.3916" x="1139" y="703.2285">validateScenario(scenario: Scenario): boolean</text></g><!--class GameRepository--><g id="elem_GameRepository"><rect codeLine="46" fill="#F1F1F1" height="66.6211" id="GameRepository" rx="2.5" ry="2.5" style="stroke:#181818;stroke-width:0.5;" width="250.8682" x="1466.5" y="644.1211"/><ellipse cx="1535.1636" cy="660.1211" fill="#C2C2C2" rx="11" ry="11" style="stroke:#181818;stroke-width:1.0;"/><path d="M1537.9292,655.9961 Q1538.0854,655.7773 1538.2729,655.668 Q1538.4604,655.5586 1538.6792,655.5586 Q1539.0542,655.5586 1539.2886,655.8242 Q1539.5229,656.0742 1539.5229,656.6836 L1539.5229,658.1367 Q1539.5229,658.7461 1539.2886,659.0117 Q1539.0542,659.2773 1538.6792,659.2773 Q1538.3354,659.2773 1538.1323,659.0742 Q1537.9292,658.8867 1537.8198,658.3711 Q1537.7729,658.0117 1537.5854,657.8242 Q1537.2573,657.4492 1536.6479,657.2305 Q1536.0386,657.0117 1535.4136,657.0117 Q1534.6479,657.0117 1534.0073,657.3398 Q1533.3823,657.668 1532.8823,658.418 Q1532.3979,659.168 1532.3979,660.1992 L1532.3979,661.293 Q1532.3979,662.5273 1533.2886,663.3555 Q1534.1792,664.168 1535.7729,664.168 Q1536.7104,664.168 1537.3667,663.918 Q1537.7573,663.7617 1538.1792,663.3242 Q1538.4448,663.0586 1538.5854,662.9805 Q1538.7417,662.9023 1538.9448,662.9023 Q1539.2729,662.9023 1539.5229,663.168 Q1539.7886,663.418 1539.7886,663.7617 Q1539.7886,664.1055 1539.4448,664.5117 Q1538.9448,665.0898 1538.1479,665.418 Q1537.0698,665.8711 1535.7729,665.8711 Q1534.2573,665.8711 1533.0542,665.2461 Q1532.0698,664.7461 1531.3823,663.6836 Q1530.6948,662.6055 1530.6948,661.3242 L1530.6948,660.168 Q1530.6948,658.8398 1531.3042,657.6992 Q1531.9292,656.543 1533.0229,655.9336 Q1534.1167,655.3086 1535.3511,655.3086 Q1536.0854,655.3086 1536.7261,655.4805 Q1537.3823,655.6367 1537.9292,655.9961 Z " fill="#000000"/><text fill="#000000" font-family="sans-serif" font-size="14" lengthAdjust="spacing" textLength="105.041" x="1555.6636" y="665.918">GameRepository</text><line style="stroke:#181818;stroke-width:0.5;" x1="1467.5" x2="1716.3682" y1="676.1211" y2="676.1211"/><line style="stroke:#181818;stroke-width:0.5;" x1="1467.5" x2="1716.3682" y1="684.1211" y2="684.1211"/><ellipse cx="1477.5" cy="698.9316" fill="#A6A6A6" rx="3" ry="3" style="stroke:#545454;stroke-width:1.0;"/><text fill="#000000" font-family="sans-serif" font-size="14" lengthAdjust="spacing" textLength="224.8682" x="1486.5" y="703.2285">getMapRepository(): MapRepository</text></g><!--class AuthenticationService--><g id="elem_AuthenticationService"><rect codeLine="50" fill="#F1F1F1" height="66.6211" id="AuthenticationService" rx="2.5" ry="2.5" style="stroke:#181818;stroke-width:0.5;" width="267.9785" x="1753" y="644.1211"/><ellipse cx="1815.0327" cy="660.1211" fill="#C2C2C2" rx="11" ry="11" style="stroke:#181818;stroke-width:1.0;"/><path d="M1817.7983,655.9961 Q1817.9546,655.7773 1818.1421,655.668 Q1818.3296,655.5586 1818.5483,655.5586 Q1818.9233,655.5586 1819.1577,655.8242 Q1819.3921,656.0742 1819.3921,656.6836 L1819.3921,658.1367 Q1819.3921,658.7461 1819.1577,659.0117 Q1818.9233,659.2773 1818.5483,659.2773 Q1818.2046,659.2773 1818.0015,659.0742 Q1817.7983,658.8867 1817.689,658.3711 Q1817.6421,658.0117 1817.4546,657.8242 Q1817.1265,657.4492 1816.5171,657.2305 Q1815.9077,657.0117 1815.2827,657.0117 Q1814.5171,657.0117 1813.8765,657.3398 Q1813.2515,657.668 1812.7515,658.418 Q1812.2671,659.168 1812.2671,660.1992 L1812.2671,661.293 Q1812.2671,662.5273 1813.1577,663.3555 Q1814.0483,664.168 1815.6421,664.168 Q1816.5796,664.168 1817.2358,663.918 Q1817.6265,663.7617 1818.0483,663.3242 Q1818.314,663.0586 1818.4546,662.9805 Q1818.6108,662.9023 1818.814,662.9023 Q1819.1421,662.9023 1819.3921,663.168 Q1819.6577,663.418 1819.6577,663.7617 Q1819.6577,664.1055 1819.314,664.5117 Q1818.814,665.0898 1818.0171,665.418 Q1816.939,665.8711 1815.6421,665.8711 Q1814.1265,665.8711 1812.9233,665.2461 Q1811.939,664.7461 1811.2515,663.6836 Q1810.564,662.6055 1810.564,661.3242 L1810.564,660.168 Q1810.564,658.8398 1811.1733,657.6992 Q1811.7983,656.543 1812.8921,655.9336 Q1813.9858,655.3086 1815.2202,655.3086 Q1815.9546,655.3086 1816.5952,655.4805 Q1817.2515,655.6367 1817.7983,655.9961 Z " fill="#000000"/><text fill="#000000" font-family="sans-serif" font-size="14" lengthAdjust="spacing" textLength="135.4131" x="1835.5327" y="665.918">AuthenticationService</text><line style="stroke:#181818;stroke-width:0.5;" x1="1754" x2="2019.9785" y1="676.1211" y2="676.1211"/><line style="stroke:#181818;stroke-width:0.5;" x1="1754" x2="2019.9785" y1="684.1211" y2="684.1211"/><ellipse cx="1764" cy="698.9316" fill="#A6A6A6" rx="3" ry="3" style="stroke:#545454;stroke-width:1.0;"/><text fill="#000000" font-family="sans-serif" font-size="14" lengthAdjust="spacing" textLength="241.9785" x="1773" y="703.2285">getCurrentUserSession(): UserSession</text></g><!--class UserSession--><g id="elem_UserSession"><rect codeLine="54" fill="#F1F1F1" height="66.6211" id="UserSession" rx="2.5" ry="2.5" style="stroke:#181818;stroke-width:0.5;" width="202.627" x="2056.5" y="644.1211"/><ellipse cx="2113.8809" cy="660.1211" fill="#C2C2C2" rx="11" ry="11" style="stroke:#181818;stroke-width:1.0;"/><path d="M2116.6465,655.9961 Q2116.8027,655.7773 2116.9902,655.668 Q2117.1777,655.5586 2117.3965,655.5586 Q2117.7715,655.5586 2118.0059,655.8242 Q2118.2402,656.0742 2118.2402,656.6836 L2118.2402,658.1367 Q2118.2402,658.7461 2118.0059,659.0117 Q2117.7715,659.2773 2117.3965,659.2773 Q2117.0527,659.2773 2116.8496,659.0742 Q2116.6465,658.8867 2116.5371,658.3711 Q2116.4902,658.0117 2116.3027,657.8242 Q2115.9746,657.4492 2115.3652,657.2305 Q2114.7559,657.0117 2114.1309,657.0117 Q2113.3652,657.0117 2112.7246,657.3398 Q2112.0996,657.668 2111.5996,658.418 Q2111.1152,659.168 2111.1152,660.1992 L2111.1152,661.293 Q2111.1152,662.5273 2112.0059,663.3555 Q2112.8965,664.168 2114.4902,664.168 Q2115.4277,664.168 2116.084,663.918 Q2116.4746,663.7617 2116.8965,663.3242 Q2117.1621,663.0586 2117.3027,662.9805 Q2117.459,662.9023 2117.6621,662.9023 Q2117.9902,662.9023 2118.2402,663.168 Q2118.5059,663.418 2118.5059,663.7617 Q2118.5059,664.1055 2118.1621,664.5117 Q2117.6621,665.0898 2116.8652,665.418 Q2115.7871,665.8711 2114.4902,665.8711 Q2112.9746,665.8711 2111.7715,665.2461 Q2110.7871,664.7461 2110.0996,663.6836 Q2109.4121,662.6055 2109.4121,661.3242 L2109.4121,660.168 Q2109.4121,658.8398 2110.0215,657.6992 Q2110.6465,656.543 2111.7402,655.9336 Q2112.834,655.3086 2114.0684,655.3086 Q2114.8027,655.3086 2115.4434,655.4805 Q2116.0996,655.6367 2116.6465,655.9961 Z " fill="#000000"/><text fill="#000000" font-family="sans-serif" font-size="14" lengthAdjust="spacing" textLength="79.3652" x="2134.3809" y="665.918">UserSession</text><line style="stroke:#181818;stroke-width:0.5;" x1="2057.5" x2="2258.127" y1="676.1211" y2="676.1211"/><line style="stroke:#181818;stroke-width:0.5;" x1="2057.5" x2="2258.127" y1="684.1211" y2="684.1211"/><ellipse cx="2067.5" cy="698.9316" fill="#A6A6A6" rx="3" ry="3" style="stroke:#545454;stroke-width:1.0;"/><text fill="#000000" font-family="sans-serif" font-size="14" lengthAdjust="spacing" textLength="176.627" x="2076.5" y="703.2285">getUserRoles(): List&lt;String&gt;</text></g><!--class Map--><g id="elem_Map"><rect codeLine="58" fill="#F1F1F1" height="234.2109" id="Map" rx="2.5" ry="2.5" style="stroke:#181818;stroke-width:0.5;" width="1203.2852" x="1955.5" y="46.6211"/><ellipse cx="2539.2754" cy="62.6211" fill="#C2C2C2" rx="11" ry="11" style="stroke:#181818;stroke-width:1.0;"/><path d="M2542.041,58.4961 Q2542.1973,58.2773 2542.3848,58.168 Q2542.5723,58.0586 2542.791,58.0586 Q2543.166,58.0586 2543.4004,58.3242 Q2543.6348,58.5742 2543.6348,59.1836 L2543.6348,60.6367 Q2543.6348,61.2461 2543.4004,61.5117 Q2543.166,61.7773 2542.791,61.7773 Q2542.4473,61.7773 2542.2441,61.5742 Q2542.041,61.3867 2541.9316,60.8711 Q2541.8848,60.5117 2541.6973,60.3242 Q2541.3691,59.9492 2540.7598,59.7305 Q2540.1504,59.5117 2539.5254,59.5117 Q2538.7598,59.5117 2538.1191,59.8398 Q2537.4941,60.168 2536.9941,60.918 Q2536.5098,61.668 2536.5098,62.6992 L2536.5098,63.793 Q2536.5098,65.0273 2537.4004,65.8555 Q2538.291,66.668 2539.8848,66.668 Q2540.8223,66.668 2541.4785,66.418 Q2541.8691,66.2617 2542.291,65.8242 Q2542.5566,65.5586 2542.6973,65.4805 Q2542.8535,65.4023 2543.0566,65.4023 Q2543.3848,65.4023 2543.6348,65.668 Q2543.9004,65.918 2543.9004,66.2617 Q2543.9004,66.6055 2543.5566,67.0117 Q2543.0566,67.5898 2542.2598,67.918 Q2541.1816,68.3711 2539.8848,68.3711 Q2538.3691,68.3711 2537.166,67.7461 Q2536.1816,67.2461 2535.4941,66.1836 Q2534.8066,65.1055 2534.8066,63.8242 L2534.8066,62.668 Q2534.8066,61.3398 2535.416,60.1992 Q2536.041,59.043 2537.1348,58.4336 Q2538.2285,57.8086 2539.4629,57.8086 Q2540.1973,57.8086 2540.8379,57.9805 Q2541.4941,58.1367 2542.041,58.4961 Z " fill="#000000"/><text fill="#000000" font-family="sans-serif" font-size="14" lengthAdjust="spacing" textLength="27.2344" x="2559.7754" y="68.418">Map</text><line style="stroke:#181818;stroke-width:0.5;" x1="1956.5" x2="3157.7852" y1="78.6211" y2="78.6211"/><rect fill="none" height="6" style="stroke:#595959;stroke-width:1.0;" width="6" x="1963.5" y="90.4316"/><text fill="#000000" font-family="sans-serif" font-size="14" lengthAdjust="spacing" textLength="49.8203" x="1975.5" y="97.7285">id: Long</text><rect fill="none" height="6" style="stroke:#595959;stroke-width:1.0;" width="6" x="1963.5" y="109.0527"/><text fill="#000000" font-family="sans-serif" font-size="14" lengthAdjust="spacing" textLength="79.3721" x="1975.5" y="116.3496">name: String</text><rect fill="none" height="6" style="stroke:#595959;stroke-width:1.0;" width="6" x="1963.5" y="127.6738"/><text fill="#000000" font-family="sans-serif" font-size="14" lengthAdjust="spacing" textLength="55.248" x="1975.5" y="134.9707">width: int</text><rect fill="none" height="6" style="stroke:#595959;stroke-width:1.0;" width="6" x="1963.5" y="146.2949"/><text fill="#000000" font-family="sans-serif" font-size="14" lengthAdjust="spacing" textLength="60.71" x="1975.5" y="153.5918">height: int</text><rect fill="none" height="6" style="stroke:#595959;stroke-width:1.0;" width="6" x="1963.5" y="164.916"/><text fill="#000000" font-family="sans-serif" font-size="14" lengthAdjust="spacing" textLength="132.2959" x="1975.5" y="172.2129">regions: List&lt;Object&gt;</text><rect fill="none" height="6" style="stroke:#595959;stroke-width:1.0;" width="6" x="1963.5" y="183.5371"/><text fill="#000000" font-family="sans-serif" font-size="14" lengthAdjust="spacing" textLength="161.0889" x="1975.5" y="190.834">scenarios: List&lt;Scenario&gt;</text><rect fill="none" height="6" style="stroke:#595959;stroke-width:1.0;" width="6" x="1963.5" y="202.1582"/><text fill="#000000" font-family="sans-serif" font-size="14" lengthAdjust="spacing" textLength="137.751" x="1975.5" y="209.4551">stations: List&lt;Station&gt;</text><rect fill="none" height="6" style="stroke:#595959;stroke-width:1.0;" width="6" x="1963.5" y="220.7793"/><text fill="#000000" font-family="sans-serif" font-size="14" lengthAdjust="spacing" textLength="155.6338" x="1975.5" y="228.0762">industries: List&lt;Industry&gt;</text><rect fill="none" height="6" style="stroke:#595959;stroke-width:1.0;" width="6" x="1963.5" y="239.4004"/><text fill="#000000" font-family="sans-serif" font-size="14" lengthAdjust="spacing" textLength="101.9238" x="1975.5" y="246.6973">cities: List&lt;City&gt;</text><line style="stroke:#181818;stroke-width:0.5;" x1="1956.5" x2="3157.7852" y1="254.2109" y2="254.2109"/><ellipse cx="1966.5" cy="269.0215" fill="#A6A6A6" rx="3" ry="3" style="stroke:#545454;stroke-width:1.0;"/><text fill="#000000" font-family="sans-serif" font-size="14" lengthAdjust="spacing" textLength="1177.2852" x="1975.5" y="273.3184">createScenario(name: String, startTime: Date, endTime: Date, locomotiveTypes: List&lt;LocomotiveType&gt;, industryTypes: List&lt;IndustryType&gt;, historicalEvents: List&lt;HistoricalEvent&gt;): Scenario</text></g><!--class Scenario--><g id="elem_Scenario"><rect codeLine="71" fill="#F1F1F1" height="178.3477" id="Scenario" rx="2.5" ry="2.5" style="stroke:#181818;stroke-width:0.5;" width="331.8262" x="2391" y="359.6211"/><ellipse cx="2525.0356" cy="375.6211" fill="#C2C2C2" rx="11" ry="11" style="stroke:#181818;stroke-width:1.0;"/><path d="M2527.8013,371.4961 Q2527.9575,371.2773 2528.145,371.168 Q2528.3325,371.0586 2528.5513,371.0586 Q2528.9263,371.0586 2529.1606,371.3242 Q2529.395,371.5742 2529.395,372.1836 L2529.395,373.6367 Q2529.395,374.2461 2529.1606,374.5117 Q2528.9263,374.7773 2528.5513,374.7773 Q2528.2075,374.7773 2528.0044,374.5742 Q2527.8013,374.3867 2527.6919,373.8711 Q2527.645,373.5117 2527.4575,373.3242 Q2527.1294,372.9492 2526.52,372.7305 Q2525.9106,372.5117 2525.2856,372.5117 Q2524.52,372.5117 2523.8794,372.8398 Q2523.2544,373.168 2522.7544,373.918 Q2522.27,374.668 2522.27,375.6992 L2522.27,376.793 Q2522.27,378.0273 2523.1606,378.8555 Q2524.0513,379.668 2525.645,379.668 Q2526.5825,379.668 2527.2388,379.418 Q2527.6294,379.2617 2528.0513,378.8242 Q2528.3169,378.5586 2528.4575,378.4805 Q2528.6138,378.4023 2528.8169,378.4023 Q2529.145,378.4023 2529.395,378.668 Q2529.6606,378.918 2529.6606,379.2617 Q2529.6606,379.6055 2529.3169,380.0117 Q2528.8169,380.5898 2528.02,380.918 Q2526.9419,381.3711 2525.645,381.3711 Q2524.1294,381.3711 2522.9263,380.7461 Q2521.9419,380.2461 2521.2544,379.1836 Q2520.5669,378.1055 2520.5669,376.8242 L2520.5669,375.668 Q2520.5669,374.3398 2521.1763,373.1992 Q2521.8013,372.043 2522.895,371.4336 Q2523.9888,370.8086 2525.2231,370.8086 Q2525.9575,370.8086 2526.5981,370.9805 Q2527.2544,371.1367 2527.8013,371.4961 Z " fill="#000000"/><text fill="#000000" font-family="sans-serif" font-size="14" lengthAdjust="spacing" textLength="55.2549" x="2545.5356" y="381.418">Scenario</text><line style="stroke:#181818;stroke-width:0.5;" x1="2392" x2="2721.8262" y1="391.6211" y2="391.6211"/><rect fill="none" height="6" style="stroke:#595959;stroke-width:1.0;" width="6" x="2399" y="403.4316"/><text fill="#000000" font-family="sans-serif" font-size="14" lengthAdjust="spacing" textLength="79.3721" x="2411" y="410.7285">name: String</text><rect fill="none" height="6" style="stroke:#595959;stroke-width:1.0;" width="6" x="2399" y="422.0527"/><text fill="#000000" font-family="sans-serif" font-size="14" lengthAdjust="spacing" textLength="95.6895" x="2411" y="429.3496">startTime: Date</text><rect fill="none" height="6" style="stroke:#595959;stroke-width:1.0;" width="6" x="2399" y="440.6738"/><text fill="#000000" font-family="sans-serif" font-size="14" lengthAdjust="spacing" textLength="91.8203" x="2411" y="447.9707">endTime: Date</text><rect fill="none" height="6" style="stroke:#595959;stroke-width:1.0;" width="6" x="2399" y="459.2949"/><text fill="#000000" font-family="sans-serif" font-size="14" lengthAdjust="spacing" textLength="305.8262" x="2411" y="466.5918">allowedLocomotiveTypes: List&lt;LocomotiveType&gt;</text><rect fill="none" height="6" style="stroke:#595959;stroke-width:1.0;" width="6" x="2399" y="477.916"/><text fill="#000000" font-family="sans-serif" font-size="14" lengthAdjust="spacing" textLength="262.2402" x="2411" y="485.2129">allowedIndustryTypes: List&lt;IndustryType&gt;</text><rect fill="none" height="6" style="stroke:#595959;stroke-width:1.0;" width="6" x="2399" y="496.5371"/><text fill="#000000" font-family="sans-serif" font-size="14" lengthAdjust="spacing" textLength="237.3232" x="2411" y="503.834">historicalEvents: List&lt;HistoricalEvent&gt;</text><line style="stroke:#181818;stroke-width:0.5;" x1="2392" x2="2721.8262" y1="511.3477" y2="511.3477"/><ellipse cx="2402" cy="526.1582" fill="#A6A6A6" rx="3" ry="3" style="stroke:#545454;stroke-width:1.0;"/><text fill="#000000" font-family="sans-serif" font-size="14" lengthAdjust="spacing" textLength="144.7578" x="2411" y="530.4551">validateData(): boolean</text></g><!--class LocomotiveType--><g id="elem_LocomotiveType"><rect codeLine="81" fill="#F1F1F1" height="122.4844" id="LocomotiveType" rx="2.5" ry="2.5" style="stroke:#181818;stroke-width:0.5;" width="134.7168" x="2294.5" y="616.6211"/><ellipse cx="2309.5" cy="632.6211" fill="#C2C2C2" rx="11" ry="11" style="stroke:#181818;stroke-width:1.0;"/><path d="M2312.2656,628.4961 Q2312.4219,628.2773 2312.6094,628.168 Q2312.7969,628.0586 2313.0156,628.0586 Q2313.3906,628.0586 2313.625,628.3242 Q2313.8594,628.5742 2313.8594,629.1836 L2313.8594,630.6367 Q2313.8594,631.2461 2313.625,631.5117 Q2313.3906,631.7773 2313.0156,631.7773 Q2312.6719,631.7773 2312.4688,631.5742 Q2312.2656,631.3867 2312.1563,630.8711 Q2312.1094,630.5117 2311.9219,630.3242 Q2311.5938,629.9492 2310.9844,629.7305 Q2310.375,629.5117 2309.75,629.5117 Q2308.9844,629.5117 2308.3438,629.8398 Q2307.7188,630.168 2307.2188,630.918 Q2306.7344,631.668 2306.7344,632.6992 L2306.7344,633.793 Q2306.7344,635.0273 2307.625,635.8555 Q2308.5156,636.668 2310.1094,636.668 Q2311.0469,636.668 2311.7031,636.418 Q2312.0938,636.2617 2312.5156,635.8242 Q2312.7813,635.5586 2312.9219,635.4805 Q2313.0781,635.4023 2313.2813,635.4023 Q2313.6094,635.4023 2313.8594,635.668 Q2314.125,635.918 2314.125,636.2617 Q2314.125,636.6055 2313.7813,637.0117 Q2313.2813,637.5898 2312.4844,637.918 Q2311.4063,638.3711 2310.1094,638.3711 Q2308.5938,638.3711 2307.3906,637.7461 Q2306.4063,637.2461 2305.7188,636.1836 Q2305.0313,635.1055 2305.0313,633.8242 L2305.0313,632.668 Q2305.0313,631.3398 2305.6406,630.1992 Q2306.2656,629.043 2307.3594,628.4336 Q2308.4531,627.8086 2309.6875,627.8086 Q2310.4219,627.8086 2311.0625,627.9805 Q2311.7188,628.1367 2312.2656,628.4961 Z " fill="#000000"/><text fill="#000000" font-family="sans-serif" font-size="14" lengthAdjust="spacing" textLength="102.7168" x="2323.5" y="638.418">LocomotiveType</text><line style="stroke:#181818;stroke-width:0.5;" x1="2295.5" x2="2428.2168" y1="648.6211" y2="648.6211"/><rect fill="none" height="6" style="stroke:#595959;stroke-width:1.0;" width="6" x="2302.5" y="660.4316"/><text fill="#000000" font-family="sans-serif" font-size="14" lengthAdjust="spacing" textLength="79.3721" x="2314.5" y="667.7285">name: String</text><rect fill="none" height="6" style="stroke:#595959;stroke-width:1.0;" width="6" x="2302.5" y="679.0527"/><text fill="#000000" font-family="sans-serif" font-size="14" lengthAdjust="spacing" textLength="87.9648" x="2314.5" y="686.3496">speed: double</text><rect fill="none" height="6" style="stroke:#595959;stroke-width:1.0;" width="6" x="2302.5" y="697.6738"/><text fill="#000000" font-family="sans-serif" font-size="14" lengthAdjust="spacing" textLength="87.9512" x="2314.5" y="704.9707">power: double</text><rect fill="none" height="6" style="stroke:#595959;stroke-width:1.0;" width="6" x="2302.5" y="716.2949"/><text fill="#000000" font-family="sans-serif" font-size="14" lengthAdjust="spacing" textLength="75.4961" x="2314.5" y="723.5918">cost: double</text><line style="stroke:#181818;stroke-width:0.5;" x1="2295.5" x2="2428.2168" y1="731.1055" y2="731.1055"/></g><!--class IndustryType--><g id="elem_IndustryType"><rect codeLine="88" fill="#F1F1F1" height="103.8633" id="IndustryType" rx="2.5" ry="2.5" style="stroke:#181818;stroke-width:0.5;" width="184.7715" x="2464.5" y="625.6211"/><ellipse cx="2512.1738" cy="641.6211" fill="#C2C2C2" rx="11" ry="11" style="stroke:#181818;stroke-width:1.0;"/><path d="M2514.9395,637.4961 Q2515.0957,637.2773 2515.2832,637.168 Q2515.4707,637.0586 2515.6895,637.0586 Q2516.0645,637.0586 2516.2988,637.3242 Q2516.5332,637.5742 2516.5332,638.1836 L2516.5332,639.6367 Q2516.5332,640.2461 2516.2988,640.5117 Q2516.0645,640.7773 2515.6895,640.7773 Q2515.3457,640.7773 2515.1426,640.5742 Q2514.9395,640.3867 2514.8301,639.8711 Q2514.7832,639.5117 2514.5957,639.3242 Q2514.2676,638.9492 2513.6582,638.7305 Q2513.0488,638.5117 2512.4238,638.5117 Q2511.6582,638.5117 2511.0176,638.8398 Q2510.3926,639.168 2509.8926,639.918 Q2509.4082,640.668 2509.4082,641.6992 L2509.4082,642.793 Q2509.4082,644.0273 2510.2988,644.8555 Q2511.1895,645.668 2512.7832,645.668 Q2513.7207,645.668 2514.377,645.418 Q2514.7676,645.2617 2515.1895,644.8242 Q2515.4551,644.5586 2515.5957,644.4805 Q2515.752,644.4023 2515.9551,644.4023 Q2516.2832,644.4023 2516.5332,644.668 Q2516.7988,644.918 2516.7988,645.2617 Q2516.7988,645.6055 2516.4551,646.0117 Q2515.9551,646.5898 2515.1582,646.918 Q2514.0801,647.3711 2512.7832,647.3711 Q2511.2676,647.3711 2510.0645,646.7461 Q2509.0801,646.2461 2508.3926,645.1836 Q2507.7051,644.1055 2507.7051,642.8242 L2507.7051,641.668 Q2507.7051,640.3398 2508.3145,639.1992 Q2508.9395,638.043 2510.0332,637.4336 Q2511.127,636.8086 2512.3613,636.8086 Q2513.0957,636.8086 2513.7363,636.9805 Q2514.3926,637.1367 2514.9395,637.4961 Z " fill="#000000"/><text fill="#000000" font-family="sans-serif" font-size="14" lengthAdjust="spacing" textLength="80.9238" x="2532.6738" y="647.418">IndustryType</text><line style="stroke:#181818;stroke-width:0.5;" x1="2465.5" x2="2648.2715" y1="657.6211" y2="657.6211"/><rect fill="none" height="6" style="stroke:#595959;stroke-width:1.0;" width="6" x="2472.5" y="669.4316"/><text fill="#000000" font-family="sans-serif" font-size="14" lengthAdjust="spacing" textLength="79.3721" x="2484.5" y="676.7285">name: String</text><rect fill="none" height="6" style="stroke:#595959;stroke-width:1.0;" width="6" x="2472.5" y="688.0527"/><text fill="#000000" font-family="sans-serif" font-size="14" lengthAdjust="spacing" textLength="144.7715" x="2484.5" y="695.3496">productionRate: double</text><rect fill="none" height="6" style="stroke:#595959;stroke-width:1.0;" width="6" x="2472.5" y="706.6738"/><text fill="#000000" font-family="sans-serif" font-size="14" lengthAdjust="spacing" textLength="158.7715" x="2484.5" y="713.9707">consumptionRate: double</text><line style="stroke:#181818;stroke-width:0.5;" x1="2465.5" x2="2648.2715" y1="721.4844" y2="721.4844"/></g><!--class HistoricalEvent--><g id="elem_HistoricalEvent"><rect codeLine="94" fill="#F1F1F1" height="122.4844" id="HistoricalEvent" rx="2.5" ry="2.5" style="stroke:#181818;stroke-width:0.5;" width="138.0547" x="2685" y="616.6211"/><ellipse cx="2705.7103" cy="632.6211" fill="#C2C2C2" rx="11" ry="11" style="stroke:#181818;stroke-width:1.0;"/><path d="M2708.4759,628.4961 Q2708.6321,628.2773 2708.8196,628.168 Q2709.0071,628.0586 2709.2259,628.0586 Q2709.6009,628.0586 2709.8353,628.3242 Q2710.0696,628.5742 2710.0696,629.1836 L2710.0696,630.6367 Q2710.0696,631.2461 2709.8353,631.5117 Q2709.6009,631.7773 2709.2259,631.7773 Q2708.8821,631.7773 2708.679,631.5742 Q2708.4759,631.3867 2708.3665,630.8711 Q2708.3196,630.5117 2708.1321,630.3242 Q2707.804,629.9492 2707.1946,629.7305 Q2706.5853,629.5117 2705.9603,629.5117 Q2705.1946,629.5117 2704.554,629.8398 Q2703.929,630.168 2703.429,630.918 Q2702.9446,631.668 2702.9446,632.6992 L2702.9446,633.793 Q2702.9446,635.0273 2703.8353,635.8555 Q2704.7259,636.668 2706.3196,636.668 Q2707.2571,636.668 2707.9134,636.418 Q2708.304,636.2617 2708.7259,635.8242 Q2708.9915,635.5586 2709.1321,635.4805 Q2709.2884,635.4023 2709.4915,635.4023 Q2709.8196,635.4023 2710.0696,635.668 Q2710.3353,635.918 2710.3353,636.2617 Q2710.3353,636.6055 2709.9915,637.0117 Q2709.4915,637.5898 2708.6946,637.918 Q2707.6165,638.3711 2706.3196,638.3711 Q2704.804,638.3711 2703.6009,637.7461 Q2702.6165,637.2461 2701.929,636.1836 Q2701.2415,635.1055 2701.2415,633.8242 L2701.2415,632.668 Q2701.2415,631.3398 2701.8509,630.1992 Q2702.4759,629.043 2703.5696,628.4336 Q2704.6634,627.8086 2705.8978,627.8086 Q2706.6321,627.8086 2707.2728,627.9805 Q2707.929,628.1367 2708.4759,628.4961 Z " fill="#000000"/><text fill="#000000" font-family="sans-serif" font-size="14" lengthAdjust="spacing" textLength="93.3652" x="2720.9792" y="638.418">HistoricalEvent</text><line style="stroke:#181818;stroke-width:0.5;" x1="2686" x2="2822.0547" y1="648.6211" y2="648.6211"/><rect fill="none" height="6" style="stroke:#595959;stroke-width:1.0;" width="6" x="2693" y="660.4316"/><text fill="#000000" font-family="sans-serif" font-size="14" lengthAdjust="spacing" textLength="79.3721" x="2705" y="667.7285">name: String</text><rect fill="none" height="6" style="stroke:#595959;stroke-width:1.0;" width="6" x="2693" y="679.0527"/><text fill="#000000" font-family="sans-serif" font-size="14" lengthAdjust="spacing" textLength="112.0547" x="2705" y="686.3496">description: String</text><rect fill="none" height="6" style="stroke:#595959;stroke-width:1.0;" width="6" x="2693" y="697.6738"/><text fill="#000000" font-family="sans-serif" font-size="14" lengthAdjust="spacing" textLength="64.5996" x="2705" y="704.9707">date: Date</text><rect fill="none" height="6" style="stroke:#595959;stroke-width:1.0;" width="6" x="2693" y="716.2949"/><text fill="#000000" font-family="sans-serif" font-size="14" lengthAdjust="spacing" textLength="89.4756" x="2705" y="723.5918">impact: Object</text><line style="stroke:#181818;stroke-width:0.5;" x1="2686" x2="2822.0547" y1="731.1055" y2="731.1055"/></g><!--class Editor--><g id="elem_Editor"><rect codeLine="101" fill="#F1F1F1" height="103.8633" id="Editor" rx="2.5" ry="2.5" style="stroke:#181818;stroke-width:0.5;" width="105.3721" x="3193.5" y="111.6211"/><ellipse cx="3225.0599" cy="127.6211" fill="#C2C2C2" rx="11" ry="11" style="stroke:#181818;stroke-width:1.0;"/><path d="M3227.8255,123.4961 Q3227.9818,123.2773 3228.1693,123.168 Q3228.3568,123.0586 3228.5755,123.0586 Q3228.9505,123.0586 3229.1849,123.3242 Q3229.4193,123.5742 3229.4193,124.1836 L3229.4193,125.6367 Q3229.4193,126.2461 3229.1849,126.5117 Q3228.9505,126.7773 3228.5755,126.7773 Q3228.2318,126.7773 3228.0287,126.5742 Q3227.8255,126.3867 3227.7162,125.8711 Q3227.6693,125.5117 3227.4818,125.3242 Q3227.1537,124.9492 3226.5443,124.7305 Q3225.9349,124.5117 3225.3099,124.5117 Q3224.5443,124.5117 3223.9037,124.8398 Q3223.2787,125.168 3222.7787,125.918 Q3222.2943,126.668 3222.2943,127.6992 L3222.2943,128.793 Q3222.2943,130.0273 3223.1849,130.8555 Q3224.0755,131.668 3225.6693,131.668 Q3226.6068,131.668 3227.263,131.418 Q3227.6537,131.2617 3228.0755,130.8242 Q3228.3412,130.5586 3228.4818,130.4805 Q3228.638,130.4023 3228.8412,130.4023 Q3229.1693,130.4023 3229.4193,130.668 Q3229.6849,130.918 3229.6849,131.2617 Q3229.6849,131.6055 3229.3412,132.0117 Q3228.8412,132.5898 3228.0443,132.918 Q3226.9662,133.3711 3225.6693,133.3711 Q3224.1537,133.3711 3222.9505,132.7461 Q3221.9662,132.2461 3221.2787,131.1836 Q3220.5912,130.1055 3220.5912,128.8242 L3220.5912,127.668 Q3220.5912,126.3398 3221.2005,125.1992 Q3221.8255,124.043 3222.9193,123.4336 Q3224.013,122.8086 3225.2474,122.8086 Q3225.9818,122.8086 3226.6224,122.9805 Q3227.2787,123.1367 3227.8255,123.4961 Z " fill="#000000"/><text fill="#000000" font-family="sans-serif" font-size="14" lengthAdjust="spacing" textLength="36.5723" x="3242.7399" y="133.418">Editor</text><line style="stroke:#181818;stroke-width:0.5;" x1="3194.5" x2="3297.8721" y1="143.6211" y2="143.6211"/><rect fill="none" height="6" style="stroke:#595959;stroke-width:1.0;" width="6" x="3201.5" y="155.4316"/><text fill="#000000" font-family="sans-serif" font-size="14" lengthAdjust="spacing" textLength="55.248" x="3213.5" y="162.7285">id: String</text><rect fill="none" height="6" style="stroke:#595959;stroke-width:1.0;" width="6" x="3201.5" y="174.0527"/><text fill="#000000" font-family="sans-serif" font-size="14" lengthAdjust="spacing" textLength="79.3721" x="3213.5" y="181.3496">name: String</text><rect fill="none" height="6" style="stroke:#595959;stroke-width:1.0;" width="6" x="3201.5" y="192.6738"/><text fill="#000000" font-family="sans-serif" font-size="14" lengthAdjust="spacing" textLength="67.6963" x="3213.5" y="199.9707">role: String</text><line style="stroke:#181818;stroke-width:0.5;" x1="3194.5" x2="3297.8721" y1="207.4844" y2="207.4844"/></g><!--link CreateScenarioUI to CreateScenarioController--><g id="link_CreateScenarioUI_CreateScenarioController"><path codeLine="107" d="M1112,262.4111 C1112,300.4311 1112,337.1311 1112,371.9311 " fill="none" id="CreateScenarioUI-to-CreateScenarioController" style="stroke:#181818;stroke-width:1.0;"/><polygon fill="#181818" points="1112,377.9311,1116,368.9311,1112,372.9311,1108,368.9311,1112,377.9311" style="stroke:#181818;stroke-width:1.0;"/></g><!--link CreateScenarioController to AuthenticationService--><g id="link_CreateScenarioController_AuthenticationService"><path codeLine="108" d="M1398.58,519.1311 C1505.02,546.8611 1626.28,580.7211 1735,616.6211 C1759.52,624.7111 1780.234,632.4257 1803.944,641.8457 " fill="none" id="CreateScenarioController-to-AuthenticationService" style="stroke:#181818;stroke-width:1.0;"/><polygon fill="#181818" points="1809.52,644.0611,1802.6329,637.0207,1804.8733,642.215,1799.679,644.4554,1809.52,644.0611" style="stroke:#181818;stroke-width:1.0;"/></g><!--link CreateScenarioController to UserSession--><g id="link_CreateScenarioController_UserSession"><path codeLine="109" d="M1645.87,519.1311 C1775.99,543.3611 1913.51,575.2211 2038,616.6211 C2059.33,623.7111 2076.2961,631.2335 2095.8061,641.2835 " fill="none" id="CreateScenarioController-to-UserSession" style="stroke:#181818;stroke-width:1.0;"/><polygon fill="#181818" points="2101.14,644.0311,2094.9709,636.3537,2096.6951,641.7414,2091.3074,643.4656,2101.14,644.0311" style="stroke:#181818;stroke-width:1.0;"/></g><!--link CreateScenarioController to GameRepository--><g id="link_CreateScenarioController_GameRepository"><path codeLine="110" d="M1259.28,519.2711 C1347.05,560.7811 1448.9559,608.9761 1517.5359,641.4061 " fill="none" id="CreateScenarioController-to-GameRepository" style="stroke:#181818;stroke-width:1.0;"/><polygon fill="#181818" points="1522.96,643.9711,1516.5338,636.5076,1518.4399,641.8336,1513.1139,643.7398,1522.96,643.9711" style="stroke:#181818;stroke-width:1.0;"/></g><!--link GameRepository to MapRepository--><g id="link_GameRepository_MapRepository"><path codeLine="111" d="M1526.48,711.2111 C1502.37,721.7711 1474.49,732.3611 1448,738.6211 C1206.71,795.6111 452.4075,821.9566 191.1675,829.5566 " fill="none" id="GameRepository-to-MapRepository" style="stroke:#181818;stroke-width:1.0;"/><polygon fill="#181818" points="185.17,829.7311,194.2825,833.4677,190.1679,829.5857,194.0499,825.4711,185.17,829.7311" style="stroke:#181818;stroke-width:1.0;"/></g><!--link CreateScenarioController to MapRepository--><g id="link_CreateScenarioController_MapRepository"><path codeLine="112" d="M475.48,493.5311 C312.06,518.1611 166.76,556.6111 112,616.6211 C66.48,666.5011 75.7711,746.9212 86.0711,793.7512 " fill="none" id="CreateScenarioController-to-MapRepository" style="stroke:#181818;stroke-width:1.0;"/><polygon fill="#181818" points="87.36,799.6111,89.3333,789.962,86.2859,794.7278,81.5201,791.6804,87.36,799.6111" style="stroke:#181818;stroke-width:1.0;"/></g><!--link CreateScenarioController to LocomotiveTypeRepository--><g id="link_CreateScenarioController_LocomotiveTypeRepository"><path codeLine="113" d="M831.95,519.1811 C720.72,547.8411 591.9,582.3311 476,616.6211 C447.61,625.0211 422.6566,632.9472 394.7466,642.1772 " fill="none" id="CreateScenarioController-to-LocomotiveTypeRepository" style="stroke:#181818;stroke-width:1.0;"/><polygon fill="#181818" points="389.05,644.0611,398.8508,645.033,393.7971,642.4912,396.3389,637.4375,389.05,644.0611" style="stroke:#181818;stroke-width:1.0;"/></g><!--link CreateScenarioController to IndustryTypeRepository--><g id="link_CreateScenarioController_IndustryTypeRepository"><path codeLine="114" d="M965.95,519.2711 C878.91,560.7811 777.8959,608.9589 709.8759,641.3889 " fill="none" id="CreateScenarioController-to-IndustryTypeRepository" style="stroke:#181818;stroke-width:1.0;"/><polygon fill="#181818" points="704.46,643.9711,714.3054,643.7085,708.9733,641.8193,710.8625,636.4872,704.46,643.9711" style="stroke:#181818;stroke-width:1.0;"/></g><!--link CreateScenarioController to ScenarioService--><g id="link_CreateScenarioController_ScenarioService"><path codeLine="115" d="M1162.01,519.2711 C1191.77,560.7111 1224.6498,606.5078 1247.9498,638.9478 " fill="none" id="CreateScenarioController-to-ScenarioService" style="stroke:#181818;stroke-width:1.0;"/><polygon fill="#181818" points="1251.45,643.8211,1249.4485,634.1777,1248.5332,639.7601,1242.9509,638.8447,1251.45,643.8211" style="stroke:#181818;stroke-width:1.0;"/></g><!--link CreateScenarioController to ScenarioRepository--><g id="link_CreateScenarioController_ScenarioRepository"><path codeLine="116" d="M1061.99,519.2711 C1032.23,560.7111 999.3502,606.5078 976.0502,638.9478 " fill="none" id="CreateScenarioController-to-ScenarioRepository" style="stroke:#181818;stroke-width:1.0;"/><polygon fill="#181818" points="972.55,643.8211,981.0491,638.8447,975.4668,639.7601,974.5515,634.1777,972.55,643.8211" style="stroke:#181818;stroke-width:1.0;"/></g><!--reverse link Map to Scenario--><g id="link_Map_Scenario"><path codeLine="117" d="M2557,292.9511 C2557,319.1711 2557,334.5911 2557,359.4311 " fill="none" id="Map-backto-Scenario" style="stroke:#181818;stroke-width:1.0;"/><polygon fill="#181818" points="2557,280.9511,2553,286.9511,2557,292.9511,2561,286.9511,2557,280.9511" style="stroke:#181818;stroke-width:1.0;"/><text fill="#000000" font-family="sans-serif" font-size="13" lengthAdjust="spacing" textLength="20.96" x="2558" y="325.6494">has</text><text fill="#000000" font-family="sans-serif" font-size="13" lengthAdjust="spacing" textLength="7.23" x="2549.774" y="303.043">1</text><text fill="#000000" font-family="sans-serif" font-size="13" lengthAdjust="spacing" textLength="19.5127" x="2537.2417" y="348.3671">0..*</text></g><!--reverse link Scenario to LocomotiveType--><g id="link_Scenario_LocomotiveType"><path codeLine="118" d="M2473.5094,546.8126 C2450.9194,573.1026 2434.5,592.2211 2413.81,616.3011 " fill="none" id="Scenario-backto-LocomotiveType" style="stroke:#181818;stroke-width:1.0;"/><polygon fill="#181818" points="2481.33,537.7111,2474.3858,539.655,2473.5094,546.8126,2480.4535,544.8687,2481.33,537.7111" style="stroke:#181818;stroke-width:1.0;"/><text fill="#000000" font-family="sans-serif" font-size="13" lengthAdjust="spacing" textLength="36.1245" x="2455" y="582.6494">allows</text><text fill="#000000" font-family="sans-serif" font-size="13" lengthAdjust="spacing" textLength="7.23" x="2467.5437" y="560.1236">1</text><text fill="#000000" font-family="sans-serif" font-size="13" lengthAdjust="spacing" textLength="19.5127" x="2399.7481" y="605.2453">1..*</text></g><!--reverse link Scenario to IndustryType--><g id="link_Scenario_IndustryType"><path codeLine="119" d="M2557,549.7111 C2557,579.3711 2557,599.4711 2557,625.3411 " fill="none" id="Scenario-backto-IndustryType" style="stroke:#181818;stroke-width:1.0;"/><polygon fill="#181818" points="2557,537.7111,2553,543.7111,2557,549.7111,2561,543.7111,2557,537.7111" style="stroke:#181818;stroke-width:1.0;"/><text fill="#000000" font-family="sans-serif" font-size="13" lengthAdjust="spacing" textLength="36.1245" x="2558" y="582.6494">allows</text><text fill="#000000" font-family="sans-serif" font-size="13" lengthAdjust="spacing" textLength="7.23" x="2549.7166" y="560.1236">1</text><text fill="#000000" font-family="sans-serif" font-size="13" lengthAdjust="spacing" textLength="19.5127" x="2536.7732" y="614.2308">1..*</text></g><!--reverse link Scenario to HistoricalEvent--><g id="link_Scenario_HistoricalEvent"><path codeLine="120" d="M2641.3161,546.7733 C2664.1361,573.0633 2680.75,592.2211 2701.66,616.3011 " fill="none" id="Scenario-backto-HistoricalEvent" style="stroke:#181818;stroke-width:1.0;"/><polygon fill="#181818" points="2633.45,537.7111,2634.3623,544.8643,2641.3161,546.7733,2640.4038,539.6202,2633.45,537.7111" style="stroke:#181818;stroke-width:1.0;"/><text fill="#000000" font-family="sans-serif" font-size="13" lengthAdjust="spacing" textLength="47.6963" x="2675" y="582.6494">includes</text><text fill="#000000" font-family="sans-serif" font-size="13" lengthAdjust="spacing" textLength="7.23" x="2632.7365" y="560.1236">1</text><text fill="#000000" font-family="sans-serif" font-size="13" lengthAdjust="spacing" textLength="19.5127" x="2675.5362" y="605.2453">0..*</text></g><!--SRC=[rLRTJjim5BxFKrYzAgn58EqgcYgXWZOafaaK7i0uXyR3YIFRAQhGtdt7Jkt4-HjSxePoVBxp-Vmx-fMN5LMq88Ki9SkLB80OLKEYWwQYx9NkOMUE0eW2PcYv5rs0pcacttYv9ozKQ4WImmr2dtQNNycQR0NLcjnmkhTOb1LG0uII7OEIAYx9YrHM187Sa96Vj4eIvgmQh0S-tP7tX205awLHKWXGQG-o3He4VY4iKYxFKdAGF7CS1ofuXie7AM299f2IdL4O18AU9SgqT3XD3-1TGy-M1QrIwsANos9kgA7BaXQ1PqMqeSeySdk4MbWHABDMx1FuI-ubauKq_02FnmhqqjY_ARddsdoBTPifYhiogxLHno51LpCm_u48gJYZulO0fT5BS3ydqvusMFyPBrPR2LUqBsGFPbihXQPF6fHB-vdFbGTWNkrTLk7kH7dZTN7i4QoN5c_H3JR2HraOQnHVv1NvJ4LNHCIr6tTlHNYtFcC-hKZUgyLq4RpJRI7GyGUefEO8FRRPlnO2DJfERZ2AdPomx_VcL042QpUg2SwuMSTB5FXyi0Ckr_w-VFhqJvkSGRDwnGxKWJCuiVYbCC_arqCW-uvDCXPTL0WRMdJGsb_N9iTgObaDbsNiKZmsEz0Q8PQh8xPCdSFMtizRczscdpTHovnsAyyG8zr8hgFkTmTlF3DvYWrid9W3t-UcbHNiyMRVhB-UV-CwsZJxvPG-h_FfF6cDYpme6x7HdOQ53oQbKJDkMjMMc-FeGF-FOnpUn_VnMlIYS6TH8Ew42Y7V1g_AvE8C1dV_2gvfW8_55msNUod7nYZsPZBi2W1xD9FrisX2hD1V5PqmgKqu65r6K-oLabdDRFSzeAizqbBNHJNG1VvUr5DNPA2PueudFdUaeN2ym0ylZAAPelQMsynkZywqTYW6TtK_R2p5u8DglTvCVq9DlkZMQdHfpPjqLzOiC5weIM-_MaIyIMV9FW6TUWJdhSOVkNcRtllpCN27t2xinTM2dA_NP75vSN6-QFT5IdAgao06s9M3zQOiRGP-6XzDpGowSQ8_0_PjOAB6da_-0W00]--></g></svg>