<svg xmlns="http://www.w3.org/2000/svg" xmlns:xlink="http://www.w3.org/1999/xlink" contentStyleType="text/css" height="565px" preserveAspectRatio="none" style="width:1438px;height:565px;background:#FFFFFF;" version="1.1" viewBox="0 0 1438 565" width="1438px" zoomAndPan="magnify"><title>US04 - Create Scenario - Partial Sequence Diagram</title><defs/><g><text fill="#000000" font-family="sans-serif" font-size="14" font-weight="bold" lengthAdjust="spacing" textLength="339.2471" x="551.0515" y="30.1074">US04 - Create Scenario - Partial Sequence Diagram</text><rect fill="#FFFFFF" height="380.7832" style="stroke:#181818;stroke-width:1.0;" width="10" x="376.855" y="128.8242"/><rect fill="#FFFFFF" height="142.4551" style="stroke:#181818;stroke-width:1.0;" width="10" x="694.1274" y="203.6973"/><rect fill="#FFFFFF" height="31.291" style="stroke:#181818;stroke-width:1.0;" width="10" x="1074.4307" y="283.5703"/><rect fill="#FFFFFF" height="31.291" style="stroke:#181818;stroke-width:1.0;" width="10" x="1207.375" y="377.4434"/><rect fill="#FFFFFF" height="31.291" style="stroke:#181818;stroke-width:1.0;" width="10" x="1347.3193" y="440.0254"/><rect fill="none" height="335.4922" style="stroke:#000000;stroke-width:1.5;" width="1148.4224" x="283.9277" y="143.8242"/><line style="stroke:#181818;stroke-width:0.5;stroke-dasharray:5.0,5.0;" x1="69" x2="69" y1="78.2422" y2="527.6074"/><line style="stroke:#181818;stroke-width:0.5;stroke-dasharray:5.0,5.0;" x1="380.9277" x2="380.9277" y1="78.2422" y2="527.6074"/><line style="stroke:#181818;stroke-width:0.5;stroke-dasharray:5.0,5.0;" x1="698.876" x2="698.876" y1="78.2422" y2="527.6074"/><line style="stroke:#181818;stroke-width:0.5;stroke-dasharray:5.0,5.0;" x1="1079.3999" x2="1079.3999" y1="245.9883" y2="527.6074"/><line style="stroke:#181818;stroke-width:0.5;stroke-dasharray:5.0,5.0;" x1="1211.4614" x2="1211.4614" y1="78.2422" y2="527.6074"/><line style="stroke:#181818;stroke-width:0.5;stroke-dasharray:5.0,5.0;" x1="1352.2886" x2="1352.2886" y1="78.2422" y2="527.6074"/><rect fill="#E3E3E3" height="32.6211" rx="2.5" ry="2.5" style="stroke:#181818;stroke-width:0.5;" width="129.165" x="5" y="44.6211"/><text fill="#000000" font-family="sans-serif" font-size="14" lengthAdjust="spacing" textLength="115.165" x="12" y="66.7285">:CreateScenarioUI</text><rect fill="#E3E3E3" height="32.6211" rx="2.5" ry="2.5" style="stroke:#181818;stroke-width:0.5;" width="129.165" x="5" y="526.6074"/><text fill="#000000" font-family="sans-serif" font-size="14" lengthAdjust="spacing" textLength="115.165" x="12" y="548.7148">:CreateScenarioUI</text><rect fill="#E3E3E3" height="32.6211" rx="2.5" ry="2.5" style="stroke:#181818;stroke-width:0.5;" width="175.8545" x="293.9277" y="44.6211"/><text fill="#000000" font-family="sans-serif" font-size="14" lengthAdjust="spacing" textLength="161.8545" x="300.9277" y="66.7285">:CreateScenarioController</text><rect fill="#E3E3E3" height="32.6211" rx="2.5" ry="2.5" style="stroke:#181818;stroke-width:0.5;" width="175.8545" x="293.9277" y="526.6074"/><text fill="#000000" font-family="sans-serif" font-size="14" lengthAdjust="spacing" textLength="161.8545" x="300.9277" y="548.7148">:CreateScenarioController</text><rect fill="#E3E3E3" height="32.6211" rx="2.5" ry="2.5" style="stroke:#181818;stroke-width:0.5;" width="124.5029" x="636.876" y="44.6211"/><text fill="#000000" font-family="sans-serif" font-size="14" lengthAdjust="spacing" textLength="110.5029" x="643.876" y="66.7285">selectedMap:Map</text><rect fill="#E3E3E3" height="32.6211" rx="2.5" ry="2.5" style="stroke:#181818;stroke-width:0.5;" width="124.5029" x="636.876" y="526.6074"/><text fill="#000000" font-family="sans-serif" font-size="14" lengthAdjust="spacing" textLength="110.5029" x="643.876" y="548.7148">selectedMap:Map</text><rect fill="#E3E3E3" height="32.6211" rx="2.5" ry="2.5" style="stroke:#181818;stroke-width:0.5;" width="126.0615" x="1016.3999" y="526.6074"/><text fill="#000000" font-family="sans-serif" font-size="14" lengthAdjust="spacing" textLength="112.0615" x="1023.3999" y="548.7148">scenario:Scenario</text><rect fill="#E3E3E3" height="32.6211" rx="2.5" ry="2.5" style="stroke:#181818;stroke-width:0.5;" width="119.8271" x="1152.4614" y="44.6211"/><text fill="#000000" font-family="sans-serif" font-size="14" lengthAdjust="spacing" textLength="105.8271" x="1159.4614" y="66.7285">:ScenarioService</text><rect fill="#E3E3E3" height="32.6211" rx="2.5" ry="2.5" style="stroke:#181818;stroke-width:0.5;" width="119.8271" x="1152.4614" y="526.6074"/><text fill="#000000" font-family="sans-serif" font-size="14" lengthAdjust="spacing" textLength="105.8271" x="1159.4614" y="548.7148">:ScenarioService</text><rect fill="#E3E3E3" height="32.6211" rx="2.5" ry="2.5" style="stroke:#181818;stroke-width:0.5;" width="140.0615" x="1282.2886" y="44.6211"/><text fill="#000000" font-family="sans-serif" font-size="14" lengthAdjust="spacing" textLength="126.0615" x="1289.2886" y="66.7285">:ScenarioRepository</text><rect fill="#E3E3E3" height="32.6211" rx="2.5" ry="2.5" style="stroke:#181818;stroke-width:0.5;" width="140.0615" x="1282.2886" y="526.6074"/><text fill="#000000" font-family="sans-serif" font-size="14" lengthAdjust="spacing" textLength="126.0615" x="1289.2886" y="548.7148">:ScenarioRepository</text><rect fill="#FFFFFF" height="380.7832" style="stroke:#181818;stroke-width:1.0;" width="10" x="376.855" y="128.8242"/><rect fill="#FFFFFF" height="142.4551" style="stroke:#181818;stroke-width:1.0;" width="10" x="694.1274" y="203.6973"/><rect fill="#FFFFFF" height="31.291" style="stroke:#181818;stroke-width:1.0;" width="10" x="1074.4307" y="283.5703"/><rect fill="#FFFFFF" height="31.291" style="stroke:#181818;stroke-width:1.0;" width="10" x="1207.375" y="377.4434"/><rect fill="#FFFFFF" height="31.291" style="stroke:#181818;stroke-width:1.0;" width="10" x="1347.3193" y="440.0254"/><polygon fill="#181818" points="364.855,124.8242,374.855,128.8242,364.855,132.8242,368.855,128.8242" style="stroke:#181818;stroke-width:1.0;"/><line style="stroke:#181818;stroke-width:1.0;" x1="69.5825" x2="370.855" y1="128.8242" y2="128.8242"/><text fill="#000000" font-family="sans-serif" font-size="13" lengthAdjust="spacing" textLength="279.6079" x="76.5825" y="106.2705">createScenario(map, name, startTime, endTime,</text><text fill="#000000" font-family="sans-serif" font-size="13" lengthAdjust="spacing" textLength="288.2725" x="76.5825" y="123.5615">locomotiveTypes, industryTypes, historicalEvents)</text><path d="M283.9277,143.8242 L427.9194,143.8242 L427.9194,153.1152 L417.9194,163.1152 L283.9277,163.1152 L283.9277,143.8242 " fill="#EEEEEE" style="stroke:#000000;stroke-width:1.5;"/><rect fill="none" height="335.4922" style="stroke:#000000;stroke-width:1.5;" width="1148.4224" x="283.9277" y="143.8242"/><text fill="#000000" font-family="sans-serif" font-size="13" font-weight="bold" lengthAdjust="spacing" textLength="98.9917" x="298.9277" y="158.8525">Create Scenario</text><polygon fill="#181818" points="682.1274,199.6973,692.1274,203.6973,682.1274,207.6973,686.1274,203.6973" style="stroke:#181818;stroke-width:1.0;"/><line style="stroke:#181818;stroke-width:1.0;" x1="386.855" x2="688.1274" y1="203.6973" y2="203.6973"/><text fill="#000000" font-family="sans-serif" font-size="13" lengthAdjust="spacing" textLength="247.0952" x="393.855" y="181.1436">createScenario(name, startTime, endTime,</text><text fill="#000000" font-family="sans-serif" font-size="13" lengthAdjust="spacing" textLength="288.2725" x="393.855" y="198.4346">locomotiveTypes, industryTypes, historicalEvents)</text><polygon fill="#181818" points="1004.3999,248.2793,1014.3999,252.2793,1004.3999,256.2793,1008.3999,252.2793" style="stroke:#181818;stroke-width:1.0;"/><line style="stroke:#181818;stroke-width:1.0;stroke-dasharray:2.0,2.0;" x1="704.1274" x2="1010.3999" y1="252.2793" y2="252.2793"/><text fill="#000000" font-family="sans-serif" font-size="13" lengthAdjust="spacing" textLength="195.7871" x="711.1274" y="229.7256">create(name, startTime, endTime,</text><text fill="#000000" font-family="sans-serif" font-size="13" lengthAdjust="spacing" textLength="288.2725" x="711.1274" y="247.0166">locomotiveTypes, industryTypes, historicalEvents)</text><rect fill="#E3E3E3" height="32.6211" rx="2.5" ry="2.5" style="stroke:#181818;stroke-width:0.5;" width="126.0615" x="1016.3999" y="216.6582"/><text fill="#000000" font-family="sans-serif" font-size="14" lengthAdjust="spacing" textLength="112.0615" x="1023.3999" y="238.7656">scenario:Scenario</text><polygon fill="#181818" points="1062.4307,279.5703,1072.4307,283.5703,1062.4307,287.5703,1066.4307,283.5703" style="stroke:#181818;stroke-width:1.0;"/><line style="stroke:#181818;stroke-width:1.0;" x1="704.1274" x2="1068.4307" y1="283.5703" y2="283.5703"/><text fill="#000000" font-family="sans-serif" font-size="13" lengthAdjust="spacing" textLength="80.9263" x="711.1274" y="278.3076">validateData()</text><polygon fill="#181818" points="715.1274,310.8613,705.1274,314.8613,715.1274,318.8613,711.1274,314.8613" style="stroke:#181818;stroke-width:1.0;"/><line style="stroke:#181818;stroke-width:1.0;stroke-dasharray:2.0,2.0;" x1="709.1274" x2="1078.4307" y1="314.8613" y2="314.8613"/><text fill="#000000" font-family="sans-serif" font-size="13" lengthAdjust="spacing" textLength="91.7744" x="721.1274" y="309.5986">validationResult</text><polygon fill="#181818" points="397.855,342.1523,387.855,346.1523,397.855,350.1523,393.855,346.1523" style="stroke:#181818;stroke-width:1.0;"/><line style="stroke:#181818;stroke-width:1.0;stroke-dasharray:2.0,2.0;" x1="391.855" x2="698.1274" y1="346.1523" y2="346.1523"/><text fill="#000000" font-family="sans-serif" font-size="13" lengthAdjust="spacing" textLength="49.1372" x="403.855" y="340.8896">scenario</text><polygon fill="#181818" points="1195.375,373.4434,1205.375,377.4434,1195.375,381.4434,1199.375,377.4434" style="stroke:#181818;stroke-width:1.0;"/><line style="stroke:#181818;stroke-width:1.0;" x1="386.855" x2="1201.375" y1="377.4434" y2="377.4434"/><text fill="#000000" font-family="sans-serif" font-size="13" lengthAdjust="spacing" textLength="153.9116" x="393.855" y="372.1807">validateScenario(scenario)</text><polygon fill="#181818" points="397.855,404.7344,387.855,408.7344,397.855,412.7344,393.855,408.7344" style="stroke:#181818;stroke-width:1.0;"/><line style="stroke:#181818;stroke-width:1.0;stroke-dasharray:2.0,2.0;" x1="391.855" x2="1211.375" y1="408.7344" y2="408.7344"/><text fill="#000000" font-family="sans-serif" font-size="13" lengthAdjust="spacing" textLength="91.7744" x="403.855" y="403.4717">validationResult</text><polygon fill="#181818" points="1335.3193,436.0254,1345.3193,440.0254,1335.3193,444.0254,1339.3193,440.0254" style="stroke:#181818;stroke-width:1.0;"/><line style="stroke:#181818;stroke-width:1.0;" x1="386.855" x2="1341.3193" y1="440.0254" y2="440.0254"/><text fill="#000000" font-family="sans-serif" font-size="13" lengthAdjust="spacing" textLength="136.5635" x="393.855" y="434.7627">saveScenario(scenario)</text><polygon fill="#181818" points="397.855,467.3164,387.855,471.3164,397.855,475.3164,393.855,471.3164" style="stroke:#181818;stroke-width:1.0;"/><line style="stroke:#181818;stroke-width:1.0;stroke-dasharray:2.0,2.0;" x1="391.855" x2="1351.3193" y1="471.3164" y2="471.3164"/><text fill="#000000" font-family="sans-serif" font-size="13" lengthAdjust="spacing" textLength="46.96" x="403.855" y="466.0537">success</text><polygon fill="#181818" points="80.5825,505.6074,70.5825,509.6074,80.5825,513.6074,76.5825,509.6074" style="stroke:#181818;stroke-width:1.0;"/><line style="stroke:#181818;stroke-width:1.0;stroke-dasharray:2.0,2.0;" x1="74.5825" x2="380.855" y1="509.6074" y2="509.6074"/><text fill="#000000" font-family="sans-serif" font-size="13" lengthAdjust="spacing" textLength="46.96" x="86.5825" y="504.3447">success</text><!--SRC=[jLDDRwCm4BtpAqOzjLKYzT1J3YjLb0DIkuqWsTDUHcQMM3KsQnkg_Fkr2JY69jKUTYqX0NxpvhtvCEzSjgYnWKP9nGvQDGHMTvIOSDCYUyUQIdiK19gOHLcB660EMAaFBcluXS9GabXk7NHVFZp26b9DQ0bAHX8rL-xF5hNbAA2atnr9Hl3CiNP4ITBw6yPRb1PkDgV8AN2Vtm0QsETVeb8bhLP2a1xGwQvucUCD2MU1gbTiD-uPKAzFsmLePDjCj0EiJBFlJqN-jX0mOKhIFMSqWvPPyIDFioiH1RNASAlqSHPKPDkt9DddiFus680Di9d9smRR5KXiQ0N6EkeTzwyagzFBJoaKKusolAVTiIMp0YwhpbXz73yFtBYqdA78UfBMt2N87DetQYWPk5DhrRNBzWqtWoWdpjNjixP_Aykd2z9yds0yFlVQQPYATdyVfFm72VxCKvypkxmz2bwvpCzeyVOS4OI7oO7eXFXrAEN8mvKio7J21dn5rxa-bMIS6HEtB2AOgZXhvM9W8q-XiHFVeYdBKL_QcnWZPHTjNh0OKrvKwpV5EyN-hsKEoxNKEF34fUiO8sEkwGeSRgvEQnAfSonkTSySKRm7_040]--></g></svg>