<svg xmlns="http://www.w3.org/2000/svg" xmlns:xlink="http://www.w3.org/1999/xlink" contentStyleType="text/css" height="394px" preserveAspectRatio="none" style="width:674px;height:394px;background:#FFFFFF;" version="1.1" viewBox="0 0 674 394" width="674px" zoomAndPan="magnify"><title>US04 - Get Map List - Partial Sequence Diagram</title><defs/><g><text fill="#000000" font-family="sans-serif" font-size="14" font-weight="bold" lengthAdjust="spacing" textLength="316.6475" x="177.8027" y="30.1074">US04 - Get Map List - Partial Sequence Diagram</text><rect fill="#FFFFFF" height="189.7461" style="stroke:#181818;stroke-width:1.0;" width="10" x="227.0923" y="130.1543"/><rect fill="#FFFFFF" height="31.291" style="stroke:#181818;stroke-width:1.0;" width="10" x="386.4849" y="187.7363"/><rect fill="#FFFFFF" height="31.291" style="stroke:#181818;stroke-width:1.0;" width="10" x="513.9707" y="250.3184"/><rect fill="none" height="144.4551" style="stroke:#000000;stroke-width:1.5;" width="450.8262" x="134.165" y="145.1543"/><line style="stroke:#181818;stroke-width:0.5;stroke-dasharray:5.0,5.0;" x1="69" x2="69" y1="96.8633" y2="337.9004"/><line style="stroke:#181818;stroke-width:0.5;stroke-dasharray:5.0,5.0;" x1="231.165" x2="231.165" y1="96.8633" y2="337.9004"/><line style="stroke:#181818;stroke-width:0.5;stroke-dasharray:5.0,5.0;" x1="391.0195" x2="391.0195" y1="96.8633" y2="337.9004"/><line style="stroke:#181818;stroke-width:0.5;stroke-dasharray:5.0,5.0;" x1="518.9502" x2="518.9502" y1="96.8633" y2="337.9004"/><line style="stroke:#181818;stroke-width:0.5;stroke-dasharray:5.0,5.0;" x1="625.9912" x2="625.9912" y1="96.8633" y2="337.9004"/><rect fill="#E3E3E3" height="32.6211" rx="2.5" ry="2.5" style="stroke:#181818;stroke-width:0.5;" width="129.165" x="5" y="63.2422"/><text fill="#000000" font-family="sans-serif" font-size="14" lengthAdjust="spacing" textLength="115.165" x="12" y="85.3496">:CreateScenarioUI</text><rect fill="#E3E3E3" height="32.6211" rx="2.5" ry="2.5" style="stroke:#181818;stroke-width:0.5;" width="129.165" x="5" y="336.9004"/><text fill="#000000" font-family="sans-serif" font-size="14" lengthAdjust="spacing" textLength="115.165" x="12" y="359.0078">:CreateScenarioUI</text><rect fill="#E3E3E3" height="32.6211" rx="2.5" ry="2.5" style="stroke:#181818;stroke-width:0.5;" width="175.8545" x="144.165" y="63.2422"/><text fill="#000000" font-family="sans-serif" font-size="14" lengthAdjust="spacing" textLength="161.8545" x="151.165" y="85.3496">:CreateScenarioController</text><rect fill="#E3E3E3" height="32.6211" rx="2.5" ry="2.5" style="stroke:#181818;stroke-width:0.5;" width="175.8545" x="144.165" y="336.9004"/><text fill="#000000" font-family="sans-serif" font-size="14" lengthAdjust="spacing" textLength="161.8545" x="151.165" y="359.0078">:CreateScenarioController</text><rect fill="#E3E3E3" height="32.6211" rx="2.5" ry="2.5" style="stroke:#181818;stroke-width:0.5;" width="122.9307" x="330.0195" y="63.2422"/><text fill="#000000" font-family="sans-serif" font-size="14" lengthAdjust="spacing" textLength="108.9307" x="337.0195" y="85.3496">:GameRepository</text><rect fill="#E3E3E3" height="32.6211" rx="2.5" ry="2.5" style="stroke:#181818;stroke-width:0.5;" width="122.9307" x="330.0195" y="336.9004"/><text fill="#000000" font-family="sans-serif" font-size="14" lengthAdjust="spacing" textLength="108.9307" x="337.0195" y="359.0078">:GameRepository</text><rect fill="#E3E3E3" height="32.6211" rx="2.5" ry="2.5" style="stroke:#181818;stroke-width:0.5;" width="112.041" x="462.9502" y="63.2422"/><text fill="#000000" font-family="sans-serif" font-size="14" lengthAdjust="spacing" textLength="98.041" x="469.9502" y="85.3496">:MapRepository</text><rect fill="#E3E3E3" height="32.6211" rx="2.5" ry="2.5" style="stroke:#181818;stroke-width:0.5;" width="112.041" x="462.9502" y="336.9004"/><text fill="#000000" font-family="sans-serif" font-size="14" lengthAdjust="spacing" textLength="98.041" x="469.9502" y="359.0078">:MapRepository</text><rect fill="#E3E3E3" height="51.2422" rx="2.5" ry="2.5" style="stroke:#181818;stroke-width:0.5;" width="83.2617" x="584.9912" y="44.6211"/><text fill="#000000" font-family="sans-serif" font-size="14" lengthAdjust="spacing" textLength="49.0205" x="602.1118" y="66.7285">mapList</text><text fill="#000000" font-family="sans-serif" font-size="14" lengthAdjust="spacing" textLength="69.2617" x="591.9912" y="85.3496">:List&lt;Map&gt;</text><rect fill="#E3E3E3" height="51.2422" rx="2.5" ry="2.5" style="stroke:#181818;stroke-width:0.5;" width="83.2617" x="584.9912" y="336.9004"/><text fill="#000000" font-family="sans-serif" font-size="14" lengthAdjust="spacing" textLength="49.0205" x="602.1118" y="359.0078">mapList</text><text fill="#000000" font-family="sans-serif" font-size="14" lengthAdjust="spacing" textLength="69.2617" x="591.9912" y="377.6289">:List&lt;Map&gt;</text><rect fill="#FFFFFF" height="189.7461" style="stroke:#181818;stroke-width:1.0;" width="10" x="227.0923" y="130.1543"/><rect fill="#FFFFFF" height="31.291" style="stroke:#181818;stroke-width:1.0;" width="10" x="386.4849" y="187.7363"/><rect fill="#FFFFFF" height="31.291" style="stroke:#181818;stroke-width:1.0;" width="10" x="513.9707" y="250.3184"/><polygon fill="#181818" points="215.0923,126.1543,225.0923,130.1543,215.0923,134.1543,219.0923,130.1543" style="stroke:#181818;stroke-width:1.0;"/><line style="stroke:#181818;stroke-width:1.0;" x1="69.5825" x2="221.0923" y1="130.1543" y2="130.1543"/><text fill="#000000" font-family="sans-serif" font-size="13" lengthAdjust="spacing" textLength="72.249" x="76.5825" y="124.8916">getMapList()</text><path d="M134.165,145.1543 L264.4014,145.1543 L264.4014,154.4453 L254.4014,164.4453 L134.165,164.4453 L134.165,145.1543 " fill="#EEEEEE" style="stroke:#000000;stroke-width:1.5;"/><rect fill="none" height="144.4551" style="stroke:#000000;stroke-width:1.5;" width="450.8262" x="134.165" y="145.1543"/><text fill="#000000" font-family="sans-serif" font-size="13" font-weight="bold" lengthAdjust="spacing" textLength="85.2363" x="149.165" y="160.1826">Get Maps List</text><polygon fill="#181818" points="374.4849,183.7363,384.4849,187.7363,374.4849,191.7363,378.4849,187.7363" style="stroke:#181818;stroke-width:1.0;"/><line style="stroke:#181818;stroke-width:1.0;" x1="237.0923" x2="380.4849" y1="187.7363" y2="187.7363"/><text fill="#000000" font-family="sans-serif" font-size="13" lengthAdjust="spacing" textLength="114.1563" x="244.0923" y="182.4736">getMapRepository()</text><polygon fill="#181818" points="248.0923,215.0273,238.0923,219.0273,248.0923,223.0273,244.0923,219.0273" style="stroke:#181818;stroke-width:1.0;"/><line style="stroke:#181818;stroke-width:1.0;stroke-dasharray:2.0,2.0;" x1="242.0923" x2="390.4849" y1="219.0273" y2="219.0273"/><text fill="#000000" font-family="sans-serif" font-size="13" lengthAdjust="spacing" textLength="87.4263" x="254.0923" y="213.7646">mapRepository</text><polygon fill="#181818" points="501.9707,246.3184,511.9707,250.3184,501.9707,254.3184,505.9707,250.3184" style="stroke:#181818;stroke-width:1.0;"/><line style="stroke:#181818;stroke-width:1.0;" x1="237.0923" x2="507.9707" y1="250.3184" y2="250.3184"/><text fill="#000000" font-family="sans-serif" font-size="13" lengthAdjust="spacing" textLength="72.9663" x="244.0923" y="245.0557">getAllMaps()</text><polygon fill="#181818" points="248.0923,277.6094,238.0923,281.6094,248.0923,285.6094,244.0923,281.6094" style="stroke:#181818;stroke-width:1.0;"/><line style="stroke:#181818;stroke-width:1.0;stroke-dasharray:2.0,2.0;" x1="242.0923" x2="517.9707" y1="281.6094" y2="281.6094"/><text fill="#000000" font-family="sans-serif" font-size="13" lengthAdjust="spacing" textLength="45.519" x="254.0923" y="276.3467">mapList</text><polygon fill="#181818" points="80.5825,315.9004,70.5825,319.9004,80.5825,323.9004,76.5825,319.9004" style="stroke:#181818;stroke-width:1.0;"/><line style="stroke:#181818;stroke-width:1.0;stroke-dasharray:2.0,2.0;" x1="74.5825" x2="231.0923" y1="319.9004" y2="319.9004"/><text fill="#000000" font-family="sans-serif" font-size="13" lengthAdjust="spacing" textLength="45.519" x="86.5825" y="314.6377">mapList</text><!--SRC=[VP0nRy8m48Lt_ueJKpiWTUY4AYH4KHI9g8YGhSl9N8E5OxlsqOf_NyUGaD2gNgBOxxtxxeMZCWuzDj1OO-N1suQ0_Ob4w5ySoYFMLF9P4tYIZARMGq4uuDv-ArF31-f0Gh3YAAtAfsUOGaOC1JfOgy3nTuEU5MeewVD4HXAyAgnZYX2kVP7AeM6Op9QUaAcKPD0hM-KJm01L_gzgQGrxgpNvf5xkjkixVOODRSdPeDZwSr9bYsArNMtUxfGH-KvOB3Q_TGswTh5tCsi_Bz4rxyJhlDm98QeSflF40ZEeYOkBu-5He6Jr5V4le0BYgRqzkQwoa3fBzyaUOphOFkh660EJj4_j5uFhwStJ6r0pZ4ZAFVsTCEAuTd71M6ZTqaQ0qVokhsvyvnbFxrSSp1qwoUolhRGC0uYO4giTPuX1I2hr1m00]--></g></svg>