<svg xmlns="http://www.w3.org/2000/svg" xmlns:xlink="http://www.w3.org/1999/xlink" contentStyleType="text/css" height="1185px" preserveAspectRatio="none" style="width:1029px;height:1185px;background:#FFFFFF;" version="1.1" viewBox="0 0 1029 1185" width="1029px" zoomAndPan="magnify"><title>Sequence Diagram (SD) - US04 Create a Scenario for a Selected Map - Split</title><defs/><g><text fill="#000000" font-family="sans-serif" font-size="14" font-weight="bold" lengthAdjust="spacing" textLength="498.709" x="263.0327" y="30.1074">Sequence Diagram (SD) - US04 Create a Scenario for a Selected Map - Split</text><rect fill="#FFFFFF" height="951.4102" style="stroke:#181818;stroke-width:1.0;" width="10" x="21.2861" y="133.2422"/><rect fill="#FFFFFF" height="186.416" style="stroke:#181818;stroke-width:1.0;" width="10" x="318.6958" y="156.5332"/><rect fill="#FFFFFF" height="75.582" style="stroke:#181818;stroke-width:1.0;" width="10" x="318.6958" y="374.2402"/><rect fill="#FFFFFF" height="123.834" style="stroke:#181818;stroke-width:1.0;" width="10" x="318.6958" y="481.1133"/><rect fill="#FFFFFF" height="123.834" style="stroke:#181818;stroke-width:1.0;" width="10" x="318.6958" y="636.2383"/><rect fill="#FFFFFF" height="75.582" style="stroke:#181818;stroke-width:1.0;" width="10" x="318.6958" y="791.3633"/><rect fill="#FFFFFF" height="75.582" style="stroke:#181818;stroke-width:1.0;" width="10" x="318.6958" y="898.2363"/><rect fill="#FFFFFF" height="79.543" style="stroke:#181818;stroke-width:1.0;" width="10" x="318.6958" y="1005.1094"/><rect fill="#FFFFFF" height="31.291" style="stroke:#181818;stroke-width:1.0;" width="10" x="657.2827" y="187.8242"/><line style="stroke:#181818;stroke-width:0.5;stroke-dasharray:5.0,5.0;" x1="26" x2="26" y1="123.2422" y2="1102.6523"/><line style="stroke:#181818;stroke-width:0.5;stroke-dasharray:5.0,5.0;" x1="323.1133" x2="323.1133" y1="123.2422" y2="1102.6523"/><line style="stroke:#181818;stroke-width:0.5;stroke-dasharray:5.0,5.0;" x1="661.3555" x2="661.3555" y1="123.2422" y2="1102.6523"/><line style="stroke:#181818;stroke-width:0.5;stroke-dasharray:5.0,5.0;" x1="822.21" x2="822.21" y1="123.2422" y2="1102.6523"/><line style="stroke:#181818;stroke-width:0.5;stroke-dasharray:5.0,5.0;" x1="957.7129" x2="957.7129" y1="123.2422" y2="1102.6523"/><text fill="#000000" font-family="sans-serif" font-size="14" lengthAdjust="spacing" textLength="36.5723" x="5" y="119.7285">Editor</text><ellipse cx="26.2861" cy="53.1211" fill="#E3E3E3" rx="8" ry="8" style="stroke:#181818;stroke-width:0.5;"/><path d="M26.2861,61.1211 L26.2861,88.1211 M13.2861,69.1211 L39.2861,69.1211 M26.2861,88.1211 L13.2861,103.1211 M26.2861,88.1211 L39.2861,103.1211 " fill="none" style="stroke:#181818;stroke-width:0.5;"/><text fill="#000000" font-family="sans-serif" font-size="14" lengthAdjust="spacing" textLength="36.5723" x="5" y="1116.7598">Editor</text><ellipse cx="26.2861" cy="1128.7734" fill="#E3E3E3" rx="8" ry="8" style="stroke:#181818;stroke-width:0.5;"/><path d="M26.2861,1136.7734 L26.2861,1163.7734 M13.2861,1144.7734 L39.2861,1144.7734 M26.2861,1163.7734 L13.2861,1178.7734 M26.2861,1163.7734 L39.2861,1178.7734 " fill="none" style="stroke:#181818;stroke-width:0.5;"/><rect fill="#E3E3E3" height="32.6211" rx="2.5" ry="2.5" style="stroke:#181818;stroke-width:0.5;" width="129.165" x="259.1133" y="89.6211"/><text fill="#000000" font-family="sans-serif" font-size="14" lengthAdjust="spacing" textLength="115.165" x="266.1133" y="111.7285">:CreateScenarioUI</text><rect fill="#E3E3E3" height="32.6211" rx="2.5" ry="2.5" style="stroke:#181818;stroke-width:0.5;" width="129.165" x="259.1133" y="1101.6523"/><text fill="#000000" font-family="sans-serif" font-size="14" lengthAdjust="spacing" textLength="115.165" x="266.1133" y="1123.7598">:CreateScenarioUI</text><rect fill="#E3E3E3" height="32.6211" rx="2.5" ry="2.5" style="stroke:#181818;stroke-width:0.5;" width="175.8545" x="574.3555" y="89.6211"/><text fill="#000000" font-family="sans-serif" font-size="14" lengthAdjust="spacing" textLength="161.8545" x="581.3555" y="111.7285">:CreateScenarioController</text><rect fill="#E3E3E3" height="32.6211" rx="2.5" ry="2.5" style="stroke:#181818;stroke-width:0.5;" width="175.8545" x="574.3555" y="1101.6523"/><text fill="#000000" font-family="sans-serif" font-size="14" lengthAdjust="spacing" textLength="161.8545" x="581.3555" y="1123.7598">:CreateScenarioController</text><rect fill="#E3E3E3" height="32.6211" rx="2.5" ry="2.5" style="stroke:#181818;stroke-width:0.5;" width="124.5029" x="760.21" y="89.6211"/><text fill="#000000" font-family="sans-serif" font-size="14" lengthAdjust="spacing" textLength="110.5029" x="767.21" y="111.7285">selectedMap:Map</text><rect fill="#E3E3E3" height="32.6211" rx="2.5" ry="2.5" style="stroke:#181818;stroke-width:0.5;" width="124.5029" x="760.21" y="1101.6523"/><text fill="#000000" font-family="sans-serif" font-size="14" lengthAdjust="spacing" textLength="110.5029" x="767.21" y="1123.7598">selectedMap:Map</text><rect fill="#E3E3E3" height="32.6211" rx="2.5" ry="2.5" style="stroke:#181818;stroke-width:0.5;" width="126.0615" x="894.7129" y="89.6211"/><text fill="#000000" font-family="sans-serif" font-size="14" lengthAdjust="spacing" textLength="112.0615" x="901.7129" y="111.7285">scenario:Scenario</text><rect fill="#E3E3E3" height="32.6211" rx="2.5" ry="2.5" style="stroke:#181818;stroke-width:0.5;" width="126.0615" x="894.7129" y="1101.6523"/><text fill="#000000" font-family="sans-serif" font-size="14" lengthAdjust="spacing" textLength="112.0615" x="901.7129" y="1123.7598">scenario:Scenario</text><rect fill="#FFFFFF" height="951.4102" style="stroke:#181818;stroke-width:1.0;" width="10" x="21.2861" y="133.2422"/><rect fill="#FFFFFF" height="186.416" style="stroke:#181818;stroke-width:1.0;" width="10" x="318.6958" y="156.5332"/><rect fill="#FFFFFF" height="75.582" style="stroke:#181818;stroke-width:1.0;" width="10" x="318.6958" y="374.2402"/><rect fill="#FFFFFF" height="123.834" style="stroke:#181818;stroke-width:1.0;" width="10" x="318.6958" y="481.1133"/><rect fill="#FFFFFF" height="123.834" style="stroke:#181818;stroke-width:1.0;" width="10" x="318.6958" y="636.2383"/><rect fill="#FFFFFF" height="75.582" style="stroke:#181818;stroke-width:1.0;" width="10" x="318.6958" y="791.3633"/><rect fill="#FFFFFF" height="75.582" style="stroke:#181818;stroke-width:1.0;" width="10" x="318.6958" y="898.2363"/><rect fill="#FFFFFF" height="79.543" style="stroke:#181818;stroke-width:1.0;" width="10" x="318.6958" y="1005.1094"/><rect fill="#FFFFFF" height="31.291" style="stroke:#181818;stroke-width:1.0;" width="10" x="657.2827" y="187.8242"/><polygon fill="#181818" points="306.6958,152.5332,316.6958,156.5332,306.6958,160.5332,310.6958,156.5332" style="stroke:#181818;stroke-width:1.0;"/><line style="stroke:#181818;stroke-width:1.0;" x1="31.2861" x2="312.6958" y1="156.5332" y2="156.5332"/><text fill="#000000" font-family="sans-serif" font-size="13" font-weight="bold" lengthAdjust="spacing" textLength="7.23" x="38.2861" y="151.2705">1</text><text fill="#000000" font-family="sans-serif" font-size="13" lengthAdjust="spacing" textLength="144.5171" x="49.5161" y="151.2705">asks to create a scenario</text><polygon fill="#181818" points="645.2827,183.8242,655.2827,187.8242,645.2827,191.8242,649.2827,187.8242" style="stroke:#181818;stroke-width:1.0;"/><line style="stroke:#181818;stroke-width:1.0;" x1="328.6958" x2="651.2827" y1="187.8242" y2="187.8242"/><text fill="#000000" font-family="sans-serif" font-size="13" font-weight="bold" lengthAdjust="spacing" textLength="7.23" x="335.6958" y="182.5615">2</text><text fill="#000000" font-family="sans-serif" font-size="13" lengthAdjust="spacing" textLength="124.2617" x="346.9258" y="182.5615">getCurrentUserRole()</text><polygon fill="#181818" points="339.6958,215.1152,329.6958,219.1152,339.6958,223.1152,335.6958,219.1152" style="stroke:#181818;stroke-width:1.0;"/><line style="stroke:#181818;stroke-width:1.0;stroke-dasharray:2.0,2.0;" x1="333.6958" x2="661.2827" y1="219.1152" y2="219.1152"/><text fill="#000000" font-family="sans-serif" font-size="13" font-weight="bold" lengthAdjust="spacing" textLength="7.23" x="345.6958" y="213.8525">3</text><text fill="#000000" font-family="sans-serif" font-size="13" lengthAdjust="spacing" textLength="28.1772" x="356.9258" y="213.8525">roles</text><line style="stroke:#181818;stroke-width:1.0;" x1="328.6958" x2="370.6958" y1="250.4063" y2="250.4063"/><line style="stroke:#181818;stroke-width:1.0;" x1="370.6958" x2="370.6958" y1="250.4063" y2="263.4063"/><line style="stroke:#181818;stroke-width:1.0;" x1="329.6958" x2="370.6958" y1="263.4063" y2="263.4063"/><polygon fill="#181818" points="339.6958,259.4063,329.6958,263.4063,339.6958,267.4063,335.6958,263.4063" style="stroke:#181818;stroke-width:1.0;"/><text fill="#000000" font-family="sans-serif" font-size="13" font-weight="bold" lengthAdjust="spacing" textLength="7.23" x="335.6958" y="245.1436">4</text><text fill="#000000" font-family="sans-serif" font-size="13" lengthAdjust="spacing" textLength="123.3921" x="346.9258" y="245.1436">validateRole("Editor")</text><rect fill="none" height="43.252" style="stroke:#000000;stroke-width:1.5;" width="497.0967" x="256.1133" y="271.4063"/><path d="M256.1133,271.4063 L317.1133,271.4063 L317.1133,280.4063 L307.1133,290.4063 L256.1133,290.4063 L256.1133,271.4063 " fill="#EEEEEE" style="stroke:#000000;stroke-width:2.0;"/><text fill="#000000" font-family="sans-serif" font-size="13" font-weight="bold" lengthAdjust="spacing" textLength="16.6182" x="269.1133" y="287.4346">ref</text><text fill="#000000" font-family="sans-serif" font-size="12" lengthAdjust="spacing" textLength="74.0273" x="467.6479" y="307.3555">Get Maps List</text><polygon fill="#181818" points="42.2861,338.9492,32.2861,342.9492,42.2861,346.9492,38.2861,342.9492" style="stroke:#181818;stroke-width:1.0;"/><line style="stroke:#181818;stroke-width:1.0;stroke-dasharray:2.0,2.0;" x1="36.2861" x2="322.6958" y1="342.9492" y2="342.9492"/><text fill="#000000" font-family="sans-serif" font-size="13" font-weight="bold" lengthAdjust="spacing" textLength="7.23" x="48.2861" y="337.6865">5</text><text fill="#000000" font-family="sans-serif" font-size="13" lengthAdjust="spacing" textLength="218.2197" x="59.5161" y="337.6865">shows map list and asks to select one</text><polygon fill="#181818" points="306.6958,370.2402,316.6958,374.2402,306.6958,378.2402,310.6958,374.2402" style="stroke:#181818;stroke-width:1.0;"/><line style="stroke:#181818;stroke-width:1.0;" x1="31.2861" x2="312.6958" y1="374.2402" y2="374.2402"/><text fill="#000000" font-family="sans-serif" font-size="13" font-weight="bold" lengthAdjust="spacing" textLength="7.23" x="38.2861" y="368.9775">6</text><text fill="#000000" font-family="sans-serif" font-size="13" lengthAdjust="spacing" textLength="80.2026" x="49.5161" y="368.9775">selects a map</text><line style="stroke:#181818;stroke-width:1.0;" x1="328.6958" x2="370.6958" y1="405.5313" y2="405.5313"/><line style="stroke:#181818;stroke-width:1.0;" x1="370.6958" x2="370.6958" y1="405.5313" y2="418.5313"/><line style="stroke:#181818;stroke-width:1.0;" x1="329.6958" x2="370.6958" y1="418.5313" y2="418.5313"/><polygon fill="#181818" points="339.6958,414.5313,329.6958,418.5313,339.6958,422.5313,335.6958,418.5313" style="stroke:#181818;stroke-width:1.0;"/><text fill="#000000" font-family="sans-serif" font-size="13" font-weight="bold" lengthAdjust="spacing" textLength="7.23" x="335.6958" y="400.2686">7</text><text fill="#000000" font-family="sans-serif" font-size="13" lengthAdjust="spacing" textLength="137.2871" x="346.9258" y="400.2686">saveSelectedMap(map)</text><polygon fill="#181818" points="42.2861,445.8223,32.2861,449.8223,42.2861,453.8223,38.2861,449.8223" style="stroke:#181818;stroke-width:1.0;"/><line style="stroke:#181818;stroke-width:1.0;stroke-dasharray:2.0,2.0;" x1="36.2861" x2="322.6958" y1="449.8223" y2="449.8223"/><text fill="#000000" font-family="sans-serif" font-size="13" font-weight="bold" lengthAdjust="spacing" textLength="7.23" x="48.2861" y="444.5596">8</text><text fill="#000000" font-family="sans-serif" font-size="13" lengthAdjust="spacing" textLength="241.3252" x="59.5161" y="444.5596">requests data (name, start time, end time)</text><polygon fill="#181818" points="306.6958,477.1133,316.6958,481.1133,306.6958,485.1133,310.6958,481.1133" style="stroke:#181818;stroke-width:1.0;"/><line style="stroke:#181818;stroke-width:1.0;" x1="31.2861" x2="312.6958" y1="481.1133" y2="481.1133"/><text fill="#000000" font-family="sans-serif" font-size="13" font-weight="bold" lengthAdjust="spacing" textLength="7.23" x="38.2861" y="475.8506">9</text><text fill="#000000" font-family="sans-serif" font-size="13" lengthAdjust="spacing" textLength="121.418" x="49.5161" y="475.8506">types requested data</text><line style="stroke:#181818;stroke-width:1.0;" x1="328.6958" x2="370.6958" y1="512.4043" y2="512.4043"/><line style="stroke:#181818;stroke-width:1.0;" x1="370.6958" x2="370.6958" y1="512.4043" y2="525.4043"/><line style="stroke:#181818;stroke-width:1.0;" x1="329.6958" x2="370.6958" y1="525.4043" y2="525.4043"/><polygon fill="#181818" points="339.6958,521.4043,329.6958,525.4043,339.6958,529.4043,335.6958,525.4043" style="stroke:#181818;stroke-width:1.0;"/><text fill="#000000" font-family="sans-serif" font-size="13" font-weight="bold" lengthAdjust="spacing" textLength="14.46" x="335.6958" y="507.1416">10</text><text fill="#000000" font-family="sans-serif" font-size="13" lengthAdjust="spacing" textLength="215.2935" x="354.1558" y="507.1416">saveData(name, startTime, endTime)</text><rect fill="none" height="43.252" style="stroke:#000000;stroke-width:1.5;" width="497.0967" x="256.1133" y="533.4043"/><path d="M256.1133,533.4043 L317.1133,533.4043 L317.1133,542.4043 L307.1133,552.4043 L256.1133,552.4043 L256.1133,533.4043 " fill="#EEEEEE" style="stroke:#000000;stroke-width:2.0;"/><text fill="#000000" font-family="sans-serif" font-size="13" font-weight="bold" lengthAdjust="spacing" textLength="16.6182" x="269.1133" y="549.4326">ref</text><text fill="#000000" font-family="sans-serif" font-size="12" lengthAdjust="spacing" textLength="142.0605" x="433.6313" y="569.3535">Get Locomotive Types List</text><polygon fill="#181818" points="42.2861,600.9473,32.2861,604.9473,42.2861,608.9473,38.2861,604.9473" style="stroke:#181818;stroke-width:1.0;"/><line style="stroke:#181818;stroke-width:1.0;stroke-dasharray:2.0,2.0;" x1="36.2861" x2="322.6958" y1="604.9473" y2="604.9473"/><text fill="#000000" font-family="sans-serif" font-size="13" font-weight="bold" lengthAdjust="spacing" textLength="14.46" x="48.2861" y="599.6846">11</text><text fill="#000000" font-family="sans-serif" font-size="13" lengthAdjust="spacing" textLength="244.9497" x="66.7461" y="599.6846">shows locomotive types and asks to select</text><polygon fill="#181818" points="306.6958,632.2383,316.6958,636.2383,306.6958,640.2383,310.6958,636.2383" style="stroke:#181818;stroke-width:1.0;"/><line style="stroke:#181818;stroke-width:1.0;" x1="31.2861" x2="312.6958" y1="636.2383" y2="636.2383"/><text fill="#000000" font-family="sans-serif" font-size="13" font-weight="bold" lengthAdjust="spacing" textLength="14.46" x="38.2861" y="630.9756">12</text><text fill="#000000" font-family="sans-serif" font-size="13" lengthAdjust="spacing" textLength="140.8926" x="56.7461" y="630.9756">selects locomotive types</text><line style="stroke:#181818;stroke-width:1.0;" x1="328.6958" x2="370.6958" y1="667.5293" y2="667.5293"/><line style="stroke:#181818;stroke-width:1.0;" x1="370.6958" x2="370.6958" y1="667.5293" y2="680.5293"/><line style="stroke:#181818;stroke-width:1.0;" x1="329.6958" x2="370.6958" y1="680.5293" y2="680.5293"/><polygon fill="#181818" points="339.6958,676.5293,329.6958,680.5293,339.6958,684.5293,335.6958,680.5293" style="stroke:#181818;stroke-width:1.0;"/><text fill="#000000" font-family="sans-serif" font-size="13" font-weight="bold" lengthAdjust="spacing" textLength="14.46" x="335.6958" y="662.2666">13</text><text fill="#000000" font-family="sans-serif" font-size="13" lengthAdjust="spacing" textLength="286.127" x="354.1558" y="662.2666">saveSelectedLocomotiveTypes(locomotiveTypes)</text><rect fill="none" height="43.252" style="stroke:#000000;stroke-width:1.5;" width="497.0967" x="256.1133" y="688.5293"/><path d="M256.1133,688.5293 L317.1133,688.5293 L317.1133,697.5293 L307.1133,707.5293 L256.1133,707.5293 L256.1133,688.5293 " fill="#EEEEEE" style="stroke:#000000;stroke-width:2.0;"/><text fill="#000000" font-family="sans-serif" font-size="13" font-weight="bold" lengthAdjust="spacing" textLength="16.6182" x="269.1133" y="704.5576">ref</text><text fill="#000000" font-family="sans-serif" font-size="12" lengthAdjust="spacing" textLength="123.3809" x="442.9712" y="724.4785">Get Industry Types List</text><polygon fill="#181818" points="42.2861,756.0723,32.2861,760.0723,42.2861,764.0723,38.2861,760.0723" style="stroke:#181818;stroke-width:1.0;"/><line style="stroke:#181818;stroke-width:1.0;stroke-dasharray:2.0,2.0;" x1="36.2861" x2="322.6958" y1="760.0723" y2="760.0723"/><text fill="#000000" font-family="sans-serif" font-size="13" font-weight="bold" lengthAdjust="spacing" textLength="14.46" x="48.2861" y="754.8096">14</text><text fill="#000000" font-family="sans-serif" font-size="13" lengthAdjust="spacing" textLength="228.3315" x="66.7461" y="754.8096">shows industry types and asks to select</text><polygon fill="#181818" points="306.6958,787.3633,316.6958,791.3633,306.6958,795.3633,310.6958,791.3633" style="stroke:#181818;stroke-width:1.0;"/><line style="stroke:#181818;stroke-width:1.0;" x1="31.2861" x2="312.6958" y1="791.3633" y2="791.3633"/><text fill="#000000" font-family="sans-serif" font-size="13" font-weight="bold" lengthAdjust="spacing" textLength="14.46" x="38.2861" y="786.1006">15</text><text fill="#000000" font-family="sans-serif" font-size="13" lengthAdjust="spacing" textLength="124.2744" x="56.7461" y="786.1006">selects industry types</text><line style="stroke:#181818;stroke-width:1.0;" x1="328.6958" x2="370.6958" y1="822.6543" y2="822.6543"/><line style="stroke:#181818;stroke-width:1.0;" x1="370.6958" x2="370.6958" y1="822.6543" y2="835.6543"/><line style="stroke:#181818;stroke-width:1.0;" x1="329.6958" x2="370.6958" y1="835.6543" y2="835.6543"/><polygon fill="#181818" points="339.6958,831.6543,329.6958,835.6543,339.6958,839.6543,335.6958,835.6543" style="stroke:#181818;stroke-width:1.0;"/><text fill="#000000" font-family="sans-serif" font-size="13" font-weight="bold" lengthAdjust="spacing" textLength="14.46" x="335.6958" y="817.3916">16</text><text fill="#000000" font-family="sans-serif" font-size="13" lengthAdjust="spacing" textLength="249.2725" x="354.1558" y="817.3916">saveSelectedIndustryTypes(industryTypes)</text><polygon fill="#181818" points="42.2861,862.9453,32.2861,866.9453,42.2861,870.9453,38.2861,866.9453" style="stroke:#181818;stroke-width:1.0;"/><line style="stroke:#181818;stroke-width:1.0;stroke-dasharray:2.0,2.0;" x1="36.2861" x2="322.6958" y1="866.9453" y2="866.9453"/><text fill="#000000" font-family="sans-serif" font-size="13" font-weight="bold" lengthAdjust="spacing" textLength="14.46" x="48.2861" y="861.6826">17</text><text fill="#000000" font-family="sans-serif" font-size="13" lengthAdjust="spacing" textLength="142.3335" x="66.7461" y="861.6826">asks for historical events</text><polygon fill="#181818" points="306.6958,894.2363,316.6958,898.2363,306.6958,902.2363,310.6958,898.2363" style="stroke:#181818;stroke-width:1.0;"/><line style="stroke:#181818;stroke-width:1.0;" x1="31.2861" x2="312.6958" y1="898.2363" y2="898.2363"/><text fill="#000000" font-family="sans-serif" font-size="13" font-weight="bold" lengthAdjust="spacing" textLength="14.46" x="38.2861" y="892.9736">18</text><text fill="#000000" font-family="sans-serif" font-size="13" lengthAdjust="spacing" textLength="125.0107" x="56.7461" y="892.9736">adds historical events</text><line style="stroke:#181818;stroke-width:1.0;" x1="328.6958" x2="370.6958" y1="929.5273" y2="929.5273"/><line style="stroke:#181818;stroke-width:1.0;" x1="370.6958" x2="370.6958" y1="929.5273" y2="942.5273"/><line style="stroke:#181818;stroke-width:1.0;" x1="329.6958" x2="370.6958" y1="942.5273" y2="942.5273"/><polygon fill="#181818" points="339.6958,938.5273,329.6958,942.5273,339.6958,946.5273,335.6958,942.5273" style="stroke:#181818;stroke-width:1.0;"/><text fill="#000000" font-family="sans-serif" font-size="13" font-weight="bold" lengthAdjust="spacing" textLength="14.46" x="335.6958" y="924.2646">19</text><text fill="#000000" font-family="sans-serif" font-size="13" lengthAdjust="spacing" textLength="220.3525" x="354.1558" y="924.2646">saveHistoricalEvents(historicalEvents)</text><polygon fill="#181818" points="42.2861,969.8184,32.2861,973.8184,42.2861,977.8184,38.2861,973.8184" style="stroke:#181818;stroke-width:1.0;"/><line style="stroke:#181818;stroke-width:1.0;stroke-dasharray:2.0,2.0;" x1="36.2861" x2="322.6958" y1="973.8184" y2="973.8184"/><text fill="#000000" font-family="sans-serif" font-size="13" font-weight="bold" lengthAdjust="spacing" textLength="14.46" x="48.2861" y="968.5557">20</text><text fill="#000000" font-family="sans-serif" font-size="13" lengthAdjust="spacing" textLength="235.5742" x="66.7461" y="968.5557">shows all data and requests confirmation</text><polygon fill="#181818" points="306.6958,1001.1094,316.6958,1005.1094,306.6958,1009.1094,310.6958,1005.1094" style="stroke:#181818;stroke-width:1.0;"/><line style="stroke:#181818;stroke-width:1.0;" x1="31.2861" x2="312.6958" y1="1005.1094" y2="1005.1094"/><text fill="#000000" font-family="sans-serif" font-size="13" font-weight="bold" lengthAdjust="spacing" textLength="14.46" x="38.2861" y="999.8467">21</text><text fill="#000000" font-family="sans-serif" font-size="13" lengthAdjust="spacing" textLength="78.0317" x="56.7461" y="999.8467">confirms data</text><rect fill="none" height="43.252" style="stroke:#000000;stroke-width:1.5;" width="767.6611" x="256.1133" y="1013.1094"/><path d="M256.1133,1013.1094 L317.1133,1013.1094 L317.1133,1022.1094 L307.1133,1032.1094 L256.1133,1032.1094 L256.1133,1013.1094 " fill="#EEEEEE" style="stroke:#000000;stroke-width:2.0;"/><text fill="#000000" font-family="sans-serif" font-size="13" font-weight="bold" lengthAdjust="spacing" textLength="16.6182" x="269.1133" y="1029.1377">ref</text><text fill="#000000" font-family="sans-serif" font-size="12" lengthAdjust="spacing" textLength="86.7129" x="596.5874" y="1049.0586">Create Scenario</text><polygon fill="#181818" points="37.2861,1080.6523,27.2861,1084.6523,37.2861,1088.6523,33.2861,1084.6523" style="stroke:#181818;stroke-width:1.0;"/><line style="stroke:#181818;stroke-width:1.0;stroke-dasharray:2.0,2.0;" x1="31.2861" x2="322.6958" y1="1084.6523" y2="1084.6523"/><text fill="#000000" font-family="sans-serif" font-size="13" font-weight="bold" lengthAdjust="spacing" textLength="14.46" x="43.2861" y="1079.3896">22</text><text fill="#000000" font-family="sans-serif" font-size="13" lengthAdjust="spacing" textLength="155.3589" x="61.7461" y="1079.3896">displays operation success</text><!--SRC=[hLNRZjem47tFLunu0WcaFlI9XqehG2qIswq8VC3K6S32iLFROSNVT-nSkEvkQ3SImYRdZC-P6JDkBtM15dF8ZJPYPqrEu6r9YMlV52ZskANK7nM19U5HRzKvmEqmCwzIRs63ob6IUEaPcjAVahGWc4hS1bm_dGvW1ElqorUOM49FW90AqcYbWOsnOKkAJw0Cdh5WR5eewPC4IszqcVycoslX6TcRPPA_Uu0EPjFvwcMPi1WlXInGU-YDgmEQwEjvHAxdxw8cHdjhbA8gxcIrN5pYNQsEnOtv4r7FJx-kG7MqSHCsmjB9xEVJSluI3SX3C5_hJe2VQWsZRwmHnapOE_06H9Ec9cW4jn7O3zGFqvWS93DzItvIMalQhntPfL7K7xJ8bXtzmTaJsQD60sU2NFi-e_kyAm6HUK0bCqR6WvjA3MufbZPW3cIPDRnLyvryw0872-by-uPq5dZtpsS1TIB7t9NcrK7ERQIO3yYy9gjL6S5eIgwiSKBlbQCYEAu3n_kW11K13vIUcgNFjC77acsuCOxFuUGXz3NcD0JdkRd0ox0EviDgq56tFnRach1ygKBShlAdZ3sNi6eKh5e13nPpOOJ93HzCi8h2_gUmwXIiSdbRu0UBUntnqJgVx4LtVNMv_wUKpNLMEc-Fdv0msOJwf7HTndiqMOsnAbNoVDVXeaJXOM3iE276Ie4AwC1_TwwZ2SmozmQvWuaVBN4MUVtTrG-3haL1fQhBZh6OzVKNHc-apT5BepiQgYdk_Ij-qt33CBw6f-5qCGsgsPEUJvw7-YwJhb1uT60Aij4Ck588SdUhTBQj1-DV]--></g></svg>