<svg xmlns="http://www.w3.org/2000/svg" xmlns:xlink="http://www.w3.org/1999/xlink" contentStyleType="text/css" height="331px" preserveAspectRatio="none" style="width:648px;height:331px;background:#FFFFFF;" version="1.1" viewBox="0 0 648 331" width="648px" zoomAndPan="magnify"><title>US04 - Get Industry Types List - Partial Sequence Diagram</title><defs/><g><text fill="#000000" font-family="sans-serif" font-size="14" font-weight="bold" lengthAdjust="spacing" textLength="388.2266" x="129.2373" y="30.1074">US04 - Get Industry Types List - Partial Sequence Diagram</text><rect fill="#FFFFFF" height="127.1641" style="stroke:#181818;stroke-width:1.0;" width="10" x="227.0923" y="130.1543"/><rect fill="#FFFFFF" height="31.291" style="stroke:#181818;stroke-width:1.0;" width="10" x="407.8848" y="187.7363"/><rect fill="none" height="81.873" style="stroke:#000000;stroke-width:1.5;" width="371.585" x="134.165" y="145.1543"/><line style="stroke:#181818;stroke-width:0.5;stroke-dasharray:5.0,5.0;" x1="69" x2="69" y1="96.8633" y2="275.3184"/><line style="stroke:#181818;stroke-width:0.5;stroke-dasharray:5.0,5.0;" x1="231.165" x2="231.165" y1="96.8633" y2="275.3184"/><line style="stroke:#181818;stroke-width:0.5;stroke-dasharray:5.0,5.0;" x1="412.0195" x2="412.0195" y1="96.8633" y2="275.3184"/><line style="stroke:#181818;stroke-width:0.5;stroke-dasharray:5.0,5.0;" x1="573.75" x2="573.75" y1="96.8633" y2="275.3184"/><rect fill="#E3E3E3" height="32.6211" rx="2.5" ry="2.5" style="stroke:#181818;stroke-width:0.5;" width="129.165" x="5" y="63.2422"/><text fill="#000000" font-family="sans-serif" font-size="14" lengthAdjust="spacing" textLength="115.165" x="12" y="85.3496">:CreateScenarioUI</text><rect fill="#E3E3E3" height="32.6211" rx="2.5" ry="2.5" style="stroke:#181818;stroke-width:0.5;" width="129.165" x="5" y="274.3184"/><text fill="#000000" font-family="sans-serif" font-size="14" lengthAdjust="spacing" textLength="115.165" x="12" y="296.4258">:CreateScenarioUI</text><rect fill="#E3E3E3" height="32.6211" rx="2.5" ry="2.5" style="stroke:#181818;stroke-width:0.5;" width="175.8545" x="144.165" y="63.2422"/><text fill="#000000" font-family="sans-serif" font-size="14" lengthAdjust="spacing" textLength="161.8545" x="151.165" y="85.3496">:CreateScenarioController</text><rect fill="#E3E3E3" height="32.6211" rx="2.5" ry="2.5" style="stroke:#181818;stroke-width:0.5;" width="175.8545" x="144.165" y="274.3184"/><text fill="#000000" font-family="sans-serif" font-size="14" lengthAdjust="spacing" textLength="161.8545" x="151.165" y="296.4258">:CreateScenarioController</text><rect fill="#E3E3E3" height="32.6211" rx="2.5" ry="2.5" style="stroke:#181818;stroke-width:0.5;" width="165.7305" x="330.0195" y="63.2422"/><text fill="#000000" font-family="sans-serif" font-size="14" lengthAdjust="spacing" textLength="151.7305" x="337.0195" y="85.3496">:IndustryTypeRepository</text><rect fill="#E3E3E3" height="32.6211" rx="2.5" ry="2.5" style="stroke:#181818;stroke-width:0.5;" width="165.7305" x="330.0195" y="274.3184"/><text fill="#000000" font-family="sans-serif" font-size="14" lengthAdjust="spacing" textLength="151.7305" x="337.0195" y="296.4258">:IndustryTypeRepository</text><rect fill="#E3E3E3" height="51.2422" rx="2.5" ry="2.5" style="stroke:#181818;stroke-width:0.5;" width="136.9512" x="505.75" y="44.6211"/><text fill="#000000" font-family="sans-serif" font-size="14" lengthAdjust="spacing" textLength="101.9307" x="523.2603" y="66.7285">industryTypeList</text><text fill="#000000" font-family="sans-serif" font-size="14" lengthAdjust="spacing" textLength="122.9512" x="512.75" y="85.3496">:List&lt;IndustryType&gt;</text><rect fill="#E3E3E3" height="51.2422" rx="2.5" ry="2.5" style="stroke:#181818;stroke-width:0.5;" width="136.9512" x="505.75" y="274.3184"/><text fill="#000000" font-family="sans-serif" font-size="14" lengthAdjust="spacing" textLength="101.9307" x="523.2603" y="296.4258">industryTypeList</text><text fill="#000000" font-family="sans-serif" font-size="14" lengthAdjust="spacing" textLength="122.9512" x="512.75" y="315.0469">:List&lt;IndustryType&gt;</text><rect fill="#FFFFFF" height="127.1641" style="stroke:#181818;stroke-width:1.0;" width="10" x="227.0923" y="130.1543"/><rect fill="#FFFFFF" height="31.291" style="stroke:#181818;stroke-width:1.0;" width="10" x="407.8848" y="187.7363"/><polygon fill="#181818" points="215.0923,126.1543,225.0923,130.1543,215.0923,134.1543,219.0923,130.1543" style="stroke:#181818;stroke-width:1.0;"/><line style="stroke:#181818;stroke-width:1.0;" x1="69.5825" x2="221.0923" y1="130.1543" y2="130.1543"/><text fill="#000000" font-family="sans-serif" font-size="13" lengthAdjust="spacing" textLength="122.1035" x="76.5825" y="124.8916">getIndustryTypeList()</text><path d="M134.165,145.1543 L323.6377,145.1543 L323.6377,154.4453 L313.6377,164.4453 L134.165,164.4453 L134.165,145.1543 " fill="#EEEEEE" style="stroke:#000000;stroke-width:1.5;"/><rect fill="none" height="81.873" style="stroke:#000000;stroke-width:1.5;" width="371.585" x="134.165" y="145.1543"/><text fill="#000000" font-family="sans-serif" font-size="13" font-weight="bold" lengthAdjust="spacing" textLength="144.4727" x="149.165" y="160.1826">Get Industry Types List</text><polygon fill="#181818" points="395.8848,183.7363,405.8848,187.7363,395.8848,191.7363,399.8848,187.7363" style="stroke:#181818;stroke-width:1.0;"/><line style="stroke:#181818;stroke-width:1.0;" x1="237.0923" x2="401.8848" y1="187.7363" y2="187.7363"/><text fill="#000000" font-family="sans-serif" font-size="13" lengthAdjust="spacing" textLength="122.8208" x="244.0923" y="182.4736">getAllIndustryTypes()</text><polygon fill="#181818" points="248.0923,215.0273,238.0923,219.0273,248.0923,223.0273,244.0923,219.0273" style="stroke:#181818;stroke-width:1.0;"/><line style="stroke:#181818;stroke-width:1.0;stroke-dasharray:2.0,2.0;" x1="242.0923" x2="411.8848" y1="219.0273" y2="219.0273"/><text fill="#000000" font-family="sans-serif" font-size="13" lengthAdjust="spacing" textLength="94.6499" x="254.0923" y="213.7646">industryTypeList</text><polygon fill="#181818" points="80.5825,253.3184,70.5825,257.3184,80.5825,261.3184,76.5825,257.3184" style="stroke:#181818;stroke-width:1.0;"/><line style="stroke:#181818;stroke-width:1.0;stroke-dasharray:2.0,2.0;" x1="74.5825" x2="231.0923" y1="257.3184" y2="257.3184"/><text fill="#000000" font-family="sans-serif" font-size="13" lengthAdjust="spacing" textLength="94.6499" x="86.5825" y="252.0557">industryTypeList</text><!--SRC=[VP1FImCn4CNl-HH3JteeUF1Kf21jaS2YPVyS2bw6xBWDJPCrcLNssvlTQiqMQouvp7k_UM_2GTiMFHxXwAnJU- -E1Emx4k4yQL4TiA62UqFWIJ7QngI2iCVQVMhRm1kQG4AmvYYjYhjxcCCJCKXRTu5z3sNVKe1C1uwJBNhMQA2Wzuwi8bXhR29GY7QOADsYPPWjLfwGgL1aqMjNoHbWW4h-grevozuPGtvKhyeykz3_P1eYvTIweDdvVbJBvtLLbFaktsnVfYwTc8OMhtOnV0yfR3bXbBlj9fD5AKGbORuSay026c9vmRgv5QXOVyGMfxmGN-DTrrwxuQWOWH6SXZujU3GctH7YWi5mNZAf2TzlWfd_1hviFXfgkWuZMv_I9oaZBbxX3rW26fHV]--></g></svg>