<svg xmlns="http://www.w3.org/2000/svg" xmlns:xlink="http://www.w3.org/1999/xlink" contentStyleType="text/css" height="331px" preserveAspectRatio="none" style="width:696px;height:331px;background:#FFFFFF;" version="1.1" viewBox="0 0 696 331" width="696px" zoomAndPan="magnify"><title>US04 - Get Locomotive Types List - Partial Sequence Diagram</title><defs/><g><text fill="#000000" font-family="sans-serif" font-size="14" font-weight="bold" lengthAdjust="spacing" textLength="411.5645" x="141.2764" y="30.1074">US04 - Get Locomotive Types List - Partial Sequence Diagram</text><rect fill="#FFFFFF" height="127.1641" style="stroke:#181818;stroke-width:1.0;" width="10" x="230.9224" y="130.1543"/><rect fill="#FFFFFF" height="31.291" style="stroke:#181818;stroke-width:1.0;" width="10" x="422.6113" y="187.7363"/><rect fill="none" height="81.873" style="stroke:#000000;stroke-width:1.5;" width="393.3779" x="137.9951" y="145.1543"/><line style="stroke:#181818;stroke-width:0.5;stroke-dasharray:5.0,5.0;" x1="69" x2="69" y1="96.8633" y2="275.3184"/><line style="stroke:#181818;stroke-width:0.5;stroke-dasharray:5.0,5.0;" x1="234.9951" x2="234.9951" y1="96.8633" y2="275.3184"/><line style="stroke:#181818;stroke-width:0.5;stroke-dasharray:5.0,5.0;" x1="426.8496" x2="426.8496" y1="96.8633" y2="275.3184"/><line style="stroke:#181818;stroke-width:0.5;stroke-dasharray:5.0,5.0;" x1="610.373" x2="610.373" y1="96.8633" y2="275.3184"/><rect fill="#E3E3E3" height="32.6211" rx="2.5" ry="2.5" style="stroke:#181818;stroke-width:0.5;" width="129.165" x="5" y="63.2422"/><text fill="#000000" font-family="sans-serif" font-size="14" lengthAdjust="spacing" textLength="115.165" x="12" y="85.3496">:CreateScenarioUI</text><rect fill="#E3E3E3" height="32.6211" rx="2.5" ry="2.5" style="stroke:#181818;stroke-width:0.5;" width="129.165" x="5" y="274.3184"/><text fill="#000000" font-family="sans-serif" font-size="14" lengthAdjust="spacing" textLength="115.165" x="12" y="296.4258">:CreateScenarioUI</text><rect fill="#E3E3E3" height="32.6211" rx="2.5" ry="2.5" style="stroke:#181818;stroke-width:0.5;" width="175.8545" x="147.9951" y="63.2422"/><text fill="#000000" font-family="sans-serif" font-size="14" lengthAdjust="spacing" textLength="161.8545" x="154.9951" y="85.3496">:CreateScenarioController</text><rect fill="#E3E3E3" height="32.6211" rx="2.5" ry="2.5" style="stroke:#181818;stroke-width:0.5;" width="175.8545" x="147.9951" y="274.3184"/><text fill="#000000" font-family="sans-serif" font-size="14" lengthAdjust="spacing" textLength="161.8545" x="154.9951" y="296.4258">:CreateScenarioController</text><rect fill="#E3E3E3" height="32.6211" rx="2.5" ry="2.5" style="stroke:#181818;stroke-width:0.5;" width="187.5234" x="333.8496" y="63.2422"/><text fill="#000000" font-family="sans-serif" font-size="14" lengthAdjust="spacing" textLength="173.5234" x="340.8496" y="85.3496">:LocomotiveTypeRepository</text><rect fill="#E3E3E3" height="32.6211" rx="2.5" ry="2.5" style="stroke:#181818;stroke-width:0.5;" width="187.5234" x="333.8496" y="274.3184"/><text fill="#000000" font-family="sans-serif" font-size="14" lengthAdjust="spacing" textLength="173.5234" x="340.8496" y="296.4258">:LocomotiveTypeRepository</text><rect fill="#E3E3E3" height="51.2422" rx="2.5" ry="2.5" style="stroke:#181818;stroke-width:0.5;" width="158.7441" x="531.373" y="44.6211"/><text fill="#000000" font-family="sans-serif" font-size="14" lengthAdjust="spacing" textLength="119.8271" x="550.8315" y="66.7285">locomotiveTypeList</text><text fill="#000000" font-family="sans-serif" font-size="14" lengthAdjust="spacing" textLength="144.7441" x="538.373" y="85.3496">:List&lt;LocomotiveType&gt;</text><rect fill="#E3E3E3" height="51.2422" rx="2.5" ry="2.5" style="stroke:#181818;stroke-width:0.5;" width="158.7441" x="531.373" y="274.3184"/><text fill="#000000" font-family="sans-serif" font-size="14" lengthAdjust="spacing" textLength="119.8271" x="550.8315" y="296.4258">locomotiveTypeList</text><text fill="#000000" font-family="sans-serif" font-size="14" lengthAdjust="spacing" textLength="144.7441" x="538.373" y="315.0469">:List&lt;LocomotiveType&gt;</text><rect fill="#FFFFFF" height="127.1641" style="stroke:#181818;stroke-width:1.0;" width="10" x="230.9224" y="130.1543"/><rect fill="#FFFFFF" height="31.291" style="stroke:#181818;stroke-width:1.0;" width="10" x="422.6113" y="187.7363"/><polygon fill="#181818" points="218.9224,126.1543,228.9224,130.1543,218.9224,134.1543,222.9224,130.1543" style="stroke:#181818;stroke-width:1.0;"/><line style="stroke:#181818;stroke-width:1.0;" x1="69.5825" x2="224.9224" y1="130.1543" y2="130.1543"/><text fill="#000000" font-family="sans-serif" font-size="13" lengthAdjust="spacing" textLength="142.3398" x="76.5825" y="124.8916">getLocomotiveTypeList()</text><path d="M137.9951,145.1543 L349.1387,145.1543 L349.1387,154.4453 L339.1387,164.4453 L137.9951,164.4453 L137.9951,145.1543 " fill="#EEEEEE" style="stroke:#000000;stroke-width:1.5;"/><rect fill="none" height="81.873" style="stroke:#000000;stroke-width:1.5;" width="393.3779" x="137.9951" y="145.1543"/><text fill="#000000" font-family="sans-serif" font-size="13" font-weight="bold" lengthAdjust="spacing" textLength="166.1436" x="152.9951" y="160.1826">Get Locomotive Types List</text><polygon fill="#181818" points="410.6113,183.7363,420.6113,187.7363,410.6113,191.7363,414.6113,187.7363" style="stroke:#181818;stroke-width:1.0;"/><line style="stroke:#181818;stroke-width:1.0;" x1="240.9224" x2="416.6113" y1="187.7363" y2="187.7363"/><text fill="#000000" font-family="sans-serif" font-size="13" lengthAdjust="spacing" textLength="143.0571" x="247.9224" y="182.4736">getAllLocomotiveTypes()</text><polygon fill="#181818" points="251.9224,215.0273,241.9224,219.0273,251.9224,223.0273,247.9224,219.0273" style="stroke:#181818;stroke-width:1.0;"/><line style="stroke:#181818;stroke-width:1.0;stroke-dasharray:2.0,2.0;" x1="245.9224" x2="426.6113" y1="219.0273" y2="219.0273"/><text fill="#000000" font-family="sans-serif" font-size="13" lengthAdjust="spacing" textLength="111.2681" x="257.9224" y="213.7646">locomotiveTypeList</text><polygon fill="#181818" points="80.5825,253.3184,70.5825,257.3184,80.5825,261.3184,76.5825,257.3184" style="stroke:#181818;stroke-width:1.0;"/><line style="stroke:#181818;stroke-width:1.0;stroke-dasharray:2.0,2.0;" x1="74.5825" x2="234.9224" y1="257.3184" y2="257.3184"/><text fill="#000000" font-family="sans-serif" font-size="13" lengthAdjust="spacing" textLength="111.2681" x="86.5825" y="252.0557">locomotiveTypeList</text><!--SRC=[VP2nQiCm48PtFSMHgHq27Jg54YXkA0P3GcmFXIw7SdL4P9qgNLhozfMTrecRj5eCla_V_R_YpZYF0LjesR7U1cu99En9nM7YKU-meL8EbY2G5dIDFGVY5ZVyQLm3RsWZAIL64bgNT_SmXMSIA5Xpos8-2Ag3fmY5YP9cAmnYq499xtjock39O9EKIlbkeer79p2PPO5GgDJaC1YkymbWX3h_byhOIM1hAVHqLgsBN_mfLHTgJPwZ4Gw7dY-MsNAzM2t7T-peIjVYrSswpyDODXySrSjgKUHbfLITmtJUvu0PD2J5XUlcLg5EFrABOrv8fmcyzt-_Oi_qqYJ_2NrSy6ZjU4TC2pfyM3AKXEyp2AQdg9UTUtn3rpNaDiVCwYnQigNwLrtgJDJ1Nm00]--></g></svg>